<?xml version="1.0" standalone="no"?>
<!DOCTYPE svg PUBLIC "-//W3C//DTD SVG 1.1//EN" "http://www.w3.org/Graphics/SVG/1.1/DTD/svg11.dtd" >
<svg xmlns="http://www.w3.org/2000/svg">
<metadata></metadata>
<defs>
<font id="circular_spotify_tx_tLtIt" horiz-adv-x="565" >
<font-face units-per-em="1000" ascent="750" descent="-250" />
<missing-glyph horiz-adv-x="259" />
<glyph unicode="fy" horiz-adv-x="760" d="M266 -190l178 265l-102 348h-143l-90 -423h-61l90 423h-93l11 54h93l25 119q9 41 25.5 67t37.5 41t44 20.5t46 5.5q21 0 37.5 -4.5t22.5 -8.5l-13 -51q-7 3 -19 6t-26 3q-32 0 -58.5 -18t-36.5 -68l-24 -112h181l96 -343l220 343h71l-442 -667h-70z" />
<glyph unicode="&#xd;" horiz-adv-x="259" />
<glyph unicode=" "  horiz-adv-x="259" />
<glyph unicode="&#x09;" horiz-adv-x="259" />
<glyph unicode="&#xa0;" horiz-adv-x="259" />
<glyph unicode="!" horiz-adv-x="225" d="M162 709h78l-127 -520h-43zM18 39q0 23 15.5 40t39.5 17q20 0 31.5 -13.5t11.5 -31.5q0 -23 -16 -39t-38 -16q-20 0 -32 12.5t-12 30.5z" />
<glyph unicode="&#x22;" horiz-adv-x="317" d="M126 654v9q2 29 16 41.5t32 12.5t28 -10.5t10 -27.5q0 -10 -3.5 -22.5t-8.5 -24.5l-58 -144h-22zM260 654v9q1 29 15.5 41.5t31.5 12.5q18 0 28.5 -10.5t10.5 -27.5q0 -10 -3.5 -22.5t-8.5 -24.5l-58 -144h-23z" />
<glyph unicode="#" horiz-adv-x="708" d="M422 207h-175l-41 -207h-54l41 207h-148v50h158l38 192h-146v49h156l43 211h53l-42 -211h174l43 211h54l-42 -211h156v-49h-167l-37 -192h154v-50h-165l-40 -207h-54zM257 257h174l39 192h-175z" />
<glyph unicode="$" horiz-adv-x="550" d="M276 399l54 256h-6q-29 0 -56 -9.5t-48.5 -26.5t-34.5 -41t-13 -54q0 -43 21 -69t62 -46zM253 54q36 0 66.5 10t53 28t35 43.5t12.5 55.5q0 37 -20.5 68t-71.5 52l-19 8zM168 -113l24 119q-78 16 -120.5 68.5t-42.5 126.5q0 12 1 23t3 23l57 10q-5 -23 -5 -43 q0 -26 6.5 -50.5t21 -45.5t36.5 -36.5t54 -22.5l60 281l-36 16q-56 25 -85.5 64t-29.5 97q0 48 20 84t52.5 60t73.5 36t83 12l22 103h50l-23 -110q39 -9 67 -27.5t46 -43.5t26.5 -54t9.5 -59l-56 -12q0 22 -5.5 44t-18 41.5t-32.5 34t-48 22.5l-57 -270l30 -14 q64 -30 96.5 -69.5t32.5 -97.5q0 -42 -16.5 -78t-46.5 -62.5t-71 -41.5t-90 -15h-15l-24 -113h-50z" />
<glyph unicode="%" horiz-adv-x="840" d="M702 709h63l-598 -709h-63zM263 717q30 0 55.5 -10.5t44 -29.5t29 -44t10.5 -54q0 -34 -13.5 -64.5t-36.5 -54t-54 -37t-65 -13.5q-30 0 -55.5 10.5t-44 29t-29 43.5t-10.5 54q0 33 13 64t36 54.5t53.5 37.5t66.5 14zM238 460q22 0 42 9.5t35 25t24 37t9 45.5 q0 38 -24 64t-66 26q-23 0 -43 -9.5t-35 -25.5t-23.5 -37t-8.5 -45q0 -38 24.5 -64t65.5 -26zM636 299q30 0 55.5 -10.5t44 -29t29 -43.5t10.5 -54q0 -34 -13.5 -65t-36.5 -54t-54 -37t-66 -14q-30 0 -55.5 10.5t-43.5 29t-28.5 43.5t-10.5 54q0 33 13 64t36 54.5t53.5 37.5 t66.5 14zM610 42q23 0 43 9.5t35 25t24 37t9 45.5q0 39 -24.5 64.5t-65.5 25.5q-23 0 -43 -9.5t-35 -25.5t-23.5 -37t-8.5 -45q0 -38 24 -64t65 -26z" />
<glyph unicode="&#x26;" horiz-adv-x="643" d="M480 0l-65 97l-3 -3q-52 -48 -101 -74.5t-105 -26.5q-42 0 -74.5 14t-55.5 37.5t-35 54t-12 63.5q0 38 13 68.5t35 55.5t52 46t64 40l26 14l-24 36q-16 24 -29.5 55t-13.5 67q0 41 15 74t40.5 56t58.5 35.5t68 12.5t63.5 -11.5t49 -31t31.5 -45.5t11 -56 q0 -34 -11.5 -60.5t-30.5 -48t-42.5 -38t-47.5 -29.5l-55 -31l126 -189l185 166l-20 -88l-133 -124l92 -136h-72zM92 164q0 -23 8.5 -44t24 -36.5t38 -24.5t49.5 -9q44 0 86 26.5t81 61.5l5 4l-134 200l-45 -25q-48 -27 -80.5 -62.5t-32.5 -90.5zM333 448q45 25 70 55.5 t25 71.5t-27 66.5t-72 25.5q-23 0 -44 -9t-37 -24.5t-26 -37.5t-10 -48q0 -23 8 -45.5t22 -43.5l29 -44z" />
<glyph unicode="'" horiz-adv-x="183" d="M126 654v9q2 29 16 41.5t32 12.5t28 -10.5t10 -27.5q0 -10 -3.5 -22.5t-8.5 -24.5l-58 -144h-22z" />
<glyph unicode="(" horiz-adv-x="292" d="M46 198q0 95 21 179t60 157.5t95 136.5t125 115l32 -38q-60 -47 -111.5 -103t-89 -123.5t-58.5 -147.5t-21 -174q0 -91 25 -166t65 -140l-42 -26q-43 63 -72 147t-29 183z" />
<glyph unicode=")" horiz-adv-x="291" d="M261 452q0 -96 -21.5 -179.5t-60.5 -156.5t-94.5 -135.5t-124.5 -114.5l-32 37q61 47 112 103t88.5 123.5t58.5 147.5t21 175q0 90 -25 165t-65 140l42 27q44 -65 72.5 -149.5t28.5 -182.5z" />
<glyph unicode="*" horiz-adv-x="445" d="M303 563l148 48l7 -48l-150 -48l66 -122l-42 -28l-66 125l-116 -127l-38 32l117 124l-128 46l23 46l128 -48l28 146h54z" />
<glyph unicode="+" horiz-adv-x="535" d="M253 373v207h53v-207h195v-50h-195v-210h-53v210h-193v50h193z" />
<glyph unicode="," horiz-adv-x="240" d="M17 42q0 24 17 40.5t41 16.5q23 0 39 -16t16 -45q0 -36 -14.5 -68t-37.5 -56.5t-52.5 -40.5t-59.5 -19l8 40q19 4 37 14.5t32 25t24.5 31.5t14.5 34q-6 -3 -19 -3q-20 0 -33 12.5t-13 33.5z" />
<glyph unicode="-" horiz-adv-x="404" d="M64 260l11 54h263l-11 -54h-263z" />
<glyph unicode="." horiz-adv-x="227" d="M63 -4q-22 0 -34.5 13.5t-12.5 31.5q0 25 16.5 42.5t41.5 17.5q22 0 34 -14t12 -33q0 -25 -17 -41.5t-40 -16.5z" />
<glyph unicode="/" horiz-adv-x="479" d="M29 -13h-63l512 735h63z" />
<glyph unicode="0" horiz-adv-x="652" d="M295 -13q-64 0 -108 22.5t-71.5 60t-39.5 86.5t-12 102q0 49 8.5 103t26.5 105.5t44.5 98t62.5 81.5t81 55.5t100 20.5q65 0 109 -22.5t71 -59.5t39 -85.5t12 -100.5q0 -47 -8.5 -100t-25.5 -105t-43.5 -99t-62.5 -83.5t-81.5 -58t-101.5 -21.5zM125 256q0 -44 9.5 -83 t30.5 -67.5t54 -45t80 -16.5t84 20.5t66 54t49.5 77t33.5 89t19 90.5t6 82q0 44 -9 82t-30 66.5t-54 44.5t-81 16q-66 0 -114.5 -39.5t-80.5 -100.5t-47.5 -133t-15.5 -137z" />
<glyph unicode="1" horiz-adv-x="337" d="M347 709l-149 -709h-62l126 597q-17 -17 -39 -31.5t-47 -25t-51 -16.5t-50 -6l11 51q36 3 67 14.5t56.5 30.5t45.5 43.5t32 51.5h60z" />
<glyph unicode="2" horiz-adv-x="584" d="M-2 0q15 91 64 158.5t137 109.5l153 73q35 17 64 36t49.5 41.5t32 49t11.5 58.5q0 27 -8.5 53t-27 45.5t-47.5 31.5t-69 12q-39 0 -72.5 -13.5t-59 -39t-40.5 -62t-16 -83.5l-61 10q2 49 20.5 93t50.5 77t77 52.5t101 19.5q55 0 95.5 -16t66.5 -42t39 -60t13 -70 q0 -43 -14 -79t-39 -65.5t-59 -53t-73 -41.5l-170 -80q-18 -9 -37.5 -22t-37.5 -32t-33.5 -44.5t-25.5 -58.5h407l-14 -58h-477z" />
<glyph unicode="3" horiz-adv-x="601" d="M313 413q5 1 9 1h8q37 0 71.5 -12.5t61.5 -36t43.5 -57t16.5 -75.5q0 -51 -20 -96t-55 -78t-83 -52.5t-104 -19.5q-55 0 -99 16.5t-75 45t-47.5 66.5t-16.5 81q0 8 1 16.5t3 16.5l60 9q-3 -17 -3 -35q0 -35 13.5 -64.5t37 -51.5t55.5 -34t70 -12q40 0 76 13.5t63.5 37.5 t43.5 58.5t16 76.5q0 34 -13 60.5t-35 44.5t-52 27t-64 9q-20 0 -38 -3l-22 58l306 228h-388l12 58h466l-14 -68z" />
<glyph unicode="4" horiz-adv-x="607" d="M327 0l35 175h-354l16 74l426 460h87l-102 -478h130l-11 -56h-131l-36 -175h-60zM81 231h293l89 416z" />
<glyph unicode="5" horiz-adv-x="585" d="M24 202v9t1 10l60 12q-1 -5 -1 -10.5v-10.5q0 -34 11.5 -65t33.5 -54t54.5 -37t74.5 -14q40 0 76 14.5t63 41t43 63.5t16 81q0 34 -11.5 63t-33.5 50t-52.5 33t-67.5 12q-42 0 -78.5 -14.5t-70.5 -40.5l-57 34l156 330h355l-7 -58h-316l-115 -242q32 23 70.5 34.5 t76.5 11.5q48 0 87.5 -15t67.5 -42.5t43.5 -65.5t15.5 -83q0 -54 -20 -102t-55.5 -83.5t-84 -56t-105.5 -20.5q-53 0 -95.5 16.5t-72.5 45.5t-46 68.5t-16 84.5z" />
<glyph unicode="6" horiz-adv-x="623" d="M455 661q-66 0 -120.5 -26t-96.5 -69.5t-69.5 -101.5t-39.5 -122q11 22 31 44t48 39t62 27.5t73 10.5q49 0 89 -15t68.5 -42t44 -65t15.5 -84q0 -62 -23 -112t-61 -85t-86.5 -54t-100.5 -19q-51 0 -94 17.5t-73.5 50t-47.5 79.5t-17 107q0 84 27 168.5t78.5 153t126 111 t170.5 42.5q54 0 98.5 -13t72.5 -35l-26 -49q-24 17 -61 29.5t-88 12.5zM329 409q-41 0 -78 -16t-65.5 -43.5t-45 -64.5t-16.5 -79q0 -36 13 -66.5t36 -52.5t54 -34t67 -12q38 0 74.5 14.5t65 41.5t45.5 65.5t17 86.5q0 36 -12 65.5t-34 50.5t-53 32.5t-68 11.5z" />
<glyph unicode="7" horiz-adv-x="542" d="M602 646q-60 -47 -124.5 -107t-125.5 -138.5t-115 -177.5t-93 -223h-66q40 136 100 242t124.5 185.5t126.5 134.5t107 90h-438l13 57h505z" />
<glyph unicode="8" horiz-adv-x="606" d="M526 199q0 -47 -18.5 -85.5t-52 -67t-80 -44t-101.5 -15.5q-59 0 -103.5 15t-74 40.5t-44.5 59t-15 69.5q0 39 14 72.5t38.5 59.5t58.5 43.5t74 23.5q-42 19 -69.5 58.5t-27.5 88.5q0 45 19 82.5t51 65t75.5 42.5t93.5 15q52 0 93 -14t69.5 -38t43 -56t14.5 -68 q0 -35 -13 -66.5t-35.5 -56.5t-53 -42.5t-66.5 -24.5q51 -19 80.5 -59.5t29.5 -97.5zM346 387q37 0 69 11t56 31.5t38 48.5t14 63q0 27 -10.5 50t-31 40.5t-50.5 27.5t-68 10q-39 0 -71.5 -11t-56.5 -31.5t-37 -48.5t-13 -61q0 -32 14 -56t37 -40.5t51.5 -25t58.5 -8.5z M100 177q0 -35 15.5 -61t41 -43t57.5 -25t64 -8q40 0 74.5 12t59.5 33t39.5 50t14.5 64q0 28 -11 53.5t-33 44t-55.5 29.5t-77.5 11q-42 0 -76.5 -12t-59.5 -33t-39 -50.5t-14 -64.5z" />
<glyph unicode="9" horiz-adv-x="624" d="M354 666q-36 0 -71 -14t-63 -40t-45.5 -62.5t-17.5 -82.5q0 -36 12.5 -66t35 -51t52.5 -33t66 -12q40 0 76 15t63.5 42t43.5 63.5t16 79.5q0 36 -13 65.5t-35.5 50.5t-53 33t-66.5 12zM359 722q106 0 169 -66.5t63 -188.5q0 -56 -9.5 -113.5t-29.5 -110t-50.5 -98.5 t-72 -80.5t-94.5 -54t-117 -19.5q-53 0 -107.5 15t-89.5 46l28 51q34 -28 78.5 -42t92.5 -14q66 0 118.5 24.5t90.5 68t61 102t29 126.5q-26 -53 -82.5 -85t-126.5 -32q-44 0 -83 15t-68.5 42t-46.5 65.5t-17 85.5q0 60 23 109t60.5 83t84.5 52.5t96 18.5z" />
<glyph unicode=":" horiz-adv-x="243" d="M65 -4q-22 0 -34.5 13.5t-12.5 31.5q0 25 16.5 42.5t41.5 17.5q22 0 34 -14t12 -33q0 -25 -17 -41.5t-40 -16.5zM147 376q-22 0 -34.5 13.5t-12.5 31.5q0 25 16.5 42.5t41.5 17.5q22 0 34 -14t12 -33q0 -25 -17 -41.5t-40 -16.5z" />
<glyph unicode=";" horiz-adv-x="274" d="M31 42q0 24 16.5 40t40.5 16q23 0 38.5 -15.5t15.5 -44.5q0 -35 -14.5 -66.5t-37 -55.5t-51.5 -40t-58 -19l7 40q19 4 37 14t31.5 24.5t24 31t14.5 33.5q-6 -3 -19 -3q-20 0 -32.5 12.5t-12.5 32.5zM166 376q-22 0 -34.5 13.5t-12.5 31.5q0 25 16.5 42.5t41.5 17.5 q22 0 34 -14t12 -33q0 -25 -17 -41.5t-40 -16.5z" />
<glyph unicode="&#x3c;" horiz-adv-x="540" d="M56 375l401 207v-60l-342 -174l342 -174v-61l-401 207v55z" />
<glyph unicode="=" horiz-adv-x="652" d="M110 420v50h447v-50h-447zM110 226v51h447v-51h-447z" />
<glyph unicode="&#x3e;" horiz-adv-x="543" d="M513 320l-402 -207v61l344 174l-344 174v60l402 -207v-55z" />
<glyph unicode="?" horiz-adv-x="492" d="M187 189q-1 2 -1 5.5v6.5q2 61 29.5 102t78.5 71l50 30q47 27 72.5 62t25.5 83q0 23 -8 44.5t-24.5 37.5t-41 25.5t-57.5 9.5q-39 0 -69.5 -15t-51.5 -39t-31.5 -55t-10.5 -64q0 -8 1 -13l-60 11q-1 3 -1 11q0 43 16 83t46 70.5t72.5 48.5t94.5 18q46 0 81 -14t59 -37 t36.5 -53t12.5 -62q0 -35 -10.5 -64t-29 -53.5t-44 -45t-54.5 -38.5l-52 -31q-42 -24 -58.5 -57.5t-16.5 -77.5h-54zM148 39q0 23 15.5 40t39.5 17q20 0 31.5 -13.5t11.5 -31.5q0 -23 -16 -39t-38 -16q-20 0 -32 12.5t-12 30.5z" />
<glyph unicode="@" horiz-adv-x="831" d="M458 -45q-86 0 -157.5 28t-122.5 78.5t-79.5 120t-28.5 152.5q0 84 30 155t82 123t121 81t147 29q79 0 144 -26.5t111.5 -71.5t71.5 -103.5t25 -122.5q0 -56 -15.5 -102t-41 -80t-59 -52.5t-68.5 -18.5q-42 0 -66.5 21t-27.5 56q-20 -36 -53.5 -57t-70.5 -21 q-32 0 -58.5 12t-46.5 34t-31 52.5t-11 68.5q0 45 14.5 86t40.5 72t61 49.5t76 18.5q38 0 70 -21t41 -59l12 67h52l-50 -250q-3 -15 -3 -28q0 -23 11.5 -39t42.5 -16q24 0 47 16t41.5 43.5t29.5 65t11 81.5q0 54 -20.5 104t-58.5 89t-94 62t-126 23q-69 0 -129 -25.5 t-104 -71.5t-69 -108.5t-25 -136.5q0 -70 23 -130.5t66.5 -104.5t105 -69.5t139.5 -25.5q66 0 126.5 23t108.5 68l27 -35q-24 -24 -54 -43.5t-64.5 -33t-71 -20.5t-72.5 -7zM538 382q0 48 -24.5 77t-70.5 29q-29 0 -53.5 -14t-43 -37.5t-29 -54.5t-10.5 -65q0 -25 5.5 -47.5 t17.5 -40t30.5 -27.5t44.5 -10q33 0 57.5 16.5t41 43t25 60.5t9.5 70z" />
<glyph unicode="A" horiz-adv-x="658" d="M475 228h-309l-133 -228h-73l422 709h73l122 -709h-64zM200 287h266l-60 353z" />
<glyph unicode="B" horiz-adv-x="596" d="M387 709q45 0 79 -13t56 -34.5t33 -50.5t11 -61q0 -31 -10.5 -61t-29.5 -56t-46.5 -45.5t-61.5 -28.5q48 -16 75.5 -54.5t27.5 -87.5q0 -41 -16.5 -80t-47.5 -69.5t-76 -49t-102 -18.5h-239l151 709h196zM334 386q39 0 70 13.5t53 35t34 49.5t12 58q0 22 -7.5 42.5 t-23 35.5t-39.5 24t-57 9h-133l-56 -267h147zM272 56q44 0 78.5 13.5t58.5 36t36.5 52t12.5 60.5q0 23 -7.5 43.5t-23.5 36t-41 24.5t-59 9h-152l-58 -275h155z" />
<glyph unicode="C" horiz-adv-x="725" d="M442 722q62 0 111 -17.5t84.5 -48t57 -71t29.5 -86.5l-59 -18q-6 39 -24.5 72.5t-47.5 58t-68.5 38.5t-88.5 14q-60 0 -115 -25.5t-97.5 -73t-68 -115t-25.5 -151.5q0 -62 17.5 -109.5t49 -79.5t74.5 -48.5t93 -16.5q87 0 152.5 45.5t106.5 133.5l53 -26 q-44 -97 -126.5 -154t-191.5 -57q-62 0 -115 21t-93 61t-62.5 97t-22.5 129q0 105 33.5 185t87.5 134t121.5 81t134.5 27z" />
<glyph unicode="D" horiz-adv-x="697" d="M261 57q59 0 119.5 24t109 71t79.5 117t31 163q0 55 -17 96t-47.5 68.5t-72.5 41.5t-92 14h-128l-126 -595h144zM40 0l151 709h189q63 0 115 -19t90 -54t59 -86t21 -115q0 -95 -31 -174.5t-86 -137.5t-129 -90.5t-159 -32.5h-220z" />
<glyph unicode="E" horiz-adv-x="567" d="M40 0l151 709h409l-12 -59h-346l-56 -265h312l-12 -60h-313l-56 -266h350l-12 -59h-415z" />
<glyph unicode="F" horiz-adv-x="567" d="M40 0l151 709h411l-12 -59h-348l-58 -277h315l-13 -59h-315l-66 -314h-65z" />
<glyph unicode="G" horiz-adv-x="754" d="M438 664q-59 0 -114.5 -24.5t-98.5 -71.5t-68.5 -114.5t-25.5 -152.5q0 -63 18.5 -110.5t51 -80t75.5 -49t91 -16.5q54 0 99.5 19t79.5 51t56 73.5t30 86.5h-259l12 58h321l-70 -333h-50l17 111q-16 -23 -39 -45t-53.5 -39.5t-68.5 -28.5t-83 -11q-57 0 -110 20.5 t-93.5 60t-65 97t-24.5 132.5q0 106 34 186t88.5 133t122 79.5t134.5 26.5q58 0 106 -16.5t83.5 -46t58.5 -69.5t33 -86l-60 -21q-9 40 -28 73t-48 57t-67 37.5t-85 13.5z" />
<glyph unicode="H" horiz-adv-x="714" d="M488 0l71 331h-384l-70 -331h-65l151 709h64l-68 -319h384l68 319h64l-150 -709h-65z" />
<glyph unicode="I" horiz-adv-x="266" d="M40 0l151 709h64l-150 -709h-65z" />
<glyph unicode="J" horiz-adv-x="523" d="M519 709l-110 -519q-20 -94 -74 -148.5t-140 -54.5q-46 0 -80 14t-56.5 38t-34 57t-11.5 71q0 23 2.5 46.5t10.5 52.5l65 10q-8 -34 -12 -57t-4 -46q0 -26 6.5 -49.5t21.5 -41t38.5 -27.5t56.5 -10q58 0 95.5 39.5t51.5 107.5l110 517h64z" />
<glyph unicode="K" horiz-adv-x="634" d="M303 355l-151 -133l-47 -222h-65l151 709h64l-83 -392l444 392h90l-356 -313l216 -396h-73z" />
<glyph unicode="L" horiz-adv-x="530" d="M40 0l151 709h64l-138 -650h350l-13 -59h-414z" />
<glyph unicode="M" horiz-adv-x="922" d="M696 0l129 607l-394 -607h-51l-147 606l-128 -606h-65l151 709h80l149 -619l404 619h87l-150 -709h-65z" />
<glyph unicode="N" horiz-adv-x="727" d="M499 0l-262 624l-132 -624h-65l151 709h78l254 -609l129 609h64l-150 -709h-67z" />
<glyph unicode="O" horiz-adv-x="771" d="M65 293q0 106 33.5 186.5t87.5 134.5t121 81t133 27q63 0 116.5 -20.5t93.5 -59.5t62.5 -96t22.5 -130q0 -106 -33.5 -186.5t-87.5 -134.5t-121 -81t-133 -27q-63 0 -116.5 20.5t-93.5 59.5t-62.5 96t-22.5 130zM670 411q0 63 -18.5 110.5t-50 79t-74 47.5t-91.5 16 q-60 0 -115 -26t-97.5 -73.5t-68 -115t-25.5 -151.5q0 -63 18.5 -110.5t50 -79t74 -47.5t91.5 -16q60 0 115 26t97.5 73.5t68 115t25.5 151.5z" />
<glyph unicode="P" horiz-adv-x="581" d="M411 709q43 0 77.5 -13t58.5 -35.5t37 -53.5t13 -67q0 -53 -20.5 -97t-55.5 -75.5t-83 -49t-103 -17.5h-166l-64 -301h-65l151 709h220zM243 652l-62 -293h154q42 0 78.5 13t62.5 36.5t41 56t15 72.5q0 52 -34.5 83.5t-100.5 31.5h-154z" />
<glyph unicode="Q" horiz-adv-x="771" d="M65 293q0 106 33.5 186.5t87.5 134.5t121 81t133 27q63 0 116.5 -20.5t93.5 -59.5t62.5 -96t22.5 -130q0 -115 -38.5 -198.5t-98.5 -137.5l87 -122l-48 -32l-86 119q-45 -29 -93.5 -43.5t-97.5 -14.5q-63 0 -116.5 20.5t-93.5 59.5t-62.5 96t-22.5 130zM447 287l115 -159 q49 48 78.5 120t29.5 163q0 63 -18.5 110.5t-50 79t-74 47.5t-91.5 16q-60 0 -115 -26t-97.5 -73.5t-68 -115t-25.5 -151.5q0 -63 18.5 -110.5t50 -79t74 -47.5t91.5 -16q39 0 78.5 12.5t74.5 35.5l-117 161z" />
<glyph unicode="R" horiz-adv-x="608" d="M325 308h-155l-65 -308h-65l151 709h219q43 0 77.5 -13t58.5 -35.5t36.5 -53.5t12.5 -67q0 -46 -15.5 -84.5t-43 -67.5t-65 -47.5t-82.5 -25.5l120 -315h-68zM334 365q42 0 78 12t62.5 34.5t41 54t14.5 71.5q0 52 -34 83.5t-100 31.5h-153l-61 -287h152z" />
<glyph unicode="S" horiz-adv-x="574" d="M269 44q36 0 67 10t53 28.5t34.5 44t12.5 56.5q0 39 -21 69.5t-72 53.5l-102 47q-56 25 -88.5 66t-32.5 103q0 45 18.5 81.5t49.5 63t71.5 41t84.5 14.5q59 0 101 -18t68 -46.5t38.5 -63.5t13.5 -70l-61 -12q0 26 -8 53t-27.5 49.5t-51 37t-78.5 14.5q-30 0 -57.5 -10 t-49.5 -27.5t-35 -42.5t-13 -55q0 -43 21 -71.5t62 -46.5l102 -47q133 -60 133 -175q0 -44 -17.5 -81.5t-49 -64.5t-74 -42.5t-93.5 -15.5q-57 0 -101 16.5t-74 45.5t-46 68.5t-16 85.5q0 8 0.5 15.5t2.5 21.5l63 11q-2 -11 -2.5 -19.5t-0.5 -19.5q0 -35 10.5 -65.5 t32.5 -53t54.5 -36t77.5 -13.5z" />
<glyph unicode="T" horiz-adv-x="580" d="M401 651l-138 -651h-65l139 651h-242l12 58h544l-13 -58h-237z" />
<glyph unicode="U" horiz-adv-x="666" d="M663 709l-106 -499q-23 -109 -89.5 -166t-166.5 -57q-105 0 -163 55t-58 152q0 17 1.5 36t6.5 39l94 440h64l-94 -446q-8 -35 -8 -63q0 -68 39 -111t122 -43q77 0 125 45t65 127l104 491h64z" />
<glyph unicode="V" horiz-adv-x="626" d="M266 77l354 632h69l-404 -709h-67l-103 709h63z" />
<glyph unicode="W" horiz-adv-x="966" d="M598 709l70 -617l290 617h66l-337 -709h-68l-71 622l-311 -622h-69l-56 709h63l45 -614l308 614h70z" />
<glyph unicode="X" horiz-adv-x="590" d="M37 0h-79l315 356l-162 353h70l135 -303l269 303h79l-320 -357l161 -352h-70l-136 302z" />
<glyph unicode="Y" horiz-adv-x="590" d="M114 709h67l132 -341l257 341h75l-312 -404l-64 -305h-65l66 311z" />
<glyph unicode="Z" horiz-adv-x="601" d="M-24 0l14 64l573 587h-438l12 58h517l-14 -63l-574 -587h441l-12 -59h-519z" />
<glyph unicode="[" horiz-adv-x="268" d="M-15 -141l195 919h167l-11 -50h-115l-174 -820h115l-10 -49h-167z" />
<glyph unicode="\" horiz-adv-x="472" d="M121 722h56l203 -735h-55z" />
<glyph unicode="]" horiz-adv-x="266" d="M-67 -141l11 50h115l174 820h-115l10 49h167l-195 -919h-167z" />
<glyph unicode="^" horiz-adv-x="531" d="M314 709l194 -354h-64l-156 292l-157 -292h-64l193 354h54z" />
<glyph unicode="_" horiz-adv-x="532" d="M-56 0h512v-51h-512v51z" />
<glyph unicode="`" horiz-adv-x="171" d="M65 677h72l59 -140h-47z" />
<glyph unicode="a" horiz-adv-x="566" d="M282 436q-40 0 -74 -19t-59 -52t-39.5 -76t-14.5 -91q0 -33 8.5 -62t26 -50t43 -33t59.5 -12q44 0 78.5 23t58 58.5t36 78.5t12.5 83q0 33 -8.5 60.5t-25.5 48t-42.5 32t-58.5 11.5zM524 477l-73 -345q-5 -23 -8 -46t-3 -48v-18.5t2 -19.5h-58q-1 5 -1.5 13.5t-0.5 20.5 q0 10 0.5 20.5t2.5 24.5q-12 -17 -28.5 -33t-37 -28.5t-45.5 -20.5t-53 -8q-45 0 -79.5 16.5t-58.5 44t-36 65t-12 79.5q0 62 19 116t52.5 93.5t78.5 62.5t96 23q40 0 68.5 -11.5t47.5 -28t29.5 -36t15.5 -35.5l21 99h61z" />
<glyph unicode="b" horiz-adv-x="575" d="M18 0l153 722h61l-66 -313q11 15 27.5 29t37.5 25.5t46 18.5t55 7q47 0 82 -16.5t58.5 -44t35 -64.5t11.5 -79q0 -64 -19 -118.5t-53 -94t-79.5 -62t-97.5 -22.5q-38 0 -66.5 11t-49 28.5t-33.5 39.5t-19 44l-23 -111h-61zM313 436q-42 0 -76.5 -20.5t-59 -54.5 t-37.5 -76.5t-13 -85.5q0 -33 9 -62t27 -50t43.5 -33t58.5 -12q39 0 74 17.5t61.5 49t42 74.5t15.5 95q0 69 -38 113.5t-107 44.5z" />
<glyph unicode="c" horiz-adv-x="527" d="M432 322q-11 48 -46 81t-95 33q-36 0 -71 -16t-62.5 -46t-44 -73.5t-16.5 -97.5q0 -36 11 -66t31 -51.5t48 -33t63 -11.5q59 0 99 33t63 79l50 -24q-15 -30 -36 -56t-48.5 -45t-60.5 -30t-71 -11q-48 0 -87 16.5t-66.5 45t-42.5 68t-15 85.5q0 63 21.5 116t57.5 91.5 t83 59.5t98 21q45 0 78.5 -13t56.5 -34t37 -47.5t20 -53.5z" />
<glyph unicode="d" d="M282 436q-40 0 -74 -19.5t-59 -52.5t-39.5 -76t-14.5 -91q0 -33 9 -61.5t26.5 -49t42.5 -32.5t58 -12q42 0 76.5 21t59 55.5t37.5 77.5t13 88q0 33 -8.5 60.5t-25.5 48t-42.5 32t-58.5 11.5zM383 79q-11 -17 -27 -33t-36.5 -28.5t-45.5 -20.5t-53 -8q-45 0 -79.5 15.5 t-58 43.5t-36 65t-12.5 81q0 61 19 115t52.5 94t78.5 63t96 23q40 0 68 -11.5t47 -28t29.5 -36t15.5 -35.5l73 344h61l-125 -590q-7 -31 -9.5 -55.5t-2.5 -40.5q0 -14 0.5 -21t1.5 -15h-58q-1 6 -1.5 14t-0.5 20q0 10 0.5 20.5t2.5 24.5z" />
<glyph unicode="e" horiz-adv-x="532" d="M421 277q1 5 1.5 10.5t0.5 11.5q0 27 -8 52t-24.5 44t-42 30t-60.5 11q-34 0 -63.5 -13t-53 -34.5t-40 -50.5t-24.5 -61h314zM97 226q-1 -8 -1.5 -15t-0.5 -15q0 -35 11.5 -64t31.5 -49t47 -31t59 -11q58 0 99 30t63 69l46 -31q-29 -52 -83 -87t-126 -35q-44 0 -82 14 t-66 41t-44 66.5t-16 90.5q0 67 22 120.5t58 91.5t81.5 58.5t93.5 20.5t84.5 -15t61 -41t36.5 -61.5t12 -76.5q0 -20 -2.5 -38t-6.5 -32h-378z" />
<glyph unicode="f" horiz-adv-x="308" d="M329 675q-32 0 -58.5 -18t-36.5 -68l-24 -112h118l-11 -54h-118l-90 -423h-61l90 423h-93l11 54h93l25 119q9 41 25.5 67t37.5 41t44 20.5t46 5.5q21 0 37.5 -4.5t22.5 -8.5l-13 -51q-7 3 -19 6t-26 3z" />
<glyph unicode="g" horiz-adv-x="561" d="M419 291q0 27 -8.5 53t-25.5 46t-43 32t-61 12q-36 0 -69 -15.5t-57.5 -43t-39 -66t-14.5 -83.5q0 -64 35 -106t106 -42q40 0 73 18t56 48t35.5 68t12.5 79zM44 -15q1 -57 37 -96t106 -39q42 0 72 14t51 38.5t34 56.5t21 68l16 77q-19 -30 -57 -54t-93 -24 q-45 0 -80.5 15t-60 41.5t-37.5 62.5t-13 78q0 56 19 104.5t51.5 84t76 56t93.5 20.5q36 0 63 -9t46.5 -24t32 -34t18.5 -38l20 94h61l-95 -451q-9 -41 -25 -82t-44 -73.5t-70 -53t-102 -20.5q-47 0 -83.5 14t-62 37.5t-39.5 55.5t-14 68z" />
<glyph unicode="h" horiz-adv-x="531" d="M335 0l62 293q2 9 3 18.5t1 18.5q0 46 -26 76t-83 30q-29 0 -53.5 -12t-44.5 -33t-34 -48.5t-21 -58.5l-60 -284h-61l153 722h61l-66 -308q22 31 60 53t88 22q37 0 65 -11t47 -30.5t28.5 -46t9.5 -57.5q0 -11 -1.5 -22t-3.5 -23l-63 -299h-61z" />
<glyph unicode="i" horiz-adv-x="221" d="M142 670q0 23 16.5 39.5t38.5 16.5q20 0 32 -13t12 -33q0 -22 -16 -38t-38 -16q-20 0 -32.5 12.5t-12.5 31.5zM19 0l101 477h61l-101 -477h-61z" />
<glyph unicode="j" horiz-adv-x="221" d="M120 477h61l-117 -554q-14 -63 -50 -92t-87 -29q-23 0 -40 4.5t-26 11.5l11 49q8 -5 21.5 -8t28.5 -3q35 0 54.5 18.5t28.5 60.5zM142 670q0 23 16.5 39.5t38.5 16.5q20 0 32 -13t12 -33q0 -22 -16 -38t-38 -16q-20 0 -32.5 12.5t-12.5 31.5z" />
<glyph unicode="k" horiz-adv-x="496" d="M226 245l-116 -95l-32 -150h-60l153 722h61l-104 -486l293 241h89l-238 -194l149 -283h-69z" />
<glyph unicode="l" horiz-adv-x="220" d="M18 0l153 722h61l-153 -722h-61z" />
<glyph unicode="m" horiz-adv-x="810" d="M316 0l63 298q5 23 5 42q0 42 -23 69.5t-76 27.5q-26 0 -49 -11t-42 -30.5t-32.5 -47t-20.5 -60.5l-61 -288h-61l85 398q6 29 8 50t2 29h58q0 -6 -1 -23.5t-6 -40.5q22 31 58 53.5t84 22.5q54 0 87.5 -25t44.5 -70q31 51 75.5 73t89.5 22q63 0 101.5 -35t38.5 -100 q0 -24 -4 -47l-65 -307h-61l63 299q5 25 5 43q0 41 -23 68t-75 27q-26 0 -49.5 -11.5t-43 -31t-33 -47t-20.5 -58.5l-61 -289h-61z" />
<glyph unicode="n" horiz-adv-x="532" d="M336 0l60 282q6 27 6 50q0 47 -26.5 75.5t-81.5 28.5q-29 0 -54 -12t-45 -33t-34 -48.5t-21 -58.5l-60 -284h-61l84 395q7 30 9 52.5t2 29.5h59q0 -8 -1.5 -28t-6.5 -40q22 34 62 57t90 23q69 0 108 -40t39 -105q0 -11 -1.5 -25.5t-4.5 -29.5l-61 -289h-61z" />
<glyph unicode="o" horiz-adv-x="549" d="M288 436q-35 0 -69 -15.5t-61.5 -45t-44.5 -73t-17 -99.5q0 -37 10.5 -67t30 -51t45.5 -32.5t58 -11.5q34 0 68.5 15.5t62 45.5t44.5 73.5t17 99.5q0 74 -39.5 117.5t-104.5 43.5zM493 277q0 -65 -21 -118.5t-56.5 -91.5t-82 -59t-96.5 -21q-46 0 -83.5 16t-63.5 44.5 t-40.5 67.5t-14.5 85q0 66 21.5 119.5t57 91.5t82 58.5t96.5 20.5q47 0 84 -16t63 -44.5t40 -67.5t14 -85z" />
<glyph unicode="p" horiz-adv-x="568" d="M313 435q-41 0 -75 -19.5t-58.5 -52.5t-38.5 -76t-14 -89q0 -70 35 -113t101 -43q37 0 71 17.5t60 49t41.5 75t15.5 95.5q0 69 -36 112.5t-102 43.5zM167 408q24 33 66.5 57t97.5 24q45 0 79 -15.5t57 -42.5t34.5 -64t11.5 -79q0 -64 -19 -118.5t-52 -95t-78 -63.5 t-97 -23q-36 0 -63.5 10.5t-48 27t-34 36.5t-19.5 39l-62 -291h-61l124 585q6 30 8.5 52t2.5 30h61q0 -8 -1.5 -28t-6.5 -41z" />
<glyph unicode="q" horiz-adv-x="566" d="M385 -190h-61l54 254q-11 -13 -25 -26.5t-33 -24t-42 -17.5t-50 -7q-45 0 -81 17t-60.5 45.5t-38 67t-13.5 81.5q0 60 19 113t52 92t78 61.5t96 22.5q39 0 67 -11t48 -27.5t32 -35.5t18 -36l20 98h61zM284 435q-41 0 -75.5 -18.5t-59.5 -50.5t-39.5 -74t-14.5 -88 q0 -33 10 -62.5t28.5 -52t45.5 -35.5t61 -13q42 0 75.5 21.5t56.5 56t35 77.5t12 87q0 33 -8.5 60.5t-25.5 48t-42.5 32t-58.5 11.5z" />
<glyph unicode="r" horiz-adv-x="339" d="M348 411q-10 3 -22.5 5.5t-27.5 2.5q-55 0 -99 -38.5t-61 -118.5l-56 -262h-61l84 395q6 30 7.5 52t1.5 30h61q0 -12 -1.5 -33t-5.5 -40q28 42 67 60.5t81 18.5q15 0 26.5 -2.5t18.5 -5.5z" />
<glyph unicode="s" horiz-adv-x="431" d="M65 153q0 -48 30 -81t88 -33q45 0 74 24t29 62q0 26 -15.5 44t-43.5 31l-69 32q-39 17 -62 45t-23 70q0 28 11.5 54t33 46t52 31.5t67.5 11.5q43 0 73 -13.5t49.5 -34t29 -45t10.5 -47.5l-56 -15q-1 19 -7.5 37.5t-19.5 33.5t-34 24t-50 9q-41 0 -70.5 -24t-29.5 -59 q0 -24 12.5 -41.5t43.5 -31.5l69 -31q43 -20 66.5 -50.5t23.5 -69.5q0 -27 -11 -53t-32 -46.5t-52 -33t-71 -12.5q-42 0 -74 12.5t-53.5 33.5t-32.5 48.5t-11 57.5q0 9 2 17l55 13q-2 -8 -2 -16z" />
<glyph unicode="t" horiz-adv-x="298" d="M69 99q0 9 1.5 22.5t5.5 30.5l58 270h-90l11 55h21q35 0 57 14t30 54l18 83h58l-32 -151h99l-11 -55h-100l-58 -272q-3 -16 -4.5 -25.5t-1.5 -17.5q0 -27 15 -43t48 -16q20 0 31 3l-11 -51q-5 -2 -13.5 -3.5t-23.5 -1.5q-52 0 -80 28t-28 76z" />
<glyph unicode="u" horiz-adv-x="527" d="M342 70q-21 -34 -58.5 -57.5t-85.5 -23.5q-73 0 -111.5 41.5t-38.5 107.5q0 12 1 27t5 32l59 280h61l-59 -278q-6 -30 -6 -54q0 -45 24.5 -74.5t81.5 -29.5q28 0 52.5 12t44 33t33.5 50t21 62l59 279h61l-81 -381q-6 -29 -7 -54t-1 -42h-59q0 14 0.5 30.5t3.5 39.5z" />
<glyph unicode="v" horiz-adv-x="482" d="M212 0h-62l-82 477h62l63 -406l230 406h69z" />
<glyph unicode="w" horiz-adv-x="766" d="M454 477l49 -400l208 400h66l-255 -477h-64l-51 411l-226 -411h-62l-48 477h60l34 -397l218 397h71z" />
<glyph unicode="x" horiz-adv-x="476" d="M37 0h-79l236 246l-125 231h67l100 -188l175 188h78l-225 -233l132 -244h-68l-105 199z" />
<glyph unicode="y" horiz-adv-x="472" d="M-22 -190l178 265l-118 402h65l96 -343l220 343h71l-442 -667h-70z" />
<glyph unicode="z" horiz-adv-x="458" d="M-23 0l11 54l374 368h-284l11 55h362l-10 -55l-375 -367h303l-11 -55h-381z" />
<glyph unicode="{" horiz-adv-x="308" d="M34 348q49 2 82.5 28t44.5 77l34 160q17 85 58.5 121.5t119.5 36.5h13l-11 -49h-9q-56 0 -82 -27t-37 -79l-37 -175q-11 -52 -43.5 -84t-87.5 -39q38 -7 59 -32t21 -63q0 -15 -3 -31l-35 -168q-2 -12 -3.5 -23t-1.5 -20q0 -34 18 -50.5t61 -16.5h9l-10 -48h-10 q-59 0 -90 26.5t-31 77.5q0 12 2 25t5 28l34 160q3 15 3 29q0 38 -24.5 56.5t-60.5 21.5z" />
<glyph unicode="|" horiz-adv-x="205" d="M-15 -141l195 919h54l-195 -919h-54z" />
<glyph unicode="}" horiz-adv-x="309" d="M288 288q-47 -2 -81 -26.5t-45 -77.5l-35 -160q-17 -81 -60.5 -119.5t-120.5 -38.5h-9l10 49h9q54 0 81.5 29t38.5 80l37 175q11 51 44 82t87 39q-40 7 -61 31.5t-21 60.5q0 14 3 29l37 176q6 25 6 44q0 32 -17.5 46.5t-60.5 14.5h-11l10 49h13q56 0 87.5 -24.5 t31.5 -75.5q0 -25 -7 -53l-36 -164q-3 -15 -3 -29q0 -38 24 -57.5t62 -21.5z" />
<glyph unicode="~" horiz-adv-x="614" d="M544 304q-26 -39 -58.5 -59t-75.5 -20q-22 0 -45.5 7.5t-48.5 20.5l-47 25q-33 18 -64 18q-32 0 -55.5 -14.5t-43.5 -41.5l-37 30q26 39 59 60t76 21q21 0 44.5 -7t46.5 -19l46 -25q17 -10 35.5 -15.5t33.5 -5.5q32 0 55.5 14t41.5 41z" />
<glyph unicode="&#xa1;" horiz-adv-x="213" d="M38 -226h-78l127 520h43zM182 444q0 -23 -15.5 -40t-39.5 -17q-20 0 -31.5 13.5t-11.5 31.5q0 23 16 39t38 16q20 0 32 -12.5t12 -30.5z" />
<glyph unicode="&#xa2;" horiz-adv-x="540" d="M122 305q0 -51 24.5 -94t75.5 -60l80 385q-36 -4 -68.5 -22.5t-57.5 -48.5t-39.5 -71t-14.5 -89zM239 0h-49l20 95q-69 19 -108.5 75t-39.5 133q0 62 21 114t55.5 90t80 60t95.5 24l17 80h49l-17 -83q34 -5 61 -19t46 -33.5t30.5 -44t16.5 -49.5l-53 -19q-8 39 -36 71 t-76 40l-83 -392q61 0 104 30.5t69 83.5l48 -23q-32 -70 -91 -107.5t-141 -37.5z" />
<glyph unicode="&#xa3;" horiz-adv-x="629" d="M169 372q-5 32 -10.5 64.5t-5.5 66.5q0 48 17 88t47 69t70 45t86 16q52 0 90 -16t63 -42t36.5 -59.5t11.5 -67.5q0 -8 -0.5 -16.5t-1.5 -13.5l-59 -7q3 16 3 31q0 60 -37.5 98t-106.5 38q-34 0 -63 -12t-50 -33.5t-33 -52t-12 -67.5q0 -32 6 -63.5t11 -65.5h210l-10 -53 h-196q1 -7 1.5 -12.5t0.5 -12.5q-1 -81 -42 -140t-104 -98h256q69 0 111.5 39.5t57.5 105.5l55 -11q-19 -88 -74 -139t-146 -51h-356l12 59q36 18 67 43.5t53.5 56t35.5 65.5t13 72v9t-2 14h-99l10 53h84z" />
<glyph unicode="&#xa4;" horiz-adv-x="647" d="M466 178q-26 -20 -58.5 -31t-67.5 -11q-38 0 -71.5 12t-59.5 34l-73 -74l-37 37l72 75q-21 26 -32.5 59t-11.5 70q0 38 12.5 72t33.5 61l-74 76l39 38l74 -77q27 20 59.5 32t68.5 12q34 0 65.5 -10.5t57.5 -30.5l71 74l38 -38l-69 -72q23 -28 36.5 -63t13.5 -74 q0 -38 -12.5 -72.5t-35.5 -60.5l68 -71l-37 -37zM180 349q0 -34 12.5 -63.5t34 -51t51 -34t62.5 -12.5t62 12.5t50 34t33.5 51t12.5 63.5t-12.5 63.5t-33.5 51.5t-50 34t-62 12t-62.5 -12t-51 -34t-34 -51.5t-12.5 -63.5z" />
<glyph unicode="&#xa5;" horiz-adv-x="605" d="M310 179l-38 -179h-64l39 179h-184l10 50h184l18 83h-186l10 50h158l-134 347h67l128 -342l261 342h72l-272 -347h160l-11 -50h-190l-18 -83h193l-11 -50h-192z" />
<glyph unicode="&#xa6;" horiz-adv-x="214" d="M100 378l84 400h54l-85 -400h-53zM-11 -141l85 400h54l-85 -400h-54z" />
<glyph unicode="&#xa7;" horiz-adv-x="501" d="M58 6q-2 -10 -3 -19.5t-1 -18.5q0 -52 30 -86t92 -34q25 0 49 8t43 23.5t30 37.5t11 50q0 30 -15 54t-41 44l-91 67q-39 29 -67 61.5t-28 79.5q0 30 12 53.5t30 41t40 28.5t42 16q-35 26 -52.5 59t-17.5 69q0 42 16.5 76t44 57.5t63 36t74.5 12.5q42 0 74 -12.5t53.5 -34 t32.5 -50.5t11 -62q0 -19 -3 -40l-60 -6q4 17 4 37q0 51 -29 84t-86 33q-25 0 -49 -8.5t-43 -24t-30.5 -38t-11.5 -50.5q0 -30 15 -53t41 -43l91 -67q16 -12 33 -26t30.5 -31t22.5 -37t9 -44q0 -29 -11 -52.5t-28.5 -41.5t-40 -30.5t-44.5 -18.5q35 -28 53.5 -60.5 t18.5 -67.5q0 -42 -17 -76t-45 -57t-64 -35.5t-75 -12.5q-44 0 -76.5 12.5t-55 34t-33.5 50.5t-11 63q0 10 1.5 22.5t3.5 20.5zM226 385q-17 -2 -35 -10t-32 -21t-23 -30.5t-9 -39.5q0 -27 15.5 -48.5t42.5 -42.5l78 -60q16 3 33.5 12t32.5 22.5t24.5 31.5t9.5 39 q0 28 -16.5 49t-40.5 39z" />
<glyph unicode="&#xa8;" horiz-adv-x="299" d="M65 605q0 20 14 35t34 15q17 0 27 -12.5t10 -27.5q0 -20 -14 -33.5t-34 -13.5q-17 0 -27 11t-10 26zM238 605q0 20 14 35t34 15q17 0 27 -12.5t10 -27.5q0 -20 -14 -33.5t-34 -13.5q-17 0 -27 11t-10 26z" />
<glyph unicode="&#xa9;" horiz-adv-x="846" d="M74 354q0 76 28.5 143t77.5 117t115 79t142 29t142 -29t115.5 -79t78 -117t28.5 -143t-28.5 -142.5t-78 -116.5t-115.5 -79t-142 -29t-142 29t-115 79t-77.5 116.5t-28.5 142.5zM125 354q0 -67 24.5 -125.5t66.5 -101.5t99 -68t122 -25t122 25t99 68t66 101.5t24 125.5 t-24 126t-66 102t-99 68t-122 25t-122 -25t-99 -68t-66.5 -102t-24.5 -126zM573 428q-9 40 -38 65.5t-76 25.5q-29 0 -57.5 -13t-50.5 -37.5t-35.5 -59.5t-13.5 -80q0 -60 34.5 -95t90.5 -35q25 0 44.5 7.5t35.5 19t27.5 26.5t19.5 30q2 -1 8.5 -3.5t13.5 -5.5t13.5 -6 t8.5 -4q-11 -20 -27.5 -39.5t-38 -35t-48.5 -25t-60 -9.5q-40 0 -72.5 13.5t-55 36.5t-35 55t-12.5 69q0 52 18 95.5t47.5 74.5t68 48.5t79.5 17.5q37 0 65 -10.5t47.5 -27t31 -38t16.5 -43.5z" />
<glyph unicode="&#xaa;" horiz-adv-x="432" d="M271 672q-27 0 -50 -13t-40 -34.5t-26.5 -50.5t-9.5 -61q0 -46 24 -75t70 -29q28 0 51.5 13.5t40 36t25.5 52t9 60.5q0 45 -24 73t-70 28zM448 709l-58 -275q-3 -11 -5 -28.5t-2 -25.5v-8h-49v5q0 6 1 18.5t5 29.5q-15 -22 -43 -41.5t-69 -19.5q-33 0 -58 11.5t-42 31.5 t-26 47t-9 58q0 43 13.5 80.5t37.5 65.5t56 44t69 16q29 0 49 -8t33.5 -19t21.5 -24.5t11 -23.5l14 66h50z" />
<glyph unicode="&#xab;" horiz-adv-x="464" d="M308 95l-95 192l171 190h67l-176 -195l92 -187h-59zM141 95l-95 192l171 190h67l-176 -195l92 -187h-59z" />
<glyph unicode="&#xac;" horiz-adv-x="601" d="M468 218v201h-385v53h440v-254h-55z" />
<glyph unicode="&#xad;" horiz-adv-x="404" d="M64 261l11 52h263l-11 -52h-263z" />
<glyph unicode="&#xae;" horiz-adv-x="846" d="M74 354q0 76 28.5 143t77.5 117t115 79t142 29t142 -29t115.5 -79t78 -117t28.5 -143t-28.5 -142.5t-78 -116.5t-115.5 -79t-142 -29t-142 29t-115 79t-77.5 116.5t-28.5 142.5zM125 354q0 -67 24.5 -125.5t66.5 -101.5t99 -68t122 -25t122 25t99 68t66 101.5t24 125.5 t-24 126t-66 102t-99 68t-122 25t-122 -25t-99 -68t-66.5 -102t-24.5 -126zM450 357q47 0 76.5 26t29.5 70q0 28 -18.5 44t-55.5 16h-66l-35 -156h69zM440 316h-68l-34 -159h-48l85 399h121q49 0 78.5 -29t29.5 -74q0 -54 -33.5 -89t-83.5 -44l65 -163h-51z" />
<glyph unicode="&#xaf;" horiz-adv-x="305" d="M65 581l11 53h254l-11 -53h-254z" />
<glyph unicode="&#xb0;" horiz-adv-x="389" d="M266 720q30 0 55.5 -10.5t44 -29t29 -43.5t10.5 -54q0 -34 -13.5 -65t-36.5 -54t-54 -37t-65 -14q-30 0 -55.5 10.5t-44 29.5t-29 43.5t-10.5 53.5q0 34 13 64.5t36 54t53.5 37.5t66.5 14zM241 463q22 0 42 9.5t35 25.5t24 37.5t9 45.5q0 38 -24 63.5t-66 25.5 q-23 0 -43 -9.5t-35 -25.5t-23.5 -37t-8.5 -45q0 -38 24.5 -64t65.5 -26z" />
<glyph unicode="&#xb1;" horiz-adv-x="615" d="M281 434v145h53v-145h189v-50h-189v-145h-53v145h-188v50h188zM523 176v-51h-430v51h430z" />
<glyph unicode="&#xb2;" horiz-adv-x="345" d="M240 526q33 15 52.5 34.5t19.5 48.5q0 25 -17.5 43.5t-52.5 18.5q-38 0 -61.5 -24.5t-23.5 -65.5q0 -6 1 -10l-49 3q-1 4 -1 10q0 28 9.5 51.5t27 41t42.5 27.5t57 10q29 0 51.5 -8.5t37.5 -22.5t23 -32.5t8 -38.5q0 -43 -27.5 -73.5t-69.5 -48.5l-78 -35 q-51 -22 -64 -65h210l-10 -44h-268q8 48 33.5 86.5t77.5 61.5z" />
<glyph unicode="&#xb3;" horiz-adv-x="347" d="M175 569l139 95h-186l9 45h248l-11 -57l-132 -86q20 0 38.5 -7.5t32 -21t21.5 -31.5t8 -39q0 -26 -10 -49t-28.5 -40.5t-44.5 -28t-59 -10.5q-29 0 -53 8.5t-41.5 23.5t-27 35t-9.5 43v8t1 8l49 7q-1 -5 -1 -14q0 -33 24 -54t59 -21q38 0 63.5 23.5t25.5 58.5 q0 32 -23 48t-53 16q-5 0 -11 -0.5t-11 -1.5z" />
<glyph unicode="&#xb4;" horiz-adv-x="250" d="M120 537h-55l124 140h86z" />
<glyph unicode="&#xb5;" horiz-adv-x="569" d="M76 477h61v-291q0 -28 7 -54t22.5 -46.5t40 -32.5t59.5 -12q32 0 57 11t42.5 30.5t26.5 46t9 56.5v292h60v-386q0 -29 2 -53.5t4 -37.5h-58q-2 8 -3 28t-1 46q-17 -35 -55.5 -61t-94.5 -26q-40 0 -70.5 14t-47.5 39v-230h-61v667z" />
<glyph unicode="&#xb6;" horiz-adv-x="614" d="M209 -190h-53l110 517h-17q-37 0 -67.5 13t-52.5 35.5t-34.5 53t-12.5 65.5q0 48 20 87.5t54.5 68t80.5 44t99 15.5h324l-11 -52h-95l-179 -847h-53l179 847h-112z" />
<glyph unicode="&#xb7;" horiz-adv-x="245" d="M116 233q-22 0 -34.5 13.5t-12.5 31.5q0 25 16.5 42.5t41.5 17.5q22 0 34 -14t12 -33q0 -25 -17 -41.5t-40 -16.5z" />
<glyph unicode="&#xb8;" horiz-adv-x="283" d="M139 8l-77 -65q3 1 10 1q37 -2 58 -21.5t21 -47.5q0 -38 -30 -61.5t-77 -23.5q-45 0 -75.5 20.5t-42.5 46.5l37 23q8 -17 26.5 -34t54.5 -17q26 0 42.5 12t16.5 34q0 17 -14 28t-42 11q-14 0 -26 -4l-16 31l77 67h57z" />
<glyph unicode="&#xb9;" horiz-adv-x="214" d="M101 642q35 2 61.5 20t40.5 47h49l-78 -363h-52l63 288q-16 -13 -40 -21t-52 -10z" />
<glyph unicode="&#xba;" horiz-adv-x="416" d="M144 516q0 -48 26 -78t74 -30q24 0 47.5 10.5t42 30.5t30 49t11.5 67q0 50 -27.5 79t-72.5 29q-25 0 -48.5 -10.5t-42 -31t-29.5 -49.5t-11 -66zM277 718q34 0 61.5 -11t47 -31.5t30 -48t10.5 -60.5q0 -45 -15 -82.5t-40.5 -64.5t-58.5 -42t-70 -15q-34 0 -61.5 11 t-47 31.5t-30 48t-10.5 60.5q0 46 15 83.5t40.5 64.5t59 41.5t69.5 14.5z" />
<glyph unicode="&#xbb;" horiz-adv-x="465" d="M155 477l95 -192l-171 -190h-67l176 195l-92 187h59zM322 477l95 -192l-171 -190h-67l176 195l-92 187h59z" />
<glyph unicode="&#xbc;" horiz-adv-x="767" d="M35 0l599 709h61l-599 -709h-61zM397 138l222 225h62l-50 -236h67l-9 -44h-67l-18 -83h-50l18 83h-186zM619 304l-175 -177h136zM113 642q35 2 61.5 20t40.5 47h49l-78 -363h-52l63 288q-16 -13 -40 -21t-52 -10z" />
<glyph unicode="&#xbd;" horiz-adv-x="810" d="M44 0l599 709h61l-599 -709h-61zM631 368q29 0 51.5 -8.5t37.5 -22.5t23 -32.5t8 -38.5q0 -43 -27.5 -74t-69.5 -49l-77 -34q-52 -22 -65 -65h210l-10 -44h-268q8 48 33.5 86.5t77.5 61.5l72 32q34 15 53 34.5t20 48.5q0 25 -18 44t-53 19q-38 0 -62 -25t-24 -67v-3t1 -4 l-48 1q0 4 -0.5 7.5t-0.5 7.5q1 27 11 49.5t27.5 39.5t42.5 26.5t55 9.5zM111 642q35 2 61.5 20t40.5 47h49l-78 -363h-52l63 288q-16 -13 -40 -21t-52 -10z" />
<glyph unicode="&#xbe;" horiz-adv-x="857" d="M220 529q-5 0 -11 -0.5t-11 -1.5l-17 42l139 95h-186l9 45h248l-11 -57l-132 -86q41 -3 70.5 -29.5t29.5 -69.5q0 -26 -10 -49t-28.5 -40.5t-44.5 -28t-59 -10.5q-29 0 -53 8.5t-41.5 23.5t-27 35t-9.5 43v8t1 8l49 7q-1 -5 -1 -14q0 -33 24 -54t59 -21q38 0 63.5 23.5 t25.5 58.5q0 32 -23 48t-53 16zM121 0l598 709h61l-598 -709h-61zM486 138l222 225h62l-50 -236h67l-9 -44h-67l-18 -83h-50l18 83h-186zM708 304l-175 -177h136z" />
<glyph unicode="&#xbf;" horiz-adv-x="481" d="M280 294q1 -2 1 -5.5v-6.5q-2 -61 -29.5 -102t-78.5 -71l-50 -30q-47 -27 -72.5 -62t-25.5 -83q0 -23 8 -44.5t24.5 -37.5t41 -25.5t57.5 -9.5q39 0 69.5 15t51.5 39t31.5 55t10.5 64q0 8 -1 13l60 -11q1 -3 1 -11q0 -44 -16 -83.5t-46 -70t-72.5 -48.5t-94.5 -18 q-46 0 -81 14t-59 37t-36.5 53t-12.5 62q0 34 10.5 63.5t29 54t44 45t54.5 38.5l52 31q42 24 58.5 57.5t16.5 77.5h54zM319 444q0 -23 -15.5 -40t-39.5 -17q-20 0 -31.5 13.5t-11.5 31.5q0 23 16 39t38 16q20 0 32 -12.5t12 -30.5z" />
<glyph unicode="&#xc0;" horiz-adv-x="658" d="M475 228h-309l-133 -228h-73l422 709h73l122 -709h-64zM200 287h266l-60 353zM292 878h78l83 -119h-57z" />
<glyph unicode="&#xc1;" horiz-adv-x="658" d="M475 228h-309l-133 -228h-73l422 709h73l122 -709h-64zM200 287h266l-60 353zM459 759h-64l128 119h87z" />
<glyph unicode="&#xc2;" horiz-adv-x="658" d="M475 228h-309l-133 -228h-73l422 709h73l122 -709h-64zM200 287h266l-60 353zM270 759l134 119h81l85 -119h-53l-78 83l-110 -83h-59z" />
<glyph unicode="&#xc3;" horiz-adv-x="658" d="M475 228h-309l-133 -228h-73l422 709h73l122 -709h-64zM200 287h266l-60 353zM591 872q-11 -58 -40 -83.5t-65 -25.5q-19 0 -34.5 7t-28.5 18l-16 14q-11 10 -20.5 14.5t-22.5 4.5q-19 0 -32.5 -13.5t-18.5 -41.5h-47q8 56 38 82t66 26q20 0 36 -7.5t29 -18.5l16 -14 q11 -10 19.5 -14.5t21.5 -4.5q40 0 52 57h47z" />
<glyph unicode="&#xc4;" horiz-adv-x="658" d="M274 814q0 21 14 35t35 14q17 0 27 -12t10 -27q0 -21 -14 -34.5t-34 -13.5q-17 0 -27.5 11t-10.5 27zM501 814q0 21 14 35t34 14q17 0 27 -12t10 -27q0 -21 -13.5 -34.5t-33.5 -13.5q-17 0 -27.5 11t-10.5 27zM475 228h-309l-133 -228h-73l422 709h73l122 -709h-64z M200 287h266l-60 353z" />
<glyph unicode="&#xc5;" horiz-adv-x="660" d="M432 830q-28 0 -47 -20t-19 -47q0 -23 14.5 -38.5t38.5 -15.5q26 0 46.5 19t20.5 48q0 23 -14.5 38.5t-39.5 15.5zM201 287h266l-60 353zM476 228h-309l-133 -228h-73l404 679q-21 12 -33 32.5t-12 46.5q0 25 10 46.5t26 37t37 24t43 8.5q42 0 69 -27.5t27 -67.5 q0 -35 -20 -63t-51 -41l117 -675h-64z" />
<glyph unicode="&#xc6;" horiz-adv-x="977" d="M877 59l-12 -59h-415l45 210h-290l-180 -210h-80l619 709h446l-12 -59h-346l-57 -265h313l-12 -60h-313l-57 -266h351zM507 267l82 386l-335 -386h253z" />
<glyph unicode="&#xc7;" horiz-adv-x="725" d="M317 -11q-54 7 -100 30.5t-79.5 62.5t-53 93t-19.5 120q0 105 33.5 185t87.5 134t121.5 81t134.5 27q62 0 111 -17.5t84.5 -48t57 -71t29.5 -86.5l-59 -18q-6 39 -24.5 72.5t-47.5 58t-68.5 38.5t-88.5 14q-60 0 -115 -25.5t-97.5 -73t-68 -115t-25.5 -151.5 q0 -62 17.5 -109.5t49 -79.5t74.5 -48.5t93 -16.5q87 0 152.5 45.5t106.5 133.5l53 -26q-43 -94 -122 -150.5t-184 -60.5l-52 -44q3 1 10 1q38 -2 59 -21.5t21 -47.5q0 -38 -30.5 -61.5t-77.5 -23.5q-45 0 -75 21t-42 46l36 23q8 -17 27 -34t55 -17q26 0 42.5 12t16.5 34 q0 17 -14.5 28t-42.5 11q-13 0 -25 -4l-16 31z" />
<glyph unicode="&#xc8;" horiz-adv-x="567" d="M290 878h78l83 -119h-57zM40 0l151 709h409l-12 -59h-346l-56 -265h312l-12 -60h-313l-56 -266h350l-12 -59h-415z" />
<glyph unicode="&#xc9;" horiz-adv-x="567" d="M414 759h-64l128 119h87zM40 0l151 709h409l-12 -59h-346l-56 -265h312l-12 -60h-313l-56 -266h350l-12 -59h-415z" />
<glyph unicode="&#xca;" horiz-adv-x="567" d="M259 759l134 119h81l85 -119h-53l-78 83l-110 -83h-59zM40 0l151 709h409l-12 -59h-346l-56 -265h312l-12 -60h-313l-56 -266h350l-12 -59h-415z" />
<glyph unicode="&#xcb;" horiz-adv-x="567" d="M40 0l151 709h409l-12 -59h-346l-56 -265h312l-12 -60h-313l-56 -266h350l-12 -59h-415zM270 814q0 21 14 35t35 14q17 0 27 -12t10 -27q0 -21 -14 -34.5t-34 -13.5q-17 0 -27.5 11t-10.5 27zM475 814q0 21 14 35t35 14q17 0 27 -12t10 -27q0 -21 -14 -34.5t-34 -13.5 q-17 0 -27.5 11t-10.5 27z" />
<glyph unicode="&#xcc;" horiz-adv-x="266" d="M40 0l151 709h64l-150 -709h-65zM101 878h78l83 -119h-57z" />
<glyph unicode="&#xcd;" horiz-adv-x="266" d="M40 0l151 709h64l-150 -709h-65zM267 759h-64l128 119h87z" />
<glyph unicode="&#xce;" horiz-adv-x="266" d="M40 0l151 709h64l-150 -709h-65zM80 759l134 119h81l85 -119h-53l-78 83l-110 -83h-59z" />
<glyph unicode="&#xcf;" horiz-adv-x="266" d="M40 0l151 709h64l-150 -709h-65zM133 814q0 20 13 33.5t33 13.5q16 0 25.5 -11.5t9.5 -25.5q0 -20 -13 -33t-32 -13q-16 0 -26 10.5t-10 25.5zM267 814q0 20 13 33.5t33 13.5q16 0 25.5 -11.5t9.5 -25.5q0 -20 -13 -33t-32 -13q-16 0 -26 10.5t-10 25.5z" />
<glyph unicode="&#xd0;" horiz-adv-x="698" d="M41 0l72 337h-77l11 54h77l68 318h189q63 0 115 -19t90 -54t59 -86t21 -115q0 -95 -31 -174.5t-86 -137.5t-129 -90.5t-159 -32.5h-220zM262 57q59 0 119.5 24t109 71t79.5 117t31 163q0 55 -17 96t-47.5 68.5t-72.5 41.5t-92 14h-128l-55 -261h149l-11 -54h-150 l-59 -280h144z" />
<glyph unicode="&#xd1;" horiz-adv-x="727" d="M635 872q-11 -58 -40 -83.5t-65 -25.5q-19 0 -34.5 7t-28.5 18l-16 14q-11 10 -20.5 14.5t-22.5 4.5q-19 0 -32.5 -13.5t-18.5 -41.5h-47q8 56 38 82t66 26q20 0 36 -7.5t29 -18.5l16 -14q11 -10 19.5 -14.5t21.5 -4.5q40 0 52 57h47zM499 0l-262 624l-132 -624h-65 l151 709h78l254 -609l129 609h64l-150 -709h-67z" />
<glyph unicode="&#xd2;" horiz-adv-x="771" d="M347 878h78l83 -119h-57zM65 293q0 106 33.5 186.5t87.5 134.5t121 81t133 27q63 0 116.5 -20.5t93.5 -59.5t62.5 -96t22.5 -130q0 -106 -33.5 -186.5t-87.5 -134.5t-121 -81t-133 -27q-63 0 -116.5 20.5t-93.5 59.5t-62.5 96t-22.5 130zM670 411q0 63 -18.5 110.5 t-50 79t-74 47.5t-91.5 16q-60 0 -115 -26t-97.5 -73.5t-68 -115t-25.5 -151.5q0 -63 18.5 -110.5t50 -79t74 -47.5t91.5 -16q60 0 115 26t97.5 73.5t68 115t25.5 151.5z" />
<glyph unicode="&#xd3;" horiz-adv-x="771" d="M492 759h-64l128 119h87zM65 293q0 106 33.5 186.5t87.5 134.5t121 81t133 27q63 0 116.5 -20.5t93.5 -59.5t62.5 -96t22.5 -130q0 -106 -33.5 -186.5t-87.5 -134.5t-121 -81t-133 -27q-63 0 -116.5 20.5t-93.5 59.5t-62.5 96t-22.5 130zM670 411q0 63 -18.5 110.5 t-50 79t-74 47.5t-91.5 16q-60 0 -115 -26t-97.5 -73.5t-68 -115t-25.5 -151.5q0 -63 18.5 -110.5t50 -79t74 -47.5t91.5 -16q60 0 115 26t97.5 73.5t68 115t25.5 151.5z" />
<glyph unicode="&#xd4;" horiz-adv-x="771" d="M318 759l134 119h81l85 -119h-53l-78 83l-110 -83h-59zM65 293q0 106 33.5 186.5t87.5 134.5t121 81t133 27q63 0 116.5 -20.5t93.5 -59.5t62.5 -96t22.5 -130q0 -106 -33.5 -186.5t-87.5 -134.5t-121 -81t-133 -27q-63 0 -116.5 20.5t-93.5 59.5t-62.5 96t-22.5 130z M670 411q0 63 -18.5 110.5t-50 79t-74 47.5t-91.5 16q-60 0 -115 -26t-97.5 -73.5t-68 -115t-25.5 -151.5q0 -63 18.5 -110.5t50 -79t74 -47.5t91.5 -16q60 0 115 26t97.5 73.5t68 115t25.5 151.5z" />
<glyph unicode="&#xd5;" horiz-adv-x="771" d="M641 872q-11 -58 -40 -83.5t-65 -25.5q-19 0 -34.5 7t-28.5 18l-16 14q-11 10 -20.5 14.5t-22.5 4.5q-19 0 -32.5 -13.5t-18.5 -41.5h-47q8 56 38 82t66 26q20 0 36 -7.5t29 -18.5l16 -14q11 -10 19.5 -14.5t21.5 -4.5q40 0 52 57h47zM65 293q0 106 33.5 186.5 t87.5 134.5t121 81t133 27q63 0 116.5 -20.5t93.5 -59.5t62.5 -96t22.5 -130q0 -106 -33.5 -186.5t-87.5 -134.5t-121 -81t-133 -27q-63 0 -116.5 20.5t-93.5 59.5t-62.5 96t-22.5 130zM670 411q0 63 -18.5 110.5t-50 79t-74 47.5t-91.5 16q-60 0 -115 -26t-97.5 -73.5 t-68 -115t-25.5 -151.5q0 -63 18.5 -110.5t50 -79t74 -47.5t91.5 -16q60 0 115 26t97.5 73.5t68 115t25.5 151.5z" />
<glyph unicode="&#xd6;" horiz-adv-x="771" d="M280 814q0 21 14 35t35 14q17 0 27 -12t10 -27q0 -21 -14 -34.5t-34 -13.5q-17 0 -27.5 11t-10.5 27zM581 814q0 21 14 35t34 14q17 0 27 -12t10 -27q0 -21 -13.5 -34.5t-33.5 -13.5q-17 0 -27.5 11t-10.5 27zM65 293q0 106 33.5 186.5t87.5 134.5t121 81t133 27 q63 0 116.5 -20.5t93.5 -59.5t62.5 -96t22.5 -130q0 -106 -33.5 -186.5t-87.5 -134.5t-121 -81t-133 -27q-63 0 -116.5 20.5t-93.5 59.5t-62.5 96t-22.5 130zM670 411q0 63 -18.5 110.5t-50 79t-74 47.5t-91.5 16q-60 0 -115 -26t-97.5 -73.5t-68 -115t-25.5 -151.5 q0 -63 18.5 -110.5t50 -79t74 -47.5t91.5 -16q60 0 115 26t97.5 73.5t68 115t25.5 151.5z" />
<glyph unicode="&#xd7;" horiz-adv-x="592" d="M309 311l-178 -185l-36 36l178 186l-177 184l36 37l177 -184l178 184l36 -36l-179 -185l180 -186l-36 -37z" />
<glyph unicode="&#xd8;" horiz-adv-x="770" d="M65 293q0 106 33.5 186.5t87.5 134.5t121 81t133 27q63 0 117 -20.5t94 -60.5l85 86l38 -36l-90 -91q24 -36 37.5 -82t13.5 -102q0 -106 -33.5 -186.5t-87.5 -134.5t-121 -81t-133 -27q-62 0 -115 19.5t-93 57.5l-79 -80l-37 36l83 83q-26 37 -40 84.5t-14 105.5z M130 298q0 -88 36 -147l440 445q-32 34 -75.5 51t-94.5 17q-60 0 -115 -26t-97.5 -73.5t-68 -115t-25.5 -151.5zM670 411q0 43 -8.5 78t-24.5 64l-440 -444q32 -32 74.5 -48t92.5 -16q60 0 115 26t97.5 73.5t68 115t25.5 151.5z" />
<glyph unicode="&#xd9;" horiz-adv-x="666" d="M315 878h78l83 -119h-57zM663 709l-106 -499q-23 -109 -89.5 -166t-166.5 -57q-105 0 -163 55t-58 152q0 17 1.5 36t6.5 39l94 440h64l-94 -446q-8 -35 -8 -63q0 -68 39 -111t122 -43q77 0 125 45t65 127l104 491h64z" />
<glyph unicode="&#xda;" horiz-adv-x="666" d="M432 759h-64l128 119h87zM663 709l-106 -499q-23 -109 -89.5 -166t-166.5 -57q-105 0 -163 55t-58 152q0 17 1.5 36t6.5 39l94 440h64l-94 -446q-8 -35 -8 -63q0 -68 39 -111t122 -43q77 0 125 45t65 127l104 491h64z" />
<glyph unicode="&#xdb;" horiz-adv-x="666" d="M278 759l134 119h81l85 -119h-53l-78 83l-110 -83h-59zM663 709l-106 -499q-23 -109 -89.5 -166t-166.5 -57q-105 0 -163 55t-58 152q0 17 1.5 36t6.5 39l94 440h64l-94 -446q-8 -35 -8 -63q0 -68 39 -111t122 -43q77 0 125 45t65 127l104 491h64z" />
<glyph unicode="&#xdc;" horiz-adv-x="666" d="M663 709l-106 -499q-23 -109 -89.5 -166t-166.5 -57q-105 0 -163 55t-58 152q0 17 1.5 36t6.5 39l94 440h64l-94 -446q-8 -35 -8 -63q0 -68 39 -111t122 -43q77 0 125 45t65 127l104 491h64zM289 814q0 21 14 35t35 14q17 0 27 -12t10 -27q0 -21 -14 -34.5t-34 -13.5 q-17 0 -27.5 11t-10.5 27zM494 814q0 21 14 35t35 14q17 0 27 -12t10 -27q0 -21 -14 -34.5t-34 -13.5q-17 0 -27.5 11t-10.5 27z" />
<glyph unicode="&#xdd;" horiz-adv-x="590" d="M114 709h67l132 -341l257 341h75l-312 -404l-64 -305h-65l66 311zM405 759h-64l128 119h87z" />
<glyph unicode="&#xde;" horiz-adv-x="583" d="M212 505l-62 -293h156q42 0 78.5 13t62.5 36.5t41 56t15 72.5q0 52 -34.5 83.5t-100.5 31.5h-156zM40 0l150 709h65l-31 -146h158q43 0 77.5 -13t58.5 -35.5t37 -53.5t13 -67q0 -53 -20.5 -97t-55.5 -75.5t-83 -49t-103 -17.5h-168l-34 -155h-64z" />
<glyph unicode="&#xdf;" horiz-adv-x="542" d="M343 331q0 -13 9 -22.5t22 -19.5l32 -25q30 -23 48.5 -54.5t18.5 -69.5q0 -26 -10 -53.5t-30 -49.5t-50.5 -36t-71.5 -14q-35 0 -62 11t-45.5 29.5t-28 42t-9.5 49.5q0 12 3 24l56 9q-3 -11 -3 -21q0 -16 4.5 -32t15.5 -29.5t28.5 -22t44.5 -8.5q25 0 43.5 9t30.5 23 t17.5 30.5t5.5 31.5q0 29 -14 49t-36 37l-31 24q-22 17 -36.5 38.5t-14.5 47.5q0 35 19 58t48 37l43 23q32 16 55 43t23 71q0 21 -8 40.5t-23.5 34t-38.5 23.5t-52 9q-54 0 -98 -39.5t-62 -124.5l-107 -504h-61l109 512q23 106 83.5 158t139.5 52q43 0 76.5 -12.5t56.5 -34 t35 -50t12 -59.5q0 -35 -10.5 -61.5t-26.5 -47t-35.5 -34.5t-37.5 -23l-41 -21q-15 -8 -25.5 -18.5t-10.5 -29.5z" />
<glyph unicode="&#xe0;" horiz-adv-x="566" d="M282 436q-40 0 -74 -19t-59 -52t-39.5 -76t-14.5 -91q0 -33 8.5 -62t26 -50t43 -33t59.5 -12q44 0 78.5 23t58 58.5t36 78.5t12.5 83q0 33 -8.5 60.5t-25.5 48t-42.5 32t-58.5 11.5zM524 477l-73 -345q-5 -23 -8 -46t-3 -48v-18.5t2 -19.5h-58q-1 5 -1.5 13.5t-0.5 20.5 q0 10 0.5 20.5t2.5 24.5q-12 -17 -28.5 -33t-37 -28.5t-45.5 -20.5t-53 -8q-45 0 -79.5 16.5t-58.5 44t-36 65t-12 79.5q0 62 19 116t52.5 93.5t78.5 62.5t96 23q40 0 68.5 -11.5t47.5 -28t29.5 -36t15.5 -35.5l21 99h61zM204 677h72l59 -140h-47z" />
<glyph unicode="&#xe1;" horiz-adv-x="566" d="M282 436q-40 0 -74 -19t-59 -52t-39.5 -76t-14.5 -91q0 -33 8.5 -62t26 -50t43 -33t59.5 -12q44 0 78.5 23t58 58.5t36 78.5t12.5 83q0 33 -8.5 60.5t-25.5 48t-42.5 32t-58.5 11.5zM524 477l-73 -345q-5 -23 -8 -46t-3 -48v-18.5t2 -19.5h-58q-1 5 -1.5 13.5t-0.5 20.5 q0 10 0.5 20.5t2.5 24.5q-12 -17 -28.5 -33t-37 -28.5t-45.5 -20.5t-53 -8q-45 0 -79.5 16.5t-58.5 44t-36 65t-12 79.5q0 62 19 116t52.5 93.5t78.5 62.5t96 23q40 0 68.5 -11.5t47.5 -28t29.5 -36t15.5 -35.5l21 99h61zM330 537h-55l124 140h86z" />
<glyph unicode="&#xe2;" horiz-adv-x="566" d="M282 436q-40 0 -74 -19t-59 -52t-39.5 -76t-14.5 -91q0 -33 8.5 -62t26 -50t43 -33t59.5 -12q44 0 78.5 23t58 58.5t36 78.5t12.5 83q0 33 -8.5 60.5t-25.5 48t-42.5 32t-58.5 11.5zM524 477l-73 -345q-5 -23 -8 -46t-3 -48v-18.5t2 -19.5h-58q-1 5 -1.5 13.5t-0.5 20.5 q0 10 0.5 20.5t2.5 24.5q-12 -17 -28.5 -33t-37 -28.5t-45.5 -20.5t-53 -8q-45 0 -79.5 16.5t-58.5 44t-36 65t-12 79.5q0 62 19 116t52.5 93.5t78.5 62.5t96 23q40 0 68.5 -11.5t47.5 -28t29.5 -36t15.5 -35.5l21 99h61zM160 538l138 138h76l78 -138h-51l-71 99l-112 -99 h-58z" />
<glyph unicode="&#xe3;" horiz-adv-x="566" d="M282 436q-40 0 -74 -19t-59 -52t-39.5 -76t-14.5 -91q0 -33 8.5 -62t26 -50t43 -33t59.5 -12q44 0 78.5 23t58 58.5t36 78.5t12.5 83q0 33 -8.5 60.5t-25.5 48t-42.5 32t-58.5 11.5zM524 477l-73 -345q-5 -23 -8 -46t-3 -48v-18.5t2 -19.5h-58q-1 5 -1.5 13.5t-0.5 20.5 q0 10 0.5 20.5t2.5 24.5q-12 -17 -28.5 -33t-37 -28.5t-45.5 -20.5t-53 -8q-45 0 -79.5 16.5t-58.5 44t-36 65t-12 79.5q0 62 19 116t52.5 93.5t78.5 62.5t96 23q40 0 68.5 -11.5t47.5 -28t29.5 -36t15.5 -35.5l21 99h61zM159 553q8 57 37.5 82.5t66.5 25.5q21 0 36.5 -7 t27.5 -18l16 -15q18 -18 41 -18q41 0 52 56h48q-11 -57 -39.5 -82.5t-64.5 -25.5q-35 0 -61 24l-17 15q-11 10 -20.5 14.5t-23.5 4.5q-40 0 -51 -56h-48z" />
<glyph unicode="&#xe4;" horiz-adv-x="566" d="M282 436q-40 0 -74 -19t-59 -52t-39.5 -76t-14.5 -91q0 -33 8.5 -62t26 -50t43 -33t59.5 -12q44 0 78.5 23t58 58.5t36 78.5t12.5 83q0 33 -8.5 60.5t-25.5 48t-42.5 32t-58.5 11.5zM524 477l-73 -345q-5 -23 -8 -46t-3 -48v-18.5t2 -19.5h-58q-1 5 -1.5 13.5t-0.5 20.5 q0 10 0.5 20.5t2.5 24.5q-12 -17 -28.5 -33t-37 -28.5t-45.5 -20.5t-53 -8q-45 0 -79.5 16.5t-58.5 44t-36 65t-12 79.5q0 62 19 116t52.5 93.5t78.5 62.5t96 23q40 0 68.5 -11.5t47.5 -28t29.5 -36t15.5 -35.5l21 99h61zM200 605q0 20 14 35t34 15q17 0 27 -12.5t10 -27.5 q0 -20 -14 -33.5t-34 -13.5q-17 0 -27 11t-10 26zM373 605q0 20 14 35t34 15q17 0 27 -12.5t10 -27.5q0 -20 -14 -33.5t-34 -13.5q-17 0 -27 11t-10 26z" />
<glyph unicode="&#xe5;" horiz-adv-x="566" d="M282 436q-40 0 -74 -19t-59 -52t-39.5 -76t-14.5 -91q0 -33 8.5 -62t26 -50t43 -33t59.5 -12q44 0 78.5 23t58 58.5t36 78.5t12.5 83q0 33 -8.5 60.5t-25.5 48t-42.5 32t-58.5 11.5zM524 477l-73 -345q-5 -23 -8 -46t-3 -48v-18.5t2 -19.5h-58q-1 5 -1.5 13.5t-0.5 20.5 q0 10 0.5 20.5t2.5 24.5q-12 -17 -28.5 -33t-37 -28.5t-45.5 -20.5t-53 -8q-45 0 -79.5 16.5t-58.5 44t-36 65t-12 79.5q0 62 19 116t52.5 93.5t78.5 62.5t96 23q40 0 68.5 -11.5t47.5 -28t29.5 -36t15.5 -35.5l21 99h61zM336 739q42 0 68.5 -27t26.5 -67q0 -23 -9.5 -44 t-25 -37t-36.5 -25t-44 -9q-42 0 -69 27t-27 66q0 25 10 46.5t26 37t37 24t43 8.5zM264 628q0 -23 15 -39t40 -16q26 0 46.5 20t20.5 49q0 23 -14.5 38.5t-40.5 15.5q-28 0 -47.5 -20t-19.5 -48z" />
<glyph unicode="&#xe6;" horiz-adv-x="851" d="M416 226q-1 -8 -1.5 -15t-0.5 -15q0 -35 11.5 -64t31.5 -49t47 -31t59 -11q58 0 99 30t63 69l46 -31q-29 -52 -83 -87t-126 -35q-69 0 -120 32.5t-71 95.5q-28 -59 -80 -93.5t-125 -34.5q-39 0 -68.5 11t-49 29t-29 41t-9.5 47q0 36 14 63.5t38 46.5t55.5 29t67.5 12 l128 6q20 1 32.5 7t19 15t8.5 21t2 24q0 42 -30 70t-88 28q-49 0 -84.5 -26t-49.5 -73l-54 19q20 62 72 97t119 35q69 0 108 -27.5t53 -65.5q37 45 86.5 69.5t101.5 24.5q48 0 84.5 -15t61 -41t36.5 -61.5t12 -76.5q0 -20 -2.5 -38t-6.5 -32h-378zM73 119q0 -21 8.5 -36 t23 -25t33 -15t39.5 -5q61 0 107 36.5t60 104.5l12 58q-3 -3 -10.5 -5.5t-17 -4t-20 -3t-18.5 -1.5l-108 -4q-47 -2 -78 -27t-31 -73zM740 277q1 5 1.5 10.5t0.5 11.5q0 27 -8 52t-24.5 44t-42 30t-60.5 11q-34 0 -63.5 -13t-53 -34.5t-40 -50.5t-24.5 -61h314z" />
<glyph unicode="&#xe7;" horiz-adv-x="527" d="M192 -7q-73 17 -115 73.5t-42 135.5q0 63 21.5 116t57.5 91.5t83 59.5t98 21q45 0 78.5 -13t56.5 -34t37 -47.5t20 -53.5l-55 -20q-11 48 -46 81t-95 33q-36 0 -71 -16t-62.5 -46t-44 -73.5t-16.5 -97.5q0 -36 11 -66t31 -51.5t48 -33t63 -11.5q59 0 99 33t63 79l50 -24 q-15 -30 -36 -56t-48.5 -45t-60.5 -30t-71 -11h-6l-51 -44q3 1 10 1q37 -2 58 -21.5t21 -47.5q0 -38 -30 -61.5t-77 -23.5q-45 0 -75.5 20.5t-42.5 46.5l37 23q8 -17 26.5 -34t54.5 -17q26 0 42.5 12t16.5 34q0 17 -14 28t-42 11q-14 0 -26 -4l-16 31z" />
<glyph unicode="&#xe8;" horiz-adv-x="532" d="M421 277q1 5 1.5 10.5t0.5 11.5q0 27 -8 52t-24.5 44t-42 30t-60.5 11q-34 0 -63.5 -13t-53 -34.5t-40 -50.5t-24.5 -61h314zM97 226q-1 -8 -1.5 -15t-0.5 -15q0 -35 11.5 -64t31.5 -49t47 -31t59 -11q58 0 99 30t63 69l46 -31q-29 -52 -83 -87t-126 -35q-44 0 -82 14 t-66 41t-44 66.5t-16 90.5q0 67 22 120.5t58 91.5t81.5 58.5t93.5 20.5t84.5 -15t61 -41t36.5 -61.5t12 -76.5q0 -20 -2.5 -38t-6.5 -32h-378zM225 677h72l59 -140h-47z" />
<glyph unicode="&#xe9;" horiz-adv-x="532" d="M329 537h-55l124 140h86zM421 277q1 5 1.5 10.5t0.5 11.5q0 27 -8 52t-24.5 44t-42 30t-60.5 11q-34 0 -63.5 -13t-53 -34.5t-40 -50.5t-24.5 -61h314zM97 226q-1 -8 -1.5 -15t-0.5 -15q0 -35 11.5 -64t31.5 -49t47 -31t59 -11q58 0 99 30t63 69l46 -31q-29 -52 -83 -87 t-126 -35q-44 0 -82 14t-66 41t-44 66.5t-16 90.5q0 67 22 120.5t58 91.5t81.5 58.5t93.5 20.5t84.5 -15t61 -41t36.5 -61.5t12 -76.5q0 -20 -2.5 -38t-6.5 -32h-378z" />
<glyph unicode="&#xea;" horiz-adv-x="532" d="M174 538l138 138h76l78 -138h-51l-71 99l-112 -99h-58zM421 277q1 5 1.5 10.5t0.5 11.5q0 27 -8 52t-24.5 44t-42 30t-60.5 11q-34 0 -63.5 -13t-53 -34.5t-40 -50.5t-24.5 -61h314zM97 226q-1 -8 -1.5 -15t-0.5 -15q0 -35 11.5 -64t31.5 -49t47 -31t59 -11q58 0 99 30 t63 69l46 -31q-29 -52 -83 -87t-126 -35q-44 0 -82 14t-66 41t-44 66.5t-16 90.5q0 67 22 120.5t58 91.5t81.5 58.5t93.5 20.5t84.5 -15t61 -41t36.5 -61.5t12 -76.5q0 -20 -2.5 -38t-6.5 -32h-378z" />
<glyph unicode="&#xeb;" horiz-adv-x="532" d="M199 605q0 20 14 35t34 15q17 0 27 -12.5t10 -27.5q0 -20 -14 -33.5t-34 -13.5q-17 0 -27 11t-10 26zM372 605q0 20 14 35t34 15q17 0 27 -12.5t10 -27.5q0 -20 -14 -33.5t-34 -13.5q-17 0 -27 11t-10 26zM421 277q1 5 1.5 10.5t0.5 11.5q0 27 -8 52t-24.5 44t-42 30 t-60.5 11q-34 0 -63.5 -13t-53 -34.5t-40 -50.5t-24.5 -61h314zM97 226q-1 -8 -1.5 -15t-0.5 -15q0 -35 11.5 -64t31.5 -49t47 -31t59 -11q58 0 99 30t63 69l46 -31q-29 -52 -83 -87t-126 -35q-44 0 -82 14t-66 41t-44 66.5t-16 90.5q0 67 22 120.5t58 91.5t81.5 58.5 t93.5 20.5t84.5 -15t61 -41t36.5 -61.5t12 -76.5q0 -20 -2.5 -38t-6.5 -32h-378z" />
<glyph unicode="&#xec;" horiz-adv-x="221" d="M19 0l101 477h61l-101 -477h-61zM57 677h72l59 -140h-47z" />
<glyph unicode="&#xed;" horiz-adv-x="220" d="M187 537h-55l124 140h86zM19 0l101 477h61l-101 -477h-61z" />
<glyph unicode="&#xee;" horiz-adv-x="220" d="M16 538l138 138h76l78 -138h-51l-71 99l-112 -99h-58zM19 0l101 477h61l-101 -477h-61z" />
<glyph unicode="&#xef;" horiz-adv-x="221" d="M19 0l101 477h61l-101 -477h-61zM198 606q0 19 13 33t33 14q16 0 26 -11.5t10 -25.5q0 -20 -13.5 -33t-32.5 -13q-17 0 -26.5 11t-9.5 25zM72 606q0 19 13 33t33 14q16 0 26 -11.5t10 -25.5q0 -20 -13.5 -33t-32.5 -13q-17 0 -26.5 11t-9.5 25z" />
<glyph unicode="&#xf0;" horiz-adv-x="560" d="M435 586q32 -49 51.5 -111t19.5 -135q0 -75 -17.5 -139.5t-51.5 -112t-82.5 -74.5t-109.5 -27q-47 0 -86 16t-67 44t-43.5 66t-15.5 82q0 59 20.5 108t55 84.5t79.5 55t93 19.5q57 0 102 -24t65 -73q-7 117 -70 199l-132 -49l-16 43l115 43q-49 50 -120 78l27 47 q43 -17 82.5 -43t68.5 -59l119 44l18 -43zM436 260q0 34 -11.5 62t-32 47.5t-48.5 30t-61 10.5q-35 0 -68.5 -14t-60.5 -41t-43.5 -67t-16.5 -92q0 -33 11.5 -61.5t32 -49t48.5 -32.5t60 -12q37 0 71.5 15.5t60.5 44.5t42 69t16 90z" />
<glyph unicode="&#xf1;" horiz-adv-x="532" d="M336 0l60 282q6 27 6 50q0 47 -26.5 75.5t-81.5 28.5q-29 0 -54 -12t-45 -33t-34 -48.5t-21 -58.5l-60 -284h-61l84 395q7 30 9 52.5t2 29.5h59q0 -8 -1.5 -28t-6.5 -40q22 34 62 57t90 23q69 0 108 -40t39 -105q0 -11 -1.5 -25.5t-4.5 -29.5l-61 -289h-61zM169 553 q8 57 37.5 82.5t66.5 25.5q21 0 36.5 -7t27.5 -18l16 -15q18 -18 41 -18q41 0 52 56h48q-11 -57 -39.5 -82.5t-64.5 -25.5q-35 0 -61 24l-17 15q-11 10 -20.5 14.5t-23.5 4.5q-40 0 -51 -56h-48z" />
<glyph unicode="&#xf2;" horiz-adv-x="549" d="M288 436q-35 0 -69 -15.5t-61.5 -45t-44.5 -73t-17 -99.5q0 -37 10.5 -67t30 -51t45.5 -32.5t58 -11.5q34 0 68.5 15.5t62 45.5t44.5 73.5t17 99.5q0 74 -39.5 117.5t-104.5 43.5zM493 277q0 -65 -21 -118.5t-56.5 -91.5t-82 -59t-96.5 -21q-46 0 -83.5 16t-63.5 44.5 t-40.5 67.5t-14.5 85q0 66 21.5 119.5t57 91.5t82 58.5t96.5 20.5q47 0 84 -16t63 -44.5t40 -67.5t14 -85zM212 677h72l59 -140h-47z" />
<glyph unicode="&#xf3;" horiz-adv-x="549" d="M338 537h-55l124 140h86zM288 436q-35 0 -69 -15.5t-61.5 -45t-44.5 -73t-17 -99.5q0 -37 10.5 -67t30 -51t45.5 -32.5t58 -11.5q34 0 68.5 15.5t62 45.5t44.5 73.5t17 99.5q0 74 -39.5 117.5t-104.5 43.5zM493 277q0 -65 -21 -118.5t-56.5 -91.5t-82 -59t-96.5 -21 q-46 0 -83.5 16t-63.5 44.5t-40.5 67.5t-14.5 85q0 66 21.5 119.5t57 91.5t82 58.5t96.5 20.5q47 0 84 -16t63 -44.5t40 -67.5t14 -85z" />
<glyph unicode="&#xf4;" horiz-adv-x="549" d="M173 538l138 138h76l78 -138h-51l-71 99l-112 -99h-58zM288 436q-35 0 -69 -15.5t-61.5 -45t-44.5 -73t-17 -99.5q0 -37 10.5 -67t30 -51t45.5 -32.5t58 -11.5q34 0 68.5 15.5t62 45.5t44.5 73.5t17 99.5q0 74 -39.5 117.5t-104.5 43.5zM493 277q0 -65 -21 -118.5 t-56.5 -91.5t-82 -59t-96.5 -21q-46 0 -83.5 16t-63.5 44.5t-40.5 67.5t-14.5 85q0 66 21.5 119.5t57 91.5t82 58.5t96.5 20.5q47 0 84 -16t63 -44.5t40 -67.5t14 -85z" />
<glyph unicode="&#xf5;" horiz-adv-x="549" d="M288 436q-35 0 -69 -15.5t-61.5 -45t-44.5 -73t-17 -99.5q0 -37 10.5 -67t30 -51t45.5 -32.5t58 -11.5q34 0 68.5 15.5t62 45.5t44.5 73.5t17 99.5q0 74 -39.5 117.5t-104.5 43.5zM493 277q0 -65 -21 -118.5t-56.5 -91.5t-82 -59t-96.5 -21q-46 0 -83.5 16t-63.5 44.5 t-40.5 67.5t-14.5 85q0 66 21.5 119.5t57 91.5t82 58.5t96.5 20.5q47 0 84 -16t63 -44.5t40 -67.5t14 -85zM159 553q8 57 37.5 82.5t66.5 25.5q21 0 36.5 -7t27.5 -18l16 -15q18 -18 41 -18q41 0 52 56h48q-11 -57 -39.5 -82.5t-64.5 -25.5q-35 0 -61 24l-17 15 q-11 10 -20.5 14.5t-23.5 4.5q-40 0 -51 -56h-48z" />
<glyph unicode="&#xf6;" horiz-adv-x="549" d="M202 605q0 20 14 35t34 15q17 0 27 -12.5t10 -27.5q0 -20 -14 -33.5t-34 -13.5q-17 0 -27 11t-10 26zM375 605q0 20 14 35t34 15q17 0 27 -12.5t10 -27.5q0 -20 -14 -33.5t-34 -13.5q-17 0 -27 11t-10 26zM288 436q-35 0 -69 -15.5t-61.5 -45t-44.5 -73t-17 -99.5 q0 -37 10.5 -67t30 -51t45.5 -32.5t58 -11.5q34 0 68.5 15.5t62 45.5t44.5 73.5t17 99.5q0 74 -39.5 117.5t-104.5 43.5zM493 277q0 -65 -21 -118.5t-56.5 -91.5t-82 -59t-96.5 -21q-46 0 -83.5 16t-63.5 44.5t-40.5 67.5t-14.5 85q0 66 21.5 119.5t57 91.5t82 58.5 t96.5 20.5q47 0 84 -16t63 -44.5t40 -67.5t14 -85z" />
<glyph unicode="&#xf7;" horiz-adv-x="600" d="M264 170q0 20 14.5 33.5t33.5 13.5q20 0 34 -13.5t14 -33.5t-14 -34t-34 -14q-19 0 -33.5 14t-14.5 34zM264 525q0 20 14.5 34t33.5 14q20 0 34 -14t14 -34q0 -19 -14 -33.5t-34 -14.5q-19 0 -33.5 14.5t-14.5 33.5zM92 375h442v-53h-442v53z" />
<glyph unicode="&#xf8;" horiz-adv-x="549" d="M493 277q0 -65 -21 -118.5t-56.5 -91.5t-82 -59t-96.5 -21q-45 0 -80.5 14.5t-61.5 40.5l-60 -58l-33 36l63 61q-30 49 -30 119q0 66 21.5 119.5t57 91.5t82 58.5t96.5 20.5q45 0 80 -14t61 -40l58 56l33 -36l-61 -59q14 -26 22 -56t8 -64zM432 275q0 22 -4 41t-11 36 l-279 -269q40 -42 102 -42q34 0 68.5 15.5t62 45.5t44.5 73.5t17 99.5zM288 436q-35 0 -69 -15.5t-61.5 -45t-44.5 -73t-17 -99.5q0 -44 15 -78l279 270q-39 41 -102 41z" />
<glyph unicode="&#xf9;" horiz-adv-x="527" d="M342 70q-21 -34 -58.5 -57.5t-85.5 -23.5q-73 0 -111.5 41.5t-38.5 107.5q0 12 1 27t5 32l59 280h61l-59 -278q-6 -30 -6 -54q0 -45 24.5 -74.5t81.5 -29.5q28 0 52.5 12t44 33t33.5 50t21 62l59 279h61l-81 -381q-6 -29 -7 -54t-1 -42h-59q0 14 0.5 30.5t3.5 39.5z M203 677h72l59 -140h-47z" />
<glyph unicode="&#xfa;" horiz-adv-x="527" d="M319 537h-55l124 140h86zM342 70q-21 -34 -58.5 -57.5t-85.5 -23.5q-73 0 -111.5 41.5t-38.5 107.5q0 12 1 27t5 32l59 280h61l-59 -278q-6 -30 -6 -54q0 -45 24.5 -74.5t81.5 -29.5q28 0 52.5 12t44 33t33.5 50t21 62l59 279h61l-81 -381q-6 -29 -7 -54t-1 -42h-59 q0 14 0.5 30.5t3.5 39.5z" />
<glyph unicode="&#xfb;" horiz-adv-x="527" d="M161 538l138 138h76l78 -138h-51l-71 99l-112 -99h-58zM342 70q-21 -34 -58.5 -57.5t-85.5 -23.5q-73 0 -111.5 41.5t-38.5 107.5q0 12 1 27t5 32l59 280h61l-59 -278q-6 -30 -6 -54q0 -45 24.5 -74.5t81.5 -29.5q28 0 52.5 12t44 33t33.5 50t21 62l59 279h61l-81 -381 q-6 -29 -7 -54t-1 -42h-59q0 14 0.5 30.5t3.5 39.5z" />
<glyph unicode="&#xfc;" horiz-adv-x="527" d="M197 605q0 20 14 35t34 15q17 0 27 -12.5t10 -27.5q0 -20 -14 -33.5t-34 -13.5q-17 0 -27 11t-10 26zM370 605q0 20 14 35t34 15q17 0 27 -12.5t10 -27.5q0 -20 -14 -33.5t-34 -13.5q-17 0 -27 11t-10 26zM342 70q-21 -34 -58.5 -57.5t-85.5 -23.5q-73 0 -111.5 41.5 t-38.5 107.5q0 12 1 27t5 32l59 280h61l-59 -278q-6 -30 -6 -54q0 -45 24.5 -74.5t81.5 -29.5q28 0 52.5 12t44 33t33.5 50t21 62l59 279h61l-81 -381q-6 -29 -7 -54t-1 -42h-59q0 14 0.5 30.5t3.5 39.5z" />
<glyph unicode="&#xfd;" horiz-adv-x="472" d="M-22 -190l178 265l-118 402h65l96 -343l220 343h71l-442 -667h-70zM279 537h-55l124 140h86z" />
<glyph unicode="&#xfe;" horiz-adv-x="567" d="M172 722h61l-67 -313q24 32 66.5 56t97.5 24q45 0 79 -15.5t57 -42.5t34.5 -64t11.5 -79q0 -64 -19 -118.5t-52 -95t-78 -63.5t-97 -23q-36 0 -63.5 10.5t-48 27t-34 36.5t-19.5 39l-62 -291h-61zM312 435q-41 0 -75 -19.5t-58.5 -52.5t-38.5 -76t-14 -89q0 -70 35 -113 t101 -43q37 0 71 17.5t60 49t41.5 75t15.5 95.5q0 69 -36 112.5t-102 43.5z" />
<glyph unicode="&#xff;" horiz-adv-x="472" d="M-22 -190l178 265l-118 402h65l96 -343l220 343h71l-442 -667h-70zM150 605q0 20 14 35t34 15q17 0 27 -12.5t10 -27.5q0 -20 -14 -33.5t-34 -13.5q-17 0 -27 11t-10 26zM323 605q0 20 14 35t34 15q17 0 27 -12.5t10 -27.5q0 -20 -14 -33.5t-34 -13.5q-17 0 -27 11 t-10 26z" />
<glyph unicode="&#x100;" horiz-adv-x="658" d="M475 228h-309l-133 -228h-73l422 709h73l122 -709h-64zM200 287h266l-60 353zM294 793l11 54h266l-11 -54h-266z" />
<glyph unicode="&#x101;" horiz-adv-x="566" d="M282 436q-40 0 -74 -19t-59 -52t-39.5 -76t-14.5 -91q0 -33 8.5 -62t26 -50t43 -33t59.5 -12q44 0 78.5 23t58 58.5t36 78.5t12.5 83q0 33 -8.5 60.5t-25.5 48t-42.5 32t-58.5 11.5zM524 477l-73 -345q-5 -23 -8 -46t-3 -48v-18.5t2 -19.5h-58q-1 5 -1.5 13.5t-0.5 20.5 q0 10 0.5 20.5t2.5 24.5q-12 -17 -28.5 -33t-37 -28.5t-45.5 -20.5t-53 -8q-45 0 -79.5 16.5t-58.5 44t-36 65t-12 79.5q0 62 19 116t52.5 93.5t78.5 62.5t96 23q40 0 68.5 -11.5t47.5 -28t29.5 -36t15.5 -35.5l21 99h61zM204 581l11 53h254l-11 -53h-254z" />
<glyph unicode="&#x102;" horiz-adv-x="658" d="M475 228h-309l-133 -228h-73l422 709h73l122 -709h-64zM200 287h266l-60 353zM427 754q-31 0 -54 8.5t-38 23.5t-22.5 34.5t-7.5 41.5q0 10 2 18h49q-1 -4 -1 -10q0 -26 17.5 -46.5t59.5 -20.5q23 0 41 6.5t31.5 17.5t23 24.5t14.5 28.5h51q-7 -24 -21 -46.5t-35 -40 t-48.5 -28.5t-61.5 -11z" />
<glyph unicode="&#x103;" horiz-adv-x="566" d="M282 436q-40 0 -74 -19t-59 -52t-39.5 -76t-14.5 -91q0 -33 8.5 -62t26 -50t43 -33t59.5 -12q44 0 78.5 23t58 58.5t36 78.5t12.5 83q0 33 -8.5 60.5t-25.5 48t-42.5 32t-58.5 11.5zM524 477l-73 -345q-5 -23 -8 -46t-3 -48v-18.5t2 -19.5h-58q-1 5 -1.5 13.5t-0.5 20.5 q0 10 0.5 20.5t2.5 24.5q-12 -17 -28.5 -33t-37 -28.5t-45.5 -20.5t-53 -8q-45 0 -79.5 16.5t-58.5 44t-36 65t-12 79.5q0 62 19 116t52.5 93.5t78.5 62.5t96 23q40 0 68.5 -11.5t47.5 -28t29.5 -36t15.5 -35.5l21 99h61zM316 538q-29 0 -50.5 9t-36 24t-21.5 34.5t-7 41.5 q0 7 1 15.5t3 13.5h45q-2 -10 -2 -17q0 -27 17 -48.5t58 -21.5q24 0 42.5 8t32.5 20.5t23 28t14 30.5h49q-6 -26 -19.5 -50.5t-35 -44t-50 -31.5t-63.5 -12z" />
<glyph unicode="&#x104;" horiz-adv-x="658" d="M416 -134q0 23 8.5 43.5t22.5 37.5t31 31t35 23l-38 227h-309l-133 -228h-73l422 709h73l122 -709q-17 -8 -35.5 -20t-34.5 -27.5t-26.5 -34t-10.5 -39.5q0 -22 15 -32.5t37 -10.5q17 0 36 4l-10 -42q-10 -4 -20.5 -6t-25.5 -2q-38 0 -62 20.5t-24 55.5zM200 287h266 l-60 352z" />
<glyph unicode="&#x105;" horiz-adv-x="566" d="M367 -210q-38 0 -61.5 20.5t-23.5 55.5q0 24 9.5 45.5t24 39t32.5 31t35 22.5q-1 6 -1 13v17t0.5 20.5t2.5 24.5q-12 -17 -28.5 -33t-37 -28.5t-45.5 -20.5t-53 -8q-45 0 -79.5 16.5t-58.5 44t-36 65t-12 79.5q0 62 19 116t52.5 93.5t78.5 62.5t96 23q40 0 68.5 -11.5 t47.5 -28t29.5 -36t15.5 -35.5l21 99h61l-73 -345q-5 -23 -8 -46t-3 -48v-18.5t2 -19.5q-17 -8 -35.5 -20t-34.5 -27.5t-26.5 -34t-10.5 -39.5q0 -22 15 -32.5t37 -10.5q17 0 36 4l-10 -42q-10 -4 -20.5 -6t-25.5 -2zM282 436q-40 0 -74 -19t-59 -52t-39.5 -76t-14.5 -91 q0 -33 8.5 -62t26 -50t43 -33t59.5 -12q44 0 78.5 23t58 58.5t36 78.5t12.5 83q0 33 -8.5 60.5t-25.5 48t-42.5 32t-58.5 11.5z" />
<glyph unicode="&#x106;" horiz-adv-x="725" d="M442 722q62 0 111 -17.5t84.5 -48t57 -71t29.5 -86.5l-59 -18q-6 39 -24.5 72.5t-47.5 58t-68.5 38.5t-88.5 14q-60 0 -115 -25.5t-97.5 -73t-68 -115t-25.5 -151.5q0 -62 17.5 -109.5t49 -79.5t74.5 -48.5t93 -16.5q87 0 152.5 45.5t106.5 133.5l53 -26 q-44 -97 -126.5 -154t-191.5 -57q-62 0 -115 21t-93 61t-62.5 97t-22.5 129q0 105 33.5 185t87.5 134t121.5 81t134.5 27zM504 759h-64l128 119h87z" />
<glyph unicode="&#x107;" horiz-adv-x="527" d="M325 537h-55l124 140h86zM432 322q-11 48 -46 81t-95 33q-36 0 -71 -16t-62.5 -46t-44 -73.5t-16.5 -97.5q0 -36 11 -66t31 -51.5t48 -33t63 -11.5q59 0 99 33t63 79l50 -24q-15 -30 -36 -56t-48.5 -45t-60.5 -30t-71 -11q-48 0 -87 16.5t-66.5 45t-42.5 68t-15 85.5 q0 63 21.5 116t57.5 91.5t83 59.5t98 21q45 0 78.5 -13t56.5 -34t37 -47.5t20 -53.5z" />
<glyph unicode="&#x108;" horiz-adv-x="725" d="M321 759l134 119h81l85 -119h-53l-78 83l-110 -83h-59zM442 722q62 0 111 -17.5t84.5 -48t57 -71t29.5 -86.5l-59 -18q-6 39 -24.5 72.5t-47.5 58t-68.5 38.5t-88.5 14q-60 0 -115 -25.5t-97.5 -73t-68 -115t-25.5 -151.5q0 -62 17.5 -109.5t49 -79.5t74.5 -48.5 t93 -16.5q87 0 152.5 45.5t106.5 133.5l53 -26q-44 -97 -126.5 -154t-191.5 -57q-62 0 -115 21t-93 61t-62.5 97t-22.5 129q0 105 33.5 185t87.5 134t121.5 81t134.5 27z" />
<glyph unicode="&#x109;" horiz-adv-x="527" d="M165 538l138 138h76l78 -138h-51l-71 99l-112 -99h-58zM432 322q-11 48 -46 81t-95 33q-36 0 -71 -16t-62.5 -46t-44 -73.5t-16.5 -97.5q0 -36 11 -66t31 -51.5t48 -33t63 -11.5q59 0 99 33t63 79l50 -24q-15 -30 -36 -56t-48.5 -45t-60.5 -30t-71 -11q-48 0 -87 16.5 t-66.5 45t-42.5 68t-15 85.5q0 63 21.5 116t57.5 91.5t83 59.5t98 21q45 0 78.5 -13t56.5 -34t37 -47.5t20 -53.5z" />
<glyph unicode="&#x10a;" horiz-adv-x="725" d="M442 722q62 0 111 -17.5t84.5 -48t57 -71t29.5 -86.5l-59 -18q-6 39 -24.5 72.5t-47.5 58t-68.5 38.5t-88.5 14q-60 0 -115 -25.5t-97.5 -73t-68 -115t-25.5 -151.5q0 -62 17.5 -109.5t49 -79.5t74.5 -48.5t93 -16.5q87 0 152.5 45.5t106.5 133.5l53 -26 q-44 -97 -126.5 -154t-191.5 -57q-62 0 -115 21t-93 61t-62.5 97t-22.5 129q0 105 33.5 185t87.5 134t121.5 81t134.5 27zM432 813q0 22 15 38t38 16q19 0 30 -13t11 -30q0 -22 -15 -37.5t-36 -15.5q-20 0 -31.5 12.5t-11.5 29.5z" />
<glyph unicode="&#x10b;" horiz-adv-x="527" d="M432 322q-11 48 -46 81t-95 33q-36 0 -71 -16t-62.5 -46t-44 -73.5t-16.5 -97.5q0 -36 11 -66t31 -51.5t48 -33t63 -11.5q59 0 99 33t63 79l50 -24q-15 -30 -36 -56t-48.5 -45t-60.5 -30t-71 -11q-48 0 -87 16.5t-66.5 45t-42.5 68t-15 85.5q0 63 21.5 116t57.5 91.5 t83 59.5t98 21q45 0 78.5 -13t56.5 -34t37 -47.5t20 -53.5zM275 601q0 21 15 37.5t38 16.5q19 0 30 -13t11 -30q0 -22 -15 -37.5t-36 -15.5q-19 0 -31 12.5t-12 29.5z" />
<glyph unicode="&#x10c;" horiz-adv-x="725" d="M394 878l76 -83l110 83h62l-137 -119h-81l-82 119h52zM442 722q62 0 111 -17.5t84.5 -48t57 -71t29.5 -86.5l-59 -18q-6 39 -24.5 72.5t-47.5 58t-68.5 38.5t-88.5 14q-60 0 -115 -25.5t-97.5 -73t-68 -115t-25.5 -151.5q0 -62 17.5 -109.5t49 -79.5t74.5 -48.5t93 -16.5 q87 0 152.5 45.5t106.5 133.5l53 -26q-44 -97 -126.5 -154t-191.5 -57q-62 0 -115 21t-93 61t-62.5 97t-22.5 129q0 105 33.5 185t87.5 134t121.5 81t134.5 27z" />
<glyph unicode="&#x10d;" horiz-adv-x="527" d="M260 676l71 -99l112 99h58l-137 -138h-78l-77 138h51zM432 322q-11 48 -46 81t-95 33q-36 0 -71 -16t-62.5 -46t-44 -73.5t-16.5 -97.5q0 -36 11 -66t31 -51.5t48 -33t63 -11.5q59 0 99 33t63 79l50 -24q-15 -30 -36 -56t-48.5 -45t-60.5 -30t-71 -11q-48 0 -87 16.5 t-66.5 45t-42.5 68t-15 85.5q0 63 21.5 116t57.5 91.5t83 59.5t98 21q45 0 78.5 -13t56.5 -34t37 -47.5t20 -53.5z" />
<glyph unicode="&#x10e;" horiz-adv-x="697" d="M350 878l76 -83l110 83h62l-137 -119h-81l-82 119h52zM261 57q59 0 119.5 24t109 71t79.5 117t31 163q0 55 -17 96t-47.5 68.5t-72.5 41.5t-92 14h-128l-126 -595h144zM40 0l151 709h189q63 0 115 -19t90 -54t59 -86t21 -115q0 -95 -31 -174.5t-86 -137.5t-129 -90.5 t-159 -32.5h-220z" />
<glyph unicode="&#x10f;" horiz-adv-x="564" d="M636 542h-48l75 180h69zM282 436q-40 0 -74 -19.5t-59 -52.5t-39.5 -76t-14.5 -91q0 -33 9 -61.5t26.5 -49t42.5 -32.5t58 -12q42 0 76.5 21t59 55.5t37.5 77.5t13 88q0 33 -8.5 60.5t-25.5 48t-42.5 32t-58.5 11.5zM383 79q-11 -17 -27 -33t-36.5 -28.5t-45.5 -20.5 t-53 -8q-45 0 -79.5 15.5t-58 43.5t-36 65t-12.5 81q0 61 19 115t52.5 94t78.5 63t96 23q40 0 68 -11.5t47 -28t29.5 -36t15.5 -35.5l73 344h61l-125 -590q-7 -31 -9.5 -55.5t-2.5 -40.5q0 -14 0.5 -21t1.5 -15h-58q-1 6 -1.5 14t-0.5 20q0 10 0.5 20.5t2.5 24.5z" />
<glyph unicode="&#x110;" horiz-adv-x="698" d="M41 0l72 337h-77l11 54h77l68 318h189q63 0 115 -19t90 -54t59 -86t21 -115q0 -95 -31 -174.5t-86 -137.5t-129 -90.5t-159 -32.5h-220zM262 57q59 0 119.5 24t109 71t79.5 117t31 163q0 55 -17 96t-47.5 68.5t-72.5 41.5t-92 14h-128l-55 -261h149l-11 -54h-150 l-59 -280h144z" />
<glyph unicode="&#x111;" horiz-adv-x="564" d="M383 79q-11 -17 -27 -33t-36.5 -28.5t-45.5 -20.5t-53 -8q-45 0 -79.5 15.5t-58 43.5t-36 65t-12.5 81q0 61 19 115t52.5 94t78.5 63t96 23q40 0 68 -11.5t47 -28t29.5 -36t15.5 -35.5l40 190h-130l11 50h130l22 104h61l-22 -104h94l-10 -50h-95l-92 -436 q-7 -31 -9.5 -55.5t-2.5 -40.5q0 -14 0.5 -21t1.5 -15h-58q-1 6 -1.5 14t-0.5 20q0 10 0.5 20.5t2.5 24.5zM282 436q-40 0 -74 -19.5t-59 -52.5t-39.5 -76t-14.5 -91q0 -33 9 -61.5t26.5 -49t42.5 -32.5t58 -12q42 0 76.5 21t59 55.5t37.5 77.5t13 88q0 33 -8.5 60.5 t-25.5 48t-42.5 32t-58.5 11.5z" />
<glyph unicode="&#x112;" horiz-adv-x="567" d="M40 0l151 709h409l-12 -59h-346l-56 -265h312l-12 -60h-313l-56 -266h350l-12 -59h-415zM284 793l11 54h266l-11 -54h-266z" />
<glyph unicode="&#x113;" horiz-adv-x="532" d="M421 277q1 5 1.5 10.5t0.5 11.5q0 27 -8 52t-24.5 44t-42 30t-60.5 11q-34 0 -63.5 -13t-53 -34.5t-40 -50.5t-24.5 -61h314zM97 226q-1 -8 -1.5 -15t-0.5 -15q0 -35 11.5 -64t31.5 -49t47 -31t59 -11q58 0 99 30t63 69l46 -31q-29 -52 -83 -87t-126 -35q-44 0 -82 14 t-66 41t-44 66.5t-16 90.5q0 67 22 120.5t58 91.5t81.5 58.5t93.5 20.5t84.5 -15t61 -41t36.5 -61.5t12 -76.5q0 -20 -2.5 -38t-6.5 -32h-378zM199 581l11 53h254l-11 -53h-254z" />
<glyph unicode="&#x114;" horiz-adv-x="567" d="M40 0l151 709h409l-12 -59h-346l-56 -265h312l-12 -60h-313l-56 -266h350l-12 -59h-415zM398 755q-31 0 -54 8.5t-38 23.5t-22.5 34.5t-7.5 41.5q0 10 2 18h49q-1 -4 -1 -10q0 -26 17.5 -46.5t59.5 -20.5q23 0 41 6.5t31.5 17.5t23 24.5t14.5 28.5h51q-7 -24 -21 -46.5 t-35 -40t-48.5 -28.5t-61.5 -11z" />
<glyph unicode="&#x115;" horiz-adv-x="532" d="M421 277q1 5 1.5 10.5t0.5 11.5q0 27 -8 52t-24.5 44t-42 30t-60.5 11q-34 0 -63.5 -13t-53 -34.5t-40 -50.5t-24.5 -61h314zM97 226q-1 -8 -1.5 -15t-0.5 -15q0 -35 11.5 -64t31.5 -49t47 -31t59 -11q58 0 99 30t63 69l46 -31q-29 -52 -83 -87t-126 -35q-44 0 -82 14 t-66 41t-44 66.5t-16 90.5q0 67 22 120.5t58 91.5t81.5 58.5t93.5 20.5t84.5 -15t61 -41t36.5 -61.5t12 -76.5q0 -20 -2.5 -38t-6.5 -32h-378zM322 538q-29 0 -50.5 9t-36 24t-21.5 34.5t-7 41.5q0 7 1 15.5t3 13.5h45q-2 -10 -2 -17q0 -27 17 -48.5t58 -21.5q24 0 42.5 8 t32.5 20.5t23 28t14 30.5h49q-6 -26 -19.5 -50.5t-35 -44t-50 -31.5t-63.5 -12z" />
<glyph unicode="&#x116;" horiz-adv-x="567" d="M374 813q0 22 15 38t38 16q19 0 30 -13t11 -30q0 -22 -15 -37.5t-36 -15.5q-20 0 -31.5 12.5t-11.5 29.5zM40 0l151 709h409l-12 -59h-346l-56 -265h312l-12 -60h-313l-56 -266h350l-12 -59h-415z" />
<glyph unicode="&#x117;" horiz-adv-x="532" d="M421 277q1 5 1.5 10.5t0.5 11.5q0 27 -8 52t-24.5 44t-42 30t-60.5 11q-34 0 -63.5 -13t-53 -34.5t-40 -50.5t-24.5 -61h314zM97 226q-1 -8 -1.5 -15t-0.5 -15q0 -35 11.5 -64t31.5 -49t47 -31t59 -11q58 0 99 30t63 69l46 -31q-29 -52 -83 -87t-126 -35q-44 0 -82 14 t-66 41t-44 66.5t-16 90.5q0 67 22 120.5t58 91.5t81.5 58.5t93.5 20.5t84.5 -15t61 -41t36.5 -61.5t12 -76.5q0 -20 -2.5 -38t-6.5 -32h-378zM279 601q0 21 15 37.5t38 16.5q19 0 30 -13t11 -30q0 -22 -15 -37.5t-36 -15.5q-19 0 -31 12.5t-12 29.5z" />
<glyph unicode="&#x118;" horiz-adv-x="567" d="M455 0q-17 -8 -35.5 -20t-34.5 -27.5t-26.5 -34t-10.5 -39.5q0 -22 15 -32.5t37 -10.5q17 0 36 4l-10 -42q-10 -4 -20.5 -6t-25.5 -2q-38 0 -62 20.5t-24 55.5q0 23 8.5 43t22 37.5t30.5 31t34 22.5h-349l151 709h409l-12 -59h-346l-56 -265h312l-12 -60h-313l-56 -266 h350z" />
<glyph unicode="&#x119;" horiz-adv-x="532" d="M421 277q1 5 1.5 10.5t0.5 11.5q0 27 -8 52t-24.5 44t-42 30t-60.5 11q-34 0 -63.5 -13t-53 -34.5t-40 -50.5t-24.5 -61h314zM35 199q0 67 22 120.5t58 91.5t81.5 58.5t93.5 20.5t84.5 -15t61 -41t36.5 -61.5t12 -76.5q0 -20 -2.5 -38t-6.5 -32h-378q-1 -8 -1.5 -15 t-0.5 -15q0 -35 11.5 -64t31.5 -49t47 -31t59 -11q58 0 99 30t63 69l46 -31q-23 -42 -63.5 -72.5t-92.5 -43.5q-17 -4 -35 -15t-33 -26.5t-24.5 -34t-9.5 -38.5q0 -22 15 -32.5t37 -10.5q17 0 36 4l-10 -42q-10 -4 -20.5 -6t-25.5 -2q-38 0 -61.5 20.5t-23.5 55.5 q0 40 23.5 71.5t52.5 51.5q-39 4 -72.5 19.5t-58 42.5t-38 64t-13.5 84z" />
<glyph unicode="&#x11a;" horiz-adv-x="567" d="M337 878l76 -83l110 83h62l-137 -119h-81l-82 119h52zM40 0l151 709h409l-12 -59h-346l-56 -265h312l-12 -60h-313l-56 -266h350l-12 -59h-415z" />
<glyph unicode="&#x11b;" horiz-adv-x="532" d="M243 676l71 -99l112 99h58l-137 -138h-78l-77 138h51zM421 277q1 5 1.5 10.5t0.5 11.5q0 27 -8 52t-24.5 44t-42 30t-60.5 11q-34 0 -63.5 -13t-53 -34.5t-40 -50.5t-24.5 -61h314zM97 226q-1 -8 -1.5 -15t-0.5 -15q0 -35 11.5 -64t31.5 -49t47 -31t59 -11q58 0 99 30 t63 69l46 -31q-29 -52 -83 -87t-126 -35q-44 0 -82 14t-66 41t-44 66.5t-16 90.5q0 67 22 120.5t58 91.5t81.5 58.5t93.5 20.5t84.5 -15t61 -41t36.5 -61.5t12 -76.5q0 -20 -2.5 -38t-6.5 -32h-378z" />
<glyph unicode="&#x11c;" horiz-adv-x="754" d="M319 759l134 119h81l85 -119h-53l-78 83l-110 -83h-59zM438 664q-59 0 -114.5 -24.5t-98.5 -71.5t-68.5 -114.5t-25.5 -152.5q0 -63 18.5 -110.5t51 -80t75.5 -49t91 -16.5q54 0 99.5 19t79.5 51t56 73.5t30 86.5h-259l12 58h321l-70 -333h-50l17 111q-16 -23 -39 -45 t-53.5 -39.5t-68.5 -28.5t-83 -11q-57 0 -110 20.5t-93.5 60t-65 97t-24.5 132.5q0 106 34 186t88.5 133t122 79.5t134.5 26.5q58 0 106 -16.5t83.5 -46t58.5 -69.5t33 -86l-60 -21q-9 40 -28 73t-48 57t-67 37.5t-85 13.5z" />
<glyph unicode="&#x11d;" horiz-adv-x="561" d="M173 538l138 138h76l78 -138h-51l-71 99l-112 -99h-58zM419 291q0 27 -8.5 53t-25.5 46t-43 32t-61 12q-36 0 -69 -15.5t-57.5 -43t-39 -66t-14.5 -83.5q0 -64 35 -106t106 -42q40 0 73 18t56 48t35.5 68t12.5 79zM44 -15q1 -57 37 -96t106 -39q42 0 72 14t51 38.5 t34 56.5t21 68l16 77q-19 -30 -57 -54t-93 -24q-45 0 -80.5 15t-60 41.5t-37.5 62.5t-13 78q0 56 19 104.5t51.5 84t76 56t93.5 20.5q36 0 63 -9t46.5 -24t32 -34t18.5 -38l20 94h61l-95 -451q-9 -41 -25 -82t-44 -73.5t-70 -53t-102 -20.5q-47 0 -83.5 14t-62 37.5 t-39.5 55.5t-14 68z" />
<glyph unicode="&#x11e;" horiz-adv-x="754" d="M476 754q-31 0 -54 8.5t-38 23.5t-22.5 34.5t-7.5 41.5q0 10 2 18h49q-1 -4 -1 -10q0 -26 17.5 -46.5t59.5 -20.5q23 0 41 6.5t31.5 17.5t23 24.5t14.5 28.5h51q-7 -24 -21 -46.5t-35 -40t-48.5 -28.5t-61.5 -11zM438 664q-59 0 -114.5 -24.5t-98.5 -71.5t-68.5 -114.5 t-25.5 -152.5q0 -63 18.5 -110.5t51 -80t75.5 -49t91 -16.5q54 0 99.5 19t79.5 51t56 73.5t30 86.5h-259l12 58h321l-70 -333h-50l17 111q-16 -23 -39 -45t-53.5 -39.5t-68.5 -28.5t-83 -11q-57 0 -110 20.5t-93.5 60t-65 97t-24.5 132.5q0 106 34 186t88.5 133t122 79.5 t134.5 26.5q58 0 106 -16.5t83.5 -46t58.5 -69.5t33 -86l-60 -21q-9 40 -28 73t-48 57t-67 37.5t-85 13.5z" />
<glyph unicode="&#x11f;" horiz-adv-x="561" d="M419 291q0 27 -8.5 53t-25.5 46t-43 32t-61 12q-36 0 -69 -15.5t-57.5 -43t-39 -66t-14.5 -83.5q0 -64 35 -106t106 -42q40 0 73 18t56 48t35.5 68t12.5 79zM44 -15q1 -57 37 -96t106 -39q42 0 72 14t51 38.5t34 56.5t21 68l16 77q-19 -30 -57 -54t-93 -24 q-45 0 -80.5 15t-60 41.5t-37.5 62.5t-13 78q0 56 19 104.5t51.5 84t76 56t93.5 20.5q36 0 63 -9t46.5 -24t32 -34t18.5 -38l20 94h61l-95 -451q-9 -41 -25 -82t-44 -73.5t-70 -53t-102 -20.5q-47 0 -83.5 14t-62 37.5t-39.5 55.5t-14 68zM325 538q-29 0 -50.5 9t-36 24 t-21.5 34.5t-7 41.5q0 7 1 15.5t3 13.5h45q-2 -10 -2 -17q0 -27 17 -48.5t58 -21.5q24 0 42.5 8t32.5 20.5t23 28t14 30.5h49q-6 -26 -19.5 -50.5t-35 -44t-50 -31.5t-63.5 -12z" />
<glyph unicode="&#x120;" horiz-adv-x="754" d="M436 813q0 22 15 38t38 16q19 0 30 -13t11 -30q0 -22 -15 -37.5t-36 -15.5q-20 0 -31.5 12.5t-11.5 29.5zM438 664q-59 0 -114.5 -24.5t-98.5 -71.5t-68.5 -114.5t-25.5 -152.5q0 -63 18.5 -110.5t51 -80t75.5 -49t91 -16.5q54 0 99.5 19t79.5 51t56 73.5t30 86.5h-259 l12 58h321l-70 -333h-50l17 111q-16 -23 -39 -45t-53.5 -39.5t-68.5 -28.5t-83 -11q-57 0 -110 20.5t-93.5 60t-65 97t-24.5 132.5q0 106 34 186t88.5 133t122 79.5t134.5 26.5q58 0 106 -16.5t83.5 -46t58.5 -69.5t33 -86l-60 -21q-9 40 -28 73t-48 57t-67 37.5t-85 13.5z " />
<glyph unicode="&#x121;" horiz-adv-x="561" d="M419 291q0 27 -8.5 53t-25.5 46t-43 32t-61 12q-36 0 -69 -15.5t-57.5 -43t-39 -66t-14.5 -83.5q0 -64 35 -106t106 -42q40 0 73 18t56 48t35.5 68t12.5 79zM44 -15q1 -57 37 -96t106 -39q42 0 72 14t51 38.5t34 56.5t21 68l16 77q-19 -30 -57 -54t-93 -24 q-45 0 -80.5 15t-60 41.5t-37.5 62.5t-13 78q0 56 19 104.5t51.5 84t76 56t93.5 20.5q36 0 63 -9t46.5 -24t32 -34t18.5 -38l20 94h61l-95 -451q-9 -41 -25 -82t-44 -73.5t-70 -53t-102 -20.5q-47 0 -83.5 14t-62 37.5t-39.5 55.5t-14 68zM291 601q0 21 15 37.5t38 16.5 q19 0 30 -13t11 -30q0 -22 -15 -37.5t-36 -15.5q-19 0 -31 12.5t-12 29.5z" />
<glyph unicode="&#x122;" horiz-adv-x="754" d="M258 -172q24 1 45 13.5t29 37.5q-6 -4 -16 -4q-17 0 -27.5 10.5t-10.5 24.5q0 20 13.5 34t34.5 14q17 0 31.5 -10.5t14.5 -36.5q0 -27 -10.5 -48t-27.5 -35.5t-38.5 -22.5t-43.5 -8zM438 664q-59 0 -114.5 -24.5t-98.5 -71.5t-68.5 -114.5t-25.5 -152.5 q0 -63 18.5 -110.5t51 -80t75.5 -49t91 -16.5q54 0 99.5 19t79.5 51t56 73.5t30 86.5h-259l12 58h321l-70 -333h-50l17 111q-16 -23 -39 -45t-53.5 -39.5t-68.5 -28.5t-83 -11q-57 0 -110 20.5t-93.5 60t-65 97t-24.5 132.5q0 106 34 186t88.5 133t122 79.5t134.5 26.5 q58 0 106 -16.5t83.5 -46t58.5 -69.5t33 -86l-60 -21q-9 40 -28 73t-48 57t-67 37.5t-85 13.5z" />
<glyph unicode="&#x123;" horiz-adv-x="561" d="M386 663q-24 -1 -45 -13.5t-29 -37.5q6 4 16 4q17 0 27.5 -10.5t10.5 -24.5q0 -20 -13.5 -34t-34.5 -14q-17 0 -31.5 10.5t-14.5 36.5q0 27 10.5 48t27.5 35.5t38.5 22.5t43.5 8zM419 291q0 27 -8.5 53t-25.5 46t-43 32t-61 12q-36 0 -69 -15.5t-57.5 -43t-39 -66 t-14.5 -83.5q0 -64 35 -106t106 -42q40 0 73 18t56 48t35.5 68t12.5 79zM44 -15q1 -57 37 -96t106 -39q42 0 72 14t51 38.5t34 56.5t21 68l16 77q-19 -30 -57 -54t-93 -24q-45 0 -80.5 15t-60 41.5t-37.5 62.5t-13 78q0 56 19 104.5t51.5 84t76 56t93.5 20.5q36 0 63 -9 t46.5 -24t32 -34t18.5 -38l20 94h61l-95 -451q-9 -41 -25 -82t-44 -73.5t-70 -53t-102 -20.5q-47 0 -83.5 14t-62 37.5t-39.5 55.5t-14 68z" />
<glyph unicode="&#x124;" horiz-adv-x="714" d="M488 0l71 331h-384l-70 -331h-65l151 709h64l-68 -319h384l68 319h64l-150 -709h-65zM305 759l134 119h81l85 -119h-53l-78 83l-110 -83h-59z" />
<glyph unicode="&#x125;" horiz-adv-x="531" d="M335 0l62 293q2 9 3 18.5t1 18.5q0 46 -26 76t-83 30q-29 0 -53.5 -12t-44.5 -33t-34 -48.5t-21 -58.5l-60 -284h-61l153 722h61l-66 -308q22 31 60 53t88 22q37 0 65 -11t47 -30.5t28.5 -46t9.5 -57.5q0 -11 -1.5 -22t-3.5 -23l-63 -299h-61zM210 763l134 119h81 l85 -119h-53l-78 83l-110 -83h-59z" />
<glyph unicode="&#x126;" horiz-adv-x="714" d="M488 0l71 331h-384l-70 -331h-65l112 525h-71l10 49h71l29 135h64l-29 -135h384l29 135h64l-29 -135h73l-10 -49h-73l-111 -525h-65zM571 390l29 135h-384l-29 -135h384z" />
<glyph unicode="&#x127;" horiz-adv-x="532" d="M336 0l62 293q2 9 3 18.5t1 18.5q0 46 -26 76t-83 30q-29 0 -53.5 -12t-44.5 -33t-34 -48.5t-21 -58.5l-60 -284h-61l120 569h-87l11 52h87l22 101h61l-22 -101h137l-11 -52h-137l-33 -155q22 31 60 53t88 22q37 0 65 -11t47 -30.5t28.5 -46t9.5 -57.5q0 -11 -1.5 -22 t-3.5 -23l-63 -299h-61z" />
<glyph unicode="&#x128;" horiz-adv-x="266" d="M40 0l151 709h64l-150 -709h-65zM406 872q-11 -58 -40 -83.5t-65 -25.5q-19 0 -34.5 7t-28.5 18l-16 14q-11 10 -20.5 14.5t-22.5 4.5q-19 0 -32.5 -13.5t-18.5 -41.5h-47q8 56 38 82t66 26q20 0 36 -7.5t29 -18.5l16 -14q11 -10 19.5 -14.5t21.5 -4.5q40 0 52 57h47z " />
<glyph unicode="&#x129;" horiz-adv-x="220" d="M19 0l101 477h61l-101 -477h-61zM9 553q8 57 37.5 82.5t66.5 25.5q21 0 36.5 -7t27.5 -18l16 -15q18 -18 41 -18q41 0 52 56h48q-11 -57 -39.5 -82.5t-64.5 -25.5q-35 0 -61 24l-17 15q-11 10 -20.5 14.5t-23.5 4.5q-40 0 -51 -56h-48z" />
<glyph unicode="&#x12a;" horiz-adv-x="266" d="M40 0l151 709h64l-150 -709h-65zM103 793l11 54h266l-11 -54h-266z" />
<glyph unicode="&#x12b;" horiz-adv-x="220" d="M19 0l101 477h61l-101 -477h-61zM45 581l11 53h254l-11 -53h-254z" />
<glyph unicode="&#x12c;" horiz-adv-x="266" d="M40 0l151 709h64l-150 -709h-65zM237 754q-31 0 -54 8.5t-38 23.5t-22.5 34.5t-7.5 41.5q0 10 2 18h49q-1 -4 -1 -10q0 -26 17.5 -46.5t59.5 -20.5q23 0 41 6.5t31.5 17.5t23 24.5t14.5 28.5h51q-7 -24 -21 -46.5t-35 -40t-48.5 -28.5t-61.5 -11z" />
<glyph unicode="&#x12d;" horiz-adv-x="220" d="M19 0l101 477h61l-101 -477h-61zM161 538q-29 0 -50.5 9t-36 24t-21.5 34.5t-7 41.5q0 7 1 15.5t3 13.5h45q-2 -10 -2 -17q0 -27 17 -48.5t58 -21.5q24 0 42.5 8t32.5 20.5t23 28t14 30.5h49q-6 -26 -19.5 -50.5t-35 -44t-50 -31.5t-63.5 -12z" />
<glyph unicode="&#x12e;" horiz-adv-x="266" d="M-56 -134q0 23 8.5 43.5t22.5 37.5t31 31t34 23l151 708h64l-150 -709q-17 -8 -35.5 -20t-34.5 -27.5t-26.5 -34t-10.5 -39.5q0 -22 14.5 -32.5t36.5 -10.5q18 0 37 4l-10 -42q-10 -4 -20.5 -6t-25.5 -2q-38 0 -62 20.5t-24 55.5z" />
<glyph unicode="&#x12f;" horiz-adv-x="221" d="M5 -210q-38 0 -61.5 20.5t-23.5 55.5q0 24 9 45t23.5 38.5t32 31t34.5 22.5l101 474h61l-101 -477q-17 -8 -35.5 -20t-34.5 -27.5t-26.5 -34t-10.5 -39.5q0 -22 15 -32.5t37 -10.5q17 0 36 4l-10 -42q-10 -4 -20.5 -6t-25.5 -2zM142 670q0 23 16.5 39.5t38.5 16.5 q20 0 32 -13t12 -33q0 -22 -16 -38t-38 -16q-20 0 -32.5 12.5t-12.5 31.5z" />
<glyph unicode="&#x130;" horiz-adv-x="266" d="M40 0l151 709h64l-150 -709h-65zM198 813q0 22 15 38t38 16q19 0 30 -13t11 -30q0 -22 -15 -37.5t-36 -15.5q-20 0 -31.5 12.5t-11.5 29.5z" />
<glyph unicode="&#x131;" horiz-adv-x="221" d="M19 0l101 477h61l-101 -477h-61z" />
<glyph unicode="&#x132;" horiz-adv-x="585" d="M103 338l79 371h65l-80 -371h-64zM581 709l-110 -519q-20 -94 -73.5 -148.5t-139.5 -54.5q-47 0 -81.5 14t-57 38t-34 57.5t-11.5 72.5q0 32 7 64l5 24l66 10l-9 -39q-7 -29 -7 -56t7 -50t22.5 -40t39 -27t56.5 -10q58 0 95.5 39.5t51.5 106.5l109 518h64z" />
<glyph unicode="&#x133;" horiz-adv-x="442" d="M142 670q0 23 16.5 39.5t38.5 16.5q20 0 32 -13t12 -33q0 -22 -16 -38t-38 -16q-20 0 -32.5 12.5t-12.5 31.5zM19 0l101 477h61l-101 -477h-61zM341 477h61l-117 -554q-14 -63 -50 -92t-87 -29q-23 0 -40 4.5t-26 11.5l11 49q8 -5 21.5 -8t28.5 -3q35 0 54.5 18.5 t28.5 60.5zM363 670q0 23 16.5 39.5t38.5 16.5q20 0 32 -13t12 -33q0 -22 -16 -38t-38 -16q-20 0 -32.5 12.5t-12.5 31.5z" />
<glyph unicode="&#x134;" horiz-adv-x="523" d="M339 759l134 119h81l85 -119h-53l-78 83l-110 -83h-59zM519 709l-110 -519q-20 -94 -74 -148.5t-140 -54.5q-46 0 -80 14t-56.5 38t-34 57t-11.5 71q0 23 2.5 46.5t10.5 52.5l65 10q-8 -34 -12 -57t-4 -46q0 -26 6.5 -49.5t21.5 -41t38.5 -27.5t56.5 -10q58 0 95.5 39.5 t51.5 107.5l110 517h64z" />
<glyph unicode="&#x135;" horiz-adv-x="220" d="M120 477h61l-117 -554q-14 -63 -50 -92t-87 -29q-23 0 -40 4.5t-26 11.5l11 49q8 -5 21.5 -8t28.5 -3q35 0 54.5 18.5t28.5 60.5zM17 538l138 138h76l78 -138h-51l-71 99l-112 -99h-58z" />
<glyph unicode="&#x136;" horiz-adv-x="634" d="M303 355l-151 -133l-47 -222h-65l151 709h64l-83 -392l444 392h90l-356 -313l216 -396h-73zM226 -172q24 1 45 13.5t29 37.5q-6 -4 -16 -4q-17 0 -27.5 10.5t-10.5 24.5q0 20 13.5 34t34.5 14q17 0 31.5 -10.5t14.5 -36.5q0 -27 -10.5 -48t-27.5 -35.5t-38.5 -22.5 t-43.5 -8z" />
<glyph unicode="&#x137;" horiz-adv-x="496" d="M226 245l-116 -95l-32 -150h-60l153 722h61l-104 -486l293 241h89l-238 -194l149 -283h-69zM131 -172q24 1 45 13.5t29 37.5q-6 -4 -16 -4q-17 0 -27.5 10.5t-10.5 24.5q0 20 13.5 34t34.5 14q17 0 31.5 -10.5t14.5 -36.5q0 -27 -10.5 -48t-27.5 -35.5t-38.5 -22.5 t-43.5 -8z" />
<glyph unicode="&#x138;" horiz-adv-x="497" d="M181 477l-52 -241l293 241h89l-238 -194l149 -283h-69l-126 245l-116 -95l-32 -150h-60l101 477h61z" />
<glyph unicode="&#x139;" horiz-adv-x="530" d="M265 759h-64l128 119h87zM40 0l151 709h64l-138 -650h350l-13 -59h-414z" />
<glyph unicode="&#x13a;" horiz-adv-x="220" d="M238 763h-64l128 119h87zM18 0l153 722h61l-153 -722h-61z" />
<glyph unicode="&#x13b;" horiz-adv-x="530" d="M40 0l151 709h64l-138 -650h350l-13 -59h-414zM180 -172q24 1 45 13.5t29 37.5q-6 -4 -16 -4q-17 0 -27.5 10.5t-10.5 24.5q0 20 13.5 34t34.5 14q17 0 31.5 -10.5t14.5 -36.5q0 -27 -10.5 -48t-27.5 -35.5t-38.5 -22.5t-43.5 -8z" />
<glyph unicode="&#x13c;" horiz-adv-x="220" d="M18 0l153 722h61l-153 -722h-61zM-39 -172q24 1 45 13.5t29 37.5q-6 -4 -16 -4q-17 0 -27.5 10.5t-10.5 24.5q0 20 13.5 34t34.5 14q17 0 31.5 -10.5t14.5 -36.5q0 -27 -10.5 -48t-27.5 -35.5t-38.5 -22.5t-43.5 -8z" />
<glyph unicode="&#x13d;" horiz-adv-x="530" d="M385 574h-49l76 185h72zM40 0l151 709h64l-138 -650h350l-13 -59h-414z" />
<glyph unicode="&#x13e;" horiz-adv-x="219" d="M292 542h-48l75 180h69zM18 0l153 722h61l-153 -722h-61z" />
<glyph unicode="&#x13f;" horiz-adv-x="530" d="M40 0l151 709h64l-138 -650h350l-13 -59h-414zM303 355q0 21 15 37.5t38 16.5q19 0 30 -13t11 -30q0 -22 -15 -37.5t-36 -15.5q-19 0 -31 12.5t-12 29.5z" />
<glyph unicode="&#x140;" horiz-adv-x="271" d="M198 306q0 21 15 37.5t38 16.5q19 0 30 -13t11 -30q0 -22 -15 -37.5t-36 -15.5q-19 0 -31 12.5t-12 29.5zM18 0l153 722h61l-153 -722h-61z" />
<glyph unicode="&#x141;" horiz-adv-x="536" d="M47 0l66 311l-101 -40l12 56l101 41l73 341h64l-67 -313l185 75l-12 -57l-185 -75l-59 -280h350l-13 -59h-414z" />
<glyph unicode="&#x142;" horiz-adv-x="300" d="M56 0l69 328l-107 -43l12 57l107 44l72 336h61l-66 -309l112 45l-12 -57l-112 -46l-75 -355h-61z" />
<glyph unicode="&#x143;" horiz-adv-x="727" d="M465 759h-64l128 119h87zM499 0l-262 624l-132 -624h-65l151 709h78l254 -609l129 609h64l-150 -709h-67z" />
<glyph unicode="&#x144;" horiz-adv-x="532" d="M327 537h-55l124 140h86zM336 0l60 282q6 27 6 50q0 47 -26.5 75.5t-81.5 28.5q-29 0 -54 -12t-45 -33t-34 -48.5t-21 -58.5l-60 -284h-61l84 395q7 30 9 52.5t2 29.5h59q0 -8 -1.5 -28t-6.5 -40q22 34 62 57t90 23q69 0 108 -40t39 -105q0 -11 -1.5 -25.5t-4.5 -29.5 l-61 -289h-61z" />
<glyph unicode="&#x145;" horiz-adv-x="727" d="M257 -172q24 1 45 13.5t29 37.5q-6 -4 -16 -4q-17 0 -27.5 10.5t-10.5 24.5q0 20 13.5 34t34.5 14q17 0 31.5 -10.5t14.5 -36.5q0 -27 -10.5 -48t-27.5 -35.5t-38.5 -22.5t-43.5 -8zM499 0l-262 624l-132 -624h-65l151 709h78l254 -609l129 609h64l-150 -709h-67z" />
<glyph unicode="&#x146;" horiz-adv-x="532" d="M133 -172q24 1 45 13.5t29 37.5q-6 -4 -16 -4q-17 0 -27.5 10.5t-10.5 24.5q0 20 13.5 34t34.5 14q17 0 31.5 -10.5t14.5 -36.5q0 -27 -10.5 -48t-27.5 -35.5t-38.5 -22.5t-43.5 -8zM336 0l60 282q6 27 6 50q0 47 -26.5 75.5t-81.5 28.5q-29 0 -54 -12t-45 -33t-34 -48.5 t-21 -58.5l-60 -284h-61l84 395q7 30 9 52.5t2 29.5h59q0 -8 -1.5 -28t-6.5 -40q22 34 62 57t90 23q69 0 108 -40t39 -105q0 -11 -1.5 -25.5t-4.5 -29.5l-61 -289h-61z" />
<glyph unicode="&#x147;" horiz-adv-x="727" d="M385 878l76 -83l110 83h62l-137 -119h-81l-82 119h52zM499 0l-262 624l-132 -624h-65l151 709h78l254 -609l129 609h64l-150 -709h-67z" />
<glyph unicode="&#x148;" horiz-adv-x="532" d="M238 676l71 -99l112 99h58l-137 -138h-78l-77 138h51zM336 0l60 282q6 27 6 50q0 47 -26.5 75.5t-81.5 28.5q-29 0 -54 -12t-45 -33t-34 -48.5t-21 -58.5l-60 -284h-61l84 395q7 30 9 52.5t2 29.5h59q0 -8 -1.5 -28t-6.5 -40q22 34 62 57t90 23q69 0 108 -40t39 -105 q0 -11 -1.5 -25.5t-4.5 -29.5l-61 -289h-61z" />
<glyph unicode="&#x149;" horiz-adv-x="532" d="M137 567q24 1 45 13.5t29 37.5q-6 -4 -16 -4q-17 0 -27.5 10.5t-10.5 24.5q0 20 13.5 34t34.5 14q17 0 31.5 -10.5t14.5 -36.5q0 -27 -10.5 -48t-27.5 -35.5t-38.5 -22.5t-43.5 -8zM336 0l60 282q6 27 6 50q0 47 -26.5 75.5t-81.5 28.5q-29 0 -54 -12t-45 -33t-34 -48.5 t-21 -58.5l-60 -284h-61l84 395q7 30 9 52.5t2 29.5h59q0 -8 -1.5 -28t-6.5 -40q22 34 62 57t90 23q69 0 108 -40t39 -105q0 -11 -1.5 -25.5t-4.5 -29.5l-61 -289h-61z" />
<glyph unicode="&#x14a;" horiz-adv-x="727" d="M549 -82q-14 -64 -49.5 -92.5t-86.5 -28.5q-23 0 -39.5 4.5t-25.5 11.5l10 49q10 -5 23 -8t28 -3q34 0 54 18.5t28 60.5l12 60l-266 634l-132 -624h-65l151 709h78l254 -609l129 609h64z" />
<glyph unicode="&#x14b;" horiz-adv-x="532" d="M381 -77q-14 -63 -50 -92t-87 -29q-23 0 -40 4.5t-26 11.5l11 49q8 -5 21.5 -8t28.5 -3q35 0 54.5 18.5t28.5 60.5l74 347q6 27 6 50q0 47 -26.5 75.5t-81.5 28.5q-29 0 -54 -12t-45 -33t-34 -48.5t-21 -58.5l-60 -284h-61l84 395q7 30 9 52.5t2 29.5h59q0 -8 -1.5 -28 t-6.5 -40q22 34 62 57t90 23q69 0 108 -40t39 -105q0 -11 -1.5 -25.5t-4.5 -29.5z" />
<glyph unicode="&#x14c;" horiz-adv-x="771" d="M334 793l11 54h266l-11 -54h-266zM65 293q0 106 33.5 186.5t87.5 134.5t121 81t133 27q63 0 116.5 -20.5t93.5 -59.5t62.5 -96t22.5 -130q0 -106 -33.5 -186.5t-87.5 -134.5t-121 -81t-133 -27q-63 0 -116.5 20.5t-93.5 59.5t-62.5 96t-22.5 130zM670 411 q0 63 -18.5 110.5t-50 79t-74 47.5t-91.5 16q-60 0 -115 -26t-97.5 -73.5t-68 -115t-25.5 -151.5q0 -63 18.5 -110.5t50 -79t74 -47.5t91.5 -16q60 0 115 26t97.5 73.5t68 115t25.5 151.5z" />
<glyph unicode="&#x14d;" horiz-adv-x="549" d="M190 581l11 53h254l-11 -53h-254zM288 436q-35 0 -69 -15.5t-61.5 -45t-44.5 -73t-17 -99.5q0 -37 10.5 -67t30 -51t45.5 -32.5t58 -11.5q34 0 68.5 15.5t62 45.5t44.5 73.5t17 99.5q0 74 -39.5 117.5t-104.5 43.5zM493 277q0 -65 -21 -118.5t-56.5 -91.5t-82 -59 t-96.5 -21q-46 0 -83.5 16t-63.5 44.5t-40.5 67.5t-14.5 85q0 66 21.5 119.5t57 91.5t82 58.5t96.5 20.5q47 0 84 -16t63 -44.5t40 -67.5t14 -85z" />
<glyph unicode="&#x14e;" horiz-adv-x="771" d="M478 754q-31 0 -54 8.5t-38 23.5t-22.5 34.5t-7.5 41.5q0 10 2 18h49q-1 -4 -1 -10q0 -26 17.5 -46.5t59.5 -20.5q23 0 41 6.5t31.5 17.5t23 24.5t14.5 28.5h51q-7 -24 -21 -46.5t-35 -40t-48.5 -28.5t-61.5 -11zM65 293q0 106 33.5 186.5t87.5 134.5t121 81t133 27 q63 0 116.5 -20.5t93.5 -59.5t62.5 -96t22.5 -130q0 -106 -33.5 -186.5t-87.5 -134.5t-121 -81t-133 -27q-63 0 -116.5 20.5t-93.5 59.5t-62.5 96t-22.5 130zM670 411q0 63 -18.5 110.5t-50 79t-74 47.5t-91.5 16q-60 0 -115 -26t-97.5 -73.5t-68 -115t-25.5 -151.5 q0 -63 18.5 -110.5t50 -79t74 -47.5t91.5 -16q60 0 115 26t97.5 73.5t68 115t25.5 151.5z" />
<glyph unicode="&#x14f;" horiz-adv-x="549" d="M288 436q-35 0 -69 -15.5t-61.5 -45t-44.5 -73t-17 -99.5q0 -37 10.5 -67t30 -51t45.5 -32.5t58 -11.5q34 0 68.5 15.5t62 45.5t44.5 73.5t17 99.5q0 74 -39.5 117.5t-104.5 43.5zM493 277q0 -65 -21 -118.5t-56.5 -91.5t-82 -59t-96.5 -21q-46 0 -83.5 16t-63.5 44.5 t-40.5 67.5t-14.5 85q0 66 21.5 119.5t57 91.5t82 58.5t96.5 20.5q47 0 84 -16t63 -44.5t40 -67.5t14 -85zM313 538q-29 0 -50.5 9t-36 24t-21.5 34.5t-7 41.5q0 7 1 15.5t3 13.5h45q-2 -10 -2 -17q0 -27 17 -48.5t58 -21.5q24 0 42.5 8t32.5 20.5t23 28t14 30.5h49 q-6 -26 -19.5 -50.5t-35 -44t-50 -31.5t-63.5 -12z" />
<glyph unicode="&#x150;" horiz-adv-x="771" d="M422 759h-49l82 119h72zM546 759h-49l87 119h73zM65 293q0 106 33.5 186.5t87.5 134.5t121 81t133 27q63 0 116.5 -20.5t93.5 -59.5t62.5 -96t22.5 -130q0 -106 -33.5 -186.5t-87.5 -134.5t-121 -81t-133 -27q-63 0 -116.5 20.5t-93.5 59.5t-62.5 96t-22.5 130zM670 411 q0 63 -18.5 110.5t-50 79t-74 47.5t-91.5 16q-60 0 -115 -26t-97.5 -73.5t-68 -115t-25.5 -151.5q0 -63 18.5 -110.5t50 -79t74 -47.5t91.5 -16q60 0 115 26t97.5 73.5t68 115t25.5 151.5z" />
<glyph unicode="&#x151;" horiz-adv-x="549" d="M275 537h-46l89 140h69zM389 537h-46l95 140h69zM288 436q-35 0 -69 -15.5t-61.5 -45t-44.5 -73t-17 -99.5q0 -37 10.5 -67t30 -51t45.5 -32.5t58 -11.5q34 0 68.5 15.5t62 45.5t44.5 73.5t17 99.5q0 74 -39.5 117.5t-104.5 43.5zM493 277q0 -65 -21 -118.5t-56.5 -91.5 t-82 -59t-96.5 -21q-46 0 -83.5 16t-63.5 44.5t-40.5 67.5t-14.5 85q0 66 21.5 119.5t57 91.5t82 58.5t96.5 20.5q47 0 84 -16t63 -44.5t40 -67.5t14 -85z" />
<glyph unicode="&#x152;" horiz-adv-x="1122" d="M595 0l22 105q-55 -60 -122.5 -89t-134.5 -29q-63 0 -116.5 20.5t-93.5 59.5t-62.5 96t-22.5 130q0 106 33.5 186.5t87.5 134.5t121 81t133 27q94 0 165.5 -46.5t103.5 -141.5l37 175h409l-12 -59h-346l-56 -265h312l-12 -60h-313l-56 -266h350l-12 -59h-415zM670 411 q0 63 -18.5 110.5t-50 79t-74 47.5t-91.5 16q-60 0 -115 -26t-97.5 -73.5t-68 -115t-25.5 -151.5q0 -63 18.5 -110.5t50 -79t74 -47.5t91.5 -16q60 0 115 26t97.5 73.5t68 115t25.5 151.5z" />
<glyph unicode="&#x153;" horiz-adv-x="926" d="M491 226q-1 -8 -1.5 -15t-0.5 -15q0 -35 11.5 -64t31.5 -49t47 -31t59 -11q58 0 99 30t63 69l46 -31q-29 -52 -83 -87t-126 -35q-66 0 -117 31t-74 93q-35 -60 -90.5 -92t-118.5 -32q-46 0 -83.5 16t-63.5 44.5t-40.5 67.5t-14.5 85q0 66 21.5 119.5t57 91.5t82 58.5 t96.5 20.5q68 0 115 -33t69 -92q37 61 92.5 93t115.5 32q48 0 84.5 -15t61 -41t36.5 -61.5t12 -76.5q0 -20 -2.5 -38t-6.5 -32h-378zM288 436q-35 0 -69 -15.5t-61.5 -45t-44.5 -73t-17 -99.5q0 -37 10.5 -67t30 -51t45.5 -32.5t58 -11.5q34 0 68.5 15.5t62 45.5t44.5 73.5 t17 99.5q0 74 -39.5 117.5t-104.5 43.5zM815 277q1 5 1.5 10.5t0.5 11.5q0 27 -8 52t-24.5 44t-42 30t-60.5 11q-34 0 -63.5 -13t-53 -34.5t-40 -50.5t-24.5 -61h314z" />
<glyph unicode="&#x154;" horiz-adv-x="608" d="M401 759h-64l128 119h87zM325 308h-155l-65 -308h-65l151 709h219q43 0 77.5 -13t58.5 -35.5t36.5 -53.5t12.5 -67q0 -46 -15.5 -84.5t-43 -67.5t-65 -47.5t-82.5 -25.5l120 -315h-68zM334 365q42 0 78 12t62.5 34.5t41 54t14.5 71.5q0 52 -34 83.5t-100 31.5h-153 l-61 -287h152z" />
<glyph unicode="&#x155;" horiz-adv-x="337" d="M257 537h-55l124 140h86zM347 411q-10 3 -22.5 5.5t-27.5 2.5q-55 0 -99 -38.5t-61 -118.5l-56 -262h-61l84 395q6 30 7.5 52t1.5 30h61q0 -12 -1.5 -33t-5.5 -40q28 42 67 60.5t81 18.5q15 0 26.5 -2.5t18.5 -5.5z" />
<glyph unicode="&#x156;" horiz-adv-x="608" d="M325 308h-155l-65 -308h-65l151 709h219q43 0 77.5 -13t58.5 -35.5t36.5 -53.5t12.5 -67q0 -46 -15.5 -84.5t-43 -67.5t-65 -47.5t-82.5 -25.5l120 -315h-68zM334 365q42 0 78 12t62.5 34.5t41 54t14.5 71.5q0 52 -34 83.5t-100 31.5h-153l-61 -287h152zM200 -172 q24 1 45 13.5t29 37.5q-6 -4 -16 -4q-17 0 -27.5 10.5t-10.5 24.5q0 20 13.5 34t34.5 14q17 0 31.5 -10.5t14.5 -36.5q0 -27 -10.5 -48t-27.5 -35.5t-38.5 -22.5t-43.5 -8z" />
<glyph unicode="&#x157;" horiz-adv-x="337" d="M347 411q-10 3 -22.5 5.5t-27.5 2.5q-55 0 -99 -38.5t-61 -118.5l-56 -262h-61l84 395q6 30 7.5 52t1.5 30h61q0 -12 -1.5 -33t-5.5 -40q28 42 67 60.5t81 18.5q15 0 26.5 -2.5t18.5 -5.5zM-34 -172q24 1 45 13.5t29 37.5q-6 -4 -16 -4q-17 0 -27.5 10.5t-10.5 24.5 q0 20 13.5 34t34.5 14q17 0 31.5 -10.5t14.5 -36.5q0 -27 -10.5 -48t-27.5 -35.5t-38.5 -22.5t-43.5 -8z" />
<glyph unicode="&#x158;" horiz-adv-x="608" d="M316 878l76 -83l110 83h62l-137 -119h-81l-82 119h52zM325 308h-155l-65 -308h-65l151 709h219q43 0 77.5 -13t58.5 -35.5t36.5 -53.5t12.5 -67q0 -46 -15.5 -84.5t-43 -67.5t-65 -47.5t-82.5 -25.5l120 -315h-68zM334 365q42 0 78 12t62.5 34.5t41 54t14.5 71.5 q0 52 -34 83.5t-100 31.5h-153l-61 -287h152z" />
<glyph unicode="&#x159;" horiz-adv-x="337" d="M178 676l71 -99l112 99h58l-137 -138h-78l-77 138h51zM347 411q-10 3 -22.5 5.5t-27.5 2.5q-55 0 -99 -38.5t-61 -118.5l-56 -262h-61l84 395q6 30 7.5 52t1.5 30h61q0 -12 -1.5 -33t-5.5 -40q28 42 67 60.5t81 18.5q15 0 26.5 -2.5t18.5 -5.5z" />
<glyph unicode="&#x15a;" horiz-adv-x="574" d="M398 759h-64l128 119h87zM269 44q36 0 67 10t53 28.5t34.5 44t12.5 56.5q0 39 -21 69.5t-72 53.5l-102 47q-56 25 -88.5 66t-32.5 103q0 45 18.5 81.5t49.5 63t71.5 41t84.5 14.5q59 0 101 -18t68 -46.5t38.5 -63.5t13.5 -70l-61 -12q0 26 -8 53t-27.5 49.5t-51 37 t-78.5 14.5q-30 0 -57.5 -10t-49.5 -27.5t-35 -42.5t-13 -55q0 -43 21 -71.5t62 -46.5l102 -47q133 -60 133 -175q0 -44 -17.5 -81.5t-49 -64.5t-74 -42.5t-93.5 -15.5q-57 0 -101 16.5t-74 45.5t-46 68.5t-16 85.5q0 8 0.5 15.5t2.5 21.5l63 11q-2 -11 -2.5 -19.5 t-0.5 -19.5q0 -35 10.5 -65.5t32.5 -53t54.5 -36t77.5 -13.5z" />
<glyph unicode="&#x15b;" horiz-adv-x="431" d="M284 537h-55l124 140h86zM65 153q0 -48 30 -81t88 -33q45 0 74 24t29 62q0 26 -15.5 44t-43.5 31l-69 32q-39 17 -62 45t-23 70q0 28 11.5 54t33 46t52 31.5t67.5 11.5q43 0 73 -13.5t49.5 -34t29 -45t10.5 -47.5l-56 -15q-1 19 -7.5 37.5t-19.5 33.5t-34 24t-50 9 q-41 0 -70.5 -24t-29.5 -59q0 -24 12.5 -41.5t43.5 -31.5l69 -31q43 -20 66.5 -50.5t23.5 -69.5q0 -27 -11 -53t-32 -46.5t-52 -33t-71 -12.5q-42 0 -74 12.5t-53.5 33.5t-32.5 48.5t-11 57.5q0 9 2 17l55 13q-2 -8 -2 -16z" />
<glyph unicode="&#x15c;" horiz-adv-x="574" d="M227 759l134 119h81l85 -119h-53l-78 83l-110 -83h-59zM269 44q36 0 67 10t53 28.5t34.5 44t12.5 56.5q0 39 -21 69.5t-72 53.5l-102 47q-56 25 -88.5 66t-32.5 103q0 45 18.5 81.5t49.5 63t71.5 41t84.5 14.5q59 0 101 -18t68 -46.5t38.5 -63.5t13.5 -70l-61 -12 q0 26 -8 53t-27.5 49.5t-51 37t-78.5 14.5q-30 0 -57.5 -10t-49.5 -27.5t-35 -42.5t-13 -55q0 -43 21 -71.5t62 -46.5l102 -47q133 -60 133 -175q0 -44 -17.5 -81.5t-49 -64.5t-74 -42.5t-93.5 -15.5q-57 0 -101 16.5t-74 45.5t-46 68.5t-16 85.5q0 8 0.5 15.5t2.5 21.5 l63 11q-2 -11 -2.5 -19.5t-0.5 -19.5q0 -35 10.5 -65.5t32.5 -53t54.5 -36t77.5 -13.5z" />
<glyph unicode="&#x15d;" horiz-adv-x="431" d="M121 538l138 138h76l78 -138h-51l-71 99l-112 -99h-58zM65 153q0 -48 30 -81t88 -33q45 0 74 24t29 62q0 26 -15.5 44t-43.5 31l-69 32q-39 17 -62 45t-23 70q0 28 11.5 54t33 46t52 31.5t67.5 11.5q43 0 73 -13.5t49.5 -34t29 -45t10.5 -47.5l-56 -15q-1 19 -7.5 37.5 t-19.5 33.5t-34 24t-50 9q-41 0 -70.5 -24t-29.5 -59q0 -24 12.5 -41.5t43.5 -31.5l69 -31q43 -20 66.5 -50.5t23.5 -69.5q0 -27 -11 -53t-32 -46.5t-52 -33t-71 -12.5q-42 0 -74 12.5t-53.5 33.5t-32.5 48.5t-11 57.5q0 9 2 17l55 13q-2 -8 -2 -16z" />
<glyph unicode="&#x15e;" horiz-adv-x="574" d="M269 44q36 0 67 10t53 28.5t34.5 44t12.5 56.5q0 39 -21 69.5t-72 53.5l-102 47q-56 25 -88.5 66t-32.5 103q0 45 18.5 81.5t49.5 63t71.5 41t84.5 14.5q59 0 101 -18t68 -46.5t38.5 -63.5t13.5 -70l-61 -12q0 26 -8 53t-27.5 49.5t-51 37t-78.5 14.5q-30 0 -57.5 -10 t-49.5 -27.5t-35 -42.5t-13 -55q0 -43 21 -71.5t62 -46.5l102 -47q133 -60 133 -175q0 -44 -17.5 -81t-48.5 -64.5t-73.5 -43t-92.5 -15.5l-52 -44q3 1 10 1q37 -2 58 -21.5t21 -47.5q0 -38 -30 -61.5t-77 -23.5q-45 0 -75.5 20.5t-42.5 46.5l37 23q8 -17 26.5 -34t54.5 -17 q26 0 42.5 12t16.5 34q0 17 -14 28t-42 11q-14 0 -26 -4l-16 31l57 50q-45 7 -80 25.5t-58.5 46.5t-36 63.5t-12.5 76.5q0 8 0.5 15.5t2.5 21.5l63 11q-2 -11 -2.5 -19.5t-0.5 -19.5q0 -35 10.5 -65.5t32.5 -53t54.5 -36t77.5 -13.5z" />
<glyph unicode="&#x15f;" horiz-adv-x="431" d="M65 153q0 -48 30 -81t88 -33q45 0 74 24t29 62q0 26 -15.5 44t-43.5 31l-69 32q-39 17 -62 45t-23 70q0 28 11.5 54t33 46t52 31.5t67.5 11.5q43 0 73 -13.5t49.5 -34t29 -45t10.5 -47.5l-56 -15q-1 19 -7.5 37.5t-19.5 33.5t-34 24t-50 9q-41 0 -70.5 -24t-29.5 -59 q0 -24 12.5 -41.5t43.5 -31.5l69 -31q43 -20 66.5 -50.5t23.5 -69.5q0 -27 -10.5 -52.5t-31 -46t-51 -33t-69.5 -13.5l-52 -44q3 1 10 1q37 -2 58 -21.5t21 -47.5q0 -38 -30 -61.5t-77 -23.5q-45 0 -75.5 20.5t-42.5 46.5l37 23q8 -17 26.5 -34t54.5 -17q26 0 42.5 12 t16.5 34q0 17 -14 28t-42 11q-14 0 -26 -4l-16 31l58 51q-62 13 -93 54.5t-31 92.5q0 9 2 17l55 13q-2 -8 -2 -16z" />
<glyph unicode="&#x160;" horiz-adv-x="574" d="M305 878l76 -83l110 83h62l-137 -119h-81l-82 119h52zM269 44q36 0 67 10t53 28.5t34.5 44t12.5 56.5q0 39 -21 69.5t-72 53.5l-102 47q-56 25 -88.5 66t-32.5 103q0 45 18.5 81.5t49.5 63t71.5 41t84.5 14.5q59 0 101 -18t68 -46.5t38.5 -63.5t13.5 -70l-61 -12 q0 26 -8 53t-27.5 49.5t-51 37t-78.5 14.5q-30 0 -57.5 -10t-49.5 -27.5t-35 -42.5t-13 -55q0 -43 21 -71.5t62 -46.5l102 -47q133 -60 133 -175q0 -44 -17.5 -81.5t-49 -64.5t-74 -42.5t-93.5 -15.5q-57 0 -101 16.5t-74 45.5t-46 68.5t-16 85.5q0 8 0.5 15.5t2.5 21.5 l63 11q-2 -11 -2.5 -19.5t-0.5 -19.5q0 -35 10.5 -65.5t32.5 -53t54.5 -36t77.5 -13.5z" />
<glyph unicode="&#x161;" horiz-adv-x="431" d="M203 676l71 -99l112 99h58l-137 -138h-78l-77 138h51zM65 153q0 -48 30 -81t88 -33q45 0 74 24t29 62q0 26 -15.5 44t-43.5 31l-69 32q-39 17 -62 45t-23 70q0 28 11.5 54t33 46t52 31.5t67.5 11.5q43 0 73 -13.5t49.5 -34t29 -45t10.5 -47.5l-56 -15q-1 19 -7.5 37.5 t-19.5 33.5t-34 24t-50 9q-41 0 -70.5 -24t-29.5 -59q0 -24 12.5 -41.5t43.5 -31.5l69 -31q43 -20 66.5 -50.5t23.5 -69.5q0 -27 -11 -53t-32 -46.5t-52 -33t-71 -12.5q-42 0 -74 12.5t-53.5 33.5t-32.5 48.5t-11 57.5q0 9 2 17l55 13q-2 -8 -2 -16z" />
<glyph unicode="&#x162;" horiz-adv-x="580" d="M401 651l-138 -651h-9l-67 -57q3 1 10 1q37 -2 58 -21.5t21 -47.5q0 -38 -30 -61.5t-77 -23.5q-45 0 -75.5 20.5t-42.5 46.5l37 23q8 -17 26.5 -34t54.5 -17q26 0 42.5 12t16.5 34q0 17 -14 28t-42 11q-14 0 -26 -4l-16 31l68 59l139 651h-242l12 58h544l-13 -58h-237z " />
<glyph unicode="&#x163;" horiz-adv-x="298" d="M69 99q0 9 1.5 22.5t5.5 30.5l58 270h-90l11 55h21q35 0 57 14t30 54l18 83h58l-32 -151h99l-11 -55h-100l-58 -272q-3 -16 -4.5 -25.5t-1.5 -17.5q0 -27 15 -43t48 -16q20 0 31 3l-11 -51q-5 -2 -13.5 -3.5t-23.5 -1.5q-52 0 -80 28t-28 76zM46 -172q24 1 45 13.5 t29 37.5q-6 -4 -16 -4q-17 0 -27.5 10.5t-10.5 24.5q0 20 13.5 34t34.5 14q17 0 31.5 -10.5t14.5 -36.5q0 -27 -10.5 -48t-27.5 -35.5t-38.5 -22.5t-43.5 -8z" />
<glyph unicode="&#x164;" horiz-adv-x="580" d="M319 878l76 -83l110 83h62l-137 -119h-81l-82 119h52zM401 651l-138 -651h-65l139 651h-242l12 58h544l-13 -58h-237z" />
<glyph unicode="&#x165;" horiz-adv-x="297" d="M334 550h-48l75 180h69zM69 99q0 9 1.5 22.5t5.5 30.5l58 270h-90l11 55h21q35 0 57 14t30 54l18 83h58l-32 -151h99l-11 -55h-100l-58 -272q-3 -16 -4.5 -25.5t-1.5 -17.5q0 -27 15 -43t48 -16q20 0 31 3l-11 -51q-5 -2 -13.5 -3.5t-23.5 -1.5q-52 0 -80 28t-28 76z" />
<glyph unicode="&#x166;" horiz-adv-x="590" d="M405 651l-60 -280h127l-11 -53h-127l-67 -318h-65l68 318h-120l11 53h120l60 280h-242l12 58h544l-13 -58h-237z" />
<glyph unicode="&#x167;" horiz-adv-x="306" d="M74 99q0 9 1.5 22.5t5.5 30.5l15 72h-83l11 51h83l32 147h-90l11 55h21q35 0 57 14t30 54l18 83h58l-32 -151h99l-11 -55h-100l-31 -147h107l-10 -51h-108l-16 -74q-3 -16 -4.5 -25.5t-1.5 -17.5q0 -27 15 -43t48 -16q20 0 31 3l-11 -51q-5 -2 -13.5 -3.5t-23.5 -1.5 q-52 0 -80 28t-28 76z" />
<glyph unicode="&#x168;" horiz-adv-x="666" d="M663 709l-106 -499q-23 -109 -89.5 -166t-166.5 -57q-105 0 -163 55t-58 152q0 17 1.5 36t6.5 39l94 440h64l-94 -446q-8 -35 -8 -63q0 -68 39 -111t122 -43q77 0 125 45t65 127l104 491h64zM602 872q-11 -58 -40 -83.5t-65 -25.5q-19 0 -34.5 7t-28.5 18l-16 14 q-11 10 -20.5 14.5t-22.5 4.5q-19 0 -32.5 -13.5t-18.5 -41.5h-47q8 56 38 82t66 26q20 0 36 -7.5t29 -18.5l16 -14q11 -10 19.5 -14.5t21.5 -4.5q40 0 52 57h47z" />
<glyph unicode="&#x169;" horiz-adv-x="527" d="M342 70q-21 -34 -58.5 -57.5t-85.5 -23.5q-73 0 -111.5 41.5t-38.5 107.5q0 12 1 27t5 32l59 280h61l-59 -278q-6 -30 -6 -54q0 -45 24.5 -74.5t81.5 -29.5q28 0 52.5 12t44 33t33.5 50t21 62l59 279h61l-81 -381q-6 -29 -7 -54t-1 -42h-59q0 14 0.5 30.5t3.5 39.5z M164 553q8 57 37.5 82.5t66.5 25.5q21 0 36.5 -7t27.5 -18l16 -15q18 -18 41 -18q41 0 52 56h48q-11 -57 -39.5 -82.5t-64.5 -25.5q-35 0 -61 24l-17 15q-11 10 -20.5 14.5t-23.5 4.5q-40 0 -51 -56h-48z" />
<glyph unicode="&#x16a;" horiz-adv-x="666" d="M663 709l-106 -499q-23 -109 -89.5 -166t-166.5 -57q-105 0 -163 55t-58 152q0 17 1.5 36t6.5 39l94 440h64l-94 -446q-8 -35 -8 -63q0 -68 39 -111t122 -43q77 0 125 45t65 127l104 491h64zM303 793l11 54h266l-11 -54h-266z" />
<glyph unicode="&#x16b;" horiz-adv-x="527" d="M342 70q-21 -34 -58.5 -57.5t-85.5 -23.5q-73 0 -111.5 41.5t-38.5 107.5q0 12 1 27t5 32l59 280h61l-59 -278q-6 -30 -6 -54q0 -45 24.5 -74.5t81.5 -29.5q28 0 52.5 12t44 33t33.5 50t21 62l59 279h61l-81 -381q-6 -29 -7 -54t-1 -42h-59q0 14 0.5 30.5t3.5 39.5z M189 581l11 53h254l-11 -53h-254z" />
<glyph unicode="&#x16c;" horiz-adv-x="666" d="M663 709l-106 -499q-23 -109 -89.5 -166t-166.5 -57q-105 0 -163 55t-58 152q0 17 1.5 36t6.5 39l94 440h64l-94 -446q-8 -35 -8 -63q0 -68 39 -111t122 -43q77 0 125 45t65 127l104 491h64zM426 754q-31 0 -54 8.5t-38 23.5t-22.5 34.5t-7.5 41.5q0 10 2 18h49 q-1 -4 -1 -10q0 -26 17.5 -46.5t59.5 -20.5q23 0 41 6.5t31.5 17.5t23 24.5t14.5 28.5h51q-7 -24 -21 -46.5t-35 -40t-48.5 -28.5t-61.5 -11z" />
<glyph unicode="&#x16d;" horiz-adv-x="527" d="M342 70q-21 -34 -58.5 -57.5t-85.5 -23.5q-73 0 -111.5 41.5t-38.5 107.5q0 12 1 27t5 32l59 280h61l-59 -278q-6 -30 -6 -54q0 -45 24.5 -74.5t81.5 -29.5q28 0 52.5 12t44 33t33.5 50t21 62l59 279h61l-81 -381q-6 -29 -7 -54t-1 -42h-59q0 14 0.5 30.5t3.5 39.5z M310 538q-29 0 -50.5 9t-36 24t-21.5 34.5t-7 41.5q0 7 1 15.5t3 13.5h45q-2 -10 -2 -17q0 -27 17 -48.5t58 -21.5q24 0 42.5 8t32.5 20.5t23 28t14 30.5h49q-6 -26 -19.5 -50.5t-35 -44t-50 -31.5t-63.5 -12z" />
<glyph unicode="&#x16e;" horiz-adv-x="666" d="M663 709l-106 -499q-23 -109 -89.5 -166t-166.5 -57q-105 0 -163 55t-58 152q0 17 1.5 36t6.5 39l94 440h64l-94 -446q-8 -35 -8 -63q0 -68 39 -111t122 -43q77 0 125 45t65 127l104 491h64zM445 905q-28 0 -46 -19.5t-18 -45.5q0 -23 14 -37.5t37 -14.5q26 0 45.5 18.5 t19.5 46.5q0 22 -14.5 37t-37.5 15zM337 836q0 24 9.5 44.5t25 35.5t35.5 23t41 8q41 0 66.5 -26.5t25.5 -64.5q0 -22 -9 -42t-24 -35.5t-35 -24.5t-42 -9q-20 0 -37 7t-29.5 19.5t-19.5 29t-7 35.5z" />
<glyph unicode="&#x16f;" horiz-adv-x="527" d="M334 739q42 0 68.5 -27t26.5 -67q0 -23 -9.5 -44t-25 -37t-36.5 -25t-44 -9q-42 0 -69 27t-27 66q0 25 10 46.5t26 37t37 24t43 8.5zM262 628q0 -23 15 -39t40 -16q26 0 46.5 20t20.5 49q0 23 -14.5 38.5t-40.5 15.5q-28 0 -47.5 -20t-19.5 -48zM342 70 q-21 -34 -58.5 -57.5t-85.5 -23.5q-73 0 -111.5 41.5t-38.5 107.5q0 12 1 27t5 32l59 280h61l-59 -278q-6 -30 -6 -54q0 -45 24.5 -74.5t81.5 -29.5q28 0 52.5 12t44 33t33.5 50t21 62l59 279h61l-81 -381q-6 -29 -7 -54t-1 -42h-59q0 14 0.5 30.5t3.5 39.5z" />
<glyph unicode="&#x170;" horiz-adv-x="666" d="M377 759h-49l82 119h72zM501 759h-49l87 119h73zM663 709l-106 -499q-23 -109 -89.5 -166t-166.5 -57q-105 0 -163 55t-58 152q0 17 1.5 36t6.5 39l94 440h64l-94 -446q-8 -35 -8 -63q0 -68 39 -111t122 -43q77 0 125 45t65 127l104 491h64z" />
<glyph unicode="&#x171;" horiz-adv-x="527" d="M342 70q-21 -34 -58.5 -57.5t-85.5 -23.5q-73 0 -111.5 41.5t-38.5 107.5q0 12 1 27t5 32l59 280h61l-59 -278q-6 -30 -6 -54q0 -45 24.5 -74.5t81.5 -29.5q28 0 52.5 12t44 33t33.5 50t21 62l59 279h61l-81 -381q-6 -29 -7 -54t-1 -42h-59q0 14 0.5 30.5t3.5 39.5z M257 537h-46l89 140h69zM371 537h-46l95 140h69z" />
<glyph unicode="&#x172;" horiz-adv-x="666" d="M253 -121q0 -22 15 -32.5t37 -10.5q17 0 36 4l-10 -42q-10 -4 -20.5 -6t-25.5 -2q-38 0 -61.5 20.5t-23.5 55.5q0 40 23 71t52 51q-93 7 -144 61t-51 145q0 17 1.5 36t6.5 39l94 440h64l-94 -446q-8 -35 -8 -63q0 -68 39 -111t122 -43q77 0 125 45t65 127l104 491h64 l-106 -499q-20 -93 -70.5 -148t-127.5 -69q-18 -3 -37 -14.5t-34.5 -27t-25 -34.5t-9.5 -38z" />
<glyph unicode="&#x173;" horiz-adv-x="527" d="M322 -210q-38 0 -61.5 20.5t-23.5 55.5q0 24 9 45.5t23.5 39t32.5 31t36 22.5q0 13 0.5 29t3.5 37q-21 -34 -58.5 -57.5t-85.5 -23.5q-73 0 -111.5 41.5t-38.5 107.5q0 12 1 27t5 32l59 280h61l-59 -278q-6 -30 -6 -54q0 -45 24.5 -74.5t81.5 -29.5q28 0 52.5 12t44 33 t33.5 50t21 62l59 279h61l-81 -381q-6 -29 -7 -54t-1 -42q-17 -8 -35.5 -20t-34.5 -27.5t-26.5 -34t-10.5 -39.5q0 -22 15 -32.5t37 -10.5q17 0 36 4l-10 -42q-10 -4 -20.5 -6t-25.5 -2z" />
<glyph unicode="&#x174;" horiz-adv-x="966" d="M428 759l134 119h81l85 -119h-53l-78 83l-110 -83h-59zM598 709l70 -617l290 617h66l-337 -709h-68l-71 622l-311 -622h-69l-56 709h63l45 -614l308 614h70z" />
<glyph unicode="&#x175;" horiz-adv-x="766" d="M276 538l138 138h76l78 -138h-51l-71 99l-112 -99h-58zM454 477l49 -400l208 400h66l-255 -477h-64l-51 411l-226 -411h-62l-48 477h60l34 -397l218 397h71z" />
<glyph unicode="&#x176;" horiz-adv-x="590" d="M114 709h67l132 -341l257 341h75l-312 -404l-64 -305h-65l66 311zM234 759l134 119h81l85 -119h-53l-78 83l-110 -83h-59z" />
<glyph unicode="&#x177;" horiz-adv-x="472" d="M-22 -190l178 265l-118 402h65l96 -343l220 343h71l-442 -667h-70zM121 538l138 138h76l78 -138h-51l-71 99l-112 -99h-58z" />
<glyph unicode="&#x178;" horiz-adv-x="590" d="M114 709h67l132 -341l257 341h75l-312 -404l-64 -305h-65l66 311zM245 814q0 21 14 35t35 14q17 0 27 -12t10 -27q0 -21 -14 -34.5t-34 -13.5q-17 0 -27.5 11t-10.5 27zM450 814q0 21 14 35t35 14q17 0 27 -12t10 -27q0 -21 -14 -34.5t-34 -13.5q-17 0 -27.5 11t-10.5 27 z" />
<glyph unicode="&#x179;" horiz-adv-x="601" d="M397 759h-64l128 119h87zM-24 0l14 64l573 587h-438l12 58h517l-14 -63l-574 -587h441l-12 -59h-519z" />
<glyph unicode="&#x17a;" horiz-adv-x="458" d="M290 537h-55l124 140h86zM-23 0l11 54l374 368h-284l11 55h362l-10 -55l-375 -367h303l-11 -55h-381z" />
<glyph unicode="&#x17b;" horiz-adv-x="601" d="M-24 0l14 64l573 587h-438l12 58h517l-14 -63l-574 -587h441l-12 -59h-519zM359 813q0 22 15 38t38 16q19 0 30 -13t11 -30q0 -22 -15 -37.5t-36 -15.5q-20 0 -31.5 12.5t-11.5 29.5z" />
<glyph unicode="&#x17c;" horiz-adv-x="458" d="M-23 0l11 54l374 368h-284l11 55h362l-10 -55l-375 -367h303l-11 -55h-381zM244 601q0 21 15 37.5t38 16.5q19 0 30 -13t11 -30q0 -22 -15 -37.5t-36 -15.5q-19 0 -31 12.5t-12 29.5z" />
<glyph unicode="&#x17d;" horiz-adv-x="601" d="M329 878l76 -83l110 83h62l-137 -119h-81l-82 119h52zM-24 0l14 64l573 587h-438l12 58h517l-14 -63l-574 -587h441l-12 -59h-519z" />
<glyph unicode="&#x17e;" horiz-adv-x="458" d="M206 676l71 -99l112 99h58l-137 -138h-78l-77 138h51zM-23 0l11 54l374 368h-284l11 55h362l-10 -55l-375 -367h303l-11 -55h-381z" />
<glyph unicode="&#x18f;" horiz-adv-x="777" d="M427 722q65 0 122.5 -21.5t100 -61.5t67 -97.5t24.5 -129.5q0 -105 -34 -184.5t-88.5 -133.5t-123.5 -81t-138 -27q-63 0 -119 21.5t-98 61.5t-66.5 97t-24.5 128q0 31 6 66h619q1 11 1.5 23t0.5 25q0 61 -20 109t-54 80t-80.5 49t-98.5 17q-41 0 -81 -11t-75.5 -32 t-65 -51.5t-48.5 -68.5l-51 26q24 46 59 82t77.5 61.5t90.5 39t98 13.5zM361 44q49 0 97 16.5t89 49t71.5 81t45.5 112.5h-553q-1 -3 -1 -10q0 -57 20 -103.5t54 -78.5t79.5 -49.5t97.5 -17.5z" />
<glyph unicode="&#x192;" horiz-adv-x="5120" d="M2128 382q111 -27 159.5 -72.5t48.5 -121.5q0 -45 -16.5 -81t-47 -62t-73.5 -40t-96 -14q-75 0 -143 26t-125 77q-3 3 -3 5q0 4 2 6l67 80q3 3 5 3q4 0 6 -2q49 -43 94.5 -62t99.5 -19q48 0 76 19.5t28 53.5q0 15 -5 27t-19.5 22.5t-41.5 20t-71 20.5q-51 12 -91 27 t-68 37.5t-42.5 54.5t-14.5 77q0 42 16.5 77.5t46 61t70.5 39.5t91 14q135 0 234 -81q3 -3 3 -6q0 -1 -2 -5l-59 -84q-2 -4 -7 -4q-3 0 -5 2q-85 64 -166 64q-43 0 -69 -18.5t-26 -49.5q0 -16 5.5 -28t21 -22.5t43.5 -20.5t74 -21zM2657 502q43 0 84 -16.5t73 -48.5t52 -80 t20 -111t-20 -110.5t-52 -80t-73 -48.5t-84 -16q-93 0 -153 69v-195q0 -9 -9 -9h-108q-9 0 -9 9v619q0 8 9 8h108q9 0 9 -8v-56q62 74 153 74zM2760 246q0 31 -9.5 58t-26.5 46t-40.5 30t-51.5 11t-52 -11t-41.5 -30.5t-27.5 -46t-10 -57.5t10 -57.5t27.5 -46t41.5 -30.5 t52 -11q57 0 92.5 40t35.5 105zM3183 502q55 0 102.5 -20t82.5 -54.5t55.5 -81t20.5 -100.5t-20.5 -101t-56 -81.5t-83.5 -54t-103 -19.5t-102.5 19.5t-82.5 54t-55 80.5t-20 100t20.5 101t55.5 82t83 55t103 20zM3183 100q29 0 54 11t43 30t28 45.5t10 57.5t-10.5 58 t-29 46.5t-43.5 30.5t-54 11q-30 0 -55 -10.5t-43 -30t-28 -46t-10 -57.5t10.5 -58t29 -46.5t43.5 -30.5t55 -11zM3757 492q8 0 8 -8v-94q0 -8 -8 -8h-120v-225q0 -52 51 -52q20 0 34.5 5t19.5 7q4 2 7.5 3.5t5.5 1.5q8 0 8 -9v-87q0 -2 -0.5 -4.5t-5.5 -4.5 q-20 -11 -43 -18t-57 -7q-145 0 -145 148v242h-53q-7 0 -7 8v94q0 8 7 8h53v123q0 7 8 7h109q8 0 8 -7v-123h120zM4294 559q-2 0 -6.5 2t-14.5 4q-13 3 -22 4.5t-21 1.5q-55 0 -55 -65v-14h186q6 0 8 -4l127 -334l116 333q2 5 7 5h114q2 0 5 -2t3 -6q0 -3 -2 -7l-188 -485 q-15 -38 -31 -64.5t-35.5 -43t-43.5 -24t-54 -7.5q-32 0 -59 7t-57 22q-4 2 -4 6q0 3 1 5l36 82q2 5 7 5q1 0 2 -0.5t2 -0.5q18 -9 32 -13.5t28 -4.5q18 0 31.5 9t27.5 39l-155 373h-102v-373q0 -9 -9 -9h-108q-9 0 -9 9v373h-52q-7 0 -7 8v95q0 7 7 7h52v24 q0 80 39.5 121.5t115.5 41.5q52 0 90 -12q6 -2 6 -8v-92q0 -2 -2 -5t-6 -3zM3933 492q7 0 7 -8v-475q0 -9 -7 -9h-110q-7 0 -7 9v475q0 8 7 8h110zM3878 708q32 0 55.5 -22.5t23.5 -54.5q0 -33 -23.5 -56t-55.5 -23t-54.5 23t-22.5 56q0 32 22.5 54.5t54.5 22.5zM4833 338 q-32 0 -54 22.5t-22 54.5t22 54.5t54 22.5t54.5 -22t22.5 -54t-22.5 -55t-54.5 -23zM4833 484q-29 0 -48.5 -20t-19.5 -49t19.5 -49.5t48.5 -20.5q30 0 50 21t20 50q0 28 -20 48t-50 20zM4873 377h-19l-20 27h-16v-27h-15v81h35q14 0 23 -7t9 -20q0 -10 -5.5 -15.5 t-13.5 -8.5zM4818 444v-26h20q16 0 16 12q0 14 -16 14h-20zM1200 -6q17 0 30.5 13t13.5 32q0 24 -21 37q-79 49 -182 80t-239 31q-123 0 -263 -32q-15 -4 -24.5 -15.5t-9.5 -26.5q0 -17 11.5 -30.5t31.5 -13.5q7 0 20 3t21 5q66 14 121.5 18.5t93.5 4.5q107 0 199.5 -25 t173.5 -74q12 -7 23 -7zM1277 181q22 0 38.5 16.5t16.5 39.5q0 14 -6.5 26.5t-19.5 20.5q-107 66 -240 99.5t-270 33.5q-73 0 -144 -10t-138 -30q-18 -5 -28.5 -20t-10.5 -33q0 -22 14 -38t38 -16q9 0 14 1t10.5 2.5t13.5 4t22 5.5q58 14 112.5 19t94.5 5q123 0 241.5 -30 t212.5 -88q14 -8 29 -8zM1332 408q15 -9 33 -9q28 0 47.5 19t19.5 47q0 17 -8.5 32t-24.5 24q-125 72 -277 105.5t-316 33.5q-92 0 -176.5 -11.5t-154.5 -32.5q-22 -7 -34.5 -24.5t-12.5 -38.5q0 -26 18 -46.5t47 -20.5q10 0 19 3q63 19 139 29t161 10q68 0 138 -7 t137 -21.5t129.5 -37.5t115.5 -54zM210 327q0 97 25.5 187.5t71.5 169t110.5 143t143 110.5t168.5 71t187 25t187 -25t168.5 -71t143 -110.5t110.5 -143t71 -169t25 -187.5q0 -98 -25 -188t-71 -168t-110.5 -142.5t-143 -110.5t-168.5 -71t-187 -25t-187 25t-168.5 71 t-143 110.5t-110.5 142.5t-71.5 168.5t-25.5 187.5z" />
<glyph unicode="&#x1b5;" horiz-adv-x="613" d="M-20 0l14 64l272 279h-157l11 55h200l247 253h-438l12 58h517l-14 -63l-243 -248h164l-11 -55h-207l-277 -284h441l-12 -59h-519z" />
<glyph unicode="&#x1b6;" horiz-adv-x="469" d="M-19 0l11 54l174 171h-113l10 50h154l149 147h-284l11 55h362l-10 -55l-150 -147h118l-10 -50h-159l-174 -170h303l-11 -55h-381z" />
<glyph unicode="&#x1fa;" horiz-adv-x="660" d="M201 287h266l-60 352zM434 826q-27 0 -45.5 -19.5t-18.5 -45.5q0 -23 14.5 -37.5t37.5 -14.5q26 0 45.5 18.5t19.5 46.5q0 22 -14.5 37t-38.5 15zM476 901h-64l128 119h87zM327 757q0 24 9.5 44.5t25 35.5t35.5 23t41 8q40 0 66 -26.5t26 -64.5q0 -34 -19.5 -61.5 t-49.5 -40.5l117 -675h-64l-38 228h-309l-133 -228h-73l406 683q-19 11 -29.5 30.5t-10.5 43.5z" />
<glyph unicode="&#x1fb;" horiz-adv-x="566" d="M282 436q-40 0 -74 -19t-59 -52t-39.5 -76t-14.5 -91q0 -33 8.5 -62t26 -50t43 -33t59.5 -12q44 0 78.5 23t58 58.5t36 78.5t12.5 83q0 33 -8.5 60.5t-25.5 48t-42.5 32t-58.5 11.5zM524 477l-73 -345q-5 -23 -8 -46t-3 -48v-18.5t2 -19.5h-58q-1 5 -1.5 13.5t-0.5 20.5 q0 10 0.5 20.5t2.5 24.5q-12 -17 -28.5 -33t-37 -28.5t-45.5 -20.5t-53 -8q-45 0 -79.5 16.5t-58.5 44t-36 65t-12 79.5q0 62 19 116t52.5 93.5t78.5 62.5t96 23q40 0 68.5 -11.5t47.5 -28t29.5 -36t15.5 -35.5l21 99h61zM391 775h-53l120 136h83zM347 738q42 0 68.5 -27 t26.5 -67q0 -23 -9.5 -44t-25 -37t-36.5 -25t-44 -9q-42 0 -69 27t-27 66q0 25 10 46.5t26 37t37 24t43 8.5zM275 627q0 -23 15 -39t40 -16q26 0 46.5 20t20.5 49q0 23 -14.5 38.5t-40.5 15.5q-28 0 -47.5 -20t-19.5 -48z" />
<glyph unicode="&#x1fc;" horiz-adv-x="977" d="M664 759h-64l128 119h87zM877 59l-12 -59h-415l45 210h-290l-180 -210h-80l619 709h446l-12 -59h-346l-57 -265h313l-12 -60h-313l-57 -266h351zM507 267l82 386l-335 -386h253z" />
<glyph unicode="&#x1fd;" horiz-adv-x="851" d="M463 537h-55l124 140h86zM416 226q-1 -8 -1.5 -15t-0.5 -15q0 -35 11.5 -64t31.5 -49t47 -31t59 -11q58 0 99 30t63 69l46 -31q-29 -52 -83 -87t-126 -35q-69 0 -120 32.5t-71 95.5q-28 -59 -80 -93.5t-125 -34.5q-39 0 -68.5 11t-49 29t-29 41t-9.5 47q0 36 14 63.5 t38 46.5t55.5 29t67.5 12l128 6q20 1 32.5 7t19 15t8.5 21t2 24q0 42 -30 70t-88 28q-49 0 -84.5 -26t-49.5 -73l-54 19q20 62 72 97t119 35q69 0 108 -27.5t53 -65.5q37 45 86.5 69.5t101.5 24.5q48 0 84.5 -15t61 -41t36.5 -61.5t12 -76.5q0 -20 -2.5 -38t-6.5 -32h-378z M73 119q0 -21 8.5 -36t23 -25t33 -15t39.5 -5q61 0 107 36.5t60 104.5l12 58q-3 -3 -10.5 -5.5t-17 -4t-20 -3t-18.5 -1.5l-108 -4q-47 -2 -78 -27t-31 -73zM740 277q1 5 1.5 10.5t0.5 11.5q0 27 -8 52t-24.5 44t-42 30t-60.5 11q-34 0 -63.5 -13t-53 -34.5t-40 -50.5 t-24.5 -61h314z" />
<glyph unicode="&#x1fe;" horiz-adv-x="770" d="M65 293q0 106 33.5 186.5t87.5 134.5t121 81t133 27q63 0 117 -20.5t94 -60.5l85 86l38 -36l-90 -91q24 -36 37.5 -82t13.5 -102q0 -106 -33.5 -186.5t-87.5 -134.5t-121 -81t-133 -27q-62 0 -115 19.5t-93 57.5l-79 -80l-37 36l83 83q-26 37 -40 84.5t-14 105.5z M130 298q0 -88 36 -147l440 445q-32 34 -75.5 51t-94.5 17q-60 0 -115 -26t-97.5 -73.5t-68 -115t-25.5 -151.5zM670 411q0 43 -8.5 78t-24.5 64l-440 -444q32 -32 74.5 -48t92.5 -16q60 0 115 26t97.5 73.5t68 115t25.5 151.5zM492 759h-64l128 119h87z" />
<glyph unicode="&#x1ff;" horiz-adv-x="549" d="M493 277q0 -65 -21 -118.5t-56.5 -91.5t-82 -59t-96.5 -21q-45 0 -80.5 14.5t-61.5 40.5l-60 -58l-33 36l63 61q-30 49 -30 119q0 66 21.5 119.5t57 91.5t82 58.5t96.5 20.5q45 0 80 -14t61 -40l58 56l33 -36l-61 -59q14 -26 22 -56t8 -64zM432 275q0 22 -4 41t-11 36 l-279 -269q40 -42 102 -42q34 0 68.5 15.5t62 45.5t44.5 73.5t17 99.5zM288 436q-35 0 -69 -15.5t-61.5 -45t-44.5 -73t-17 -99.5q0 -44 15 -78l279 270q-39 41 -102 41zM337 537h-55l124 140h86z" />
<glyph unicode="&#x218;" horiz-adv-x="574" d="M269 44q36 0 67 10t53 28.5t34.5 44t12.5 56.5q0 39 -21 69.5t-72 53.5l-102 47q-56 25 -88.5 66t-32.5 103q0 45 18.5 81.5t49.5 63t71.5 41t84.5 14.5q59 0 101 -18t68 -46.5t38.5 -63.5t13.5 -70l-61 -12q0 26 -8 53t-27.5 49.5t-51 37t-78.5 14.5q-30 0 -57.5 -10 t-49.5 -27.5t-35 -42.5t-13 -55q0 -43 21 -71.5t62 -46.5l102 -47q133 -60 133 -175q0 -44 -17.5 -81.5t-49 -64.5t-74 -42.5t-93.5 -15.5q-57 0 -101 16.5t-74 45.5t-46 68.5t-16 85.5q0 8 0.5 15.5t2.5 21.5l63 11q-2 -11 -2.5 -19.5t-0.5 -19.5q0 -35 10.5 -65.5 t32.5 -53t54.5 -36t77.5 -13.5zM151 -172q24 1 45 13.5t29 37.5q-6 -4 -16 -4q-17 0 -27.5 10.5t-10.5 24.5q0 20 13.5 34t34.5 14q17 0 31.5 -10.5t14.5 -36.5q0 -27 -10.5 -48t-27.5 -35.5t-38.5 -22.5t-43.5 -8z" />
<glyph unicode="&#x219;" horiz-adv-x="431" d="M65 153q0 -48 30 -81t88 -33q45 0 74 24t29 62q0 26 -15.5 44t-43.5 31l-69 32q-39 17 -62 45t-23 70q0 28 11.5 54t33 46t52 31.5t67.5 11.5q43 0 73 -13.5t49.5 -34t29 -45t10.5 -47.5l-56 -15q-1 19 -7.5 37.5t-19.5 33.5t-34 24t-50 9q-41 0 -70.5 -24t-29.5 -59 q0 -24 12.5 -41.5t43.5 -31.5l69 -31q43 -20 66.5 -50.5t23.5 -69.5q0 -27 -11 -53t-32 -46.5t-52 -33t-71 -12.5q-42 0 -74 12.5t-53.5 33.5t-32.5 48.5t-11 57.5q0 9 2 17l55 13q-2 -8 -2 -16zM81 -172q24 1 45 13.5t29 37.5q-6 -4 -16 -4q-17 0 -27.5 10.5t-10.5 24.5 q0 20 13.5 34t34.5 14q17 0 31.5 -10.5t14.5 -36.5q0 -27 -10.5 -48t-27.5 -35.5t-38.5 -22.5t-43.5 -8z" />
<glyph unicode="&#x21a;" horiz-adv-x="580" d="M401 651l-138 -651h-65l139 651h-242l12 58h544l-13 -58h-237zM144 -172q24 1 45 13.5t29 37.5q-6 -4 -16 -4q-17 0 -27.5 10.5t-10.5 24.5q0 20 13.5 34t34.5 14q17 0 31.5 -10.5t14.5 -36.5q0 -27 -10.5 -48t-27.5 -35.5t-38.5 -22.5t-43.5 -8z" />
<glyph unicode="&#x21b;" horiz-adv-x="298" d="M69 99q0 9 1.5 22.5t5.5 30.5l58 270h-90l11 55h21q35 0 57 14t30 54l18 83h58l-32 -151h99l-11 -55h-100l-58 -272q-3 -16 -4.5 -25.5t-1.5 -17.5q0 -27 15 -43t48 -16q20 0 31 3l-11 -51q-5 -2 -13.5 -3.5t-23.5 -1.5q-10 0 -14 1l-62 -53q3 1 10 1q37 -2 58 -21.5 t21 -47.5q0 -38 -30 -61.5t-77 -23.5q-45 0 -75.5 20.5t-42.5 46.5l37 23q8 -17 26.5 -34t54.5 -17q26 0 42.5 12t16.5 34q0 17 -14 28t-42 11q-14 0 -26 -4l-16 31l75 66q-25 12 -37.5 36t-12.5 56z" />
<glyph unicode="&#x237;" horiz-adv-x="221" d="M120 477h61l-117 -554q-14 -63 -50 -92t-87 -29q-23 0 -40 4.5t-26 11.5l11 49q8 -5 21.5 -8t28.5 -3q35 0 54.5 18.5t28.5 60.5z" />
<glyph unicode="&#x259;" horiz-adv-x="532" d="M90 200q-1 -5 -1.5 -10.5t-0.5 -11.5q0 -27 8 -52t24.5 -44t42 -30t60.5 -11q34 0 63.5 13t53 34.5t40 50.5t24.5 61h-314zM414 251q1 8 1.5 15t0.5 15q0 35 -11.5 63.5t-31.5 49t-47 31.5t-59 11q-58 0 -99 -30t-63 -69l-46 31q29 52 83 87t126 35q44 0 82 -14t66 -41 t44 -66.5t16 -90.5q0 -67 -22 -120.5t-58 -91.5t-81.5 -58.5t-93.5 -20.5t-84.5 15t-61 41t-36.5 61.5t-12 76.5q0 20 2.5 38t6.5 32h378z" />
<glyph unicode="&#x2c6;" horiz-adv-x="332" d="M65 538l138 138h76l78 -138h-51l-71 99l-112 -99h-58z" />
<glyph unicode="&#x2c7;" horiz-adv-x="332" d="M116 676l71 -99l112 99h58l-137 -138h-78l-77 138h51z" />
<glyph unicode="&#x2c9;" horiz-adv-x="305" d="M65 581l11 53h254l-11 -53h-254z" />
<glyph unicode="&#x2d8;" horiz-adv-x="323" d="M180 538q-29 0 -50.5 9t-36 24t-21.5 34.5t-7 41.5q0 7 1 15.5t3 13.5h45q-2 -10 -2 -17q0 -27 17 -48.5t58 -21.5q24 0 42.5 8t32.5 20.5t23 28t14 30.5h49q-6 -26 -19.5 -50.5t-35 -44t-50 -31.5t-63.5 -12z" />
<glyph unicode="&#x2d9;" horiz-adv-x="134" d="M65 601q0 21 15 37.5t38 16.5q19 0 30 -13t11 -30q0 -22 -15 -37.5t-36 -15.5q-19 0 -31 12.5t-12 29.5z" />
<glyph unicode="&#x2da;" horiz-adv-x="251" d="M181 739q42 0 68.5 -27t26.5 -67q0 -23 -9.5 -44t-25 -37t-36.5 -25t-44 -9q-42 0 -69 27t-27 66q0 25 10 46.5t26 37t37 24t43 8.5zM109 628q0 -23 15 -39t40 -16q26 0 46.5 20t20.5 49q0 23 -14.5 38.5t-40.5 15.5q-28 0 -47.5 -20t-19.5 -48z" />
<glyph unicode="&#x2db;" horiz-adv-x="214" d="M23 -210q-38 0 -61.5 20.5t-23.5 55.5q0 28 12 51.5t30 42.5t39.5 32.5t39.5 20.5l39 -13q-17 -8 -35.5 -20t-34.5 -27.5t-26.5 -34t-10.5 -39.5q0 -22 15 -32.5t37 -10.5q17 0 36 4l-10 -42q-10 -4 -20.5 -6t-25.5 -2z" />
<glyph unicode="&#x2dc;" horiz-adv-x="365" d="M65 553q8 57 37.5 82.5t66.5 25.5q21 0 36.5 -7t27.5 -18l16 -15q18 -18 41 -18q41 0 52 56h48q-11 -57 -39.5 -82.5t-64.5 -25.5q-35 0 -61 24l-17 15q-11 10 -20.5 14.5t-23.5 4.5q-40 0 -51 -56h-48z" />
<glyph unicode="&#x2dd;" horiz-adv-x="318" d="M111 537h-46l89 140h69zM225 537h-46l95 140h69z" />
<glyph unicode="&#x394;" horiz-adv-x="636" d="M76 58h436l-219 576zM260 709h66l276 -709h-616z" />
<glyph unicode="&#x3a9;" horiz-adv-x="850" d="M429 665q-55 0 -107 -20t-92 -57.5t-64.5 -91t-24.5 -120.5q0 -60 20.5 -110.5t55 -88t78 -61.5t90.5 -33v-83h-299v55h222q-45 14 -86.5 42.5t-74 69.5t-51.5 93.5t-19 114.5q0 79 29 143t77.5 109.5t112 70t133.5 24.5t134 -24.5t112.5 -70t77.5 -109.5t29 -143 q0 -62 -19 -114.5t-51 -93.5t-74 -69.5t-87 -42.5h222v-55h-298v83q46 9 90 33t78 61.5t54.5 88t20.5 110.5q0 67 -24.5 120.5t-64.5 91t-92.5 57.5t-107.5 20z" />
<glyph unicode="&#x3bc;" d="M78 477h61v-291q0 -28 7 -54t22.5 -46.5t40 -32.5t59.5 -12q32 0 57 11t42.5 30.5t26.5 46t9 56.5v292h60v-386q0 -29 2 -53.5t4 -37.5h-58q-2 8 -3 28t-1 46q-17 -35 -55.5 -61t-94.5 -26q-40 0 -70.5 14t-47.5 39v-230h-61v667z" />
<glyph unicode="&#x3c0;" horiz-adv-x="693" d="M495 107q0 -30 17 -45.5t44 -15.5q9 0 19.5 1.5t19.5 4.5v-48q-11 -4 -25 -7t-32 -3q-53 0 -78.5 31.5t-25.5 75.5v323h-203v-424h-60v424h-95v53h514v-53h-95v-317z" />
<glyph unicode="&#x1e80;" horiz-adv-x="966" d="M440 878h78l83 -119h-57zM598 709l70 -617l290 617h66l-337 -709h-68l-71 622l-311 -622h-69l-56 709h63l45 -614l308 614h70z" />
<glyph unicode="&#x1e81;" horiz-adv-x="766" d="M454 477l49 -400l208 400h66l-255 -477h-64l-51 411l-226 -411h-62l-48 477h60l34 -397l218 397h71zM321 677h72l59 -140h-47z" />
<glyph unicode="&#x1e82;" horiz-adv-x="966" d="M599 759h-64l128 119h87zM598 709l70 -617l290 617h66l-337 -709h-68l-71 622l-311 -622h-69l-56 709h63l45 -614l308 614h70z" />
<glyph unicode="&#x1e83;" horiz-adv-x="766" d="M457 537h-55l124 140h86zM454 477l49 -400l208 400h66l-255 -477h-64l-51 411l-226 -411h-62l-48 477h60l34 -397l218 397h71z" />
<glyph unicode="&#x1e84;" horiz-adv-x="966" d="M379 814q0 21 14 35t35 14q17 0 27 -12t10 -27q0 -21 -14 -34.5t-34 -13.5q-17 0 -27.5 11t-10.5 27zM689 814q0 21 14 35t34 14q17 0 27 -12t10 -27q0 -21 -13.5 -34.5t-33.5 -13.5q-17 0 -27.5 11t-10.5 27zM598 709l70 -617l290 617h66l-337 -709h-68l-71 622 l-311 -622h-69l-56 709h63l45 -614l308 614h70z" />
<glyph unicode="&#x1e85;" horiz-adv-x="766" d="M289 605q0 20 14 35t34 15q17 0 27 -12.5t10 -27.5q0 -20 -14 -33.5t-34 -13.5q-17 0 -27 11t-10 26zM502 605q0 20 14 35t34 15q17 0 27.5 -12.5t10.5 -27.5q0 -20 -14.5 -33.5t-33.5 -13.5q-17 0 -27.5 11t-10.5 26zM454 477l49 -400l208 400h66l-255 -477h-64l-51 411 l-226 -411h-62l-48 477h60l34 -397l218 397h71z" />
<glyph unicode="&#x1e8a;" horiz-adv-x="590" d="M37 0h-79l315 356l-162 353h70l135 -303l269 303h79l-320 -357l161 -352h-70l-136 302zM338 813q0 22 15 38t38 16q19 0 30 -13t11 -30q0 -22 -15 -37.5t-36 -15.5q-20 0 -31.5 12.5t-11.5 29.5z" />
<glyph unicode="&#x1e8b;" horiz-adv-x="476" d="M37 0h-79l236 246l-125 231h67l100 -188l175 188h78l-225 -233l132 -244h-68l-105 199zM245 601q0 21 15 37.5t38 16.5q19 0 30 -13t11 -30q0 -22 -15 -37.5t-36 -15.5q-19 0 -31 12.5t-12 29.5z" />
<glyph unicode="&#x1ef2;" horiz-adv-x="590" d="M114 709h67l132 -341l257 341h75l-312 -404l-64 -305h-65l66 311zM257 878h78l83 -119h-57z" />
<glyph unicode="&#x1ef3;" horiz-adv-x="472" d="M-22 -190l178 265l-118 402h65l96 -343l220 343h71l-442 -667h-70zM177 677h72l59 -140h-47z" />
<glyph unicode="&#x2000;" horiz-adv-x="516" />
<glyph unicode="&#x2001;" horiz-adv-x="1033" />
<glyph unicode="&#x2002;" horiz-adv-x="516" />
<glyph unicode="&#x2003;" horiz-adv-x="1033" />
<glyph unicode="&#x2004;" horiz-adv-x="344" />
<glyph unicode="&#x2005;" horiz-adv-x="258" />
<glyph unicode="&#x2006;" horiz-adv-x="172" />
<glyph unicode="&#x2007;" horiz-adv-x="597" />
<glyph unicode="&#x2008;" horiz-adv-x="227" />
<glyph unicode="&#x2009;" horiz-adv-x="206" />
<glyph unicode="&#x200a;" horiz-adv-x="57" />
<glyph unicode="&#x200b;" horiz-adv-x="0" />
<glyph unicode="&#x2010;" horiz-adv-x="404" d="M64 260l11 54h263l-11 -54h-263z" />
<glyph unicode="&#x2011;" horiz-adv-x="404" d="M64 260l11 54h263l-11 -54h-263z" />
<glyph unicode="&#x2012;" horiz-adv-x="404" d="M64 260l11 54h263l-11 -54h-263z" />
<glyph unicode="&#x2013;" horiz-adv-x="641" d="M64 260l11 54h500l-11 -54h-500z" />
<glyph unicode="&#x2014;" horiz-adv-x="1060" d="M64 260l11 54h919l-11 -54h-919z" />
<glyph unicode="&#x2018;" horiz-adv-x="220" d="M210 538q0 -23 -16 -38.5t-39 -15.5q-22 0 -37 14.5t-15 43.5q0 33 13.5 63t36 53.5t50 38.5t56.5 18l-8 -38q-18 -4 -35 -14t-30.5 -23.5t-23 -30t-13.5 -32.5q4 3 18 3q18 0 30.5 -11t12.5 -31z" />
<glyph unicode="&#x2019;" horiz-adv-x="223" d="M147 661q0 23 16 38.5t39 15.5q22 0 37 -14.5t15 -43.5q0 -33 -13.5 -63t-36 -53.5t-50.5 -38.5t-56 -18l8 38q18 4 35 14t30.5 23.5t23 29.5t13.5 33q-5 -3 -18 -3q-18 0 -30.5 11t-12.5 31z" />
<glyph unicode="&#x201a;" horiz-adv-x="236" d="M17 39q0 23 16 38.5t39 15.5q22 0 37 -14.5t15 -43.5q0 -33 -13.5 -63t-36 -53.5t-50.5 -38.5t-56 -18l8 38q18 4 35 14t30.5 23.5t23 29.5t13.5 33q-5 -3 -18 -3q-18 0 -30.5 11t-12.5 31z" />
<glyph unicode="&#x201c;" horiz-adv-x="366" d="M208 541q0 -23 -15.5 -38t-38.5 -15q-21 0 -36 14.5t-15 42.5q0 33 13.5 62.5t35 52t49 37.5t55.5 18l-8 -37q-18 -4 -34 -14t-29.5 -23t-23 -29t-13.5 -32q4 3 18 3q17 0 29.5 -11t12.5 -31zM356 541q0 -23 -15.5 -38t-38.5 -15q-21 0 -36 14.5t-15 42.5q0 33 13.5 62.5 t35 52t49 37.5t55.5 18l-8 -37q-18 -4 -34 -14t-29.5 -23t-23 -29t-13.5 -32q4 3 18 3q17 0 29.5 -11t12.5 -31z" />
<glyph unicode="&#x201d;" horiz-adv-x="370" d="M296 662q0 23 15.5 38t38.5 15q21 0 36 -14.5t15 -42.5q0 -33 -13.5 -62.5t-35 -52t-49 -37.5t-55.5 -18l8 37q18 4 34 14t29.5 23t23 29t13.5 32q-5 -3 -18 -3q-17 0 -29.5 11t-12.5 31zM148 662q0 23 15.5 38t38.5 15q21 0 36 -14.5t15 -42.5q0 -33 -13.5 -62.5 t-35 -52t-49 -37.5t-55.5 -18l8 37q18 4 34 14t29.5 23t23 29t13.5 32q-5 -3 -18 -3q-17 0 -29.5 11t-12.5 31z" />
<glyph unicode="&#x201e;" horiz-adv-x="384" d="M167 38q0 23 15.5 38t38.5 15q21 0 36 -14.5t15 -42.5q0 -33 -13.5 -62.5t-35 -52t-49 -37.5t-55.5 -18l8 37q18 4 34 14t29.5 23t23 29t13.5 32q-5 -3 -18 -3q-17 0 -29.5 11t-12.5 31zM19 38q0 23 15.5 38t38.5 15q21 0 36 -14.5t15 -42.5q0 -33 -13.5 -62.5t-35 -52 t-49 -37.5t-55.5 -18l8 37q18 4 34 14t29.5 23t23 29t13.5 32q-5 -3 -18 -3q-17 0 -29.5 11t-12.5 31z" />
<glyph unicode="&#x2020;" horiz-adv-x="409" d="M150 162l72 334h-136l11 52h136l35 161h53l-34 -161h135l-11 -52h-136l-71 -334h-54z" />
<glyph unicode="&#x2021;" horiz-adv-x="1831" d="M1200 -6q17 0 30.5 13t13.5 32q0 24 -21 37q-79 49 -182 80t-239 31q-123 0 -263 -32q-15 -4 -24.5 -15.5t-9.5 -26.5q0 -17 11.5 -30.5t31.5 -13.5q7 0 20 3t21 5q66 14 121.5 18.5t93.5 4.5q107 0 199.5 -25t173.5 -74q12 -7 23 -7zM1277 181q22 0 38.5 16.5t16.5 39.5 q0 14 -6.5 26.5t-19.5 20.5q-107 66 -240 99.5t-270 33.5q-73 0 -144 -10t-138 -30q-18 -5 -28.5 -20t-10.5 -33q0 -22 14 -38t38 -16q9 0 14 1t10.5 2.5t13.5 4t22 5.5q58 14 112.5 19t94.5 5q123 0 241.5 -30t212.5 -88q14 -8 29 -8zM1332 408q15 -9 33 -9q28 0 47.5 19 t19.5 47q0 17 -8.5 32t-24.5 24q-125 72 -277 105.5t-316 33.5q-92 0 -176.5 -11.5t-154.5 -32.5q-22 -7 -34.5 -24.5t-12.5 -38.5q0 -26 18 -46.5t47 -20.5q10 0 19 3q63 19 139 29t161 10q68 0 138 -7t137 -21.5t129.5 -37.5t115.5 -54zM210 327q0 97 25.5 187.5t71.5 169 t110.5 143t143 110.5t168.5 71t187 25t187 -25t168.5 -71t143 -110.5t110.5 -143t71 -169t25 -187.5q0 -98 -25 -188t-71 -168t-110.5 -142.5t-143 -110.5t-168.5 -71t-187 -25t-187 25t-168.5 71t-143 110.5t-110.5 142.5t-71.5 168.5t-25.5 187.5z" />
<glyph unicode="&#x2022;" horiz-adv-x="569" d="M77 282q0 43 16.5 81t44.5 66t65.5 44.5t80.5 16.5t80.5 -16.5t65.5 -44.5t44.5 -66t16.5 -81q0 -42 -16.5 -80t-44.5 -66t-65.5 -44.5t-80.5 -16.5t-80.5 16.5t-65.5 44.5t-44.5 66t-16.5 80z" />
<glyph unicode="&#x2026;" horiz-adv-x="724" d="M61 -4q-20 0 -32.5 13t-12.5 31q0 23 16 40.5t40 17.5q21 0 32.5 -14t11.5 -32q0 -24 -16 -40t-39 -16zM311 -4q-21 0 -33 13t-12 31q0 23 16 40.5t40 17.5q21 0 32.5 -14t11.5 -32q0 -24 -16 -40t-39 -16zM561 -4q-21 0 -33 13t-12 31q0 23 16 40.5t40 17.5 q21 0 32.5 -14t11.5 -32q0 -24 -16 -40t-39 -16z" />
<glyph unicode="&#x202f;" horiz-adv-x="206" />
<glyph unicode="&#x2030;" horiz-adv-x="1097" d="M702 709h63l-598 -709h-63zM94 547q0 33 13 64t36 54.5t53.5 37.5t66.5 14q30 0 55.5 -10.5t44 -29.5t29 -44t10.5 -54q0 -34 -13.5 -64.5t-36.5 -54t-54 -37t-65 -13.5q-30 0 -55.5 10.5t-44 29t-29 43.5t-10.5 54zM238 460q22 0 42 9.5t35 25t24 37t9 45.5q0 38 -24 64 t-66 26q-23 0 -43 -9.5t-35 -25.5t-23.5 -37t-8.5 -45q0 -38 24.5 -64t65.5 -26zM636 299q42 0 73.5 -19.5t48.5 -51.5q23 32 58 51.5t78 19.5q30 0 55.5 -10.5t44 -29t29 -43.5t10.5 -54q0 -34 -13.5 -65t-36.5 -54t-54 -37t-65 -14q-42 0 -74 19.5t-49 51.5 q-23 -32 -58.5 -51.5t-77.5 -19.5q-30 0 -55.5 10.5t-43.5 29t-28.5 43.5t-10.5 54q0 33 13 64t36 54.5t53.5 37.5t66.5 14zM868 42q23 0 43 9.5t35 25t24 37t9 45.5q0 39 -24.5 64.5t-65.5 25.5q-23 0 -43 -9.5t-35 -25.5t-23.5 -37t-8.5 -45q0 -38 24 -64t65 -26zM610 42 q23 0 43 9.5t35 25t24 37t9 45.5q0 39 -24.5 64.5t-65.5 25.5q-23 0 -43 -9.5t-35 -25.5t-23.5 -37t-8.5 -45q0 -38 24 -64t65 -26z" />
<glyph unicode="&#x2039;" horiz-adv-x="297" d="M141 95l-95 192l171 190h67l-176 -195l92 -187h-59z" />
<glyph unicode="&#x203a;" horiz-adv-x="298" d="M155 477l95 -192l-171 -190h-67l176 195l-92 187h59z" />
<glyph unicode="&#x2042;" horiz-adv-x="805" d="M477 577l134 43l6 -43l-135 -43l59 -110l-38 -25l-59 112l-104 -114l-35 29l106 111l-116 42l21 41l115 -43l26 132h48zM198 180l134 43l6 -43l-135 -43l59 -110l-38 -25l-59 112l-104 -114l-35 29l106 111l-116 42l21 41l115 -43l26 132h48zM608 180l134 43l6 -43 l-135 -43l59 -110l-38 -25l-59 112l-104 -114l-35 29l106 111l-116 42l21 41l115 -43l26 132h48z" />
<glyph unicode="&#x2044;" horiz-adv-x="132" d="M-248 0l599 709h61l-599 -709h-61z" />
<glyph unicode="&#x2051;" horiz-adv-x="443" d="M307 577l134 43l6 -43l-135 -43l59 -110l-38 -25l-59 112l-104 -114l-35 29l106 111l-116 42l21 41l115 -43l26 132h48zM218 180l134 43l6 -43l-135 -43l59 -110l-38 -25l-59 112l-104 -114l-35 29l106 111l-116 42l21 41l115 -43l26 132h48z" />
<glyph unicode="&#x205f;" horiz-adv-x="258" />
<glyph unicode="&#x2070;" horiz-adv-x="380" d="M88 478q0 33 9 74.5t30 77.5t54.5 61t83.5 25q35 0 59.5 -11.5t40 -31t22.5 -44t7 -50.5q0 -36 -9.5 -78t-30.5 -77.5t-54.5 -59.5t-81.5 -24q-63 0 -96.5 38t-33.5 100zM138 478q0 -38 19 -65.5t65 -27.5q32 0 55 19t38 48t22 62.5t7 62.5q0 37 -19.5 65t-64.5 28 q-34 0 -57 -20.5t-37.5 -50.5t-21 -63t-6.5 -58z" />
<glyph unicode="&#x2074;" horiz-adv-x="360" d="M70 485l222 224h63l-51 -236h68l-9 -44h-67l-18 -83h-51l18 83h-186zM292 649l-175 -176h136z" />
<glyph unicode="&#x2075;" horiz-adv-x="341" d="M197 339q-59 0 -94.5 32.5t-35.5 78.5q0 4 1 7l51 9q-1 -3 -1 -7q0 -30 21 -52.5t60 -22.5q36 0 62 23.5t26 61.5q0 32 -21 51.5t-56 19.5q-38 0 -69 -24l-43 23l80 170h199l-9 -45h-163l-47 -101q14 10 33.5 14.5t35.5 4.5q53 0 83 -29.5t30 -77.5q0 -28 -10.5 -52.5 t-29.5 -43t-45.5 -29.5t-57.5 -11z" />
<glyph unicode="&#x2076;" horiz-adv-x="362" d="M378 650q-14 10 -33.5 16t-48.5 6q-27 0 -51.5 -9.5t-44 -26.5t-34 -40.5t-21.5 -50.5q14 20 43.5 33t60.5 13q53 0 83.5 -31t30.5 -79q0 -32 -12.5 -57.5t-33 -44.5t-47.5 -29t-55 -10q-55 0 -92 36.5t-37 100.5q0 55 18 99.5t47.5 75.5t67.5 47.5t79 16.5q65 0 100 -26 zM218 384q17 0 33.5 6.5t29.5 18.5t21 29t8 38q0 32 -20.5 52t-55.5 20q-17 0 -33.5 -6.5t-29.5 -18.5t-21 -29t-8 -38q0 -32 20.5 -52t55.5 -20z" />
<glyph unicode="&#x2077;" horiz-adv-x="325" d="M384 664q-30 -19 -63 -46.5t-65 -65.5t-60 -89t-47 -117h-55q18 66 47 118.5t61 92t63 66t52 41.5h-213l9 45h281z" />
<glyph unicode="&#x2078;" horiz-adv-x="350" d="M171 608q0 -26 21.5 -40.5t49.5 -14.5q31 0 53.5 17t22.5 48q0 23 -17.5 39t-53.5 17q-33 0 -54.5 -18.5t-21.5 -47.5zM126 442q1 -29 26 -44t55 -15q38 0 61.5 19t23.5 50q0 25 -20 42.5t-61 17.5q-38 0 -61.5 -19.5t-23.5 -50.5zM205 340q-25 0 -48.5 6t-42 18 t-29.5 30t-11 42q0 38 26 65.5t71 35.5q-23 9 -37 29t-14 43t10 42.5t27.5 34t41.5 22.5t52 8q56 0 87.5 -27t31.5 -66q0 -35 -24 -60.5t-60 -34.5q25 -10 41 -31t16 -46q0 -24 -10.5 -44.5t-28.5 -35t-43.5 -23t-55.5 -8.5z" />
<glyph unicode="&#x2079;" horiz-adv-x="360" d="M92 414q17 -14 39 -21.5t47 -7.5q48 0 86.5 32.5t51.5 95.5q-14 -22 -41.5 -34.5t-55.5 -12.5q-24 0 -46 8t-38 22t-25.5 34.5t-9.5 46.5q0 31 12 56.5t32 43.5t46 28t55 10q55 0 92 -35t37 -101q0 -50 -13.5 -94t-39 -76.5t-62.5 -51t-83 -18.5q-29 0 -58 9.5t-47 24.5z M229 510q18 0 34 6.5t28.5 18.5t19.5 28.5t7 35.5q0 31 -22 51.5t-54 20.5q-17 0 -33 -6t-28.5 -17.5t-20 -28t-7.5 -37.5q0 -35 22 -53.5t54 -18.5z" />
<glyph unicode="&#x2080;" horiz-adv-x="380" d="M-3 50q0 33 9 74.5t30 77.5t54.5 61t83.5 25q35 0 59.5 -11.5t40 -31t22.5 -44t7 -50.5q0 -36 -9.5 -78t-30.5 -77.5t-54.5 -59.5t-81.5 -24q-63 0 -96.5 38t-33.5 100zM47 50q0 -38 19 -65.5t65 -27.5q32 0 55 19t38 48t22 62.5t7 62.5q0 37 -19.5 65t-64.5 28 q-34 0 -57 -20.5t-37.5 -50.5t-21 -63t-6.5 -58z" />
<glyph unicode="&#x2081;" horiz-adv-x="215" d="M10 215q35 2 61.5 20t40.5 47h49l-78 -363h-52l63 288q-16 -13 -40 -21t-52 -10z" />
<glyph unicode="&#x2082;" horiz-adv-x="351" d="M151 99q33 15 52.5 34.5t19.5 48.5q0 25 -17.5 43.5t-52.5 18.5q-38 0 -61.5 -24.5t-23.5 -65.5q0 -6 1 -10l-49 3q-1 4 -1 10q0 28 9.5 51.5t27 41t42.5 27.5t57 10q29 0 51.5 -8.5t37.5 -22.5t23 -32.5t8 -38.5q0 -43 -27.5 -73.5t-69.5 -48.5l-78 -35q-51 -22 -64 -65 h210l-10 -44h-268q8 48 33.5 86.5t77.5 61.5z" />
<glyph unicode="&#x2083;" horiz-adv-x="347" d="M84 142l139 95h-186l9 45h248l-11 -57l-132 -86q20 0 38.5 -7.5t32 -21t21.5 -31.5t8 -39q0 -26 -10 -49t-28.5 -40.5t-44.5 -28t-59 -10.5q-29 0 -53 8.5t-41.5 23.5t-27 35t-9.5 43v8t1 8l49 7q-1 -5 -1 -14q0 -33 24 -54t59 -21q38 0 63.5 23.5t25.5 58.5q0 32 -23 48 t-53 16q-5 0 -11 -0.5t-11 -1.5z" />
<glyph unicode="&#x2084;" horiz-adv-x="361" d="M-20 58l222 224h63l-51 -236h68l-9 -44h-67l-18 -83h-51l18 83h-186zM202 222l-175 -176h136z" />
<glyph unicode="&#x2085;" horiz-adv-x="340" d="M106 -88q-59 0 -94.5 32.5t-35.5 78.5q0 4 1 7l51 9q-1 -3 -1 -7q0 -30 21 -52.5t60 -22.5q36 0 62 23.5t26 61.5q0 32 -21 51.5t-56 19.5q-38 0 -69 -24l-43 23l80 170h199l-9 -45h-163l-47 -101q14 10 33.5 14.5t35.5 4.5q53 0 83 -29.5t30 -77.5q0 -28 -10.5 -52.5 t-29.5 -43t-45.5 -29.5t-57.5 -11z" />
<glyph unicode="&#x2086;" horiz-adv-x="363" d="M288 222q-14 10 -33.5 16t-48.5 6q-27 0 -51.5 -9.5t-44 -26.5t-34 -40.5t-21.5 -50.5q14 20 43.5 33t60.5 13q53 0 83.5 -31t30.5 -79q0 -32 -12.5 -57.5t-33 -44.5t-47.5 -29t-55 -10q-55 0 -92 36.5t-37 100.5q0 55 18 99.5t47.5 75.5t67.5 47.5t79 16.5q65 0 100 -26 zM128 -44q17 0 33.5 6.5t29.5 18.5t21 29t8 38q0 32 -20.5 52t-55.5 20q-17 0 -33.5 -6.5t-29.5 -18.5t-21 -29t-8 -38q0 -32 20.5 -52t55.5 -20z" />
<glyph unicode="&#x2087;" horiz-adv-x="325" d="M294 237q-30 -19 -63 -46.5t-65 -65.5t-60 -89t-47 -117h-55q18 66 47 118.5t61 92t63 66t52 41.5h-213l9 45h281z" />
<glyph unicode="&#x2088;" horiz-adv-x="352" d="M81 180q0 -26 21.5 -40.5t49.5 -14.5q31 0 53.5 17t22.5 48q0 23 -17.5 39t-53.5 17q-33 0 -54.5 -18.5t-21.5 -47.5zM36 14q1 -29 26 -44t55 -15q38 0 61.5 19t23.5 50q0 25 -20 42.5t-61 17.5q-38 0 -61.5 -19.5t-23.5 -50.5zM115 -88q-25 0 -48.5 6t-42 18t-29.5 30 t-11 42q0 38 26 65.5t71 35.5q-23 9 -37 29t-14 43t10 42.5t27.5 34t41.5 22.5t52 8q56 0 87.5 -27t31.5 -66q0 -35 -24 -60.5t-60 -34.5q25 -10 41 -31t16 -46q0 -24 -10.5 -44.5t-28.5 -35t-43.5 -23t-55.5 -8.5z" />
<glyph unicode="&#x2089;" horiz-adv-x="361" d="M2 -13q17 -14 39 -21.5t47 -7.5q48 0 86.5 32.5t51.5 95.5q-14 -22 -41.5 -34.5t-55.5 -12.5q-24 0 -46 8t-38 22t-25.5 34.5t-9.5 46.5q0 31 12 56.5t32 43.5t46 28t55 10q55 0 92 -35t37 -101q0 -50 -13.5 -94t-39 -76.5t-62.5 -51t-83 -18.5q-29 0 -58 9.5t-47 24.5z M139 83q18 0 34 6.5t28.5 18.5t19.5 28.5t7 35.5q0 31 -22 51.5t-54 20.5q-17 0 -33 -6t-28.5 -17.5t-20 -28t-7.5 -37.5q0 -35 22 -53.5t54 -18.5z" />
<glyph unicode="&#x20ac;" horiz-adv-x="738" d="M209 259q7 -49 28.5 -88.5t54.5 -67.5t77 -43.5t96 -15.5q47 0 88.5 13.5t76.5 36.5l20 -50q-40 -26 -89 -41t-103 -15q-65 0 -119 20.5t-95 57t-66.5 86t-33.5 107.5h-106l12 50h91v7q0 39 9 83h-83l12 49h85q21 58 58 108t86.5 86.5t109 57.5t125.5 21q65 0 117 -19 t87 -51l-33 -45q-30 26 -77.5 43t-100.5 17q-48 0 -95 -15.5t-87.5 -44t-73 -69t-51.5 -89.5h358l-35 -49h-340q-9 -39 -9 -80v-10h292l-32 -50h-254z" />
<glyph unicode="&#x2113;" horiz-adv-x="378" d="M201 -6q-57 0 -89 28t-32 80q0 8 1 18t3 21l30 143q-20 -6 -38.5 -11t-36.5 -9l11 54q37 8 76 24l50 240q30 139 129 139q50 0 76.5 -28t26.5 -73q0 -53 -19 -100t-51 -86.5t-74 -71t-88 -53.5l-35 -165q-1 -6 -2 -15t-1 -17q0 -36 21 -51t53 -15q18 0 34.5 4t33.5 11 l-11 -53q-31 -14 -68 -14zM190 374q31 18 60 43t51.5 55.5t36 66.5t13.5 76q0 23 -11.5 38t-36.5 15q-26 0 -43.5 -21.5t-27.5 -68.5z" />
<glyph unicode="&#x2122;" horiz-adv-x="844" d="M284 665l-68 -319h-49l68 319h-120l9 44h289l-9 -44h-120zM728 346l58 273l-182 -273h-41l-66 273l-58 -273h-49l77 363h58l71 -292l190 292h67l-77 -363h-48z" />
<glyph unicode="&#x2126;" horiz-adv-x="876" d="M439 665q-55 0 -107 -20t-92 -57.5t-64.5 -91t-24.5 -120.5q0 -60 20.5 -110.5t55 -88t78 -61.5t90.5 -33v-83h-299v55h222q-45 14 -86.5 42.5t-74 69.5t-51.5 93.5t-19 114.5q0 79 29 143t77.5 109.5t112 70t133.5 24.5t134 -24.5t112.5 -70t77.5 -109.5t29 -143 q0 -62 -19 -114.5t-51 -93.5t-74 -69.5t-87 -42.5h222v-55h-298v83q46 9 90 33t78 61.5t54.5 88t20.5 110.5q0 67 -24.5 120.5t-64.5 91t-92.5 57.5t-107.5 20z" />
<glyph unicode="&#x2160;" horiz-adv-x="455" d="M499 653h-163l-127 -597h163l-12 -56h-386l10 56h164l126 597h-163l12 56h387z" />
<glyph unicode="&#x2161;" horiz-adv-x="725" d="M631 0h-657l10 56h162l126 597h-161l12 56h658l-12 -56h-162l-127 -597h162zM546 653h-212l-127 -597h212z" />
<glyph unicode="&#x2162;" horiz-adv-x="993" d="M899 0h-925l10 56h162l126 597h-161l12 56h926l-12 -56h-161l-126 -597h161zM814 653h-209l-126 -597h210zM208 56h209l126 597h-210z" />
<glyph unicode="&#x2163;" horiz-adv-x="969" d="M875 0h-901l10 56h158l127 598h-157l11 56h902l-11 -56h-109l-311 -598h292zM203 56h279l-51 598h-100zM835 654h-342l47 -577z" />
<glyph unicode="&#x2164;" horiz-adv-x="749" d="M124 709h680l-11 -56h-97l-311 -597h281l-12 -56h-680l11 56h288l-50 597h-110zM626 653h-342l47 -576z" />
<glyph unicode="&#x2165;" horiz-adv-x="968" d="M1012 653h-147l-126 -597h146l-12 -56h-899l11 56h289l-51 597h-110l11 56h899zM677 56l127 597h-108l-311 -597h292zM626 653h-342l47 -576z" />
<glyph unicode="&#x2166;" horiz-adv-x="1254" d="M1298 653h-163l-126 -597h163l-12 -56h-1186l11 56h289l-51 597h-110l11 56h1186zM739 56h208l127 597h-209zM385 56h292l127 597h-108zM626 653h-342l47 -576z" />
<glyph unicode="&#x2167;" horiz-adv-x="1508" d="M1552 653h-163l-127 -597h163l-11 -56h-1440l11 56h289l-51 597h-110l11 56h1440zM939 56l127 597h-201l-126 -597h200zM1201 56l127 597h-201l-127 -597h201zM386 56h292l126 597h-108zM627 653h-343l47 -576z" />
<glyph unicode="&#x2168;" horiz-adv-x="940" d="M-26 0l10 56h165l126 597h-164l12 56h873l-12 -56h-97l-261 -305l131 -292h100l-12 -56h-871zM553 353l-133 300h-84l-126 -597h89zM486 653l111 -253l216 253h-327zM689 56l-107 246l-208 -246h315z" />
<glyph unicode="&#x2169;" horiz-adv-x="720" d="M335 353l-133 300h-90l11 56h653l-12 -56h-95l-261 -305l130 -292h99l-12 -56h-652l11 56h97zM268 653l111 -253l215 253h-326zM471 56l-107 246l-208 -246h315z" />
<glyph unicode="&#x216c;" horiz-adv-x="610" d="M513 0h-538l10 56h145l126 597h-144l12 56h359l-12 -56h-154l-126 -597h273l47 222h61z" />
<glyph unicode="&#x216d;" horiz-adv-x="736" d="M644 472q-3 40 -16.5 75t-38 61.5t-61.5 42t-86 15.5q-63 0 -121 -26t-102.5 -73.5t-70.5 -113.5t-26 -146q0 -67 19 -116.5t51.5 -82.5t76.5 -49.5t94 -16.5q49 0 89 14.5t70 41t50.5 62t32.5 77.5h61l-50 -237h-60l20 93q-32 -43 -86 -74t-135 -31q-59 0 -112 19.5 t-93 59t-63.5 99t-23.5 139.5q0 96 33 173t87 131t122 83t139 29q43 0 78.5 -10.5t63 -28t46.5 -40t30 -46.5l24 113h61l-50 -237h-53z" />
<glyph unicode="&#x216e;" horiz-adv-x="749" d="M148 56l127 597h-163l12 56h315q62 0 113.5 -18t89 -53t58 -88t20.5 -123q0 -89 -31.5 -166.5t-87 -135.5t-133 -91.5t-168.5 -33.5h-326l10 56h164zM304 56q66 0 130 26.5t113.5 75t80 116t30.5 149.5q0 61 -17.5 104.5t-47.5 71.5t-71.5 41t-89.5 13h-96l-129 -597h97z " />
<glyph unicode="&#x216f;" horiz-adv-x="1028" d="M466 90l385 619h230l-12 -56h-137l-126 -597h141l-12 -56h-321l11 56h119l121 567l-390 -622h-49l-126 621l-120 -566h125l-12 -56h-318l10 56h136l126 597h-135l12 56h217z" />
<glyph unicode="&#x2190;" horiz-adv-x="1019" d="M41 289l207 175v-148h699v-54h-699v-146z" />
<glyph unicode="&#x2191;" horiz-adv-x="442" d="M441 578h-147v-726h-54v726h-147l174 222z" />
<glyph unicode="&#x2192;" horiz-adv-x="1016" d="M769 116v146h-699v54h699v148l207 -175z" />
<glyph unicode="&#x2193;" horiz-adv-x="445" d="M189 -162l-178 225h151v723h54v-723h151z" />
<glyph unicode="&#x2196;" horiz-adv-x="925" d="M377 709l-106 -106l573 -573l-39 -38l-572 572l-107 -107v252h251z" />
<glyph unicode="&#x2197;" horiz-adv-x="698" d="M694 709v-252l-108 107l-572 -572l-39 38l574 573l-106 106h251z" />
<glyph unicode="&#x2198;" horiz-adv-x="926" d="M578 0l106 106l-573 573l38 38l573 -572l107 107v-252h-251z" />
<glyph unicode="&#x2199;" horiz-adv-x="698" d="M34 0v252l107 -107l572 572l39 -38l-573 -573l106 -106h-251z" />
<glyph unicode="&#x21a9;" horiz-adv-x="818" d="M432 654h168q42 0 78.5 -15t64.5 -41t44 -62.5t16 -78.5q0 -44 -16.5 -80t-45 -62t-65.5 -40.5t-78 -14.5h-369v-137l-195 164l195 164v-137h367q30 0 58 10t49.5 28.5t34 45t12.5 59.5q0 31 -12 57.5t-33 45.5t-49 29.5t-60 10.5h-164v54z" />
<glyph unicode="&#x21b0;" horiz-adv-x="802" d="M90 567l184 155v-128h430v-595h-54v541h-376v-127z" />
<glyph unicode="&#x21b1;" horiz-adv-x="714" d="M108 0v595h450v127l184 -154l-184 -154v127h-396v-541h-54z" />
<glyph unicode="&#x21b2;" horiz-adv-x="714" d="M634 709v-595h-450v-127l-184 154l184 154v-127h396v541h54z" />
<glyph unicode="&#x21b3;" horiz-adv-x="821" d="M760 141l-183 -154v127h-450v595h54v-541h396v127z" />
<glyph unicode="&#x21b4;" horiz-adv-x="870" d="M119 709h565v-539h127l-154 -184l-154 184h127v485h-511v54z" />
<glyph unicode="&#x21b5;" horiz-adv-x="1044" d="M44 355h124q0 76 29 143t78.5 116.5t116.5 78.5t143 29q50 0 95.5 -12t85.5 -35l-24 -48q-35 20 -74.5 30.5t-82.5 10.5q-65 0 -122 -24.5t-99.5 -67t-67 -99.5t-24.5 -122h128l-153 -191zM902 355q0 -77 -29 -144t-79 -116.5t-116.5 -78.5t-142.5 -29q-50 0 -95.5 12.5 t-86.5 35.5l24 48q35 -20 74.5 -31t82.5 -11q65 0 122.5 24.5t100 67t67 100t24.5 122.5h-127l153 191l153 -191h-125z" />
<glyph unicode="&#x21c6;" horiz-adv-x="1091" d="M89 540l195 164v-137h722v-54h-722v-137zM838 6v137h-722v54h722v137l195 -164z" />
<glyph unicode="&#x2202;" horiz-adv-x="595" d="M224 667q-28 0 -65.5 -7t-74.5 -25l-20 49q40 21 85 29.5t84 8.5q66 0 122.5 -24.5t97.5 -72t64 -118t23 -162.5q0 -76 -16.5 -141.5t-49.5 -113.5t-83.5 -75.5t-118.5 -27.5q-47 0 -90 15.5t-75.5 45.5t-51.5 73.5t-19 98.5q0 52 19 94.5t51 72.5t75.5 46.5t93.5 16.5 q67 0 120 -24.5t82 -66.5q-2 64 -16.5 120t-44.5 98t-77.5 66t-114.5 24zM283 396q-43 0 -77.5 -14t-58.5 -38t-36.5 -56.5t-12.5 -70.5q0 -40 14 -72t38.5 -54.5t56.5 -35t68 -12.5q48 0 85.5 20.5t63 55t38.5 78.5t13 91q-30 54 -81 81t-111 27z" />
<glyph unicode="&#x2206;" horiz-adv-x="704" d="M91 58h436l-219 576zM275 709h66l276 -709h-616z" />
<glyph unicode="&#x220f;" horiz-adv-x="738" d="M575 0v653h-382v-653h-63v709h506v-709h-61z" />
<glyph unicode="&#x2211;" horiz-adv-x="699" d="M119 56l295 301l-295 296v56h486v-58h-402l294 -294l-300 -299h408v-58h-486v56z" />
<glyph unicode="&#x2212;" horiz-adv-x="582" d="M90 323v50h421v-50h-421z" />
<glyph unicode="&#x2215;" horiz-adv-x="377" d="M447 648l-449 -648h-61l449 648h61z" />
<glyph unicode="&#x2219;" horiz-adv-x="242" d="M69 281q0 23 15.5 39t38.5 16q21 0 34 -14t13 -34q0 -23 -15.5 -39t-38.5 -16q-20 0 -33.5 14t-13.5 34z" />
<glyph unicode="&#x221a;" horiz-adv-x="596" d="M566 796l-267 -796h-58l-182 518h69l142 -416l248 751h174v-57h-126z" />
<glyph unicode="&#x221e;" horiz-adv-x="805" d="M601 186q-54 0 -101.5 34.5t-86.5 88.5q-40 -54 -86.5 -88.5t-100.5 -34.5q-35 0 -64.5 13t-52 35t-35 52t-12.5 64t12.5 64t35 52t52 35t64.5 13q54 0 102 -35t86 -89q40 54 86.5 89t100.5 35q34 0 64 -13t52.5 -35t35 -52t12.5 -64t-12.5 -64t-35 -52t-52.5 -35 t-64 -13zM382 349q-34 48 -71 80.5t-84 32.5q-24 0 -44.5 -9t-35 -24.5t-23 -36t-8.5 -43.5t8.5 -43.5t23 -35.5t35 -24t44.5 -9q46 0 84 32.5t71 79.5zM445 351q34 -48 71 -81t84 -33q24 0 44.5 9t35.5 24t23.5 35.5t8.5 43.5t-8.5 43.5t-23.5 36t-35.5 24.5t-44.5 9 q-47 0 -84 -32t-71 -79z" />
<glyph unicode="&#x222b;" horiz-adv-x="293" d="M111 557q0 72 38.5 112t105.5 40h28v-55h-24q-40 0 -64 -25.5t-24 -75.5v-590q0 -72 -37.5 -112.5t-103.5 -40.5h-32v55h25q39 0 63.5 26.5t24.5 76.5v589z" />
<glyph unicode="&#x2248;" horiz-adv-x="637" d="M564 256q-23 -32 -54.5 -52t-78.5 -20q-23 0 -44.5 7t-46.5 20l-51 27q-36 19 -69 19t-54.5 -12.5t-41.5 -35.5l-35 30q24 32 54.5 53t77.5 21q22 0 45 -7.5t49 -21.5l46 -25q20 -10 39.5 -16t38.5 -6q30 0 51 12.5t40 35.5zM564 449q-23 -32 -54.5 -52t-78.5 -20 q-23 0 -44.5 7t-46.5 20l-51 27q-36 19 -69 19t-54.5 -12.5t-41.5 -35.5l-35 30q24 32 54.5 53t77.5 21q22 0 45 -7.5t49 -21.5l46 -25q20 -10 39.5 -16t38.5 -6q30 0 51 12.5t40 35.5z" />
<glyph unicode="&#x2260;" horiz-adv-x="605" d="M262 226l-81 -110h-62l81 110h-108v51h146l105 143h-251v50h288l80 107h61l-79 -107h97v-50h-134l-105 -143h239v-51h-277z" />
<glyph unicode="&#x2264;" horiz-adv-x="585" d="M89 434l405 147v-54l-336 -120l336 -118v-55l-405 147v53zM494 176v-51h-405v51h405z" />
<glyph unicode="&#x2265;" horiz-adv-x="613" d="M523 381l-405 -147v55l336 118l-336 120v54l405 -147v-53zM523 176v-51h-405v51h405z" />
<glyph unicode="&#x22c5;" horiz-adv-x="242" d="M69 281q0 23 15.5 39t38.5 16q21 0 34 -14t13 -34q0 -23 -15.5 -39t-38.5 -16q-20 0 -33.5 14t-13.5 34z" />
<glyph unicode="&#x24c5;" horiz-adv-x="835" d="M69 354q0 76 28.5 143t77.5 117t115 79t142 29t142 -29t115.5 -79t78 -117t28.5 -143t-28.5 -142.5t-78 -116.5t-115.5 -79t-142 -29t-142 29t-115 79t-77.5 116.5t-28.5 142.5zM120 354q0 -67 24.5 -125.5t66.5 -101.5t99 -68t122 -25t122 25t99 68t66 101.5t24 125.5 t-24 126t-66 102t-99 68t-122 25t-122 -25t-99 -68t-66.5 -102t-24.5 -126zM450 357q48 0 78 25.5t30 69.5q0 29 -19.5 45t-55.5 16h-68l-34 -156h69zM371 315l-34 -159h-48l85 400h124q50 0 79 -29.5t29 -73.5q0 -31 -12 -56.5t-32.5 -43.5t-48 -28t-58.5 -10h-84z" />
<glyph unicode="&#x25a0;" horiz-adv-x="930" d="M127 709h704v-709h-704v709z" />
<glyph unicode="&#x25a1;" horiz-adv-x="930" d="M127 0v709h704v-709h-704zM180 49h598v611h-598v-611z" />
<glyph unicode="&#x25af;" horiz-adv-x="646" d="M127 0v709h420v-709h-420zM180 51h315v607h-315v-607z" />
<glyph unicode="&#x25b2;" horiz-adv-x="903" d="M819 0h-840l422 726z" />
<glyph unicode="&#x25b3;" horiz-adv-x="903" d="M401 726l418 -726h-840zM68 49h662l-330 572z" />
<glyph unicode="&#x25ca;" horiz-adv-x="541" d="M453 354l-168 282l-168 -282l168 -281zM259 0l-208 354l208 355h51l209 -355l-208 -354h-52z" />
<glyph unicode="&#x25cb;" horiz-adv-x="850" d="M808 354q0 -77 -29 -144t-79 -116.5t-117.5 -78.5t-143.5 -29q-77 0 -144 29t-116.5 78.5t-78.5 116.5t-29 144q0 76 29 143.5t78.5 117.5t116.5 79t144 29q76 0 143.5 -29t117.5 -79t79 -117.5t29 -143.5zM754 354q0 66 -24.5 124t-67.5 100.5t-100 67.5t-123 25 q-65 0 -122.5 -25t-100.5 -67.5t-67.5 -100.5t-24.5 -124t24.5 -124t67.5 -100.5t100.5 -67.5t122.5 -25q66 0 123 25t100 67.5t67.5 100.5t24.5 124z" />
<glyph unicode="&#x25cf;" horiz-adv-x="850" d="M71 354q0 76 29 143.5t78.5 117.5t116.5 79t144 29q76 0 143.5 -29t117.5 -79t79 -117.5t29 -143.5q0 -77 -29 -144t-79 -116.5t-117.5 -78.5t-143.5 -29q-77 0 -144 29t-116.5 78.5t-78.5 116.5t-29 144z" />
<glyph unicode="&#x25fc;" horiz-adv-x="475" d="M0 475h475v-475h-475v475z" />
<glyph unicode="&#x262e;" horiz-adv-x="840" d="M798 354q0 -75 -28.5 -142t-78 -117t-116 -79t-142.5 -29q-75 0 -141 29t-115 79t-77.5 117t-28.5 142q0 76 28.5 143t77.5 117t115 79t141 29q76 0 142.5 -29t116 -79t78 -117t28.5 -143zM745 354q0 64 -22 120t-60 98.5t-90.5 69t-112.5 31.5v-272l229 -230 q26 39 41 85.5t15 97.5zM122 354q0 -51 14.5 -97t41.5 -84l228 228v272q-60 -5 -112 -31.5t-90.5 -69t-60 -98.5t-21.5 -120zM460 36q57 5 107.5 29t88.5 64l-196 196v-289zM210 130q38 -40 88 -64.5t108 -29.5v289z" />
<glyph unicode="&#x2713;" horiz-adv-x="897" d="M315 -16l-281 314l39 37l245 -270l596 643l38 -37z" />
<glyph unicode="&#x2715;" horiz-adv-x="871" d="M449 307l-304 -311l-38 38l304 311l-304 311l38 38l304 -311l303 311l39 -38l-305 -311l305 -311l-38 -38z" />
<glyph unicode="&#x2780;" horiz-adv-x="840" d="M433 722q75 0 141.5 -29t116 -79t78.5 -117t29 -143q0 -75 -29 -142t-78.5 -117t-116 -79t-141.5 -29t-141 29t-115 79t-77.5 117t-28.5 142q0 76 28.5 143t77.5 117t115 79t141 29zM433 675q-65 0 -122 -25t-99 -68t-66.5 -102t-24.5 -126t24.5 -125t66.5 -101.5 t99 -68.5t122 -25t122 25t99 68.5t66.5 101.5t24.5 125t-24.5 126t-66.5 102t-99 68t-122 25zM421 174v277q-3 -3 -13.5 -7.5t-24 -9t-27 -7.5t-22.5 -4v40q38 5 60.5 26.5t28.5 47.5h49v-363h-51z" />
<glyph unicode="&#x2781;" horiz-adv-x="840" d="M433 722q75 0 141.5 -29t116 -79t78.5 -117t29 -143q0 -75 -29 -142t-78.5 -117t-116 -79t-141.5 -29t-141 29t-115 79t-77.5 117t-28.5 142q0 76 28.5 143t77.5 117t115 79t141 29zM433 675q-65 0 -122 -25t-99 -68t-66.5 -102t-24.5 -126t24.5 -125t66.5 -101.5 t99 -68.5t122 -25t122 25t99 68.5t66.5 101.5t24.5 125t-24.5 126t-66.5 102t-99 68t-122 25zM313 408q-2 5 -2.5 12t-0.5 11q0 24 9 44.5t25.5 36t40.5 24.5t53 9t52.5 -8.5t39.5 -23.5t24.5 -35t8.5 -42q0 -36 -20 -62.5t-52 -46.5l-73 -46q-18 -11 -30.5 -26t-15.5 -34 h196v-45h-259v4q0 41 18.5 75.5t60.5 60.5l69 43q24 15 39 34.5t15 42.5q0 26 -19 46t-54 20q-34 0 -55.5 -20t-21.5 -55q0 -4 0.5 -10.5t1.5 -12.5z" />
<glyph unicode="&#x2782;" horiz-adv-x="840" d="M433 722q75 0 141.5 -29t116 -79t78.5 -117t29 -143q0 -75 -29 -142t-78.5 -117t-116 -79t-141.5 -29t-141 29t-115 79t-77.5 117t-28.5 142q0 76 28.5 143t77.5 117t115 79t141 29zM433 675q-65 0 -122 -25t-99 -68t-66.5 -102t-24.5 -126t24.5 -125t66.5 -101.5 t99 -68.5t122 -25t122 25t99 68.5t66.5 101.5t24.5 125t-24.5 126t-66.5 102t-99 68t-122 25zM387 388l114 103h-194v44h262v-43l-116 -103q2 1 9 1q22 0 43 -7t37 -20.5t25.5 -33.5t9.5 -46q0 -24 -10 -45.5t-28 -37.5t-44 -25.5t-57 -9.5q-61 0 -98 31t-44 75l47 17 q3 -36 31 -57t63 -21q38 0 62.5 20.5t24.5 52.5q0 35 -25 52.5t-58 17.5q-17 0 -32 -5z" />
<glyph unicode="&#x2783;" horiz-adv-x="840" d="M433 722q75 0 141.5 -29t116 -79t78.5 -117t29 -143q0 -75 -29 -142t-78.5 -117t-116 -79t-141.5 -29t-141 29t-115 79t-77.5 117t-28.5 142q0 76 28.5 143t77.5 117t115 79t141 29zM433 675q-65 0 -122 -25t-99 -68t-66.5 -102t-24.5 -126t24.5 -125t66.5 -101.5 t99 -68.5t122 -25t122 25t99 68.5t66.5 101.5t24.5 125t-24.5 126t-66.5 102t-99 68t-122 25zM264 309l179 230h62v-237h70v-45h-70v-81h-51v81h-190v52zM454 481l-140 -179h140v179z" />
<glyph unicode="&#x2784;" horiz-adv-x="840" d="M433 722q75 0 141.5 -29t116 -79t78.5 -117t29 -143q0 -75 -29 -142t-78.5 -117t-116 -79t-141.5 -29t-141 29t-115 79t-77.5 117t-28.5 142q0 76 28.5 143t77.5 117t115 79t141 29zM433 675q-65 0 -122 -25t-99 -68t-66.5 -102t-24.5 -126t24.5 -125t66.5 -101.5 t99 -68.5t122 -25t122 25t99 68.5t66.5 101.5t24.5 125t-24.5 126t-66.5 102t-99 68t-122 25zM340 285q5 -32 30 -53t60 -21q38 0 62 21.5t24 56.5q0 36 -24 57.5t-61 21.5q-46 0 -78 -34l-45 16l49 186h196v-45h-162l-30 -113q17 17 39 24.5t44 7.5q56 0 90 -33t34 -86 q0 -26 -9.5 -48.5t-27.5 -39.5t-43.5 -27t-57.5 -10q-27 0 -50 8.5t-41 22t-29.5 31.5t-14.5 38z" />
<glyph unicode="&#x2785;" horiz-adv-x="840" d="M433 722q75 0 141.5 -29t116 -79t78.5 -117t29 -143q0 -75 -29 -142t-78.5 -117t-116 -79t-141.5 -29t-141 29t-115 79t-77.5 117t-28.5 142q0 76 28.5 143t77.5 117t115 79t141 29zM433 675q-65 0 -122 -25t-99 -68t-66.5 -102t-24.5 -126t24.5 -125t66.5 -101.5 t99 -68.5t122 -25t122 25t99 68.5t66.5 101.5t24.5 125t-24.5 126t-66.5 102t-99 68t-122 25zM540 484q-29 16 -69 16q-32 0 -57 -11t-43 -30.5t-28 -45.5t-12 -57q11 25 40.5 43t65.5 18q56 0 92.5 -33.5t36.5 -90.5q0 -28 -11 -51.5t-30 -40t-44.5 -25.5t-54.5 -9 q-30 0 -56.5 11t-46.5 32t-31.5 52.5t-11.5 72.5q0 50 15 89t40.5 65.5t59.5 40.5t73 14q53 0 85 -19zM340 293q0 -37 26.5 -59t60.5 -22q35 0 60.5 22t25.5 59t-25.5 58.5t-60.5 21.5q-34 0 -60.5 -21.5t-26.5 -58.5z" />
<glyph unicode="&#x2786;" horiz-adv-x="840" d="M433 722q75 0 141.5 -29t116 -79t78.5 -117t29 -143q0 -75 -29 -142t-78.5 -117t-116 -79t-141.5 -29t-141 29t-115 79t-77.5 117t-28.5 142q0 76 28.5 143t77.5 117t115 79t141 29zM433 675q-65 0 -122 -25t-99 -68t-66.5 -102t-24.5 -126t24.5 -125t66.5 -101.5 t99 -68.5t122 -25t122 25t99 68.5t66.5 101.5t24.5 125t-24.5 126t-66.5 102t-99 68t-122 25zM585 488q-23 -20 -49 -47t-49.5 -65.5t-41.5 -88.5t-25 -115h-55q7 68 27 121.5t44 93t47 65t37 38.5h-219v45h284v-47z" />
<glyph unicode="&#x2787;" horiz-adv-x="840" d="M433 722q75 0 141.5 -29t116 -79t78.5 -117t29 -143q0 -75 -29 -142t-78.5 -117t-116 -79t-141.5 -29t-141 29t-115 79t-77.5 117t-28.5 142q0 76 28.5 143t77.5 117t115 79t141 29zM433 675q-65 0 -122 -25t-99 -68t-66.5 -102t-24.5 -126t24.5 -125t66.5 -101.5 t99 -68.5t122 -25t122 25t99 68.5t66.5 101.5t24.5 125t-24.5 126t-66.5 102t-99 68t-122 25zM438 381q35 0 56 17t21 44q0 26 -20.5 43t-56.5 17q-35 0 -55 -17t-20 -43q0 -27 20.5 -44t54.5 -17zM438 211q42 0 63.5 18.5t21.5 45.5q0 28 -21.5 46.5t-63.5 18.5 q-41 0 -63 -18.5t-22 -46.5q0 -27 22.5 -45.5t62.5 -18.5zM438 167q-66 0 -101.5 30.5t-35.5 74.5q0 30 20 54t54 35q-29 9 -46 31.5t-17 50.5q0 44 34.5 72.5t91.5 28.5t92.5 -28.5t35.5 -72.5q0 -28 -17.5 -50.5t-46.5 -31.5q34 -11 54 -35t20 -54q0 -44 -36 -74.5 t-102 -30.5z" />
<glyph unicode="&#x2788;" horiz-adv-x="840" d="M433 722q75 0 141.5 -29t116 -79t78.5 -117t29 -143q0 -75 -29 -142t-78.5 -117t-116 -79t-141.5 -29t-141 29t-115 79t-77.5 117t-28.5 142q0 76 28.5 143t77.5 117t115 79t141 29zM433 675q-65 0 -122 -25t-99 -68t-66.5 -102t-24.5 -126t24.5 -125t66.5 -101.5 t99 -68.5t122 -25t122 25t99 68.5t66.5 101.5t24.5 125t-24.5 126t-66.5 102t-99 68t-122 25zM330 229q16 -8 35 -13t38 -5q59 0 96 36.5t39 109.5q-11 -27 -40 -44t-64 -17q-27 0 -50.5 8.5t-41 24.5t-27.5 39t-10 51q0 27 11 50t29.5 39.5t44 25.5t54.5 9q30 0 56.5 -11 t46 -32t31 -52t11.5 -71q0 -47 -12 -86t-35 -67t-57 -43t-79 -15q-25 0 -49 6t-40 16zM528 419q0 37 -25.5 58.5t-60.5 21.5t-60 -21.5t-25 -58.5t25 -58.5t60 -21.5t60.5 21.5t25.5 58.5z" />
<glyph unicode="&#xe000;" horiz-adv-x="672" d="M24 170h127v539h565v-54h-511v-485h127l-154 -184z" />
<glyph unicode="&#xe002;" horiz-adv-x="957" d="M787 546l153 -191h-123q0 -76 -29 -143t-79 -117t-117 -79t-143 -29t-143 29t-116.5 79t-78.5 117t-29 143t29 143t78.5 116.5t116.5 78.5t143 29q50 0 95.5 -12t86.5 -35l-24 -48q-35 20 -74.5 30.5t-82.5 10.5q-65 0 -122.5 -24.5t-100 -67t-67 -99.5t-24.5 -122 t24.5 -122.5t67 -100t100 -67t122.5 -24.5t122 24.5t99.5 67t67 100t24.5 122.5h-129z" />
<glyph unicode="&#xf6c3;" horiz-adv-x="160" d="M71 567q24 1 45 13.5t29 37.5q-6 -4 -16 -4q-17 0 -27.5 10.5t-10.5 24.5q0 20 13.5 34t34.5 14q17 0 31.5 -10.5t14.5 -36.5q0 -27 -10.5 -48t-27.5 -35.5t-38.5 -22.5t-43.5 -8z" />
<glyph unicode="&#xfb00;" horiz-adv-x="600" />
<glyph unicode="&#xfb01;" horiz-adv-x="550" />
<glyph unicode="&#xfb02;" horiz-adv-x="550" />
<glyph unicode="&#xfb03;" horiz-adv-x="842" />
<glyph unicode="&#xfb04;" horiz-adv-x="842" />
<glyph unicode="&#xfeff;" horiz-adv-x="0" />
<glyph horiz-adv-x="353" d="M165 423h-118v54h128l23 113q14 72 57.5 105.5t96.5 33.5q27 0 41.5 -3t22.5 -6v-55q-6 2 -18 5t-33 3q-18 0 -34.5 -5t-31 -17t-25.5 -31.5t-17 -49.5l-19 -93h133v-54h-144l-86 -432q-14 -72 -57 -105.5t-96 -33.5q-27 0 -41.5 3t-24.5 6v55q7 -2 20.5 -5t33.5 -3 q34 0 64 22t42 81z" />
<glyph horiz-adv-x="425" d="M170 213l61 283h-136l11 52h135l35 161h53l-34 -161h136l-11 -52h-136l-60 -283h135l-11 -52h-135l-34 -161h-54l34 161h-136l11 52h136z" />
<glyph horiz-adv-x="221" d="M142 670q0 23 16.5 39.5t38.5 16.5q20 0 32 -13t12 -33q0 -22 -16 -38t-38 -16q-20 0 -32.5 12.5t-12.5 31.5zM19 0l101 477h61l-101 -477h-61z" />
<glyph horiz-adv-x="532" d="M40 0l151 709h64l-138 -650h350l-13 -59h-414zM303 355q0 21 15 37.5t38 16.5q19 0 30 -13t11 -30q0 -22 -15 -37.5t-36 -15.5q-19 0 -31 12.5t-12 29.5z" />
<glyph horiz-adv-x="271" d="M18 0l153 722h61l-153 -722h-61zM198 306q0 21 15 37.5t38 16.5q19 0 30 -13t11 -30q0 -22 -15 -37.5t-36 -15.5q-19 0 -31 12.5t-12 29.5z" />
<glyph horiz-adv-x="381" d="M15 133q0 33 9 74.5t30 77.5t54.5 61t83.5 25q35 0 59.5 -11.5t40 -31t22.5 -44t7 -50.5q0 -36 -9.5 -78t-30.5 -77.5t-54.5 -59.5t-81.5 -24q-63 0 -96.5 38t-33.5 100zM65 133q0 -38 19 -65.5t65 -27.5q32 0 55 19t38 48t22 62.5t7 62.5q0 37 -19.5 65t-64.5 28 q-34 0 -57 -20.5t-37.5 -50.5t-21 -63t-6.5 -58z" />
<glyph horiz-adv-x="215" d="M28 296q35 2 61.5 20t40.5 47h49l-78 -363h-52l63 288q-16 -13 -40 -21t-52 -10z" />
<glyph horiz-adv-x="347" d="M167 180q33 15 52.5 34.5t19.5 48.5q0 25 -17.5 43.5t-52.5 18.5q-38 0 -61.5 -24.5t-23.5 -65.5q0 -6 1 -10l-49 3q-1 4 -1 10q0 28 9.5 51.5t27 41t42.5 27.5t57 10q29 0 51.5 -8.5t37.5 -22.5t23 -32.5t8 -38.5q0 -43 -27.5 -73.5t-69.5 -48.5l-78 -35 q-51 -22 -64 -65h210l-10 -44h-268q8 48 33.5 86.5t77.5 61.5z" />
<glyph horiz-adv-x="349" d="M103 224l139 95h-186l9 45h248l-11 -57l-132 -86q20 0 38.5 -7.5t32 -21t21.5 -31.5t8 -39q0 -26 -10 -49t-28.5 -40.5t-44.5 -28t-59 -10.5q-29 0 -53 8.5t-41.5 23.5t-27 35t-9.5 43v8t1 8l49 7q-1 -5 -1 -14q0 -33 24 -54t59 -21q38 0 63.5 23.5t25.5 58.5 q0 32 -23 48t-53 16q-5 0 -11 -0.5t-11 -1.5z" />
<glyph horiz-adv-x="362" d="M-2 139l222 224h63l-51 -236h68l-9 -44h-67l-18 -83h-51l18 83h-186zM220 303l-175 -176h136z" />
<glyph horiz-adv-x="340" d="M123 -7q-59 0 -94.5 32.5t-35.5 78.5q0 4 1 7l51 9q-1 -3 -1 -7q0 -30 21 -52.5t60 -22.5q36 0 62 23.5t26 61.5q0 32 -21 51.5t-56 19.5q-38 0 -69 -24l-43 23l80 170h199l-9 -45h-163l-47 -101q14 10 33.5 14.5t35.5 4.5q53 0 83 -29.5t30 -77.5q0 -28 -10.5 -52.5 t-29.5 -43t-45.5 -29.5t-57.5 -11z" />
<glyph horiz-adv-x="363" d="M305 303q-14 10 -33.5 16t-48.5 6q-27 0 -51.5 -9.5t-44 -26.5t-34 -40.5t-21.5 -50.5q14 20 43.5 33t60.5 13q53 0 83.5 -31t30.5 -79q0 -32 -12.5 -57.5t-33 -44.5t-47.5 -29t-55 -10q-55 0 -92 36.5t-37 100.5q0 55 18 99.5t47.5 75.5t67.5 47.5t79 16.5q65 0 100 -26 zM145 37q17 0 33.5 6.5t29.5 18.5t21 29t8 38q0 32 -20.5 52t-55.5 20q-17 0 -33.5 -6.5t-29.5 -18.5t-21 -29t-8 -38q0 -32 20.5 -52t55.5 -20z" />
<glyph horiz-adv-x="324" d="M310 318q-30 -19 -63 -46.5t-65 -65.5t-60 -89t-47 -117h-55q18 66 47 118.5t61 92t63 66t52 41.5h-213l9 45h281z" />
<glyph horiz-adv-x="352" d="M98 261q0 -26 21.5 -40.5t49.5 -14.5q31 0 53.5 17t22.5 48q0 23 -17.5 39t-53.5 17q-33 0 -54.5 -18.5t-21.5 -47.5zM53 95q1 -29 26 -44t55 -15q38 0 61.5 19t23.5 50q0 25 -20 42.5t-61 17.5q-38 0 -61.5 -19.5t-23.5 -50.5zM132 -7q-25 0 -48.5 6t-42 18t-29.5 30 t-11 42q0 38 26 65.5t71 35.5q-23 9 -37 29t-14 43t10 42.5t27.5 34t41.5 22.5t52 8q56 0 87.5 -27t31.5 -66q0 -35 -24 -60.5t-60 -34.5q25 -10 41 -31t16 -46q0 -24 -10.5 -44.5t-28.5 -35t-43.5 -23t-55.5 -8.5z" />
<glyph horiz-adv-x="361" d="M19 67q17 -14 39 -21.5t47 -7.5q48 0 86.5 32.5t51.5 95.5q-14 -22 -41.5 -34.5t-55.5 -12.5q-24 0 -46 8t-38 22t-25.5 34.5t-9.5 46.5q0 31 12 56.5t32 43.5t46 28t55 10q55 0 92 -35t37 -101q0 -50 -13.5 -94t-39 -76.5t-62.5 -51t-83 -18.5q-29 0 -58 9.5t-47 24.5z M156 163q18 0 34 6.5t28.5 18.5t19.5 28.5t7 35.5q0 31 -22 51.5t-54 20.5q-17 0 -33 -6t-28.5 -17.5t-20 -28t-7.5 -37.5q0 -35 22 -53.5t54 -18.5z" />
<glyph horiz-adv-x="51" />
<glyph />
<glyph d="M178 44q0 26 18 43.5t43 17.5t41.5 -17t16.5 -48q0 -38 -15 -72t-39.5 -59.5t-55.5 -42.5t-63 -20l9 42q20 4 39 15t33.5 26.5t25.5 33.5t16 36q-7 -3 -20 -3q-22 0 -35.5 13t-13.5 35z" />
<glyph d="M232 -4q-24 0 -37 14t-13 33q0 27 17.5 45.5t43.5 18.5q23 0 36 -15t13 -35q0 -26 -18 -43.5t-42 -17.5z" />
<glyph d="M226 -4q-23 0 -36 14t-13 33q0 26 17 44.5t44 18.5q23 0 35.5 -14.5t12.5 -34.5q0 -27 -18 -44t-42 -17zM307 371q-23 0 -36 14t-13 33q0 26 17 44.5t44 18.5q23 0 35.5 -14.5t12.5 -34.5q0 -27 -18 -44t-42 -17z" />
<glyph d="M305 371q-23 0 -36 14t-13 33q0 26 17 44.5t44 18.5q23 0 35.5 -14.5t12.5 -34.5q0 -27 -18 -44t-42 -17zM175 44q0 26 18 43.5t43 17.5t41.5 -17t16.5 -48q0 -38 -15 -72t-39.5 -59.5t-55.5 -42.5t-63 -20l9 42q20 4 39 15t33.5 26.5t25.5 33.5t16 36q-7 -3 -20 -3 q-22 0 -35.5 13t-13.5 35z" />
<glyph d="M92 11q-2 -10 -3 -19.5t-1 -18.5q0 -51 29.5 -85t91.5 -34q25 0 48.5 8t42.5 23.5t30 37t11 49.5q0 30 -15 54t-41 44l-90 66q-39 29 -66.5 61t-27.5 79q0 30 11.5 53.5t29.5 40.5t40 28t42 16q-35 26 -52.5 58.5t-17.5 68.5q0 42 16.5 75.5t43.5 57t62.5 36t74.5 12.5 q41 0 73 -12.5t53.5 -34t32 -50t10.5 -61.5q0 -19 -3 -40l-59 -6q4 17 4 37q0 51 -29 83.5t-85 32.5q-25 0 -49 -8.5t-43 -23.5t-30 -37.5t-11 -50.5q0 -30 14.5 -52.5t40.5 -42.5l91 -67q15 -12 32 -25.5t30.5 -30.5t22.5 -37t9 -44q0 -29 -11 -52t-28.5 -41t-39.5 -30.5 t-44 -18.5q35 -28 53 -60t18 -67q0 -42 -16.5 -75.5t-44.5 -56.5t-64 -35.5t-74 -12.5q-44 0 -76 12.5t-54.5 34t-33.5 50.5t-11 62q0 10 1.5 22.5t3.5 20.5zM258 387q-17 -2 -34.5 -10t-31.5 -20.5t-23 -30t-9 -39.5q0 -27 15.5 -48t42.5 -42l77 -60q16 3 33.5 12t32 22.5 t24 31t9.5 38.5q0 28 -16 49t-40 39z" />
<glyph d="M266 423h-118v54h128l23 113q14 72 57.5 105.5t96.5 33.5q27 0 41.5 -3t22.5 -6v-55q-6 2 -18 5t-33 3q-18 0 -34.5 -5t-31 -17t-25.5 -31.5t-17 -49.5l-19 -93h133v-54h-144l-86 -432q-14 -72 -57 -105.5t-96 -33.5q-27 0 -41.5 3t-24.5 6v55q7 -2 20.5 -5t33.5 -3 q34 0 64 22t42 81z" />
<glyph />
<glyph />
<glyph horiz-adv-x="302" d="M58 228q0 181 75.5 320t211.5 238l31 -35q-62 -47 -111 -101t-84 -118.5t-53.5 -140t-18.5 -164.5q0 -80 24 -152.5t62 -135.5l-43 -26q-38 61 -66 142t-28 173z" />
<glyph horiz-adv-x="306" d="M274 457q0 -89 -19.5 -167t-56.5 -145.5t-89.5 -126t-119.5 -108.5l-32 34q60 48 109 101.5t83.5 116t53.5 136t19 160.5q0 81 -26.5 158t-67.5 140l43 26q20 -30 38.5 -67.5t33 -79.5t23 -87t8.5 -91z" />
<glyph horiz-adv-x="415" d="M79 310l11 54h263l-11 -54h-263z" />
<glyph horiz-adv-x="275" d="M5 -63l181 857h155l-11 -50h-101l-161 -757h102l-11 -50h-154z" />
<glyph horiz-adv-x="276" d="M-32 -63l10 50h102l160 757h-101l11 50h154l-181 -857h-155z" />
<glyph horiz-adv-x="328" d="M57 395q43 3 77 26.5t45 73.5l31 144q17 83 60 118.5t115 35.5h9l-10 -49h-9q-50 0 -76 -25t-37 -77l-34 -159q-10 -48 -43 -80t-83 -38q38 -6 57.5 -32.5t19.5 -62.5q0 -8 -1 -15.5t-3 -16.5l-31 -149q-4 -20 -4 -40q0 -32 17 -47t57 -15h8l-10 -49h-9q-57 0 -86 27 t-29 78q0 12 1 23.5t4 25.5l30 142q3 15 3 27q0 37 -22.5 56t-59.5 21z" />
<glyph horiz-adv-x="329" d="M304 336q-43 -3 -77 -26.5t-45 -73.5l-31 -144q-17 -83 -60 -118.5t-115 -35.5h-9l10 49h9q50 0 76 25t37 77l34 159q10 48 43 80.5t83 38.5q-38 6 -57.5 32t-19.5 62q0 8 1 15.5t3 16.5l31 149q4 20 4 40q0 32 -17 47t-57 15h-8l10 49h9q57 0 86 -27t29 -78 q0 -12 -1 -23.5t-4 -25.5l-30 -142q-3 -15 -3 -27q0 -37 22.5 -56t59.5 -21z" />
<glyph horiz-adv-x="237" d="M98 0h-78l127 520h43zM242 670q0 -23 -15.5 -40t-39.5 -17q-20 0 -31.5 13.5t-11.5 31.5q0 23 16 39t38 16q20 0 32 -12.5t12 -30.5z" />
<glyph horiz-adv-x="485" d="M328 147l-95 192l171 190h67l-176 -195l92 -187h-59zM160 147l-95 192l171 190h67l-176 -195l92 -187h-59z" />
<glyph horiz-adv-x="404" d="M74 317l11 52h263l-11 -52h-263z" />
<glyph horiz-adv-x="490" d="M177 529l95 -192l-171 -190h-67l176 195l-92 187h59zM351 529l95 -192l-171 -190h-67l176 195l-92 187h59z" />
<glyph horiz-adv-x="491" d="M334 521q1 -2 1 -5.5v-6.5q-2 -61 -29.5 -102t-78.5 -71l-50 -30q-47 -27 -72.5 -62t-25.5 -83q0 -23 8 -44.5t24.5 -37.5t41 -25.5t57.5 -9.5q39 0 69.5 15t51.5 39t31.5 55t10.5 64q0 8 -1 13l60 -11q1 -3 1 -11q0 -44 -16 -83.5t-46 -70t-72.5 -48.5t-94.5 -18 q-46 0 -81 14t-59 37t-36.5 53t-12.5 62q0 34 10.5 63.5t29 54t44 45t54.5 38.5l52 31q42 24 58.5 57.5t16.5 77.5h54zM373 671q0 -23 -15.5 -40t-39.5 -17q-20 0 -31.5 13.5t-11.5 31.5q0 23 16 39t38 16q20 0 32 -12.5t12 -30.5z" />
<glyph horiz-adv-x="652" d="M79 310l11 54h500l-11 -54h-500z" />
<glyph horiz-adv-x="1071" d="M79 310l11 54h919l-11 -54h-919z" />
<glyph horiz-adv-x="317" d="M160 147l-95 192l171 190h67l-176 -195l92 -187h-59z" />
<glyph horiz-adv-x="316" d="M177 529l95 -192l-171 -190h-67l176 195l-92 187h59z" />
<glyph horiz-adv-x="745" d="M445 722q58 0 105.5 -17t83.5 -46t59 -69.5t33 -86.5l-60 -21q-9 40 -28 73t-48 57t-67 37.5t-85 13.5q-60 0 -115 -24.5t-98 -71t-68.5 -114t-25.5 -152.5q0 -63 19 -110.5t51.5 -80t75.5 -49t92 -16.5q47 0 90 16t77.5 45t60 69t37.5 88h-270l13 57h330 q-8 -70 -36 -130.5t-73 -105.5t-104.5 -71t-129.5 -26q-60 0 -114 21t-95 61t-65 98t-24 131q0 106 34 185.5t88.5 132.5t122 79.5t134.5 26.5z" />
<glyph horiz-adv-x="745" d="M445 722q58 0 105.5 -17t83.5 -46t59 -69.5t33 -86.5l-60 -21q-9 40 -28 73t-48 57t-67 37.5t-85 13.5q-60 0 -115 -24.5t-98 -71t-68.5 -114t-25.5 -152.5q0 -63 19 -110.5t51.5 -80t75.5 -49t92 -16.5q47 0 90 16t77.5 45t60 69t37.5 88h-270l13 57h330 q-8 -70 -36 -130.5t-73 -105.5t-104.5 -71t-129.5 -26q-60 0 -114 21t-95 61t-65 98t-24 131q0 106 34 185.5t88.5 132.5t122 79.5t134.5 26.5zM308 759l134 119h81l85 -119h-53l-78 83l-110 -83h-59z" />
<glyph horiz-adv-x="745" d="M445 722q58 0 105.5 -17t83.5 -46t59 -69.5t33 -86.5l-60 -21q-9 40 -28 73t-48 57t-67 37.5t-85 13.5q-60 0 -115 -24.5t-98 -71t-68.5 -114t-25.5 -152.5q0 -63 19 -110.5t51.5 -80t75.5 -49t92 -16.5q47 0 90 16t77.5 45t60 69t37.5 88h-270l13 57h330 q-8 -70 -36 -130.5t-73 -105.5t-104.5 -71t-129.5 -26q-60 0 -114 21t-95 61t-65 98t-24 131q0 106 34 185.5t88.5 132.5t122 79.5t134.5 26.5zM467 754q-31 0 -54 8.5t-38 23.5t-22.5 34.5t-7.5 41.5q0 10 2 18h49q-1 -4 -1 -10q0 -26 17.5 -46.5t59.5 -20.5q23 0 41 6.5 t31.5 17.5t23 24.5t14.5 28.5h51q-7 -24 -21 -46.5t-35 -40t-48.5 -28.5t-61.5 -11z" />
<glyph horiz-adv-x="745" d="M445 722q58 0 105.5 -17t83.5 -46t59 -69.5t33 -86.5l-60 -21q-9 40 -28 73t-48 57t-67 37.5t-85 13.5q-60 0 -115 -24.5t-98 -71t-68.5 -114t-25.5 -152.5q0 -63 19 -110.5t51.5 -80t75.5 -49t92 -16.5q47 0 90 16t77.5 45t60 69t37.5 88h-270l13 57h330 q-8 -70 -36 -130.5t-73 -105.5t-104.5 -71t-129.5 -26q-60 0 -114 21t-95 61t-65 98t-24 131q0 106 34 185.5t88.5 132.5t122 79.5t134.5 26.5zM432 813q0 22 15 38t38 16q19 0 30 -13t11 -30q0 -22 -15 -37.5t-36 -15.5q-20 0 -31.5 12.5t-11.5 29.5z" />
<glyph horiz-adv-x="745" d="M445 722q58 0 105.5 -17t83.5 -46t59 -69.5t33 -86.5l-60 -21q-9 40 -28 73t-48 57t-67 37.5t-85 13.5q-60 0 -115 -24.5t-98 -71t-68.5 -114t-25.5 -152.5q0 -63 19 -110.5t51.5 -80t75.5 -49t92 -16.5q47 0 90 16t77.5 45t60 69t37.5 88h-270l13 57h330 q-8 -70 -36 -130.5t-73 -105.5t-104.5 -71t-129.5 -26q-60 0 -114 21t-95 61t-65 98t-24 131q0 106 34 185.5t88.5 132.5t122 79.5t134.5 26.5zM276 -172q24 1 45 13.5t29 37.5q-6 -4 -16 -4q-17 0 -27.5 10.5t-10.5 24.5q0 20 13.5 34t34.5 14q17 0 31.5 -10.5t14.5 -36.5 q0 -27 -10.5 -48t-27.5 -35.5t-38.5 -22.5t-43.5 -8z" />
<glyph horiz-adv-x="262" d="M172 425q0 23 16.5 39.5t38.5 16.5q20 0 32 -13t12 -33q0 -22 -16 -38t-38 -16q-20 0 -32.5 12.5t-12.5 31.5zM19 0l101 477h61l-101 -477h-61z" />
<glyph horiz-adv-x="262" d="M172 425q0 23 16.5 39.5t38.5 16.5q20 0 32 -13t12 -33q0 -22 -16 -38t-38 -16q-20 0 -32.5 12.5t-12.5 31.5zM19 0l101 477h61l-101 -477h-61zM216 537h-55l124 140h86z" />
<glyph horiz-adv-x="262" d="M172 425q0 23 16.5 39.5t38.5 16.5q20 0 32 -13t12 -33q0 -22 -16 -38t-38 -16q-20 0 -32.5 12.5t-12.5 31.5zM19 0l101 477h61l-101 -477h-61zM-35 -172q24 1 45 13.5t29 37.5q-6 -4 -16 -4q-17 0 -27.5 10.5t-10.5 24.5q0 20 13.5 34t34.5 14q17 0 31.5 -10.5 t14.5 -36.5q0 -27 -10.5 -48t-27.5 -35.5t-38.5 -22.5t-43.5 -8z" />
<glyph horiz-adv-x="262" d="M172 425q0 23 16.5 39.5t38.5 16.5q20 0 32 -13t12 -33q0 -22 -16 -38t-38 -16q-20 0 -32.5 12.5t-12.5 31.5zM19 0l101 477h61l-101 -477h-61zM147 676l71 -99l112 99h58l-137 -138h-78l-77 138h51z" />
<glyph horiz-adv-x="650" d="M526 241q-9 -65 -33.5 -112.5t-60.5 -79t-80.5 -47t-92.5 -15.5q-53 0 -94.5 15t-70.5 41t-44.5 61t-15.5 76q0 45 16.5 82.5t44 66t63.5 47t76 24.5q-42 18 -64 53.5t-22 76.5t16.5 76t44.5 61t65.5 40.5t78.5 14.5q45 0 79 -13t57.5 -36t35.5 -54.5t12 -68.5 q0 -6 -0.5 -11.5t-1.5 -10.5l-62 -8q1 5 1.5 10.5t0.5 10.5q0 54 -30.5 89.5t-95.5 35.5q-28 0 -53 -10t-44 -28t-30.5 -43t-11.5 -54q0 -42 30 -73.5t84 -37.5l-12 -55h-12q-37 0 -73 -11t-64.5 -33.5t-46.5 -55.5t-18 -78q0 -29 10.5 -54.5t31 -45t51 -31t70.5 -11.5 q35 0 68.5 10.5t61 34t47 61t27.5 90.5h-108l11 58h255l-12 -58h-85z" />
<glyph horiz-adv-x="479" d="M99 527q0 39 14.5 74t40 60.5t60 40.5t73.5 15t74 -15t60.5 -40.5t40.5 -60.5t15 -74t-15 -73.5t-40.5 -60t-60.5 -40.5t-74 -15t-73.5 15t-60 40.5t-40 60t-14.5 73.5zM134 527q0 -33 12 -61.5t33 -49.5t49 -33t60 -12t60 12t49 33t33 49.5t12 61.5t-12 61.5t-33 49.5 t-49 33.5t-60 12.5t-60 -12.5t-49 -33.5t-33 -49.5t-12 -61.5zM295 532q19 0 32 11.5t13 26.5q0 14 -9 22t-26 8h-28l-14 -68h32zM241 430h-35l42 200h67q28 0 44 -16t16 -39q0 -25 -16.5 -44t-40.5 -24l27 -77h-37l-24 73h-28z" />
<glyph horiz-adv-x="380" d="M199 341q-57 5 -84 43t-27 93q0 33 9 74.5t29.5 77.5t54 61t83.5 25q35 0 59.5 -11.5t40 -31t22.5 -44t7 -50.5q0 -36 -9 -78t-30 -77.5t-54.5 -59.5t-82.5 -24q-5 0 -9 0.5t-9 1.5zM137 477q0 -35 16.5 -62t58.5 -30q3 -1 9 -1q32 0 55.5 19t38.5 48t22 62.5t7 62.5 q0 37 -20 65.5t-64 28.5q-34 0 -57.5 -20.5t-38 -50.5t-21 -63.5t-6.5 -58.5z" />
<glyph horiz-adv-x="212" d="M100 642q38 3 64.5 22t38.5 45h47l-78 -363h-51l61 280q-4 -4 -15 -8t-24.5 -7.5t-27 -5.5t-22.5 -2z" />
<glyph horiz-adv-x="344" d="M243 714q29 0 51.5 -8.5t37.5 -22.5t23 -32.5t8 -38.5q0 -43 -27 -73.5t-70 -49.5l-77 -34q-27 -12 -43 -28.5t-22 -36.5h210l-10 -44h-267q8 48 33.5 86.5t76.5 61.5l73 32q27 12 49.5 30.5t22.5 54.5q0 24 -18.5 42.5t-52.5 18.5q-37 0 -61 -25t-24 -67q0 -3 1 -7 l-48 1q-2 5 -2 8v7q2 54 38.5 89.5t97.5 35.5z" />
<glyph horiz-adv-x="347" d="M214 529q-5 0 -11 -0.5t-11 -1.5l-17 42l139 95h-186l9 45h248l-11 -57l-132 -86q41 -3 70.5 -29.5t29.5 -69.5q0 -26 -10 -49t-28.5 -40.5t-44.5 -28t-59 -10.5q-29 0 -53 8.5t-41.5 23.5t-27 35t-9.5 43v8t1 8l49 7q-1 -5 -1 -14q0 -33 24 -54t59 -21q38 0 63.5 23.5 t25.5 58.5q0 32 -23 48t-53 16z" />
<glyph horiz-adv-x="359" d="M70 484l222 225h62l-50 -236h67l-9 -44h-67l-18 -83h-50l17 83h-185zM292 650l-176 -177h137z" />
<glyph horiz-adv-x="340" d="M157 561q15 11 34 16t36 5q53 0 83 -29.5t30 -77.5q0 -28 -10.5 -52.5t-30 -43t-46 -29.5t-57.5 -11q-29 0 -52.5 9t-40.5 24.5t-26.5 35.5t-9.5 43v6l51 9v-6q0 -32 21 -54t59 -22q37 0 63 23.5t26 62.5q0 32 -21 51t-56 19q-37 0 -70 -24l-42 23l80 170h199l-9 -44 h-163z" />
<glyph horiz-adv-x="361" d="M148 544q13 18 41 32t59 14q53 0 84 -31t31 -79q0 -32 -12.5 -57.5t-33 -44.5t-47.5 -29t-56 -10q-55 0 -91.5 36.5t-36.5 100.5q0 55 18 99.5t47.5 75.5t67.5 47.5t79 16.5q65 0 99 -26l-20 -39q-14 9 -33 15t-48 6q-54 0 -94 -36t-54 -91zM233 547q-18 0 -34.5 -7 t-29 -19t-20.5 -28.5t-8 -35.5q0 -32 22 -53t54 -21q17 0 34 6.5t30 18.5t21 29t8 39q0 32 -21 51.5t-56 19.5z" />
<glyph horiz-adv-x="324" d="M93 346q18 66 47 118.5t61 92t63 66.5t53 42h-214l9 44h280l-9 -45q-30 -19 -63.5 -46.5t-65 -65.5t-60 -89t-47.5 -117h-54z" />
<glyph horiz-adv-x="351" d="M171 608q0 -28 21.5 -42t48.5 -14q32 0 54.5 17t22.5 48q0 23 -17.5 39.5t-53.5 16.5q-33 0 -54.5 -18t-21.5 -47zM126 441q0 -30 25 -44.5t56 -14.5q38 0 61 19t23 50q0 25 -19.5 42.5t-60.5 17.5q-39 0 -62 -19.5t-23 -50.5zM205 339q-25 0 -48.5 6t-42 18t-29.5 30 t-11 42q0 38 26 65.5t71 35.5q-23 9 -37 29t-14 43t10 42.5t27.5 34t41.5 22.5t52 8q55 0 87 -27t32 -66q0 -35 -24.5 -60.5t-59.5 -34.5q25 -10 41 -31t16 -46q0 -24 -10.5 -44.5t-28.5 -35t-43.5 -23t-55.5 -8.5z" />
<glyph horiz-adv-x="359" d="M315 516q-14 -24 -41 -37t-55 -13q-24 0 -46 8t-38 22t-25.5 34.5t-9.5 46.5q0 31 12 56.5t32 43.5t46 28t55 10q55 0 91.5 -35.5t36.5 -101.5q0 -50 -13.5 -93.5t-39 -76t-62 -51t-82.5 -18.5q-30 0 -58.5 9.5t-46.5 24.5l20 39q17 -14 39.5 -21t46.5 -7q50 0 87.5 33.5 t50.5 98.5zM229 509q18 0 34 7t28.5 19t19.5 28.5t7 35.5q0 31 -22 51.5t-54 20.5q-17 0 -33.5 -6t-29 -18t-20 -28.5t-7.5 -37.5q0 -35 22.5 -53.5t54.5 -18.5z" />
<glyph horiz-adv-x="420" d="M270 672q-27 0 -50 -13t-40 -34.5t-26.5 -50.5t-9.5 -61q0 -46 24 -75t70 -29q28 0 51.5 13.5t40 36t25.5 52t9 60.5q0 45 -24 73t-70 28zM447 709l-58 -275q-3 -11 -5 -28.5t-2 -25.5v-8h-49v5q0 6 1 18.5t5 29.5q-15 -22 -43 -41.5t-69 -19.5q-33 0 -58 11.5t-42 31.5 t-26 47t-9 58q0 43 13.5 80.5t37.5 65.5t56 44t69 16q29 0 49 -8t33.5 -19t21.5 -24.5t11 -23.5l14 66h50z" />
<glyph horiz-adv-x="424" d="M80 372l109 509h51l-46 -214q15 18 44.5 34.5t68.5 16.5q31 0 55.5 -11t42 -30.5t26.5 -46t9 -57.5q0 -44 -14 -82.5t-38 -67t-56.5 -44.5t-69.5 -16q-26 0 -45.5 7t-34 18.5t-24 25t-13.5 26.5l-14 -68h-51zM291 672q-27 0 -50.5 -12.5t-40 -34t-26 -50t-9.5 -59.5 q0 -46 24 -76.5t69 -30.5q25 0 48.5 11.5t41.5 32.5t28.5 50t10.5 65q0 45 -25.5 74.5t-70.5 29.5z" />
<glyph horiz-adv-x="388" d="M369 596q-6 33 -30.5 54t-63.5 21q-24 0 -47.5 -10.5t-42 -31t-30 -49.5t-11.5 -66q0 -49 28.5 -78t74.5 -29q41 0 66.5 22t39.5 48l44 -18q-9 -18 -23.5 -35.5t-34 -31t-43.5 -22t-52 -8.5q-35 0 -63 11.5t-48 31.5t-30.5 47.5t-10.5 60.5q0 45 15.5 82.5t41.5 64.5 t59.5 42t69.5 15q32 0 56.5 -9t41.5 -24t27 -34t14 -39z" />
<glyph horiz-adv-x="420" d="M270 671q-27 0 -50 -13t-40 -34.5t-26.5 -50.5t-9.5 -61q0 -46 24 -75t70 -29q28 0 51.5 13.5t40 36t25.5 52t9 60.5q0 45 -24 73t-70 28zM339 422q-15 -20 -43 -39.5t-69 -19.5q-33 0 -58 11.5t-42 31.5t-26 47t-9 58q0 43 13.5 80.5t37.5 65.5t56 44t69 16 q29 0 49 -7.5t33.5 -18.5t21 -23.5t11.5 -21.5l50 234h51l-96 -447q-2 -11 -4.5 -27.5t-2.5 -34.5h-48q0 11 1.5 25t4.5 26z" />
<glyph horiz-adv-x="388" d="M358 569q1 5 1 8.5v8.5q0 34 -21.5 60.5t-69.5 26.5q-24 0 -43.5 -9t-34 -23.5t-24.5 -33t-15 -38.5h207zM143 530q-1 -5 -1.5 -10t-0.5 -10q0 -48 28.5 -76t71.5 -28q38 0 64.5 19.5t41.5 45.5l39 -21q-20 -37 -57.5 -62.5t-88.5 -25.5q-32 0 -59 10t-46.5 29.5 t-31 47.5t-11.5 63q0 47 15.5 85t40.5 64.5t57.5 41t65.5 14.5q69 0 104 -38.5t35 -96.5q0 -16 -2.5 -30t-4.5 -22h-260z" />
<glyph horiz-adv-x="245" d="M218 664l-61 -292h-52l62 292h-67l9 45h68l14 70q11 54 43 76.5t70 22.5q17 0 29.5 -4t18.5 -7l-9 -43q-5 2 -14 4.5t-22 2.5q-23 0 -41 -13.5t-26 -47.5l-13 -61h89l-10 -45h-88z" />
<glyph horiz-adv-x="410" d="M357 576q0 39 -23.5 67.5t-69.5 28.5q-24 0 -45.5 -10.5t-38 -29t-26 -44t-9.5 -56.5q0 -42 23.5 -70t69.5 -28q24 0 46 10.5t38 29.5t25.5 45t9.5 57zM104 366q0 -38 23 -65t73 -27q54 0 81 34t38 84l10 49q-12 -20 -37 -35t-63 -15q-64 0 -99 38.5t-35 98.5q0 40 13 74 t35.5 59.5t53.5 40t66 14.5q50 0 76 -22t34 -48l14 63h51l-68 -318q-6 -29 -17.5 -58t-31.5 -52t-49.5 -37.5t-71.5 -14.5q-36 0 -63 10t-45 27.5t-27.5 41t-9.5 49.5z" />
<glyph horiz-adv-x="394" d="M302 371l43 204q3 13 3 28q0 29 -15 49.5t-53 20.5q-20 0 -37 -8t-31 -21t-23.5 -29.5t-13.5 -33.5l-45 -210h-51l109 509h51l-45 -210q17 21 44 34t59 13q54 0 79.5 -30.5t25.5 -72.5q0 -9 -1 -17.5t-3 -16.5l-44 -209h-52z" />
<glyph horiz-adv-x="175" d="M167 840q0 19 12.5 31t29.5 12t26 -9.5t9 -24.5q0 -18 -12.5 -30t-29.5 -12q-16 0 -25.5 9.5t-9.5 23.5zM80 372l72 337h51l-72 -337h-51z" />
<glyph horiz-adv-x="175" d="M152 709h51l-83 -389q-9 -43 -36.5 -65.5t-63.5 -22.5q-20 0 -32.5 4t-17.5 7l9 42q7 -3 15.5 -5.5t19.5 -2.5q46 0 57 53zM167 840q0 19 12.5 31t29.5 12q16 0 25.5 -9.5t9.5 -24.5q0 -18 -13 -30t-30 -12q-15 0 -24.5 9.5t-9.5 23.5z" />
<glyph horiz-adv-x="364" d="M229 540l-75 -58l-23 -110h-51l109 509h51l-71 -328l203 156h76l-179 -138l99 -199h-58z" />
<glyph horiz-adv-x="175" d="M80 372l109 509h51l-109 -509h-51z" />
<glyph horiz-adv-x="604" d="M298 372l44 207q3 13 3 27q0 28 -16 47.5t-51 19.5q-22 0 -39.5 -8t-30 -21t-21 -29.5t-12.5 -34.5l-44 -208h-51l62 288q4 17 5 29t1 20h50q0 -8 -1.5 -20.5t-4.5 -23.5q15 23 43 38t61 15q38 0 61 -19t32 -46q19 31 49.5 48t70.5 17q46 0 74.5 -28t28.5 -74 q0 -16 -3 -32l-46 -212h-51l45 208q3 13 3 26q0 28 -18 47.5t-54 19.5q-38 0 -62 -26.5t-32 -64.5l-45 -210h-51z" />
<glyph horiz-adv-x="393" d="M192 665q16 23 44.5 38t61.5 15q52 0 77.5 -30t25.5 -72q0 -16 -3 -32l-46 -212h-51l45 208q3 13 3 26q0 29 -16.5 48t-51.5 19q-19 0 -36.5 -7.5t-32 -20.5t-24 -29.5t-13.5 -35.5l-44 -208h-51l62 288q4 16 5 28.5t1 20.5h50q0 -8 -1.5 -20.5t-4.5 -23.5z" />
<glyph horiz-adv-x="410" d="M274 671q-25 0 -48.5 -10.5t-41.5 -30.5t-29 -49t-11 -66q0 -48 25.5 -78t73.5 -30q24 0 47.5 10.5t41.5 30.5t29.5 49t11.5 67q0 50 -27 78.5t-72 28.5zM425 566q0 -45 -15 -82.5t-40 -64.5t-58.5 -42t-69.5 -15q-34 0 -62 11t-47.5 31.5t-30 48t-10.5 60.5 q0 46 15 83.5t40.5 64.5t59 41.5t69.5 14.5q34 0 61.5 -11.5t47 -31.5t30 -47.5t10.5 -60.5z" />
<glyph horiz-adv-x="423" d="M292 672q-28 0 -51 -12.5t-40 -34t-26.5 -50t-9.5 -59.5q0 -48 24.5 -77.5t69.5 -29.5q25 0 48 11.5t41 32.5t28.5 50t10.5 65q0 45 -25 74.5t-70 29.5zM192 662q16 20 46 37.5t69 17.5q63 0 97.5 -40t34.5 -103q0 -44 -13.5 -82.5t-37.5 -67t-56 -45t-69 -16.5 q-25 0 -45 7t-34.5 17.5t-24 24t-14.5 26.5l-43 -201h-51l90 417q4 17 5.5 32t1.5 23h50q0 -8 -1 -20.5t-5 -26.5z" />
<glyph horiz-adv-x="420" d="M347 237h-51l38 178q-15 -17 -41.5 -34t-64.5 -17q-33 0 -58 11.5t-42.5 31.5t-26.5 47t-9 58q0 43 13.5 80.5t37.5 65t56 43.5t69 16q28 0 48 -7.5t34 -18t22 -23t12 -22.5l13 63h51zM270 672q-27 0 -50.5 -13t-40.5 -34.5t-26.5 -50.5t-9.5 -61q0 -45 25 -74.5 t71 -29.5q28 0 51 13.5t39.5 36t25.5 51.5t9 60q0 45 -24 73.5t-70 28.5z" />
<glyph horiz-adv-x="258" d="M190 657q20 30 47.5 42.5t56.5 12.5q10 0 19 -1t15 -3l-12 -54q-15 6 -35 6q-39 0 -69 -25.5t-42 -81.5l-39 -181h-51l59 279q5 22 6.5 36t1.5 22h50q0 -8 -1 -21.5t-6 -30.5z" />
<glyph horiz-adv-x="323" d="M198 362q-30 0 -52.5 9t-38 23.5t-23.5 33.5t-8 39q0 8 2 14l47 12q-1 -4 -1 -11q0 -34 19 -56t58 -22q31 0 50.5 16.5t19.5 42.5q0 17 -11.5 28.5t-30.5 18.5l-50 19q-30 11 -47 31.5t-17 49.5q0 22 9 41.5t25.5 34t39 23t48.5 8.5q32 0 54 -10t35.5 -25t19.5 -33t7 -33 l-47 -11q0 27 -17 48t-56 21q-27 0 -48 -15t-21 -41q0 -32 38 -46l50 -18q33 -12 51 -34.5t18 -51.5q0 -21 -8 -40t-23.5 -33.5t-38.5 -23.5t-53 -9z" />
<glyph horiz-adv-x="248" d="M177 475q-3 -12 -3 -21q0 -42 50 -42q7 0 13.5 1t10.5 2l-9 -43q-5 -2 -13.5 -3t-19.5 -1q-38 0 -61 21t-23 56q0 7 1 14t3 15l41 190h-69l10 45h19q52 0 62 46l13 60h48l-23 -106h83l-10 -45h-83z" />
<glyph horiz-adv-x="391" d="M309 415q-14 -20 -39.5 -35.5t-56.5 -15.5q-30 0 -51 9t-35 24t-20.5 35t-6.5 41q0 10 1.5 19t3.5 19l42 198h51l-42 -196q-2 -8 -3 -16t-1 -16q0 -14 3.5 -27.5t12 -23.5t22.5 -16t34 -6q38 0 64.5 27.5t34.5 65.5l45 208h50l-56 -263q-4 -17 -6 -34.5t-2 -39.5h-48 q0 11 0.5 23t2.5 20z" />
<glyph horiz-adv-x="341" d="M215 372h-51l-63 337h54l45 -277l160 277h58z" />
<glyph horiz-adv-x="556" d="M391 709l39 -273l141 273h55l-180 -337h-54l-38 276l-152 -276h-55l-38 337h51l27 -272l151 272h53z" />
<glyph horiz-adv-x="347" d="M97 372h-64l165 172l-88 165h55l67 -128l119 128h65l-159 -167l93 -170h-57l-70 133z" />
<glyph horiz-adv-x="347" d="M46 237l127 186l-78 286h54l62 -235l156 235h58l-321 -472h-58z" />
<glyph horiz-adv-x="342" d="M54 372l10 45l254 247h-198l9 45h263l-10 -45l-255 -247h207l-9 -45h-271z" />
<glyph d="M395 458h-148l-55 -198h147zM327 210h-148l-58 -210h-55l59 210h-91v50h103l55 198h-106v50h119l56 201h55l-56 -201h147l56 201h56l-57 -201h103v-50h-115l-56 -198h113v-50h-125l-59 -210h-55z" />
<glyph d="M285 400l55 255h-6q-29 0 -56 -9.5t-48 -26.5t-34 -41t-13 -54q0 -42 20.5 -69.5t62.5 -45.5zM263 54q36 0 67 10t53 28t34.5 43.5t12.5 55.5q0 38 -20.5 67.5t-71.5 52.5l-19 8zM178 -113l24 119q-78 16 -120.5 68.5t-42.5 126.5q0 12 1 23t3 23l57 10q-2 -11 -3 -21.5 t-1 -21.5q0 -26 6.5 -50.5t20.5 -45.5t36 -36.5t54 -22.5l60 281l-35 16q-56 24 -85.5 64t-29.5 97q0 44 17.5 79t47 60t67 38.5t77.5 14.5h19l23 103h50l-24 -110q39 -9 67 -27.5t46 -43.5t27 -54t9 -59l-56 -12q0 22 -5.5 44t-18 41.5t-32.5 34t-48 22.5l-57 -270l31 -14 q64 -28 96 -68.5t32 -98.5q0 -42 -16.5 -78t-46.5 -62.5t-71 -41.5t-90 -15h-15l-24 -113h-50z" />
<glyph d="M539 488l-486 -317l13 62l487 319zM184 447q-27 0 -49.5 9.5t-39 26t-25.5 38.5t-9 48q0 29 12 56t32.5 47.5t47.5 33t58 12.5q27 0 49.5 -9.5t39.5 -26.5t26.5 -39.5t9.5 -47.5q0 -32 -13 -59t-34.5 -46.5t-49 -31t-55.5 -11.5zM207 671q-19 0 -37 -7.5t-32 -21 t-22.5 -31.5t-8.5 -39q0 -35 23 -57.5t58 -22.5q19 0 37 7.5t32 21t22.5 32t8.5 40.5q0 34 -23 56t-58 22zM258 119q0 29 12 55.5t32.5 47t47.5 33t58 12.5q27 0 49.5 -9.5t39.5 -26t26.5 -39t9.5 -47.5q0 -32 -13 -59t-34.5 -46.5t-48.5 -31t-55 -11.5q-27 0 -50 9 t-39.5 25.5t-25.5 39t-9 48.5zM404 220q-19 0 -37 -7.5t-32 -20.5t-22.5 -31t-8.5 -39q0 -35 23 -57.5t58 -22.5q19 0 37.5 7.5t32 21t22 32t8.5 40.5q0 33 -23 55t-58 22z" />
<glyph d="M269 373v207h53v-207h195v-50h-195v-210h-53v210h-194v50h194z" />
<glyph d="M565 460q0 -48 -8.5 -101.5t-26 -106t-43.5 -100.5t-61.5 -84.5t-80 -58t-98.5 -21.5q-63 0 -104.5 22t-67 59t-36 83.5t-10.5 96.5q0 48 8.5 101.5t26 106t43.5 100.5t61.5 84.5t80 58t98.5 21.5q63 0 104.5 -22t67 -59t36 -84t10.5 -96zM503 462q0 42 -8.5 79t-27 64.5 t-49.5 43.5t-76 16q-41 0 -76 -18.5t-62.5 -50t-48.5 -73.5t-35.5 -88.5t-21.5 -94.5t-7 -93q0 -42 8.5 -78.5t27 -64t49 -43.5t75.5 -16q62 0 109.5 40t79 101.5t47.5 135t16 140.5z" />
<glyph d="M31 0l11 56h177l112 535q-9 -15 -28 -29.5t-44 -26.5t-53.5 -20t-57.5 -9l10 52q37 3 68 16.5t56 34t44 46.5t31 54h61l-138 -653h186l-11 -56h-424z" />
<glyph d="M463 58l-13 -58h-449q10 82 56.5 150t131.5 110l154 78q67 34 108 81t41 115q0 27 -9 51t-26.5 42t-44 28.5t-62.5 10.5q-37 0 -69.5 -13t-57 -38t-39 -60t-15.5 -80l-60 10q1 50 20 93t51.5 75t77 50t97.5 18q49 0 86.5 -15t62.5 -40.5t37.5 -59t12.5 -69.5 q0 -45 -14 -81t-38 -66t-56.5 -53.5t-70.5 -42.5l-167 -84q-45 -23 -80.5 -64t-46.5 -88h382z" />
<glyph d="M238 -12q-53 0 -95.5 16t-71.5 44.5t-44.5 67t-15.5 83.5q0 7 1 14.5t3 15.5l61 9q-2 -8 -3 -17.5t-1 -19.5q0 -36 13 -65t36 -50t53 -32t65 -11q39 0 74 13.5t61.5 38.5t42.5 60.5t16 78.5q0 65 -42.5 102t-115.5 37q-10 0 -21.5 -1.5t-19.5 -3.5l-19 50l302 234h-374 l13 57h452l-11 -59l-299 -232q41 0 77 -12t63 -35.5t42.5 -57.5t15.5 -78q0 -52 -20 -97t-55 -78.5t-82 -52.5t-101 -19z" />
<glyph d="M296 0l36 175h-333l16 70l407 464h85l-101 -479h126l-11 -55h-127l-37 -175h-61zM77 230h267l89 412z" />
<glyph d="M153 403q29 28 69 40.5t78 12.5q49 0 86.5 -15t63.5 -42t39.5 -64.5t13.5 -82.5q0 -55 -20 -103t-55.5 -84t-83.5 -56.5t-104 -20.5q-51 0 -92 17t-69 46t-43 67t-15 80v11.5t1 11.5l60 12q-1 -5 -1 -10v-10q0 -35 10 -66t30.5 -54t51.5 -36.5t72 -13.5q39 0 74.5 15 t62.5 42t43 63.5t16 80.5q0 72 -40.5 115.5t-118.5 43.5q-39 0 -77 -15t-72 -45l-51 28l154 338h341l-6 -57h-302z" />
<glyph d="M419 659q-63 0 -115.5 -27.5t-93 -73t-67.5 -105.5t-39 -124q10 27 29.5 51t46.5 42.5t62 29.5t77 11q45 0 82 -14t64 -40.5t41.5 -63.5t14.5 -83q0 -61 -22 -111.5t-58.5 -86.5t-83.5 -56t-98 -20q-52 0 -93.5 17.5t-70 49.5t-44 78t-15.5 102q0 57 11.5 114.5t34 111 t55.5 100t76.5 81t97 54t116.5 19.5q60 0 103.5 -16.5t69.5 -39.5l-30 -49q-20 20 -57.5 34.5t-93.5 14.5zM302 410q-38 0 -74.5 -15t-65 -42t-45.5 -64t-17 -81q0 -36 11 -66.5t32 -52t50.5 -34t66.5 -12.5t72.5 14.5t63.5 41.5t45 65.5t17 86.5q0 73 -41.5 116t-114.5 43z " />
<glyph d="M607 650q-68 -53 -133 -117t-123.5 -143.5t-108.5 -176t-88 -213.5h-66q38 122 90 222t111 180t121 141.5t121 108.5h-412l12 57h489z" />
<glyph d="M394 354q48 -20 74.5 -60.5t26.5 -97.5q0 -45 -18.5 -83.5t-51 -66t-77 -43t-95.5 -15.5q-56 0 -99 15t-71.5 40.5t-43 59t-14.5 71.5q0 40 15 74t40 59.5t58 42t69 22.5q-44 20 -68.5 59t-24.5 89q0 43 18 80t49.5 64t74 42t90.5 15q51 0 90.5 -14t66.5 -38t41 -56 t14 -69q0 -36 -13.5 -68t-36 -57t-52 -42t-62.5 -23zM173 516q0 -33 13 -57.5t35 -40t49.5 -23.5t57.5 -8q35 0 66 11t54 31.5t36 48.5t13 61q0 27 -10 50t-30 40.5t-49.5 27.5t-67.5 10q-36 0 -67 -11.5t-53 -32t-34.5 -48t-12.5 -59.5zM87 178q0 -36 14.5 -61.5 t38.5 -42.5t54 -25t62 -8q39 0 72.5 12.5t57.5 34.5t37.5 51t13.5 62q0 28 -10.5 53t-31.5 44t-53.5 30t-75.5 11q-42 0 -75 -12.5t-56.5 -34.5t-35.5 -51t-12 -63z" />
<glyph d="M329 666q-35 0 -69 -14t-61.5 -40t-44.5 -63t-17 -83q0 -76 44 -118.5t114 -42.5q37 0 72 15t62 41.5t43.5 63.5t16.5 81q0 35 -11.5 64.5t-32.5 50.5t-50.5 33t-65.5 12zM333 721q51 0 92.5 -17t70 -49t44 -78t15.5 -104q0 -54 -10 -111t-30.5 -110t-51 -100.5 t-71 -82.5t-91.5 -55.5t-112 -20.5q-57 0 -108.5 18.5t-81.5 50.5l29 49q30 -29 71 -45.5t93 -16.5q61 0 109.5 24.5t84.5 68t60 102.5t38 128q-27 -57 -80 -88.5t-119 -31.5q-45 0 -83 14.5t-66 41.5t-44 65t-16 84q0 63 22 112.5t58.5 83t82.5 51t94 17.5z" />
<glyph d="M68 375l402 207v-60l-343 -174l343 -174v-61l-402 207v55z" />
<glyph d="M67 420v50h447v-50h-447zM67 226v51h447v-51h-447z" />
<glyph d="M524 320l-402 -207v61l343 174l-343 174v60l402 -207v-55z" />
<glyph d="M134 305q0 -51 24 -94t75 -60l81 384q-36 -4 -68.5 -22t-57 -48t-39.5 -70.5t-15 -89.5zM251 0h-49l20 96q-69 18 -108.5 74t-39.5 133q0 62 21 114t55.5 90t80 60t95.5 24l16 80h49l-16 -83q34 -5 61 -19t46 -33.5t30.5 -44t16.5 -49.5l-53 -19q-8 39 -35 70.5t-77 39.5 l-83 -391q64 0 104 30t69 84l48 -23q-29 -63 -86 -104t-131 -41h-15z" />
<glyph d="M526 187q-18 -88 -73 -137.5t-141 -49.5h-336l14 66q75 35 120 96.5t47 134.5q0 5 -0.5 11t-1.5 11h-100l11 55h83q-5 32 -10.5 65.5t-5.5 65.5q0 48 16 87.5t44.5 68.5t67.5 45t86 16q48 0 83.5 -14.5t58.5 -38.5t34 -56.5t11 -68.5q0 -8 -1 -17t-3 -14l-61 -8 q3 16 3 32q0 55 -31.5 92.5t-95.5 37.5q-33 0 -60.5 -11t-47.5 -32t-31 -50.5t-11 -66.5q0 -31 6 -64.5t11 -68.5h205l-11 -55h-189q1 -8 1 -12v-9q-2 -81 -43 -142.5t-107 -99.5h240q66 0 106.5 39t54.5 102z" />
<glyph d="M424 172q-54 -42 -126 -42q-38 0 -71.5 12t-59.5 34l-72 -75l-38 38l72 75q-21 26 -32.5 59t-11.5 70q0 38 12.5 72t33.5 60l-73 77l38 37l74 -76q27 20 59.5 31.5t68.5 11.5q71 0 123 -40l71 73l38 -37l-69 -72q23 -28 36.5 -63t13.5 -74q0 -38 -12.5 -72.5t-35.5 -61.5 l68 -70l-37 -38zM138 343q0 -34 12.5 -63.5t34.5 -51t51 -34t62 -12.5t62 12.5t50 34t33.5 51t12.5 63.5t-12.5 63.5t-33.5 51.5t-50 34t-62 12t-62 -12t-51 -34t-34.5 -51.5t-12.5 -63.5z" />
<glyph d="M188 0l38 179h-184l11 50h184l18 83h-186l10 50h158l-134 347h67l128 -341l260 341h73l-272 -347h159l-10 -50h-190l-18 -83h193l-11 -50h-193l-38 -179h-63z" />
<glyph d="M445 218v201h-375v53h429v-254h-54z" />
<glyph d="M255 434v145h53v-145h189v-50h-189v-145h-53v145h-187v50h187zM497 176v-51h-429v51h429z" />
<glyph d="M295 311l-178 -185l-35 36l177 186l-177 184l36 37l178 -184l178 184l36 -36l-179 -185l179 -186l-36 -37z" />
<glyph d="M75 375h441v-53h-441v53zM248 170q0 20 14 33.5t34 13.5t33.5 -13.5t13.5 -33.5t-13.5 -34t-33.5 -14t-34 14t-14 34zM248 525q0 20 14 34t34 14t33.5 -14t13.5 -34t-13.5 -34t-33.5 -14t-34 14t-14 34z" />
<glyph d="M538 532l-490 -300l14 62l491 301zM166 487q-22 0 -40.5 8t-32.5 22.5t-22 33t-8 39.5q0 25 9.5 47.5t26 40t39 28t49.5 10.5q45 0 74.5 -29t29.5 -73q0 -26 -10 -49t-27 -40.5t-40 -27.5t-48 -10zM184 674q-31 0 -54.5 -23.5t-23.5 -57.5q0 -26 17 -45.5t46 -19.5 q15 0 29 6.5t25.5 17.5t18 26t6.5 33q0 26 -17.5 44.5t-46.5 18.5zM405 -6q-29 0 -52 14t-35 37q-17 -23 -42 -37t-54 -14q-22 0 -41 8t-33 22.5t-22 33t-8 39.5q0 24 9.5 47t26.5 41t40 28.5t50 10.5q30 0 52.5 -14t33.5 -37q16 23 40.5 37t55.5 14q45 0 74.5 -29.5 t29.5 -72.5q0 -26 -10 -49.5t-27.5 -41t-40 -27.5t-47.5 -10zM225 36q28 0 50.5 19.5t27.5 51.5q0 3 0.5 5.5t0.5 6.5q0 26 -17 44.5t-46 18.5q-31 0 -54.5 -24t-23.5 -58q0 -26 16.5 -45t45.5 -19zM422 182q-31 0 -54 -24t-23 -58q0 -26 16.5 -45t45.5 -19q15 0 29.5 6.5 t25.5 17.5t17.5 26t6.5 33q0 26 -17.5 44.5t-46.5 18.5z" />
<glyph d="M487 20q-26 -14 -62 -22.5t-74 -8.5q-64 0 -112 20.5t-80.5 57t-50.5 86t-21 107.5h-84l12 51h71q2 24 5.5 47.5t8.5 46.5h-67l12 50h70q21 56 54.5 104.5t78.5 84.5t101 56.5t121 20.5q60 0 99.5 -17t64.5 -38l-32 -47q-23 20 -58.5 32.5t-80.5 12.5q-47 0 -90 -15 t-79.5 -42t-66 -65.5t-48.5 -86.5h309l-29 -50h-297q-6 -23 -9 -46t-5 -48h257l-30 -51h-226q7 -97 57.5 -155.5t148.5 -58.5q35 0 69 8t57 21z" />
<glyph d="M82 323v50h421v-50h-421z" />
<glyph d="M528 256q-23 -32 -54.5 -52t-78.5 -20q-23 0 -44.5 7t-46.5 20l-51 27q-36 19 -69 19t-54.5 -12.5t-41.5 -35.5l-35 30q24 32 54.5 53t77.5 21q22 0 45 -7.5t49 -21.5l46 -25q20 -10 39.5 -16t38.5 -6q30 0 51 12.5t40 35.5zM528 449q-23 -32 -54.5 -52t-78.5 -20 q-23 0 -44.5 7t-46.5 20l-51 27q-36 19 -69 19t-54.5 -12.5t-41.5 -35.5l-35 30q24 32 54.5 53t77.5 21q22 0 45 -7.5t49 -21.5l46 -25q20 -10 39.5 -16t38.5 -6q30 0 51 12.5t40 35.5z" />
<glyph d="M241 226l-85 -110h-61l84 110h-107v51h145l111 143h-256v50h293l83 107h62l-83 -107h92v-50h-129l-111 -143h240v-51h-278z" />
<glyph d="M79 434l404 147v-54l-336 -120l336 -118v-55l-404 147v53zM483 176v-51h-404v51h404z" />
<glyph d="M499 381l-405 -147v55l336 118l-336 120v54l405 -147v-53zM499 176v-51h-405v51h405z" />
<glyph horiz-adv-x="457" d="M5 0l11 56h153l113 535q-9 -15 -29.5 -29t-46 -26t-53.5 -20t-54 -10l10 52q36 3 67 16.5t56 34t44 46.5t32 54h61l-138 -653h162l-11 -56h-377z" />
<glyph horiz-adv-x="184" d="M113 535h-48l75 180h69z" />
<glyph horiz-adv-x="160" d="M179 663q-24 -1 -45 -13.5t-29 -37.5q6 4 16 4q17 0 27.5 -10.5t10.5 -24.5q0 -20 -13.5 -34t-34.5 -14q-17 0 -31.5 10.5t-14.5 36.5q0 27 10.5 48t27.5 35.5t38.5 22.5t43.5 8z" />
<glyph horiz-adv-x="248" d="M191 606q0 19 13 33t33 14q16 0 26 -11.5t10 -25.5q0 -20 -13.5 -33t-32.5 -13q-17 0 -26.5 11t-9.5 25zM65 606q0 19 13 33t33 14q16 0 26 -11.5t10 -25.5q0 -20 -13.5 -33t-32.5 -13q-17 0 -26.5 11t-9.5 25z" />
<glyph horiz-adv-x="255" d="M65 814q0 20 13 33.5t33 13.5q16 0 25.5 -11.5t9.5 -25.5q0 -20 -13 -33t-32 -13q-16 0 -26 10.5t-10 25.5zM199 814q0 20 13 33.5t33 13.5q16 0 25.5 -11.5t9.5 -25.5q0 -20 -13 -33t-32 -13q-16 0 -26 10.5t-10 25.5z" />
<glyph horiz-adv-x="201" d="M65 878h78l83 -119h-57z" />
<glyph horiz-adv-x="330" d="M65 814q0 21 14 35t35 14q17 0 27 -12t10 -27q0 -21 -14 -34.5t-34 -13.5q-17 0 -27.5 11t-10.5 27zM270 814q0 21 14 35t35 14q17 0 27 -12t10 -27q0 -21 -14 -34.5t-34 -13.5q-17 0 -27.5 11t-10.5 27z" />
<glyph horiz-adv-x="317" d="M65 793l11 54h266l-11 -54h-266z" />
<glyph horiz-adv-x="255" d="M129 759h-64l128 119h87z" />
<glyph horiz-adv-x="340" d="M65 759l134 119h81l85 -119h-53l-78 83l-110 -83h-59z" />
<glyph horiz-adv-x="340" d="M117 878l76 -83l110 83h62l-137 -119h-81l-82 119h52z" />
<glyph horiz-adv-x="328" d="M187 754q-31 0 -54 8.5t-38 23.5t-22.5 34.5t-7.5 41.5q0 10 2 18h49q-1 -4 -1 -10q0 -26 17.5 -46.5t59.5 -20.5q23 0 41 6.5t31.5 17.5t23 24.5t14.5 28.5h51q-7 -24 -21 -46.5t-35 -40t-48.5 -28.5t-61.5 -11z" />
<glyph horiz-adv-x="134" d="M65 813q0 22 15 38t38 16q19 0 30 -13t11 -30q0 -22 -15 -37.5t-36 -15.5q-20 0 -31.5 12.5t-11.5 29.5z" />
<glyph horiz-adv-x="243" d="M173 905q-28 0 -46 -19.5t-18 -45.5q0 -23 14 -37.5t37 -14.5q26 0 45.5 18.5t19.5 46.5q0 22 -14.5 37t-37.5 15zM65 836q0 24 9.5 44.5t25 35.5t35.5 23t41 8q41 0 66.5 -26.5t25.5 -64.5q0 -22 -9 -42t-24 -35.5t-35 -24.5t-42 -9q-20 0 -37 7t-29.5 19.5t-19.5 29 t-7 35.5z" />
<glyph horiz-adv-x="365" d="M390 872q-11 -58 -40 -83.5t-65 -25.5q-19 0 -34.5 7t-28.5 18l-16 14q-11 10 -20.5 14.5t-22.5 4.5q-19 0 -32.5 -13.5t-18.5 -41.5h-47q8 56 38 82t66 26q20 0 36 -7.5t29 -18.5l16 -14q11 -10 19.5 -14.5t21.5 -4.5q40 0 52 57h47z" />
<glyph horiz-adv-x="322" d="M114 759h-49l82 119h72zM238 759h-49l87 119h73z" />
<glyph horiz-adv-x="188" d="M114 524h-49l76 185h72z" />
<glyph horiz-adv-x="191" d="M-42 -172q24 1 45 13.5t29 37.5q-6 -4 -16 -4q-17 0 -27.5 10.5t-10.5 24.5q0 20 13.5 34t34.5 14q17 0 31.5 -10.5t14.5 -36.5q0 -27 -10.5 -48t-27.5 -35.5t-38.5 -22.5t-43.5 -8z" />
</font>
</defs>
</svg>
