<?xml version="1.0" standalone="no"?>
<!DOCTYPE svg PUBLIC "-//W3C//DTD SVG 1.1//EN" "http://www.w3.org/Graphics/SVG/1.1/DTD/svg11.dtd" >
<svg xmlns="http://www.w3.org/2000/svg" xmlns:xlink="http://www.w3.org/1999/xlink" version="1.1">
<metadata></metadata>
<defs>
<font id="circular_spotify_tx_tBlkIt" horiz-adv-x="587" >
<font-face units-per-em="1000" ascent="750" descent="-250" />
<missing-glyph horiz-adv-x="229" />
<glyph unicode="fy" horiz-adv-x="924" d="M356 -190l165 266l-72 293h-170l-77 -369h-153l79 369h-84l27 128h84l16 71q20 87 73.5 126t129.5 39q23 0 48.5 -5.5t40.5 -13.5l-26 -124q0 -1 -11.5 4t-35.5 5q-31 0 -49.5 -17t-25.5 -47l-9 -38h271l56 -265l155 265h168l-433 -687h-167z" />
<glyph unicode="&#xd;" horiz-adv-x="229" />
<glyph unicode=" "  horiz-adv-x="229" />
<glyph unicode="&#x09;" horiz-adv-x="229" />
<glyph unicode="&#xa0;" horiz-adv-x="229" />
<glyph unicode="!" horiz-adv-x="287" d="M138 709h182l-138 -487h-112zM14 67q0 20 7.5 37.5t20.5 30.5t30.5 20.5t36.5 7.5q36 0 57 -23t21 -54q0 -20 -8 -37.5t-21 -30.5t-30 -20.5t-35 -7.5q-35 0 -57 22.5t-22 54.5z" />
<glyph unicode="&#x22;" horiz-adv-x="436" d="M120 426l-11 173q0 2 -0.5 10t-0.5 25q0 38 25.5 62t62.5 24q35 0 56.5 -20.5t21.5 -51.5q0 -11 -4.5 -23.5t-9.5 -23.5l-88 -175h-52zM316 426l-11 173q0 2 -0.5 10t-0.5 25q0 38 25.5 62t62.5 24q35 0 56.5 -20.5t21.5 -51.5q0 -11 -4.5 -23.5t-9.5 -23.5l-88 -175h-52 z" />
<glyph unicode="#" horiz-adv-x="716" d="M88 547h145l35 162h114l-35 -162h126l35 162h115l-35 -162h122v-105h-144l-35 -160h123v-106h-146l-37 -176h-115l37 176h-126l-37 -176h-114l37 176h-119v106h142l35 160h-123v105zM290 282h126l35 160h-126z" />
<glyph unicode="$" horiz-adv-x="582" d="M275 131q45 0 68.5 19.5t23.5 51.5q0 20 -9.5 37t-39.5 29l-80 32q-69 29 -101.5 77.5t-32.5 110.5q0 46 17.5 84.5t47.5 67t70 46t85 21.5l23 116h126l-27 -128q41 -13 68 -35.5t43.5 -49t23 -53t6.5 -47.5l-141 -23q0 7 -3 22t-13 30t-30.5 26.5t-54.5 11.5 q-42 0 -65 -23.5t-23 -52.5q0 -26 14 -41t34 -23l72 -31q80 -34 114 -81.5t34 -110.5q0 -39 -15 -76t-44 -66.5t-71.5 -49t-96.5 -22.5l-24 -116h-126l27 130q-43 13 -73 37t-49 52t-27.5 58t-8.5 57q0 9 0.5 15t1.5 11l140 24q-2 -10 -2 -22q0 -21 6.5 -42t21 -37t36.5 -26 t54 -10z" />
<glyph unicode="%" horiz-adv-x="874" d="M223 0h-134l587 709h134zM243 490q24 0 45.5 19t21.5 56q0 23 -13.5 39t-37.5 16q-25 0 -46 -19.5t-21 -55.5q0 -24 13.5 -39t37.5 -16zM235 389q-33 0 -60.5 11.5t-47.5 32t-31 47.5t-11 59q0 40 15.5 73.5t41 57.5t58 37.5t67.5 13.5q33 0 60.5 -12t47.5 -32t31 -47.5 t11 -58.5q0 -41 -15.5 -74.5t-41 -57.5t-58.5 -37t-67 -13zM640 89q24 0 45.5 19t21.5 56q0 23 -13.5 39t-37.5 16q-25 0 -46 -19.5t-21 -55.5q0 -24 13.5 -39t37.5 -16zM632 -12q-33 0 -60.5 11.5t-47.5 32t-31 47.5t-11 59q0 40 15.5 73.5t41 57.5t58 37.5t67.5 13.5 q33 0 60.5 -12t47.5 -32t31 -47.5t11 -58.5q0 -41 -15.5 -74.5t-41 -57.5t-58.5 -37t-67 -13z" />
<glyph unicode="&#x26;" horiz-adv-x="691" d="M456 0l-47 67l-14 -12q-38 -32 -80 -48t-92 -16t-88.5 16t-64.5 41.5t-39 58.5t-13 67q0 39 12 70t33 56t50 46t64 40l8 4l-6 9q-17 25 -32.5 59t-15.5 72q0 48 18 84.5t48 61t68.5 36.5t79.5 12q43 0 78 -13t60 -35.5t38.5 -53t13.5 -64.5q0 -35 -11 -62.5t-30 -50 t-44.5 -41t-55.5 -34.5l-20 -11l71 -103l221 188l-42 -197l-109 -91l109 -156h-168zM166 190q0 -27 21 -48t53 -21q44 0 89 38l10 8l-87 126l-16 -9q-32 -17 -51 -38.5t-19 -55.5zM335 472q31 17 44.5 36t13.5 39q0 23 -16 38.5t-44 15.5q-21 0 -42 -15t-21 -51 q0 -17 7.5 -32t15.5 -27l13 -20z" />
<glyph unicode="'" horiz-adv-x="240" d="M120 426l-11 173q0 2 -0.5 10t-0.5 25q0 38 25.5 62t62.5 24q35 0 56.5 -20.5t21.5 -51.5q0 -11 -4.5 -23.5t-9.5 -23.5l-88 -175h-52z" />
<glyph unicode="(" horiz-adv-x="358" d="M38 209q0 106 21.5 196.5t64 167t105.5 140.5t146 119l68 -90q-60 -42 -110.5 -94.5t-88 -116.5t-58.5 -142t-21 -171q0 -91 28 -174.5t75 -149.5l-100 -71q-25 34 -48.5 77.5t-41.5 93t-29 104t-11 111.5z" />
<glyph unicode=")" horiz-adv-x="358" d="M334 443q0 -200 -89 -353t-251 -267l-69 90q58 45 109 98.5t89.5 118t60.5 142.5t22 171q0 88 -27 169.5t-75 146.5l102 70q27 -37 50 -80t40.5 -92t27.5 -102.5t10 -111.5z" />
<glyph unicode="*" horiz-adv-x="483" d="M358 585l120 37l18 -114l-122 -35l55 -95l-103 -66l-57 101l-94 -104l-83 69l95 103l-108 35l51 107l107 -36l22 122h124z" />
<glyph unicode="+" horiz-adv-x="595" d="M375 102h-128v195h-190v124h190v195h128v-195h190v-124h-190v-195z" />
<glyph unicode="," horiz-adv-x="296" d="M1 77q0 23 8.5 42t23.5 32.5t34.5 21t41.5 7.5q47 0 73 -30.5t26 -75.5q0 -52 -19 -96t-52 -77t-77.5 -52.5t-94.5 -22.5l16 73q17 1 36.5 9t37.5 21t32 31.5t19 41.5q-3 -2 -10 -3t-13 -1q-38 0 -60 23t-22 56z" />
<glyph unicode="-" horiz-adv-x="421" d="M47 233l29 137h300l-30 -137h-299z" />
<glyph unicode="." horiz-adv-x="289" d="M94 -7q-43 0 -68 27.5t-25 64.5q0 22 9 42t24.5 35t36.5 24t45 9q42 0 66.5 -26.5t24.5 -64.5q0 -22 -9 -42t-24 -35.5t-35.5 -24.5t-44.5 -9z" />
<glyph unicode="/" horiz-adv-x="535" d="M104 0h-142l495 709h143z" />
<glyph unicode="0" horiz-adv-x="659" d="M295 -15q-67 0 -114 23t-76.5 60.5t-43 85t-13.5 97.5q0 43 7.5 94.5t24.5 104t43.5 102t64.5 88t88 61.5t114 23q66 0 113 -22.5t77 -59.5t43.5 -84.5t13.5 -97.5q0 -44 -7.5 -96t-24.5 -104.5t-43.5 -102t-64.5 -88t-88.5 -61.5t-113.5 -23zM205 260q0 -60 22.5 -97.5 t78.5 -37.5q47 0 80 34.5t53.5 84.5t30 106t9.5 99q0 29 -4.5 53.5t-16 42.5t-31 28.5t-48.5 10.5q-32 0 -57.5 -16t-45 -42t-33 -60t-22 -70t-12.5 -71.5t-4 -64.5z" />
<glyph unicode="1" horiz-adv-x="387" d="M102 0l101 478h-144l22 104q71 2 120.5 37.5t71.5 89.5h136l-149 -709h-158z" />
<glyph unicode="2" horiz-adv-x="601" d="M339 377q56 25 80 55t24 72q0 32 -22.5 56.5t-66.5 24.5q-59 0 -85 -37.5t-26 -99.5l-148 15q1 57 20.5 105t54.5 82.5t84.5 54t111.5 19.5q57 0 100 -18.5t72.5 -48.5t44.5 -69t15 -80q0 -87 -48 -144t-136 -97l-145 -67q-21 -10 -41.5 -26t-31.5 -40h323l-31 -134h-505 q10 106 63 187t167 133z" />
<glyph unicode="3" horiz-adv-x="608" d="M189 436l214 140h-294l25 133h489l-29 -151l-200 -129q34 -4 62 -19.5t48.5 -40t32 -56.5t11.5 -70q0 -50 -20 -96.5t-56 -82.5t-87 -57.5t-113 -21.5q-64 0 -111.5 19.5t-79 52t-47.5 74.5t-16 86v7.5t2 9.5l155 18q-1 -6 -1 -11v-9q0 -49 26 -80t73 -31q53 0 83.5 34 t30.5 83t-27 72.5t-69 23.5q-12 0 -25 -2t-22 -7z" />
<glyph unicode="4" horiz-adv-x="642" d="M33 314l364 395h190l-91 -425h117l-27 -134h-118l-31 -150h-157l30 150h-312zM394 539l-225 -255h170z" />
<glyph unicode="5" horiz-adv-x="588" d="M162 245q-1 -5 -1 -8.5v-5.5q0 -21 5.5 -41t18 -35.5t31.5 -25t46 -9.5q23 0 44.5 8t38 23.5t26.5 39t10 54.5q0 47 -27 73t-72 26q-30 0 -53.5 -9.5t-40.5 -25.5l-126 62l145 338h392l-30 -134h-278l-61 -142q16 17 44.5 25t52.5 8q103 0 158 -55t55 -149 q0 -57 -20 -107.5t-57 -88t-89.5 -59.5t-116.5 -22q-58 0 -103 19t-76 51t-47.5 74t-16.5 89z" />
<glyph unicode="6" horiz-adv-x="631" d="M594 552q-25 16 -59 25.5t-70 9.5q-41 0 -78 -11.5t-68 -34.5t-54.5 -56.5t-36.5 -78.5q25 32 64.5 48.5t80.5 16.5q48 0 86.5 -15t64.5 -42t40 -65t14 -84q0 -63 -22 -114.5t-60.5 -88t-90 -57t-110.5 -20.5q-52 0 -97.5 19t-79 53.5t-53 84t-19.5 110.5q0 97 29 182.5 t84 150t133 102t176 37.5q63 0 112 -15.5t78 -38.5zM323 345q-25 0 -47 -9t-38.5 -25t-26 -39t-9.5 -50q0 -45 26 -74t73 -29q23 0 44.5 8.5t38 24.5t26.5 39t10 52q0 46 -24.5 74t-72.5 28z" />
<glyph unicode="7" horiz-adv-x="557" d="M602 579q-16 -10 -44 -32t-63.5 -56.5t-75.5 -82.5t-79 -109t-74.5 -135.5t-61.5 -163.5h-166q22 83 54.5 155.5t69 133t75 109t73 85t61 60t40.5 33.5h-329l28 133h520z" />
<glyph unicode="8" horiz-adv-x="607" d="M539 203q-1 -52 -23.5 -92.5t-60.5 -68.5t-87.5 -42.5t-103.5 -14.5q-49 0 -93 12.5t-77 36.5t-52 60t-19 83q0 36 12.5 67.5t35.5 56.5t54.5 42.5t69.5 25.5q-36 17 -62 55t-26 85q0 48 19.5 87.5t54.5 68t83 44t104 15.5t99 -14.5t72.5 -40t44.5 -59t15 -72.5 q0 -32 -10.5 -62t-29.5 -54.5t-47 -42t-62 -26.5q21 -9 37.5 -25t28 -36t17.5 -43t6 -46zM339 418q48 0 74 28.5t26 67.5q0 30 -19 54.5t-60 24.5q-26 0 -45 -8t-31.5 -21t-18.5 -30t-6 -35q0 -14 5 -28.5t14.5 -26t24.5 -19t36 -7.5zM177 203q0 -41 26 -65.5t72 -24.5 q25 0 46 9t35.5 23.5t22.5 33.5t8 39q0 17 -5.5 33t-17 28.5t-30 20t-45.5 7.5t-47.5 -9t-35 -23.5t-22 -33.5t-7.5 -38z" />
<glyph unicode="9" horiz-adv-x="628" d="M234 466q0 -42 25 -70.5t72 -28.5q51 0 82.5 33t31.5 87q0 47 -26 75t-73 28q-23 0 -43 -8.5t-35.5 -24.5t-24.5 -39t-9 -52zM67 162q33 -20 67 -29t69 -9q41 0 78 12t67 35.5t51.5 57t30.5 76.5q-24 -32 -60.5 -48t-78.5 -16q-48 0 -87.5 16t-68 44.5t-44 68t-15.5 86.5 q0 61 22 111t59.5 84.5t87.5 53.5t107 19q55 0 101.5 -18.5t80 -53.5t52.5 -86t19 -116q0 -107 -30.5 -193t-84.5 -146.5t-128 -93t-161 -32.5q-52 0 -104 13.5t-90 42.5z" />
<glyph unicode=":" horiz-adv-x="307" d="M100 -7q-41 0 -65.5 27t-24.5 63q0 21 8.5 40.5t24 34t35.5 23.5t44 9q41 0 64.5 -26t23.5 -63q0 -21 -8.5 -40.5t-23 -34.5t-34.5 -24t-44 -9zM165 308q-41 0 -65.5 27t-24.5 63q0 21 8.5 40.5t24 34t35.5 23.5t44 9q41 0 64.5 -26t23.5 -63q0 -21 -8.5 -40.5t-23 -34.5 t-34.5 -24t-44 -9z" />
<glyph unicode=";" horiz-adv-x="312" d="M10 71q0 22 8 40t22.5 31t33 20t39.5 7q44 0 69 -29t25 -72q0 -49 -18 -91t-49.5 -73.5t-74 -50t-89.5 -20.5l15 69q16 1 34.5 8.5t35.5 20t30.5 30t18.5 39.5q-3 -2 -9.5 -3t-12.5 -1q-36 0 -57 22t-21 53zM168 307q-41 0 -65.5 27t-24.5 63q0 21 8.5 40.5t24 34 t35.5 23.5t44 9q41 0 64.5 -26t23.5 -63q0 -21 -8.5 -40.5t-23 -34.5t-34.5 -24t-44 -9z" />
<glyph unicode="&#x3c;" horiz-adv-x="571" d="M54 413l439 224v-138l-289 -137l289 -139v-140l-439 222v108z" />
<glyph unicode="=" horiz-adv-x="653" d="M86 522h495v-122h-495v122zM86 321h495v-122h-495v122z" />
<glyph unicode="&#x3e;" horiz-adv-x="571" d="M544 306l-439 -223v137l288 138l-288 139v140l439 -223v-108z" />
<glyph unicode="?" horiz-adv-x="532" d="M180 220v7q0 21 3.5 45t14.5 48t31 46.5t54 41.5l58 32q27 15 39 36.5t12 44.5q0 13 -4.5 25t-14 22t-24 16t-35.5 6q-25 0 -44 -9.5t-31.5 -25.5t-18.5 -37t-6 -43l-138 13q0 49 18 92t50.5 75t78 50.5t100.5 18.5q57 0 99.5 -16t70.5 -41.5t41.5 -58t13.5 -65.5 q0 -75 -38 -125t-98 -84l-43 -25q-35 -20 -51.5 -38.5t-21.5 -50.5h-116zM138 67q0 20 7.5 37.5t20.5 30.5t30.5 20.5t36.5 7.5q36 0 57 -23t21 -54q0 -20 -8 -37.5t-21 -30.5t-30 -20.5t-35 -7.5q-35 0 -57 22.5t-22 54.5z" />
<glyph unicode="@" horiz-adv-x="831" d="M462 -48q-88 0 -162 27t-127.5 76.5t-83.5 119.5t-30 155q0 88 31 160.5t85 124.5t126 81t154 29q78 0 143.5 -25t113.5 -69t75 -104.5t27 -130.5q0 -57 -18 -104t-47.5 -80t-66.5 -51.5t-76 -19.5h-4q-42 0 -64 19t-29 39q-17 -30 -48 -45t-66 -15q-32 0 -59.5 12.5 t-48 35.5t-32 54.5t-11.5 69.5q0 49 16 90t42.5 70.5t62 46t74.5 16.5q27 0 54 -13t38 -40l8 40h102l-51 -244q-1 -4 -1 -8v-6q0 -7 5.5 -16.5t21.5 -9.5q17 0 34 11.5t30.5 32t21.5 49.5t8 65q0 52 -19 94.5t-52.5 73t-80.5 47t-102 16.5q-62 0 -114.5 -21t-90.5 -59.5 t-60 -92.5t-22 -120q0 -61 20 -113t57.5 -90t92 -59.5t123.5 -21.5q43 0 87.5 11.5t86.5 40.5l51 -73q-20 -17 -47 -31t-57 -24t-61.5 -15.5t-59.5 -5.5zM509 365q0 32 -15.5 51t-44.5 19q-21 0 -38 -9t-29 -24.5t-18.5 -36.5t-6.5 -45q0 -37 15.5 -60t47.5 -23 q38 0 63 35.5t26 92.5z" />
<glyph unicode="A" horiz-adv-x="717" d="M463 144h-263l-79 -144h-177l412 709h183l107 -709h-164zM280 288h164l-31 244z" />
<glyph unicode="B" horiz-adv-x="620" d="M411 709q48 0 84 -13t60 -35.5t35.5 -53.5t11.5 -68q0 -30 -10.5 -59t-28.5 -53.5t-42.5 -42t-52.5 -25.5q15 -5 31.5 -17t30 -29.5t22.5 -41t9 -51.5q0 -49 -18.5 -89.5t-51.5 -69.5t-78.5 -45t-100.5 -16h-296l150 709h245zM340 425q46 0 74.5 23.5t28.5 65.5 q0 30 -19.5 47t-61.5 17h-70l-32 -153h80zM291 129q51 0 83 25.5t32 70.5q0 32 -21 51t-64 19h-88l-36 -166h94z" />
<glyph unicode="C" horiz-adv-x="730" d="M440 724q76 0 130.5 -22t90.5 -56t55.5 -74.5t25.5 -77.5l-155 -48q-4 19 -13.5 41.5t-28 41t-47 31t-69.5 12.5q-39 0 -77 -16.5t-69 -49t-50 -80t-19 -109.5q0 -38 11.5 -70.5t33.5 -56.5t53.5 -37.5t71.5 -13.5q38 0 66 12t48 30t33 38.5t21 38.5l141 -57 q-13 -34 -38 -72t-64 -70.5t-94 -53.5t-127 -21t-130.5 24.5t-100 68t-64.5 102.5t-23 129q0 98 32.5 175t86.5 130.5t123 81.5t142 28z" />
<glyph unicode="D" horiz-adv-x="724" d="M324 152q51 0 90.5 22t66 57t40.5 79.5t14 88.5q0 35 -9.5 65t-29 51.5t-49.5 33.5t-72 12h-85l-86 -409h120zM17 0l148 709h219q74 0 132.5 -22t98.5 -61.5t61 -94.5t21 -121q0 -99 -31.5 -175.5t-84.5 -128.5t-121.5 -79t-142.5 -27h-300z" />
<glyph unicode="E" horiz-adv-x="578" d="M16 0l150 709h449l-32 -149h-291l-29 -135h264l-29 -139h-264l-29 -136h292l-32 -150h-449z" />
<glyph unicode="F" horiz-adv-x="572" d="M16 0l150 709h456l-32 -150h-299l-31 -150h263l-31 -144h-261l-57 -265h-158z" />
<glyph unicode="G" horiz-adv-x="766" d="M428 574q-38 0 -76.5 -16t-69 -48t-49.5 -80.5t-19 -112.5q0 -41 11 -75t32.5 -58.5t53 -38.5t72.5 -14q37 0 66.5 9t51 24.5t36 36.5t22.5 44h-207l29 134h352l-80 -379h-119v69q-27 -36 -73.5 -58t-107.5 -22q-69 0 -124.5 23.5t-95 66t-60.5 101t-21 128.5 q0 98 32 175t85 130.5t122.5 81.5t143.5 28l4 1q76 0 131 -21t92 -53t57 -71t26 -76l-155 -48q-4 19 -14 40.5t-29 38.5t-48 28.5t-71 11.5z" />
<glyph unicode="H" horiz-adv-x="736" d="M435 0l60 284h-261l-61 -284h-157l150 709h158l-59 -276h262l59 276h159l-151 -709h-159z" />
<glyph unicode="I" horiz-adv-x="317" d="M16 0l150 709h160l-151 -709h-159z" />
<glyph unicode="J" horiz-adv-x="559" d="M573 709l-108 -511q-10 -48 -33 -87.5t-56 -67.5t-74 -43t-88 -15q-51 0 -90.5 15t-67.5 41t-42.5 62.5t-14.5 80.5q0 15 1.5 32t5.5 34l5 22l153 23l-9 -47q-2 -7 -3 -20t-1 -19q0 -28 17 -51t55 -23q34 0 56 24t30 60l104 490h160z" />
<glyph unicode="K" horiz-adv-x="693" d="M306 277l-92 -84l-41 -193h-157l150 709h158l-59 -276l302 276h218l-356 -322l202 -387h-188z" />
<glyph unicode="L" horiz-adv-x="550" d="M16 0l150 709h158l-119 -558h301l-32 -151h-458z" />
<glyph unicode="M" horiz-adv-x="958" d="M661 0l100 469l-280 -469h-126l-91 463l-99 -463h-149l150 709h196l97 -478l278 478h230l-151 -709h-155z" />
<glyph unicode="N" horiz-adv-x="757" d="M459 0l-188 465l-99 -465h-156l150 709h180l170 -432l92 432h158l-151 -709h-156z" />
<glyph unicode="O" horiz-adv-x="778" d="M52 307q0 98 32 175.5t85 131t122 82t143 28.5q72 0 130.5 -23.5t100 -65.5t64 -101t22.5 -131q0 -98 -32 -175.5t-85.5 -131.5t-122.5 -82.5t-143 -28.5q-71 0 -129 23.5t-99.5 66t-64.5 101.5t-23 131zM589 397q0 78 -42 126.5t-121 48.5q-39 0 -77 -16.5t-68 -49 t-48.5 -80.5t-18.5 -110q0 -80 42.5 -128.5t119.5 -48.5q39 0 77 17t68 50t49 81t19 110z" />
<glyph unicode="P" horiz-adv-x="604" d="M400 709q48 0 88.5 -14.5t70 -41.5t45.5 -64.5t16 -82.5q0 -58 -20.5 -104.5t-57 -78.5t-88 -49.5t-114.5 -17.5h-112l-55 -256h-157l150 709h234zM296 573l-39 -181h81q33 0 55.5 8.5t36.5 23t20.5 32.5t6.5 36q0 37 -22 59t-75 22h-64z" />
<glyph unicode="Q" horiz-adv-x="778" d="M52 307q0 98 32 175.5t85 131t122 82t143 28.5q72 0 130.5 -23.5t100 -65.5t64 -101t22.5 -131q0 -102 -34 -180.5t-90 -132.5l68 -99l-121 -76l-67 97q-66 -27 -139 -27q-71 0 -129 23.5t-99.5 66t-64.5 101.5t-23 131zM444 356l91 -132q24 32 39 75.5t15 97.5 q0 78 -42 126.5t-121 48.5q-39 0 -77 -16.5t-68 -49t-48.5 -80.5t-18.5 -110q0 -80 42.5 -128.5t119.5 -48.5q10 0 20 1t21 4l-93 135z" />
<glyph unicode="R" horiz-adv-x="643" d="M304 264h-74l-56 -264h-158l150 709h255q51 0 89.5 -14t65 -38.5t39.5 -58.5t13 -73q0 -89 -48.5 -150t-123.5 -87l106 -288h-167zM348 400q55 0 86 28.5t31 73.5q0 32 -19.5 51.5t-63.5 19.5h-87l-37 -173h90z" />
<glyph unicode="S" horiz-adv-x="605" d="M284 122q46 0 71 20t25 54q0 21 -10.5 38t-40.5 30l-83 34q-72 29 -106 80t-34 115q0 52 21 94.5t56.5 72.5t82.5 46.5t98 16.5q73 0 120.5 -22t75 -54t38.5 -68t11 -63l-147 -24q0 7 -3 23t-13.5 31.5t-31.5 27.5t-57 12q-22 0 -39 -7t-29 -18t-18 -25t-6 -29 q0 -27 14.5 -42.5t35.5 -24.5l75 -32q83 -35 118.5 -84.5t35.5 -115.5q0 -42 -17 -82t-50 -71.5t-81 -50.5t-109 -19q-75 0 -127 22.5t-84 56.5t-46 73.5t-14 74.5q0 10 0.5 16t1.5 11l145 25q-2 -10 -2 -23q0 -22 7 -43t22 -37.5t38 -27t56 -11.5z" />
<glyph unicode="T" horiz-adv-x="597" d="M438 558l-119 -558h-158l118 558h-208l33 151h565l-33 -151h-198z" />
<glyph unicode="U" horiz-adv-x="693" d="M708 709l-102 -481q-13 -61 -40.5 -106.5t-65 -76t-84 -45.5t-98.5 -15q-58 0 -105 17t-80.5 47.5t-52 73.5t-18.5 96q0 24 3.5 44.5t8.5 46.5l83 399h160l-86 -407q-8 -38 -8 -60q0 -45 25 -73t84 -28q47 0 78.5 28.5t43.5 87.5l94 452h160z" />
<glyph unicode="V" horiz-adv-x="694" d="M323 207l271 502h180l-408 -709h-163l-108 709h165z" />
<glyph unicode="W" horiz-adv-x="1040" d="M682 709l51 -458l207 458h171l-342 -709h-159l-51 470l-244 -470h-169l-42 709h159l21 -457l236 457h162z" />
<glyph unicode="X" horiz-adv-x="664" d="M143 0h-201l312 359l-162 350h183l93 -219l178 219h200l-311 -359l163 -350h-185l-93 218z" />
<glyph unicode="Y" horiz-adv-x="646" d="M92 709h167l90 -262l182 262h190l-317 -414l-62 -295h-159l63 296z" />
<glyph unicode="Z" horiz-adv-x="639" d="M-20 0l33 152l416 406h-321l32 151h538l-30 -146l-427 -412h343l-32 -151h-552z" />
<glyph unicode="[" horiz-adv-x="341" d="M-34 -171l211 994h250l-24 -114h-124l-163 -764h124l-25 -116h-249z" />
<glyph unicode="\" horiz-adv-x="526" d="M108 709h128l205 -709h-128z" />
<glyph unicode="]" horiz-adv-x="341" d="M-73 -171l25 116h123l162 764h-124l24 114h250l-212 -994h-248z" />
<glyph unicode="^" horiz-adv-x="582" d="M364 709l200 -359h-138l-116 217l-117 -217h-140l199 359h112z" />
<glyph unicode="_" horiz-adv-x="547" d="M-58 0h511v-124h-511v124z" />
<glyph unicode="`" horiz-adv-x="281" d="M16 707h166l59 -151h-117z" />
<glyph unicode="a" horiz-adv-x="598" d="M292 371q-28 0 -49.5 -13t-36 -34.5t-22 -48t-7.5 -53.5q0 -48 24.5 -73.5t62.5 -25.5q21 0 41 9.5t36 28.5t26 47.5t10 67.5q0 47 -23.5 71t-61.5 24zM576 497l-85 -397q-5 -20 -7 -41t-2 -40v-7t1 -12h-138q-1 5 -1 10v8q0 21 3 41q-7 -11 -18 -23t-26 -22t-35.5 -16 t-45.5 -6q-45 0 -81 17t-61.5 47t-39 71t-13.5 88q0 65 19.5 119t53.5 93t79.5 60.5t98.5 21.5q36 0 61 -7.5t41.5 -18t25.5 -21.5t13 -18l10 53h147z" />
<glyph unicode="b" horiz-adv-x="613" d="M1 0l153 724h149l-55 -266q17 20 50.5 34.5t74.5 14.5q48 0 84.5 -16.5t61 -44.5t37 -66.5t12.5 -81.5q0 -68 -20.5 -125t-55.5 -98t-82 -64t-101 -23q-30 0 -55 7.5t-43.5 18.5t-30.5 24.5t-18 25.5l-13 -64h-148zM322 373q-27 0 -49.5 -12.5t-38.5 -32.5t-25 -47 t-9 -55q0 -51 27.5 -76.5t65.5 -25.5q20 0 41.5 9t39.5 28t29.5 47.5t11.5 66.5q0 51 -27 74.5t-66 23.5z" />
<glyph unicode="c" horiz-adv-x="554" d="M393 302q-5 27 -27 48.5t-66 21.5q-22 0 -44 -9t-40 -27.5t-29 -46.5t-11 -65q0 -48 27.5 -73.5t71.5 -25.5q37 0 61.5 18.5t37.5 44.5l124 -47q-12 -30 -33.5 -58t-50.5 -50t-67 -35t-83 -13q-50 0 -93.5 17t-75.5 48.5t-50.5 74.5t-18.5 96q0 67 23.5 121t63.5 91.5 t91 58t107 20.5q51 0 89.5 -15t65.5 -39t43 -55t21 -63z" />
<glyph unicode="d" horiz-adv-x="598" d="M491 100q-4 -16 -6.5 -36.5t-2.5 -40.5v-12t1 -11h-138q-1 5 -1 9.5v12.5q0 11 1 20t2 17q-7 -11 -18 -23t-26 -22t-35.5 -16t-45.5 -6q-45 0 -81 17t-61.5 47t-39 71t-13.5 88q0 65 19.5 119t53.5 93t79.5 60.5t98.5 21.5q31 0 54.5 -6t39.5 -15t26 -19t15 -18l58 273 h152zM292 371q-28 0 -49.5 -13t-36 -34.5t-22 -48t-7.5 -53.5q0 -48 24.5 -73.5t62.5 -25.5q21 0 41 9.5t36 28.5t26 47.5t10 67.5q0 47 -23.5 71t-61.5 24z" />
<glyph unicode="e" horiz-adv-x="554" d="M374 308v7q0 12 -4.5 25.5t-14 24.5t-26 18.5t-40.5 7.5q-45 0 -71.5 -23t-38.5 -60h195zM165 209q0 -40 25.5 -69.5t78.5 -29.5q32 0 56.5 16t36.5 40l118 -53q-12 -24 -31.5 -47t-47 -41t-63.5 -29t-82 -11q-47 0 -88.5 17t-73 47.5t-50 73t-18.5 93.5q0 69 22.5 123.5 t60 93t84.5 59t97 20.5q52 0 94 -16t70.5 -44.5t44 -67.5t15.5 -85q0 -17 -3 -41.5t-11 -47.5z" />
<glyph unicode="f" horiz-adv-x="386" d="M279 369l-77 -369h-153l79 369h-84l27 128h84l16 71q20 87 73.5 126t129.5 39q23 0 48.5 -5.5t40.5 -13.5l-26 -124q0 -1 -11.5 4t-35.5 5q-31 0 -49.5 -17t-25.5 -47l-9 -38h103l-28 -128h-102z" />
<glyph unicode="g" horiz-adv-x="601" d="M380 285q0 41 -24.5 64.5t-60.5 23.5q-50 0 -82 -35.5t-32 -91.5q0 -42 24.5 -65.5t64.5 -23.5q21 0 41 9t35 25.5t24.5 40t9.5 53.5zM102 13q0 -36 25 -61.5t75 -25.5q48 0 82 30t48 88l7 31q-13 -16 -40.5 -30.5t-68.5 -14.5q-46 0 -83 15.5t-63.5 43t-40.5 65 t-14 81.5q0 57 19 107t52 86.5t78.5 58t99.5 21.5q62 0 97.5 -21t47.5 -42l10 52h147l-96 -455q-11 -52 -34 -97t-58.5 -78.5t-82.5 -52.5t-105 -19q-62 0 -106.5 17.5t-73 45t-42 62t-13.5 67.5z" />
<glyph unicode="h" horiz-adv-x="583" d="M310 0l57 264q4 17 5 26t1 16q0 31 -18 50t-52 19q-35 0 -57.5 -24.5t-30.5 -62.5l-62 -288h-152l153 724h153l-57 -267q23 28 57 40.5t68 12.5q39 0 68 -12.5t48.5 -34t29.5 -50.5t10 -63q0 -14 -1.5 -29.5t-6.5 -35.5l-61 -285h-152z" />
<glyph unicode="i" horiz-adv-x="279" d="M124 642q0 41 28 68.5t70 27.5q35 0 57 -22t22 -55q0 -22 -8 -39.5t-21.5 -30t-31.5 -19.5t-37 -7q-35 0 -57 22t-22 55zM0 0l106 497h152l-106 -497h-152z" />
<glyph unicode="j" horiz-adv-x="279" d="M107 497h151l-117 -551q-16 -76 -63 -113.5t-113 -37.5q-37 0 -63 9.5t-36 17.5l25 118q0 1 13 -5t36 -6q22 0 36.5 12t19.5 39zM125 642q0 41 27.5 68.5t69.5 27.5q36 0 58 -22t22 -55q0 -22 -8 -39.5t-21.5 -30t-31.5 -19.5t-37 -7q-35 0 -57 22t-22 55z" />
<glyph unicode="k" horiz-adv-x="569" d="M245 184l-65 -57l-27 -127h-152l153 724h153l-82 -383l174 156h207l-248 -215l138 -282h-169z" />
<glyph unicode="l" horiz-adv-x="280" d="M1 0l154 724h152l-154 -724h-152z" />
<glyph unicode="m" horiz-adv-x="888" d="M309 0l59 274q2 10 3 18t1 13q0 30 -17 50t-52 20t-57 -24t-30 -62l-62 -289h-152l87 414q6 30 7.5 50.5t1.5 32.5h148v-27t-2 -20q23 31 59.5 45.5t71.5 14.5q50 0 83.5 -20t51.5 -52q19 24 41.5 38t44.5 21.5t42.5 10t35.5 2.5q37 0 67 -12.5t51 -34.5t32 -52.5 t11 -65.5q0 -12 -1.5 -24t-3.5 -25l-63 -296h-151l58 273q2 9 3 18t1 14q0 30 -17 50t-51 20q-36 0 -57.5 -24t-29.5 -62l-62 -289h-152z" />
<glyph unicode="n" horiz-adv-x="584" d="M311 0l56 263q4 16 5 26.5t1 16.5q0 31 -17 50t-52 19t-57.5 -24.5t-30.5 -62.5l-62 -288h-152l87 414q6 29 7.5 47.5t1.5 35.5h148q0 -5 -0.5 -19t-2.5 -28q23 32 60.5 46t72.5 14q39 0 68 -12.5t48.5 -34t29.5 -50.5t10 -63q0 -27 -6 -55l-63 -295h-152z" />
<glyph unicode="o" horiz-adv-x="584" d="M296 373q-27 0 -49.5 -12.5t-38 -33t-24 -47.5t-8.5 -55q0 -48 26 -74.5t65 -26.5q19 0 40.5 9t39 27t29 46t11.5 67q0 50 -25 74.5t-66 25.5zM538 280q0 -59 -20.5 -112.5t-57.5 -94t-89 -64.5t-114 -24q-52 0 -94.5 18t-73 49t-47 73.5t-16.5 92.5q0 66 22.5 120.5 t61 93t89.5 59.5t108 21q53 0 95.5 -18t72.5 -49t46.5 -73.5t16.5 -91.5z" />
<glyph unicode="p" horiz-adv-x="614" d="M323 375q-27 0 -49.5 -12.5t-38 -33.5t-24.5 -48t-9 -55q0 -51 27 -76.5t65 -25.5q20 0 41.5 9t39 28t29 47.5t11.5 66.5q0 50 -26.5 75t-65.5 25zM243 449q19 23 54 40.5t77 17.5q48 0 84.5 -16t61 -44t37 -66t12.5 -83q0 -68 -20.5 -125t-56 -98t-82.5 -64t-101 -23 q-57 0 -94 20.5t-52 43.5l-50 -242h-152l128 604q6 30 7.5 50.5t1.5 32.5h148q0 -14 -0.5 -27.5t-2.5 -20.5z" />
<glyph unicode="q" horiz-adv-x="598" d="M430 -191h-152l47 222q-17 -17 -43 -28t-62 -11q-44 0 -80 17.5t-61 47.5t-38.5 70.5t-13.5 87.5q0 65 19.5 119t53.5 92.5t80 60t98 21.5q36 0 61 -7t42 -17t26 -21t13 -18l10 52h147zM292 371q-28 0 -49 -13t-35.5 -34.5t-22 -48t-7.5 -53.5q0 -48 25 -73.5t63 -25.5 q21 0 41 9.5t35.5 28.5t25.5 47.5t10 66.5q0 48 -24 72t-62 24z" />
<glyph unicode="r" horiz-adv-x="399" d="M386 344q-15 5 -27.5 7t-32.5 2q-19 0 -38 -6t-35.5 -20.5t-29.5 -39t-21 -60.5l-49 -227h-152l88 414q6 30 7.5 50.5t1.5 32.5h148q0 -2 -0.5 -19.5t-3.5 -34.5q24 33 56.5 45.5t67.5 12.5q17 0 31 -3t21 -6z" />
<glyph unicode="s" horiz-adv-x="468" d="M132 171q-1 -5 -1 -9q0 -32 18 -49t47 -17q27 0 40 12t13 29q0 11 -6 22.5t-28 20.5l-48 20q-63 26 -88 63t-25 82q0 34 14 64t39.5 53t61.5 36.5t79 13.5q58 0 95 -16.5t57.5 -40.5t28.5 -51t8 -48l-130 -15q0 10 -2 21t-8.5 20.5t-18.5 15.5t-31 6q-22 0 -36.5 -12 t-14.5 -31q0 -13 7.5 -22t19.5 -14l62 -25q63 -26 88 -64.5t25 -84.5q0 -30 -13 -60t-37.5 -53.5t-61.5 -38t-85 -14.5q-62 0 -100.5 18t-60 43.5t-29 52.5t-7.5 45v6z" />
<glyph unicode="t" horiz-adv-x="391" d="M231 182q-1 -5 -1.5 -9t-0.5 -8q0 -23 14 -33t37 -10q17 0 37 5l-26 -120q-5 -2 -22.5 -8t-46.5 -6q-70 0 -109.5 36.5t-39.5 97.5q0 11 1.5 21.5t3.5 21.5l40 194h-86l28 133h24q42 0 63.5 21.5t30.5 59.5l15 64h136l-31 -145h96l-29 -133h-95z" />
<glyph unicode="u" horiz-adv-x="580" d="M252 497l-60 -281q-3 -15 -3 -28q0 -30 17 -48t51 -18q35 0 56.5 24.5t29.5 62.5l62 288h152l-86 -410q-3 -14 -6 -35.5t-3 -51.5h-147q-1 5 -1 10v7q0 8 0.5 15.5t1.5 15.5q-17 -29 -51 -45t-69 -16q-40 0 -70.5 13t-51.5 35t-31.5 52t-10.5 65q0 26 6 53l62 292h152z " />
<glyph unicode="v" horiz-adv-x="550" d="M291 0h-152l-88 497h157l38 -310l162 310h169z" />
<glyph unicode="w" horiz-adv-x="844" d="M541 497l34 -293l136 293h155l-251 -497h-150l-39 321l-164 -321h-156l-47 497h149l21 -292l150 292h162z" />
<glyph unicode="x" horiz-adv-x="549" d="M129 0h-180l233 255l-130 242h167l64 -131l112 131h183l-231 -252l131 -245h-166l-66 135z" />
<glyph unicode="y" horiz-adv-x="540" d="M-28 -190l165 266l-103 421h159l56 -265l155 265h168l-433 -687h-167z" />
<glyph unicode="z" horiz-adv-x="505" d="M-19 0l28 134l263 234h-206l28 129h407l-27 -125l-274 -242h226l-28 -130h-417z" />
<glyph unicode="{" horiz-adv-x="378" d="M35 393q43 0 74.5 20t42.5 68l31 145q12 56 32.5 93.5t49.5 60.5t66.5 33t82.5 10h50l-24 -114h-37q-32 0 -58 -16.5t-36 -64.5l-36 -170q-11 -48 -41.5 -83.5t-84.5 -45.5q36 -12 54.5 -38.5t18.5 -62.5q0 -8 -1 -16.5t-3 -16.5l-33 -158q-3 -14 -3 -25q0 -35 20.5 -48 t47.5 -13h31l-24 -113h-36q-75 0 -120 40t-45 115q0 27 6 57l28 130q3 13 3 25q0 35 -23 49.5t-59 14.5z" />
<glyph unicode="|" horiz-adv-x="257" d="M-32 -162l209 985h126l-209 -985h-126z" />
<glyph unicode="}" horiz-adv-x="379" d="M357 268q-42 0 -74 -20t-42 -68l-31 -146q-11 -53 -32.5 -90.5t-52 -61t-69 -34t-83.5 -10.5h-45l24 113h38q31 0 57 17.5t37 65.5l36 169q11 48 41.5 83t84.5 46q-36 11 -54.5 38t-18.5 62q0 8 1 16t3 16l33 160q3 13 3 26q0 34 -20 46.5t-47 12.5h-32l24 114h37 q75 0 119.5 -39.5t44.5 -114.5q0 -27 -6 -57l-29 -132q-3 -14 -3 -24q0 -35 23 -49.5t59 -14.5z" />
<glyph unicode="~" horiz-adv-x="628" d="M586 310q-27 -53 -71.5 -81.5t-98.5 -28.5q-26 0 -55 7t-57 23l-47 26q-25 13 -50 13q-50 0 -84 -50l-82 65q27 52 71.5 81t97.5 29q27 0 55 -7t57 -22l48 -26q26 -14 52 -14q24 0 46 13.5t38 36.5z" />
<glyph unicode="&#xa1;" horiz-adv-x="275" d="M124 -206h-183l139 487h112zM247 435q0 -20 -7.5 -37t-20.5 -30t-30.5 -20.5t-36.5 -7.5q-36 0 -56.5 23t-20.5 54q0 20 8 37.5t21 30t29.5 20t34.5 7.5q35 0 57 -22.5t22 -54.5z" />
<glyph unicode="&#xa2;" horiz-adv-x="568" d="M199 109q-65 25 -105 82.5t-40 136.5q0 62 20.5 112.5t55 88t80 60t95.5 28.5l20 92h115l-22 -102q63 -20 97.5 -64.5t42.5 -95.5l-137 -38q-5 27 -27 48.5t-66 21.5q-22 0 -44 -9t-40 -27.5t-29 -46.5t-11 -65q0 -48 27.5 -73.5t71.5 -25.5q37 0 61.5 18.5t37.5 44.5 l124 -47q-12 -29 -31.5 -55.5t-46.5 -48t-61.5 -35.5t-76.5 -17l-19 -92h-115z" />
<glyph unicode="&#xa3;" horiz-adv-x="655" d="M79 398h71q-4 26 -7 51t-3 48q0 49 16.5 90t46.5 71t73 47t97 17q55 0 95.5 -17t67 -43.5t39.5 -58.5t13 -63q0 -20 -2 -26l-134 -13q1 5 1 9.5v7.5q0 33 -22.5 56.5t-60.5 23.5t-65 -27t-27 -82q0 -20 3 -43.5t7 -47.5h185l-24 -110h-155q-2 -25 -9 -49.5t-18.5 -46 t-27.5 -37.5t-37 -25h177q40 0 65 21t30 54l127 -22q-12 -83 -68.5 -133t-146.5 -50h-390l28 127q28 4 51 19t39.5 37.5t26.5 49.5t14 55h-99z" />
<glyph unicode="&#xa4;" horiz-adv-x="663" d="M125 348q0 54 25 101l-71 72l91 90l74 -74q46 23 99 23q26 0 52 -6t46 -17l74 74l91 -90l-71 -72q12 -20 19 -46.5t7 -54.5q0 -29 -7 -54t-19 -48l71 -70l-91 -91l-73 74q-46 -23 -99 -23t-99 23l-74 -74l-91 91l72 71q-12 20 -19 46.5t-7 54.5zM250 348 q0 -40 25.5 -65.5t67.5 -25.5t67.5 25.5t25.5 65.5t-25.5 65.5t-67.5 25.5t-67.5 -25.5t-25.5 -65.5z" />
<glyph unicode="&#xa5;" horiz-adv-x="684" d="M117 420h101l-105 289h161l91 -276l205 276h169l-230 -289h111l-22 -106h-185l-13 -63h185l-23 -106h-184l-30 -145h-147l31 145h-174l23 106h173l14 63h-173z" />
<glyph unicode="&#xa6;" horiz-adv-x="270" d="M98 425l85 398h126l-84 -398h-127zM-26 -163l85 398h126l-85 -398h-126z" />
<glyph unicode="&#xa7;" horiz-adv-x="539" d="M132 13q-2 -10 -2 -14v-9q0 -33 19 -49.5t52 -16.5q26 0 46 17.5t20 44.5q0 29 -29 49l-87 60q-22 15 -41.5 32t-34.5 36t-23.5 41.5t-8.5 49.5q0 30 9 54t23 42t32.5 30.5t38.5 20.5q-23 25 -33.5 55t-10.5 60q0 48 21 86.5t54.5 65.5t75 41.5t82.5 14.5q49 0 87 -13.5 t64 -37.5t39.5 -56t13.5 -69q0 -10 -0.5 -18.5t-1.5 -14.5l-145 -9q1 8 1.5 12.5t0.5 12.5q0 33 -21 48.5t-50 15.5q-26 0 -46 -18t-20 -44q0 -29 26 -47l90 -60q22 -15 41.5 -31.5t34 -36t23 -42t8.5 -49.5q0 -31 -9 -55t-23 -42t-32.5 -30.5t-37.5 -20.5q22 -26 32 -56.5 t10 -59.5q0 -48 -20.5 -86.5t-53.5 -65.5t-74.5 -41.5t-82.5 -14.5q-50 0 -88 13.5t-64.5 37.5t-40 56t-13.5 69v14.5t2 18.5zM222 342q-35 -22 -35 -58q0 -26 23 -42l92 -64q34 20 34 59q0 11 -5 22t-17 19z" />
<glyph unicode="&#xa8;" horiz-adv-x="391" d="M1 624q0 16 7 31.5t18.5 27.5t27 19t33.5 7q31 0 50 -20.5t19 -49.5q0 -18 -7.5 -33t-19.5 -26.5t-27.5 -17.5t-31.5 -6q-30 0 -49.5 20t-19.5 48zM219 624q0 16 7 31.5t18.5 27.5t27 19t32.5 7q31 0 50.5 -20.5t19.5 -49.5q0 -18 -7.5 -33t-19.5 -26.5t-27.5 -17.5 t-31.5 -6q-31 0 -50 20t-19 48z" />
<glyph unicode="&#xa9;" horiz-adv-x="833" d="M59 354q0 76 29 144t79 118t117.5 79.5t144.5 29.5q76 0 143.5 -29.5t118 -79.5t79.5 -118t29 -144q0 -77 -29 -144t-79.5 -117.5t-118 -79.5t-143.5 -29q-77 0 -144.5 29t-117.5 79.5t-79 117.5t-29 144zM147 354q0 -60 21.5 -112.5t59.5 -91.5t89.5 -61.5t111.5 -22.5 q59 0 110.5 22.5t89.5 61.5t59.5 91.5t21.5 112.5t-21.5 113t-59.5 92t-89.5 61.5t-110.5 22.5q-60 0 -111.5 -22.5t-89.5 -61.5t-59.5 -92t-21.5 -113zM510 393q-4 19 -20 35t-48 16q-16 0 -32 -7t-29 -20.5t-21.5 -34t-8.5 -47.5q0 -35 20 -54t52 -19q28 0 45.5 13.5 t28.5 32.5l90 -34q-9 -22 -24.5 -42.5t-37 -36.5t-49 -25.5t-60.5 -9.5q-38 0 -70 13t-55 36t-36 54.5t-13 69.5q0 49 17.5 88.5t46 67t66 42t77.5 14.5q37 0 65.5 -10.5t48 -28t31.5 -40t16 -46.5z" />
<glyph unicode="&#xaa;" horiz-adv-x="459" d="M273 609q-17 0 -30.5 -8t-22.5 -21t-13.5 -29.5t-4.5 -33.5q0 -32 16.5 -47.5t39.5 -15.5q12 0 24 5.5t22 16.5t16.5 29t6.5 43q0 32 -15.5 46.5t-38.5 14.5zM479 709l-59 -274q-9 -41 -9 -77h-105v18.5t2 22.5q-8 -14 -27.5 -30t-56.5 -16q-31 0 -56.5 12t-43.5 33 t-28 50t-10 63q0 46 14 84t38 65t56 42t68 15q26 0 43.5 -5.5t28.5 -12.5t16 -14.5l7 -10.5l8 35h114z" />
<glyph unicode="&#xab;" horiz-adv-x="576" d="M128 102l-100 199l179 196h147l-189 -204l98 -191h-135zM361 102l-100 199l179 196h147l-189 -204l98 -191h-135z" />
<glyph unicode="&#xac;" horiz-adv-x="642" d="M444 190v195h-372v125h502v-320h-130z" />
<glyph unicode="&#xad;" horiz-adv-x="421" d="M47 233l29 137h300l-30 -137h-299z" />
<glyph unicode="&#xae;" horiz-adv-x="833" d="M59 354q0 76 29 144t79 118t117.5 79.5t144.5 29.5q76 0 143.5 -29.5t118 -79.5t79.5 -118t29 -144q0 -77 -29 -144t-79.5 -117.5t-118 -79.5t-143.5 -29q-77 0 -144.5 29t-117.5 79.5t-79 117.5t-29 144zM147 354q0 -60 21.5 -112.5t59.5 -91.5t89.5 -61.5t111.5 -22.5 q59 0 110.5 22.5t89.5 61.5t59.5 91.5t21.5 112.5t-21.5 113t-59.5 92t-89.5 61.5t-110.5 22.5q-60 0 -111.5 -22.5t-89.5 -61.5t-59.5 -92t-21.5 -113zM421 287l-26 1l-28 -134h-104l85 399h152q27 0 49 -9t37.5 -25t24.5 -36.5t9 -44.5q0 -48 -27.5 -85.5t-73.5 -52.5 l46 -143h-109zM451 372q26 0 45 16t19 43q0 38 -43 38h-38l-20 -97h37z" />
<glyph unicode="&#xaf;" horiz-adv-x="303" d="M-10 577l22 105h286l-23 -105h-285z" />
<glyph unicode="&#xb0;" horiz-adv-x="401" d="M246 493q24 0 45.5 19t21.5 56q0 23 -13.5 39t-37.5 16q-25 0 -46 -19.5t-21 -55.5q0 -24 13.5 -39t37.5 -16zM238 392q-33 0 -60.5 11.5t-47.5 32t-31 47.5t-11 59q0 40 15.5 73.5t41 57.5t58 37.5t67.5 13.5q33 0 60.5 -12t47.5 -32t31 -47.5t11 -58.5 q0 -41 -15.5 -74.5t-41 -57.5t-58.5 -37t-67 -13z" />
<glyph unicode="&#xb1;" horiz-adv-x="634" d="M383 259h-128v116h-178v124h178v117h128v-117h178v-124h-178v-116zM77 225h484v-124h-484v124z" />
<glyph unicode="&#xb2;" horiz-adv-x="359" d="M237 549q42 17 42 45q0 11 -8 22.5t-28 11.5q-25 0 -36.5 -16t-11.5 -40l-99 8q0 28 10.5 53t30.5 44t48 30t63 11q36 0 63 -9t45 -24.5t27 -36.5t9 -44q0 -46 -29 -78t-82 -54l-76 -32q-2 -1 -3.5 -2.5l-2.5 -2.5h151l-21 -95h-284q0 63 32.5 109t93.5 72z" />
<glyph unicode="&#xb3;" horiz-adv-x="368" d="M166 569l105 49h-167l19 91h291l-22 -105l-96 -46q34 -8 55 -32t21 -60q0 -27 -11.5 -51.5t-33 -42.5t-51.5 -29t-67 -11t-65 10.5t-47 28t-29 40t-10 46.5q0 3 0.5 7t0.5 7l104 6q-1 -4 -1 -8q0 -20 13 -32.5t36 -12.5t35.5 12.5t12.5 30.5t-13 27t-30 9 q-8 0 -14.5 -1.5t-8.5 -2.5z" />
<glyph unicode="&#xb4;" horiz-adv-x="279" d="M112 556h-129l122 151h181z" />
<glyph unicode="&#xb5;" horiz-adv-x="638" d="M71 497h153v-282q0 -36 19.5 -61t60.5 -25q38 0 60 23.5t22 61.5v283h153v-408q0 -29 1.5 -51.5t3.5 -37.5h-146q-2 7 -3 21.5t-1 28.5q-20 -32 -57.5 -46.5t-75.5 -14.5q-21 0 -37 3v-182h-153v687z" />
<glyph unicode="&#xb6;" horiz-adv-x="718" d="M268 -191h-116l103 482h-9q-38 0 -70.5 13.5t-56 37t-37 55.5t-13.5 69q0 61 25.5 106.5t66.5 76t92.5 45.5t104.5 15h412l-24 -112h-97l-167 -788h-117l167 788h-97z" />
<glyph unicode="&#xb7;" horiz-adv-x="279" d="M50 313q0 19 8 37.5t21.5 32t32 22t40.5 8.5q37 0 60.5 -24t23.5 -56q0 -23 -8 -42t-22 -32.5t-32.5 -21.5t-39.5 -8q-38 0 -61 24.5t-23 59.5z" />
<glyph unicode="&#xb8;" horiz-adv-x="272" d="M222 12l-64 -65q36 -4 58 -26.5t22 -52.5q0 -17 -7 -35t-23 -33t-40.5 -25t-59.5 -10q-30 0 -54 8.5t-41 19.5t-27 22t-13 17l56 51q4 -5 10.5 -12t15.5 -14t21.5 -11.5t27.5 -4.5q17 0 27.5 6.5t10.5 19.5q0 14 -11 20t-25 6q-7 0 -11.5 -0.5t-9.5 -0.5l-24 52l65 68h96 z" />
<glyph unicode="&#xb9;" horiz-adv-x="266" d="M120 341l46 217h-93l15 73q25 1 45.5 8t36.5 18.5t27 25t16 26.5h100l-78 -368h-115z" />
<glyph unicode="&#xba;" horiz-adv-x="435" d="M275 612q-19 0 -33 -8.5t-23.5 -22t-14.5 -30t-5 -32.5q0 -31 16.5 -47t40.5 -16q12 0 25 5t24.5 16.5t19 29t7.5 42.5q0 32 -16 47t-41 16zM448 555q0 -41 -14.5 -78.5t-41 -66t-63 -45.5t-81.5 -17q-36 0 -66.5 12.5t-52.5 34.5t-34 52.5t-12 65.5q0 48 16.5 86t44 65 t64 41.5t76.5 14.5q37 0 67 -12.5t51.5 -34.5t33.5 -52.5t12 -65.5z" />
<glyph unicode="&#xbb;" horiz-adv-x="573" d="M214 497l102 -199l-179 -196h-148l189 204l-97 191h133zM445 497l102 -199l-179 -196h-148l189 204l-97 191h133z" />
<glyph unicode="&#xbc;" horiz-adv-x="845" d="M132 342l46 217h-93l15 73q25 1 45.5 8t36.5 18.5t27 25t16 26.5h100l-78 -368h-115zM186 0h-134l587 709h134zM447 185l201 184h121l-44 -212h60l-19 -86h-59l-15 -71h-113l15 71h-171zM633 254l-106 -97h85z" />
<glyph unicode="&#xbd;" horiz-adv-x="864" d="M132 342l46 217h-93l15 73q25 1 45.5 8t36.5 18.5t27 25t16 26.5h100l-78 -368h-115zM186 0h-134l587 709h134zM665 209q42 17 42 45q0 11 -8 22.5t-28 11.5q-25 0 -36.5 -16t-11.5 -40l-99 8q0 28 10.5 53t30.5 44t48 30t63 11q36 0 63 -9t45 -24.5t27 -36.5t9 -44 q0 -46 -29 -78t-82 -54l-76 -32q-2 -1 -3.5 -2.5l-2.5 -2.5h151l-21 -95h-284q0 63 32.5 109t93.5 72z" />
<glyph unicode="&#xbe;" horiz-adv-x="937" d="M175 569l105 49h-167l19 91h291l-22 -105l-96 -46q34 -8 55 -32t21 -60q0 -27 -11.5 -51.5t-33 -42.5t-51.5 -29t-67 -11t-65 10.5t-47 28t-29 40t-10 46.5q0 3 0.5 7t0.5 7l104 6q-1 -4 -1 -8q0 -20 13 -32.5t36 -12.5t35.5 12.5t12.5 30.5t-13 27t-30 9 q-8 0 -14.5 -1.5t-8.5 -2.5zM271 0h-134l587 709h134zM539 185l201 184h121l-44 -212h60l-19 -86h-59l-15 -71h-113l15 71h-171zM725 254l-106 -97h85z" />
<glyph unicode="&#xbf;" horiz-adv-x="527" d="M330 283q0 -22 -3 -46.5t-13.5 -49.5t-30.5 -49t-56 -43l-58 -32q-26 -15 -38.5 -37t-12.5 -45q0 -25 18.5 -46.5t60.5 -21.5q25 0 43.5 9.5t31 25.5t19 36.5t6.5 43.5l138 -14q0 -49 -18 -91.5t-50.5 -74.5t-78 -50.5t-100.5 -18.5q-58 0 -100.5 16t-70.5 41.5t-41.5 58 t-13.5 65.5q0 75 38 124.5t98 84.5l43 25q34 19 51 37.5t22 51.5h116zM372 435q0 -20 -7.5 -37t-20.5 -30t-30.5 -20.5t-36.5 -7.5q-36 0 -57 23t-21 54q0 20 8 37.5t21 30t30 20t35 7.5q35 0 57 -22.5t22 -54.5z" />
<glyph unicode="&#xc0;" horiz-adv-x="717" d="M463 144h-263l-79 -144h-177l412 709h183l107 -709h-164zM280 288h164l-31 244zM265 891h174l76 -132h-130z" />
<glyph unicode="&#xc1;" horiz-adv-x="717" d="M463 144h-263l-79 -144h-177l412 709h183l107 -709h-164zM280 288h164l-31 244zM525 759h-143l132 132h188z" />
<glyph unicode="&#xc2;" horiz-adv-x="717" d="M463 144h-263l-79 -144h-177l412 709h183l107 -709h-164zM280 288h164l-31 244zM251 759l150 132h146l95 -132h-135l-44 65l-73 -65h-139z" />
<glyph unicode="&#xc3;" horiz-adv-x="717" d="M463 144h-263l-79 -144h-177l412 709h183l107 -709h-164zM280 288h164l-31 244zM648 895q-11 -78 -46 -111t-82 -33q-23 0 -41 7.5t-35 17.5q-14 9 -27 16t-24 7q-13 0 -22.5 -10t-12.5 -32h-93q4 39 17 66t31 43.5t40 23.5t45 7q24 0 41.5 -7t32.5 -16q14 -8 25 -15.5 t22 -7.5q29 0 36 44h93z" />
<glyph unicode="&#xc4;" horiz-adv-x="717" d="M212 817q0 16 6.5 31.5t18.5 28t28 20t34 7.5q32 0 52 -21t20 -50q0 -19 -7.5 -34.5t-19.5 -27t-27.5 -18t-31.5 -6.5q-33 0 -53 20t-20 50zM545 817q0 16 6.5 31.5t18.5 28t28 20t35 7.5q32 0 51.5 -21t19.5 -50q0 -38 -26 -62t-60 -24q-33 0 -53 20t-20 50zM463 144 h-263l-79 -144h-177l412 709h183l107 -709h-164zM280 288h164l-31 244z" />
<glyph unicode="&#xc5;" horiz-adv-x="717" d="M280 288h164l-31 245zM455 804q-21 0 -37 -15t-16 -38q0 -19 12.5 -30.5t32.5 -11.5t37 14.5t17 39.5q0 20 -13 30.5t-33 10.5zM309 745q0 30 12.5 57t33.5 47.5t49 32.5t59 12q27 0 51 -9t42 -25.5t28.5 -39t10.5 -49.5q0 -34 -13.5 -61.5t-35.5 -47.5l100 -662h-164 l-19 144h-263l-79 -144h-177l389 670q-24 32 -24 75z" />
<glyph unicode="&#xc6;" horiz-adv-x="1065" d="M984 150l-32 -150h-450l32 152h-271l-129 -152h-201l618 709h551l-31 -149h-291l-29 -135h263l-29 -143h-263l-30 -132h292zM562 282l63 295l-251 -295h188z" />
<glyph unicode="&#xc7;" horiz-adv-x="730" d="M440 724q76 0 130.5 -22t90.5 -56t55.5 -74.5t25.5 -77.5l-155 -48q-4 19 -13.5 41.5t-28 41t-47 31t-69.5 12.5q-39 0 -77 -16.5t-69 -49t-50 -80t-19 -109.5q0 -38 11.5 -70.5t33.5 -56.5t53.5 -37.5t71.5 -13.5q38 0 66 12t48 30t33 38.5t21 38.5l141 -57 q-12 -32 -34.5 -68t-57.5 -66.5t-83.5 -53t-112.5 -27.5l-38 -39q36 -4 58 -26.5t22 -52.5q0 -17 -7 -35t-23 -33t-40.5 -25t-59.5 -10q-30 0 -54 8.5t-41 19.5t-27 22t-13 17l56 51q4 -5 10.5 -12t15.5 -14t21.5 -11.5t27.5 -4.5q17 0 27.5 6.5t10.5 19.5q0 14 -11 20 t-25 6h-8.5t-12.5 -1l-24 52l43 44q-59 9 -107.5 36.5t-82.5 69.5t-52.5 96.5t-18.5 117.5q0 98 32.5 175t86.5 130.5t123 81.5t142 28z" />
<glyph unicode="&#xc8;" horiz-adv-x="578" d="M233 891h174l76 -132h-130zM16 0l150 709h449l-32 -149h-291l-29 -135h264l-29 -139h-264l-29 -136h292l-32 -150h-449z" />
<glyph unicode="&#xc9;" horiz-adv-x="578" d="M451 759h-143l132 132h188zM16 0l150 709h449l-32 -149h-291l-29 -135h264l-29 -139h-264l-29 -136h292l-32 -150h-449z" />
<glyph unicode="&#xca;" horiz-adv-x="578" d="M200 759l150 132h146l95 -132h-135l-44 65l-73 -65h-139zM16 0l150 709h449l-32 -149h-291l-29 -135h264l-29 -139h-264l-29 -136h292l-32 -150h-449z" />
<glyph unicode="&#xcb;" horiz-adv-x="578" d="M16 0l150 709h449l-32 -149h-291l-29 -135h264l-29 -139h-264l-29 -136h292l-32 -150h-449zM231 817q0 16 6.5 31.5t18 27.5t27 19t33.5 7q31 0 50 -20t19 -49q0 -37 -25 -60.5t-59 -23.5q-32 0 -51 19t-19 49zM431 817q0 16 6.5 31.5t18 27.5t27 19t33.5 7q31 0 50 -20 t19 -49q0 -37 -25 -60.5t-59 -23.5q-32 0 -51 19t-19 49z" />
<glyph unicode="&#xcc;" horiz-adv-x="317" d="M16 0l150 709h160l-151 -709h-159zM73 891h174l76 -132h-130z" />
<glyph unicode="&#xcd;" horiz-adv-x="317" d="M16 0l150 709h160l-151 -709h-159zM322 759h-143l132 132h188z" />
<glyph unicode="&#xce;" horiz-adv-x="317" d="M16 0l150 709h160l-151 -709h-159zM57 759l150 132h146l95 -132h-135l-44 65l-73 -65h-139z" />
<glyph unicode="&#xcf;" horiz-adv-x="317" d="M16 0l150 709h160l-151 -709h-159zM85 817q0 16 6.5 31.5t18 27.5t27 19t33.5 7q31 0 50 -20t19 -49q0 -37 -25 -60.5t-59 -23.5q-32 0 -51 19t-19 49zM285 817q0 16 6.5 31.5t18 27.5t27 19t33.5 7q31 0 50 -20t19 -49q0 -37 -25 -60.5t-59 -23.5q-32 0 -51 19t-19 49z " />
<glyph unicode="&#xd0;" horiz-adv-x="750" d="M39 421h93l60 288h219q74 0 132.5 -22t98.5 -61.5t61 -94.5t21 -121q0 -99 -31.5 -175.5t-84.5 -128.5t-121.5 -79t-142.5 -27h-300l64 309h-92zM351 152q51 0 90.5 22t66 57t40.5 79.5t14 88.5q0 35 -9.5 65t-29 51.5t-49.5 33.5t-72 12h-85l-30 -140h150l-23 -112h-150 l-33 -157h120z" />
<glyph unicode="&#xd1;" horiz-adv-x="757" d="M678 895q-11 -78 -46 -111t-82 -33q-23 0 -41 7.5t-35 17.5q-14 9 -27 16t-24 7q-13 0 -22.5 -10t-12.5 -32h-93q4 39 17 66t31 43.5t40 23.5t45 7q24 0 41.5 -7t32.5 -16q14 -8 25 -15.5t22 -7.5q29 0 36 44h93zM459 0l-188 465l-99 -465h-156l150 709h180l170 -432 l92 432h158l-151 -709h-156z" />
<glyph unicode="&#xd2;" horiz-adv-x="778" d="M285 891h174l76 -132h-130zM52 307q0 98 32 175.5t85 131t122 82t143 28.5q72 0 130.5 -23.5t100 -65.5t64 -101t22.5 -131q0 -98 -32 -175.5t-85.5 -131.5t-122.5 -82.5t-143 -28.5q-71 0 -129 23.5t-99.5 66t-64.5 101.5t-23 131zM589 397q0 78 -42 126.5t-121 48.5 q-39 0 -77 -16.5t-68 -49t-48.5 -80.5t-18.5 -110q0 -80 42.5 -128.5t119.5 -48.5q39 0 77 17t68 50t49 81t19 110z" />
<glyph unicode="&#xd3;" horiz-adv-x="778" d="M523 759h-143l132 132h188zM52 307q0 98 32 175.5t85 131t122 82t143 28.5q72 0 130.5 -23.5t100 -65.5t64 -101t22.5 -131q0 -98 -32 -175.5t-85.5 -131.5t-122.5 -82.5t-143 -28.5q-71 0 -129 23.5t-99.5 66t-64.5 101.5t-23 131zM589 397q0 78 -42 126.5t-121 48.5 q-39 0 -77 -16.5t-68 -49t-48.5 -80.5t-18.5 -110q0 -80 42.5 -128.5t119.5 -48.5q39 0 77 17t68 50t49 81t19 110z" />
<glyph unicode="&#xd4;" horiz-adv-x="778" d="M269 759l150 132h146l95 -132h-135l-44 65l-73 -65h-139zM52 307q0 98 32 175.5t85 131t122 82t143 28.5q72 0 130.5 -23.5t100 -65.5t64 -101t22.5 -131q0 -98 -32 -175.5t-85.5 -131.5t-122.5 -82.5t-143 -28.5q-71 0 -129 23.5t-99.5 66t-64.5 101.5t-23 131zM589 397 q0 78 -42 126.5t-121 48.5q-39 0 -77 -16.5t-68 -49t-48.5 -80.5t-18.5 -110q0 -80 42.5 -128.5t119.5 -48.5q39 0 77 17t68 50t49 81t19 110z" />
<glyph unicode="&#xd5;" horiz-adv-x="778" d="M676 895q-11 -78 -46 -111t-82 -33q-23 0 -41 7.5t-35 17.5q-14 9 -27 16t-24 7q-13 0 -22.5 -10t-12.5 -32h-93q4 39 17 66t31 43.5t40 23.5t45 7q24 0 41.5 -7t32.5 -16q14 -8 25 -15.5t22 -7.5q29 0 36 44h93zM52 307q0 98 32 175.5t85 131t122 82t143 28.5 q72 0 130.5 -23.5t100 -65.5t64 -101t22.5 -131q0 -98 -32 -175.5t-85.5 -131.5t-122.5 -82.5t-143 -28.5q-71 0 -129 23.5t-99.5 66t-64.5 101.5t-23 131zM589 397q0 78 -42 126.5t-121 48.5q-39 0 -77 -16.5t-68 -49t-48.5 -80.5t-18.5 -110q0 -80 42.5 -128.5 t119.5 -48.5q39 0 77 17t68 50t49 81t19 110z" />
<glyph unicode="&#xd6;" horiz-adv-x="778" d="M223 817q0 16 6.5 31.5t18.5 28t28 20t34 7.5q32 0 52 -21t20 -50q0 -19 -7.5 -34.5t-19.5 -27t-27.5 -18t-31.5 -6.5q-33 0 -53 20t-20 50zM553 817q0 16 6.5 31.5t18.5 28t28 20t35 7.5q32 0 51.5 -21t19.5 -50q0 -38 -26 -62t-60 -24q-33 0 -53 20t-20 50zM52 307 q0 98 32 175.5t85 131t122 82t143 28.5q72 0 130.5 -23.5t100 -65.5t64 -101t22.5 -131q0 -98 -32 -175.5t-85.5 -131.5t-122.5 -82.5t-143 -28.5q-71 0 -129 23.5t-99.5 66t-64.5 101.5t-23 131zM589 397q0 78 -42 126.5t-121 48.5q-39 0 -77 -16.5t-68 -49t-48.5 -80.5 t-18.5 -110q0 -80 42.5 -128.5t119.5 -48.5q39 0 77 17t68 50t49 81t19 110z" />
<glyph unicode="&#xd7;" horiz-adv-x="637" d="M78 196l163 164l-163 165l90 90l164 -165l164 165l90 -90l-164 -165l164 -164l-90 -92l-164 165l-164 -165z" />
<glyph unicode="&#xd8;" horiz-adv-x="778" d="M52 307q0 98 32 175.5t85 131t122 82t143 28.5q48 0 90.5 -10.5t77.5 -30.5l74 89l92 -77l-77 -92q29 -40 44.5 -90.5t15.5 -109.5q0 -98 -32 -175.5t-85.5 -131.5t-122.5 -82.5t-143 -28.5q-47 0 -87.5 10t-75.5 29l-72 -86l-93 76l75 89q-30 41 -46.5 92t-16.5 112z M214 316q0 -46 13 -79l270 322q-15 6 -33 9.5t-38 3.5q-39 0 -77 -16.5t-68 -49t-48.5 -80.5t-18.5 -110zM589 397q0 38 -11 71l-267 -318q30 -11 65 -11q39 0 76.5 17t67.5 50t48.5 81t20.5 110z" />
<glyph unicode="&#xd9;" horiz-adv-x="693" d="M273 891h174l76 -132h-130zM708 709l-102 -481q-13 -61 -40.5 -106.5t-65 -76t-84 -45.5t-98.5 -15q-58 0 -105 17t-80.5 47.5t-52 73.5t-18.5 96q0 24 3.5 44.5t8.5 46.5l83 399h160l-86 -407q-8 -38 -8 -60q0 -45 25 -73t84 -28q47 0 78.5 28.5t43.5 87.5l94 452h160z " />
<glyph unicode="&#xda;" horiz-adv-x="693" d="M490 759h-143l132 132h188zM708 709l-102 -481q-13 -61 -40.5 -106.5t-65 -76t-84 -45.5t-98.5 -15q-58 0 -105 17t-80.5 47.5t-52 73.5t-18.5 96q0 24 3.5 44.5t8.5 46.5l83 399h160l-86 -407q-8 -38 -8 -60q0 -45 25 -73t84 -28q47 0 78.5 28.5t43.5 87.5l94 452h160z " />
<glyph unicode="&#xdb;" horiz-adv-x="693" d="M241 759l150 132h146l95 -132h-135l-44 65l-73 -65h-139zM708 709l-102 -481q-13 -61 -40.5 -106.5t-65 -76t-84 -45.5t-98.5 -15q-58 0 -105 17t-80.5 47.5t-52 73.5t-18.5 96q0 24 3.5 44.5t8.5 46.5l83 399h160l-86 -407q-8 -38 -8 -60q0 -45 25 -73t84 -28 q47 0 78.5 28.5t43.5 87.5l94 452h160z" />
<glyph unicode="&#xdc;" horiz-adv-x="693" d="M251 817q0 16 6.5 31.5t18.5 28t28 20t34 7.5q32 0 52 -21t20 -50q0 -19 -7.5 -34.5t-19.5 -27t-27.5 -18t-31.5 -6.5q-33 0 -53 20t-20 50zM484 817q0 16 6.5 31.5t18.5 28t28 20t35 7.5q32 0 51.5 -21t19.5 -50q0 -38 -26 -62t-60 -24q-33 0 -53 20t-20 50zM708 709 l-102 -481q-13 -61 -40.5 -106.5t-65 -76t-84 -45.5t-98.5 -15q-58 0 -105 17t-80.5 47.5t-52 73.5t-18.5 96q0 24 3.5 44.5t8.5 46.5l83 399h160l-86 -407q-8 -38 -8 -60q0 -45 25 -73t84 -28q47 0 78.5 28.5t43.5 87.5l94 452h160z" />
<glyph unicode="&#xdd;" horiz-adv-x="646" d="M92 709h167l90 -262l182 262h190l-317 -414l-62 -295h-159l63 296zM449 759h-143l132 132h188z" />
<glyph unicode="&#xde;" horiz-adv-x="607" d="M271 449l-39 -181h82q37 0 60.5 10.5t36.5 26t17.5 33t4.5 31.5q0 36 -22 58t-75 22h-65zM16 0l150 709h160l-27 -124h76q48 0 89 -14.5t70 -41.5t45.5 -64.5t16.5 -82.5q0 -58 -20.5 -104t-57 -78.5t-88 -49.5t-114.5 -17h-113l-28 -133h-159z" />
<glyph unicode="&#xdf;" horiz-adv-x="623" d="M427 332q0 -8 5 -15t20 -15l24 -15q41 -24 62.5 -59t21.5 -77q0 -24 -10.5 -53t-33 -54.5t-58.5 -43t-88 -17.5q-45 0 -76 13t-50.5 33.5t-28 45.5t-8.5 49q0 6 0.5 11.5t1.5 10.5l120 8q-1 -4 -1 -11q0 -16 9 -31.5t37 -15.5q20 0 32.5 12t12.5 29q0 11 -7.5 21.5 t-26.5 21.5l-25 14q-33 18 -59 47.5t-26 73.5q0 29 9 51.5t23 39t31 27.5t32 18l17 8q31 16 44.5 32t13.5 40q0 9 -4.5 19.5t-14.5 19.5t-26.5 15t-39.5 6q-17 0 -33.5 -5t-31 -17.5t-26 -33t-17.5 -51.5l-100 -484h-150l107 512q12 57 38 97t60.5 65.5t75.5 37.5t84 12 q55 0 97.5 -15t71 -40t43.5 -57t15 -65q0 -38 -10.5 -66.5t-28 -49.5t-39 -35.5t-43.5 -25.5l-16 -8q-14 -6 -22 -13t-8 -17z" />
<glyph unicode="&#xe0;" horiz-adv-x="598" d="M292 371q-28 0 -49.5 -13t-36 -34.5t-22 -48t-7.5 -53.5q0 -48 24.5 -73.5t62.5 -25.5q21 0 41 9.5t36 28.5t26 47.5t10 67.5q0 47 -23.5 71t-61.5 24zM576 497l-85 -397q-5 -20 -7 -41t-2 -40v-7t1 -12h-138q-1 5 -1 10v8q0 21 3 41q-7 -11 -18 -23t-26 -22t-35.5 -16 t-45.5 -6q-45 0 -81 17t-61.5 47t-39 71t-13.5 88q0 65 19.5 119t53.5 93t79.5 60.5t98.5 21.5q36 0 61 -7.5t41.5 -18t25.5 -21.5t13 -18l10 53h147zM158 707h166l59 -151h-117z" />
<glyph unicode="&#xe1;" horiz-adv-x="598" d="M292 371q-28 0 -49.5 -13t-36 -34.5t-22 -48t-7.5 -53.5q0 -48 24.5 -73.5t62.5 -25.5q21 0 41 9.5t36 28.5t26 47.5t10 67.5q0 47 -23.5 71t-61.5 24zM576 497l-85 -397q-5 -20 -7 -41t-2 -40v-7t1 -12h-138q-1 5 -1 10v8q0 21 3 41q-7 -11 -18 -23t-26 -22t-35.5 -16 t-45.5 -6q-45 0 -81 17t-61.5 47t-39 71t-13.5 88q0 65 19.5 119t53.5 93t79.5 60.5t98.5 21.5q36 0 61 -7.5t41.5 -18t25.5 -21.5t13 -18l10 53h147zM376 556h-129l122 151h181z" />
<glyph unicode="&#xe2;" horiz-adv-x="598" d="M147 556l150 151h141l84 -151h-114l-53 71l-84 -71h-124zM292 371q-28 0 -49.5 -13t-36 -34.5t-22 -48t-7.5 -53.5q0 -48 24.5 -73.5t62.5 -25.5q21 0 41 9.5t36 28.5t26 47.5t10 67.5q0 47 -23.5 71t-61.5 24zM576 497l-85 -397q-5 -20 -7 -41t-2 -40v-7t1 -12h-138 q-1 5 -1 10v8q0 21 3 41q-7 -11 -18 -23t-26 -22t-35.5 -16t-45.5 -6q-45 0 -81 17t-61.5 47t-39 71t-13.5 88q0 65 19.5 119t53.5 93t79.5 60.5t98.5 21.5q36 0 61 -7.5t41.5 -18t25.5 -21.5t13 -18l10 53h147z" />
<glyph unicode="&#xe3;" horiz-adv-x="598" d="M292 371q-28 0 -49.5 -13t-36 -34.5t-22 -48t-7.5 -53.5q0 -48 24.5 -73.5t62.5 -25.5q21 0 41 9.5t36 28.5t26 47.5t10 67.5q0 47 -23.5 71t-61.5 24zM576 497l-85 -397q-5 -20 -7 -41t-2 -40v-7t1 -12h-138q-1 5 -1 10v8q0 21 3 41q-7 -11 -18 -23t-26 -22t-35.5 -16 t-45.5 -6q-45 0 -81 17t-61.5 47t-39 71t-13.5 88q0 65 19.5 119t53.5 93t79.5 60.5t98.5 21.5q36 0 61 -7.5t41.5 -18t25.5 -21.5t13 -18l10 53h147zM146 557q4 41 17.5 69.5t33 46.5t42.5 26t47 8q26 0 43.5 -7t31.5 -16q13 -9 25 -15.5t25 -6.5q19 0 28.5 12t13.5 32h94 q-6 -40 -19 -68.5t-31 -46.5t-40 -26.5t-45 -8.5q-24 0 -42 7t-34 16q-14 8 -26.5 14.5t-26.5 6.5q-34 0 -43 -43h-94z" />
<glyph unicode="&#xe4;" horiz-adv-x="598" d="M162 624q0 16 7 31.5t18.5 27.5t27 19t33.5 7q31 0 50 -20.5t19 -49.5q0 -18 -7.5 -33t-19.5 -26.5t-27.5 -17.5t-31.5 -6q-30 0 -49.5 20t-19.5 48zM380 624q0 16 7 31.5t18.5 27.5t27 19t32.5 7q31 0 50.5 -20.5t19.5 -49.5q0 -18 -7.5 -33t-19.5 -26.5t-27.5 -17.5 t-31.5 -6q-31 0 -50 20t-19 48zM292 371q-28 0 -49.5 -13t-36 -34.5t-22 -48t-7.5 -53.5q0 -48 24.5 -73.5t62.5 -25.5q21 0 41 9.5t36 28.5t26 47.5t10 67.5q0 47 -23.5 71t-61.5 24zM576 497l-85 -397q-5 -20 -7 -41t-2 -40v-7t1 -12h-138q-1 5 -1 10v8q0 21 3 41 q-7 -11 -18 -23t-26 -22t-35.5 -16t-45.5 -6q-45 0 -81 17t-61.5 47t-39 71t-13.5 88q0 65 19.5 119t53.5 93t79.5 60.5t98.5 21.5q36 0 61 -7.5t41.5 -18t25.5 -21.5t13 -18l10 53h147z" />
<glyph unicode="&#xe5;" horiz-adv-x="598" d="M292 371q-28 0 -49.5 -13t-36 -34.5t-22 -48t-7.5 -53.5q0 -48 24.5 -73.5t62.5 -25.5q21 0 41 9.5t36 28.5t26 47.5t10 67.5q0 47 -23.5 71t-61.5 24zM576 497l-85 -397q-5 -20 -7 -41t-2 -40v-7t1 -12h-138q-1 5 -1 10v8q0 21 3 41q-7 -11 -18 -23t-26 -22t-35.5 -16 t-45.5 -6q-45 0 -81 17t-61.5 47t-39 71t-13.5 88q0 65 19.5 119t53.5 93t79.5 60.5t98.5 21.5q36 0 61 -7.5t41.5 -18t25.5 -21.5t13 -18l10 53h147zM357 772q22 0 41.5 -7t34.5 -20t23.5 -31.5t8.5 -41.5q0 -27 -11 -49.5t-28.5 -38.5t-40.5 -25t-47 -9q-45 0 -75.5 28 t-30.5 73q0 27 10.5 49.5t28 38t40 24.5t46.5 9zM309 656q0 -15 10 -24.5t26 -9.5q17 0 28.5 11.5t11.5 29.5q0 14 -9 24t-25 10q-15 0 -28.5 -11t-13.5 -30z" />
<glyph unicode="&#xe6;" horiz-adv-x="847" d="M301 299q23 1 33 12.5t10 28.5q0 20 -18.5 36t-57.5 16q-35 0 -57 -19.5t-29 -43.5l-125 40q7 24 24.5 49.5t44.5 46t64.5 34t85.5 13.5q60 0 98 -15t61 -38q32 26 70 39.5t78 13.5q53 0 94.5 -16t70.5 -44.5t44 -67.5t15 -85q0 -17 -3 -41.5t-11 -47.5h-332 q0 -40 25.5 -70t77.5 -30q32 0 56.5 16t36.5 40l116 -53q-12 -24 -31 -47t-46.5 -41t-64 -29t-81.5 -11q-55 0 -100 22t-76 62q-26 -32 -71 -56.5t-106 -24.5q-49 0 -85 12.5t-59.5 33t-35 47t-11.5 53.5q0 40 14.5 69.5t38.5 49t54.5 29.5t62.5 12zM155 144q0 -23 16 -35.5 t41 -12.5q15 0 31.5 5.5t31 17.5t26 30t15.5 42l3 18l-98 -4q-26 -2 -46 -17t-20 -44zM582 391q-45 0 -71 -23t-37 -60h194v6q0 12 -4.5 25.5t-14.5 25t-26.5 19t-40.5 7.5z" />
<glyph unicode="&#xe7;" horiz-adv-x="554" d="M393 302q-5 27 -27 48.5t-66 21.5q-22 0 -44 -9t-40 -27.5t-29 -46.5t-11 -65q0 -48 27.5 -74t71.5 -26q37 0 61.5 18.5t37.5 44.5l124 -47q-12 -28 -31 -54.5t-45.5 -47.5t-60.5 -35.5t-74 -17.5l-37 -38q36 -4 58 -26.5t22 -52.5q0 -17 -7 -35t-23 -33t-40.5 -25 t-59.5 -10q-30 0 -54 8.5t-41 19.5t-27 22t-13 17l56 51q4 -5 10.5 -12t15.5 -14t21.5 -11.5t27.5 -4.5q17 0 27.5 6.5t10.5 19.5q0 14 -11 20t-25 6h-8.5t-12.5 -1l-24 52l46 48q-39 9 -71 30t-54.5 51t-35 67.5t-12.5 80.5q0 67 23.5 121t63.5 91.5t91 58t107 20.5 q51 0 89.5 -15t65.5 -39t43 -55t21 -63z" />
<glyph unicode="&#xe8;" horiz-adv-x="554" d="M374 308v7q0 12 -4.5 25.5t-14 24.5t-26 18.5t-40.5 7.5q-45 0 -71.5 -23t-38.5 -60h195zM165 209q0 -40 25.5 -69.5t78.5 -29.5q32 0 56.5 16t36.5 40l118 -53q-12 -24 -31.5 -47t-47 -41t-63.5 -29t-82 -11q-47 0 -88.5 17t-73 47.5t-50 73t-18.5 93.5q0 69 22.5 123.5 t60 93t84.5 59t97 20.5q52 0 94 -16t70.5 -44.5t44 -67.5t15.5 -85q0 -17 -3 -41.5t-11 -47.5zM155 707h166l59 -151h-117z" />
<glyph unicode="&#xe9;" horiz-adv-x="554" d="M374 556h-129l122 151h181zM374 308v7q0 12 -4.5 25.5t-14 24.5t-26 18.5t-40.5 7.5q-45 0 -71.5 -23t-38.5 -60h195zM165 209q0 -40 25.5 -69.5t78.5 -29.5q32 0 56.5 16t36.5 40l118 -53q-12 -24 -31.5 -47t-47 -41t-63.5 -29t-82 -11q-47 0 -88.5 17t-73 47.5t-50 73 t-18.5 93.5q0 69 22.5 123.5t60 93t84.5 59t97 20.5q52 0 94 -16t70.5 -44.5t44 -67.5t15.5 -85q0 -17 -3 -41.5t-11 -47.5z" />
<glyph unicode="&#xea;" horiz-adv-x="554" d="M126 556l150 151h141l84 -151h-114l-53 71l-84 -71h-124zM374 308v7q0 12 -4.5 25.5t-14 24.5t-26 18.5t-40.5 7.5q-45 0 -71.5 -23t-38.5 -60h195zM165 209q0 -40 25.5 -69.5t78.5 -29.5q32 0 56.5 16t36.5 40l118 -53q-12 -24 -31.5 -47t-47 -41t-63.5 -29t-82 -11 q-47 0 -88.5 17t-73 47.5t-50 73t-18.5 93.5q0 69 22.5 123.5t60 93t84.5 59t97 20.5q52 0 94 -16t70.5 -44.5t44 -67.5t15.5 -85q0 -17 -3 -41.5t-11 -47.5z" />
<glyph unicode="&#xeb;" horiz-adv-x="554" d="M143 624q0 16 7 31.5t18.5 27.5t27 19t33.5 7q31 0 50 -20.5t19 -49.5q0 -18 -7.5 -33t-19.5 -26.5t-27.5 -17.5t-31.5 -6q-30 0 -49.5 20t-19.5 48zM361 624q0 16 7 31.5t18.5 27.5t27 19t32.5 7q31 0 50.5 -20.5t19.5 -49.5q0 -18 -7.5 -33t-19.5 -26.5t-27.5 -17.5 t-31.5 -6q-31 0 -50 20t-19 48zM374 308v7q0 12 -4.5 25.5t-14 24.5t-26 18.5t-40.5 7.5q-45 0 -71.5 -23t-38.5 -60h195zM165 209q0 -40 25.5 -69.5t78.5 -29.5q32 0 56.5 16t36.5 40l118 -53q-12 -24 -31.5 -47t-47 -41t-63.5 -29t-82 -11q-47 0 -88.5 17t-73 47.5t-50 73 t-18.5 93.5q0 69 22.5 123.5t60 93t84.5 59t97 20.5q52 0 94 -16t70.5 -44.5t44 -67.5t15.5 -85q0 -17 -3 -41.5t-11 -47.5z" />
<glyph unicode="&#xec;" horiz-adv-x="281" d="M0 0l107 497h153l-107 -497h-153zM27 707h166l59 -151h-117z" />
<glyph unicode="&#xed;" horiz-adv-x="280" d="M255 556h-129l122 151h181zM0 0l107 497h153l-107 -497h-153z" />
<glyph unicode="&#xee;" horiz-adv-x="280" d="M0 556l150 151h141l84 -151h-114l-53 71l-84 -71h-124zM0 0l107 497h153l-107 -497h-153z" />
<glyph unicode="&#xef;" horiz-adv-x="280" d="M0 0l107 497h153l-107 -497h-153zM37 624q0 16 7 31t18.5 26t27 18t32.5 7q29 0 47.5 -20t18.5 -47q0 -18 -7.5 -33t-19 -26t-26.5 -17t-30 -6q-31 0 -49.5 19.5t-18.5 47.5zM219 624q0 16 6.5 31t18 26t27 18t32.5 7q29 0 47.5 -20t18.5 -47q0 -18 -7 -33t-19 -26 t-26.5 -17t-29.5 -6q-32 0 -50 19.5t-18 47.5z" />
<glyph unicode="&#xf0;" horiz-adv-x="594" d="M478 592q37 -44 57.5 -101t20.5 -127q0 -91 -23.5 -161.5t-64 -119t-94.5 -73.5t-116 -25q-58 0 -102 18.5t-74 49t-45.5 70.5t-15.5 83q0 56 20 101.5t53.5 77t79 48.5t96.5 17q50 0 85.5 -16t53.5 -39q-3 41 -20 75t-45 60l-139 -65l-36 84l78 37q-24 8 -50.5 12 t-55.5 5l38 122q60 -1 117.5 -18t106.5 -49l113 53l35 -85zM376 237q0 41 -24 65.5t-68 24.5q-46 0 -79 -31t-33 -87q0 -36 24 -64t69 -28q23 0 43 8.5t35 24.5t24 38t9 49z" />
<glyph unicode="&#xf1;" horiz-adv-x="584" d="M143 557q4 41 17.5 69.5t33 46.5t42.5 26t47 8q26 0 43.5 -7t31.5 -16q13 -9 25 -15.5t25 -6.5q19 0 28.5 12t13.5 32h94q-6 -40 -19 -68.5t-31 -46.5t-40 -26.5t-45 -8.5q-24 0 -42 7t-34 16q-14 8 -26.5 14.5t-26.5 6.5q-34 0 -43 -43h-94zM311 0l56 263q4 16 5 26.5 t1 16.5q0 31 -17 50t-52 19t-57.5 -24.5t-30.5 -62.5l-62 -288h-152l87 414q6 29 7.5 47.5t1.5 35.5h148q0 -5 -0.5 -19t-2.5 -28q23 32 60.5 46t72.5 14q39 0 68 -12.5t48.5 -34t29.5 -50.5t10 -63q0 -27 -6 -55l-63 -295h-152z" />
<glyph unicode="&#xf2;" horiz-adv-x="584" d="M163 707h166l59 -151h-117zM296 373q-27 0 -49.5 -12.5t-38 -33t-24 -47.5t-8.5 -55q0 -48 26 -74.5t65 -26.5q19 0 40.5 9t39 27t29 46t11.5 67q0 50 -25 74.5t-66 25.5zM538 280q0 -59 -20.5 -112.5t-57.5 -94t-89 -64.5t-114 -24q-52 0 -94.5 18t-73 49t-47 73.5 t-16.5 92.5q0 66 22.5 120.5t61 93t89.5 59.5t108 21q53 0 95.5 -18t72.5 -49t46.5 -73.5t16.5 -91.5z" />
<glyph unicode="&#xf3;" horiz-adv-x="584" d="M381 556h-129l122 151h181zM296 373q-27 0 -49.5 -12.5t-38 -33t-24 -47.5t-8.5 -55q0 -48 26 -74.5t65 -26.5q19 0 40.5 9t39 27t29 46t11.5 67q0 50 -25 74.5t-66 25.5zM538 280q0 -59 -20.5 -112.5t-57.5 -94t-89 -64.5t-114 -24q-52 0 -94.5 18t-73 49t-47 73.5 t-16.5 92.5q0 66 22.5 120.5t61 93t89.5 59.5t108 21q53 0 95.5 -18t72.5 -49t46.5 -73.5t16.5 -91.5z" />
<glyph unicode="&#xf4;" horiz-adv-x="584" d="M134 556l150 151h141l84 -151h-114l-53 71l-84 -71h-124zM296 373q-27 0 -49.5 -12.5t-38 -33t-24 -47.5t-8.5 -55q0 -48 26 -74.5t65 -26.5q19 0 40.5 9t39 27t29 46t11.5 67q0 50 -25 74.5t-66 25.5zM538 280q0 -59 -20.5 -112.5t-57.5 -94t-89 -64.5t-114 -24 q-52 0 -94.5 18t-73 49t-47 73.5t-16.5 92.5q0 66 22.5 120.5t61 93t89.5 59.5t108 21q53 0 95.5 -18t72.5 -49t46.5 -73.5t16.5 -91.5z" />
<glyph unicode="&#xf5;" horiz-adv-x="584" d="M296 373q-27 0 -49.5 -12.5t-38 -33t-24 -47.5t-8.5 -55q0 -48 26 -74.5t65 -26.5q19 0 40.5 9t39 27t29 46t11.5 67q0 50 -25 74.5t-66 25.5zM538 280q0 -59 -20.5 -112.5t-57.5 -94t-89 -64.5t-114 -24q-52 0 -94.5 18t-73 49t-47 73.5t-16.5 92.5q0 66 22.5 120.5 t61 93t89.5 59.5t108 21q53 0 95.5 -18t72.5 -49t46.5 -73.5t16.5 -91.5zM130 557q4 41 17.5 69.5t33 46.5t42.5 26t47 8q26 0 43.5 -7t31.5 -16q13 -9 25 -15.5t25 -6.5q19 0 28.5 12t13.5 32h94q-6 -40 -19 -68.5t-31 -46.5t-40 -26.5t-45 -8.5q-24 0 -42 7t-34 16 q-14 8 -26.5 14.5t-26.5 6.5q-34 0 -43 -43h-94z" />
<glyph unicode="&#xf6;" horiz-adv-x="584" d="M152 624q0 16 7 31.5t18.5 27.5t27 19t33.5 7q31 0 50 -20.5t19 -49.5q0 -18 -7.5 -33t-19.5 -26.5t-27.5 -17.5t-31.5 -6q-30 0 -49.5 20t-19.5 48zM370 624q0 16 7 31.5t18.5 27.5t27 19t32.5 7q31 0 50.5 -20.5t19.5 -49.5q0 -18 -7.5 -33t-19.5 -26.5t-27.5 -17.5 t-31.5 -6q-31 0 -50 20t-19 48zM296 373q-27 0 -49.5 -12.5t-38 -33t-24 -47.5t-8.5 -55q0 -48 26 -74.5t65 -26.5q19 0 40.5 9t39 27t29 46t11.5 67q0 50 -25 74.5t-66 25.5zM538 280q0 -59 -20.5 -112.5t-57.5 -94t-89 -64.5t-114 -24q-52 0 -94.5 18t-73 49t-47 73.5 t-16.5 92.5q0 66 22.5 120.5t61 93t89.5 59.5t108 21q53 0 95.5 -18t72.5 -49t46.5 -73.5t16.5 -91.5z" />
<glyph unicode="&#xf7;" horiz-adv-x="593" d="M222 547q0 17 6.5 32.5t18 27t27 18t33.5 6.5q35 0 59.5 -24.5t24.5 -59.5t-24.5 -60t-59.5 -25q-18 0 -33.5 7t-27 18.5t-18 27t-6.5 32.5zM222 175q0 17 6.5 32t18 26.5t27 18t33.5 6.5q35 0 59.5 -24.5t24.5 -58.5q0 -35 -24.5 -60t-59.5 -25q-18 0 -33.5 7t-27 18.5 t-18 27t-6.5 32.5zM58 422h505v-124h-505v124z" />
<glyph unicode="&#xf8;" horiz-adv-x="584" d="M-16 21l75 71q-33 54 -33 126q0 66 22.5 120.5t61 93t89.5 59.5t108 21q43 0 79 -12t65 -34l74 71l56 -58l-76 -73q16 -27 24.5 -59t8.5 -67q0 -59 -20.5 -112.5t-57.5 -94t-89 -64.5t-114 -24q-43 0 -79 12t-65 34l-71 -68zM387 273v10.5t-1 8.5l-164 -157 q18 -11 45 -11q19 0 40.5 9t39 27t29 46t11.5 67zM296 373q-27 0 -49.5 -12.5t-38 -33t-24 -47.5t-8.5 -55v-10t1 -10l164 157q-10 5 -20 8t-25 3z" />
<glyph unicode="&#xf9;" horiz-adv-x="580" d="M252 497l-60 -281q-3 -15 -3 -28q0 -30 17 -48t51 -18q35 0 56.5 24.5t29.5 62.5l62 288h152l-86 -410q-3 -14 -6 -35.5t-3 -51.5h-147q-1 5 -1 10v7q0 8 0.5 15.5t1.5 15.5q-17 -29 -51 -45t-69 -16q-40 0 -70.5 13t-51.5 35t-31.5 52t-10.5 65q0 26 6 53l62 292h152z M178 707h166l59 -151h-117z" />
<glyph unicode="&#xfa;" horiz-adv-x="580" d="M373 556h-129l122 151h181zM252 497l-60 -281q-3 -15 -3 -28q0 -30 17 -48t51 -18q35 0 56.5 24.5t29.5 62.5l62 288h152l-86 -410q-3 -14 -6 -35.5t-3 -51.5h-147q-1 5 -1 10v7q0 8 0.5 15.5t1.5 15.5q-17 -29 -51 -45t-69 -16q-40 0 -70.5 13t-51.5 35t-31.5 52 t-10.5 65q0 26 6 53l62 292h152z" />
<glyph unicode="&#xfb;" horiz-adv-x="580" d="M150 556l150 151h141l84 -151h-114l-53 71l-84 -71h-124zM252 497l-60 -281q-3 -15 -3 -28q0 -30 17 -48t51 -18q35 0 56.5 24.5t29.5 62.5l62 288h152l-86 -410q-3 -14 -6 -35.5t-3 -51.5h-147q-1 5 -1 10v7q0 8 0.5 15.5t1.5 15.5q-17 -29 -51 -45t-69 -16 q-40 0 -70.5 13t-51.5 35t-31.5 52t-10.5 65q0 26 6 53l62 292h152z" />
<glyph unicode="&#xfc;" horiz-adv-x="580" d="M159 624q0 16 7 31.5t18.5 27.5t27 19t33.5 7q31 0 50 -20.5t19 -49.5q0 -18 -7.5 -33t-19.5 -26.5t-27.5 -17.5t-31.5 -6q-30 0 -49.5 20t-19.5 48zM377 624q0 16 7 31.5t18.5 27.5t27 19t32.5 7q31 0 50.5 -20.5t19.5 -49.5q0 -18 -7.5 -33t-19.5 -26.5t-27.5 -17.5 t-31.5 -6q-31 0 -50 20t-19 48zM252 497l-60 -281q-3 -15 -3 -28q0 -30 17 -48t51 -18q35 0 56.5 24.5t29.5 62.5l62 288h152l-86 -410q-3 -14 -6 -35.5t-3 -51.5h-147q-1 5 -1 10v7q0 8 0.5 15.5t1.5 15.5q-17 -29 -51 -45t-69 -16q-40 0 -70.5 13t-51.5 35t-31.5 52 t-10.5 65q0 26 6 53l62 292h152z" />
<glyph unicode="&#xfd;" horiz-adv-x="540" d="M-28 -190l165 266l-103 421h159l56 -265l155 265h168l-433 -687h-167zM348 556h-129l122 151h181z" />
<glyph unicode="&#xfe;" horiz-adv-x="613" d="M154 724h153l-57 -267q20 23 52.5 36.5t70.5 13.5q48 0 84.5 -16t61 -44t37 -66t12.5 -83q0 -68 -20.5 -125t-56 -98t-82.5 -64t-101 -23q-57 0 -94 20t-52 43l-50 -241h-152zM322 375q-27 0 -49.5 -12.5t-38 -33.5t-24.5 -48t-9 -55q0 -51 27 -76.5t65 -25.5 q20 0 41.5 9t39 28t29 47.5t11.5 66.5q0 50 -26.5 75t-65.5 25z" />
<glyph unicode="&#xff;" horiz-adv-x="540" d="M128 624q0 16 7 31.5t18.5 27.5t27 19t33.5 7q31 0 50 -20.5t19 -49.5q0 -18 -7.5 -33t-19.5 -26.5t-27.5 -17.5t-31.5 -6q-30 0 -49.5 20t-19.5 48zM346 624q0 16 7 31.5t18.5 27.5t27 19t32.5 7q31 0 50.5 -20.5t19.5 -49.5q0 -18 -7.5 -33t-19.5 -26.5t-27.5 -17.5 t-31.5 -6q-31 0 -50 20t-19 48zM-28 -190l165 266l-103 421h159l56 -265l155 265h168l-433 -687h-167z" />
<glyph unicode="&#x100;" horiz-adv-x="717" d="M463 144h-263l-79 -144h-177l412 709h183l107 -709h-164zM280 288h164l-31 244zM300 771l22 109h311l-23 -109h-310z" />
<glyph unicode="&#x101;" horiz-adv-x="598" d="M292 371q-28 0 -49.5 -13t-36 -34.5t-22 -48t-7.5 -53.5q0 -48 24.5 -73.5t62.5 -25.5q21 0 41 9.5t36 28.5t26 47.5t10 67.5q0 47 -23.5 71t-61.5 24zM576 497l-85 -397q-5 -20 -7 -41t-2 -40v-7t1 -12h-138q-1 5 -1 10v8q0 21 3 41q-7 -11 -18 -23t-26 -22t-35.5 -16 t-45.5 -6q-45 0 -81 17t-61.5 47t-39 71t-13.5 88q0 65 19.5 119t53.5 93t79.5 60.5t98.5 21.5q36 0 61 -7.5t41.5 -18t25.5 -21.5t13 -18l10 53h147zM188 577l22 105h286l-23 -105h-285z" />
<glyph unicode="&#x102;" horiz-adv-x="717" d="M463 144h-263l-79 -144h-177l412 709h183l107 -709h-164zM280 288h164l-31 244zM460 753q-31 0 -58 7.5t-47 22.5t-31.5 37t-11.5 52v7t2 12h104q-1 -5 -1 -9q0 -18 12.5 -29t36.5 -11q26 0 43 14.5t22 34.5h116q-6 -24 -21 -49t-38.5 -44.5t-55.5 -32t-72 -12.5z" />
<glyph unicode="&#x103;" horiz-adv-x="598" d="M292 371q-28 0 -49.5 -13t-36 -34.5t-22 -48t-7.5 -53.5q0 -48 24.5 -73.5t62.5 -25.5q21 0 41 9.5t36 28.5t26 47.5t10 67.5q0 47 -23.5 71t-61.5 24zM576 497l-85 -397q-5 -20 -7 -41t-2 -40v-7t1 -12h-138q-1 5 -1 10v8q0 21 3 41q-7 -11 -18 -23t-26 -22t-35.5 -16 t-45.5 -6q-45 0 -81 17t-61.5 47t-39 71t-13.5 88q0 65 19.5 119t53.5 93t79.5 60.5t98.5 21.5q36 0 61 -7.5t41.5 -18t25.5 -21.5t13 -18l10 53h147zM338 551q-37 0 -64.5 11t-46 29t-27.5 42t-9 50q0 8 0.5 13.5t1.5 10.5h96q-1 -3 -1 -7q0 -18 12.5 -34.5t45.5 -16.5 q18 0 31 5.5t22 14t14.5 19t8.5 19.5h108q-7 -31 -22.5 -59t-39 -49.5t-56 -34.5t-74.5 -13z" />
<glyph unicode="&#x104;" horiz-adv-x="717" d="M463 144h-263l-79 -144h-177l412 709h183l107 -709q-17 -6 -33.5 -15t-30.5 -21t-22.5 -27t-8.5 -32q0 -20 14 -29.5t35 -11.5h10t9 1l-18 -87q-13 -4 -40 -4q-23 0 -44.5 7t-38 20.5t-26 32.5t-9.5 44q0 44 21.5 73.5t49.5 48.5h-32zM280 288h164l-31 245z" />
<glyph unicode="&#x105;" horiz-adv-x="598" d="M398 -226q-23 0 -44.5 7t-38 20.5t-26 32.5t-9.5 44q0 44 21 73.5t49 48.5h-5q-1 5 -1 9v7q0 16 1 27t2 16q-7 -11 -18 -23t-26 -22t-35.5 -16t-45.5 -6q-45 0 -81 17t-61.5 47t-39 71t-13.5 88q0 65 19.5 119t53.5 93t79.5 60.5t98.5 21.5q36 0 60.5 -7.5t41 -18 t25 -21.5t12.5 -18l12 53h147l-85 -397q-9 -39 -9 -79v-7.5t1 -13.5q-17 -6 -33.5 -15t-30.5 -21t-22.5 -27t-8.5 -32q0 -20 14 -29.5t35 -11.5h10t9 1l-18 -87q-13 -4 -40 -4zM292 371q-28 0 -49.5 -13t-36 -34.5t-22 -48t-7.5 -53.5q0 -48 24.5 -73.5t62.5 -25.5 q21 0 41 9.5t36 28.5t26 47.5t10 67.5q0 47 -23.5 71t-61.5 24z" />
<glyph unicode="&#x106;" horiz-adv-x="730" d="M440 724q76 0 130.5 -22t90.5 -56t55.5 -74.5t25.5 -77.5l-155 -48q-4 19 -13.5 41.5t-28 41t-47 31t-69.5 12.5q-39 0 -77 -16.5t-69 -49t-50 -80t-19 -109.5q0 -38 11.5 -70.5t33.5 -56.5t53.5 -37.5t71.5 -13.5q38 0 66 12t48 30t33 38.5t21 38.5l141 -57 q-13 -34 -38 -72t-64 -70.5t-94 -53.5t-127 -21t-130.5 24.5t-100 68t-64.5 102.5t-23 129q0 98 32.5 175t86.5 130.5t123 81.5t142 28zM532 759h-143l132 132h188z" />
<glyph unicode="&#x107;" horiz-adv-x="554" d="M382 556h-129l122 151h181zM393 302q-5 27 -27 48.5t-66 21.5q-22 0 -44 -9t-40 -27.5t-29 -46.5t-11 -65q0 -48 27.5 -73.5t71.5 -25.5q37 0 61.5 18.5t37.5 44.5l124 -47q-12 -30 -33.5 -58t-50.5 -50t-67 -35t-83 -13q-50 0 -93.5 17t-75.5 48.5t-50.5 74.5t-18.5 96 q0 67 23.5 121t63.5 91.5t91 58t107 20.5q51 0 89.5 -15t65.5 -39t43 -55t21 -63z" />
<glyph unicode="&#x108;" horiz-adv-x="730" d="M264 759l150 132h146l95 -132h-135l-44 65l-73 -65h-139zM440 724q76 0 130.5 -22t90.5 -56t55.5 -74.5t25.5 -77.5l-155 -48q-4 19 -13.5 41.5t-28 41t-47 31t-69.5 12.5q-39 0 -77 -16.5t-69 -49t-50 -80t-19 -109.5q0 -38 11.5 -70.5t33.5 -56.5t53.5 -37.5 t71.5 -13.5q38 0 66 12t48 30t33 38.5t21 38.5l141 -57q-13 -34 -38 -72t-64 -70.5t-94 -53.5t-127 -21t-130.5 24.5t-100 68t-64.5 102.5t-23 129q0 98 32.5 175t86.5 130.5t123 81.5t142 28z" />
<glyph unicode="&#x109;" horiz-adv-x="554" d="M145 556l150 151h141l84 -151h-114l-53 71l-84 -71h-124zM393 302q-5 27 -27 48.5t-66 21.5q-22 0 -44 -9t-40 -27.5t-29 -46.5t-11 -65q0 -48 27.5 -73.5t71.5 -25.5q37 0 61.5 18.5t37.5 44.5l124 -47q-12 -30 -33.5 -58t-50.5 -50t-67 -35t-83 -13q-50 0 -93.5 17 t-75.5 48.5t-50.5 74.5t-18.5 96q0 67 23.5 121t63.5 91.5t91 58t107 20.5q51 0 89.5 -15t65.5 -39t43 -55t21 -63z" />
<glyph unicode="&#x10a;" horiz-adv-x="730" d="M440 724q76 0 130.5 -22t90.5 -56t55.5 -74.5t25.5 -77.5l-155 -48q-4 19 -13.5 41.5t-28 41t-47 31t-69.5 12.5q-39 0 -77 -16.5t-69 -49t-50 -80t-19 -109.5q0 -38 11.5 -70.5t33.5 -56.5t53.5 -37.5t71.5 -13.5q38 0 66 12t48 30t33 38.5t21 38.5l141 -57 q-13 -34 -38 -72t-64 -70.5t-94 -53.5t-127 -21t-130.5 24.5t-100 68t-64.5 102.5t-23 129q0 98 32.5 175t86.5 130.5t123 81.5t142 28zM385 843q0 18 7.5 34.5t21 30t31.5 21.5t38 8q35 0 57.5 -22.5t22.5 -54.5q0 -21 -8 -39t-21 -31t-31 -20.5t-37 -7.5q-35 0 -58 24 t-23 57z" />
<glyph unicode="&#x10b;" horiz-adv-x="554" d="M393 302q-5 27 -27 48.5t-66 21.5q-22 0 -44 -9t-40 -27.5t-29 -46.5t-11 -65q0 -48 27.5 -73.5t71.5 -25.5q37 0 61.5 18.5t37.5 44.5l124 -47q-12 -30 -33.5 -58t-50.5 -50t-67 -35t-83 -13q-50 0 -93.5 17t-75.5 48.5t-50.5 74.5t-18.5 96q0 67 23.5 121t63.5 91.5 t91 58t107 20.5q51 0 89.5 -15t65.5 -39t43 -55t21 -63zM251 627q0 18 7.5 35.5t21 31t31 21.5t38.5 8q35 0 57 -22.5t22 -54.5q0 -21 -8 -39t-21 -31t-30.5 -20.5t-36.5 -7.5q-36 0 -58.5 23t-22.5 56z" />
<glyph unicode="&#x10c;" horiz-adv-x="730" d="M683 891l-152 -132h-146l-95 132h132l43 -65l73 65h145zM440 724q76 0 130.5 -22t90.5 -56t55.5 -74.5t25.5 -77.5l-155 -48q-4 19 -13.5 41.5t-28 41t-47 31t-69.5 12.5q-39 0 -77 -16.5t-69 -49t-50 -80t-19 -109.5q0 -38 11.5 -70.5t33.5 -56.5t53.5 -37.5t71.5 -13.5 q38 0 66 12t48 30t33 38.5t21 38.5l141 -57q-13 -34 -38 -72t-64 -70.5t-94 -53.5t-127 -21t-130.5 24.5t-100 68t-64.5 102.5t-23 129q0 98 32.5 175t86.5 130.5t123 81.5t142 28z" />
<glyph unicode="&#x10d;" horiz-adv-x="554" d="M542 707l-147 -151h-142l-83 151h112l55 -72l79 72h126zM393 302q-5 27 -27 48.5t-66 21.5q-22 0 -44 -9t-40 -27.5t-29 -46.5t-11 -65q0 -48 27.5 -73.5t71.5 -25.5q37 0 61.5 18.5t37.5 44.5l124 -47q-12 -30 -33.5 -58t-50.5 -50t-67 -35t-83 -13q-50 0 -93.5 17 t-75.5 48.5t-50.5 74.5t-18.5 96q0 67 23.5 121t63.5 91.5t91 58t107 20.5q51 0 89.5 -15t65.5 -39t43 -55t21 -63z" />
<glyph unicode="&#x10e;" horiz-adv-x="724" d="M639 891l-152 -132h-146l-95 132h132l43 -65l73 65h145zM324 152q51 0 90.5 22t66 57t40.5 79.5t14 88.5q0 35 -9.5 65t-29 51.5t-49.5 33.5t-72 12h-85l-86 -409h120zM17 0l148 709h219q74 0 132.5 -22t98.5 -61.5t61 -94.5t21 -121q0 -99 -31.5 -175.5t-84.5 -128.5 t-121.5 -79t-142.5 -27h-300z" />
<glyph unicode="&#x10f;" horiz-adv-x="598" d="M727 517h-103l73 207h150zM491 100q-4 -16 -6.5 -36.5t-2.5 -40.5v-12t1 -11h-138q-1 5 -1 9.5v12.5q0 11 1 20t2 17q-7 -11 -18 -23t-26 -22t-35.5 -16t-45.5 -6q-45 0 -81 17t-61.5 47t-39 71t-13.5 88q0 65 19.5 119t53.5 93t79.5 60.5t98.5 21.5q31 0 54.5 -6 t39.5 -15t26 -19t15 -18l58 273h152zM292 371q-28 0 -49.5 -13t-36 -34.5t-22 -48t-7.5 -53.5q0 -48 24.5 -73.5t62.5 -25.5q21 0 41 9.5t36 28.5t26 47.5t10 67.5q0 47 -23.5 71t-61.5 24z" />
<glyph unicode="&#x110;" horiz-adv-x="750" d="M39 421h93l60 288h219q74 0 132.5 -22t98.5 -61.5t61 -94.5t21 -121q0 -99 -31.5 -175.5t-84.5 -128.5t-121.5 -79t-142.5 -27h-300l64 309h-92zM351 152q51 0 90.5 22t66 57t40.5 79.5t14 88.5q0 35 -9.5 65t-29 51.5t-49.5 33.5t-72 12h-85l-30 -140h150l-23 -112h-150 l-33 -157h120z" />
<glyph unicode="&#x111;" horiz-adv-x="598" d="M608 654h84l-22 -105h-84l-95 -449q-4 -16 -6.5 -36.5t-2.5 -40.5v-12t1 -11h-138q-1 5 -1 9.5v12.5q0 11 1 20t2 17q-7 -11 -18 -23t-26 -22t-35.5 -16t-45.5 -6q-45 0 -81 17t-61.5 47t-39 71t-13.5 88q0 65 19.5 119t53.5 93t79.5 60.5t98.5 21.5q31 0 54.5 -6 t39.5 -15t26 -19t15 -18l21 98h-90l22 105h90l15 70h152zM292 371q-28 0 -49.5 -13t-36 -34.5t-22 -48t-7.5 -53.5q0 -48 24.5 -73.5t62.5 -25.5q21 0 41 9.5t36 28.5t26 47.5t10 67.5q0 47 -23.5 71t-61.5 24z" />
<glyph unicode="&#x112;" horiz-adv-x="578" d="M16 0l150 709h449l-32 -149h-291l-29 -135h264l-29 -139h-264l-29 -136h292l-32 -150h-449zM242 771l22 109h311l-23 -109h-310z" />
<glyph unicode="&#x113;" horiz-adv-x="554" d="M175 577l22 105h286l-23 -105h-285zM374 308v7q0 12 -4.5 25.5t-14 24.5t-26 18.5t-40.5 7.5q-45 0 -71.5 -23t-38.5 -60h195zM165 209q0 -40 25.5 -69.5t78.5 -29.5q32 0 56.5 16t36.5 40l118 -53q-12 -24 -31.5 -47t-47 -41t-63.5 -29t-82 -11q-47 0 -88.5 17t-73 47.5 t-50 73t-18.5 93.5q0 69 22.5 123.5t60 93t84.5 59t97 20.5q52 0 94 -16t70.5 -44.5t44 -67.5t15.5 -85q0 -17 -3 -41.5t-11 -47.5z" />
<glyph unicode="&#x114;" horiz-adv-x="578" d="M16 0l150 709h449l-32 -149h-291l-29 -135h264l-29 -139h-264l-29 -136h292l-32 -150h-449zM396 753q-31 0 -58 7.5t-47 22.5t-31.5 37t-11.5 52v7t2 12h104q-1 -5 -1 -9q0 -18 12.5 -29t36.5 -11q26 0 43 14.5t22 34.5h116q-6 -24 -21 -49t-38.5 -44.5t-55.5 -32 t-72 -12.5z" />
<glyph unicode="&#x115;" horiz-adv-x="554" d="M374 308v7q0 12 -4.5 25.5t-14 24.5t-26 18.5t-40.5 7.5q-45 0 -71.5 -23t-38.5 -60h195zM165 209q0 -40 25.5 -69.5t78.5 -29.5q32 0 56.5 16t36.5 40l118 -53q-12 -24 -31.5 -47t-47 -41t-63.5 -29t-82 -11q-47 0 -88.5 17t-73 47.5t-50 73t-18.5 93.5q0 69 22.5 123.5 t60 93t84.5 59t97 20.5q52 0 94 -16t70.5 -44.5t44 -67.5t15.5 -85q0 -17 -3 -41.5t-11 -47.5zM326 551q-37 0 -64.5 11t-46 29t-27.5 42t-9 50q0 8 0.5 13.5t1.5 10.5h96q-1 -3 -1 -7q0 -18 12.5 -34.5t45.5 -16.5q18 0 31 5.5t22 14t14.5 19t8.5 19.5h108 q-7 -31 -22.5 -59t-39 -49.5t-56 -34.5t-74.5 -13z" />
<glyph unicode="&#x116;" horiz-adv-x="578" d="M317 834q0 18 7.5 34.5t21 30t31.5 21.5t38 8q35 0 57.5 -22.5t22.5 -54.5q0 -21 -8 -39t-21 -31t-31 -20.5t-37 -7.5q-35 0 -58 24t-23 57zM16 0l150 709h449l-32 -149h-291l-29 -135h264l-29 -139h-264l-29 -136h292l-32 -150h-449z" />
<glyph unicode="&#x117;" horiz-adv-x="554" d="M374 308v7q0 12 -4.5 25.5t-14 24.5t-26 18.5t-40.5 7.5q-45 0 -71.5 -23t-38.5 -60h195zM165 209q0 -40 25.5 -69.5t78.5 -29.5q32 0 56.5 16t36.5 40l118 -53q-12 -24 -31.5 -47t-47 -41t-63.5 -29t-82 -11q-47 0 -88.5 17t-73 47.5t-50 73t-18.5 93.5q0 69 22.5 123.5 t60 93t84.5 59t97 20.5q52 0 94 -16t70.5 -44.5t44 -67.5t15.5 -85q0 -17 -3 -41.5t-11 -47.5zM244 625q0 18 7.5 35.5t21 31t31 21.5t38.5 8q35 0 57 -22.5t22 -54.5q0 -21 -8 -39t-21 -31t-30.5 -20.5t-36.5 -7.5q-36 0 -58.5 23t-22.5 56z" />
<glyph unicode="&#x118;" horiz-adv-x="578" d="M465 0q-17 -6 -33.5 -15t-30.5 -21t-22.5 -27t-8.5 -32q0 -20 14 -29.5t35 -11.5h10t9 1l-18 -87q-13 -4 -40 -4q-23 0 -44.5 7t-38 20.5t-26 32.5t-9.5 44q0 44 22 74t50 48h-318l150 709h449l-32 -149h-291l-29 -135h264l-29 -139h-264l-29 -136h292z" />
<glyph unicode="&#x119;" horiz-adv-x="554" d="M165 209q0 -40 25.5 -69.5t78.5 -29.5q32 0 56.5 16t36.5 40l118 -53q-18 -36 -52 -68t-88 -49q-15 -5 -30.5 -13.5t-27.5 -20t-19.5 -25t-7.5 -28.5q0 -23 13.5 -33t35.5 -12h10t9 1l-18 -87q-13 -4 -40 -4q-23 0 -44.5 7t-38 20.5t-26 32.5t-9.5 44q0 38 17 66t40 47 q-38 8 -70.5 27.5t-56.5 48.5t-37.5 67t-13.5 82q0 69 22.5 123.5t60 93t84.5 59t97 20.5q52 0 94 -16t70.5 -44.5t44 -67.5t15.5 -85q0 -17 -3 -41.5t-11 -47.5zM374 308v7q0 12 -4.5 25.5t-14 24.5t-26 18.5t-40.5 7.5q-45 0 -71.5 -23t-38.5 -60h195z" />
<glyph unicode="&#x11a;" horiz-adv-x="578" d="M619 891l-152 -132h-146l-95 132h132l43 -65l73 65h145zM16 0l150 709h449l-32 -149h-291l-29 -135h264l-29 -139h-264l-29 -136h292l-32 -150h-449z" />
<glyph unicode="&#x11b;" horiz-adv-x="554" d="M528 707l-147 -151h-142l-83 151h112l55 -72l79 72h126zM374 308v7q0 12 -4.5 25.5t-14 24.5t-26 18.5t-40.5 7.5q-45 0 -71.5 -23t-38.5 -60h195zM165 209q0 -40 25.5 -69.5t78.5 -29.5q32 0 56.5 16t36.5 40l118 -53q-12 -24 -31.5 -47t-47 -41t-63.5 -29t-82 -11 q-47 0 -88.5 17t-73 47.5t-50 73t-18.5 93.5q0 69 22.5 123.5t60 93t84.5 59t97 20.5q52 0 94 -16t70.5 -44.5t44 -67.5t15.5 -85q0 -17 -3 -41.5t-11 -47.5z" />
<glyph unicode="&#x11c;" horiz-adv-x="766" d="M260 759l150 132h146l95 -132h-135l-44 65l-73 -65h-139zM428 574q-38 0 -76.5 -16t-69 -48t-49.5 -80.5t-19 -112.5q0 -41 11 -75t32.5 -58.5t53 -38.5t72.5 -14q37 0 66.5 9t51 24.5t36 36.5t22.5 44h-207l29 134h352l-80 -379h-119v69q-27 -36 -73.5 -58t-107.5 -22 q-69 0 -124.5 23.5t-95 66t-60.5 101t-21 128.5q0 98 32 175t85 130.5t122.5 81.5t143.5 28l4 1q76 0 131 -21t92 -53t57 -71t26 -76l-155 -48q-4 19 -14 40.5t-29 38.5t-48 28.5t-71 11.5z" />
<glyph unicode="&#x11d;" horiz-adv-x="601" d="M157 556l150 151h141l84 -151h-114l-53 71l-84 -71h-124zM380 285q0 41 -24.5 64.5t-60.5 23.5q-50 0 -82 -35.5t-32 -91.5q0 -42 24.5 -65.5t64.5 -23.5q21 0 41 9t35 25.5t24.5 40t9.5 53.5zM102 13q0 -36 25 -61.5t75 -25.5q48 0 82 30t48 88l7 31 q-13 -16 -40.5 -30.5t-68.5 -14.5q-46 0 -83 15.5t-63.5 43t-40.5 65t-14 81.5q0 57 19 107t52 86.5t78.5 58t99.5 21.5q62 0 97.5 -21t47.5 -42l10 52h147l-96 -455q-11 -52 -34 -97t-58.5 -78.5t-82.5 -52.5t-105 -19q-62 0 -106.5 17.5t-73 45t-42 62t-13.5 67.5z" />
<glyph unicode="&#x11e;" horiz-adv-x="766" d="M472 753q-31 0 -58 7.5t-47 22.5t-31.5 37t-11.5 52v7t2 12h104q-1 -5 -1 -9q0 -18 12.5 -29t36.5 -11q26 0 43 14.5t22 34.5h116q-6 -24 -21 -49t-38.5 -44.5t-55.5 -32t-72 -12.5zM428 574q-38 0 -76.5 -16t-69 -48t-49.5 -80.5t-19 -112.5q0 -41 11 -75t32.5 -58.5 t53 -38.5t72.5 -14q37 0 66.5 9t51 24.5t36 36.5t22.5 44h-207l29 134h352l-80 -379h-119v69q-27 -36 -73.5 -58t-107.5 -22q-69 0 -124.5 23.5t-95 66t-60.5 101t-21 128.5q0 98 32 175t85 130.5t122.5 81.5t143.5 28l4 1q76 0 131 -21t92 -53t57 -71t26 -76l-155 -48 q-4 19 -14 40.5t-29 38.5t-48 28.5t-71 11.5z" />
<glyph unicode="&#x11f;" horiz-adv-x="601" d="M380 285q0 41 -24.5 64.5t-60.5 23.5q-50 0 -82 -35.5t-32 -91.5q0 -42 24.5 -65.5t64.5 -23.5q21 0 41 9t35 25.5t24.5 40t9.5 53.5zM102 13q0 -36 25 -61.5t75 -25.5q48 0 82 30t48 88l7 31q-13 -16 -40.5 -30.5t-68.5 -14.5q-46 0 -83 15.5t-63.5 43t-40.5 65 t-14 81.5q0 57 19 107t52 86.5t78.5 58t99.5 21.5q62 0 97.5 -21t47.5 -42l10 52h147l-96 -455q-11 -52 -34 -97t-58.5 -78.5t-82.5 -52.5t-105 -19q-62 0 -106.5 17.5t-73 45t-42 62t-13.5 67.5zM336 551q-37 0 -64.5 11t-46 29t-27.5 42t-9 50q0 8 0.5 13.5t1.5 10.5h96 q-1 -3 -1 -7q0 -18 12.5 -34.5t45.5 -16.5q18 0 31 5.5t22 14t14.5 19t8.5 19.5h108q-7 -31 -22.5 -59t-39 -49.5t-56 -34.5t-74.5 -13z" />
<glyph unicode="&#x120;" horiz-adv-x="766" d="M395 839q0 18 7.5 34.5t21 30t31.5 21.5t38 8q35 0 57.5 -22.5t22.5 -54.5q0 -21 -8 -39t-21 -31t-31 -20.5t-37 -7.5q-35 0 -58 24t-23 57zM428 574q-38 0 -76.5 -16t-69 -48t-49.5 -80.5t-19 -112.5q0 -41 11 -75t32.5 -58.5t53 -38.5t72.5 -14q37 0 66.5 9t51 24.5 t36 36.5t22.5 44h-207l29 134h352l-80 -379h-119v69q-27 -36 -73.5 -58t-107.5 -22q-69 0 -124.5 23.5t-95 66t-60.5 101t-21 128.5q0 98 32 175t85 130.5t122.5 81.5t143.5 28l4 1q76 0 131 -21t92 -53t57 -71t26 -76l-155 -48q-4 19 -14 40.5t-29 38.5t-48 28.5t-71 11.5z " />
<glyph unicode="&#x121;" horiz-adv-x="601" d="M248 625q0 18 7.5 35.5t21 31t31 21.5t38.5 8q35 0 57 -22.5t22 -54.5q0 -21 -8 -39t-21 -31t-30.5 -20.5t-36.5 -7.5q-36 0 -58.5 23t-22.5 56zM380 285q0 41 -24.5 64.5t-60.5 23.5q-50 0 -82 -35.5t-32 -91.5q0 -42 24.5 -65.5t64.5 -23.5q21 0 41 9t35 25.5t24.5 40 t9.5 53.5zM102 13q0 -36 25 -61.5t75 -25.5q48 0 82 30t48 88l7 31q-13 -16 -40.5 -30.5t-68.5 -14.5q-46 0 -83 15.5t-63.5 43t-40.5 65t-14 81.5q0 57 19 107t52 86.5t78.5 58t99.5 21.5q62 0 97.5 -21t47.5 -42l10 52h147l-96 -455q-11 -52 -34 -97t-58.5 -78.5 t-82.5 -52.5t-105 -19q-62 0 -106.5 17.5t-73 45t-42 62t-13.5 67.5z" />
<glyph unicode="&#x122;" horiz-adv-x="766" d="M246 -121q0 31 24 53t59 22q42 0 62.5 -24.5t20.5 -57.5q0 -35 -12.5 -61t-33 -44t-47 -27t-55.5 -9q-8 0 -17.5 1t-17.5 3l11 51q5 -1 10.5 -1h10.5q23 0 44.5 7.5t31.5 30.5q-10 -4 -24 -4q-34 0 -50.5 18.5t-16.5 41.5zM428 574q-38 0 -76.5 -16t-69 -48t-49.5 -80.5 t-19 -112.5q0 -41 11 -75t32.5 -58.5t53 -38.5t72.5 -14q37 0 66.5 9t51 24.5t36 36.5t22.5 44h-207l29 134h352l-80 -379h-119v69q-27 -36 -73.5 -58t-107.5 -22q-69 0 -124.5 23.5t-95 66t-60.5 101t-21 128.5q0 98 32 175t85 130.5t122.5 81.5t143.5 28l4 1q76 0 131 -21 t92 -53t57 -71t26 -76l-155 -48q-4 19 -14 40.5t-29 38.5t-48 28.5t-71 11.5z" />
<glyph unicode="&#x123;" horiz-adv-x="601" d="M417 622q0 -31 -23.5 -53.5t-58.5 -22.5q-40 0 -61.5 25.5t-21.5 58.5t13 59t34 44.5t48 28t56 9.5q13 0 20.5 -1t11.5 -2l-11 -53q-4 1 -9.5 2t-14.5 1q-30 0 -49.5 -13t-25.5 -27q4 2 11 4t16 2q35 0 50 -19.5t15 -42.5zM380 285q0 41 -24.5 64.5t-60.5 23.5 q-50 0 -82 -35.5t-32 -91.5q0 -42 24.5 -65.5t64.5 -23.5q21 0 41 9t35 25.5t24.5 40t9.5 53.5zM102 13q0 -36 25 -61.5t75 -25.5q48 0 82 30t48 88l7 31q-13 -16 -40.5 -30.5t-68.5 -14.5q-46 0 -83 15.5t-63.5 43t-40.5 65t-14 81.5q0 57 19 107t52 86.5t78.5 58 t99.5 21.5q62 0 97.5 -21t47.5 -42l10 52h147l-96 -455q-11 -52 -34 -97t-58.5 -78.5t-82.5 -52.5t-105 -19q-62 0 -106.5 17.5t-73 45t-42 62t-13.5 67.5z" />
<glyph unicode="&#x124;" horiz-adv-x="736" d="M263 759l150 132h146l95 -132h-135l-44 65l-73 -65h-139zM435 0l60 284h-261l-61 -284h-157l150 709h158l-59 -276h262l59 276h159l-151 -709h-159z" />
<glyph unicode="&#x125;" horiz-adv-x="583" d="M310 0l57 264q4 17 5 26t1 16q0 31 -18 50t-52 19q-35 0 -57.5 -24.5t-30.5 -62.5l-62 -288h-152l153 724h153l-57 -267q23 28 57 40.5t68 12.5q39 0 68 -12.5t48.5 -34t29.5 -50.5t10 -63q0 -14 -1.5 -29.5t-6.5 -35.5l-61 -285h-152zM195 769l150 132h146l95 -132h-135 l-44 65l-73 -65h-139z" />
<glyph unicode="&#x126;" horiz-adv-x="758" d="M77 611h80l21 98h158l-21 -98h262l21 98h159l-21 -98h79l-20 -93h-79l-110 -518h-159l60 284h-261l-61 -284h-157l109 518h-80zM539 433l18 85h-262l-18 -85h262z" />
<glyph unicode="&#x127;" horiz-adv-x="583" d="M310 0l60 282q3 12 3 24q0 31 -18 50t-52 19q-35 0 -57.5 -24.5t-30.5 -62.5l-62 -288h-152l116 549h-73l22 105h73l15 70h153l-15 -70h109l-22 -105h-110l-19 -92q23 28 57 40.5t68 12.5q39 0 68 -12.5t48.5 -34t29.5 -50.5t10 -63q0 -27 -6 -55l-63 -295h-152z" />
<glyph unicode="&#x128;" horiz-adv-x="317" d="M16 0l150 709h160l-151 -709h-159zM455 895q-11 -78 -46 -111t-82 -33q-23 0 -41 7.5t-35 17.5q-14 9 -27 16t-24 7q-13 0 -22.5 -10t-12.5 -32h-93q4 39 17 66t31 43.5t40 23.5t45 7q24 0 41.5 -7t32.5 -16q14 -8 25 -15.5t22 -7.5q29 0 36 44h93z" />
<glyph unicode="&#x129;" horiz-adv-x="280" d="M0 0l107 497h153l-107 -497h-153zM11 557q4 41 17.5 69.5t33 46.5t42.5 26t47 8q26 0 43.5 -7t31.5 -16q13 -9 25 -15.5t25 -6.5q19 0 28.5 12t13.5 32h94q-6 -40 -19 -68.5t-31 -46.5t-40 -26.5t-45 -8.5q-24 0 -42 7t-34 16q-14 8 -26.5 14.5t-26.5 6.5q-34 0 -43 -43 h-94z" />
<glyph unicode="&#x12a;" horiz-adv-x="317" d="M16 0l150 709h160l-151 -709h-159zM99 771l22 109h311l-23 -109h-310z" />
<glyph unicode="&#x12b;" horiz-adv-x="281" d="M0 0l107 497h153l-107 -497h-153zM52 577l22 105h286l-23 -105h-285z" />
<glyph unicode="&#x12c;" horiz-adv-x="317" d="M16 0l150 709h160l-151 -709h-159zM261 753q-31 0 -58 7.5t-47 22.5t-31.5 37t-11.5 52v7t2 12h104q-1 -5 -1 -9q0 -18 12.5 -29t36.5 -11q26 0 43 14.5t22 34.5h116q-6 -24 -21 -49t-38.5 -44.5t-55.5 -32t-72 -12.5z" />
<glyph unicode="&#x12d;" horiz-adv-x="280" d="M0 0l107 497h153l-107 -497h-153zM197 551q-37 0 -64.5 11t-46 29t-27.5 42t-9 50q0 8 0.5 13.5t1.5 10.5h96q-1 -3 -1 -7q0 -18 12.5 -34.5t45.5 -16.5q18 0 31 5.5t22 14t14.5 19t8.5 19.5h108q-7 -31 -22.5 -59t-39 -49.5t-56 -34.5t-74.5 -13z" />
<glyph unicode="&#x12e;" horiz-adv-x="317" d="M90 -226q-23 0 -44.5 7t-38 20.5t-26 32.5t-9.5 44q0 44 21.5 73.5t49.5 48.5h-27l150 709h160l-151 -709q-17 -6 -33.5 -15t-30.5 -21t-22.5 -27t-8.5 -32q0 -20 14 -29.5t35 -11.5h10t9 1l-18 -87q-13 -4 -40 -4z" />
<glyph unicode="&#x12f;" horiz-adv-x="279" d="M67 -226q-23 0 -44.5 7t-38 20.5t-26 32.5t-9.5 44q0 44 21.5 73.5t49.5 48.5h-20l106 497h152l-106 -497q-17 -6 -33.5 -15t-30.5 -21t-22.5 -27t-8.5 -32q0 -20 14 -29.5t35 -11.5h10t9 1l-18 -87q-13 -4 -40 -4zM124 642q0 41 28 68.5t70 27.5q35 0 57 -22t22 -55 q0 -22 -8 -39.5t-21.5 -30t-31.5 -19.5t-37 -7q-35 0 -57 22t-22 55z" />
<glyph unicode="&#x130;" horiz-adv-x="317" d="M16 0l150 709h160l-151 -709h-159zM180 834q0 18 7.5 34.5t21 30t31.5 21.5t38 8q35 0 57.5 -22.5t22.5 -54.5q0 -21 -8 -39t-21 -31t-31 -20.5t-37 -7.5q-35 0 -58 24t-23 57z" />
<glyph unicode="&#x131;" horiz-adv-x="281" d="M0 0l107 497h153l-107 -497h-153z" />
<glyph unicode="&#x132;" horiz-adv-x="609" d="M82 349l79 360h147l-75 -342zM623 709l-108 -511q-10 -48 -33 -87.5t-56 -67.5t-74 -43t-88 -15q-51 0 -90.5 15t-67.5 41t-42.5 62.5t-14.5 80.5q0 17 1 31t5 31l6 24l153 22l-11 -54q-3 -14 -3 -25q0 -32 17.5 -55t55.5 -23q34 0 56 24t30 60l104 490h160z" />
<glyph unicode="&#x133;" horiz-adv-x="558" d="M124 642q0 41 28 68.5t70 27.5q35 0 57 -22t22 -55q0 -22 -8 -39.5t-21.5 -30t-31.5 -19.5t-37 -7q-35 0 -57 22t-22 55zM0 0l106 497h152l-106 -497h-152zM387 497h151l-117 -551q-16 -76 -63 -113.5t-113 -37.5q-37 0 -63 9.5t-36 17.5l25 118q0 1 13 -5t36 -6 q22 0 36.5 12t19.5 39zM405 642q0 41 27.5 68.5t69.5 27.5q36 0 58 -22t22 -55q0 -22 -8 -39.5t-21.5 -30t-31.5 -19.5t-37 -7q-35 0 -57 22t-22 55z" />
<glyph unicode="&#x134;" horiz-adv-x="559" d="M297 759l150 132h146l95 -132h-135l-44 65l-73 -65h-139zM573 709l-108 -511q-10 -48 -33 -87.5t-56 -67.5t-74 -43t-88 -15q-51 0 -90.5 15t-67.5 41t-42.5 62.5t-14.5 80.5q0 15 1.5 32t5.5 34l5 22l153 23l-9 -47q-2 -7 -3 -20t-1 -19q0 -28 17 -51t55 -23q34 0 56 24 t30 60l104 490h160z" />
<glyph unicode="&#x135;" horiz-adv-x="279" d="M1 556l150 151h141l84 -151h-114l-53 71l-84 -71h-124zM107 497h151l-117 -551q-16 -76 -63 -113.5t-113 -37.5q-37 0 -63 9.5t-36 17.5l25 118q0 1 13 -5t36 -6q22 0 36.5 12t19.5 39z" />
<glyph unicode="&#x136;" horiz-adv-x="693" d="M306 277l-92 -84l-41 -193h-157l150 709h158l-59 -276l302 276h218l-356 -322l202 -387h-188zM209 -120q0 31 24 53t59 22q42 0 62.5 -24.5t20.5 -57.5q0 -35 -12.5 -61t-33 -44t-47 -27t-55.5 -9q-8 0 -17.5 1t-17.5 3l11 51q5 -1 10.5 -1h10.5q23 0 44.5 7.5t31.5 30.5 q-10 -4 -24 -4q-34 0 -50.5 18.5t-16.5 41.5z" />
<glyph unicode="&#x137;" horiz-adv-x="569" d="M245 184l-65 -57l-27 -127h-152l153 724h153l-82 -383l174 156h207l-248 -215l138 -282h-169zM135 -120q0 31 24 53t59 22q42 0 62.5 -24.5t20.5 -57.5q0 -35 -12.5 -61t-33 -44t-47 -27t-55.5 -9q-8 0 -17.5 1t-17.5 3l11 51q5 -1 10.5 -1h10.5q23 0 44.5 7.5t31.5 30.5 q-10 -4 -24 -4q-34 0 -50.5 18.5t-16.5 41.5z" />
<glyph unicode="&#x138;" horiz-adv-x="569" d="M245 184l-65 -57l-27 -127h-152l105 498h153l-34 -157l174 156h207l-248 -215l138 -282h-169z" />
<glyph unicode="&#x139;" horiz-adv-x="550" d="M327 759h-143l132 132h188zM16 0l150 709h158l-119 -558h301l-32 -151h-458z" />
<glyph unicode="&#x13a;" horiz-adv-x="280" d="M309 769h-143l132 132h188zM1 0l154 724h152l-154 -724h-152z" />
<glyph unicode="&#x13b;" horiz-adv-x="550" d="M155 -120q0 31 24 53t59 22q42 0 62.5 -24.5t20.5 -57.5q0 -35 -12.5 -61t-33 -44t-47 -27t-55.5 -9q-8 0 -17.5 1t-17.5 3l11 51q5 -1 10.5 -1h10.5q23 0 44.5 7.5t31.5 30.5q-10 -4 -24 -4q-34 0 -50.5 18.5t-16.5 41.5zM16 0l150 709h158l-119 -558h301l-32 -151h-458 z" />
<glyph unicode="&#x13c;" horiz-adv-x="280" d="M-30 -120q0 31 24 53t59 22q42 0 62.5 -24.5t20.5 -57.5q0 -35 -12.5 -61t-33 -44t-47 -27t-55.5 -9q-8 0 -17.5 1t-17.5 3l11 51q5 -1 10.5 -1h10.5q23 0 44.5 7.5t31.5 30.5q-10 -4 -24 -4q-34 0 -50.5 18.5t-16.5 41.5zM1 0l154 724h152l-154 -724h-152z" />
<glyph unicode="&#x13d;" horiz-adv-x="551" d="M16 0l150 709h158l-119 -558h301l-32 -151h-458zM470 542h-107l77 217h155z" />
<glyph unicode="&#x13e;" horiz-adv-x="280" d="M413 517h-103l73 207h150zM1 0l154 724h152l-154 -724h-152z" />
<glyph unicode="&#x13f;" horiz-adv-x="550" d="M16 0l150 709h158l-119 -558h301l-32 -151h-458zM339 411q0 17 7 33t19.5 28.5t29.5 20t36 7.5q32 0 53.5 -21.5t21.5 -51.5q0 -20 -7.5 -36.5t-20 -29t-29 -19.5t-34.5 -7q-33 0 -54.5 22.5t-21.5 53.5z" />
<glyph unicode="&#x140;" horiz-adv-x="429" d="M1 0l154 724h152l-154 -724h-152zM273 330q0 18 7.5 35.5t21 31t31 21.5t38.5 8q35 0 57 -22.5t22 -54.5q0 -21 -8 -39t-21 -31t-30.5 -20.5t-36.5 -7.5q-36 0 -58.5 23t-22.5 56z" />
<glyph unicode="&#x141;" horiz-adv-x="583" d="M50 0l58 277l-104 -43l26 123l104 43l66 309h158l-51 -238l138 57l-26 -122l-138 -57l-42 -198h301l-32 -151h-458z" />
<glyph unicode="&#x142;" horiz-adv-x="388" d="M54 0l59 277l-90 -37l26 123l90 37l69 324h152l-55 -256l103 42l-26 -123l-103 -42l-73 -345h-152z" />
<glyph unicode="&#x143;" horiz-adv-x="757" d="M519 759h-143l132 132h188zM459 0l-188 465l-99 -465h-156l150 709h180l170 -432l92 432h158l-151 -709h-156z" />
<glyph unicode="&#x144;" horiz-adv-x="584" d="M374 556h-129l122 151h181zM311 0l56 263q4 16 5 26.5t1 16.5q0 31 -17 50t-52 19t-57.5 -24.5t-30.5 -62.5l-62 -288h-152l87 414q6 29 7.5 47.5t1.5 35.5h148q0 -5 -0.5 -19t-2.5 -28q23 32 60.5 46t72.5 14q39 0 68 -12.5t48.5 -34t29.5 -50.5t10 -63q0 -27 -6 -55 l-63 -295h-152z" />
<glyph unicode="&#x145;" horiz-adv-x="757" d="M237 -120q0 31 24 53t59 22q42 0 62.5 -24.5t20.5 -57.5q0 -35 -12.5 -61t-33 -44t-47 -27t-55.5 -9q-8 0 -17.5 1t-17.5 3l11 51q5 -1 10.5 -1h10.5q23 0 44.5 7.5t31.5 30.5q-10 -4 -24 -4q-34 0 -50.5 18.5t-16.5 41.5zM459 0l-188 465l-99 -465h-156l150 709h180 l170 -432l92 432h158l-151 -709h-156z" />
<glyph unicode="&#x146;" horiz-adv-x="584" d="M138 -120q0 31 24 53t59 22q42 0 62.5 -24.5t20.5 -57.5q0 -35 -12.5 -61t-33 -44t-47 -27t-55.5 -9q-8 0 -17.5 1t-17.5 3l11 51q5 -1 10.5 -1h10.5q23 0 44.5 7.5t31.5 30.5q-10 -4 -24 -4q-34 0 -50.5 18.5t-16.5 41.5zM311 0l56 263q4 16 5 26.5t1 16.5q0 31 -17 50 t-52 19t-57.5 -24.5t-30.5 -62.5l-62 -288h-152l87 414q6 29 7.5 47.5t1.5 35.5h148q0 -5 -0.5 -19t-2.5 -28q23 32 60.5 46t72.5 14q39 0 68 -12.5t48.5 -34t29.5 -50.5t10 -63q0 -27 -6 -55l-63 -295h-152z" />
<glyph unicode="&#x147;" horiz-adv-x="757" d="M693 891l-152 -132h-146l-95 132h132l43 -65l73 65h145zM459 0l-188 465l-99 -465h-156l150 709h180l170 -432l92 432h158l-151 -709h-156z" />
<glyph unicode="&#x148;" horiz-adv-x="584" d="M547 707l-147 -151h-142l-83 151h112l55 -72l79 72h126zM311 0l56 263q4 16 5 26.5t1 16.5q0 31 -17 50t-52 19t-57.5 -24.5t-30.5 -62.5l-62 -288h-152l87 414q6 29 7.5 47.5t1.5 35.5h148q0 -5 -0.5 -19t-2.5 -28q23 32 60.5 46t72.5 14q39 0 68 -12.5t48.5 -34 t29.5 -50.5t10 -63q0 -27 -6 -55l-63 -295h-152z" />
<glyph unicode="&#x149;" horiz-adv-x="584" d="M53 596q5 -1 10.5 -1.5t11.5 -0.5q22 0 43.5 8t30.5 30q-2 -1 -8.5 -2.5t-14.5 -1.5q-34 0 -50.5 18.5t-16.5 41.5q0 31 23.5 53t59.5 22q42 0 62 -24t20 -57q0 -35 -12 -61t-32 -44t-47 -27t-57 -9q-17 0 -35 3zM311 0l56 263q4 16 5 26.5t1 16.5q0 31 -17 50t-52 19 t-57.5 -24.5t-30.5 -62.5l-62 -288h-152l87 414q6 29 7.5 47.5t1.5 35.5h148q0 -5 -0.5 -19t-2.5 -28q23 32 60.5 46t72.5 14q39 0 68 -12.5t48.5 -34t29.5 -50.5t10 -63q0 -27 -6 -55l-63 -295h-152z" />
<glyph unicode="&#x14a;" horiz-adv-x="757" d="M459 -1l-188 466l-99 -465h-156l150 709h180l170 -432l92 432h158l-162 -759q-15 -71 -65.5 -112t-119.5 -41q-46 0 -75.5 10.5t-34.5 14.5l28 128q6 -3 21 -8.5t38 -5.5q25 0 40.5 13.5t19.5 32.5z" />
<glyph unicode="&#x14b;" horiz-adv-x="584" d="M275 -206q-37 0 -63 9.5t-36 16.5l25 119q8 -4 19.5 -7.5t29.5 -3.5q22 0 36 12t20 39l63 294q2 6 3 15t1 18q0 31 -17.5 50t-51.5 19q-35 0 -57.5 -24.5t-30.5 -62.5l-62 -288h-152l87 414q6 30 7.5 50.5t1.5 32.5h148q0 -5 -0.5 -19t-2.5 -28q23 32 60.5 46t72.5 14 q39 0 68 -12.5t48.5 -34t29.5 -50.5t10 -63q0 -27 -6 -55l-75 -350q-17 -77 -63.5 -114t-112.5 -37z" />
<glyph unicode="&#x14c;" horiz-adv-x="778" d="M312 771l22 109h311l-23 -109h-310zM52 307q0 98 32 175.5t85 131t122 82t143 28.5q72 0 130.5 -23.5t100 -65.5t64 -101t22.5 -131q0 -98 -32 -175.5t-85.5 -131.5t-122.5 -82.5t-143 -28.5q-71 0 -129 23.5t-99.5 66t-64.5 101.5t-23 131zM589 397q0 78 -42 126.5 t-121 48.5q-39 0 -77 -16.5t-68 -49t-48.5 -80.5t-18.5 -110q0 -80 42.5 -128.5t119.5 -48.5q39 0 77 17t68 50t49 81t19 110z" />
<glyph unicode="&#x14d;" horiz-adv-x="584" d="M183 577l22 105h286l-23 -105h-285zM296 373q-27 0 -49.5 -12.5t-38 -33t-24 -47.5t-8.5 -55q0 -48 26 -74.5t65 -26.5q19 0 40.5 9t39 27t29 46t11.5 67q0 50 -25 74.5t-66 25.5zM538 280q0 -59 -20.5 -112.5t-57.5 -94t-89 -64.5t-114 -24q-52 0 -94.5 18t-73 49 t-47 73.5t-16.5 92.5q0 66 22.5 120.5t61 93t89.5 59.5t108 21q53 0 95.5 -18t72.5 -49t46.5 -73.5t16.5 -91.5z" />
<glyph unicode="&#x14e;" horiz-adv-x="778" d="M479 753q-31 0 -58 7.5t-47 22.5t-31.5 37t-11.5 52v7t2 12h104q-1 -5 -1 -9q0 -18 12.5 -29t36.5 -11q26 0 43 14.5t22 34.5h116q-6 -24 -21 -49t-38.5 -44.5t-55.5 -32t-72 -12.5zM52 307q0 98 32 175.5t85 131t122 82t143 28.5q72 0 130.5 -23.5t100 -65.5t64 -101 t22.5 -131q0 -98 -32 -175.5t-85.5 -131.5t-122.5 -82.5t-143 -28.5q-71 0 -129 23.5t-99.5 66t-64.5 101.5t-23 131zM589 397q0 78 -42 126.5t-121 48.5q-39 0 -77 -16.5t-68 -49t-48.5 -80.5t-18.5 -110q0 -80 42.5 -128.5t119.5 -48.5q39 0 77 17t68 50t49 81t19 110z " />
<glyph unicode="&#x14f;" horiz-adv-x="584" d="M296 373q-27 0 -49.5 -12.5t-38 -33t-24 -47.5t-8.5 -55q0 -48 26 -74.5t65 -26.5q19 0 40.5 9t39 27t29 46t11.5 67q0 50 -25 74.5t-66 25.5zM538 280q0 -59 -20.5 -112.5t-57.5 -94t-89 -64.5t-114 -24q-52 0 -94.5 18t-73 49t-47 73.5t-16.5 92.5q0 66 22.5 120.5 t61 93t89.5 59.5t108 21q53 0 95.5 -18t72.5 -49t46.5 -73.5t16.5 -91.5zM327 551q-37 0 -64.5 11t-46 29t-27.5 42t-9 50q0 8 0.5 13.5t1.5 10.5h96q-1 -3 -1 -7q0 -18 12.5 -34.5t45.5 -16.5q18 0 31 5.5t22 14t14.5 19t8.5 19.5h108q-7 -31 -22.5 -59t-39 -49.5 t-56 -34.5t-74.5 -13z" />
<glyph unicode="&#x150;" horiz-adv-x="778" d="M409 759h-96l76 132h141zM578 759h-98l92 132h144zM52 307q0 98 32 175.5t85 131t122 82t143 28.5q72 0 130.5 -23.5t100 -65.5t64 -101t22.5 -131q0 -98 -32 -175.5t-85.5 -131.5t-122.5 -82.5t-143 -28.5q-71 0 -129 23.5t-99.5 66t-64.5 101.5t-23 131zM589 397 q0 78 -42 126.5t-121 48.5q-39 0 -77 -16.5t-68 -49t-48.5 -80.5t-18.5 -110q0 -80 42.5 -128.5t119.5 -48.5q39 0 77 17t68 50t49 81t19 110z" />
<glyph unicode="&#x151;" horiz-adv-x="584" d="M279 556h-98l86 151h146zM442 556h-100l102 151h148zM296 373q-27 0 -49.5 -12.5t-38 -33t-24 -47.5t-8.5 -55q0 -48 26 -74.5t65 -26.5q19 0 40.5 9t39 27t29 46t11.5 67q0 50 -25 74.5t-66 25.5zM538 280q0 -59 -20.5 -112.5t-57.5 -94t-89 -64.5t-114 -24 q-52 0 -94.5 18t-73 49t-47 73.5t-16.5 92.5q0 66 22.5 120.5t61 93t89.5 59.5t108 21q53 0 95.5 -18t72.5 -49t46.5 -73.5t16.5 -91.5z" />
<glyph unicode="&#x152;" horiz-adv-x="1073" d="M589 397q0 78 -42 126.5t-121 48.5q-39 0 -77 -16.5t-68 -49t-48.5 -80.5t-18.5 -110q0 -80 42.5 -128.5t119.5 -48.5q39 0 76.5 17t67.5 50t48.5 81t20.5 110zM511 0l11 50q-34 -31 -76 -48t-93 -17q-67 0 -122.5 24t-95 67t-61.5 102t-22 129q0 98 32 175.5t85 131 t122 82t143 28.5q75 0 128 -27t80 -76l19 88h449l-32 -149h-291l-29 -135h264l-29 -139h-264l-29 -136h292l-32 -150h-449z" />
<glyph unicode="&#x153;" horiz-adv-x="912" d="M614 -15q-52 0 -96.5 20t-76.5 56q-34 -35 -80.5 -55.5t-103.5 -20.5q-52 0 -94.5 18t-73 49t-47 73.5t-16.5 92.5q0 66 22.5 120.5t61 93t89.5 59.5t108 21q58 0 99.5 -19t67.5 -53q36 35 81 53.5t93 18.5q52 0 94 -16t70.5 -44.5t44 -67.5t15.5 -85q0 -17 -3 -41.5 t-11 -47.5h-335q0 -40 26 -70t78 -30q32 0 56.5 16t36.5 40l118 -53q-12 -24 -31 -47t-47 -41t-64 -29t-82 -11zM732 308q1 4 1 8q0 12 -4.5 25t-15 24.5t-26.5 18.5t-40 7q-45 0 -71.5 -23t-38.5 -60h195zM387 273q0 49 -25 74.5t-66 25.5q-27 0 -49.5 -12.5t-38 -33 t-24 -47.5t-8.5 -55q0 -48 26 -74.5t65 -26.5q19 0 40.5 9t39 27t29 46t11.5 67z" />
<glyph unicode="&#x154;" horiz-adv-x="643" d="M445 759h-143l132 132h188zM304 264h-74l-56 -264h-158l150 709h255q51 0 89.5 -14t65 -38.5t39.5 -58.5t13 -73q0 -89 -48.5 -150t-123.5 -87l106 -288h-167zM348 400q55 0 86 28.5t31 73.5q0 32 -19.5 51.5t-63.5 19.5h-87l-37 -173h90z" />
<glyph unicode="&#x155;" horiz-adv-x="399" d="M281 556h-129l122 151h181zM386 344q-15 5 -27.5 7t-32.5 2q-19 0 -38 -6t-35.5 -20.5t-29.5 -39t-21 -60.5l-49 -227h-152l88 414q6 30 7.5 50.5t1.5 32.5h148q0 -2 -0.5 -19.5t-3.5 -34.5q24 33 56.5 45.5t67.5 12.5q17 0 31 -3t21 -6z" />
<glyph unicode="&#x156;" horiz-adv-x="643" d="M304 264h-74l-56 -264h-158l150 709h255q51 0 89.5 -14t65 -38.5t39.5 -58.5t13 -73q0 -89 -48.5 -150t-123.5 -87l106 -288h-167zM348 400q55 0 86 28.5t31 73.5q0 32 -19.5 51.5t-63.5 19.5h-87l-37 -173h90zM185 -120q0 31 24 53t59 22q42 0 62.5 -24.5t20.5 -57.5 q0 -35 -12.5 -61t-33 -44t-47 -27t-55.5 -9q-8 0 -17.5 1t-17.5 3l11 51q5 -1 10.5 -1h10.5q23 0 44.5 7.5t31.5 30.5q-10 -4 -24 -4q-34 0 -50.5 18.5t-16.5 41.5z" />
<glyph unicode="&#x157;" horiz-adv-x="399" d="M386 344q-15 5 -27.5 7t-32.5 2q-19 0 -38 -6t-35.5 -20.5t-29.5 -39t-21 -60.5l-49 -227h-152l88 414q6 30 7.5 50.5t1.5 32.5h148q0 -2 -0.5 -19.5t-3.5 -34.5q24 33 56.5 45.5t67.5 12.5q17 0 31 -3t21 -6zM-28 -120q0 31 24 53t59 22q42 0 62.5 -24.5t20.5 -57.5 q0 -35 -12.5 -61t-33 -44t-47 -27t-55.5 -9q-8 0 -17.5 1t-17.5 3l11 51q5 -1 10.5 -1h10.5q23 0 44.5 7.5t31.5 30.5q-10 -4 -24 -4q-34 0 -50.5 18.5t-16.5 41.5z" />
<glyph unicode="&#x158;" horiz-adv-x="643" d="M624 891l-152 -132h-146l-95 132h132l43 -65l73 65h145zM304 264h-74l-56 -264h-158l150 709h255q51 0 89.5 -14t65 -38.5t39.5 -58.5t13 -73q0 -89 -48.5 -150t-123.5 -87l106 -288h-167zM348 400q55 0 86 28.5t31 73.5q0 32 -19.5 51.5t-63.5 19.5h-87l-37 -173h90z " />
<glyph unicode="&#x159;" horiz-adv-x="399" d="M477 707l-147 -151h-142l-83 151h112l55 -72l79 72h126zM386 344q-15 5 -27.5 7t-32.5 2q-19 0 -38 -6t-35.5 -20.5t-29.5 -39t-21 -60.5l-49 -227h-152l88 414q6 30 7.5 50.5t1.5 32.5h148q0 -2 -0.5 -19.5t-3.5 -34.5q24 33 56.5 45.5t67.5 12.5q17 0 31 -3t21 -6z" />
<glyph unicode="&#x15a;" horiz-adv-x="605" d="M284 122q46 0 71 20t25 54q0 21 -10.5 38t-40.5 30l-83 34q-72 29 -106 80t-34 115q0 52 21 94.5t56.5 72.5t82.5 46.5t98 16.5q73 0 120.5 -22t75 -54t38.5 -68t11 -63l-147 -24q0 7 -3 23t-13.5 31.5t-31.5 27.5t-57 12q-22 0 -39 -7t-29 -18t-18 -25t-6 -29 q0 -27 14.5 -42.5t35.5 -24.5l75 -32q83 -35 118.5 -84.5t35.5 -115.5q0 -42 -17 -82t-50 -71.5t-81 -50.5t-109 -19q-75 0 -127 22.5t-84 56.5t-46 73.5t-14 74.5q0 10 0.5 16t1.5 11l145 25q-2 -10 -2 -23q0 -22 7 -43t22 -37.5t38 -27t56 -11.5zM454 759h-143l132 132 h188z" />
<glyph unicode="&#x15b;" horiz-adv-x="468" d="M339 556h-129l122 151h181zM132 171q-1 -5 -1 -9q0 -32 18 -49t47 -17q27 0 40 12t13 29q0 11 -6 22.5t-28 20.5l-48 20q-63 26 -88 63t-25 82q0 34 14 64t39.5 53t61.5 36.5t79 13.5q58 0 95 -16.5t57.5 -40.5t28.5 -51t8 -48l-130 -15q0 10 -2 21t-8.5 20.5t-18.5 15.5 t-31 6q-22 0 -36.5 -12t-14.5 -31q0 -13 7.5 -22t19.5 -14l62 -25q63 -26 88 -64.5t25 -84.5q0 -30 -13 -60t-37.5 -53.5t-61.5 -38t-85 -14.5q-62 0 -100.5 18t-60 43.5t-29 52.5t-7.5 45v6z" />
<glyph unicode="&#x15c;" horiz-adv-x="605" d="M202 759l150 132h146l95 -132h-135l-44 65l-73 -65h-139zM284 122q46 0 71 20t25 54q0 21 -10.5 38t-40.5 30l-83 34q-72 29 -106 80t-34 115q0 52 21 94.5t56.5 72.5t82.5 46.5t98 16.5q73 0 120.5 -22t75 -54t38.5 -68t11 -63l-147 -24q0 7 -3 23t-13.5 31.5 t-31.5 27.5t-57 12q-22 0 -39 -7t-29 -18t-18 -25t-6 -29q0 -27 14.5 -42.5t35.5 -24.5l75 -32q83 -35 118.5 -84.5t35.5 -115.5q0 -42 -17 -82t-50 -71.5t-81 -50.5t-109 -19q-75 0 -127 22.5t-84 56.5t-46 73.5t-14 74.5q0 10 0.5 16t1.5 11l145 25q-2 -10 -2 -23 q0 -22 7 -43t22 -37.5t38 -27t56 -11.5z" />
<glyph unicode="&#x15d;" horiz-adv-x="468" d="M93 556l150 151h141l84 -151h-114l-53 71l-84 -71h-124zM132 171q-1 -5 -1 -9q0 -32 18 -49t47 -17q27 0 40 12t13 29q0 11 -6 22.5t-28 20.5l-48 20q-63 26 -88 63t-25 82q0 34 14 64t39.5 53t61.5 36.5t79 13.5q58 0 95 -16.5t57.5 -40.5t28.5 -51t8 -48l-130 -15 q0 10 -2 21t-8.5 20.5t-18.5 15.5t-31 6q-22 0 -36.5 -12t-14.5 -31q0 -13 7.5 -22t19.5 -14l62 -25q63 -26 88 -64.5t25 -84.5q0 -30 -13 -60t-37.5 -53.5t-61.5 -38t-85 -14.5q-62 0 -100.5 18t-60 43.5t-29 52.5t-7.5 45v6z" />
<glyph unicode="&#x15e;" horiz-adv-x="605" d="M284 122q46 0 71 20t25 54q0 21 -10.5 38t-40.5 30l-83 34q-72 29 -106 80t-34 115q0 52 21 94.5t56.5 72.5t82.5 46.5t98 16.5q73 0 120.5 -22t75 -54t38.5 -68t11 -63l-147 -24q0 7 -3 23t-13.5 31.5t-31.5 27.5t-57 12q-22 0 -39 -7t-29 -18t-18 -25t-6 -29 q0 -27 14.5 -42.5t35.5 -24.5l75 -32q83 -35 118.5 -84.5t35.5 -115.5q0 -41 -16.5 -80.5t-49 -71t-79.5 -51t-107 -20.5l-37 -38q36 -4 58 -26.5t22 -52.5q0 -17 -7 -35t-23 -33t-40.5 -25t-59.5 -10q-30 0 -54 8.5t-41 19.5t-27 22t-13 17l56 51q4 -5 10.5 -12t15.5 -14 t21.5 -11.5t27.5 -4.5q17 0 27.5 6.5t10.5 19.5q0 14 -11 20t-25 6h-6.5t-14.5 -1l-24 52l47 49q-52 11 -88 35.5t-58.5 55.5t-32.5 64.5t-10 63.5q0 5 0.5 14t1.5 13l145 25q-2 -10 -2 -23q0 -22 7 -43t22 -37.5t38 -27t56 -11.5z" />
<glyph unicode="&#x15f;" horiz-adv-x="468" d="M4 150l128 21q-1 -5 -1 -9q0 -29 18 -47.5t47 -18.5q27 0 40 12t13 29q0 11 -6 22.5t-28 20.5l-48 20q-63 26 -88 63t-25 82q0 34 14 64t39.5 53t61.5 36.5t79 13.5q58 0 95 -16.5t57.5 -40.5t28.5 -51t8 -48l-130 -17q0 10 -2 21t-8.5 21t-18.5 16.5t-31 6.5 q-22 0 -36.5 -12t-14.5 -31q0 -26 34 -39l55 -22q63 -25 88 -64t25 -85q0 -29 -11 -56.5t-33 -50.5t-54.5 -38.5t-74.5 -19.5l-38 -39q36 -4 58 -26.5t22 -52.5q0 -17 -7 -35t-23 -33t-40.5 -25t-59.5 -10q-30 0 -54 8.5t-41 19.5t-27 22t-13 17l56 51q4 -5 10.5 -12 t15.5 -14t21.5 -11.5t27.5 -4.5q17 0 27.5 6.5t10.5 19.5q0 14 -11 20t-25 6h-10t-11 -1l-24 52l46 47q-41 9 -67 27.5t-40.5 41t-19.5 45t-5 39.5v6z" />
<glyph unicode="&#x160;" horiz-adv-x="605" d="M622 891l-152 -132h-146l-95 132h132l43 -65l73 65h145zM284 122q46 0 71 20t25 54q0 21 -10.5 38t-40.5 30l-83 34q-72 29 -106 80t-34 115q0 52 21 94.5t56.5 72.5t82.5 46.5t98 16.5q73 0 120.5 -22t75 -54t38.5 -68t11 -63l-147 -24q0 7 -3 23t-13.5 31.5t-31.5 27.5 t-57 12q-22 0 -39 -7t-29 -18t-18 -25t-6 -29q0 -27 14.5 -42.5t35.5 -24.5l75 -32q83 -35 118.5 -84.5t35.5 -115.5q0 -42 -17 -82t-50 -71.5t-81 -50.5t-109 -19q-75 0 -127 22.5t-84 56.5t-46 73.5t-14 74.5q0 10 0.5 16t1.5 11l145 25q-2 -10 -2 -23q0 -22 7 -43 t22 -37.5t38 -27t56 -11.5z" />
<glyph unicode="&#x161;" horiz-adv-x="468" d="M495 707l-147 -151h-142l-83 151h112l55 -72l79 72h126zM132 171q-1 -5 -1 -9q0 -32 18 -49t47 -17q27 0 40 12t13 29q0 11 -6 22.5t-28 20.5l-48 20q-63 26 -88 63t-25 82q0 34 14 64t39.5 53t61.5 36.5t79 13.5q58 0 95 -16.5t57.5 -40.5t28.5 -51t8 -48l-130 -15 q0 10 -2 21t-8.5 20.5t-18.5 15.5t-31 6q-22 0 -36.5 -12t-14.5 -31q0 -13 7.5 -22t19.5 -14l62 -25q63 -26 88 -64.5t25 -84.5q0 -30 -13 -60t-37.5 -53.5t-61.5 -38t-85 -14.5q-62 0 -100.5 18t-60 43.5t-29 52.5t-7.5 45v6z" />
<glyph unicode="&#x162;" horiz-adv-x="597" d="M438 558l-119 -558h-31l-52 -53q36 -4 58 -26.5t22 -52.5q0 -17 -7 -35t-23 -33t-40.5 -25t-59.5 -10q-30 0 -54 8.5t-41 19.5t-27 22t-13 17l56 51q4 -5 10.5 -12t15.5 -14t21.5 -11.5t27.5 -4.5q17 0 27.5 6.5t10.5 19.5q0 14 -11 20t-25 6q-7 0 -11.5 -0.5t-9.5 -0.5 l-24 52l53 56h-31l118 558h-208l33 151h565l-33 -151h-198z" />
<glyph unicode="&#x163;" horiz-adv-x="391" d="M59 -120q0 31 24 53t59 22q42 0 62.5 -24.5t20.5 -57.5q0 -35 -12.5 -61t-33 -44t-47 -27t-55.5 -9q-8 0 -17.5 1t-17.5 3l11 51q5 -1 10.5 -1h10.5q23 0 44.5 7.5t31.5 30.5q-10 -4 -24 -4q-34 0 -50.5 18.5t-16.5 41.5zM231 182q-1 -5 -1.5 -9t-0.5 -8q0 -23 14 -33 t37 -10q17 0 37 5l-26 -120q-5 -2 -22.5 -8t-46.5 -6q-70 0 -109.5 36.5t-39.5 97.5q0 11 1.5 21.5t3.5 21.5l40 194h-86l28 133h24q42 0 63.5 21.5t30.5 59.5l15 64h136l-31 -145h96l-29 -133h-95z" />
<glyph unicode="&#x164;" horiz-adv-x="597" d="M620 891l-152 -132h-146l-95 132h132l43 -65l73 65h145zM438 558l-119 -558h-158l118 558h-208l33 151h565l-33 -151h-198z" />
<glyph unicode="&#x165;" horiz-adv-x="391" d="M231 182q-1 -5 -1.5 -9t-0.5 -8q0 -23 14 -33t37 -10q17 0 37 5l-26 -120q-5 -2 -22.5 -8t-46.5 -6q-70 0 -109.5 36.5t-39.5 97.5q0 11 1.5 21.5t3.5 21.5l40 194h-86l28 133h24q42 0 63.5 21.5t30.5 59.5l15 64h136l-31 -145h96l-29 -133h-95zM456 552h-103l73 207h150 z" />
<glyph unicode="&#x166;" horiz-adv-x="613" d="M446 558l-40 -186h122l-24 -113h-122l-55 -259h-158l55 259h-132l25 113h131l39 186h-208l33 151h565l-33 -151h-198z" />
<glyph unicode="&#x167;" horiz-adv-x="397" d="M262 299h97l-22 -104h-97l-3 -13q-1 -5 -1.5 -9t-0.5 -8q0 -23 14 -33t37 -10q17 0 37 5l-26 -120q-4 -2 -22 -8t-47 -6q-70 0 -109.5 36.5t-39.5 97.5q0 11 1.5 21.5t3.5 21.5l5 25h-86l22 104h86l13 65h-86l28 133h24q42 0 63.5 21.5t30.5 59.5l15 64h136l-31 -145h96 l-29 -133h-95z" />
<glyph unicode="&#x168;" horiz-adv-x="693" d="M708 709l-102 -481q-13 -61 -40.5 -106.5t-65 -76t-84 -45.5t-98.5 -15q-58 0 -105 17t-80.5 47.5t-52 73.5t-18.5 96q0 24 3.5 44.5t8.5 46.5l83 399h160l-86 -407q-8 -38 -8 -60q0 -45 25 -73t84 -28q47 0 78.5 28.5t43.5 87.5l94 452h160zM649 895q-11 -78 -46 -111 t-82 -33q-23 0 -41 7.5t-35 17.5q-14 9 -27 16t-24 7q-13 0 -22.5 -10t-12.5 -32h-93q4 39 17 66t31 43.5t40 23.5t45 7q24 0 41.5 -7t32.5 -16q14 -8 25 -15.5t22 -7.5q29 0 36 44h93z" />
<glyph unicode="&#x169;" horiz-adv-x="580" d="M252 497l-60 -281q-3 -15 -3 -28q0 -30 17 -48t51 -18q35 0 56.5 24.5t29.5 62.5l62 288h152l-86 -410q-3 -14 -6 -35.5t-3 -51.5h-147q-1 5 -1 10v7q0 8 0.5 15.5t1.5 15.5q-17 -29 -51 -45t-69 -16q-40 0 -70.5 13t-51.5 35t-31.5 52t-10.5 65q0 26 6 53l62 292h152z M155 557q4 41 17.5 69.5t33 46.5t42.5 26t47 8q26 0 43.5 -7t31.5 -16q13 -9 25 -15.5t25 -6.5q19 0 28.5 12t13.5 32h94q-6 -40 -19 -68.5t-31 -46.5t-40 -26.5t-45 -8.5q-24 0 -42 7t-34 16q-14 8 -26.5 14.5t-26.5 6.5q-34 0 -43 -43h-94z" />
<glyph unicode="&#x16a;" horiz-adv-x="693" d="M708 709l-102 -481q-13 -61 -40.5 -106.5t-65 -76t-84 -45.5t-98.5 -15q-58 0 -105 17t-80.5 47.5t-52 73.5t-18.5 96q0 24 3.5 44.5t8.5 46.5l83 399h160l-86 -407q-8 -38 -8 -60q0 -45 25 -73t84 -28q47 0 78.5 28.5t43.5 87.5l94 452h160zM282 771l22 109h311 l-23 -109h-310z" />
<glyph unicode="&#x16b;" horiz-adv-x="580" d="M252 497l-60 -281q-3 -15 -3 -28q0 -30 17 -48t51 -18q35 0 56.5 24.5t29.5 62.5l62 288h152l-86 -410q-3 -14 -6 -35.5t-3 -51.5h-147q-1 5 -1 10v7q0 8 0.5 15.5t1.5 15.5q-17 -29 -51 -45t-69 -16q-40 0 -70.5 13t-51.5 35t-31.5 52t-10.5 65q0 26 6 53l62 292h152z M189 577l22 105h286l-23 -105h-285z" />
<glyph unicode="&#x16c;" horiz-adv-x="693" d="M708 709l-102 -481q-13 -61 -40.5 -106.5t-65 -76t-84 -45.5t-98.5 -15q-58 0 -105 17t-80.5 47.5t-52 73.5t-18.5 96q0 24 3.5 44.5t8.5 46.5l83 399h160l-86 -407q-8 -38 -8 -60q0 -45 25 -73t84 -28q47 0 78.5 28.5t43.5 87.5l94 452h160zM442 753q-31 0 -58 7.5 t-47 22.5t-31.5 37t-11.5 52v7t2 12h104q-1 -5 -1 -9q0 -18 12.5 -29t36.5 -11q26 0 43 14.5t22 34.5h116q-6 -24 -21 -49t-38.5 -44.5t-55.5 -32t-72 -12.5z" />
<glyph unicode="&#x16d;" horiz-adv-x="580" d="M252 497l-60 -281q-3 -15 -3 -28q0 -30 17 -48t51 -18q35 0 56.5 24.5t29.5 62.5l62 288h152l-86 -410q-3 -14 -6 -35.5t-3 -51.5h-147q-1 5 -1 10v7q0 8 0.5 15.5t1.5 15.5q-17 -29 -51 -45t-69 -16q-40 0 -70.5 13t-51.5 35t-31.5 52t-10.5 65q0 26 6 53l62 292h152z M339 551q-37 0 -64.5 11t-46 29t-27.5 42t-9 50q0 8 0.5 13.5t1.5 10.5h96q-1 -3 -1 -7q0 -18 12.5 -34.5t45.5 -16.5q18 0 31 5.5t22 14t14.5 19t8.5 19.5h108q-7 -31 -22.5 -59t-39 -49.5t-56 -34.5t-74.5 -13z" />
<glyph unicode="&#x16e;" horiz-adv-x="693" d="M708 709l-102 -481q-13 -61 -40.5 -106.5t-65 -76t-84 -45.5t-98.5 -15q-58 0 -105 17t-80.5 47.5t-52 73.5t-18.5 96q0 24 3.5 44.5t8.5 46.5l83 399h160l-86 -407q-8 -38 -8 -60q0 -45 25 -73t84 -28q47 0 78.5 28.5t43.5 87.5l94 452h160zM449 909q-21 0 -37 -15 t-16 -38q0 -18 12.5 -29.5t32.5 -11.5q19 0 36 14t17 39q0 20 -13 30.5t-32 10.5zM304 850q0 30 12 57t33 47t49 32t59 12q27 0 50.5 -9t41.5 -25.5t28 -39t10 -48.5q0 -33 -13.5 -60.5t-35 -47t-49.5 -30.5t-56 -11q-27 0 -51 9t-41 25.5t-27 39t-10 49.5z" />
<glyph unicode="&#x16f;" horiz-adv-x="580" d="M357 764q22 0 41.5 -7t34.5 -20t23.5 -31.5t8.5 -41.5q0 -27 -11 -49.5t-28.5 -38.5t-40.5 -25t-47 -9q-45 0 -75.5 28t-30.5 73q0 27 10.5 49.5t28 38t40 24.5t46.5 9zM309 648q0 -15 10 -24.5t26 -9.5q17 0 28.5 11.5t11.5 29.5q0 14 -9 24t-25 10q-15 0 -28.5 -11 t-13.5 -30zM252 497l-60 -281q-3 -15 -3 -28q0 -30 17 -48t51 -18q35 0 56.5 24.5t29.5 62.5l62 288h152l-86 -410q-3 -14 -6 -35.5t-3 -51.5h-147q-1 5 -1 10v7q0 8 0.5 15.5t1.5 15.5q-17 -29 -51 -45t-69 -16q-40 0 -70.5 13t-51.5 35t-31.5 52t-10.5 65q0 26 6 53 l62 292h152z" />
<glyph unicode="&#x170;" horiz-adv-x="693" d="M393 759h-96l76 132h141zM562 759h-98l92 132h144zM708 709l-102 -481q-13 -61 -40.5 -106.5t-65 -76t-84 -45.5t-98.5 -15q-58 0 -105 17t-80.5 47.5t-52 73.5t-18.5 96q0 24 3.5 44.5t8.5 46.5l83 399h160l-86 -407q-8 -38 -8 -60q0 -45 25 -73t84 -28q47 0 78.5 28.5 t43.5 87.5l94 452h160z" />
<glyph unicode="&#x171;" horiz-adv-x="580" d="M252 497l-60 -281q-3 -15 -3 -28q0 -30 17 -48t51 -18q35 0 56.5 24.5t29.5 62.5l62 288h152l-86 -410q-3 -14 -6 -35.5t-3 -51.5h-147q-1 5 -1 10v7q0 8 0.5 15.5t1.5 15.5q-17 -29 -51 -45t-69 -16q-40 0 -70.5 13t-51.5 35t-31.5 52t-10.5 65q0 26 6 53l62 292h152z M288 556h-98l86 151h146zM451 556h-100l102 151h148z" />
<glyph unicode="&#x172;" horiz-adv-x="693" d="M708 709l-102 -481q-20 -96 -75.5 -153.5t-128.5 -78.5q-15 -5 -30 -13t-26.5 -19t-19 -25t-7.5 -29q0 -23 13.5 -33.5t35.5 -12.5h10t9 1l-18 -87q-8 -2 -17 -3t-23 -1q-23 0 -44.5 7t-38 20.5t-26 32.5t-9.5 44q0 38 16 64.5t39 45.5q-47 7 -84.5 26.5t-64 49.5t-41 69 t-14.5 86q0 35 7 67l88 423h160l-90 -426q-2 -11 -3.5 -21t-1.5 -20q0 -45 25.5 -73t84.5 -28q47 0 78.5 28.5t43.5 87.5l94 452h160z" />
<glyph unicode="&#x173;" horiz-adv-x="580" d="M252 497l-60 -281q-3 -15 -3 -28q0 -30 17 -48t51 -18q35 0 56.5 24.5t29.5 62.5l62 288h152l-86 -410q-3 -14 -6 -34t-3 -41v-12q-17 -6 -33.5 -15t-30.5 -21t-22.5 -27t-8.5 -32q0 -20 14 -29.5t35 -11.5h10t9 1l-18 -87q-13 -4 -40 -4q-23 0 -44.5 7t-38 20.5 t-26 32.5t-9.5 44q0 44 21.5 73.5t49.5 48.5h-15q-1 5 -1 10v7v10.5t2 20.5q-17 -29 -51 -45t-69 -16q-40 0 -70.5 13t-51.5 35t-31.5 52t-10.5 65q0 26 6 53l62 292h152z" />
<glyph unicode="&#x174;" horiz-adv-x="1040" d="M411 759l150 132h146l95 -132h-135l-44 65l-73 -65h-139zM682 709l51 -458l207 458h171l-342 -709h-159l-51 470l-244 -470h-169l-42 709h159l21 -457l236 457h162z" />
<glyph unicode="&#x175;" horiz-adv-x="844" d="M270 556l150 151h141l84 -151h-114l-53 71l-84 -71h-124zM541 497l34 -293l136 293h155l-251 -497h-150l-39 321l-164 -321h-156l-47 497h149l21 -292l150 292h162z" />
<glyph unicode="&#x176;" horiz-adv-x="646" d="M92 709h167l90 -262l182 262h190l-317 -414l-62 -295h-159l63 296zM211 759l150 132h146l95 -132h-135l-44 65l-73 -65h-139z" />
<glyph unicode="&#x177;" horiz-adv-x="540" d="M112 556l150 151h141l84 -151h-114l-53 71l-84 -71h-124zM-28 -190l165 266l-103 421h159l56 -265l155 265h168l-433 -687h-167z" />
<glyph unicode="&#x178;" horiz-adv-x="646" d="M217 817q0 16 6.5 31.5t18.5 28t28 20t34 7.5q32 0 52 -21t20 -50q0 -19 -7.5 -34.5t-19.5 -27t-27.5 -18t-31.5 -6.5q-33 0 -53 20t-20 50zM450 817q0 16 6.5 31.5t18.5 28t28 20t35 7.5q32 0 51.5 -21t19.5 -50q0 -38 -26 -62t-60 -24q-33 0 -53 20t-20 50zM92 709h167 l90 -262l182 262h190l-317 -414l-62 -295h-159l63 296z" />
<glyph unicode="&#x179;" horiz-adv-x="639" d="M460 759h-143l132 132h188zM-20 0l33 152l416 406h-321l32 151h538l-30 -146l-427 -412h343l-32 -151h-552z" />
<glyph unicode="&#x17a;" horiz-adv-x="505" d="M352 556h-129l122 151h181zM-19 0l28 134l263 234h-206l28 129h407l-27 -125l-274 -242h226l-28 -130h-417z" />
<glyph unicode="&#x17b;" horiz-adv-x="639" d="M-20 0l33 152l416 406h-321l32 151h538l-30 -146l-427 -412h343l-32 -151h-552zM335 834q0 18 7.5 34.5t21 30t31.5 21.5t38 8q35 0 57.5 -22.5t22.5 -54.5q0 -21 -8 -39t-21 -31t-31 -20.5t-37 -7.5q-35 0 -58 24t-23 57z" />
<glyph unicode="&#x17c;" horiz-adv-x="505" d="M-19 0l28 134l263 234h-206l28 129h407l-27 -125l-274 -242h226l-28 -130h-417zM227 625q0 18 7.5 35.5t21 31t31 21.5t38.5 8q35 0 57 -22.5t22 -54.5q0 -21 -8 -39t-21 -31t-30.5 -20.5t-36.5 -7.5q-36 0 -58.5 23t-22.5 56z" />
<glyph unicode="&#x17d;" horiz-adv-x="639" d="M642 891l-152 -132h-146l-95 132h132l43 -65l73 65h145zM-20 0l33 152l416 406h-321l32 151h538l-30 -146l-427 -412h343l-32 -151h-552z" />
<glyph unicode="&#x17e;" horiz-adv-x="505" d="M518 707l-147 -151h-142l-83 151h112l55 -72l79 72h126zM-19 0l28 134l263 234h-206l28 129h407l-27 -125l-274 -242h226l-28 -130h-417z" />
<glyph unicode="&#x18f;" horiz-adv-x="781" d="M421 724q77 0 139 -23.5t105.5 -65t66.5 -99.5t23 -127q0 -98 -32 -176.5t-86 -133.5t-125.5 -84.5t-150.5 -29.5q-71 0 -130.5 25t-102 68.5t-66 101t-23.5 123.5q0 26 2 47.5t4 32.5h548v15q0 43 -14 76t-39 55.5t-59 33.5t-74 11q-39 0 -70 -11.5t-54.5 -28.5 t-39.5 -37t-25 -37l-136 67q17 35 48 70.5t74 63.5t97.5 45.5t119.5 17.5zM371 129q65 0 116.5 31t79.5 97h-364q2 -24 13 -47t32 -41t51.5 -29t71.5 -11z" />
<glyph unicode="&#x192;" horiz-adv-x="5120" d="M2128 382q111 -27 159.5 -72.5t48.5 -121.5q0 -45 -16.5 -81t-47 -62t-73.5 -40t-96 -14q-75 0 -143 26t-125 77q-3 3 -3 5q0 4 2 6l67 80q3 3 5 3q4 0 6 -2q49 -43 94.5 -62t99.5 -19q48 0 76 19.5t28 53.5q0 15 -5 27t-19.5 22.5t-41.5 20t-71 20.5q-51 12 -91 27 t-68 37.5t-42.5 54.5t-14.5 77q0 42 16.5 77.5t46 61t70.5 39.5t91 14q135 0 234 -81q3 -3 3 -6q0 -1 -2 -5l-59 -84q-2 -4 -7 -4q-3 0 -5 2q-85 64 -166 64q-43 0 -69 -18.5t-26 -49.5q0 -16 5.5 -28t21 -22.5t43.5 -20.5t74 -21zM2657 502q43 0 84 -16.5t73 -48.5t52 -80 t20 -111t-20 -110.5t-52 -80t-73 -48.5t-84 -16q-93 0 -153 69v-195q0 -9 -9 -9h-108q-9 0 -9 9v619q0 8 9 8h108q9 0 9 -8v-56q62 74 153 74zM2760 246q0 31 -9.5 58t-26.5 46t-40.5 30t-51.5 11t-52 -11t-41.5 -30.5t-27.5 -46t-10 -57.5t10 -57.5t27.5 -46t41.5 -30.5 t52 -11q57 0 92.5 40t35.5 105zM3183 502q55 0 102.5 -20t82.5 -54.5t55.5 -81t20.5 -100.5t-20.5 -101t-56 -81.5t-83.5 -54t-103 -19.5t-102.5 19.5t-82.5 54t-55 80.5t-20 100t20.5 101t55.5 82t83 55t103 20zM3183 100q29 0 54 11t43 30t28 45.5t10 57.5t-10.5 58 t-29 46.5t-43.5 30.5t-54 11q-30 0 -55 -10.5t-43 -30t-28 -46t-10 -57.5t10.5 -58t29 -46.5t43.5 -30.5t55 -11zM3757 492q8 0 8 -8v-94q0 -8 -8 -8h-120v-225q0 -52 51 -52q20 0 34.5 5t19.5 7q4 2 7.5 3.5t5.5 1.5q8 0 8 -9v-87q0 -2 -0.5 -4.5t-5.5 -4.5 q-20 -11 -43 -18t-57 -7q-145 0 -145 148v242h-53q-7 0 -7 8v94q0 8 7 8h53v123q0 7 8 7h109q8 0 8 -7v-123h120zM4294 559q-2 0 -6.5 2t-14.5 4q-13 3 -22 4.5t-21 1.5q-55 0 -55 -65v-14h186q6 0 8 -4l127 -334l116 333q2 5 7 5h114q2 0 5 -2t3 -6q0 -3 -2 -7l-188 -485 q-15 -38 -31 -64.5t-35.5 -43t-43.5 -24t-54 -7.5q-32 0 -59 7t-57 22q-4 2 -4 6q0 3 1 5l36 82q2 5 7 5q1 0 2 -0.5t2 -0.5q18 -9 32 -13.5t28 -4.5q18 0 31.5 9t27.5 39l-155 373h-102v-373q0 -9 -9 -9h-108q-9 0 -9 9v373h-52q-7 0 -7 8v95q0 7 7 7h52v24 q0 80 39.5 121.5t115.5 41.5q52 0 90 -12q6 -2 6 -8v-92q0 -2 -2 -5t-6 -3zM3933 492q7 0 7 -8v-475q0 -9 -7 -9h-110q-7 0 -7 9v475q0 8 7 8h110zM3878 708q32 0 55.5 -22.5t23.5 -54.5q0 -33 -23.5 -56t-55.5 -23t-54.5 23t-22.5 56q0 32 22.5 54.5t54.5 22.5zM4833 338 q-32 0 -54 22.5t-22 54.5t22 54.5t54 22.5t54.5 -22t22.5 -54t-22.5 -55t-54.5 -23zM4833 484q-29 0 -48.5 -20t-19.5 -49t19.5 -49.5t48.5 -20.5q30 0 50 21t20 50q0 28 -20 48t-50 20zM4873 377h-19l-20 27h-16v-27h-15v81h35q14 0 23 -7t9 -20q0 -10 -5.5 -15.5 t-13.5 -8.5zM4818 444v-26h20q16 0 16 12q0 14 -16 14h-20zM1200 -6q17 0 30.5 13t13.5 32q0 24 -21 37q-79 49 -182 80t-239 31q-123 0 -263 -32q-15 -4 -24.5 -15.5t-9.5 -26.5q0 -17 11.5 -30.5t31.5 -13.5q7 0 20 3t21 5q66 14 121.5 18.5t93.5 4.5q107 0 199.5 -25 t173.5 -74q12 -7 23 -7zM1277 181q22 0 38.5 16.5t16.5 39.5q0 14 -6.5 26.5t-19.5 20.5q-107 66 -240 99.5t-270 33.5q-73 0 -144 -10t-138 -30q-18 -5 -28.5 -20t-10.5 -33q0 -22 14 -38t38 -16q9 0 14 1t10.5 2.5t13.5 4t22 5.5q58 14 112.5 19t94.5 5q123 0 241.5 -30 t212.5 -88q14 -8 29 -8zM1332 408q15 -9 33 -9q28 0 47.5 19t19.5 47q0 17 -8.5 32t-24.5 24q-125 72 -277 105.5t-316 33.5q-92 0 -176.5 -11.5t-154.5 -32.5q-22 -7 -34.5 -24.5t-12.5 -38.5q0 -26 18 -46.5t47 -20.5q10 0 19 3q63 19 139 29t161 10q68 0 138 -7 t137 -21.5t129.5 -37.5t115.5 -54zM210 327q0 97 25.5 187.5t71.5 169t110.5 143t143 110.5t168.5 71t187 25t187 -25t168.5 -71t143 -110.5t110.5 -143t71 -169t25 -187.5q0 -98 -25 -188t-71 -168t-110.5 -142.5t-143 -110.5t-168.5 -71t-187 -25t-187 25t-168.5 71 t-143 110.5t-110.5 142.5t-71.5 168.5t-25.5 187.5z" />
<glyph unicode="&#x1b5;" horiz-adv-x="651" d="M-16 0l33 152l150 147h-102l28 128h205l135 131h-321l32 151h538l-30 -146l-141 -136h119l-28 -128h-224l-153 -148h343l-32 -151h-552z" />
<glyph unicode="&#x1b6;" horiz-adv-x="510" d="M55 301h160l77 71h-223l27 125h406l-24 -112l-91 -84h74l-23 -104h-164l-77 -71h230l-27 -126h-417l22 107l97 90h-70z" />
<glyph unicode="&#x1fa;" horiz-adv-x="717" d="M544 917h-143l132 132h188zM280 288h164l-31 245zM455 804q-21 0 -37 -15t-16 -38q0 -19 12.5 -30.5t32.5 -11.5t37 14.5t17 39.5q0 20 -13 30.5t-33 10.5zM309 745q0 30 12.5 57t33.5 47.5t49 32.5t59 12q27 0 51 -9t42 -25.5t28.5 -39t10.5 -49.5q0 -34 -13.5 -61.5 t-35.5 -47.5l100 -662h-164l-19 144h-263l-79 -144h-177l389 670q-24 32 -24 75z" />
<glyph unicode="&#x1fb;" horiz-adv-x="598" d="M292 371q-28 0 -49.5 -13t-36 -34.5t-22 -48t-7.5 -53.5q0 -48 24.5 -73.5t62.5 -25.5q21 0 41 9.5t36 28.5t26 47.5t10 67.5q0 47 -23.5 71t-61.5 24zM576 497l-85 -397q-5 -20 -7 -41t-2 -40v-7t1 -12h-138q-1 5 -1 10v8q0 21 3 41q-7 -11 -18 -23t-26 -22t-35.5 -16 t-45.5 -6q-45 0 -81 17t-61.5 47t-39 71t-13.5 88q0 65 19.5 119t53.5 93t79.5 60.5t98.5 21.5q36 0 61 -7.5t41.5 -18t25.5 -21.5t13 -18l10 53h147zM428 800h-129l122 151h181zM351 762q22 0 41.5 -7t34.5 -20t23.5 -31.5t8.5 -41.5q0 -27 -11 -49.5t-28.5 -38.5 t-40.5 -25t-47 -9q-45 0 -75.5 28t-30.5 73q0 27 10.5 49.5t28 38t40 24.5t46.5 9zM303 646q0 -15 10 -24.5t26 -9.5q17 0 28.5 11.5t11.5 29.5q0 14 -9 24t-25 10q-15 0 -28.5 -11t-13.5 -30z" />
<glyph unicode="&#x1fc;" horiz-adv-x="1065" d="M735 759h-143l132 132h188zM984 150l-32 -150h-450l32 152h-271l-129 -152h-201l618 709h551l-31 -149h-291l-29 -135h263l-29 -143h-263l-30 -132h292zM562 282l63 295l-251 -295h188z" />
<glyph unicode="&#x1fd;" horiz-adv-x="847" d="M499 556h-129l122 151h181zM301 299q23 1 33 12.5t10 28.5q0 20 -18.5 36t-57.5 16q-35 0 -57 -19.5t-29 -43.5l-125 40q7 24 24.5 49.5t44.5 46t64.5 34t85.5 13.5q60 0 98 -15t61 -38q32 26 70 39.5t78 13.5q53 0 94.5 -16t70.5 -44.5t44 -67.5t15 -85q0 -17 -3 -41.5 t-11 -47.5h-332q0 -40 25.5 -70t77.5 -30q32 0 56.5 16t36.5 40l116 -53q-12 -24 -31 -47t-46.5 -41t-64 -29t-81.5 -11q-55 0 -100 22t-76 62q-26 -32 -71 -56.5t-106 -24.5q-49 0 -85 12.5t-59.5 33t-35 47t-11.5 53.5q0 40 14.5 69.5t38.5 49t54.5 29.5t62.5 12zM155 144 q0 -23 16 -35.5t41 -12.5q15 0 31.5 5.5t31 17.5t26 30t15.5 42l3 18l-98 -4q-26 -2 -46 -17t-20 -44zM582 391q-45 0 -71 -23t-37 -60h194v6q0 12 -4.5 25.5t-14.5 25t-26.5 19t-40.5 7.5z" />
<glyph unicode="&#x1fe;" horiz-adv-x="778" d="M52 307q0 98 32 175.5t85 131t122 82t143 28.5q48 0 90.5 -10.5t77.5 -30.5l74 89l92 -77l-77 -92q29 -40 44.5 -90.5t15.5 -109.5q0 -98 -32 -175.5t-85.5 -131.5t-122.5 -82.5t-143 -28.5q-47 0 -87.5 10t-75.5 29l-72 -86l-93 76l75 89q-30 41 -46.5 92t-16.5 112z M214 316q0 -46 13 -79l270 322q-15 6 -33 9.5t-38 3.5q-39 0 -77 -16.5t-68 -49t-48.5 -80.5t-18.5 -110zM589 397q0 38 -11 71l-267 -318q30 -11 65 -11q39 0 76.5 17t67.5 50t48.5 81t20.5 110zM527 759h-143l132 132h188z" />
<glyph unicode="&#x1ff;" horiz-adv-x="584" d="M384 556h-129l122 151h181zM-16 21l75 71q-33 54 -33 126q0 66 22.5 120.5t61 93t89.5 59.5t108 21q43 0 79 -12t65 -34l74 71l56 -58l-76 -73q16 -27 24.5 -59t8.5 -67q0 -59 -20.5 -112.5t-57.5 -94t-89 -64.5t-114 -24q-43 0 -79 12t-65 34l-71 -68zM387 273v10.5 t-1 8.5l-164 -157q18 -11 45 -11q19 0 40.5 9t39 27t29 46t11.5 67zM296 373q-27 0 -49.5 -12.5t-38 -33t-24 -47.5t-8.5 -55v-10t1 -10l164 157q-10 5 -20 8t-25 3z" />
<glyph unicode="&#x218;" horiz-adv-x="605" d="M284 122q46 0 71 20t25 54q0 21 -10.5 38t-40.5 30l-83 34q-72 29 -106 80t-34 115q0 52 21 94.5t56.5 72.5t82.5 46.5t98 16.5q73 0 120.5 -22t75 -54t38.5 -68t11 -63l-147 -24q0 7 -3 23t-13.5 31.5t-31.5 27.5t-57 12q-22 0 -39 -7t-29 -18t-18 -25t-6 -29 q0 -27 14.5 -42.5t35.5 -24.5l75 -32q83 -35 118.5 -84.5t35.5 -115.5q0 -42 -17 -82t-50 -71.5t-81 -50.5t-109 -19q-75 0 -127 22.5t-84 56.5t-46 73.5t-14 74.5q0 10 0.5 16t1.5 11l145 25q-2 -10 -2 -23q0 -22 7 -43t22 -37.5t38 -27t56 -11.5zM148 -120q0 31 24 53 t59 22q42 0 62.5 -24.5t20.5 -57.5q0 -35 -12.5 -61t-33 -44t-47 -27t-55.5 -9q-8 0 -17.5 1t-17.5 3l11 51q5 -1 10.5 -1h10.5q23 0 44.5 7.5t31.5 30.5q-10 -4 -24 -4q-34 0 -50.5 18.5t-16.5 41.5z" />
<glyph unicode="&#x219;" horiz-adv-x="468" d="M132 171q-1 -5 -1 -9q0 -32 18 -49t47 -17q27 0 40 12t13 29q0 11 -6 22.5t-28 20.5l-48 20q-63 26 -88 63t-25 82q0 34 14 64t39.5 53t61.5 36.5t79 13.5q58 0 95 -16.5t57.5 -40.5t28.5 -51t8 -48l-130 -15q0 10 -2 21t-8.5 20.5t-18.5 15.5t-31 6q-22 0 -36.5 -12 t-14.5 -31q0 -13 7.5 -22t19.5 -14l62 -25q63 -26 88 -64.5t25 -84.5q0 -30 -13 -60t-37.5 -53.5t-61.5 -38t-85 -14.5q-62 0 -100.5 18t-60 43.5t-29 52.5t-7.5 45v6zM73 -120q0 31 24 53t59 22q42 0 62.5 -24.5t20.5 -57.5q0 -35 -12.5 -61t-33 -44t-47 -27t-55.5 -9 q-8 0 -17.5 1t-17.5 3l11 51q5 -1 10.5 -1h10.5q23 0 44.5 7.5t31.5 30.5q-10 -4 -24 -4q-34 0 -50.5 18.5t-16.5 41.5z" />
<glyph unicode="&#x21a;" horiz-adv-x="597" d="M438 558l-119 -558h-158l118 558h-208l33 151h565l-33 -151h-198zM135 -120q0 31 24 53t59 22q42 0 62.5 -24.5t20.5 -57.5q0 -35 -12.5 -61t-33 -44t-47 -27t-55.5 -9q-8 0 -17.5 1t-17.5 3l11 51q5 -1 10.5 -1h10.5q23 0 44.5 7.5t31.5 30.5q-10 -4 -24 -4 q-34 0 -50.5 18.5t-16.5 41.5z" />
<glyph unicode="&#x21b;" horiz-adv-x="391" d="M231 182q-1 -5 -1.5 -9t-0.5 -8q0 -23 14 -33t37 -10q17 0 37 5l-26 -120q-5 -2 -22.5 -8t-48.5 -6l-45 -46q36 -4 58 -26.5t22 -52.5q0 -17 -7 -35t-23 -33t-40.5 -25t-59.5 -10q-30 0 -54 8.5t-41 19.5t-27 22t-13 17l56 51q4 -5 10.5 -12t15.5 -14t21.5 -11.5 t27.5 -4.5q17 0 27.5 6.5t10.5 19.5q0 14 -11 20t-25 6q-7 0 -11.5 -0.5t-9.5 -0.5l-24 52l63 66q-68 34 -68 117q0 11 1.5 21.5t3.5 21.5l40 194h-86l28 133h24q42 0 63.5 21.5t30.5 59.5l15 64h136l-31 -145h96l-29 -133h-95z" />
<glyph unicode="&#x237;" horiz-adv-x="279" d="M107 497h151l-117 -551q-16 -76 -63 -113.5t-113 -37.5q-37 0 -63 9.5t-36 17.5l25 118q0 1 13 -5t36 -6q22 0 36.5 12t19.5 39z" />
<glyph unicode="&#x259;" horiz-adv-x="567" d="M20 204q0 20 2 41t7 38h351q-4 51 -31 77t-73 26q-38 0 -66.5 -16.5t-45.5 -42.5l-112 57q13 25 34.5 48t50.5 41t66.5 29t82.5 11q53 0 96 -17.5t73.5 -49t47 -74t16.5 -93.5q0 -71 -22.5 -126t-60.5 -92.5t-87 -57t-102 -19.5q-51 0 -93 17t-72 46.5t-46 69.5t-16 87z M157 189q0 -14 4.5 -29t16 -27.5t30 -21t46.5 -8.5q39 0 69 21t46 65h-212z" />
<glyph unicode="&#x2c6;" horiz-adv-x="387" d="M-20 556l150 151h141l84 -151h-114l-53 71l-84 -71h-124z" />
<glyph unicode="&#x2c7;" horiz-adv-x="387" d="M388 707l-147 -151h-142l-83 151h112l55 -72l79 72h126z" />
<glyph unicode="&#x2c9;" horiz-adv-x="303" d="M-10 577l22 105h286l-23 -105h-285z" />
<glyph unicode="&#x2d8;" horiz-adv-x="409" d="M172 551q-37 0 -64.5 11t-46 29t-27.5 42t-9 50q0 8 0.5 13.5t1.5 10.5h96q-1 -3 -1 -7q0 -18 12.5 -34.5t45.5 -16.5q18 0 31 5.5t22 14t14.5 19t8.5 19.5h108q-7 -31 -22.5 -59t-39 -49.5t-56 -34.5t-74.5 -13z" />
<glyph unicode="&#x2d9;" horiz-adv-x="177" d="M-9 625q0 18 7.5 35.5t21 31t31 21.5t38.5 8q35 0 57 -22.5t22 -54.5q0 -21 -8 -39t-21 -31t-30.5 -20.5t-36.5 -7.5q-36 0 -58.5 23t-22.5 56z" />
<glyph unicode="&#x2da;" horiz-adv-x="249" d="M126 764q22 0 41.5 -7t34.5 -20t23.5 -31.5t8.5 -41.5q0 -27 -11 -49.5t-28.5 -38.5t-40.5 -25t-47 -9q-45 0 -75.5 28t-30.5 73q0 27 10.5 49.5t28 38t40 24.5t46.5 9zM78 648q0 -15 10 -24.5t26 -9.5q17 0 28.5 11.5t11.5 29.5q0 14 -9 24t-25 10q-15 0 -28.5 -11 t-13.5 -30z" />
<glyph unicode="&#x2db;" horiz-adv-x="193" d="M106 -226q-23 0 -44.5 7t-38 20.5t-26 32.5t-9.5 44q0 34 13.5 59.5t33.5 44t43 30.5t42 18l71 -30q-17 -6 -33.5 -15t-30.5 -21t-22.5 -27t-8.5 -32q0 -20 14 -29.5t35 -11.5h10t9 1l-18 -87q-13 -4 -40 -4z" />
<glyph unicode="&#x2dc;" horiz-adv-x="371" d="M98 557q4 41 17.5 69.5t33 46.5t42.5 26t47 8q26 0 43.5 -7t31.5 -16q13 -9 25 -15.5t25 -6.5q19 0 28.5 12t13.5 32h94q-6 -40 -19 -68.5t-31 -46.5t-40 -26.5t-45 -8.5q-24 0 -42 7t-34 16q-14 8 -26.5 14.5t-26.5 6.5q-34 0 -43 -43h-94z" />
<glyph unicode="&#x2dd;" horiz-adv-x="383" d="M76 556h-98l86 151h146zM239 556h-100l102 151h148z" />
<glyph unicode="&#x394;" horiz-adv-x="707" d="M324 539l-136 -391h272zM238 709h172l267 -709h-706z" />
<glyph unicode="&#x3a9;" horiz-adv-x="818" d="M410 574q-35 0 -67.5 -12t-57.5 -34.5t-39.5 -56t-14.5 -75.5q0 -36 11.5 -66t31.5 -52.5t46.5 -37.5t56.5 -21v-219h-301v145h162q-36 15 -67 39.5t-54 58t-36 75.5t-13 92q0 72 28 130t75 99t109 63t130 22t130 -22t109 -63t75 -99t28 -130q0 -50 -13.5 -92 t-36.5 -75.5t-54 -58t-67 -39.5h162v-145h-300v219q29 6 55.5 21t46.5 37.5t31.5 52.5t11.5 66q0 42 -14.5 75.5t-39.5 56t-57 34.5t-67 12z" />
<glyph unicode="&#x3bc;" horiz-adv-x="629" d="M70 497h153v-282q0 -36 19.5 -61t60.5 -25q38 0 60 23.5t22 61.5v283h153v-408q0 -29 1.5 -51.5t3.5 -37.5h-146q-2 7 -3 21.5t-1 28.5q-20 -32 -57.5 -46.5t-75.5 -14.5q-21 0 -37 3v-182h-153v687z" />
<glyph unicode="&#x3c0;" horiz-adv-x="712" d="M564 168q0 -27 14.5 -36t31.5 -9q15 0 19.5 0.5t11.5 2.5v-121q-1 0 -20.5 -7t-54.5 -7q-77 0 -115.5 42t-38.5 114v221h-116v-368h-153v368h-83v129h579v-129h-75v-200z" />
<glyph unicode="&#x1e80;" horiz-adv-x="1040" d="M420 891h174l76 -132h-130zM682 709l51 -458l207 458h171l-342 -709h-159l-51 470l-244 -470h-169l-42 709h159l21 -457l236 457h162z" />
<glyph unicode="&#x1e81;" horiz-adv-x="844" d="M292 707h166l59 -151h-117zM541 497l34 -293l136 293h155l-251 -497h-150l-39 321l-164 -321h-156l-47 497h149l21 -292l150 292h162z" />
<glyph unicode="&#x1e82;" horiz-adv-x="1040" d="M677 759h-143l132 132h188zM682 709l51 -458l207 458h171l-342 -709h-159l-51 470l-244 -470h-169l-42 709h159l21 -457l236 457h162z" />
<glyph unicode="&#x1e83;" horiz-adv-x="844" d="M532 556h-129l122 151h181zM541 497l34 -293l136 293h155l-251 -497h-150l-39 321l-164 -321h-156l-47 497h149l21 -292l150 292h162z" />
<glyph unicode="&#x1e84;" horiz-adv-x="1040" d="M367 817q0 16 6.5 31.5t18.5 28t28 20t34 7.5q32 0 52 -21t20 -50q0 -19 -7.5 -34.5t-19.5 -27t-27.5 -18t-31.5 -6.5q-33 0 -53 20t-20 50zM700 817q0 16 6.5 31.5t18.5 28t28 20t35 7.5q32 0 51.5 -21t19.5 -50q0 -38 -26 -62t-60 -24q-33 0 -53 20t-20 50zM682 709 l51 -458l207 458h171l-342 -709h-159l-51 470l-244 -470h-169l-42 709h159l21 -457l236 457h162z" />
<glyph unicode="&#x1e85;" horiz-adv-x="844" d="M287 624q0 16 7 31.5t18.5 27.5t27 19t33.5 7q31 0 50 -20.5t19 -49.5q0 -18 -7.5 -33t-19.5 -26.5t-27.5 -17.5t-31.5 -6q-30 0 -49.5 20t-19.5 48zM505 624q0 16 7 31.5t18.5 27.5t27 19t32.5 7q31 0 50.5 -20.5t19.5 -49.5q0 -18 -7.5 -33t-19.5 -26.5t-27.5 -17.5 t-31.5 -6q-31 0 -50 20t-19 48zM541 497l34 -293l136 293h155l-251 -497h-150l-39 321l-164 -321h-156l-47 497h149l21 -292l150 292h162z" />
<glyph unicode="&#x1e8a;" horiz-adv-x="664" d="M143 0h-201l312 359l-162 350h183l93 -219l178 219h200l-311 -359l163 -350h-185l-93 218zM329 834q0 18 7.5 34.5t21 30t31.5 21.5t38 8q35 0 57.5 -22.5t22.5 -54.5q0 -21 -8 -39t-21 -31t-31 -20.5t-37 -7.5q-35 0 -58 24t-23 57z" />
<glyph unicode="&#x1e8b;" horiz-adv-x="549" d="M129 0h-180l233 255l-130 242h167l64 -131l112 131h183l-231 -252l131 -245h-166l-66 135zM234 625q0 18 7.5 35.5t21 31t31 21.5t38.5 8q35 0 57 -22.5t22 -54.5q0 -21 -8 -39t-21 -31t-30.5 -20.5t-36.5 -7.5q-36 0 -58.5 23t-22.5 56z" />
<glyph unicode="&#x1ef2;" horiz-adv-x="646" d="M92 709h167l90 -262l182 262h190l-317 -414l-62 -295h-159l63 296zM223 891h174l76 -132h-130z" />
<glyph unicode="&#x1ef3;" horiz-adv-x="540" d="M-28 -190l165 266l-103 421h159l56 -265l155 265h168l-433 -687h-167zM141 707h166l59 -151h-117z" />
<glyph unicode="&#x2000;" horiz-adv-x="524" />
<glyph unicode="&#x2001;" horiz-adv-x="1049" />
<glyph unicode="&#x2002;" horiz-adv-x="524" />
<glyph unicode="&#x2003;" horiz-adv-x="1049" />
<glyph unicode="&#x2004;" horiz-adv-x="349" />
<glyph unicode="&#x2005;" horiz-adv-x="262" />
<glyph unicode="&#x2006;" horiz-adv-x="174" />
<glyph unicode="&#x2007;" horiz-adv-x="628" />
<glyph unicode="&#x2008;" horiz-adv-x="290" />
<glyph unicode="&#x2009;" horiz-adv-x="209" />
<glyph unicode="&#x200a;" horiz-adv-x="58" />
<glyph unicode="&#x200b;" horiz-adv-x="0" />
<glyph unicode="&#x2010;" horiz-adv-x="421" d="M47 233l29 137h300l-30 -137h-299z" />
<glyph unicode="&#x2011;" horiz-adv-x="421" d="M47 233l29 137h300l-30 -137h-299z" />
<glyph unicode="&#x2012;" horiz-adv-x="421" d="M47 233l29 137h300l-30 -137h-299z" />
<glyph unicode="&#x2013;" horiz-adv-x="638" d="M47 236l27 132h518l-28 -132h-517z" />
<glyph unicode="&#x2014;" horiz-adv-x="1054" d="M47 236l27 132h934l-28 -132h-933z" />
<glyph unicode="&#x2018;" horiz-adv-x="266" d="M263 510q0 -37 -26.5 -62.5t-66.5 -25.5q-21 0 -37 7.5t-26.5 20t-15.5 28.5t-5 33q0 41 17 77t45.5 63.5t66.5 44t79 18.5l-15 -66q-32 -2 -63.5 -23.5t-42.5 -54.5q2 1 8.5 2.5t12.5 1.5q35 0 52 -20.5t17 -43.5z" />
<glyph unicode="&#x2019;" horiz-adv-x="268" d="M119 625q0 37 26.5 63t65.5 26q21 0 37 -7.5t26.5 -20t16 -28.5t5.5 -33q0 -41 -17 -77.5t-46 -64t-66.5 -44.5t-78.5 -18l14 67q14 1 30.5 6.5t31.5 15.5t27 24t17 31q-2 -1 -7.5 -2.5t-13.5 -1.5q-34 0 -51 20.5t-17 43.5z" />
<glyph unicode="&#x201a;" horiz-adv-x="266" d="M-1 61q0 37 26.5 63t65.5 26q21 0 37 -7.5t26.5 -20t16 -28.5t5.5 -33q0 -41 -17 -77.5t-46 -64t-67 -44.5t-79 -19l15 68q14 0 30.5 6t31.5 16t27 24t17 31q-2 -1 -7.5 -2.5t-13.5 -1.5q-34 0 -51 20.5t-17 43.5z" />
<glyph unicode="&#x201c;" horiz-adv-x="472" d="M262 511q0 -37 -26 -63t-66 -26q-21 0 -37 7.5t-26.5 20t-15.5 28.5t-5 33q0 41 17 77t45.5 63.5t66.5 44t79 18.5l-15 -66q-32 -2 -63.5 -23.5t-42.5 -54.5q2 1 8.5 2.5t12.5 1.5q35 0 51.5 -20t16.5 -43zM469 511q0 -37 -26 -63t-66 -26q-21 0 -37 7.5t-26.5 20 t-15.5 28.5t-5 33q0 41 17 77t45.5 63.5t66.5 44t79 18.5l-15 -66q-32 -2 -63.5 -23.5t-42.5 -54.5q2 1 8.5 2.5t12.5 1.5q35 0 51.5 -20t16.5 -43z" />
<glyph unicode="&#x201d;" horiz-adv-x="477" d="M119 625q0 37 26 63t66 26q21 0 37 -7.5t26.5 -20t15.5 -28.5t5 -33q0 -41 -17 -77t-45.5 -63.5t-66 -44.5t-78.5 -18l14 67q14 0 30.5 6t31.5 16t27 23.5t17 30.5q-1 0 -7 -1.5t-14 -1.5q-35 0 -51.5 20t-16.5 43zM329 625q0 37 26 63t66 26q21 0 37 -7.5t26.5 -20 t15.5 -28.5t5 -33q0 -41 -17 -77t-45.5 -63.5t-66.5 -44.5t-79 -18l15 67q14 0 30.5 6t31.5 16t27 23.5t17 30.5q-1 0 -7 -1.5t-14 -1.5q-35 0 -51.5 20t-16.5 43z" />
<glyph unicode="&#x201e;" horiz-adv-x="474" d="M-1 61q0 37 26 63t66 26q21 0 37 -7.5t26.5 -20t15.5 -29t5 -33.5q0 -41 -17 -77t-45.5 -63.5t-66.5 -44.5t-79 -18l15 67q14 1 30.5 6.5t31.5 15.5t27 24t17 31q-1 0 -7 -2t-14 -2q-35 0 -51.5 20.5t-16.5 43.5zM207 61q0 37 26 63t66 26q21 0 37 -7.5t26.5 -20 t15.5 -29t5 -33.5q0 -41 -17 -77t-45.5 -63.5t-66.5 -44.5t-79 -18l15 67q14 1 30.5 6.5t31.5 15.5t27 24t17 31q-1 0 -7 -2t-14 -2q-35 0 -51.5 20.5t-16.5 43.5z" />
<glyph unicode="&#x2020;" horiz-adv-x="432" d="M367 709l-30 -139h120l-24 -114h-121l-62 -293h-126l62 293h-120l24 114h120l31 139h126z" />
<glyph unicode="&#x2021;" horiz-adv-x="1831" d="M1200 -6q17 0 30.5 13t13.5 32q0 24 -21 37q-79 49 -182 80t-239 31q-123 0 -263 -32q-15 -4 -24.5 -15.5t-9.5 -26.5q0 -17 11.5 -30.5t31.5 -13.5q7 0 20 3t21 5q66 14 121.5 18.5t93.5 4.5q107 0 199.5 -25t173.5 -74q12 -7 23 -7zM1277 181q22 0 38.5 16.5t16.5 39.5 q0 14 -6.5 26.5t-19.5 20.5q-107 66 -240 99.5t-270 33.5q-73 0 -144 -10t-138 -30q-18 -5 -28.5 -20t-10.5 -33q0 -22 14 -38t38 -16q9 0 14 1t10.5 2.5t13.5 4t22 5.5q58 14 112.5 19t94.5 5q123 0 241.5 -30t212.5 -88q14 -8 29 -8zM1332 408q15 -9 33 -9q28 0 47.5 19 t19.5 47q0 17 -8.5 32t-24.5 24q-125 72 -277 105.5t-316 33.5q-92 0 -176.5 -11.5t-154.5 -32.5q-22 -7 -34.5 -24.5t-12.5 -38.5q0 -26 18 -46.5t47 -20.5q10 0 19 3q63 19 139 29t161 10q68 0 138 -7t137 -21.5t129.5 -37.5t115.5 -54zM210 327q0 97 25.5 187.5t71.5 169 t110.5 143t143 110.5t168.5 71t187 25t187 -25t168.5 -71t143 -110.5t110.5 -143t71 -169t25 -187.5q0 -98 -25 -188t-71 -168t-110.5 -142.5t-143 -110.5t-168.5 -71t-187 -25t-187 25t-168.5 71t-143 110.5t-110.5 142.5t-71.5 168.5t-25.5 187.5z" />
<glyph unicode="&#x2022;" horiz-adv-x="547" d="M67 303q0 43 16.5 81.5t44.5 67t66 45t81 16.5t81 -16.5t66.5 -45t45 -67t16.5 -81.5q0 -42 -16.5 -80t-45 -66.5t-66.5 -45t-81 -16.5t-81 16.5t-66 45t-44.5 66.5t-16.5 80z" />
<glyph unicode="&#x2026;" horiz-adv-x="865" d="M79 -14q-36 0 -58.5 24t-22.5 56q0 19 8 37t21.5 31.5t32 21.5t39.5 8q37 0 59 -24t22 -56q0 -20 -8 -37.5t-21.5 -31t-32 -21.5t-39.5 -8zM378 -14q-36 0 -58 24t-22 56q0 19 7.5 37t21 31.5t32 21.5t39.5 8q37 0 59 -24t22 -56q0 -20 -8 -37.5t-21.5 -31t-32 -21.5 t-39.5 -8zM679 -14q-37 0 -59 24t-22 56q0 19 7.5 37t21 31.5t32 21.5t39.5 8q37 0 59 -24t22 -56q0 -20 -8 -37.5t-21.5 -31t-31.5 -21.5t-39 -8z" />
<glyph unicode="&#x202f;" horiz-adv-x="209" />
<glyph unicode="&#x2030;" horiz-adv-x="1097" d="M857 -12q-33 0 -60.5 11.5t-47.5 31.5q-25 -21 -55 -32t-62 -11q-33 0 -60.5 11.5t-47.5 32t-31 47.5t-11 59q0 40 15.5 73.5t41 57.5t58 37.5t67.5 13.5q32 0 59.5 -12t47.5 -32q25 21 55.5 32.5t62.5 11.5q33 0 60.5 -12t47.5 -32t31 -47.5t11 -58.5q0 -41 -15.5 -74.5 t-41 -57.5t-58.5 -37t-67 -13zM223 0h-134l587 709h134zM235 389q-33 0 -60.5 11.5t-47.5 32t-31 47.5t-11 59q0 40 15.5 73.5t41 57.5t58 37.5t67.5 13.5q33 0 60.5 -12t47.5 -32t31 -47.5t11 -58.5q0 -41 -15.5 -74.5t-41 -57.5t-58.5 -37t-67 -13zM243 490q24 0 45.5 19 t21.5 56q0 23 -13.5 39t-37.5 16q-25 0 -46 -19.5t-21 -55.5q0 -24 13.5 -39t37.5 -16zM640 89q24 0 45.5 19t21.5 56q0 23 -13.5 39t-37.5 16q-25 0 -46 -19.5t-21 -55.5q0 -24 13.5 -39t37.5 -16zM865 89q24 0 45.5 19t21.5 56q0 23 -13.5 39t-37.5 16q-25 0 -46 -19.5 t-21 -55.5q0 -24 13.5 -39t37.5 -16z" />
<glyph unicode="&#x2039;" horiz-adv-x="343" d="M128 102l-100 199l179 196h147l-189 -204l98 -191h-135z" />
<glyph unicode="&#x203a;" horiz-adv-x="342" d="M214 497l102 -199l-179 -196h-148l189 204l-97 191h133z" />
<glyph unicode="&#x2042;" horiz-adv-x="822" d="M507 603l103 32l15 -98l-104 -30l47 -81l-88 -56l-49 86l-80 -89l-71 59l81 88l-92 30l43 92l92 -31l19 104h106zM240 221l103 32l15 -98l-104 -30l47 -81l-88 -56l-49 86l-80 -89l-71 59l81 88l-92 30l43 92l92 -31l19 104h106zM648 221l103 32l15 -98l-104 -30l47 -81 l-88 -56l-49 86l-80 -89l-71 59l81 88l-92 30l43 92l92 -31l19 104h106z" />
<glyph unicode="&#x2044;" horiz-adv-x="185" d="M-120 0h-134l587 709h134z" />
<glyph unicode="&#x2051;" horiz-adv-x="441" d="M334 603l103 32l15 -98l-104 -30l47 -81l-88 -56l-49 86l-80 -89l-71 59l81 88l-92 30l43 92l92 -31l19 104h106zM253 225l103 32l15 -98l-104 -30l47 -81l-88 -56l-49 86l-80 -89l-71 59l81 88l-92 30l43 92l92 -31l19 104h106z" />
<glyph unicode="&#x205f;" horiz-adv-x="262" />
<glyph unicode="&#x2070;" horiz-adv-x="403" d="M74 482q0 37 10.5 78.5t33.5 76.5t59.5 58t89.5 23q42 0 72.5 -12t50 -32.5t28.5 -47.5t9 -57q0 -38 -10.5 -79.5t-33.5 -76.5t-60 -58t-89 -23q-79 0 -119.5 42t-40.5 108zM189 484q0 -25 9 -41.5t38 -16.5q21 0 35.5 15t24 36.5t13.5 46t4 44.5q0 23 -10 39.5t-39 16.5 q-21 0 -35 -15t-23 -36.5t-13 -46t-4 -42.5z" />
<glyph unicode="&#x2074;" horiz-adv-x="389" d="M72 525l201 184h121l-44 -212h60l-19 -86h-59l-15 -71h-113l15 71h-171zM258 594l-106 -97h85z" />
<glyph unicode="&#x2075;" horiz-adv-x="352" d="M157 473q0 -22 13.5 -34t33.5 -12q19 0 33.5 13t14.5 36q0 18 -12 28.5t-29 10.5q-16 0 -26 -5.5t-17 -12.5l-87 40l78 172h227l-19 -90h-152l-21 -47q9 7 25.5 10.5t30.5 3.5q54 0 83 -29t29 -77q0 -30 -11.5 -56.5t-32.5 -46.5t-50 -31.5t-65 -11.5q-35 0 -62.5 10 t-46 27.5t-28 41t-9.5 50.5z" />
<glyph unicode="&#x2076;" horiz-adv-x="374" d="M385 605q-13 6 -31.5 12t-47.5 6q-33 0 -64 -15.5t-45 -44.5q13 9 31.5 14.5t37.5 5.5q56 0 85.5 -30t29.5 -76q0 -33 -12.5 -60t-34 -46.5t-50.5 -30t-63 -10.5q-33 0 -60 11.5t-46.5 31.5t-30.5 48.5t-11 63.5q0 54 19.5 97t52.5 72t75.5 44.5t87.5 15.5q37 0 63.5 -6 t50.5 -19zM233 506q-18 0 -33 -12t-15 -34q0 -17 10.5 -28t27.5 -11q20 0 34.5 12.5t14.5 35.5q0 16 -11 26.5t-28 10.5z" />
<glyph unicode="&#x2077;" horiz-adv-x="346" d="M398 617q-16 -11 -41.5 -33t-53.5 -55.5t-55 -80.5t-45 -108h-120q18 65 48.5 116t60 86.5t51.5 54.5t23 19h-179l19 93h311z" />
<glyph unicode="&#x2078;" horiz-adv-x="370" d="M210 595q0 -12 9.5 -21t24.5 -9q20 0 30.5 10.5t10.5 24.5q0 11 -7.5 20.5t-27.5 9.5t-30 -12t-10 -23zM172 451q0 -17 13 -26t30 -9q24 0 36.5 13t12.5 28q0 11 -9 22.5t-35 11.5q-24 0 -36 -13.5t-12 -26.5zM218 331q-81 0 -120 30t-39 75q0 38 28 64t67 33 q-22 9 -35 30.5t-13 44.5q0 22 10.5 42t30 35t46.5 23.5t59 8.5q75 0 110 -29.5t35 -73.5q0 -32 -23.5 -55.5t-58.5 -33.5q24 -8 41 -30t17 -48t-11.5 -47t-32 -36.5t-49 -24t-62.5 -8.5z" />
<glyph unicode="&#x2079;" horiz-adv-x="374" d="M85 440q14 -8 33.5 -13t47.5 -5q15 0 31.5 4t31.5 11.5t27 19.5t18 29q-13 -10 -31.5 -16t-37.5 -6q-55 0 -85 30t-30 75q0 33 12.5 59.5t34 46t50.5 30t63 10.5q66 0 107 -42t41 -111q0 -55 -19.5 -98t-52 -72.5t-74.5 -45t-88 -15.5q-37 0 -64 6.5t-51 19.5zM238 539 q18 0 32.5 12.5t14.5 34.5q0 17 -10.5 28.5t-27.5 11.5q-20 0 -34 -13.5t-14 -36.5q0 -15 11 -26t28 -11z" />
<glyph unicode="&#x2080;" horiz-adv-x="405" d="M-14 23q0 37 10.5 78.5t33.5 76.5t59.5 58t89.5 23q42 0 72.5 -12t50 -32.5t28.5 -47.5t9 -57q0 -38 -10.5 -79.5t-33.5 -76.5t-60 -58t-89 -23q-79 0 -119.5 42t-40.5 108zM101 25q0 -25 9 -41.5t38 -16.5q21 0 35.5 15t24 36.5t13.5 46t4 44.5q0 23 -10 39.5t-39 16.5 q-21 0 -35 -15t-23 -36.5t-13 -46t-4 -42.5z" />
<glyph unicode="&#x2081;" horiz-adv-x="268" d="M23 -120l46 217h-93l15 73q25 1 45.5 8t36.5 18.5t27 25t16 26.5h100l-78 -368h-115z" />
<glyph unicode="&#x2082;" horiz-adv-x="361" d="M140 89q42 17 42 45q0 11 -8 22.5t-28 11.5q-25 0 -36.5 -16t-11.5 -40l-99 8q0 28 10.5 53t30.5 44t48 30t63 11q36 0 63 -9t45 -24.5t27 -36.5t9 -44q0 -46 -29 -78t-82 -54l-76 -32q-2 -1 -3.5 -2.5l-2.5 -2.5h151l-21 -95h-284q0 63 32.5 109t93.5 72z" />
<glyph unicode="&#x2083;" horiz-adv-x="369" d="M69 110l105 49h-167l19 91h291l-22 -105l-96 -46q34 -8 55 -32t21 -60q0 -27 -11.5 -51.5t-33 -42.5t-51.5 -29t-67 -11t-65 10.5t-47 28t-29 40t-10 46.5q0 3 0.5 7t0.5 7l104 6q-1 -4 -1 -8q0 -20 13 -32.5t36 -12.5t35.5 12.5t12.5 30.5t-13 27t-30 9q-8 0 -14.5 -1.5 t-8.5 -2.5z" />
<glyph unicode="&#x2084;" horiz-adv-x="390" d="M-26 65l201 184h121l-44 -212h60l-19 -86h-59l-15 -71h-113l15 71h-171zM160 134l-106 -97h85z" />
<glyph unicode="&#x2085;" horiz-adv-x="354" d="M60 13q0 -22 13.5 -34t33.5 -12q19 0 33.5 13t14.5 36q0 18 -12 28.5t-29 10.5q-16 0 -26 -5.5t-17 -12.5l-87 40l78 172h227l-19 -90h-152l-21 -47q9 7 25.5 10.5t30.5 3.5q54 0 83 -29t29 -77q0 -30 -11.5 -56.5t-32.5 -46.5t-50 -31.5t-65 -11.5q-35 0 -62.5 10 t-46 27.5t-28 41t-9.5 50.5z" />
<glyph unicode="&#x2086;" horiz-adv-x="376" d="M288 147q-13 6 -31.5 12t-47.5 6q-33 0 -64 -15.5t-45 -44.5q13 9 31.5 14.5t37.5 5.5q56 0 85.5 -30t29.5 -76q0 -33 -12.5 -60t-34 -46.5t-50.5 -30t-63 -10.5q-33 0 -60 11.5t-46.5 31.5t-30.5 48.5t-11 63.5q0 54 19.5 97t52.5 72t75.5 44.5t87.5 15.5q37 0 63.5 -6 t50.5 -19zM136 48q-18 0 -33 -12t-15 -34q0 -17 10.5 -28t27.5 -11q20 0 34.5 12.5t14.5 35.5q0 16 -11 26.5t-28 10.5z" />
<glyph unicode="&#x2087;" horiz-adv-x="347" d="M300 156q-16 -11 -41.5 -33t-53.5 -55.5t-55 -80.5t-45 -108h-120q18 65 48.5 116t60 86.5t51.5 54.5t23 19h-179l19 93h311z" />
<glyph unicode="&#x2088;" horiz-adv-x="372" d="M113 135q0 -12 9.5 -21t24.5 -9q20 0 30.5 10.5t10.5 24.5q0 11 -7.5 20.5t-27.5 9.5t-30 -12t-10 -23zM75 -9q0 -17 13 -26t30 -9q24 0 36.5 13t12.5 28q0 11 -9 22.5t-35 11.5q-24 0 -36 -13.5t-12 -26.5zM121 -129q-81 0 -120 30t-39 75q0 38 28 64t67 33 q-22 9 -35 30.5t-13 44.5q0 22 10.5 42t30 35t46.5 23.5t59 8.5q75 0 110 -29.5t35 -73.5q0 -32 -23.5 -55.5t-58.5 -33.5q24 -8 41 -30t17 -48t-11.5 -47t-32 -36.5t-49 -24t-62.5 -8.5z" />
<glyph unicode="&#x2089;" horiz-adv-x="376" d="M-12 -18q14 -8 33.5 -13t47.5 -5q15 0 31.5 4t31.5 11.5t27 19.5t18 29q-13 -10 -31.5 -16t-37.5 -6q-55 0 -85 30t-30 75q0 33 12.5 59.5t34 46t50.5 30t63 10.5q66 0 107 -42t41 -111q0 -55 -19.5 -98t-52 -72.5t-74.5 -45t-88 -15.5q-37 0 -64 6.5t-51 19.5zM141 81 q18 0 32.5 12.5t14.5 34.5q0 17 -10.5 28.5t-27.5 11.5q-20 0 -34 -13.5t-14 -36.5q0 -15 11 -26t28 -11z" />
<glyph unicode="&#x20ac;" horiz-adv-x="728" d="M61 386q5 24 10.5 48.5t11.5 48.5h85q24 56 62.5 101t87 76t104 47.5t114.5 16.5q78 0 128.5 -21t85.5 -51q-20 -27 -39.5 -54.5t-39.5 -55.5q-23 21 -62 34.5t-85 13.5q-26 0 -53 -6.5t-52.5 -20t-48 -33.5t-40.5 -47h301l-64 -97h-277q-4 -10 -5.5 -23t-1.5 -25v-10 t1 -10h242q-15 -26 -30.5 -49.5t-31.5 -48.5h-158q23 -51 69 -75.5t107 -24.5q35 0 64.5 8.5t53.5 22.5l22 -58l22 -58q-36 -22 -83 -36t-100 -14q-62 0 -114 17t-93 48t-69 74.5t-41 95.5h-119l23 98h86q0 17 1 33.5t4 34.5h-78z" />
<glyph unicode="&#x2113;" horiz-adv-x="445" d="M77 142q0 5 0.5 14t2.5 17l11 53q-36 -6 -74 -9l27 131q17 2 35 5t38 8l43 207q17 78 65 117t109 39q71 0 107.5 -38t36.5 -100q0 -41 -17.5 -85.5t-49.5 -86t-77 -78.5t-100 -63l-15 -67q-1 -4 -2 -11.5t-1 -13.5q0 -23 9 -36t21 -19t25 -7t21 -1q28 0 44.5 4.5 t29.5 10.5l-27 -124q-9 -5 -30 -12t-56 -7q-84 0 -130 41.5t-46 110.5zM269 436q15 12 28.5 28t24 34.5t16.5 38t6 37.5q0 11 -6 16.5t-14 5.5t-16 -6.5t-13 -27.5z" />
<glyph unicode="&#x2122;" horiz-adv-x="889" d="M303 618l-57 -274h-102l57 274h-100l19 91h299l-19 -91h-97zM730 344l46 220l-126 -220h-71l-44 222l-46 -222h-99l77 365h137l39 -194l114 194h150l-77 -365h-100z" />
<glyph unicode="&#x2126;" horiz-adv-x="845" d="M422 574q-35 0 -67.5 -12t-57.5 -34.5t-39.5 -56t-14.5 -75.5q0 -36 11.5 -66t31.5 -52.5t46.5 -37.5t56.5 -21v-219h-301v145h162q-36 15 -67 39.5t-54 58t-36 75.5t-13 92q0 72 28 130t75 99t109 63t130 22t130 -22t109 -63t75 -99t28 -130q0 -50 -13.5 -92 t-36.5 -75.5t-54 -58t-67 -39.5h162v-145h-300v219q29 6 55.5 21t46.5 37.5t31.5 52.5t11.5 66q0 42 -14.5 75.5t-39.5 56t-57 34.5t-67 12z" />
<glyph unicode="&#x2160;" horiz-adv-x="494" d="M539 709l-27 -131h-127l-95 -447h126l-27 -131h-410l27 131h127l95 447h-126l27 131h410z" />
<glyph unicode="&#x2161;" horiz-adv-x="794" d="M839 709l-27 -131h-135l-95 -447h134l-27 -131h-710l27 131h135l95 447h-134l27 131h710zM298 131h127l95 447h-127z" />
<glyph unicode="&#x2162;" horiz-adv-x="1067" d="M793 578h-122l-93 -447h122zM514 578h-122l-93 -447h122zM6 131h136l93 447h-134l27 131h984l-27 -131h-135l-93 -447h133l-27 -131h-984z" />
<glyph unicode="&#x2163;" horiz-adv-x="1078" d="M1123 709l-27 -131h-94l-223 -447h222l-27 -131h-995l27 131h127l95 447h-126l27 131h994zM385 578l-95 -447h205l-21 447h-89zM641 179l190 399h-200z" />
<glyph unicode="&#x2164;" horiz-adv-x="810" d="M227 131l-21 447h-105l27 131h727l-27 -131h-94l-223 -447h222l-27 -131h-727l27 131h221zM373 179l190 399h-200z" />
<glyph unicode="&#x2165;" horiz-adv-x="1069" d="M227 131l-21 447h-105l27 131h986l-27 -131h-127l-95 -447h126l-27 -131h-985l27 131h221zM734 578l-223 -447h197l95 447h-69zM373 179l190 399h-200z" />
<glyph unicode="&#x2166;" horiz-adv-x="1339" d="M227 131l-21 447h-105l27 131h1256l-27 -131h-127l-95 -447h126l-27 -131h-1255l27 131h221zM511 131h197l95 447h-69zM865 131h113l95 447h-113zM373 179l190 399h-200z" />
<glyph unicode="&#x2167;" horiz-adv-x="1609" d="M227 131l-21 447h-105l27 131h1526l-27 -131h-127l-95 -447h126l-27 -131h-1525l27 131h221zM511 131h197l95 447h-69zM1135 131h113l95 447h-113zM865 131h113l95 447h-113zM373 179l190 399h-200z" />
<glyph unicode="&#x2168;" horiz-adv-x="1051" d="M128 709h968l-27 -131h-87l-215 -227l119 -220h88l-27 -131h-968l27 131h132l94 447h-131zM440 578h-50l-93 -447h49l214 221zM680 459l110 119h-169zM539 131h166l-58 115z" />
<glyph unicode="&#x2169;" horiz-adv-x="786" d="M91 131l214 221l-120 226h-84l27 131h703l-27 -131h-77l-215 -227l119 -220h78l-27 -131h-703l27 131h85zM425 459l110 119h-169zM284 131h166l-58 115z" />
<glyph unicode="&#x216c;" horiz-adv-x="649" d="M518 709l-27 -131h-122l-94 -447h160l35 166h149l-63 -297h-576l27 131h111l94 447h-110l27 131h389z" />
<glyph unicode="&#x216d;" horiz-adv-x="789" d="M600 429q-1 21 -8.5 48t-26 51t-49 40.5t-77.5 16.5q-48 0 -91 -19t-75.5 -53.5t-51 -82.5t-18.5 -107q0 -98 50 -148t131 -50q36 0 68 9.5t56.5 27t40 41t20.5 52.5h154q-14 -64 -27 -127.5t-26 -126.5h-151l13 62q-27 -35 -71 -56.5t-109 -21.5q-59 0 -113 20.5 t-95.5 61t-66 102t-24.5 143.5q0 92 31 168t83.5 130t121.5 84t145 30q80 0 133 -29t74 -68l17 82h152l-57 -280h-153z" />
<glyph unicode="&#x216e;" horiz-adv-x="801" d="M6 131h134q24 112 47.5 223.5t46.5 223.5h-132l27 131h339q148 0 228 -75.5t80 -209.5q0 -98 -31.5 -176.5t-86.5 -133.5t-131 -84.5t-164 -29.5h-383zM296 131h62q48 0 94.5 18t82.5 53t58.5 86.5t22.5 119.5q0 86 -47 128t-125 42h-52z" />
<glyph unicode="&#x216f;" horiz-adv-x="1116" d="M455 709q22 -115 43 -228t44 -227q66 114 132 227t132 228h355l-27 -131h-123q-23 -112 -46.5 -223.5t-46.5 -223.5h121q-7 -33 -13.5 -66t-14.5 -65h-365l26 131h87q20 89 38.5 176t37.5 176q-72 -119 -143 -237.5t-143 -237.5h-110q-22 117 -43.5 232.5t-44.5 232.5 q-17 -86 -35 -171t-36 -171h81l-27 -131h-355l27 131h123l93 447h-121l27 131h327z" />
<glyph unicode="&#x2190;" horiz-adv-x="1136" d="M25 301l314 248v-182h749v-131h-749v-182z" />
<glyph unicode="&#x2191;" horiz-adv-x="544" d="M559 523h-177v-669h-131v669h-181l246 277z" />
<glyph unicode="&#x2192;" horiz-adv-x="1134" d="M797 54v182h-749v131h749v182l314 -248z" />
<glyph unicode="&#x2193;" horiz-adv-x="544" d="M243 -148l-248 279h183v668h131v-668h179z" />
<glyph unicode="&#x2196;" horiz-adv-x="907" d="M470 708l-130 -131l499 -498l-92 -92l-499 498l-130 -131v354h352z" />
<glyph unicode="&#x2197;" horiz-adv-x="723" d="M700 708v-354l-130 131l-499 -498l-93 92l499 499l-129 130h352z" />
<glyph unicode="&#x2198;" horiz-adv-x="905" d="M461 1l129 130l-498 499l92 92l499 -498l130 131v-354h-352z" />
<glyph unicode="&#x2199;" horiz-adv-x="722" d="M48 1v354l130 -131l499 498l92 -92l-499 -498l130 -131h-352z" />
<glyph unicode="&#x21a9;" horiz-adv-x="932" d="M20 268l284 246v-182h359q54 0 84.5 27.5t30.5 64.5q0 40 -30.5 65.5t-84.5 25.5h-204v131h210q55 0 100 -17t77.5 -46.5t50.5 -70t18 -88.5t-17.5 -89t-49.5 -71t-77.5 -47t-101.5 -17h-365v-176z" />
<glyph unicode="&#x21b0;" horiz-adv-x="868" d="M63 480l284 245v-180h427v-545h-131v414h-296v-179z" />
<glyph unicode="&#x21b1;" horiz-adv-x="792" d="M91 0v545h432v180l284 -245l-284 -245v179h-301v-414h-131z" />
<glyph unicode="&#x21b2;" horiz-adv-x="791" d="M725 709v-545h-431v-180l-285 246l285 244v-179h300v414h131z" />
<glyph unicode="&#x21b3;" horiz-adv-x="870" d="M834 230l-284 -246v180h-432v545h131v-414h301v179z" />
<glyph unicode="&#x21b4;" horiz-adv-x="885" d="M111 709h558v-449h180l-242 -275l-246 275h177v318h-427v131z" />
<glyph unicode="&#x21b5;" horiz-adv-x="1109" d="M35 354h164q0 77 29 144.5t79.5 118t118 79.5t144.5 29q45 0 88 -10.5t81 -30.5l-60 -116q-50 27 -109 27q-50 0 -93.5 -19t-76 -52t-51.5 -77t-19 -93h170l-232 -271zM935 354q0 -77 -29 -144.5t-79 -117.5t-117.5 -79t-144.5 -29q-45 0 -88 10.5t-81 30.5l60 115 q25 -13 52.5 -20t56.5 -7q49 0 92 19t75.5 52t51 76.5t18.5 93.5h-169l232 271l233 -271h-163z" />
<glyph unicode="&#x21c6;" horiz-adv-x="1212" d="M870 -86v179h-757v131h757v180l284 -246zM81 564l284 246v-183h756v-131h-756v-176z" />
<glyph unicode="&#x2202;" horiz-adv-x="625" d="M249 580q-21 0 -59.5 -5.5t-88.5 -29.5l-54 123q57 31 111.5 41.5t98.5 10.5q32 0 69 -6t73.5 -21.5t70 -42t59 -68t40.5 -99t15 -135.5q0 -75 -17.5 -141t-54 -115.5t-92.5 -78.5t-133 -29q-51 0 -98 15.5t-83 47t-58 77.5t-22 108q0 56 22 99.5t56.5 73.5t78 45.5 t85.5 15.5q36 0 62 -6t44.5 -14.5t30 -19t19.5 -19.5q-5 49 -20.5 82t-38.5 53.5t-53 29t-63 8.5zM305 339q-32 0 -55.5 -9t-39 -24.5t-23 -36t-7.5 -43.5q0 -24 10 -43t26 -32t36 -20t40 -7q36 0 61 14t41 37.5t24 52.5t10 59q-21 21 -50.5 36.5t-72.5 15.5z" />
<glyph unicode="&#x2206;" horiz-adv-x="778" d="M342 539l-136 -391h272zM256 709h172l267 -709h-706z" />
<glyph unicode="&#x220f;" horiz-adv-x="746" d="M492 0v563h-215v-563h-158v709h532v-709h-159z" />
<glyph unicode="&#x2211;" horiz-adv-x="725" d="M113 145l246 208l-246 212v144h523v-147h-306l243 -209l-252 -206h315v-147h-523v145z" />
<glyph unicode="&#x2212;" horiz-adv-x="642" d="M81 422h501v-124h-501v124z" />
<glyph unicode="&#x2215;" horiz-adv-x="443" d="M521 649l-457 -649h-138l455 649h140z" />
<glyph unicode="&#x2219;" horiz-adv-x="279" d="M50 313q0 19 8 37.5t21.5 32t32 22t40.5 8.5q37 0 60.5 -24t23.5 -56q0 -23 -8 -42t-22 -32.5t-32.5 -21.5t-39.5 -8q-38 0 -61 24.5t-23 59.5z" />
<glyph unicode="&#x221a;" horiz-adv-x="663" d="M623 762l-253 -762h-132l-190 542h140l117 -346l225 689h231v-123h-138z" />
<glyph unicode="&#x221e;" horiz-adv-x="852" d="M55 351q0 42 15 77.5t41.5 61.5t63.5 41t81 15q50 0 95.5 -24.5t87.5 -70.5q42 44 87 69.5t93 25.5q43 0 80 -15t64 -41t42 -61.5t15 -77.5t-15 -77.5t-42 -61.5t-64 -40.5t-80 -14.5q-52 0 -95.5 23t-87.5 70q-43 -46 -86.5 -69.5t-93.5 -23.5q-44 0 -81 14.5 t-63.5 40.5t-41.5 61.5t-15 77.5zM258 414q-30 0 -48 -18.5t-18 -45.5t18 -45t48 -18q25 0 49 17t47 44q-24 29 -47 47.5t-49 18.5zM617 287q29 0 47.5 18t18.5 45t-18.5 45.5t-47.5 18.5q-26 0 -49.5 -18t-47.5 -46q23 -27 47 -45t50 -18z" />
<glyph unicode="&#x222b;" horiz-adv-x="349" d="M91 511q0 92 52.5 145.5t144.5 53.5h59v-133h-54q-22 0 -36 -15t-14 -43v-510q0 -92 -52.5 -145.5t-144.5 -53.5h-60v133h54q22 0 36.5 15t14.5 43v510z" />
<glyph unicode="&#x2248;" horiz-adv-x="658" d="M616 475q-28 -53 -72.5 -81t-98.5 -28q-56 0 -111 31l-48 26q-23 13 -49 13q-50 0 -85 -49l-82 65q28 53 73 81t99 28q55 0 109 -29l48 -26q24 -14 53 -14q24 0 45.5 12t38.5 36zM616 270q-28 -53 -72.5 -81t-98.5 -28q-56 0 -111 31l-48 26q-25 13 -50 13 q-24 0 -45.5 -12t-38.5 -36l-82 65q28 53 72.5 80.5t98.5 27.5q56 0 110 -29l48 -26q26 -14 52 -14q24 0 46 12t39 37z" />
<glyph unicode="&#x2260;" horiz-adv-x="633" d="M85 522h287l54 88h132l-54 -88h76v-122h-151l-48 -79h199v-122h-274l-59 -96h-132l59 96h-89v122h164l48 79h-212v122z" />
<glyph unicode="&#x2264;" horiz-adv-x="588" d="M76 225h439v-124h-439v124zM76 503l439 130v-123l-266 -65l266 -66v-126l-439 130v120z" />
<glyph unicode="&#x2265;" horiz-adv-x="615" d="M542 101h-439v124h439v-124zM542 383l-439 -130v123l266 65l-266 67v125l439 -130v-120z" />
<glyph unicode="&#x22c5;" horiz-adv-x="279" d="M50 313q0 19 8 37.5t21.5 32t32 22t40.5 8.5q37 0 60.5 -24t23.5 -56q0 -23 -8 -42t-22 -32.5t-32.5 -21.5t-39.5 -8q-38 0 -61 24.5t-23 59.5z" />
<glyph unicode="&#x24c5;" horiz-adv-x="830" d="M57 354q0 76 29 144t79 118t117.5 79.5t144.5 29.5q76 0 143.5 -29.5t118 -79.5t79.5 -118t29 -144q0 -77 -29 -144t-79.5 -117.5t-118 -79.5t-143.5 -29q-77 0 -144.5 29t-117.5 79.5t-79 117.5t-29 144zM145 354q0 -60 21.5 -112.5t59.5 -91.5t89.5 -61.5t111.5 -22.5 q59 0 110.5 22.5t89.5 61.5t59.5 91.5t21.5 112.5t-21.5 113t-59.5 92t-89.5 61.5t-110.5 22.5q-60 0 -111.5 -22.5t-89.5 -61.5t-59.5 -92t-21.5 -113zM458 372q26 0 45 16t19 43q0 38 -44 38h-37l-21 -97h38zM402 288l-28 -134h-104l85 399h152q27 0 48.5 -9t37.5 -25 t24.5 -36.5t8.5 -44.5q0 -30 -11.5 -57.5t-32.5 -48t-49.5 -32.5t-62.5 -12h-68z" />
<glyph unicode="&#x25a0;" horiz-adv-x="912" d="M114 709h709v-709h-709v709z" />
<glyph unicode="&#x25a1;" horiz-adv-x="912" d="M114 0v709h709v-709h-709zM244 129h444v450h-444v-450z" />
<glyph unicode="&#x25af;" horiz-adv-x="692" d="M114 0v709h489v-709h-489zM240 116h237v480h-237v-480z" />
<glyph unicode="&#x25b2;" horiz-adv-x="885" d="M805 0h-839l421 725z" />
<glyph unicode="&#x25b3;" horiz-adv-x="884" d="M386 725l418 -725h-838zM193 130h384l-191 333z" />
<glyph unicode="&#x25ca;" horiz-adv-x="645" d="M457 354l-123 213l-123 -213l123 -212zM247 0l-210 354l210 355h175l210 -355l-210 -354h-175z" />
<glyph unicode="&#x25cb;" horiz-adv-x="826" d="M796 354q0 -77 -29 -144.5t-79 -117.5t-117.5 -79t-144.5 -29t-144.5 29t-118 79t-79.5 117.5t-29 144.5t29 144.5t79.5 118t118 79.5t144.5 29t144.5 -29t117.5 -79.5t79 -118t29 -144.5zM664 354q0 49 -19 93t-51 77t-75.5 52.5t-92.5 19.5q-50 0 -93.5 -19.5 t-76 -52.5t-51.5 -77t-19 -93q0 -50 19 -93.5t51.5 -76.5t76 -52t93.5 -19q49 0 92.5 19t75.5 52t51 76.5t19 93.5z" />
<glyph unicode="&#x25cf;" horiz-adv-x="826" d="M55 354q0 77 29 144.5t79 118t117.5 79.5t144.5 29t144.5 -29t118 -79.5t79.5 -118t29 -144.5t-29 -144.5t-79.5 -117.5t-118 -79t-144.5 -29t-144.5 29t-117.5 79t-79 117.5t-29 144.5z" />
<glyph unicode="&#x25fc;" horiz-adv-x="495" d="M0 495h495v-495h-495v495z" />
<glyph unicode="&#x262e;" horiz-adv-x="825" d="M795 354q0 -77 -29 -144.5t-79 -117.5t-117.5 -79t-144.5 -29t-144 29t-117.5 79t-79.5 117.5t-29 144.5t29 144.5t79.5 118t117.5 79.5t144 29t144.5 -29t117.5 -79.5t79 -118t29 -144.5zM665 354q0 42 -13.5 80.5t-37.5 69.5t-57 53.5t-71 33.5v-171l170 -131 q9 31 9 65zM183 354q0 -17 1.5 -32.5t6.5 -30.5l168 129v170q-38 -11 -70 -34t-55.5 -54t-37 -68.5t-13.5 -79.5zM486 117q61 17 106 62l-106 86v-148zM254 181q22 -22 48.5 -38.5t56.5 -24.5v146z" />
<glyph unicode="&#x2713;" horiz-adv-x="876" d="M321 -16l-298 329l95 89l207 -226l510 549l92 -92z" />
<glyph unicode="&#x2715;" horiz-adv-x="876" d="M89 86l268 269l-268 266l91 90l268 -265l264 265l91 -90l-264 -265l273 -270l-90 -91l-274 270l-269 -270z" />
<glyph unicode="&#x2780;" horiz-adv-x="826" d="M55 354q0 76 29 144t79.5 118t117.5 79.5t144 29.5q76 0 144 -29.5t118 -79.5t79.5 -118t29.5 -144q0 -77 -29.5 -144t-79.5 -117.5t-118 -79.5t-144 -29q-77 0 -144 29t-117.5 79.5t-79.5 117.5t-29 144zM144 354q0 -60 21.5 -112.5t59.5 -91.5t89 -61.5t111 -22.5 t111.5 22.5t89.5 61.5t59.5 91.5t21.5 112.5t-21.5 113t-59.5 92t-89.5 61.5t-111.5 22.5t-111 -22.5t-89 -61.5t-59.5 -92t-21.5 -113zM387 172v212h-94v73q26 0 45.5 8.5t32.5 20.5t20 26.5t10 27.5h101v-368h-115z" />
<glyph unicode="&#x2781;" horiz-adv-x="826" d="M425 725q76 0 144 -29.5t118 -79.5t79.5 -118t29.5 -144q0 -77 -29.5 -144t-79.5 -117.5t-118 -79.5t-144 -29q-77 0 -144 29t-117.5 79.5t-79.5 117.5t-29 144q0 76 29 144t79.5 118t117.5 79.5t144 29.5zM144 354q0 -60 21.5 -112.5t59.5 -91.5t89 -61.5t111 -22.5 t111.5 22.5t89.5 61.5t59.5 91.5t21.5 112.5t-21.5 113t-59.5 92t-89.5 61.5t-111.5 22.5t-111 -22.5t-89 -61.5t-59.5 -92t-21.5 -113zM423 393q35 20 35 45q0 10 -8 22t-30 12q-23 0 -34.5 -13.5t-11.5 -32.5q0 -10 3 -19h-100q-2 7 -3 12.5t-1 14.5q0 25 9.5 48.5t28 41 t46.5 28t66 10.5q35 0 62.5 -10t46.5 -27t29 -40t10 -48q0 -36 -22 -63.5t-62 -50.5l-69 -40q-3 -2 -3 -4h159v-95h-303v13q0 51 20 92t72 70z" />
<glyph unicode="&#x2782;" horiz-adv-x="826" d="M55 354q0 76 29 144t79.5 118t117.5 79.5t144 29.5q76 0 144 -29.5t118 -79.5t79.5 -118t29.5 -144q0 -77 -29.5 -144t-79.5 -117.5t-118 -79.5t-144 -29q-77 0 -144 29t-117.5 79.5t-79.5 117.5t-29 144zM144 354q0 -60 21.5 -112.5t59.5 -91.5t89 -61.5t111 -22.5 t111.5 22.5t89.5 61.5t59.5 91.5t21.5 112.5t-21.5 113t-59.5 92t-89.5 61.5t-111.5 22.5t-111 -22.5t-89 -61.5t-59.5 -92t-21.5 -113zM371 296q1 -19 15 -33t37 -14q22 0 34.5 11t12.5 27q0 21 -14 30.5t-32 9.5q-16 0 -29 -6l-35 74l80 47h-158v92h290v-92l-85 -52 q46 -7 72 -33.5t26 -71.5q0 -26 -11 -49t-32 -40.5t-51 -28t-68 -10.5q-35 0 -63 10t-47.5 27t-31 39t-13.5 45z" />
<glyph unicode="&#x2783;" horiz-adv-x="826" d="M55 354q0 76 29 144t79.5 118t117.5 79.5t144 29.5q76 0 144 -29.5t118 -79.5t79.5 -118t29.5 -144q0 -77 -29.5 -144t-79.5 -117.5t-118 -79.5t-144 -29q-77 0 -144 29t-117.5 79.5t-79.5 117.5t-29 144zM144 354q0 -60 21.5 -112.5t59.5 -91.5t89 -61.5t111 -22.5 t111.5 22.5t89.5 61.5t59.5 91.5t21.5 112.5t-21.5 113t-59.5 92t-89.5 61.5t-111.5 22.5t-111 -22.5t-89 -61.5t-59.5 -92t-21.5 -113zM244 352l165 195h121v-213h59v-86h-59v-70h-113v70h-173v104zM417 423l-76 -89h76v89z" />
<glyph unicode="&#x2784;" horiz-adv-x="826" d="M55 354q0 76 29 144t79.5 118t117.5 79.5t144 29.5q76 0 144 -29.5t118 -79.5t79.5 -118t29.5 -144q0 -77 -29.5 -144t-79.5 -117.5t-118 -79.5t-144 -29q-77 0 -144 29t-117.5 79.5t-79.5 117.5t-29 144zM144 354q0 -60 21.5 -112.5t59.5 -91.5t89 -61.5t111 -22.5 t111.5 22.5t89.5 61.5t59.5 91.5t21.5 112.5t-21.5 113t-59.5 92t-89.5 61.5t-111.5 22.5t-111 -22.5t-89 -61.5t-59.5 -92t-21.5 -113zM363 295q2 -21 17.5 -33t37.5 -12q20 0 33 10t13 30q0 24 -14 35t-36 11q-14 0 -26.5 -6t-20.5 -14l-92 26l44 189h231v-90h-165 l-12 -52q13 10 32 15t39 5q60 0 95 -31t35 -88q0 -27 -10 -51.5t-30 -42.5t-49 -28.5t-67 -10.5q-32 0 -59.5 9.5t-47.5 25.5t-32.5 38t-15.5 47z" />
<glyph unicode="&#x2785;" horiz-adv-x="826" d="M55 354q0 76 29 144t79.5 118t117.5 79.5t144 29.5q76 0 144 -29.5t118 -79.5t79.5 -118t29.5 -144q0 -77 -29.5 -144t-79.5 -117.5t-118 -79.5t-144 -29q-77 0 -144 29t-117.5 79.5t-79.5 117.5t-29 144zM144 354q0 -60 21.5 -112.5t59.5 -91.5t89 -61.5t111 -22.5 t111.5 22.5t89.5 61.5t59.5 91.5t21.5 112.5t-21.5 113t-59.5 92t-89.5 61.5t-111.5 22.5t-111 -22.5t-89 -61.5t-59.5 -92t-21.5 -113zM544 446q-13 5 -30 8t-36 3q-35 0 -68 -15.5t-46 -55.5q15 14 36.5 21t45.5 7q27 0 50.5 -7.5t41 -22t28 -36t10.5 -50.5q0 -30 -12 -55 t-33 -43t-51 -28t-66 -10q-35 0 -64.5 12t-52 34.5t-35 54t-12.5 70.5q0 51 17 90.5t47 67.5t70.5 42.5t87.5 14.5q44 0 91 -15zM368 294q0 -18 13.5 -30t33.5 -12q19 0 32.5 12t13.5 30q0 20 -13.5 31.5t-32.5 11.5q-20 0 -33.5 -11.5t-13.5 -31.5z" />
<glyph unicode="&#x2786;" horiz-adv-x="826" d="M55 354q0 76 29 144t79.5 118t117.5 79.5t144 29.5q76 0 144 -29.5t118 -79.5t79.5 -118t29.5 -144q0 -77 -29.5 -144t-79.5 -117.5t-118 -79.5t-144 -29q-77 0 -144 29t-117.5 79.5t-79.5 117.5t-29 144zM144 354q0 -60 21.5 -112.5t59.5 -91.5t89 -61.5t111 -22.5 t111.5 22.5t89.5 61.5t59.5 91.5t21.5 112.5t-21.5 113t-59.5 92t-89.5 61.5t-111.5 22.5t-111 -22.5t-89 -61.5t-59.5 -92t-21.5 -113zM578 437q-13 -11 -33.5 -32t-41.5 -54.5t-38 -80.5t-23 -109h-120q4 66 23.5 117t42.5 86q26 41 58 72h-180v93h312v-92z" />
<glyph unicode="&#x2787;" horiz-adv-x="826" d="M55 354q0 76 29 144t79.5 118t117.5 79.5t144 29.5q76 0 144 -29.5t118 -79.5t79.5 -118t29.5 -144q0 -77 -29.5 -144t-79.5 -117.5t-118 -79.5t-144 -29q-77 0 -144 29t-117.5 79.5t-79.5 117.5t-29 144zM144 354q0 -60 21.5 -112.5t59.5 -91.5t89 -61.5t111 -22.5 t111.5 22.5t89.5 61.5t59.5 91.5t21.5 112.5t-21.5 113t-59.5 92t-89.5 61.5t-111.5 22.5t-111 -22.5t-89 -61.5t-59.5 -92t-21.5 -113zM426 395q20 1 30 12t10 23q0 10 -9.5 20.5t-30.5 10.5t-30.5 -10.5t-9.5 -20.5q0 -12 10 -23t30 -12zM426 251q27 0 38 12.5t11 26.5 q0 12 -11.5 24t-37.5 12t-37.5 -12t-11.5 -24q0 -14 11 -26.5t38 -12.5zM426 164q-76 0 -118.5 30.5t-42.5 80.5q0 32 22 55.5t54 32.5q-32 9 -48.5 32.5t-16.5 49.5q0 45 38 75t112 30q75 0 112.5 -30t37.5 -75q0 -26 -16.5 -49.5t-48.5 -32.5q31 -8 53.5 -31t22.5 -53 q0 -52 -41.5 -83.5t-119.5 -31.5z" />
<glyph unicode="&#x2788;" horiz-adv-x="826" d="M55 354q0 76 29 144t79.5 118t117.5 79.5t144 29.5q76 0 144 -29.5t118 -79.5t79.5 -118t29.5 -144q0 -77 -29.5 -144t-79.5 -117.5t-118 -79.5t-144 -29q-77 0 -144 29t-117.5 79.5t-79.5 117.5t-29 144zM144 354q0 -60 21.5 -112.5t59.5 -91.5t89 -61.5t111 -22.5 t111.5 22.5t89.5 61.5t59.5 91.5t21.5 112.5t-21.5 113t-59.5 92t-89.5 61.5t-111.5 22.5t-111 -22.5t-89 -61.5t-59.5 -92t-21.5 -113zM307 265q14 -5 30.5 -8t36.5 -3q18 0 36 3.5t33.5 12t27 22.5t17.5 35q-16 -14 -38 -21t-47 -7q-24 0 -48 7.5t-42.5 22t-30 36 t-11.5 50.5q0 30 11 54.5t32 42.5t51 28t68 10q34 0 64 -12t52 -34t34.5 -53.5t12.5 -69.5q0 -52 -16 -92.5t-44.5 -68.5t-67.5 -42.5t-85 -14.5q-22 0 -45.5 3.5t-46.5 11.5zM476 419q0 18 -13 30t-33 12t-33.5 -12t-13.5 -30q0 -20 13.5 -32t33.5 -12t33 12t13 32z" />
<glyph unicode="&#xe000;" horiz-adv-x="725" d="M19 260h180v449h558v-131h-427v-318h176l-245 -275z" />
<glyph unicode="&#xe002;" horiz-adv-x="984" d="M739 625l233 -271h-161q0 -77 -29 -144.5t-79 -117.5t-117.5 -79t-144.5 -29t-144.5 29t-118 79t-79.5 117.5t-29 144.5t29 144.5t79.5 118t118 79.5t144.5 29q76 0 145 -29l-51 -121q-43 20 -94 20q-50 0 -93.5 -19t-76 -52t-51.5 -77t-19 -93q0 -50 19 -93.5 t51.5 -76.5t76 -52t93.5 -19q49 0 92 19t75.5 52t51 76.5t18.5 93.5h-171z" />
<glyph unicode="&#xf6c3;" horiz-adv-x="186" d="M3 600q5 -1 10.5 -1.5t11.5 -0.5q22 0 43.5 8t30.5 30q-2 -1 -8.5 -2.5t-14.5 -1.5q-34 0 -50.5 18.5t-16.5 41.5q0 31 23.5 53t59.5 22q42 0 62 -24t20 -57q0 -35 -12 -61t-32 -44t-47 -27t-57 -9q-17 0 -35 3z" />
<glyph unicode="&#xfb00;" horiz-adv-x="719" />
<glyph unicode="&#xfb01;" horiz-adv-x="657" />
<glyph unicode="&#xfb02;" horiz-adv-x="656" />
<glyph unicode="&#xfb03;" horiz-adv-x="987" />
<glyph unicode="&#xfb04;" horiz-adv-x="994" />
<glyph unicode="&#xfeff;" horiz-adv-x="0" />
<glyph horiz-adv-x="427" d="M139 371h-92v126h118l16 81q9 43 29.5 73.5t47.5 50.5t59 29.5t63 9.5q19 0 32 -1t23.5 -3t19.5 -5l21 -7v-130q-15 4 -30 6t-35 2q-9 0 -21 -2.5t-23.5 -10t-21 -21t-13.5 -34.5l-8 -38h110v-126h-136l-78 -384q-9 -43 -29.5 -74t-47.5 -50.5t-58.5 -29t-62.5 -9.5 q-19 0 -32.5 1t-24.5 3t-21 4.5t-22 6.5v131q16 -4 33 -6t37 -2q9 0 20.5 2.5t22.5 10t20.5 21t14.5 34.5z" />
<glyph horiz-adv-x="459" d="M103 0l30 141h-120l24 114h121l42 199h-121l24 114h121l30 141h126l-30 -141h121l-24 -114h-121l-42 -199h120l-24 -114h-121l-30 -141h-126z" />
<glyph horiz-adv-x="279" d="M124 642q0 41 28 68.5t70 27.5q35 0 57 -22t22 -55q0 -22 -8 -39.5t-21.5 -30t-31.5 -19.5t-37 -7q-35 0 -57 22t-22 55zM0 0l106 497h152l-106 -497h-152z" />
<glyph horiz-adv-x="561" d="M16 0l150 709h158l-119 -558h301l-32 -151h-458zM339 411q0 17 7 33t19.5 28.5t29.5 20t36 7.5q32 0 53.5 -21.5t21.5 -51.5q0 -20 -7.5 -36.5t-20 -29t-29 -19.5t-34.5 -7q-33 0 -54.5 22.5t-21.5 53.5z" />
<glyph horiz-adv-x="429" d="M1 0l154 724h152l-154 -724h-152zM273 330q0 18 7.5 35.5t21 31t31 21.5t38.5 8q35 0 57 -22.5t22 -54.5q0 -21 -8 -39t-21 -31t-30.5 -20.5t-36.5 -7.5q-36 0 -58.5 23t-22.5 56z" />
<glyph horiz-adv-x="405" d="M2 141q0 37 10.5 78.5t33.5 76.5t59.5 58t89.5 23q42 0 72.5 -12t50 -32.5t28.5 -47.5t9 -57q0 -38 -10.5 -79.5t-33.5 -76.5t-60 -58t-89 -23q-79 0 -119.5 42t-40.5 108zM117 143q0 -25 9 -41.5t38 -16.5q21 0 35.5 15t24 36.5t13.5 46t4 44.5q0 23 -10 39.5t-39 16.5 q-21 0 -35 -15t-23 -36.5t-13 -46t-4 -42.5z" />
<glyph horiz-adv-x="267" d="M48 0l46 217h-93l15 73q25 1 45.5 8t36.5 18.5t27 25t16 26.5h100l-78 -368h-115z" />
<glyph horiz-adv-x="361" d="M166 209q42 17 42 45q0 11 -8 22.5t-28 11.5q-25 0 -36.5 -16t-11.5 -40l-99 8q0 28 10.5 53t30.5 44t48 30t63 11q36 0 63 -9t45 -24.5t27 -36.5t9 -44q0 -46 -29 -78t-82 -54l-76 -32q-2 -1 -3.5 -2.5l-2.5 -2.5h151l-21 -95h-284q0 63 32.5 109t93.5 72z" />
<glyph horiz-adv-x="370" d="M95 229l105 49h-167l19 91h291l-22 -105l-96 -46q34 -8 55 -32t21 -60q0 -27 -11.5 -51.5t-33 -42.5t-51.5 -29t-67 -11t-65 10.5t-47 28t-29 40t-10 46.5q0 3 0.5 7t0.5 7l104 6q-1 -4 -1 -8q0 -20 13 -32.5t36 -12.5t35.5 12.5t12.5 30.5t-13 27t-30 9q-8 0 -14.5 -1.5 t-8.5 -2.5z" />
<glyph horiz-adv-x="390" d="M0 185l201 184h121l-44 -212h60l-19 -86h-59l-15 -71h-113l15 71h-171zM186 254l-106 -97h85z" />
<glyph horiz-adv-x="355" d="M86 132q0 -22 13.5 -34t33.5 -12q19 0 33.5 13t14.5 36q0 18 -12 28.5t-29 10.5q-16 0 -26 -5.5t-17 -12.5l-87 40l78 172h227l-19 -90h-152l-21 -47q9 7 25.5 10.5t30.5 3.5q54 0 83 -29t29 -77q0 -30 -11.5 -56.5t-32.5 -46.5t-50 -31.5t-65 -11.5q-35 0 -62.5 10 t-46 27.5t-28 41t-9.5 50.5z" />
<glyph horiz-adv-x="375" d="M313 266q-13 6 -31.5 12t-47.5 6q-33 0 -64 -15.5t-45 -44.5q13 9 31.5 14.5t37.5 5.5q56 0 85.5 -30t29.5 -76q0 -33 -12.5 -60t-34 -46.5t-50.5 -30t-63 -10.5q-33 0 -60 11.5t-46.5 31.5t-30.5 48.5t-11 63.5q0 54 19.5 97t52.5 72t75.5 44.5t87.5 15.5q37 0 63.5 -6 t50.5 -19zM161 167q-18 0 -33 -12t-15 -34q0 -17 10.5 -28t27.5 -11q20 0 34.5 12.5t14.5 35.5q0 16 -11 26.5t-28 10.5z" />
<glyph horiz-adv-x="347" d="M326 277q-16 -11 -41.5 -33t-53.5 -55.5t-55 -80.5t-45 -108h-120q18 65 48.5 116t60 86.5t51.5 54.5t23 19h-179l19 93h311z" />
<glyph horiz-adv-x="371" d="M138 255q0 -12 9.5 -21t24.5 -9q20 0 30.5 10.5t10.5 24.5q0 11 -7.5 20.5t-27.5 9.5t-30 -12t-10 -23zM100 111q0 -17 13 -26t30 -9q24 0 36.5 13t12.5 28q0 11 -9 22.5t-35 11.5q-24 0 -36 -13.5t-12 -26.5zM146 -9q-81 0 -120 30t-39 75q0 38 28 64t67 33 q-22 9 -35 30.5t-13 44.5q0 22 10.5 42t30 35t46.5 23.5t59 8.5q75 0 110 -29.5t35 -73.5q0 -32 -23.5 -55.5t-58.5 -33.5q24 -8 41 -30t17 -48t-11.5 -47t-32 -36.5t-49 -24t-62.5 -8.5z" />
<glyph horiz-adv-x="375" d="M13 100q14 -8 33.5 -13t47.5 -5q15 0 31.5 4t31.5 11.5t27 19.5t18 29q-13 -10 -31.5 -16t-37.5 -6q-55 0 -85 30t-30 75q0 33 12.5 59.5t34 46t50.5 30t63 10.5q66 0 107 -42t41 -111q0 -55 -19.5 -98t-52 -72.5t-74.5 -45t-88 -15.5q-37 0 -64 6.5t-51 19.5zM166 199 q18 0 32.5 12.5t14.5 34.5q0 17 -10.5 28.5t-27.5 11.5q-20 0 -34 -13.5t-14 -36.5q0 -15 11 -26t28 -11z" />
<glyph horiz-adv-x="45" />
<glyph />
<glyph d="M137 85q0 26 9.5 46.5t26 35.5t38 23.5t45.5 8.5q52 0 81 -34t29 -83q0 -58 -21 -106.5t-57.5 -85t-85.5 -58t-105 -24.5l18 80q19 1 40.5 10t41.5 23.5t35.5 35t20.5 45.5q-3 -2 -11 -3t-14 -1q-42 0 -66.5 25.5t-24.5 61.5z" />
<glyph d="M244 -8q-48 0 -75.5 30.5t-27.5 71.5q0 24 10 46t27 39t40.5 26.5t49.5 9.5q47 0 74 -29t27 -71q0 -24 -10 -46.5t-26.5 -39.5t-39.5 -27t-49 -10z" />
<glyph d="M240 -7q-43 0 -68 27t-25 65q0 22 9 42t24.5 35.5t36.5 24.5t45 9q42 0 67.5 -27t25.5 -64q0 -23 -9 -43t-24.5 -35.5t-36.5 -24.5t-45 -9zM306 303q-43 0 -68 27t-25 65q0 22 9 42.5t24.5 35.5t36.5 24t45 9q42 0 67 -27t25 -64q0 -23 -9 -43t-24 -35.5t-36 -24.5 t-45 -9z" />
<glyph d="M144 75q0 24 8.5 43t23.5 32.5t35 21t42 7.5q47 0 73 -30.5t26 -76.5q0 -52 -19 -96t-52 -77.5t-78 -53t-95 -22.5l16 73q17 1 36.5 9t37.5 21.5t32.5 32t19.5 41.5q-3 -2 -10 -3t-14 -1q-38 0 -60 23t-22 56zM305 302q-43 0 -68.5 27.5t-25.5 65.5q0 22 9 42t25 35.5 t37 24.5t45 9q43 0 67.5 -27t24.5 -65q0 -22 -9 -42.5t-24 -36t-36 -24.5t-45 -9z" />
<glyph d="M156 13q-2 -10 -2 -14v-9q0 -33 19 -49.5t52 -16.5q26 0 46 17.5t20 44.5q0 29 -29 49l-87 60q-22 15 -41.5 32t-34.5 36t-23.5 41.5t-8.5 49.5q0 30 9 54t23 42t32.5 30.5t38.5 20.5q-23 25 -33.5 55t-10.5 60q0 48 21 86.5t54.5 65.5t75 41.5t82.5 14.5q49 0 87 -13.5 t64 -37.5t39.5 -56t13.5 -69q0 -10 -0.5 -18.5t-1.5 -14.5l-145 -9q1 8 1.5 12.5t0.5 12.5q0 33 -21 48.5t-50 15.5q-26 0 -46 -18t-20 -44q0 -29 26 -47l90 -60q22 -15 41.5 -31.5t34 -36t23 -42t8.5 -49.5q0 -31 -9 -55t-23 -42t-32.5 -30.5t-37.5 -20.5q22 -26 32 -56.5 t10 -59.5q0 -48 -20.5 -86.5t-53.5 -65.5t-74.5 -41.5t-82.5 -14.5q-50 0 -88 13.5t-64.5 37.5t-40 56t-13.5 69v14.5t2 18.5zM246 342q-35 -22 -35 -58q0 -26 23 -42l92 -64q34 20 34 59q0 11 -5 22t-17 19z" />
<glyph d="M217 371h-92v126h118l16 81q9 43 29.5 73.5t47.5 50.5t59 29.5t63 9.5q19 0 32 -1t23.5 -3t19.5 -5l21 -7v-130q-15 4 -30 6t-35 2q-9 0 -21 -2.5t-23.5 -10t-21 -21t-13.5 -34.5l-8 -38h110v-126h-136l-78 -384q-9 -43 -29.5 -74t-47.5 -50.5t-58.5 -29t-62.5 -9.5 q-19 0 -32.5 1t-24.5 3t-21 4.5t-22 6.5v131q16 -4 33 -6t37 -2q9 0 20.5 2.5t22.5 10t20.5 21t14.5 34.5z" />
<glyph />
<glyph />
<glyph horiz-adv-x="369" d="M44 245q0 192 88 338t249 246l69 -91q-60 -43 -111 -90.5t-89 -105.5t-59.5 -129.5t-21.5 -162.5q0 -43 8 -86t22 -83.5t33 -78t42 -69.5l-99 -70q-26 33 -49.5 75t-41.5 91t-29 103.5t-11 112.5z" />
<glyph horiz-adv-x="370" d="M347 446q0 -191 -89 -337.5t-248 -245.5l-70 91q60 43 111 90.5t89 105t59.5 129t21.5 162.5q0 43 -8 86t-21.5 84t-33 78.5t-41.5 69.5l99 70q25 -33 49 -75.5t42 -91t29 -103.5t11 -113z" />
<glyph horiz-adv-x="421" d="M57 283l29 137h300l-30 -137h-299z" />
<glyph horiz-adv-x="349" d="M-21 -118l199 942h250l-24 -113h-124l-151 -713h123l-24 -116h-249z" />
<glyph horiz-adv-x="349" d="M-53 -118l24 116h122l152 713h-124l24 113h250l-200 -942h-248z" />
<glyph horiz-adv-x="391" d="M46 417q42 0 73.5 20t42.5 68l26 122q12 54 33.5 92t51.5 61t68.5 33.5t83.5 10.5h45l-24 -113h-38q-31 0 -57.5 -17t-36.5 -65l-31 -147q-11 -48 -41.5 -83.5t-83.5 -45.5q36 -11 54 -38.5t18 -63.5q0 -17 -3 -33l-28 -134q-3 -14 -3 -25q0 -35 20.5 -48t46.5 -13h31 l-24 -113h-36q-75 0 -120 40t-45 115q0 28 7 57l23 108q3 13 3 24q0 35 -23 49.5t-59 14.5z" />
<glyph horiz-adv-x="391" d="M370 292q-43 0 -74.5 -20t-42.5 -68l-26 -122q-12 -54 -33.5 -92t-51.5 -61t-68.5 -33.5t-83.5 -10.5h-45l25 113h37q30 0 56.5 17t37.5 65l31 147q10 48 40.5 83.5t84.5 45.5q-36 11 -54 38t-18 63q0 18 4 34l27 134q3 15 3 26q0 34 -20.5 47t-46.5 13h-31l24 113h36 q75 0 120 -40.5t45 -115.5q0 -26 -6 -56l-23 -108q-3 -14 -3 -25q0 -35 23 -49t59 -14z" />
<glyph horiz-adv-x="289" d="M175 0h-183l139 487h112zM298 641q0 -20 -7.5 -37t-20.5 -30t-30.5 -20.5t-36.5 -7.5q-36 0 -56.5 23t-20.5 54q0 20 8 37.5t21 30t29.5 20t34.5 7.5q35 0 57 -22.5t22 -54.5z" />
<glyph horiz-adv-x="588" d="M143 152l-100 199l179 196h147l-189 -204l98 -191h-135zM375 152l-100 199l179 196h147l-189 -204l98 -191h-135z" />
<glyph horiz-adv-x="421" d="M57 283l29 137h300l-30 -137h-299z" />
<glyph horiz-adv-x="585" d="M232 547l102 -199l-179 -196h-148l189 204l-97 191h133zM462 547l102 -199l-179 -196h-148l189 204l-97 191h133z" />
<glyph horiz-adv-x="534" d="M378 489q0 -22 -3 -46.5t-13.5 -49.5t-30.5 -49t-56 -43l-58 -32q-26 -15 -38.5 -37t-12.5 -45q0 -25 18.5 -46.5t60.5 -21.5q25 0 43.5 9.5t31 25.5t19 36.5t6.5 43.5l138 -14q0 -49 -18 -91.5t-50.5 -74.5t-78 -50.5t-100.5 -18.5q-58 0 -100.5 16t-70.5 41.5t-41.5 58 t-13.5 65.5q0 75 38 124.5t98 84.5l43 25q34 19 51 37.5t22 51.5h116zM420 641q0 -20 -7.5 -37t-20.5 -30t-30.5 -20.5t-36.5 -7.5q-36 0 -57 23t-21 54q0 20 8 37.5t21 30t30 20t35 7.5q35 0 57 -22.5t22 -54.5z" />
<glyph horiz-adv-x="644" d="M60 286l27 132h518l-28 -132h-517z" />
<glyph horiz-adv-x="1060" d="M60 286l27 132h934l-28 -132h-933z" />
<glyph horiz-adv-x="355" d="M143 152l-100 199l179 196h147l-189 -204l98 -191h-135z" />
<glyph horiz-adv-x="355" d="M232 547l102 -199l-179 -196h-148l189 204l-97 191h133z" />
<glyph horiz-adv-x="764" d="M438 724q75 0 130 -20.5t92.5 -52.5t58 -71t26.5 -76l-155 -48q-4 20 -14.5 41t-30 37.5t-48.5 27t-70 10.5q-39 0 -77 -16.5t-68 -49t-49 -80t-19 -109.5q0 -39 11.5 -72t33.5 -57.5t54.5 -38.5t74.5 -14q39 0 68.5 10.5t50.5 26t34 35t19 37.5h-226l29 135h378 q0 -81 -23.5 -153t-69.5 -125.5t-114.5 -85t-158.5 -31.5q-69 0 -128.5 24.5t-102.5 68t-67.5 103t-24.5 128.5q0 98 32.5 175t86 130.5t123 82t144.5 28.5z" />
<glyph horiz-adv-x="764" d="M252 759l150 132h146l95 -132h-135l-44 65l-73 -65h-139zM438 724q75 0 130 -20.5t92.5 -52.5t58 -71t26.5 -76l-155 -48q-4 20 -14.5 41t-30 37.5t-48.5 27t-70 10.5q-39 0 -77 -16.5t-68 -49t-49 -80t-19 -109.5q0 -39 11.5 -72t33.5 -57.5t54.5 -38.5t74.5 -14 q39 0 68.5 10.5t50.5 26t34 35t19 37.5h-226l29 135h378q0 -81 -23.5 -153t-69.5 -125.5t-114.5 -85t-158.5 -31.5q-69 0 -128.5 24.5t-102.5 68t-67.5 103t-24.5 128.5q0 98 32.5 175t86 130.5t123 82t144.5 28.5z" />
<glyph horiz-adv-x="764" d="M476 753q-31 0 -58 7.5t-47 22.5t-31.5 37t-11.5 52v7t2 12h104q-1 -5 -1 -9q0 -18 12.5 -29t36.5 -11q26 0 43 14.5t22 34.5h116q-6 -24 -21 -49t-38.5 -44.5t-55.5 -32t-72 -12.5zM438 724q75 0 130 -20.5t92.5 -52.5t58 -71t26.5 -76l-155 -48q-4 20 -14.5 41 t-30 37.5t-48.5 27t-70 10.5q-39 0 -77 -16.5t-68 -49t-49 -80t-19 -109.5q0 -39 11.5 -72t33.5 -57.5t54.5 -38.5t74.5 -14q39 0 68.5 10.5t50.5 26t34 35t19 37.5h-226l29 135h378q0 -81 -23.5 -153t-69.5 -125.5t-114.5 -85t-158.5 -31.5q-69 0 -128.5 24.5t-102.5 68 t-67.5 103t-24.5 128.5q0 98 32.5 175t86 130.5t123 82t144.5 28.5z" />
<glyph horiz-adv-x="764" d="M385 839q0 18 7.5 34.5t21 30t31.5 21.5t38 8q35 0 57.5 -22.5t22.5 -54.5q0 -21 -8 -39t-21 -31t-31 -20.5t-37 -7.5q-35 0 -58 24t-23 57zM438 724q75 0 130 -20.5t92.5 -52.5t58 -71t26.5 -76l-155 -48q-4 20 -14.5 41t-30 37.5t-48.5 27t-70 10.5q-39 0 -77 -16.5 t-68 -49t-49 -80t-19 -109.5q0 -39 11.5 -72t33.5 -57.5t54.5 -38.5t74.5 -14q39 0 68.5 10.5t50.5 26t34 35t19 37.5h-226l29 135h378q0 -81 -23.5 -153t-69.5 -125.5t-114.5 -85t-158.5 -31.5q-69 0 -128.5 24.5t-102.5 68t-67.5 103t-24.5 128.5q0 98 32.5 175t86 130.5 t123 82t144.5 28.5z" />
<glyph horiz-adv-x="764" d="M278 -120q0 31 24 53t59 22q42 0 62.5 -24.5t20.5 -57.5q0 -35 -12.5 -61t-33 -44t-47 -27t-55.5 -9q-8 0 -17.5 1t-17.5 3l11 51q5 -1 10.5 -1h10.5q23 0 44.5 7.5t31.5 30.5q-10 -4 -24 -4q-34 0 -50.5 18.5t-16.5 41.5zM438 724q75 0 130 -20.5t92.5 -52.5t58 -71 t26.5 -76l-155 -48q-4 20 -14.5 41t-30 37.5t-48.5 27t-70 10.5q-39 0 -77 -16.5t-68 -49t-49 -80t-19 -109.5q0 -39 11.5 -72t33.5 -57.5t54.5 -38.5t74.5 -14q39 0 68.5 10.5t50.5 26t34 35t19 37.5h-226l29 135h378q0 -81 -23.5 -153t-69.5 -125.5t-114.5 -85 t-158.5 -31.5q-69 0 -128.5 24.5t-102.5 68t-67.5 103t-24.5 128.5q0 98 32.5 175t86 130.5t123 82t144.5 28.5z" />
<glyph horiz-adv-x="429" d="M245 427q10 34 39.5 56.5t67.5 22.5q41 0 65.5 -26.5t24.5 -61.5q0 -22 -8.5 -41.5t-23.5 -34.5t-35.5 -24t-43.5 -9q-42 0 -66 26.5t-24 62.5v13l-87 -411h-152l89 423q7 31 8 48.5t1 25.5h154q0 -5 -0.5 -18.5t-3.5 -28.5z" />
<glyph horiz-adv-x="430" d="M301 556h-129l122 151h181zM245 427q10 34 39.5 56.5t67.5 22.5q41 0 65.5 -26.5t24.5 -61.5q0 -22 -8.5 -41.5t-23.5 -34.5t-35.5 -24t-43.5 -9q-42 0 -66 26.5t-24 62.5v13l-87 -411h-152l89 423q7 31 8 48.5t1 25.5h154q0 -5 -0.5 -18.5t-3.5 -28.5z" />
<glyph horiz-adv-x="430" d="M-26 -120q0 31 24 53t59 22q42 0 62.5 -24.5t20.5 -57.5q0 -35 -12.5 -61t-33 -44t-47 -27t-55.5 -9q-8 0 -17.5 1t-17.5 3l11 51q5 -1 10.5 -1h10.5q23 0 44.5 7.5t31.5 30.5q-10 -4 -24 -4q-34 0 -50.5 18.5t-16.5 41.5zM245 427q10 34 39.5 56.5t67.5 22.5 q41 0 65.5 -26.5t24.5 -61.5q0 -22 -8.5 -41.5t-23.5 -34.5t-35.5 -24t-43.5 -9q-42 0 -66 26.5t-24 62.5v13l-87 -411h-152l89 423q7 31 8 48.5t1 25.5h154q0 -5 -0.5 -18.5t-3.5 -28.5z" />
<glyph horiz-adv-x="430" d="M481 707l-147 -151h-142l-83 151h112l55 -72l79 72h126zM245 427q10 34 39.5 56.5t67.5 22.5q41 0 65.5 -26.5t24.5 -61.5q0 -22 -8.5 -41.5t-23.5 -34.5t-35.5 -24t-43.5 -9q-42 0 -66 26.5t-24 62.5v13l-87 -411h-152l89 423q7 31 8 48.5t1 25.5h154q0 -5 -0.5 -18.5 t-3.5 -28.5z" />
<glyph horiz-adv-x="681" d="M584 225q-9 -51 -34.5 -95t-63.5 -76.5t-88 -50.5t-110 -18q-68 0 -118 17t-83 46t-49 66t-16 78q0 49 17.5 86t45 62.5t60 40t62.5 18.5q-37 16 -60 51.5t-23 78.5q0 46 20.5 82.5t53.5 61.5t74.5 38.5t83.5 13.5q62 0 105.5 -16.5t70.5 -42.5t39.5 -59.5t12.5 -67.5 q0 -11 -1 -21.5t-2 -15.5h-149q1 4 2 9.5t1 12.5q0 30 -17 52.5t-62 22.5q-15 0 -30 -5.5t-27 -15.5t-20 -24.5t-8 -33.5q0 -36 23.5 -52t52.5 -16l-27 -127h-8q-20 0 -42.5 -5t-41.5 -18.5t-32 -36t-13 -56.5q0 -17 7 -34t21 -30t35 -21t50 -8q48 0 85.5 28t48.5 81h-78 l26 126h293l-26 -126h-61z" />
<glyph horiz-adv-x="465" d="M87 526q0 40 15 75t41 61t61 41t75 15t75 -15t61 -41t41 -61t15 -75t-15 -75t-41 -61t-61 -41t-75 -15t-75 15t-61 41t-41 61t-15 75zM141 526q0 -29 10.5 -54.5t29.5 -44.5t44 -29.5t54 -10.5t54 10.5t43.5 29.5t29 44.5t10.5 54.5t-10.5 54.5t-29 44t-43.5 29.5t-54 11 t-54 -11t-44 -29.5t-29.5 -44t-10.5 -54.5zM274 496h-12l-14 -65h-57l42 196h82q26 0 42.5 -15.5t16.5 -40.5q0 -23 -13 -41t-35 -26l20 -73h-59zM288 543q27 0 27 22q0 9 -5 12t-13 3h-16l-9 -37h16z" />
<glyph horiz-adv-x="403" d="M74 482q0 37 10.5 78.5t33.5 76.5t59.5 58t89.5 23q42 0 72.5 -12t50 -32.5t28.5 -47.5t9 -57q0 -38 -10.5 -79.5t-33.5 -76.5t-60 -58t-89 -23q-79 0 -119.5 42t-40.5 108zM189 484q0 -25 9 -41.5t38 -16.5q21 0 35.5 15t24 36.5t13.5 46t4 44.5q0 23 -10 39.5t-39 16.5 q-21 0 -35 -15t-23 -36.5t-13 -46t-4 -42.5z" />
<glyph horiz-adv-x="266" d="M120 341l46 217h-93l15 73q25 1 45.5 8t36.5 18.5t27 25t16 26.5h100l-78 -368h-115z" />
<glyph horiz-adv-x="359" d="M237 549q42 17 42 45q0 11 -8 22.5t-28 11.5q-25 0 -36.5 -16t-11.5 -40l-99 8q0 28 10.5 53t30.5 44t48 30t63 11q36 0 63 -9t45 -24.5t27 -36.5t9 -44q0 -46 -29 -78t-82 -54l-76 -32q-2 -1 -3.5 -2.5l-2.5 -2.5h151l-21 -95h-284q0 63 32.5 109t93.5 72z" />
<glyph horiz-adv-x="368" d="M166 569l105 49h-167l19 91h291l-22 -105l-96 -46q34 -8 55 -32t21 -60q0 -27 -11.5 -51.5t-33 -42.5t-51.5 -29t-67 -11t-65 10.5t-47 28t-29 40t-10 46.5q0 3 0.5 7t0.5 7l104 6q-1 -4 -1 -8q0 -20 13 -32.5t36 -12.5t35.5 12.5t12.5 30.5t-13 27t-30 9 q-8 0 -14.5 -1.5t-8.5 -2.5z" />
<glyph horiz-adv-x="389" d="M72 525l201 184h121l-44 -212h60l-19 -86h-59l-15 -71h-113l15 71h-171zM258 594l-106 -97h85z" />
<glyph horiz-adv-x="352" d="M157 473q0 -22 13.5 -34t33.5 -12q19 0 33.5 13t14.5 36q0 18 -12 28.5t-29 10.5q-16 0 -26 -5.5t-17 -12.5l-87 40l78 172h227l-19 -90h-152l-21 -47q9 7 25.5 10.5t30.5 3.5q54 0 83 -29t29 -77q0 -30 -11.5 -56.5t-32.5 -46.5t-50 -31.5t-65 -11.5q-35 0 -62.5 10 t-46 27.5t-28 41t-9.5 50.5z" />
<glyph horiz-adv-x="374" d="M385 605q-13 6 -31.5 12t-47.5 6q-33 0 -64 -15.5t-45 -44.5q13 9 31.5 14.5t37.5 5.5q56 0 85.5 -30t29.5 -76q0 -33 -12.5 -60t-34 -46.5t-50.5 -30t-63 -10.5q-33 0 -60 11.5t-46.5 31.5t-30.5 48.5t-11 63.5q0 54 19.5 97t52.5 72t75.5 44.5t87.5 15.5q37 0 63.5 -6 t50.5 -19zM233 506q-18 0 -33 -12t-15 -34q0 -17 10.5 -28t27.5 -11q20 0 34.5 12.5t14.5 35.5q0 16 -11 26.5t-28 10.5z" />
<glyph horiz-adv-x="346" d="M398 617q-16 -11 -41.5 -33t-53.5 -55.5t-55 -80.5t-45 -108h-120q18 65 48.5 116t60 86.5t51.5 54.5t23 19h-179l19 93h311z" />
<glyph horiz-adv-x="370" d="M210 595q0 -12 9.5 -21t24.5 -9q20 0 30.5 10.5t10.5 24.5q0 11 -7.5 20.5t-27.5 9.5t-30 -12t-10 -23zM172 451q0 -17 13 -26t30 -9q24 0 36.5 13t12.5 28q0 11 -9 22.5t-35 11.5q-24 0 -36 -13.5t-12 -26.5zM218 331q-81 0 -120 30t-39 75q0 38 28 64t67 33 q-22 9 -35 30.5t-13 44.5q0 22 10.5 42t30 35t46.5 23.5t59 8.5q75 0 110 -29.5t35 -73.5q0 -32 -23.5 -55.5t-58.5 -33.5q24 -8 41 -30t17 -48t-11.5 -47t-32 -36.5t-49 -24t-62.5 -8.5z" />
<glyph horiz-adv-x="374" d="M85 440q14 -8 33.5 -13t47.5 -5q15 0 31.5 4t31.5 11.5t27 19.5t18 29q-13 -10 -31.5 -16t-37.5 -6q-55 0 -85 30t-30 75q0 33 12.5 59.5t34 46t50.5 30t63 10.5q66 0 107 -42t41 -111q0 -55 -19.5 -98t-52 -72.5t-74.5 -45t-88 -15.5q-37 0 -64 6.5t-51 19.5zM238 539 q18 0 32.5 12.5t14.5 34.5q0 17 -10.5 28.5t-27.5 11.5q-20 0 -34 -13.5t-14 -36.5q0 -15 11 -26t28 -11z" />
<glyph horiz-adv-x="429" d="M265 609q-17 0 -30.5 -8t-22.5 -21t-13.5 -29.5t-4.5 -33.5q0 -32 16.5 -47.5t39.5 -15.5q12 0 24 5.5t22 16.5t16.5 29t6.5 43q0 32 -15.5 46.5t-38.5 14.5zM471 709l-59 -274q-9 -41 -9 -77h-105v18.5t2 22.5q-8 -14 -27.5 -30t-56.5 -16q-31 0 -56.5 12t-43.5 33 t-28 50t-10 63q0 46 14 84t38 65t56 42t68 15q26 0 43.5 -5.5t28.5 -12.5t16 -14.5l7 -10.5l8 35h114z" />
<glyph horiz-adv-x="440" d="M59 358l106 507h116l-38 -183q11 13 33.5 23t50.5 10q34 0 59.5 -11t43 -30.5t26.5 -46t9 -56.5q0 -49 -14.5 -89.5t-39 -70t-58 -45.5t-70.5 -16q-22 0 -39.5 5.5t-30.5 13t-21 16t-11 15.5l-9 -42h-113zM288 612q-18 0 -33 -8.5t-25 -21.5t-15.5 -29.5t-5.5 -32.5 q0 -34 19 -49t42 -15q12 0 25.5 5.5t24.5 16.5t18.5 29t7.5 42q0 34 -17 48.5t-41 14.5z" />
<glyph horiz-adv-x="398" d="M333 568q-3 17 -17.5 30t-42.5 13q-14 0 -28 -5.5t-25.5 -17t-19 -29t-7.5 -41.5q0 -30 18 -46t45 -16q23 0 39 11t24 27l95 -34q-8 -22 -23 -42.5t-36 -36t-48 -25t-60 -9.5q-6 0 -12 0.5t-12 1.5q-32 4 -58.5 18t-46 35.5t-30.5 50.5t-11 62q0 48 17 86t45.5 64.5 t65.5 40.5t76 14q36 0 64 -10.5t47.5 -27.5t31 -39.5t14.5 -46.5z" />
<glyph horiz-adv-x="429" d="M410 423q-3 -14 -4 -30t-1 -28v-7h-106q-1 5 -1 8v5q0 14 3 28q-8 -14 -27.5 -30t-56.5 -16q-32 0 -57.5 12t-43.5 33.5t-27.5 50.5t-9.5 62q0 47 14 85t38 65t55.5 41.5t67.5 14.5q45 0 65.5 -14t26.5 -23l40 185h118zM266 610q-17 0 -30.5 -8t-22.5 -21t-13.5 -30 t-4.5 -34q0 -32 16.5 -47t39.5 -15q12 0 24 5t22 16.5t16.5 29t6.5 42.5q0 32 -16 47t-38 15z" />
<glyph horiz-adv-x="396" d="M318 577v4q0 14 -12.5 30.5t-43.5 16.5q-26 0 -44.5 -14t-24.5 -37h125zM183 503q1 -23 17.5 -41t51.5 -18q19 0 34 9t22 25l92 -39q-8 -17 -21.5 -33.5t-33 -29t-45.5 -20.5t-59 -8t-63 12.5t-52.5 34t-35.5 51.5t-13 66q0 48 16 86.5t42 65.5t59 41.5t68 14.5 q38 0 68 -11.5t51 -32t32 -48.5t11 -61q0 -10 -2 -28t-8 -36h-231z" />
<glyph horiz-adv-x="290" d="M269 610l-53 -253h-118l54 253h-59l21 99h60l9 43q14 59 51.5 89t96.5 30q14 0 34 -3t34 -11l-20 -95q0 -1 -8.5 2.5t-26.5 3.5q-21 0 -33.5 -11.5t-17.5 -30.5l-3 -17h70l-21 -99h-70z" />
<glyph horiz-adv-x="432" d="M322 555q0 29 -16.5 42.5t-36.5 13.5q-32 0 -52 -22t-20 -56q0 -26 16 -40.5t40 -14.5q25 0 47 20.5t22 56.5zM139 370q0 -23 17 -38.5t48 -15.5t53 17t32 55l5 20q-9 -9 -27.5 -18.5t-45.5 -9.5q-32 0 -58.5 11t-45 30t-28.5 45.5t-10 57.5q0 40 13.5 75t36.5 61t55 41 t70 15q47 0 70 -15t29 -27l8 35h113l-68 -323q-8 -38 -25 -69.5t-42.5 -54t-58.5 -35.5t-72 -13q-45 0 -77.5 12.5t-53.5 32.5t-30.5 44.5t-9.5 48.5z" />
<glyph horiz-adv-x="421" d="M275 358l42 195q1 5 1 15q0 20 -11 32.5t-33 12.5q-21 0 -34.5 -14t-18.5 -38l-44 -203h-118l107 506h118l-38 -183q15 19 38.5 28t45.5 9q58 0 84.5 -34t26.5 -83q0 -9 -1 -19t-3 -20l-44 -204h-118z" />
<glyph horiz-adv-x="208" d="M145 803q0 30 20.5 51t52.5 21q27 0 43.5 -16t16.5 -41q0 -33 -22.5 -52.5t-51.5 -19.5q-26 0 -42.5 16.5t-16.5 40.5zM58 357l75 352h117l-74 -352h-118z" />
<glyph horiz-adv-x="208" d="M133 709h117l-81 -384q-12 -57 -46.5 -84t-82.5 -27q-27 0 -47 7t-29 14l19 91q0 1 9.5 -3.5t26.5 -4.5q14 0 24.5 7.5t13.5 24.5zM146 803q0 30 20 51t52 21q27 0 43.5 -16t16.5 -41q0 -33 -22 -52.5t-51 -19.5q-26 0 -42.5 16.5t-16.5 40.5z" />
<glyph horiz-adv-x="405" d="M230 475l-36 -32l-18 -86h-117l107 507h118l-55 -256l110 101h157l-176 -154l97 -198h-132z" />
<glyph horiz-adv-x="210" d="M59 357l107 507h119l-108 -507h-118z" />
<glyph horiz-adv-x="640" d="M278 357l41 195q1 5 1 15q0 20 -11.5 33t-33.5 13q-21 0 -35 -15t-19 -38l-44 -203h-117l61 294q4 19 5 31t1 20v7h114v-4v-11.5t-1 -17.5q15 22 41.5 32t49.5 10q36 0 59.5 -14t37.5 -36q13 16 29 26t31.5 15t30 7t23.5 2q55 0 86.5 -35.5t31.5 -86.5q0 -8 -1 -17 t-3 -18l-44 -204h-117l42 195q1 5 1 14q0 20 -11.5 33.5t-33.5 13.5t-36 -15t-19 -39l-43 -202h-117z" />
<glyph horiz-adv-x="422" d="M276 357l42 196q1 3 1 6.5v6.5q0 20 -11 33.5t-33 13.5t-35 -14.5t-18 -37.5l-45 -204h-117l61 294q4 19 5 31t1 20v7h115v-9v-12t-1 -12q15 21 40.5 31.5t48.5 10.5q58 0 85 -34t27 -83q0 -9 -1 -19t-3 -20l-44 -205h-118z" />
<glyph horiz-adv-x="418" d="M269 611q-19 0 -33 -8.5t-23.5 -22t-14.5 -30t-5 -32.5q0 -31 16.5 -47t40.5 -16q12 0 25 5t24.5 16.5t19 29t7.5 42.5q0 32 -16 47t-41 16zM442 554q0 -41 -14.5 -78.5t-41 -66t-63 -45.5t-81.5 -17q-36 0 -66.5 12.5t-52.5 34.5t-34 52.5t-12 65.5q0 48 16.5 86t44 65 t64 41.5t76.5 14.5q37 0 67 -12.5t51.5 -34.5t33.5 -52.5t12 -65.5z" />
<glyph horiz-adv-x="441" d="M288 613q-18 0 -32.5 -8.5t-24.5 -22t-15 -30.5t-5 -33q0 -33 18 -48.5t41 -15.5q12 0 25.5 5.5t25 17t19 29.5t7.5 43q0 32 -18 47.5t-41 15.5zM240 676q11 14 34.5 26t52.5 12q33 0 59 -11t44 -30t27 -45.5t9 -57.5q0 -49 -14.5 -89.5t-39.5 -70t-58.5 -45.5t-70.5 -16 q-42 0 -66.5 13.5t-33.5 26.5l-35 -165h-117l90 427q4 19 5 31t1 20v7h114v-11v-11t-1 -11z" />
<glyph horiz-adv-x="428" d="M367 224h-118l33 152q-11 -10 -27.5 -17t-41.5 -7q-31 0 -56 12.5t-42.5 34t-27 50t-9.5 61.5q0 47 14 85t38 65t56 41.5t68 14.5q26 0 43.5 -5.5t28.5 -12.5t16 -14t7 -11l8 36h114zM265 609q-17 0 -30 -8t-22 -21t-13.5 -30t-4.5 -34q0 -32 16 -47t39 -15q12 0 24 5 t22 16.5t16.5 29t6.5 43.5q0 32 -15.5 46.5t-38.5 14.5z" />
<glyph horiz-adv-x="292" d="M337 590q-22 8 -41 8q-12 0 -25 -3t-24.5 -11.5t-21 -24.5t-15.5 -43l-34 -159h-117l62 294q4 19 5 29.5t1 21.5v7h114v-9v-12t-1 -13q14 20 35 28.5t42 8.5q17 0 27.5 -3t16.5 -6z" />
<glyph horiz-adv-x="339" d="M162 479v-10q0 -18 9.5 -28.5t27.5 -10.5q17 0 25 7t8 18q0 7 -3.5 14t-18.5 13l-29 12q-49 20 -67 47t-18 59q0 24 10.5 46t29 38t44 25.5t55.5 9.5q67 0 101.5 -30t34.5 -83l-100 -10v6q0 12 -7 23.5t-28 11.5q-12 0 -21 -7t-9 -18q0 -15 16 -22l43 -17 q46 -19 64 -46.5t18 -60.5q0 -23 -9.5 -44.5t-27.5 -38t-44.5 -26.5t-60.5 -10q-47 0 -74.5 12.5t-42.5 30t-19.5 36.5t-4.5 32v6z" />
<glyph horiz-adv-x="293" d="M234 492q-1 -4 -1 -12q0 -15 9.5 -22t25.5 -7q10 0 26 4l-20 -92q-6 -3 -19 -7t-33 -4q-52 0 -81 27.5t-29 72.5q0 14 3 31l26 123h-60l21 103h19q29 0 43.5 15t21.5 42l10 42h105l-22 -99h68l-23 -103h-66z" />
<glyph horiz-adv-x="422" d="M247 708l-42 -196q-1 -3 -1 -6.5v-6.5q0 -20 11 -33.5t33 -13.5t35 14.5t18 37.5l45 204h117l-61 -294q-4 -19 -5 -31t-1 -20v-7h-115v9v12t1 12q-15 -21 -40.5 -31.5t-48.5 -10.5q-58 0 -85 34t-27 83q0 9 1 19t3 20l44 205h118z" />
<glyph horiz-adv-x="381" d="M266 357h-118l-62 352h122l24 -205l104 205h130z" />
<glyph horiz-adv-x="608" d="M453 709l21 -193l87 193h119l-176 -352h-114l-26 217l-110 -217h-120l-33 352h116l13 -192l98 192h125z" />
<glyph horiz-adv-x="390" d="M157 357h-137l162 181l-92 171h130l40 -84l71 84h140l-163 -180l93 -172h-130l-41 85z" />
<glyph horiz-adv-x="383" d="M43 224l112 185l-69 300h123l33 -177l102 177h129l-302 -485h-128z" />
<glyph horiz-adv-x="365" d="M47 357l21 104l174 149h-137l21 99h291l-20 -96l-185 -156h154l-22 -100h-297z" />
<glyph d="M529 527h59v-106h-93l-47 -148h89v-107h-123l-53 -166h-115l53 166h-101l-53 -166h-115l53 166h-62v107h96l47 148h-93v106h127l58 182h115l-58 -182h101l58 182h115zM232 273h101l47 148h-101z" />
<glyph d="M278 131q45 0 68.5 19.5t23.5 51.5q0 20 -9.5 37t-39.5 29l-80 32q-69 29 -101.5 77.5t-32.5 110.5q0 46 17.5 84.5t47.5 67t70 46t85 21.5l23 116h126l-27 -128q41 -13 68 -35.5t43.5 -49t23 -53t6.5 -47.5l-141 -23q0 7 -3 22t-13 30t-30.5 26.5t-54.5 11.5 q-42 0 -65 -23.5t-23 -52.5q0 -26 14 -41t34 -23l72 -31q80 -34 114 -81.5t34 -110.5q0 -39 -15 -76t-44 -66.5t-71.5 -49t-96.5 -22.5l-24 -116h-126l27 130q-43 13 -73 37t-49 52t-27.5 58t-8.5 57q0 9 0.5 15t1.5 11l140 24q-2 -10 -2 -22q0 -21 6.5 -42t21 -37t36.5 -26 t54 -10z" />
<glyph d="M248 587q0 19 -11.5 33t-31.5 14q-21 0 -38.5 -16.5t-17.5 -47.5q0 -20 11 -33.5t31 -13.5q21 0 39 16t18 48zM212 719q28 0 51.5 -10t40.5 -27.5t26.5 -40.5t9.5 -50q0 -35 -13.5 -63t-35 -48.5t-49.5 -31.5t-58 -11q-27 0 -50.5 10t-40.5 27t-26.5 40.5t-9.5 50.5 q0 34 13 62.5t35 48.5t49.5 31.5t57.5 11.5zM548 465l-519 -328l21 101l519 328zM466 143q0 19 -11 33t-31 14q-21 0 -39 -16.5t-18 -47.5q0 -20 11.5 -33.5t31.5 -13.5q21 0 38.5 16t17.5 48zM558 147q0 -35 -13.5 -63t-35 -48.5t-49.5 -31.5t-57 -11q-28 0 -51.5 10 t-40.5 27t-26.5 40.5t-9.5 50.5q0 34 13 62.5t35 48.5t50 31.5t58 11.5q27 0 50.5 -10t40.5 -27.5t26.5 -40.5t9.5 -50z" />
<glyph d="M371 102h-128v195h-190v124h190v195h128v-195h190v-124h-190v-195z" />
<glyph d="M258 -15q-67 0 -114 23t-76.5 60.5t-43 85t-13.5 97.5q0 43 7.5 94.5t24.5 104t43.5 102t64.5 88t88 61.5t114 23q66 0 113 -22.5t77 -59.5t43.5 -84.5t13.5 -97.5q0 -44 -7.5 -96t-24.5 -104.5t-43.5 -102t-64.5 -88t-88.5 -61.5t-113.5 -23zM168 260q0 -60 22.5 -97.5 t78.5 -37.5q47 0 80 34.5t53.5 84.5t30 106t9.5 99q0 29 -4.5 53.5t-16 42.5t-31 28.5t-48.5 10.5q-32 0 -57.5 -16t-45 -42t-33 -60t-22 -70t-12.5 -71.5t-4 -64.5z" />
<glyph d="M343 131h162l-28 -131h-468l28 131h149l73 347h-124l22 104q71 2 110.5 37.5t61.5 89.5h136z" />
<glyph d="M332 377q56 25 80 55t24 72q0 32 -22.5 56.5t-66.5 24.5q-59 0 -85 -37.5t-26 -99.5l-148 15q1 57 20.5 105t54.5 82.5t84.5 54t111.5 19.5q57 0 100 -18.5t72.5 -48.5t44.5 -69t15 -80q0 -87 -48 -144t-136 -97l-145 -67q-21 -10 -41.5 -26t-31.5 -40h323l-31 -134h-505 q10 106 63 187t167 133z" />
<glyph d="M178 436l214 140h-294l25 133h489l-29 -151l-200 -129q34 -4 62 -19.5t48.5 -40t32 -56.5t11.5 -70q0 -50 -20 -96.5t-56 -82.5t-87 -57.5t-113 -21.5q-64 0 -111.5 19.5t-79 52t-47.5 74.5t-16 86v7.5t2 9.5l155 18q-1 -6 -1 -11v-9q0 -49 26 -80t73 -31q53 0 83.5 34 t30.5 83t-27 72.5t-69 23.5q-12 0 -25 -2t-22 -7z" />
<glyph d="M5 314l364 395h190l-91 -425h117l-27 -134h-118l-31 -150h-157l30 150h-312zM366 539l-225 -255h170z" />
<glyph d="M161 245q-1 -5 -1 -8.5v-5.5q0 -21 5.5 -41t18 -35.5t31.5 -25t46 -9.5q23 0 44.5 8t38 23.5t26.5 39t10 54.5q0 47 -27 73t-72 26q-30 0 -53.5 -9.5t-40.5 -25.5l-126 62l145 338h392l-30 -134h-278l-61 -142q16 17 44.5 25t52.5 8q103 0 158 -55t55 -149 q0 -57 -20 -107.5t-57 -88t-89.5 -59.5t-116.5 -22q-58 0 -103 19t-76 51t-47.5 74t-16.5 89z" />
<glyph d="M572 552q-25 16 -59 25.5t-70 9.5q-41 0 -78 -11.5t-68 -34.5t-54.5 -56.5t-36.5 -78.5q25 32 64.5 48.5t80.5 16.5q48 0 86.5 -15t64.5 -42t40 -65t14 -84q0 -63 -22 -114.5t-60.5 -88t-90 -57t-110.5 -20.5q-52 0 -97.5 19t-79 53.5t-53 84t-19.5 110.5q0 97 29 182.5 t84 150t133 102t176 37.5q63 0 112 -15.5t78 -38.5zM301 345q-25 0 -47 -9t-38.5 -25t-26 -39t-9.5 -50q0 -45 26 -74t73 -29q23 0 44.5 8.5t38 24.5t26.5 39t10 52q0 46 -24.5 74t-72.5 28z" />
<glyph d="M617 579q-16 -10 -44 -32t-63.5 -56.5t-75.5 -82.5t-79 -109t-74.5 -135.5t-61.5 -163.5h-166q22 83 54.5 155.5t69 133t75 109t73 85t61 60t40.5 33.5h-329l28 133h520z" />
<glyph d="M529 203q-1 -52 -23.5 -92.5t-60.5 -68.5t-87.5 -42.5t-103.5 -14.5q-49 0 -93 12.5t-77 36.5t-52 60t-19 83q0 36 12.5 67.5t35.5 56.5t54.5 42.5t69.5 25.5q-36 17 -62 55t-26 85q0 48 19.5 87.5t54.5 68t83 44t104 15.5t99 -14.5t72.5 -40t44.5 -59t15 -72.5 q0 -32 -10.5 -62t-29.5 -54.5t-47 -42t-62 -26.5q21 -9 37.5 -25t28 -36t17.5 -43t6 -46zM329 418q48 0 74 28.5t26 67.5q0 30 -19 54.5t-60 24.5q-26 0 -45 -8t-31.5 -21t-18.5 -30t-6 -35q0 -14 5 -28.5t14.5 -26t24.5 -19t36 -7.5zM167 203q0 -41 26 -65.5t72 -24.5 q25 0 46 9t35.5 23.5t22.5 33.5t8 39q0 17 -5.5 33t-17 28.5t-30 20t-45.5 7.5t-47.5 -9t-35 -23.5t-22 -33.5t-7.5 -38z" />
<glyph d="M213 466q0 -42 25 -70.5t72 -28.5q51 0 82.5 33t31.5 87q0 47 -26 75t-73 28q-23 0 -43 -8.5t-35.5 -24.5t-24.5 -39t-9 -52zM46 162q33 -20 67 -29t69 -9q41 0 78 12t67 35.5t51.5 57t30.5 76.5q-24 -32 -60.5 -48t-78.5 -16q-48 0 -87.5 16t-68 44.5t-44 68t-15.5 86.5 q0 61 22 111t59.5 84.5t87.5 53.5t107 19q55 0 101.5 -18.5t80 -53.5t52.5 -86t19 -116q0 -107 -30.5 -193t-84.5 -146.5t-128 -93t-161 -32.5q-52 0 -104 13.5t-90 42.5z" />
<glyph d="M62 413l439 224v-138l-289 -137l289 -139v-140l-439 222v108z" />
<glyph d="M53 522h495v-122h-495v122zM53 321h495v-122h-495v122z" />
<glyph d="M552 306l-439 -223v137l288 138l-288 139v140l439 -223v-108z" />
<glyph d="M209 109q-65 25 -105 82.5t-40 136.5q0 62 20.5 112.5t55 88t80 60t95.5 28.5l20 92h115l-22 -102q63 -20 97.5 -64.5t42.5 -95.5l-137 -38q-5 27 -27 48.5t-66 21.5q-22 0 -44 -9t-40 -27.5t-29 -46.5t-11 -65q0 -48 27.5 -73.5t71.5 -25.5q37 0 61.5 18.5t37.5 44.5 l124 -47q-12 -29 -31.5 -55.5t-46.5 -48t-61.5 -35.5t-76.5 -17l-19 -92h-115z" />
<glyph d="M45 398h71q-4 26 -7 51t-3 48q0 49 16.5 90t46.5 71t73 47t97 17q55 0 95.5 -17t67 -43.5t39.5 -58.5t13 -63q0 -20 -2 -26l-134 -13q1 5 1 9.5v7.5q0 33 -22.5 56.5t-60.5 23.5t-65 -27t-27 -82q0 -20 3 -43.5t7 -47.5h185l-24 -110h-155q-2 -25 -9 -49.5t-18.5 -46 t-27.5 -37.5t-37 -25h177q40 0 65 21t30 54l127 -22q-12 -83 -68.5 -133t-146.5 -50h-390l28 127q28 4 51 19t39.5 37.5t26.5 49.5t14 55h-99z" />
<glyph d="M87 348q0 54 25 101l-71 72l91 90l74 -74q46 23 99 23q26 0 52 -6t46 -17l74 74l91 -90l-71 -72q12 -20 19 -46.5t7 -54.5q0 -29 -7 -54t-19 -48l71 -70l-91 -91l-73 74q-46 -23 -99 -23t-99 23l-74 -74l-91 91l72 71q-12 20 -19 46.5t-7 54.5zM212 348q0 -40 25.5 -65.5 t67.5 -25.5t67.5 25.5t25.5 65.5t-25.5 65.5t-67.5 25.5t-67.5 -25.5t-25.5 -65.5z" />
<glyph d="M69 420h101l-105 289h161l91 -276l205 276h169l-230 -289h111l-22 -106h-185l-13 -63h185l-23 -106h-184l-30 -145h-147l31 145h-174l23 106h173l14 63h-173z" />
<glyph d="M415 190v195h-369v125h499v-320h-130z" />
<glyph d="M359 259h-128v116h-178v124h178v117h128v-117h178v-124h-178v-116zM53 225h484v-124h-484v124z" />
<glyph d="M53 196l163 164l-163 165l90 90l164 -165l164 165l90 -90l-164 -165l164 -164l-90 -92l-164 165l-164 -165z" />
<glyph d="M55 422h505v-124h-505v124zM219 175q0 17 6.5 32t18 26.5t27 18t33.5 6.5t33.5 -6.5t27 -18t18 -26.5t6.5 -32t-6.5 -32.5t-18 -27t-27 -18.5t-33.5 -7t-33.5 7t-27 18.5t-18 27t-6.5 32.5zM219 547q0 17 6.5 32.5t18 27t27 18t33.5 6.5t33.5 -6.5t27 -18t18 -27 t6.5 -32.5t-6.5 -32.5t-18 -27t-27 -18.5t-33.5 -7t-33.5 7t-27 18.5t-18 27t-6.5 32.5z" />
<glyph d="M55 585q0 30 11.5 55t30.5 43t43.5 28t50.5 10q25 0 45.5 -9t35.5 -24t23.5 -35.5t8.5 -44.5q0 -31 -11.5 -56t-31 -43t-44 -27.5t-50.5 -9.5q-24 0 -44.5 9t-35.5 24t-23.5 35.5t-8.5 44.5zM253 -9q-25 0 -45.5 9t-35.5 24.5t-23 36t-8 43.5q0 30 11.5 55.5t30.5 43.5 t43.5 28t50.5 10q24 0 44.5 -9t35.5 -23q17 15 39.5 23.5t46.5 8.5q25 0 45.5 -9t35.5 -24t23.5 -35.5t8.5 -44.5q0 -31 -11.5 -56t-31 -43t-44 -28t-50.5 -10q-47 0 -79 32q-19 -15 -41.5 -23.5t-45.5 -8.5zM555 524l-528 -325l23 105l528 327zM185 645q-18 0 -33.5 -15 t-15.5 -42q0 -17 10 -28t27 -11q19 0 34.5 13.5t15.5 40.5q0 40 -38 42zM271 165q-18 0 -33.5 -15t-15.5 -42q0 -17 10 -28t27 -11q19 0 34.5 13.5t15.5 40.5q0 40 -38 42zM437 165q-18 0 -33.5 -15t-15.5 -42q0 -17 10 -28t27 -11q19 0 34.5 13.5t15.5 40.5q0 40 -38 42z " />
<glyph d="M58 491h88q25 52 63 95t84.5 73.5t101 47.5t112.5 17q45 0 83.5 -9.5t67.5 -25.5l-62 -125q-17 11 -47 18t-58 7q-51 0 -98 -26t-81 -72h238l-57 -110h-232q-3 -14 -5 -28.5t-3 -29.5h210l-57 -111h-136q38 -87 165 -87q20 0 39 2t32 6l9 -131q-20 -8 -50 -12t-55 -4 q-54 0 -102.5 15.5t-87.5 44.5t-67 71t-41 95h-112l22 111h81q2 32 7 58h-75z" />
<glyph d="M53 422h501v-124h-501v124z" />
<glyph d="M580 270q-28 -53 -72.5 -81t-98.5 -28q-56 0 -111 31l-48 26q-25 13 -50 13q-24 0 -45.5 -12t-38.5 -36l-82 65q28 53 72.5 80.5t98.5 27.5q56 0 110 -29l48 -26q26 -14 52 -14q24 0 46 12t39 37zM580 475q-28 -53 -72.5 -81t-98.5 -28q-56 0 -111 31l-48 26 q-23 13 -49 13q-50 0 -85 -49l-82 65q28 53 73 81t99 28q55 0 109 -29l48 -26q24 -14 53 -14q24 0 45.5 12t38.5 36z" />
<glyph d="M62 522h286l54 88h132l-54 -88h77v-122h-152l-48 -79h200v-122h-275l-59 -96h-132l59 96h-88v122h163l48 79h-211v122z" />
<glyph d="M75 225h439v-124h-439v124zM75 503l439 130v-123l-266 -65l266 -66v-126l-439 130v120z" />
<glyph d="M528 101h-439v124h439v-124zM528 383l-439 -130v123l266 65l-266 67v125l439 -130v-120z" />
<glyph horiz-adv-x="495" d="M222 493h-134l20 97q66 2 112.5 35t67.5 84h137l-123 -578h142l-28 -131h-428l28 131h129z" />
<glyph horiz-adv-x="190" d="M82 502h-103l73 207h150z" />
<glyph horiz-adv-x="166" d="M156 622q0 -31 -23.5 -53.5t-58.5 -22.5q-40 0 -61.5 25.5t-21.5 58.5t13 59t34 44.5t48 28t56 9.5q13 0 20.5 -1t11.5 -2l-11 -53q-4 1 -9.5 2t-14.5 1q-30 0 -49.5 -13t-25.5 -27q4 2 11 4t16 2q35 0 50 -19.5t15 -42.5z" />
<glyph horiz-adv-x="325" d="M-12 624q0 16 7 31t18.5 26t27 18t32.5 7q29 0 47.5 -20t18.5 -47q0 -18 -7.5 -33t-19 -26t-26.5 -17t-30 -6q-31 0 -49.5 19.5t-18.5 47.5zM170 624q0 16 6.5 31t18 26t27 18t32.5 7q29 0 47.5 -20t18.5 -47q0 -18 -7 -33t-19 -26t-26.5 -17t-29.5 -6q-32 0 -50 19.5 t-18 47.5z" />
<glyph horiz-adv-x="348" d="M-11 817q0 16 6.5 31.5t18 27.5t27 19t33.5 7q31 0 50 -20t19 -49q0 -37 -25 -60.5t-59 -23.5q-32 0 -51 19t-19 49zM189 817q0 16 6.5 31.5t18 27.5t27 19t33.5 7q31 0 50 -20t19 -49q0 -37 -25 -60.5t-59 -23.5q-32 0 -51 19t-19 49z" />
<glyph horiz-adv-x="274" d="M-2 891h174l76 -132h-130z" />
<glyph horiz-adv-x="436" d="M-6 817q0 16 6.5 31.5t18.5 28t28 20t34 7.5q32 0 52 -21t20 -50q0 -19 -7.5 -34.5t-19.5 -27t-27.5 -18t-31.5 -6.5q-33 0 -53 20t-20 50zM267 817q0 16 6.5 31.5t18.5 28t28 20t35 7.5q32 0 51.5 -21t19.5 -50q0 -38 -26 -62t-60 -24q-33 0 -53 20t-20 50z" />
<glyph horiz-adv-x="307" d="M-20 771l22 109h311l-23 -109h-310z" />
<glyph horiz-adv-x="274" d="M117 759h-143l132 132h188z" />
<glyph horiz-adv-x="389" d="M-25 759l150 132h146l95 -132h-135l-44 65l-73 -65h-139z" />
<glyph horiz-adv-x="389" d="M404 891l-152 -132h-146l-95 132h132l43 -65l73 65h145z" />
<glyph horiz-adv-x="340" d="M158 753q-31 0 -58 7.5t-47 22.5t-31.5 37t-11.5 52v7t2 12h104q-1 -5 -1 -9q0 -18 12.5 -29t36.5 -11q26 0 43 14.5t22 34.5h116q-6 -24 -21 -49t-38.5 -44.5t-55.5 -32t-72 -12.5z" />
<glyph horiz-adv-x="175" d="M-10 834q0 18 7.5 34.5t21 30t31.5 21.5t38 8q35 0 57.5 -22.5t22.5 -54.5q0 -21 -8 -39t-21 -31t-31 -20.5t-37 -7.5q-35 0 -58 24t-23 57z" />
<glyph horiz-adv-x="278" d="M135 927q-21 0 -37 -15t-16 -38q0 -18 12.5 -29.5t32.5 -11.5q19 0 36 14t17 39q0 20 -13 30.5t-32 10.5zM-10 868q0 30 12 57t33 47t49 32t59 12q27 0 50.5 -9t41.5 -25.5t28 -39t10 -48.5q0 -33 -13.5 -60.5t-35 -47t-49.5 -30.5t-56 -11q-27 0 -51 9t-41 25.5t-27 39 t-10 49.5z" />
<glyph horiz-adv-x="344" d="M370 895q-11 -78 -46 -111t-82 -33q-23 0 -41 7.5t-35 17.5q-14 9 -27 16t-24 7q-13 0 -22.5 -10t-12.5 -32h-93q4 39 17 66t31 43.5t40 23.5t45 7q24 0 41.5 -7t32.5 -16q14 -8 25 -15.5t22 -7.5q29 0 36 44h93z" />
<glyph horiz-adv-x="364" d="M68 759h-96l76 132h141zM237 759h-98l92 132h144z" />
<glyph horiz-adv-x="190" d="M84 492h-107l77 217h155z" />
<glyph horiz-adv-x="166" d="M-8 -120q0 31 24 53t59 22q42 0 62.5 -24.5t20.5 -57.5q0 -35 -12.5 -61t-33 -44t-47 -27t-55.5 -9q-8 0 -17.5 1t-17.5 3l11 51q5 -1 10.5 -1h10.5q23 0 44.5 7.5t31.5 30.5q-10 -4 -24 -4q-34 0 -50.5 18.5t-16.5 41.5z" />
</font>
</defs>
</svg>
