<?xml version="1.0" standalone="no"?>
<!DOCTYPE svg PUBLIC "-//W3C//DTD SVG 1.1//EN" "http://www.w3.org/Graphics/SVG/1.1/DTD/svg11.dtd" >
<svg xmlns="http://www.w3.org/2000/svg" xmlns:xlink="http://www.w3.org/1999/xlink" version="1.1">
<metadata></metadata>
<defs>
<font id="circular_spotify_tx_tBdIt" horiz-adv-x="583" >
<font-face units-per-em="1000" ascent="750" descent="-250" />
<missing-glyph horiz-adv-x="235" />
<glyph unicode="fy" horiz-adv-x="875" d="M321 -190l170 268l-79 301h-149l-80 -379h-134l80 379h-83l24 113h84l17 80q10 45 29 75.5t44.5 49t56 26.5t62.5 8q26 0 48.5 -5.5t32.5 -11.5l-23 -109q0 -1 -11.5 4t-33.5 5q-30 0 -50 -16.5t-28 -51.5l-11 -54h236l66 -276l166 276h149l-436 -682h-147z" />
<glyph unicode="&#xd;" horiz-adv-x="235" />
<glyph unicode=" "  horiz-adv-x="235" />
<glyph unicode="&#x09;" horiz-adv-x="235" />
<glyph unicode="&#xa0;" horiz-adv-x="235" />
<glyph unicode="!" horiz-adv-x="273" d="M142 709h161l-136 -493h-97zM13 63q0 36 25.5 62t62.5 26q32 0 51.5 -21t19.5 -50q0 -18 -7.5 -34t-19.5 -28t-27.5 -19t-31.5 -7q-32 0 -52.5 20.5t-20.5 50.5z" />
<glyph unicode="&#x22;" horiz-adv-x="417" d="M112 609q0 1 -0.5 10.5t-0.5 20.5q0 34 23 57t58 23q32 0 51 -18.5t19 -47.5q0 -10 -3 -21t-8 -21l-86 -177h-46zM300 609q0 1 -0.5 10.5t-0.5 20.5q0 34 23 57t58 23q32 0 51.5 -18.5t19.5 -47.5q0 -10 -3.5 -21t-8.5 -21l-85 -177h-47z" />
<glyph unicode="#" horiz-adv-x="715" d="M397 179h-135l-37 -179h-103l37 179h-123v96h144l35 165h-126v96h146l37 173h103l-37 -173h134l37 173h104l-36 -173h128v-96h-149l-35 -165h129v-96h-149l-37 -179h-104zM283 275h134l35 165h-134z" />
<glyph unicode="$" horiz-adv-x="573" d="M105 494q0 46 17.5 84t47.5 65.5t69.5 44t83.5 19.5h4l23 114h110l-26 -125q40 -12 67.5 -33.5t44 -47.5t23.5 -53t7 -50l-123 -21q0 10 -3.5 27.5t-15.5 34t-34.5 28.5t-59.5 12q-46 0 -74 -26t-28 -61q0 -30 15.5 -47t40.5 -28l77 -34q76 -33 110 -79t34 -108 q0 -39 -15.5 -76t-45 -66t-72 -47t-96.5 -21l-24 -115h-111l27 127q-42 12 -72.5 34.5t-49.5 50.5t-28 58t-9 59q0 10 0.5 17.5t1.5 13.5l122 21q-1 -5 -1.5 -12t-0.5 -14q0 -24 7.5 -46.5t23 -40t40 -27.5t58.5 -10q50 0 78.5 23t28.5 61q0 24 -12 43.5t-46 33.5l-84 35 q-66 28 -98 74.5t-32 107.5z" />
<glyph unicode="%" horiz-adv-x="867" d="M680 709h120l-589 -709h-120zM266 720q32 0 59 -11.5t47 -31.5t31 -47t11 -58q0 -39 -15.5 -72t-41 -56.5t-57.5 -36.5t-66 -13q-33 0 -60 11.5t-46.5 31t-30.5 46.5t-11 58q0 39 15 71.5t40 56.5t57.5 37.5t67.5 13.5zM242 487q27 0 50 21t23 59q0 26 -15.5 42.5 t-42.5 16.5t-49.5 -21t-22.5 -58q0 -26 15 -42.5t42 -17.5zM657 315q32 0 59 -11.5t47 -31.5t31 -46.5t11 -57.5q0 -40 -15.5 -73t-41 -56.5t-57.5 -36.5t-66 -13q-33 0 -60 11.5t-46.5 31.5t-30.5 46.5t-11 57.5q0 39 15 71.5t40 56.5t57.5 37.5t67.5 13.5zM633 82 q27 0 50 21.5t23 59.5q0 26 -15.5 42.5t-42.5 16.5t-49.5 -21.5t-22.5 -58.5q0 -26 15 -42.5t42 -17.5z" />
<glyph unicode="&#x26;" horiz-adv-x="687" d="M466 0l-51 74l-13 -11q-40 -34 -84 -52.5t-98 -18.5q-48 0 -85 15t-62.5 40.5t-39 57.5t-13.5 67q0 40 12 71t34 56.5t51.5 46.5t64.5 40l11 6l-8 12q-17 25 -33 58.5t-16 71.5q0 48 18 83.5t47.5 59t67 35.5t75.5 12q42 0 75.5 -13t57.5 -35t37 -51.5t13 -62.5 q0 -35 -12.5 -63t-32 -50.5t-45 -39.5t-50.5 -31l-25 -14l84 -120l215 182l-37 -174l-115 -98l108 -154h-151zM153 184q0 -31 22.5 -53.5t59.5 -22.5q28 0 55 13.5t53 35.5l9 7l-98 140l-26 -14q-38 -20 -56.5 -44t-18.5 -62zM333 468q37 20 52.5 42t15.5 45q0 26 -19 42.5 t-48 16.5q-12 0 -24.5 -4t-23.5 -13t-18 -23.5t-7 -34.5q0 -18 7.5 -34.5t16.5 -29.5l17 -24z" />
<glyph unicode="'" horiz-adv-x="228" d="M112 609q0 1 -0.5 10.5t-0.5 20.5q0 34 23 57t58 23q32 0 51 -18.5t19 -47.5q0 -10 -3 -21t-8 -21l-86 -177h-46z" />
<glyph unicode="(" horiz-adv-x="343" d="M40 206q0 201 82.5 352t243.5 259l60 -80q-58 -42 -108 -94.5t-86.5 -117t-57.5 -142t-21 -169.5q0 -90 26 -171t72 -150l-90 -59q-24 34 -46 76t-38.5 89t-26.5 99t-10 108z" />
<glyph unicode=")" horiz-adv-x="342" d="M316 439q0 -193 -85 -344t-242 -263l-61 79q57 44 107.5 97t88 118t59 142.5t21.5 169.5q0 88 -25.5 168.5t-72.5 147.5l90 59q51 -74 85.5 -168t34.5 -206z" />
<glyph unicode="*" horiz-adv-x="469" d="M344 582l123 38l15 -100l-125 -37l58 -98l-90 -60l-60 104l-96 -105l-74 62l98 103l-111 38l46 94l109 -39l22 127h110z" />
<glyph unicode="+" horiz-adv-x="577" d="M243 403v195h113v-195h189v-109h-189v-196h-113v196h-189v109h189z" />
<glyph unicode="," horiz-adv-x="287" d="M3 69q0 42 28.5 68t70.5 26t67 -27.5t25 -69.5q0 -48 -18 -90t-48.5 -73.5t-72 -50.5t-89.5 -22l14 68q18 2 37.5 10t36.5 21.5t30 31.5t18 39q-3 -2 -10 -3t-13 -1q-35 0 -55.5 21t-20.5 52z" />
<glyph unicode="-" horiz-adv-x="415" d="M49 238l25 118h291l-26 -118h-290z" />
<glyph unicode="." horiz-adv-x="275" d="M86 -6q-38 0 -60.5 24t-22.5 57q0 20 8 38.5t21.5 32t32.5 21.5t40 8q38 0 60.5 -24t22.5 -57q0 -21 -8 -39t-22 -31.5t-32.5 -21.5t-39.5 -8z" />
<glyph unicode="/" horiz-adv-x="534" d="M83 -15h-126l515 739h128z" />
<glyph unicode="0" horiz-adv-x="672" d="M305 -15q-68 0 -116 23.5t-78.5 61.5t-44.5 87.5t-14 102.5q0 46 8 98.5t25 104t43.5 98.5t64.5 83.5t87 58t111 21.5q69 0 117.5 -23.5t79 -61.5t44 -87.5t13.5 -101.5q0 -48 -8.5 -101t-26 -104.5t-44.5 -98.5t-65 -83t-86.5 -57t-109.5 -21zM188 261 q0 -68 29.5 -110.5t95.5 -42.5q54 0 91 36t60.5 89t33.5 112t10 106q0 33 -7 60t-22 47t-39 31t-58 11q-36 0 -64.5 -16.5t-50 -43.5t-36.5 -62.5t-24.5 -73t-14 -75t-4.5 -68.5z" />
<glyph unicode="1" horiz-adv-x="379" d="M111 0l103 492h-151l19 90q69 3 120.5 37.5t74.5 89.5h120l-149 -709h-137z" />
<glyph unicode="2" horiz-adv-x="610" d="M346 375q57 26 86.5 56.5t29.5 75.5q0 18 -5.5 35.5t-18.5 31t-33 21.5t-48 8q-64 0 -98 -42t-34 -114v-5l-129 13v4q0 55 18.5 103.5t53 84.5t84 56.5t112.5 20.5q60 0 104.5 -16t74 -44t43.5 -64.5t14 -77.5q0 -88 -50 -148t-136 -99l-152 -69q-26 -12 -51 -32.5 t-39 -52.5h356l-26 -121h-516l2 15q13 97 66.5 174t161.5 126z" />
<glyph unicode="3" horiz-adv-x="615" d="M206 440l230 150h-321l24 119h494l-28 -139l-217 -144q33 -4 62.5 -18.5t51.5 -38.5t35 -56.5t13 -72.5q0 -50 -19.5 -96t-56 -81t-87.5 -56.5t-114 -21.5q-62 0 -109.5 19.5t-79.5 51t-48.5 72.5t-16.5 84v10.5t1 12.5l135 15q-1 -7 -1 -12.5v-10.5q0 -25 8 -47 t23 -38.5t37 -26.5t51 -10q60 0 98 35t38 94q0 27 -10 47t-25.5 32.5t-36 18.5t-41.5 6q-23 0 -42 -7z" />
<glyph unicode="4" horiz-adv-x="654" d="M31 303l391 406h170l-94 -435h124l-25 -121h-124l-31 -153h-135l30 153h-338zM424 561l-274 -287h212z" />
<glyph unicode="5" horiz-adv-x="597" d="M15 213q0 4 1 6l130 24q-1 -5 -1 -9v-6q0 -24 7.5 -46t22.5 -39.5t38 -28t54 -10.5q26 0 51 9t44 26.5t30.5 43.5t11.5 60q0 52 -33 81t-84 29q-34 0 -59 -10t-44 -27l-118 62l148 331h393l-25 -119h-293l-69 -153q23 14 49.5 20t55.5 6q102 0 160.5 -54.5t58.5 -150.5 q0 -56 -20 -105.5t-56.5 -87t-88 -59t-114.5 -21.5q-57 0 -103.5 18t-79 49t-50 72.5t-17.5 88.5z" />
<glyph unicode="6" horiz-adv-x="638" d="M603 574q-58 28 -131 28q-95 0 -164.5 -51t-98.5 -145q26 30 68 47t90 17q51 0 91.5 -15t68.5 -42t43 -65t15 -84q0 -63 -22.5 -114.5t-61.5 -88t-90.5 -56.5t-109.5 -20q-52 0 -98 18.5t-80.5 53t-54.5 84.5t-20 113q0 93 29 178.5t83.5 150t133.5 103t178 38.5 q57 0 105.5 -11.5t79.5 -33.5zM327 357q-29 0 -54.5 -10t-44.5 -28.5t-30 -44t-11 -55.5q0 -51 33.5 -83.5t86.5 -32.5q27 0 51.5 9.5t44 27.5t31 44t11.5 60q0 51 -32 82t-86 31z" />
<glyph unicode="7" horiz-adv-x="567" d="M614 591q-17 -11 -47 -34t-66.5 -58.5t-78 -84t-82 -110.5t-76.5 -138t-63 -166h-145q24 92 60.5 170t77 141.5t82.5 112.5t77.5 84t61.5 55.5t34 26.5h-366l25 119h530z" />
<glyph unicode="8" horiz-adv-x="619" d="M549 204q0 -51 -22.5 -92t-60 -69t-88 -43t-105.5 -15t-100.5 13.5t-78 39t-50.5 61t-18 80.5q0 70 47.5 120.5t127.5 67.5q-18 8 -34.5 22t-29.5 33t-20.5 41t-7.5 46q0 49 20.5 88.5t55.5 67.5t83 43.5t102 15.5q57 0 100.5 -14.5t73.5 -39.5t45 -59t15 -72 q0 -64 -40.5 -113.5t-112.5 -69.5q23 -9 41.5 -24.5t31 -36t19 -44t6.5 -47.5zM344 413q54 0 87.5 31t33.5 78q0 34 -24.5 61t-74.5 27q-30 0 -53.5 -9t-39 -24t-23.5 -34.5t-8 -41.5q0 -34 25 -61t77 -27zM162 195q0 -45 33 -71t86 -26q29 0 53.5 9t42.5 24.5t28 36.5 t10 45q0 39 -28.5 68.5t-89.5 29.5q-30 0 -55 -9t-43 -25t-27.5 -37t-9.5 -45z" />
<glyph unicode="9" horiz-adv-x="640" d="M218 467q0 -51 31.5 -81.5t85.5 -30.5q29 0 54 10t43 28t28 43t10 55q0 52 -32.5 83t-83.5 31q-26 0 -50.5 -9t-43.5 -27t-30.5 -43.5t-11.5 -58.5zM63 148q34 -22 70.5 -31t73.5 -9q48 0 89.5 14.5t73.5 41t54 64t31 84.5q-24 -32 -63.5 -50.5t-91.5 -18.5 q-47 0 -87.5 15.5t-70 43.5t-46.5 67.5t-17 87.5q0 62 23 111.5t61.5 84t89.5 53t108 18.5q54 0 100.5 -17.5t80 -52t53 -84.5t19.5 -115q0 -105 -29 -191.5t-82.5 -148.5t-129 -96t-167.5 -34q-53 0 -106 13.5t-92 43.5z" />
<glyph unicode=":" horiz-adv-x="300" d="M95 -6q-37 0 -59 23.5t-22 56.5q0 19 8 37.5t21 31.5t31.5 21t39.5 8q37 0 59.5 -23.5t22.5 -56.5q0 -20 -8 -38t-22 -31t-32 -21t-39 -8zM164 321q-37 0 -59 23.5t-22 56.5q0 19 8 37.5t21 31.5t31.5 21t39.5 8q37 0 59.5 -23.5t22.5 -56.5q0 -20 -8 -38t-22 -31 t-32 -21t-39 -8z" />
<glyph unicode=";" horiz-adv-x="304" d="M12 66q0 40 27 65t67 25t64 -26.5t24 -66.5q0 -46 -17 -86t-46 -70t-69 -48t-85 -21l13 65q17 2 35.5 9.5t35 20.5t29 30t16.5 37q-3 -2 -9.5 -3t-12.5 -1q-33 0 -52.5 20t-19.5 50zM166 321q-37 0 -59 23.5t-22 56.5q0 19 8 37.5t21 31.5t31.5 21t39.5 8 q37 0 59.5 -23.5t22.5 -56.5q0 -20 -8 -38t-22 -31t-32 -21t-39 -8z" />
<glyph unicode="&#x3c;" horiz-adv-x="562" d="M52 398l430 218v-124l-296 -142l296 -144v-125l-430 217v100z" />
<glyph unicode="=" horiz-adv-x="655" d="M89 395v107h485v-107h-485zM89 196v108h485v-108h-485z" />
<glyph unicode="&#x3e;" horiz-adv-x="561" d="M532 298l-430 -217v123l296 143l-296 144v125l430 -217v-101z" />
<glyph unicode="?" horiz-adv-x="527" d="M179 214q0 24 5 50t17 50.5t32.5 47.5t53.5 41l56 32q31 17 45.5 41t14.5 52q0 29 -20.5 53t-67.5 24q-29 0 -50.5 -10.5t-35.5 -28.5t-21 -41.5t-7 -48.5l-124 14q1 49 19 92t50.5 74.5t77.5 49.5t101 18q54 0 94.5 -15t67.5 -40t40.5 -57t13.5 -65q0 -75 -39 -124.5 t-99 -83.5l-46 -27q-34 -20 -51 -42.5t-21 -55.5h-106zM138 63q0 36 25.5 62t62.5 26q32 0 51.5 -21t19.5 -50q0 -18 -7.5 -34t-19.5 -28t-27.5 -19t-31.5 -7q-32 0 -52.5 20.5t-20.5 50.5z" />
<glyph unicode="@" horiz-adv-x="833" d="M462 -48q-88 0 -161.5 27.5t-127 77t-83.5 119.5t-30 155q0 87 31 159.5t84.5 124.5t125 81t152.5 29q77 0 143 -25t114 -69t75.5 -104.5t27.5 -130.5q0 -57 -17.5 -104.5t-46 -81t-65.5 -52.5t-76 -19t-63 18t-32 42q-19 -30 -51 -46t-65 -16t-60.5 12.5t-48 35.5 t-32 55t-11.5 70q0 49 16 90.5t43 71.5t62.5 46.5t75.5 16.5q29 0 57 -13t40 -42l8 42h95l-52 -245q-1 -3 -2 -8.5t-1 -10.5q0 -13 8 -22.5t24 -9.5q18 0 36 13t32 35.5t22.5 53.5t8.5 67q0 53 -19.5 97t-54 75.5t-83.5 49t-107 17.5q-63 0 -116.5 -21.5t-92.5 -61.5 t-61.5 -95.5t-22.5 -122.5q0 -62 20.5 -115.5t59 -92.5t94.5 -61.5t127 -22.5q48 0 95 13.5t89 45.5l48 -68q-20 -18 -48 -33t-59 -25.5t-63 -16t-62 -5.5zM517 366q0 36 -17.5 57.5t-50.5 21.5q-23 0 -41.5 -10.5t-31.5 -27.5t-20.5 -40t-7.5 -48q0 -40 16.5 -66t54.5 -26 q42 0 69 39.5t29 99.5z" />
<glyph unicode="A" horiz-adv-x="706" d="M467 162h-274l-91 -162h-155l415 709h158l113 -709h-143zM264 288h185l-37 266z" />
<glyph unicode="B" horiz-adv-x="617" d="M406 709q47 0 82.5 -12.5t59 -35t35.5 -53t12 -66.5q0 -31 -10.5 -60.5t-28.5 -54t-43 -42.5t-55 -26q18 -6 35 -18t30.5 -30t22 -41.5t8.5 -51.5q0 -48 -18 -88t-51 -69t-78 -45t-99 -16h-287l150 709h235zM337 416q54 0 86.5 28.5t32.5 75.5q0 34 -22.5 53.5 t-68.5 19.5h-83l-38 -177h93zM289 115q56 0 92 29.5t36 79.5q0 35 -22.5 56.5t-71.5 21.5h-103l-39 -187h108z" />
<glyph unicode="C" horiz-adv-x="729" d="M440 724q72 0 124.5 -20.5t88.5 -53.5t56.5 -74t27.5 -81l-134 -40q-5 24 -17 48.5t-33 44.5t-51 32.5t-72 12.5q-48 0 -90.5 -20t-74.5 -57t-51 -88t-19 -114q0 -44 12.5 -80t36.5 -62t58 -40.5t77 -14.5q38 0 68 11.5t52.5 30t39 42.5t27.5 49l124 -50 q-16 -39 -43.5 -77.5t-67 -69.5t-92.5 -50t-120 -19q-70 0 -127.5 24t-99 67t-64 102t-22.5 129q0 100 33 177.5t87 131t123.5 81.5t142.5 28z" />
<glyph unicode="D" horiz-adv-x="717" d="M313 130q43 0 85 18.5t75 53.5t53.5 85.5t20.5 113.5q0 83 -44 131.5t-135 48.5h-88l-96 -451h129zM21 0l149 709h210q72 0 129.5 -21.5t97 -60t60.5 -93t21 -120.5q0 -101 -32 -178t-85 -129.5t-121.5 -79.5t-141.5 -27h-287z" />
<glyph unicode="E" horiz-adv-x="577" d="M21 0l150 709h442l-28 -130h-303l-35 -162h275l-26 -123h-275l-35 -164h304l-27 -130h-442z" />
<glyph unicode="F" horiz-adv-x="570" d="M21 0l150 709h446l-28 -131h-308l-37 -175h274l-26 -127h-274l-59 -276h-138z" />
<glyph unicode="G" horiz-adv-x="765" d="M429 594q-47 0 -89.5 -19.5t-74.5 -56t-51 -88.5t-19 -116q0 -45 12 -82t35.5 -64t57.5 -41.5t78 -14.5q76 0 127 38.5t69 98.5h-220l25 120h348l-77 -369h-106l3 73q-31 -39 -79.5 -62.5t-111.5 -23.5q-67 0 -122.5 23t-95.5 65t-62 100.5t-22 130.5q0 100 32.5 177.5 t86.5 131t123.5 81.5t143.5 28q72 0 125 -19.5t89.5 -51.5t57.5 -72t28 -80l-135 -40q-5 24 -17 48t-33.5 42.5t-52.5 30.5t-73 12z" />
<glyph unicode="H" horiz-adv-x="729" d="M444 0l62 294h-285l-62 -294h-138l150 709h138l-60 -285h285l60 285h139l-150 -709h-139z" />
<glyph unicode="I" horiz-adv-x="307" d="M21 0l150 709h140l-150 -709h-140z" />
<glyph unicode="J" horiz-adv-x="550" d="M560 709l-109 -512q-10 -48 -31.5 -87t-52.5 -66.5t-71 -43t-87 -15.5q-50 0 -88.5 14.5t-65 41t-40.5 62.5t-14 78q0 14 1 30.5t5 33.5l6 26l135 19l-11 -55q-2 -8 -3 -16.5t-1 -16.5q0 -36 20 -61.5t63 -25.5q39 0 64 26.5t34 70.5l106 497h140z" />
<glyph unicode="K" horiz-adv-x="681" d="M304 294l-103 -93l-42 -201h-138l150 709h138l-63 -299l332 299h190l-355 -318l205 -391h-162z" />
<glyph unicode="L" horiz-adv-x="544" d="M21 0l150 709h138l-122 -577h308l-28 -132h-446z" />
<glyph unicode="M" horiz-adv-x="950" d="M668 0l104 494l-301 -494h-109l-105 488l-104 -488h-132l150 709h169l112 -509l305 509h197l-150 -709h-136z" />
<glyph unicode="N" horiz-adv-x="753" d="M469 0l-205 501l-106 -501h-137l150 709h159l188 -473l101 473h138l-150 -709h-138z" />
<glyph unicode="O" horiz-adv-x="778" d="M54 302q0 101 32.5 179.5t85.5 132.5t122 82t141 28q71 0 128.5 -23t98.5 -64.5t63.5 -100t22.5 -129.5q0 -101 -32.5 -179.5t-85.5 -132.5t-121.5 -82t-140.5 -28q-71 0 -128.5 23t-99 65t-64 100t-22.5 129zM606 399q0 90 -47.5 142t-131.5 52q-50 0 -92 -22 t-73.5 -60.5t-49 -89.5t-17.5 -109q0 -90 49 -142t130 -52q48 0 89.5 20.5t73 57.5t50 89t19.5 114z" />
<glyph unicode="P" horiz-adv-x="599" d="M402 709q48 0 87 -14.5t67 -40.5t43.5 -62t15.5 -79q0 -57 -20.5 -102t-56.5 -76.5t-86.5 -48.5t-110.5 -17h-125l-57 -269h-138l150 709h231zM285 589l-44 -201h99q57 0 95 29t38 86q0 38 -24.5 62t-78.5 24h-85z" />
<glyph unicode="Q" horiz-adv-x="778" d="M54 302q0 101 32.5 179.5t85.5 132.5t122 82t141 28q71 0 128.5 -23t98.5 -64.5t63.5 -100t22.5 -129.5q0 -106 -35.5 -186.5t-92.5 -134.5l71 -101l-104 -67l-70 99q-72 -32 -149 -32q-71 0 -128.5 23t-99 65t-64 100t-22.5 129zM444 338l96 -138q29 38 47.5 88 t18.5 111q0 90 -47.5 142t-131.5 52q-50 0 -92 -22t-73.5 -60.5t-49 -89.5t-17.5 -109q0 -90 49 -142t130 -52q35 0 65 10l-100 142z" />
<glyph unicode="R" horiz-adv-x="638" d="M307 274h-90l-58 -274h-138l150 709h247q49 0 87 -14t64 -38t39 -57.5t13 -72.5q0 -45 -13.5 -83t-37 -68t-56 -51t-71.5 -33l110 -292h-147zM348 394q60 0 96 31.5t36 83.5q0 36 -22.5 58t-70.5 22h-103l-42 -195h106z" />
<glyph unicode="S" horiz-adv-x="600" d="M282 105q51 0 80 24.5t30 62.5q0 25 -13.5 45t-46.5 34l-86 38q-68 30 -102.5 77t-34.5 113q0 50 20 91t54 70.5t80 46t97 16.5q70 0 116.5 -21.5t74.5 -53t39 -67t11 -63.5l-129 -22q0 10 -3.5 28t-15.5 35.5t-35.5 30.5t-63.5 13q-24 0 -43.5 -7.5t-33.5 -20 t-21.5 -28.5t-7.5 -34q0 -29 16 -48t40 -30l82 -36q79 -35 113.5 -83.5t34.5 -112.5q0 -42 -17 -81t-49 -69.5t-78.5 -49t-105.5 -18.5q-74 0 -124.5 22.5t-82.5 56.5t-46 75t-14 78v9.5t2 11.5l129 22q-1 -7 -1 -11v-10q0 -25 7.5 -48.5t24 -42.5t42 -30.5t61.5 -12.5z" />
<glyph unicode="T" horiz-adv-x="592" d="M429 578l-122 -578h-138l122 578h-215l28 131h559l-28 -131h-206z" />
<glyph unicode="U" horiz-adv-x="688" d="M698 709l-103 -485q-12 -59 -38.5 -103.5t-63 -74.5t-82.5 -45.5t-98 -15.5q-56 0 -102 16t-78.5 45.5t-50.5 71.5t-18 94q0 31 8 69l90 428h138l-91 -434q-2 -12 -3.5 -23t-1.5 -22q0 -50 28.5 -80.5t91.5 -30.5q110 0 137 128l97 462h140z" />
<glyph unicode="V" horiz-adv-x="677" d="M310 180l288 529h155l-407 -709h-141l-107 709h142z" />
<glyph unicode="W" horiz-adv-x="1017" d="M659 709l54 -492l222 492h147l-336 -709h-139l-55 505l-256 -505h-145l-47 709h138l27 -490l247 490h143z" />
<glyph unicode="X" horiz-adv-x="646" d="M118 0h-173l311 358l-161 351h157l104 -235l198 235h172l-312 -360l162 -349h-159l-103 233z" />
<glyph unicode="Y" horiz-adv-x="636" d="M94 709h146l101 -278l197 278h166l-315 -412l-63 -297h-138l63 299z" />
<glyph unicode="Z" horiz-adv-x="630" d="M-21 0l28 133l448 445h-344l28 131h530l-27 -128l-455 -450h364l-28 -131h-544z" />
<glyph unicode="[" horiz-adv-x="323" d="M-30 -164l206 974h231l-21 -101h-122l-163 -770h121l-22 -103h-230z" />
<glyph unicode="\" horiz-adv-x="528" d="M113 724h114l214 -739h-114z" />
<glyph unicode="]" horiz-adv-x="323" d="M-72 -164l22 103h121l163 770h-121l21 101h231l-207 -974h-230z" />
<glyph unicode="^" horiz-adv-x="573" d="M355 709l198 -358h-125l-123 231l-123 -231h-127l198 358h102z" />
<glyph unicode="_" horiz-adv-x="544" d="M-58 0h511v-109h-511v109z" />
<glyph unicode="`" horiz-adv-x="278" d="M3 701h148l58 -150h-103z" />
<glyph unicode="a" horiz-adv-x="590" d="M290 385q-32 0 -56 -15.5t-40.5 -39.5t-25 -54.5t-8.5 -60.5q0 -51 25.5 -80t70.5 -29q25 0 48.5 12t41 34.5t28 54.5t10.5 73q0 49 -24.5 77t-69.5 28zM563 492l-81 -384q-5 -22 -7 -45t-2 -44v-7.5t1 -11.5h-123q-1 6 -1 12v11q0 8 0.5 18t1.5 19q-17 -26 -49.5 -47.5 t-82.5 -21.5q-45 0 -81 17t-60.5 47t-37.5 70t-13 85q0 63 19 116.5t53 93t80 62t99 22.5q34 0 59 -7t42 -17.5t27 -22t15 -21.5l12 56h129z" />
<glyph unicode="b" horiz-adv-x="601" d="M4 0l152 724h131l-57 -272q20 23 55 37t77 14q48 0 84 -16t60 -44t36 -65.5t12 -80.5q0 -68 -19.5 -124.5t-54 -97.5t-82 -64t-102.5 -23q-58 0 -96.5 25.5t-51.5 55.5l-15 -69h-129zM316 386q-28 0 -52.5 -13t-42.5 -35.5t-28 -53t-10 -65.5q0 -53 28 -83t72 -30 q24 0 48 11t44 32t32.5 53t12.5 74q0 55 -29 82.5t-75 27.5z" />
<glyph unicode="c" horiz-adv-x="546" d="M398 306q-6 31 -30.5 55.5t-71.5 24.5q-24 0 -48.5 -10.5t-44 -31.5t-31.5 -52t-12 -73q0 -54 30 -83.5t79 -29.5q44 0 70.5 22t40.5 50l110 -43q-13 -29 -34 -56t-49.5 -48t-65 -33.5t-80.5 -12.5q-50 0 -93 16.5t-74 47t-48.5 73t-17.5 94.5q0 66 22.5 119.5t61 92 t88.5 59t105 20.5q50 0 87.5 -14.5t63.5 -38t41 -53t21 -59.5z" />
<glyph unicode="d" horiz-adv-x="590" d="M482 108q-5 -23 -7.5 -46.5t-3.5 -40.5v-12.5t1 -8.5h-121q-1 7 -1 13v12q0 8 0.5 17.5t1.5 17.5q-17 -26 -49.5 -47.5t-82.5 -21.5q-45 0 -81 17.5t-60.5 47t-37.5 69t-13 85.5q0 63 19 116.5t53 93t80 62t99 22.5q31 0 54.5 -6t40.5 -15.5t28 -21t17 -21.5l60 284h133z M290 385q-32 0 -56 -15.5t-40.5 -39.5t-25 -54.5t-8.5 -60.5q0 -51 25.5 -80t70.5 -29q25 0 48.5 12t41 34.5t28 54.5t10.5 73q0 49 -24.5 77t-69.5 28z" />
<glyph unicode="e" horiz-adv-x="548" d="M381 302q1 5 1 7.5v4.5q0 14 -5 29t-16 27.5t-28.5 20.5t-43.5 8q-51 0 -81.5 -28.5t-42.5 -68.5h216zM151 210q0 -48 28 -81t82 -33q41 0 68.5 19t41.5 45l102 -51q-12 -24 -31.5 -46.5t-47 -39.5t-63 -27.5t-78.5 -10.5q-46 0 -87 16t-72 45.5t-49 71.5t-18 94 q0 68 22.5 122.5t60 93t84.5 59t97 20.5q51 0 91.5 -15.5t68 -43t42 -65.5t14.5 -83q0 -22 -4 -45.5t-10 -43.5z" />
<glyph unicode="f" horiz-adv-x="369" d="M263 379l-80 -379h-134l80 379h-83l24 113h84l17 80q10 45 29 75.5t44.5 49t56 26.5t62.5 8q26 0 48.5 -5.5t32.5 -11.5l-23 -109q0 -1 -11.5 4t-33.5 5q-30 0 -50 -16.5t-28 -51.5l-11 -54h104l-24 -113h-104z" />
<glyph unicode="g" horiz-adv-x="592" d="M387 288q0 41 -25 69t-71 28q-27 0 -50 -10.5t-40.5 -29t-27 -45.5t-9.5 -60q0 -45 26 -73t73 -28q25 0 48 10t39.5 29.5t26.5 47t10 62.5zM90 6q0 -19 6.5 -36.5t19.5 -30.5t33 -21t47 -8q57 0 91.5 34.5t50.5 99.5l8 33q-14 -19 -44 -34t-72 -15q-46 0 -83 15.5 t-62.5 43t-39.5 64.5t-14 81q0 56 18.5 105.5t51.5 86t78.5 57.5t99.5 21q59 0 95 -20t50 -46l12 56h130l-94 -449q-11 -50 -32 -95t-55 -79t-81 -54t-109 -20q-57 0 -99.5 16.5t-70 43.5t-41 60.5t-13.5 66.5z" />
<glyph unicode="h" horiz-adv-x="570" d="M313 0l61 285q3 15 3 29q0 33 -19 53t-56 20q-43 0 -69 -30.5t-35 -71.5l-62 -285h-132l153 724h133l-57 -272q24 28 58.5 40.5t70.5 12.5q37 0 66 -11.5t48.5 -32.5t29.5 -49.5t10 -61.5q0 -25 -6 -52l-64 -298h-133z" />
<glyph unicode="i" horiz-adv-x="266" d="M126 648q0 37 26.5 63t63.5 26q33 0 53.5 -21t20.5 -51q0 -20 -7.5 -36t-20.5 -28t-29 -18.5t-34 -6.5q-32 0 -52.5 20.5t-20.5 51.5zM4 0l105 492h132l-105 -492h-132z" />
<glyph unicode="j" horiz-adv-x="266" d="M109 492h132l-118 -554q-15 -72 -59 -107.5t-106 -35.5q-36 0 -59 8.5t-30 13.5l22 104q1 0 13.5 -4.5t32.5 -4.5q24 1 39 14t20 42zM126 648q0 37 26.5 63t63.5 26q33 0 53.5 -21t20.5 -51q0 -20 -7.5 -36t-20.5 -28t-29 -18.5t-34 -6.5q-32 0 -52.5 20.5t-20.5 51.5z " />
<glyph unicode="k" horiz-adv-x="553" d="M239 197l-75 -64l-28 -133h-132l153 724h133l-86 -404l196 172h185l-245 -209l140 -283h-149z" />
<glyph unicode="l" horiz-adv-x="265" d="M4 0l153 724h133l-154 -724h-132z" />
<glyph unicode="m" horiz-adv-x="864" d="M307 0l61 289q3 13 3 27q0 31 -18 51.5t-55 20.5q-41 0 -65 -27.5t-33 -71.5l-63 -289h-132l86 408q8 35 9 57t1 27h129q0 -5 -0.5 -19t-2.5 -29q24 31 59.5 46t74.5 15q48 0 80.5 -20.5t49.5 -53.5q18 23 39 37.5t42 22.5t41.5 11t38.5 3q35 0 64 -11t50 -31.5 t32.5 -49.5t11.5 -65q0 -11 -1.5 -23t-3.5 -24l-65 -301h-132l62 289q3 13 3 26q0 32 -18 52.5t-56 20.5q-40 0 -64.5 -28t-33.5 -70l-62 -290h-132z" />
<glyph unicode="n" horiz-adv-x="571" d="M314 0l61 285q3 15 3 29q0 33 -19 53t-56 20q-43 0 -69 -30.5t-35 -71.5l-62 -285h-132l86 408q8 35 9 57t1 27h129q0 -6 -0.5 -20.5t-2.5 -29.5q24 34 62 48.5t76 14.5q74 0 113 -44t39 -111q0 -25 -6 -52l-64 -298h-133z" />
<glyph unicode="o" horiz-adv-x="575" d="M293 386q-29 0 -53 -12.5t-42 -35t-28 -53t-10 -65.5q0 -54 28 -84t73 -30q23 0 47 10.5t43 31t31 52t12 73.5q0 54 -27.5 83.5t-73.5 29.5zM527 278q0 -60 -20.5 -113t-57 -93t-87 -63.5t-110.5 -23.5q-51 0 -93 18t-71 48.5t-45 72.5t-16 90q0 65 21.5 119t59 92.5 t88 60t107.5 21.5q52 0 94 -18t70.5 -48.5t44 -72.5t15.5 -90z" />
<glyph unicode="p" horiz-adv-x="603" d="M319 386q-29 0 -53.5 -13t-42.5 -35.5t-28 -53t-10 -65.5q0 -56 28.5 -84.5t72.5 -28.5q24 0 48 11t43.5 32t31.5 53t12 74q0 54 -28.5 82t-73.5 28zM227 441q21 27 57.5 44t80.5 17q47 0 82.5 -15.5t59.5 -43.5t36 -65.5t12 -80.5q0 -68 -19.5 -124.5t-53.5 -97.5 t-81 -64t-102 -23q-56 0 -95 21t-56 50l-52 -249h-132l127 598q8 35 9 57t1 27h129q0 -5 -0.5 -21t-2.5 -30z" />
<glyph unicode="q" horiz-adv-x="589" d="M419 -191h-132l48 227q-20 -20 -48 -32.5t-65 -12.5q-45 0 -81 17.5t-61 47.5t-38.5 69.5t-13.5 84.5q0 63 19 116.5t53 93t80 62t99 22.5q34 0 58.5 -7t42 -17t28 -22t15.5 -21l12 55h129zM290 384q-32 0 -56 -15t-40.5 -39t-25 -54.5t-8.5 -60.5q0 -51 26.5 -80 t72.5 -29q25 0 48 11.5t40.5 34t28 54t10.5 72.5q0 51 -25 78.5t-71 27.5z" />
<glyph unicode="r" horiz-adv-x="383" d="M376 357q-12 3 -24 5t-24 2q-22 0 -44 -6.5t-40.5 -22t-33.5 -42t-24 -66.5l-49 -227h-132l86 408q8 35 9.5 57t1.5 27h129q0 -7 -1 -26.5t-5 -34.5q20 28 52 46t85 18q13 0 23.5 -1t18.5 -3z" />
<glyph unicode="s" horiz-adv-x="458" d="M117 171q-1 -4 -1 -9q0 -32 21 -54.5t57 -22.5q32 0 46.5 15t14.5 34q0 14 -7.5 26t-29.5 22l-55 24q-57 24 -81 58.5t-24 79.5q0 33 13.5 62.5t38 52t59.5 35.5t77 13q55 0 90 -15.5t55.5 -39t28.5 -49.5t9 -47l-115 -18q0 12 -3.5 24t-11.5 22.5t-22 17t-35 6.5 q-26 0 -42.5 -14.5t-16.5 -34.5q0 -29 31 -42l63 -27q57 -25 83 -62t26 -82q0 -28 -11.5 -56.5t-35.5 -52t-59.5 -38t-83.5 -14.5q-62 0 -99.5 18.5t-58 44.5t-27.5 54.5t-7 48.5z" />
<glyph unicode="t" horiz-adv-x="371" d="M209 -6q-65 0 -101.5 34t-36.5 93q0 20 4 39l46 214h-87l25 118h20q43 0 65.5 21t30.5 59l15 67h120l-32 -147h96l-25 -118h-96l-43 -205q-3 -11 -3 -20q0 -23 14 -32.5t39 -9.5q10 0 19.5 1t15.5 3l-23 -106q-5 -2 -21 -6.5t-42 -4.5z" />
<glyph unicode="u" horiz-adv-x="566" d="M235 492l-57 -266q-7 -31 -7 -47q0 -33 18 -53.5t56 -20.5q42 0 66.5 29.5t33.5 71.5l62 286h132l-82 -392q-6 -27 -8.5 -48.5t-2.5 -40.5v-11h-127q-1 5 -1 11.5v9.5v12.5t1 17.5q-20 -31 -54.5 -47t-68.5 -16q-39 0 -69.5 12t-50.5 34t-30.5 51t-10.5 64q0 14 2 30 t8 43l58 270h132z" />
<glyph unicode="v" horiz-adv-x="534" d="M273 0h-132l-87 492h137l43 -329l176 329h148z" />
<glyph unicode="w" horiz-adv-x="822" d="M517 492l38 -315l151 315h138l-253 -492h-131l-42 335l-174 -335h-136l-48 492h129l25 -314l163 314h140z" />
<glyph unicode="x" horiz-adv-x="533" d="M110 0h-160l233 252l-128 240h145l71 -144l126 144h162l-230 -248q7 -12 26 -47t40 -75t40 -75t26 -47h-146l-74 148z" />
<glyph unicode="y" horiz-adv-x="526" d="M-28 -190l170 268l-108 414h140l66 -276l166 276h149l-436 -682h-147z" />
<glyph unicode="z" horiz-adv-x="493" d="M-20 0l25 118l283 259h-220l24 115h395l-24 -112l-292 -265h241l-24 -115h-408z" />
<glyph unicode="{" horiz-adv-x="365" d="M31 382q42 0 76.5 20.5t45.5 71.5l30 144q11 54 30.5 90.5t47.5 59t64.5 32.5t81.5 10h41l-21 -101h-30q-41 0 -67 -19t-37 -70l-36 -168q-11 -49 -42 -83.5t-84 -43.5q35 -11 54.5 -37.5t19.5 -64.5q0 -15 -3 -31l-33 -153q-3 -17 -3 -31q0 -35 19.5 -50t53.5 -15h25 l-21 -101h-29q-76 0 -118 37.5t-42 108.5q0 28 7 57l29 134q3 13 3 26q0 36 -25 50.5t-60 14.5z" />
<glyph unicode="|" horiz-adv-x="246" d="M-29 -158l205 968h112l-206 -968h-111z" />
<glyph unicode="}" horiz-adv-x="364" d="M346 269q-20 0 -39.5 -4.5t-35.5 -15t-28 -28t-18 -43.5l-31 -143q-23 -102 -81 -147.5t-149 -45.5h-35l22 101h28q41 0 68 22.5t38 70.5l36 168q10 48 41.5 80.5t84.5 43.5q-37 10 -56 36.5t-19 61.5q0 15 3 30l34 162q3 18 3 31q0 33 -18.5 46.5t-52.5 13.5h-27l21 101 h32q72 0 114.5 -35.5t42.5 -106.5q0 -26 -6 -56l-31 -138q-3 -14 -3 -26q0 -37 24.5 -52t61.5 -15z" />
<glyph unicode="~" horiz-adv-x="627" d="M576 308q-28 -51 -70.5 -77.5t-93.5 -26.5q-26 0 -53 7t-54 22l-47 26q-25 13 -51 13t-48.5 -13.5t-39.5 -38.5l-74 59q28 50 70.5 77.5t93.5 27.5q25 0 52.5 -7t53.5 -21l47 -26q25 -14 50 -14q56 0 91 51z" />
<glyph unicode="&#xa1;" horiz-adv-x="263" d="M106 -210h-161l136 493h97zM235 436q0 -36 -25.5 -62t-61.5 -26q-33 0 -52.5 21t-19.5 50q0 18 7 34t19 28t27.5 19t32.5 7q32 0 52.5 -20.5t20.5 -50.5z" />
<glyph unicode="&#xa2;" horiz-adv-x="562" d="M327 495q-26 0 -51 -10.5t-44.5 -31.5t-32 -52t-12.5 -71q0 -52 30 -82t81 -30q41 0 69.5 21t43.5 52l108 -42q-13 -29 -33 -56t-47.5 -48t-62.5 -34.5t-77 -15.5l-19 -95h-101l23 110q-33 12 -59.5 32.5t-46 48.5t-30 62.5t-10.5 73.5q0 62 20.5 113t55 88.5t80 60.5 t95.5 28l20 92h101l-21 -101q32 -9 56.5 -25t42.5 -37t28.5 -45.5t15.5 -49.5l-120 -34q-6 30 -30.5 54t-72.5 24z" />
<glyph unicode="&#xa3;" horiz-adv-x="648" d="M153 393q-5 26 -8.5 52.5t-3.5 52.5q0 49 16.5 90t47 71t73 46.5t94.5 16.5q54 0 94 -16.5t66 -43t39 -59.5t13 -65q0 -8 -0.5 -15.5t-1.5 -10.5l-119 -12q1 5 1.5 10.5t0.5 9.5q0 39 -25.5 64.5t-70.5 25.5q-47 0 -75.5 -31.5t-28.5 -86.5q0 -23 3.5 -48t7.5 -51h189 l-21 -100h-162q-2 -52 -27.5 -102t-75.5 -75h192q46 0 74.5 24.5t35.5 65.5l112 -22q-14 -84 -70 -134t-146 -50h-383l25 113q30 8 55 25t43 41t28.5 53t12.5 61h-99l20 100h74z" />
<glyph unicode="&#xa4;" horiz-adv-x="655" d="M123 349q0 29 8 56.5t22 50.5l-72 74l80 80l74 -76q23 13 49.5 20t55.5 7q55 0 102 -25l73 74l81 -80l-71 -72q31 -50 31 -109q0 -31 -8 -58.5t-22 -50.5l70 -71l-80 -80l-72 73q-47 -26 -104 -26q-58 0 -106 28l-74 -75l-79 80l71 72q-14 24 -21.5 51t-7.5 57zM235 349 q0 -47 29.5 -76t75.5 -29q45 0 74.5 29t29.5 76q0 46 -29.5 75t-74.5 29q-46 0 -75.5 -29t-29.5 -75z" />
<glyph unicode="&#xa5;" horiz-adv-x="668" d="M364 152l-31 -152h-132l33 152h-175l20 94h174l15 67h-175l20 95h113l-111 301h142l98 -287l215 287h150l-239 -301h122l-20 -95h-185l-14 -67h186l-21 -94h-185z" />
<glyph unicode="&#xa6;" horiz-adv-x="258" d="M98 412l84 398h112l-85 -398h-111zM-23 -158l84 398h112l-85 -398h-111z" />
<glyph unicode="&#xa7;" horiz-adv-x="531" d="M117 11q-4 -15 -4 -30q0 -36 22 -55.5t59 -19.5q32 0 56.5 20.5t24.5 55.5t-30 56l-91 63q-44 29 -75 66.5t-31 90.5q0 30 9.5 53.5t24.5 41t34 29.5t39 20q-26 26 -38 57.5t-12 63.5q0 46 20 83.5t52 63.5t72 40t81 14q49 0 86 -13.5t62 -37t38 -54.5t13 -67 q0 -16 -3 -34l-128 -9q2 5 2.5 13t0.5 16q0 36 -22 55t-58 19q-32 0 -56.5 -21t-24.5 -55q0 -15 8 -29.5t23 -25.5l89 -63q22 -15 41.5 -31.5t34 -35t23 -40.5t8.5 -48q0 -31 -9.5 -55t-24.5 -42t-34.5 -30.5t-38.5 -19.5q26 -25 38 -55.5t12 -60.5q0 -48 -19.5 -86 t-51.5 -64.5t-72.5 -40.5t-82.5 -14q-48 0 -85 13.5t-62 36.5t-38 54.5t-13 66.5q0 16 3 36zM221 352q-21 -11 -33.5 -28.5t-12.5 -40.5q0 -16 6.5 -29t23.5 -24l89 -64q20 11 33 28.5t13 41.5q0 32 -30 53z" />
<glyph unicode="&#xa8;" horiz-adv-x="387" d="M-13 621q0 15 6 29t16.5 25t25 17.5t30.5 6.5q29 0 46.5 -19.5t17.5 -45.5q0 -17 -7 -30.5t-18 -24t-25 -16t-29 -5.5q-28 0 -45.5 18.5t-17.5 44.5zM197 621q0 15 6 29t16.5 25t25 17.5t30.5 6.5q29 0 46.5 -19.5t17.5 -45.5q0 -17 -7 -30.5t-18 -24t-25 -16t-29 -5.5 q-28 0 -45.5 18.5t-17.5 44.5z" />
<glyph unicode="&#xa9;" horiz-adv-x="836" d="M61 354q0 76 29 144t78.5 118t116.5 79.5t144 29.5q76 0 143.5 -29.5t118 -79.5t79.5 -118t29 -144t-29 -143.5t-79.5 -117.5t-118 -79.5t-143.5 -29.5q-77 0 -144 29.5t-116.5 79.5t-78.5 117.5t-29 143.5zM146 354q0 -61 22 -114t60 -92.5t89.5 -62t111.5 -22.5 t111.5 22.5t89.5 62t60 92.5t22 114t-22 114.5t-60 93t-89.5 62t-111.5 22.5t-111.5 -22.5t-89.5 -62t-60 -93t-22 -114.5zM523 400q-5 24 -24 43t-55 19q-19 0 -37.5 -8t-33.5 -24t-24 -40t-9 -56q0 -42 23 -64.5t61 -22.5q33 0 54 16.5t32 38.5l81 -33 q-10 -22 -25.5 -42.5t-37.5 -36.5t-49.5 -25.5t-60.5 -9.5q-40 0 -72.5 13.5t-56 37.5t-36 56t-12.5 69q0 50 17 91t46 70t67 44.5t80 15.5q38 0 66.5 -11t48 -29t31 -40.5t16.5 -44.5z" />
<glyph unicode="&#xaa;" horiz-adv-x="450" d="M272 625q-21 0 -36.5 -9.5t-26 -25.5t-15.5 -35.5t-5 -38.5q0 -35 17.5 -53.5t45.5 -18.5q31 0 56.5 28t25.5 84q0 34 -17 51.5t-45 17.5zM469 708l-59 -274q-3 -12 -5 -26.5t-2 -29.5v-7.5t1 -8.5h-93q-1 5 -1 9v6q0 12 3 26q-11 -16 -33 -31.5t-58 -15.5q-32 0 -57 12 t-42 33t-26.5 49.5t-9.5 60.5q0 45 13.5 83t37.5 65t56 42.5t69 15.5q25 0 42.5 -5t29 -12.5t17.5 -15t9 -13.5l9 37h99z" />
<glyph unicode="&#xab;" horiz-adv-x="554" d="M131 101l-100 197l176 194h133l-185 -202l96 -189h-120zM350 101l-100 197l176 194h133l-185 -202l96 -189h-120z" />
<glyph unicode="&#xac;" horiz-adv-x="632" d="M445 189v195h-374v111h489v-306h-115z" />
<glyph unicode="&#xad;" horiz-adv-x="415" d="M49 238l25 118h291l-26 -118h-290z" />
<glyph unicode="&#xae;" horiz-adv-x="836" d="M61 354q0 76 29 144t78.5 118t116.5 79.5t144 29.5q76 0 143.5 -29.5t118 -79.5t79.5 -118t29 -144t-29 -143.5t-79.5 -117.5t-118 -79.5t-143.5 -29.5q-77 0 -144 29.5t-116.5 79.5t-78.5 117.5t-29 143.5zM146 354q0 -61 22 -114t60 -92.5t89.5 -62t111.5 -22.5 t111.5 22.5t89.5 62t60 92.5t22 114t-22 114.5t-60 93t-89.5 62t-111.5 22.5t-111.5 -22.5t-89.5 -62t-60 -93t-22 -114.5zM450 370q30 0 51 17t21 48q0 42 -50 42h-41l-24 -107h43zM421 294h-30l-29 -139h-94l85 399h145q27 0 48.5 -9t37 -24.5t24 -36t8.5 -43.5 q0 -50 -29 -87t-77 -51l52 -146h-97z" />
<glyph unicode="&#xaf;" horiz-adv-x="317" d="M-23 577l21 97h281l-20 -97h-282z" />
<glyph unicode="&#xb0;" horiz-adv-x="398" d="M269 724q32 0 59 -11.5t47 -31.5t31 -47t11 -58q0 -39 -15.5 -72t-41 -56.5t-57.5 -36.5t-66 -13q-33 0 -60 11.5t-46.5 31t-30.5 46.5t-11 58q0 39 15 71.5t40 56.5t57.5 37.5t67.5 13.5zM245 491q27 0 50 21t23 59q0 26 -15.5 42.5t-42.5 16.5t-49.5 -21t-22.5 -58 q0 -26 15 -42.5t42 -17.5z" />
<glyph unicode="&#xb1;" horiz-adv-x="621" d="M254 475v123h113v-123h178v-109h-178v-122h-113v122h-178v109h178zM545 206v-109h-469v109h469z" />
<glyph unicode="&#xb2;" horiz-adv-x="356" d="M237 545q47 20 47 51q0 13 -8.5 26t-31.5 13q-27 0 -40.5 -17t-13.5 -46l-92 6q0 30 10.5 55t30 43.5t47 29t61.5 10.5q70 0 104.5 -33.5t34.5 -78.5t-29 -77t-77 -52l-76 -32q-15 -7 -18 -17h161l-18 -85h-281q5 125 124 176z" />
<glyph unicode="&#xb3;" horiz-adv-x="362" d="M166 570l108 56h-165l18 83h280l-19 -95l-102 -53q35 -7 56.5 -33t21.5 -64q0 -26 -11.5 -49.5t-32.5 -41.5t-50 -29t-64 -11q-33 0 -60 10t-46 26.5t-29 38.5t-10 46v7.5t1 9.5l93 5q-1 -4 -1 -8q0 -21 14 -36.5t40 -15.5t40.5 14t14.5 37q0 20 -14 30.5t-33 10.5 q-8 0 -13.5 -1t-10.5 -3z" />
<glyph unicode="&#xb4;" horiz-adv-x="277" d="M83 551h-114l120 150h162z" />
<glyph unicode="&#xb5;" horiz-adv-x="623" d="M72 492h133v-284q0 -42 21.5 -70.5t68.5 -28.5q45 0 69 27t24 70v286h133v-403q0 -26 1.5 -50.5t3.5 -38.5h-127q-2 8 -3 23.5t-1 29.5q-20 -35 -58.5 -50.5t-77.5 -15.5q-15 0 -28.5 2.5t-25.5 7.5v-187h-133v682z" />
<glyph unicode="&#xb6;" horiz-adv-x="693" d="M253 -190h-105l105 491h-9q-37 0 -68.5 13t-55 36t-36.5 53.5t-13 66.5q0 59 25 104t65 75t90.5 45t102.5 15h389l-22 -102h-97l-169 -797h-106l169 797h-96z" />
<glyph unicode="&#xb7;" horiz-adv-x="273" d="M52 301q0 18 7.5 35t20 29.5t29.5 20.5t37 8q35 0 56 -22t21 -53q0 -41 -27.5 -67.5t-65.5 -26.5q-35 0 -56.5 22t-21.5 54z" />
<glyph unicode="&#xb8;" horiz-adv-x="280" d="M199 13l-69 -66q36 -4 56 -25.5t20 -50.5q0 -18 -7.5 -36t-23 -32t-39 -23t-55.5 -9q-29 0 -52 8t-39.5 19t-26.5 22.5t-13 18.5l55 46q3 -5 8.5 -12.5t14.5 -15t21 -12.5t29 -5t29 7.5t12 21.5q0 15 -11.5 22t-28.5 7q-5 0 -9 -0.5t-8 -1.5l-24 50l69 67h92z" />
<glyph unicode="&#xb9;" horiz-adv-x="252" d="M117 342l49 228h-89l14 66q45 1 75.5 23.5t41.5 49.5h89l-78 -367h-102z" />
<glyph unicode="&#xba;" horiz-adv-x="429" d="M188 519q0 -35 18 -54t47 -19q14 0 29.5 6.5t28 19.5t20.5 33.5t8 47.5q0 35 -18 53.5t-47 18.5q-20 0 -35.5 -8.5t-27 -23.5t-17.5 -34t-6 -40zM282 720q37 0 66.5 -12.5t50.5 -34.5t32 -51.5t11 -63.5q0 -42 -14.5 -79t-40.5 -65.5t-62 -45t-79 -16.5q-36 0 -65.5 12.5 t-51 34.5t-33 51.5t-11.5 63.5q0 46 15.5 84t42.5 65t63 42t76 15z" />
<glyph unicode="&#xbb;" horiz-adv-x="558" d="M203 492l101 -198l-177 -193h-132l184 202l-96 189h120zM426 492l101 -198l-177 -193h-132l184 202l-96 189h120z" />
<glyph unicode="&#xbc;" horiz-adv-x="825" d="M129 342l49 228h-89l14 66q45 1 75.5 23.5t41.5 49.5h89l-78 -367h-102zM46 0l589 709h119l-590 -709h-118zM433 177l203 191h111l-46 -217h61l-17 -78h-61l-1.5 -7.5t-4 -18.5t-5 -23.5t-4.5 -23.5h-101l16 73h-172zM625 262l-117 -111h92z" />
<glyph unicode="&#xbd;" horiz-adv-x="855" d="M129 342l49 228h-89l14 66q45 1 75.5 23.5t41.5 49.5h89l-78 -367h-102zM56 0l589 709h119l-590 -709h-118zM660 204q47 20 47 51q0 13 -8.5 26t-31.5 13q-27 0 -40.5 -17t-13.5 -46l-92 6q0 30 10.5 55t30 43.5t47 29t61.5 10.5q70 0 104.5 -33.5t34.5 -78.5t-29 -77 t-77 -52l-76 -32q-15 -7 -18 -17h161l-18 -85h-281q5 125 124 176z" />
<glyph unicode="&#xbe;" horiz-adv-x="918" d="M173 570l108 56h-165l18 83h280l-19 -95l-102 -53q35 -7 56.5 -33t21.5 -64q0 -26 -11.5 -49.5t-32.5 -41.5t-50 -29t-64 -11q-33 0 -60 10t-46 26.5t-29 38.5t-10 46v7.5t1 9.5l93 5q-1 -4 -1 -8q0 -21 14 -36.5t40 -15.5t40.5 14t14.5 37q0 20 -14 30.5t-33 10.5 q-8 0 -13.5 -1t-10.5 -3zM132 0l589 709h119l-590 -709h-118zM527 177l203 191h111l-46 -217h61l-17 -78h-61l-1.5 -7.5t-4 -18.5t-5 -23.5t-4.5 -23.5h-101l16 73h-172zM719 262l-117 -111h92z" />
<glyph unicode="&#xbf;" horiz-adv-x="520" d="M323 284q0 -24 -5 -49.5t-17 -50t-33 -47t-54 -41.5l-56 -32q-30 -17 -44 -41.5t-14 -51.5q0 -15 5 -29t15.5 -25t27 -17.5t39.5 -6.5q29 0 50.5 11t36 29t21.5 41.5t7 48.5l124 -14q-1 -50 -19 -92.5t-50.5 -74t-78 -49.5t-100.5 -18q-54 0 -94.5 15.5t-67.5 40 t-40.5 56.5t-13.5 65q0 75 38 124.5t98 83.5l47 27q35 20 51.5 42.5t19.5 54.5h107zM364 436q0 -18 -7 -34t-19 -28t-28 -19t-34 -7q-33 0 -52 21t-19 50q0 18 7 34t19 28t27.5 19t32.5 7q32 0 52.5 -20.5t20.5 -50.5z" />
<glyph unicode="&#xc0;" horiz-adv-x="706" d="M467 162h-274l-91 -162h-155l415 709h158l113 -709h-143zM264 288h185l-37 266zM273 886h155l76 -127h-115z" />
<glyph unicode="&#xc1;" horiz-adv-x="706" d="M467 162h-274l-91 -162h-155l415 709h158l113 -709h-143zM264 288h185l-37 266zM506 759h-128l128 127h169z" />
<glyph unicode="&#xc2;" horiz-adv-x="706" d="M467 162h-274l-91 -162h-155l415 709h158l113 -709h-143zM264 288h185l-37 266zM253 759l146 127h137l94 -127h-116l-54 65l-82 -65h-125z" />
<glyph unicode="&#xc3;" horiz-adv-x="706" d="M467 162h-274l-91 -162h-155l415 709h158l113 -709h-143zM264 288h185l-37 266zM634 890q-11 -76 -45 -106.5t-78 -30.5q-23 0 -41 7.5t-32 16.5l-5 3q-13 8 -24.5 14t-22.5 6q-13 0 -22.5 -10t-13.5 -33h-85q4 38 15.5 64t29 42t38.5 23t43 7q23 0 41.5 -8t32.5 -17 l3 -2q14 -9 23.5 -14t20.5 -5q14 0 23.5 10t13.5 33h85z" />
<glyph unicode="&#xc4;" horiz-adv-x="706" d="M220 815q0 31 23 55.5t57 24.5q29 0 47 -19t18 -45q0 -35 -24 -57.5t-55 -22.5q-29 0 -47.5 18t-18.5 46zM539 815q0 31 23 55.5t57 24.5q29 0 47 -19t18 -45q0 -35 -24 -57.5t-55 -22.5q-29 0 -47.5 18t-18.5 46zM467 162h-274l-91 -162h-155l415 709h158l113 -709h-143 zM264 288h185l-37 266z" />
<glyph unicode="&#xc5;" horiz-adv-x="707" d="M264 288h185l-37 264zM449 807q-20 0 -37 -15.5t-17 -39.5q0 -20 13 -31.5t33 -11.5q21 0 38 14.5t17 39.5q0 20 -13.5 32t-33.5 12zM310 744q0 30 12 56.5t32.5 46t47 31t56.5 11.5q26 0 49 -9t40 -25t27 -38t10 -47q0 -35 -15.5 -63.5t-40.5 -48.5l105 -658h-143 l-23 162h-274l-91 -162h-155l391 668q-28 31 -28 76z" />
<glyph unicode="&#xc6;" horiz-adv-x="1048" d="M961 130l-28 -130h-442l35 165h-275l-140 -165h-176l619 709h529l-27 -130h-304l-34 -162h275l-26 -123h-275l-35 -164h304zM551 281l67 314l-268 -314h201z" />
<glyph unicode="&#xc7;" horiz-adv-x="729" d="M309 -11q-58 9 -105 36.5t-80.5 69t-51.5 95.5t-18 116q0 100 33 177.5t87 131t123.5 81.5t142.5 28q72 0 124.5 -20.5t88.5 -53.5t56.5 -74t27.5 -81l-134 -40q-5 24 -17 48.5t-33 44.5t-51 32.5t-72 12.5q-48 0 -90.5 -20t-74.5 -57t-51 -88t-19 -114q0 -44 12.5 -80 t36.5 -62t58 -40.5t77 -14.5q38 0 68 11.5t52.5 30t39 42.5t27.5 49l124 -50q-15 -37 -40.5 -73.5t-61.5 -66.5t-83.5 -50.5t-107.5 -24.5l-40 -38q36 -4 56 -25.5t20 -50.5q0 -18 -7.5 -36t-23 -32t-39 -23t-55.5 -9q-29 0 -52 8t-39.5 19t-26.5 22.5t-13 18.5l55 46 q3 -5 8.5 -12.5t14.5 -15t21 -12.5t29 -5t29 7.5t12 21.5q0 15 -11.5 22t-28.5 7q-5 0 -9 -0.5t-8 -1.5l-24 50z" />
<glyph unicode="&#xc8;" horiz-adv-x="577" d="M247 886h155l76 -127h-115zM21 0l150 709h442l-28 -130h-303l-35 -162h275l-26 -123h-275l-35 -164h304l-27 -130h-442z" />
<glyph unicode="&#xc9;" horiz-adv-x="577" d="M443 759h-128l128 127h169zM21 0l150 709h442l-28 -130h-303l-35 -162h275l-26 -123h-275l-35 -164h304l-27 -130h-442z" />
<glyph unicode="&#xca;" horiz-adv-x="577" d="M210 759l146 127h137l94 -127h-116l-54 65l-82 -65h-125zM21 0l150 709h442l-28 -130h-303l-35 -162h275l-26 -123h-275l-35 -164h304l-27 -130h-442z" />
<glyph unicode="&#xcb;" horiz-adv-x="577" d="M229 815q0 16 6.5 30t17 25t25 17.5t31.5 6.5q29 0 46.5 -18.5t17.5 -44.5q0 -35 -23.5 -57t-55.5 -22q-29 0 -47 17.5t-18 45.5zM444 815q0 16 6.5 30t17 25t25 17.5t31.5 6.5q29 0 46.5 -18.5t17.5 -44.5q0 -35 -23.5 -57t-55.5 -22q-29 0 -47 17.5t-18 45.5zM21 0 l150 709h442l-28 -130h-303l-35 -162h275l-26 -123h-275l-35 -164h304l-27 -130h-442z" />
<glyph unicode="&#xcc;" horiz-adv-x="307" d="M21 0l150 709h140l-150 -709h-140zM83 886h155l76 -127h-115z" />
<glyph unicode="&#xcd;" horiz-adv-x="307" d="M21 0l150 709h140l-150 -709h-140zM312 759h-128l128 127h169z" />
<glyph unicode="&#xce;" horiz-adv-x="307" d="M21 0l150 709h140l-150 -709h-140zM60 759l146 127h137l94 -127h-116l-54 65l-82 -65h-125z" />
<glyph unicode="&#xcf;" horiz-adv-x="307" d="M21 0l150 709h140l-150 -709h-140zM96 815q0 15 6 29t16.5 24.5t24.5 17t30 6.5q27 0 44 -18t17 -43q0 -34 -22.5 -55t-53.5 -21q-27 0 -44.5 17t-17.5 43zM281 815q0 15 6 29t16.5 24.5t24.5 17t30 6.5q27 0 44 -18t17 -43q0 -34 -22.5 -55t-53.5 -21q-27 0 -44.5 17 t-17.5 43z" />
<glyph unicode="&#xd0;" horiz-adv-x="731" d="M37 415h85l62 294h210q72 0 129.5 -21.5t97 -60t60.5 -93t21 -120.5q0 -101 -32 -178t-85 -129.5t-121.5 -79.5t-141.5 -27h-287l66 313h-85zM327 130q43 0 85 18.5t75 53.5t53.5 85.5t20.5 113.5q0 83 -44 131.5t-135 48.5h-88l-35 -166h149l-21 -102h-150l-39 -183h129 z" />
<glyph unicode="&#xd1;" horiz-adv-x="753" d="M670 890q-11 -76 -45 -106.5t-78 -30.5q-23 0 -41 7.5t-32 16.5l-5 3q-13 8 -24.5 14t-22.5 6q-13 0 -22.5 -10t-13.5 -33h-85q4 38 15.5 64t29 42t38.5 23t43 7q23 0 41.5 -8t32.5 -17l3 -2q14 -9 23.5 -14t20.5 -5q14 0 23.5 10t13.5 33h85zM469 0l-205 501l-106 -501 h-137l150 709h159l188 -473l101 473h138l-150 -709h-138z" />
<glyph unicode="&#xd2;" horiz-adv-x="778" d="M299 886h155l76 -127h-115zM54 302q0 101 32.5 179.5t85.5 132.5t122 82t141 28q71 0 128.5 -23t98.5 -64.5t63.5 -100t22.5 -129.5q0 -101 -32.5 -179.5t-85.5 -132.5t-121.5 -82t-140.5 -28q-71 0 -128.5 23t-99 65t-64 100t-22.5 129zM606 399q0 90 -47.5 142 t-131.5 52q-50 0 -92 -22t-73.5 -60.5t-49 -89.5t-17.5 -109q0 -90 49 -142t130 -52q48 0 89.5 20.5t73 57.5t50 89t19.5 114z" />
<glyph unicode="&#xd3;" horiz-adv-x="778" d="M519 759h-128l128 127h169zM54 302q0 101 32.5 179.5t85.5 132.5t122 82t141 28q71 0 128.5 -23t98.5 -64.5t63.5 -100t22.5 -129.5q0 -101 -32.5 -179.5t-85.5 -132.5t-121.5 -82t-140.5 -28q-71 0 -128.5 23t-99 65t-64 100t-22.5 129zM606 399q0 90 -47.5 142 t-131.5 52q-50 0 -92 -22t-73.5 -60.5t-49 -89.5t-17.5 -109q0 -90 49 -142t130 -52q48 0 89.5 20.5t73 57.5t50 89t19.5 114z" />
<glyph unicode="&#xd4;" horiz-adv-x="778" d="M274 759l146 127h137l94 -127h-116l-54 65l-82 -65h-125zM54 302q0 101 32.5 179.5t85.5 132.5t122 82t141 28q71 0 128.5 -23t98.5 -64.5t63.5 -100t22.5 -129.5q0 -101 -32.5 -179.5t-85.5 -132.5t-121.5 -82t-140.5 -28q-71 0 -128.5 23t-99 65t-64 100t-22.5 129z M606 399q0 90 -47.5 142t-131.5 52q-50 0 -92 -22t-73.5 -60.5t-49 -89.5t-17.5 -109q0 -90 49 -142t130 -52q48 0 89.5 20.5t73 57.5t50 89t19.5 114z" />
<glyph unicode="&#xd5;" horiz-adv-x="778" d="M666 890q-11 -76 -45 -106.5t-78 -30.5q-23 0 -41 7.5t-32 16.5l-5 3q-13 8 -24.5 14t-22.5 6q-13 0 -22.5 -10t-13.5 -33h-85q4 38 15.5 64t29 42t38.5 23t43 7q23 0 41.5 -8t32.5 -17l3 -2q14 -9 23.5 -14t20.5 -5q14 0 23.5 10t13.5 33h85zM54 302q0 101 32.5 179.5 t85.5 132.5t122 82t141 28q71 0 128.5 -23t98.5 -64.5t63.5 -100t22.5 -129.5q0 -101 -32.5 -179.5t-85.5 -132.5t-121.5 -82t-140.5 -28q-71 0 -128.5 23t-99 65t-64 100t-22.5 129zM606 399q0 90 -47.5 142t-131.5 52q-50 0 -92 -22t-73.5 -60.5t-49 -89.5t-17.5 -109 q0 -90 49 -142t130 -52q48 0 89.5 20.5t73 57.5t50 89t19.5 114z" />
<glyph unicode="&#xd6;" horiz-adv-x="778" d="M225 815q0 31 23 55.5t57 24.5q29 0 47 -19t18 -45q0 -35 -24 -57.5t-55 -22.5q-29 0 -47.5 18t-18.5 46zM584 815q0 31 23 55.5t57 24.5q29 0 47 -19t18 -45q0 -35 -24 -57.5t-55 -22.5q-29 0 -47.5 18t-18.5 46zM54 302q0 101 32.5 179.5t85.5 132.5t122 82t141 28 q71 0 128.5 -23t98.5 -64.5t63.5 -100t22.5 -129.5q0 -101 -32.5 -179.5t-85.5 -132.5t-121.5 -82t-140.5 -28q-71 0 -128.5 23t-99 65t-64 100t-22.5 129zM606 399q0 90 -47.5 142t-131.5 52q-50 0 -92 -22t-73.5 -60.5t-49 -89.5t-17.5 -109q0 -90 49 -142t130 -52 q48 0 89.5 20.5t73 57.5t50 89t19.5 114z" />
<glyph unicode="&#xd7;" horiz-adv-x="623" d="M322 269l-166 -168l-78 80l165 168l-165 168l79 79l165 -168l165 168l79 -79l-165 -168l166 -168l-79 -80z" />
<glyph unicode="&#xd8;" horiz-adv-x="778" d="M54 302q0 101 32.5 179.5t85.5 132.5t122 82t141 28q53 0 98.5 -13t82.5 -37l75 84l80 -70l-78 -88q55 -78 55 -193q0 -101 -32.5 -179.5t-85.5 -132.5t-121.5 -82t-140.5 -28q-52 0 -96.5 12.5t-81.5 35.5l-72 -81l-82 70l76 85q-28 39 -43 88.5t-15 106.5zM195 312 q0 -52 17 -92l311 349q-20 11 -44 17.5t-52 6.5q-50 0 -92 -22t-73.5 -60.5t-49 -89.5t-17.5 -109zM606 399q0 48 -15 86l-307 -346q37 -21 90 -21q48 0 89.5 20.5t73 57.5t50 89t19.5 114z" />
<glyph unicode="&#xd9;" horiz-adv-x="688" d="M281 886h155l76 -127h-115zM698 709l-103 -485q-12 -59 -38.5 -103.5t-63 -74.5t-82.5 -45.5t-98 -15.5q-56 0 -102 16t-78.5 45.5t-50.5 71.5t-18 94q0 31 8 69l90 428h138l-91 -434q-2 -12 -3.5 -23t-1.5 -22q0 -50 28.5 -80.5t91.5 -30.5q110 0 137 128l97 462h140z " />
<glyph unicode="&#xda;" horiz-adv-x="688" d="M477 759h-128l128 127h169zM698 709l-103 -485q-12 -59 -38.5 -103.5t-63 -74.5t-82.5 -45.5t-98 -15.5q-56 0 -102 16t-78.5 45.5t-50.5 71.5t-18 94q0 31 8 69l90 428h138l-91 -434q-2 -12 -3.5 -23t-1.5 -22q0 -50 28.5 -80.5t91.5 -30.5q110 0 137 128l97 462h140z " />
<glyph unicode="&#xdb;" horiz-adv-x="688" d="M246 759l146 127h137l94 -127h-116l-54 65l-82 -65h-125zM698 709l-103 -485q-12 -59 -38.5 -103.5t-63 -74.5t-82.5 -45.5t-98 -15.5q-56 0 -102 16t-78.5 45.5t-50.5 71.5t-18 94q0 31 8 69l90 428h138l-91 -434q-2 -12 -3.5 -23t-1.5 -22q0 -50 28.5 -80.5t91.5 -30.5 q110 0 137 128l97 462h140z" />
<glyph unicode="&#xdc;" horiz-adv-x="688" d="M252 815q0 31 23 55.5t57 24.5q29 0 47 -19t18 -45q0 -35 -24 -57.5t-55 -22.5q-29 0 -47.5 18t-18.5 46zM491 815q0 31 23 55.5t57 24.5q29 0 47 -19t18 -45q0 -35 -24 -57.5t-55 -22.5q-29 0 -47.5 18t-18.5 46zM698 709l-103 -485q-12 -59 -38.5 -103.5t-63 -74.5 t-82.5 -45.5t-98 -15.5q-56 0 -102 16t-78.5 45.5t-50.5 71.5t-18 94q0 31 8 69l90 428h138l-91 -434q-2 -12 -3.5 -23t-1.5 -22q0 -50 28.5 -80.5t91.5 -30.5q110 0 137 128l97 462h140z" />
<glyph unicode="&#xdd;" horiz-adv-x="636" d="M94 709h146l101 -278l197 278h166l-315 -412l-63 -297h-138l63 299zM445 759h-128l128 127h169z" />
<glyph unicode="&#xde;" horiz-adv-x="604" d="M259 460l-44 -201h101q58 0 95 28.5t38 86.5q0 39 -24.5 62.5t-78.5 23.5h-87zM21 0l150 709h139l-27 -129h94q48 0 87.5 -14.5t67.5 -40t43.5 -61.5t15.5 -79q0 -57 -20.5 -102.5t-56.5 -77t-86.5 -48.5t-110.5 -17h-127l-30 -140h-139z" />
<glyph unicode="&#xdf;" horiz-adv-x="603" d="M406 331q0 -10 7 -18t21 -17l26 -17q36 -24 57.5 -58t21.5 -75q0 -24 -10 -52.5t-32 -52.5t-57 -40.5t-84 -16.5q-40 0 -70 11.5t-50 31t-30 44.5t-10 51q0 6 0.5 12t1.5 12l110 9q-2 -5 -2 -14q0 -19 11 -37.5t44 -18.5q26 0 39 15t13 32q0 15 -8 26.5t-27 23.5l-25 16 q-32 20 -56 50t-24 68q0 28 8 49t21 37t29 27.5t32 19.5l22 11q32 16 48 33.5t16 46.5q0 11 -5 23t-16.5 21.5t-29 16t-41.5 6.5q-38 0 -71 -25.5t-47 -91.5l-103 -490h-131l107 513q12 56 37 96t58.5 65.5t74 37.5t82.5 12q52 0 92.5 -14.5t68 -38.5t41.5 -55t14 -64 q0 -37 -10.5 -65t-28 -49.5t-39 -36t-42.5 -24.5l-22 -10q-14 -7 -23 -14.5t-9 -21.5z" />
<glyph unicode="&#xe0;" horiz-adv-x="590" d="M290 385q-32 0 -56 -15.5t-40.5 -39.5t-25 -54.5t-8.5 -60.5q0 -51 25.5 -80t70.5 -29q25 0 48.5 12t41 34.5t28 54.5t10.5 73q0 49 -24.5 77t-69.5 28zM563 492l-81 -384q-5 -22 -7 -45t-2 -44v-7.5t1 -11.5h-123q-1 6 -1 12v11q0 8 0.5 18t1.5 19q-17 -26 -49.5 -47.5 t-82.5 -21.5q-45 0 -81 17t-60.5 47t-37.5 70t-13 85q0 63 19 116.5t53 93t80 62t99 22.5q34 0 59 -7t42 -17.5t27 -22t15 -21.5l12 56h129zM168 701h148l58 -150h-103z" />
<glyph unicode="&#xe1;" horiz-adv-x="590" d="M290 385q-32 0 -56 -15.5t-40.5 -39.5t-25 -54.5t-8.5 -60.5q0 -51 25.5 -80t70.5 -29q25 0 48.5 12t41 34.5t28 54.5t10.5 73q0 49 -24.5 77t-69.5 28zM563 492l-81 -384q-5 -22 -7 -45t-2 -44v-7.5t1 -11.5h-123q-1 6 -1 12v11q0 8 0.5 18t1.5 19q-17 -26 -49.5 -47.5 t-82.5 -21.5q-45 0 -81 17t-60.5 47t-37.5 70t-13 85q0 63 19 116.5t53 93t80 62t99 22.5q34 0 59 -7t42 -17.5t27 -22t15 -21.5l12 56h129zM368 551h-114l120 150h162z" />
<glyph unicode="&#xe2;" horiz-adv-x="590" d="M148 552l144 147h132l80 -147h-104l-53 75l-85 -75h-114zM290 385q-32 0 -56 -15.5t-40.5 -39.5t-25 -54.5t-8.5 -60.5q0 -51 25.5 -80t70.5 -29q25 0 48.5 12t41 34.5t28 54.5t10.5 73q0 49 -24.5 77t-69.5 28zM563 492l-81 -384q-5 -22 -7 -45t-2 -44v-7.5t1 -11.5 h-123q-1 6 -1 12v11q0 8 0.5 18t1.5 19q-17 -26 -49.5 -47.5t-82.5 -21.5q-45 0 -81 17t-60.5 47t-37.5 70t-13 85q0 63 19 116.5t53 93t80 62t99 22.5q34 0 59 -7t42 -17.5t27 -22t15 -21.5l12 56h129z" />
<glyph unicode="&#xe3;" horiz-adv-x="590" d="M290 385q-32 0 -56 -15.5t-40.5 -39.5t-25 -54.5t-8.5 -60.5q0 -51 25.5 -80t70.5 -29q25 0 48.5 12t41 34.5t28 54.5t10.5 73q0 49 -24.5 77t-69.5 28zM563 492l-81 -384q-5 -22 -7 -45t-2 -44v-7.5t1 -11.5h-123q-1 6 -1 12v11q0 8 0.5 18t1.5 19q-17 -26 -49.5 -47.5 t-82.5 -21.5q-45 0 -81 17t-60.5 47t-37.5 70t-13 85q0 63 19 116.5t53 93t80 62t99 22.5q34 0 59 -7t42 -17.5t27 -22t15 -21.5l12 56h129zM153 556q4 39 16.5 66t30.5 44t39.5 24.5t44.5 7.5q24 0 41 -7t31 -16l5 -3q11 -8 21.5 -13.5t23.5 -5.5q33 0 41 44h86 q-11 -77 -47 -110t-80 -33q-21 0 -40 7t-33 16l-8 5q-9 5 -19.5 11t-24.5 6q-16 0 -26.5 -10t-15.5 -33h-86z" />
<glyph unicode="&#xe4;" horiz-adv-x="590" d="M167 621q0 15 6 29t16.5 25t25 17.5t30.5 6.5q29 0 46.5 -19.5t17.5 -45.5q0 -17 -7 -30.5t-18 -24t-25 -16t-29 -5.5q-28 0 -45.5 18.5t-17.5 44.5zM377 621q0 15 6 29t16.5 25t25 17.5t30.5 6.5q29 0 46.5 -19.5t17.5 -45.5q0 -17 -7 -30.5t-18 -24t-25 -16t-29 -5.5 q-28 0 -45.5 18.5t-17.5 44.5zM290 385q-32 0 -56 -15.5t-40.5 -39.5t-25 -54.5t-8.5 -60.5q0 -51 25.5 -80t70.5 -29q25 0 48.5 12t41 34.5t28 54.5t10.5 73q0 49 -24.5 77t-69.5 28zM563 492l-81 -384q-5 -22 -7 -45t-2 -44v-7.5t1 -11.5h-123q-1 6 -1 12v11q0 8 0.5 18 t1.5 19q-17 -26 -49.5 -47.5t-82.5 -21.5q-45 0 -81 17t-60.5 47t-37.5 70t-13 85q0 63 19 116.5t53 93t80 62t99 22.5q34 0 59 -7t42 -17.5t27 -22t15 -21.5l12 56h129z" />
<glyph unicode="&#xe5;" horiz-adv-x="590" d="M290 385q-32 0 -56 -15.5t-40.5 -39.5t-25 -54.5t-8.5 -60.5q0 -51 25.5 -80t70.5 -29q25 0 48.5 12t41 34.5t28 54.5t10.5 73q0 49 -24.5 77t-69.5 28zM563 492l-81 -384q-5 -22 -7 -45t-2 -44v-7.5t1 -11.5h-123q-1 6 -1 12v11q0 8 0.5 18t1.5 19q-17 -26 -49.5 -47.5 t-82.5 -21.5q-45 0 -81 17t-60.5 47t-37.5 70t-13 85q0 63 19 116.5t53 93t80 62t99 22.5q34 0 59 -7t42 -17.5t27 -22t15 -21.5l12 56h129zM352 764q45 0 75.5 -27.5t30.5 -72.5q0 -26 -10.5 -48t-27.5 -38.5t-39.5 -25.5t-46.5 -9q-22 0 -41 7.5t-33.5 21t-22.5 32 t-8 39.5q0 27 10.5 49.5t27.5 38t39.5 24.5t45.5 9zM301 649q0 -17 10.5 -26.5t27.5 -9.5q18 0 31 12t13 32q0 16 -10 26t-27 10t-31 -12t-14 -32z" />
<glyph unicode="&#xe6;" horiz-adv-x="849" d="M308 294q23 1 34 12.5t11 31.5q0 23 -21 42.5t-66 19.5q-38 0 -64 -20.5t-34 -49.5l-110 36q8 27 26.5 52.5t46 45t63.5 31.5t80 12q60 0 99 -17t61 -43q33 29 73.5 44.5t84.5 15.5q51 0 91 -15.5t67.5 -43t42 -65.5t14.5 -83q0 -22 -3.5 -45.5t-10.5 -43.5h-339 q-1 -3 -1 -7q1 -46 30 -77t80 -31q41 0 68.5 19t40.5 45l101 -51q-12 -24 -31.5 -46.5t-47 -39.5t-62.5 -27.5t-78 -10.5q-57 0 -104 23t-76 68q-26 -35 -71.5 -62t-111.5 -27q-45 0 -79.5 11.5t-58 31t-35 45.5t-11.5 54q0 36 12.5 65t35.5 49.5t54 32t69 13.5zM138 139 q0 -26 19 -40t47 -14q17 0 36.5 6t37 19.5t30.5 35t18 52.5l2 13l-118 -5q-28 -2 -50 -18t-22 -49zM590 399q-51 0 -81 -28.5t-42 -68.5h214q1 2 1 6v6q0 14 -5 29t-15.5 27.5t-28.5 20.5t-43 8z" />
<glyph unicode="&#xe7;" horiz-adv-x="546" d="M197 -7q-39 9 -70.5 29t-53 49.5t-33.5 66t-12 78.5q0 66 22.5 119.5t61 92t88.5 59t105 20.5q50 0 87.5 -14.5t63.5 -38t41 -53t21 -59.5l-120 -36q-6 31 -30.5 55.5t-71.5 24.5q-24 0 -48.5 -10.5t-44 -31.5t-31.5 -52t-12 -73q0 -54 30 -83.5t79 -29.5q44 0 70.5 22 t40.5 50l110 -43q-12 -27 -31.5 -53t-46 -46.5t-59.5 -34t-73 -16.5l-39 -38q36 -4 56 -25.5t20 -50.5q0 -18 -7.5 -36t-23 -32t-39 -23t-55.5 -9q-29 0 -52 8t-39.5 19t-26.5 22.5t-13 18.5l55 46q3 -5 8.5 -12.5t14.5 -15t21 -12.5t29 -5t29 7.5t12 21.5q0 15 -11.5 22 t-28.5 7q-5 0 -9 -0.5t-8 -1.5l-24 50z" />
<glyph unicode="&#xe8;" horiz-adv-x="548" d="M381 302q1 5 1 7.5v4.5q0 14 -5 29t-16 27.5t-28.5 20.5t-43.5 8q-51 0 -81.5 -28.5t-42.5 -68.5h216zM151 210q0 -48 28 -81t82 -33q41 0 68.5 19t41.5 45l102 -51q-12 -24 -31.5 -46.5t-47 -39.5t-63 -27.5t-78.5 -10.5q-46 0 -87 16t-72 45.5t-49 71.5t-18 94 q0 68 22.5 122.5t60 93t84.5 59t97 20.5q51 0 91.5 -15.5t68 -43t42 -65.5t14.5 -83q0 -22 -4 -45.5t-10 -43.5zM172 701h148l58 -150h-103z" />
<glyph unicode="&#xe9;" horiz-adv-x="548" d="M360 551h-114l120 150h162zM381 302q1 5 1 7.5v4.5q0 14 -5 29t-16 27.5t-28.5 20.5t-43.5 8q-51 0 -81.5 -28.5t-42.5 -68.5h216zM151 210q0 -48 28 -81t82 -33q41 0 68.5 19t41.5 45l102 -51q-12 -24 -31.5 -46.5t-47 -39.5t-63 -27.5t-78.5 -10.5q-46 0 -87 16 t-72 45.5t-49 71.5t-18 94q0 68 22.5 122.5t60 93t84.5 59t97 20.5q51 0 91.5 -15.5t68 -43t42 -65.5t14.5 -83q0 -22 -4 -45.5t-10 -43.5z" />
<glyph unicode="&#xea;" horiz-adv-x="548" d="M137 552l144 147h132l80 -147h-104l-53 75l-85 -75h-114zM381 302q1 5 1 7.5v4.5q0 14 -5 29t-16 27.5t-28.5 20.5t-43.5 8q-51 0 -81.5 -28.5t-42.5 -68.5h216zM151 210q0 -48 28 -81t82 -33q41 0 68.5 19t41.5 45l102 -51q-12 -24 -31.5 -46.5t-47 -39.5t-63 -27.5 t-78.5 -10.5q-46 0 -87 16t-72 45.5t-49 71.5t-18 94q0 68 22.5 122.5t60 93t84.5 59t97 20.5q51 0 91.5 -15.5t68 -43t42 -65.5t14.5 -83q0 -22 -4 -45.5t-10 -43.5z" />
<glyph unicode="&#xeb;" horiz-adv-x="548" d="M153 621q0 15 6 29t16.5 25t25 17.5t30.5 6.5q29 0 46.5 -19.5t17.5 -45.5q0 -17 -7 -30.5t-18 -24t-25 -16t-29 -5.5q-28 0 -45.5 18.5t-17.5 44.5zM363 621q0 15 6 29t16.5 25t25 17.5t30.5 6.5q29 0 46.5 -19.5t17.5 -45.5q0 -17 -7 -30.5t-18 -24t-25 -16t-29 -5.5 q-28 0 -45.5 18.5t-17.5 44.5zM381 302q1 5 1 7.5v4.5q0 14 -5 29t-16 27.5t-28.5 20.5t-43.5 8q-51 0 -81.5 -28.5t-42.5 -68.5h216zM151 210q0 -48 28 -81t82 -33q41 0 68.5 19t41.5 45l102 -51q-12 -24 -31.5 -46.5t-47 -39.5t-63 -27.5t-78.5 -10.5q-46 0 -87 16 t-72 45.5t-49 71.5t-18 94q0 68 22.5 122.5t60 93t84.5 59t97 20.5q51 0 91.5 -15.5t68 -43t42 -65.5t14.5 -83q0 -22 -4 -45.5t-10 -43.5z" />
<glyph unicode="&#xec;" horiz-adv-x="267" d="M4 0l105 492h133l-105 -492h-133zM32 701h148l58 -150h-103z" />
<glyph unicode="&#xed;" horiz-adv-x="267" d="M242 551h-114l120 150h162zM4 0l105 492h133l-105 -492h-133z" />
<glyph unicode="&#xee;" horiz-adv-x="267" d="M4 552l144 147h132l80 -147h-104l-53 75l-85 -75h-114zM4 0l105 492h133l-105 -492h-133z" />
<glyph unicode="&#xef;" horiz-adv-x="267" d="M4 0l105 492h133l-105 -492h-133zM50 621q0 15 6 28t16 23.5t24 16.5t29 6q27 0 44 -17.5t17 -42.5q0 -16 -6.5 -29.5t-17 -23.5t-24 -15.5t-27.5 -5.5q-29 0 -45 17.5t-16 42.5zM218 621q0 15 6 28t16 23.5t24 16.5t29 6q27 0 44 -17.5t17 -42.5q0 -16 -6.5 -29.5 t-17 -23.5t-24 -15.5t-27.5 -5.5q-29 0 -45 17.5t-16 42.5z" />
<glyph unicode="&#xf0;" horiz-adv-x="581" d="M467 586q34 -44 53.5 -101t19.5 -129q0 -84 -21.5 -152.5t-59.5 -117t-91 -75t-117 -26.5q-55 0 -97.5 18t-71.5 48t-44 69.5t-15 83.5q0 55 19 101t52.5 79.5t78.5 52.5t98 19q51 0 87.5 -17t54.5 -43q-5 42 -21 77t-42 62l-134 -59l-32 77l88 38q-25 12 -52.5 19.5 t-56.5 10.5l38 106q51 -4 103.5 -23t98.5 -54l114 50l33 -78zM387 244q0 48 -28.5 75.5t-76.5 27.5q-25 0 -48 -9.5t-40.5 -27.5t-28 -44t-10.5 -60q0 -21 6.5 -40t19.5 -33.5t32.5 -23.5t44.5 -9t48 9.5t41 28t29 45.5t11 61z" />
<glyph unicode="&#xf1;" horiz-adv-x="571" d="M150 556q4 39 16.5 66t30.5 44t39.5 24.5t44.5 7.5q24 0 41 -7t31 -16l5 -3q11 -8 21.5 -13.5t23.5 -5.5q33 0 41 44h86q-11 -77 -47 -110t-80 -33q-21 0 -40 7t-33 16l-8 5q-9 5 -19.5 11t-24.5 6q-16 0 -26.5 -10t-15.5 -33h-86zM314 0l61 285q3 15 3 29q0 33 -19 53 t-56 20q-43 0 -69 -30.5t-35 -71.5l-62 -285h-132l86 408q8 35 9 57t1 27h129q0 -6 -0.5 -20.5t-2.5 -29.5q24 34 62 48.5t76 14.5q74 0 113 -44t39 -111q0 -25 -6 -52l-64 -298h-133z" />
<glyph unicode="&#xf2;" horiz-adv-x="575" d="M174 701h148l58 -150h-103zM293 386q-29 0 -53 -12.5t-42 -35t-28 -53t-10 -65.5q0 -54 28 -84t73 -30q23 0 47 10.5t43 31t31 52t12 73.5q0 54 -27.5 83.5t-73.5 29.5zM527 278q0 -60 -20.5 -113t-57 -93t-87 -63.5t-110.5 -23.5q-51 0 -93 18t-71 48.5t-45 72.5t-16 90 q0 65 21.5 119t59 92.5t88 60t107.5 21.5q52 0 94 -18t70.5 -48.5t44 -72.5t15.5 -90z" />
<glyph unicode="&#xf3;" horiz-adv-x="575" d="M367 551h-114l120 150h162zM293 386q-29 0 -53 -12.5t-42 -35t-28 -53t-10 -65.5q0 -54 28 -84t73 -30q23 0 47 10.5t43 31t31 52t12 73.5q0 54 -27.5 83.5t-73.5 29.5zM527 278q0 -60 -20.5 -113t-57 -93t-87 -63.5t-110.5 -23.5q-51 0 -93 18t-71 48.5t-45 72.5t-16 90 q0 65 21.5 119t59 92.5t88 60t107.5 21.5q52 0 94 -18t70.5 -48.5t44 -72.5t15.5 -90z" />
<glyph unicode="&#xf4;" horiz-adv-x="575" d="M144 552l144 147h132l80 -147h-104l-53 75l-85 -75h-114zM293 386q-29 0 -53 -12.5t-42 -35t-28 -53t-10 -65.5q0 -54 28 -84t73 -30q23 0 47 10.5t43 31t31 52t12 73.5q0 54 -27.5 83.5t-73.5 29.5zM527 278q0 -60 -20.5 -113t-57 -93t-87 -63.5t-110.5 -23.5 q-51 0 -93 18t-71 48.5t-45 72.5t-16 90q0 65 21.5 119t59 92.5t88 60t107.5 21.5q52 0 94 -18t70.5 -48.5t44 -72.5t15.5 -90z" />
<glyph unicode="&#xf5;" horiz-adv-x="575" d="M293 386q-29 0 -53 -12.5t-42 -35t-28 -53t-10 -65.5q0 -54 28 -84t73 -30q23 0 47 10.5t43 31t31 52t12 73.5q0 54 -27.5 83.5t-73.5 29.5zM527 278q0 -60 -20.5 -113t-57 -93t-87 -63.5t-110.5 -23.5q-51 0 -93 18t-71 48.5t-45 72.5t-16 90q0 65 21.5 119t59 92.5 t88 60t107.5 21.5q52 0 94 -18t70.5 -48.5t44 -72.5t15.5 -90zM137 556q4 39 16.5 66t30.5 44t39.5 24.5t44.5 7.5q24 0 41 -7t31 -16l5 -3q11 -8 21.5 -13.5t23.5 -5.5q33 0 41 44h86q-11 -77 -47 -110t-80 -33q-21 0 -40 7t-33 16l-8 5q-9 5 -19.5 11t-24.5 6 q-16 0 -26.5 -10t-15.5 -33h-86z" />
<glyph unicode="&#xf6;" horiz-adv-x="575" d="M158 621q0 15 6 29t16.5 25t25 17.5t30.5 6.5q29 0 46.5 -19.5t17.5 -45.5q0 -17 -7 -30.5t-18 -24t-25 -16t-29 -5.5q-28 0 -45.5 18.5t-17.5 44.5zM368 621q0 15 6 29t16.5 25t25 17.5t30.5 6.5q29 0 46.5 -19.5t17.5 -45.5q0 -17 -7 -30.5t-18 -24t-25 -16t-29 -5.5 q-28 0 -45.5 18.5t-17.5 44.5zM293 386q-29 0 -53 -12.5t-42 -35t-28 -53t-10 -65.5q0 -54 28 -84t73 -30q23 0 47 10.5t43 31t31 52t12 73.5q0 54 -27.5 83.5t-73.5 29.5zM527 278q0 -60 -20.5 -113t-57 -93t-87 -63.5t-110.5 -23.5q-51 0 -93 18t-71 48.5t-45 72.5t-16 90 q0 65 21.5 119t59 92.5t88 60t107.5 21.5q52 0 94 -18t70.5 -48.5t44 -72.5t15.5 -90z" />
<glyph unicode="&#xf7;" horiz-adv-x="579" d="M220 166q0 16 6 30t16.5 24.5t25 16.5t30.5 6t30.5 -6t25 -16.5t16.5 -24.5t6 -30t-6 -30t-16.5 -24.5t-25 -17t-30.5 -6.5t-30.5 6.5t-25 17t-16.5 24.5t-6 30zM220 533q0 16 6 30t16.5 24.5t25 16.5t30.5 6t30.5 -6t25 -16.5t16.5 -24.5t6 -30q0 -32 -23 -55.5 t-55 -23.5t-55 23.5t-23 55.5zM56 404h490v-110h-490v110z" />
<glyph unicode="&#xf8;" horiz-adv-x="576" d="M-13 22l72 69q-31 56 -31 123q0 65 21.5 119t59 92.5t88 60t107.5 21.5q43 0 78.5 -12t63.5 -34l69 67l55 -57l-73 -70q31 -54 31 -123q0 -60 -20.5 -113t-57 -93t-87 -63.5t-110.5 -23.5q-43 0 -78.5 12t-63.5 35l-69 -66zM395 273q0 8 -0.5 14.5t-1.5 13.5l-188 -179 q23 -16 57 -16q23 0 47 10.5t43 31t31 52t12 73.5zM294 386q-29 0 -53 -12.5t-42 -35t-28 -53t-10 -65.5q0 -17 3 -29l187 179q-10 7 -23 11.5t-34 4.5z" />
<glyph unicode="&#xf9;" horiz-adv-x="566" d="M235 492l-57 -266q-7 -31 -7 -47q0 -33 18 -53.5t56 -20.5q42 0 66.5 29.5t33.5 71.5l62 286h132l-82 -392q-6 -27 -8.5 -48.5t-2.5 -40.5v-11h-127q-1 5 -1 11.5v9.5v12.5t1 17.5q-20 -31 -54.5 -47t-68.5 -16q-39 0 -69.5 12t-50.5 34t-30.5 51t-10.5 64q0 14 2 30 t8 43l58 270h132zM181 701h148l58 -150h-103z" />
<glyph unicode="&#xfa;" horiz-adv-x="566" d="M361 551h-114l120 150h162zM235 492l-57 -266q-7 -31 -7 -47q0 -33 18 -53.5t56 -20.5q42 0 66.5 29.5t33.5 71.5l62 286h132l-82 -392q-6 -27 -8.5 -48.5t-2.5 -40.5v-11h-127q-1 5 -1 11.5v9.5v12.5t1 17.5q-20 -31 -54.5 -47t-68.5 -16q-39 0 -69.5 12t-50.5 34 t-30.5 51t-10.5 64q0 14 2 30t8 43l58 270h132z" />
<glyph unicode="&#xfb;" horiz-adv-x="566" d="M151 552l144 147h132l80 -147h-104l-53 75l-85 -75h-114zM235 492l-57 -266q-7 -31 -7 -47q0 -33 18 -53.5t56 -20.5q42 0 66.5 29.5t33.5 71.5l62 286h132l-82 -392q-6 -27 -8.5 -48.5t-2.5 -40.5v-11h-127q-1 5 -1 11.5v9.5v12.5t1 17.5q-20 -31 -54.5 -47t-68.5 -16 q-39 0 -69.5 12t-50.5 34t-30.5 51t-10.5 64q0 14 2 30t8 43l58 270h132z" />
<glyph unicode="&#xfc;" horiz-adv-x="566" d="M168 621q0 15 6 29t16.5 25t25 17.5t30.5 6.5q29 0 46.5 -19.5t17.5 -45.5q0 -17 -7 -30.5t-18 -24t-25 -16t-29 -5.5q-28 0 -45.5 18.5t-17.5 44.5zM378 621q0 15 6 29t16.5 25t25 17.5t30.5 6.5q29 0 46.5 -19.5t17.5 -45.5q0 -17 -7 -30.5t-18 -24t-25 -16t-29 -5.5 q-28 0 -45.5 18.5t-17.5 44.5zM235 492l-57 -266q-7 -31 -7 -47q0 -33 18 -53.5t56 -20.5q42 0 66.5 29.5t33.5 71.5l62 286h132l-82 -392q-6 -27 -8.5 -48.5t-2.5 -40.5v-11h-127q-1 5 -1 11.5v9.5v12.5t1 17.5q-20 -31 -54.5 -47t-68.5 -16q-39 0 -69.5 12t-50.5 34 t-30.5 51t-10.5 64q0 14 2 30t8 43l58 270h132z" />
<glyph unicode="&#xfd;" horiz-adv-x="526" d="M-28 -190l170 268l-108 414h140l66 -276l166 276h149l-436 -682h-147zM329 551h-114l120 150h162z" />
<glyph unicode="&#xfe;" horiz-adv-x="603" d="M158 724h133l-58 -276q22 24 57 39t75 15q47 0 82.5 -15.5t59.5 -43.5t36 -65.5t12 -80.5q0 -68 -19.5 -124.5t-53.5 -97.5t-81 -64t-102 -23q-56 0 -95 21t-56 50l-52 -249h-132zM319 386q-29 0 -53.5 -13t-42.5 -35.5t-28 -53t-10 -65.5q0 -56 28.5 -84.5t72.5 -28.5 q24 0 48 11t43.5 32t31.5 53t12 74q0 54 -28.5 82t-73.5 28z" />
<glyph unicode="&#xff;" horiz-adv-x="526" d="M131 621q0 15 6 29t16.5 25t25 17.5t30.5 6.5q29 0 46.5 -19.5t17.5 -45.5q0 -17 -7 -30.5t-18 -24t-25 -16t-29 -5.5q-28 0 -45.5 18.5t-17.5 44.5zM341 621q0 15 6 29t16.5 25t25 17.5t30.5 6.5q29 0 46.5 -19.5t17.5 -45.5q0 -17 -7 -30.5t-18 -24t-25 -16t-29 -5.5 q-28 0 -45.5 18.5t-17.5 44.5zM-28 -190l170 268l-108 414h140l66 -276l166 276h149l-436 -682h-147z" />
<glyph unicode="&#x100;" horiz-adv-x="706" d="M467 162h-274l-91 -162h-155l415 709h158l113 -709h-143zM264 288h185l-37 266zM296 774l20 100h305l-21 -100h-304z" />
<glyph unicode="&#x101;" horiz-adv-x="590" d="M290 385q-32 0 -56 -15.5t-40.5 -39.5t-25 -54.5t-8.5 -60.5q0 -51 25.5 -80t70.5 -29q25 0 48.5 12t41 34.5t28 54.5t10.5 73q0 49 -24.5 77t-69.5 28zM563 492l-81 -384q-5 -22 -7 -45t-2 -44v-7.5t1 -11.5h-123q-1 6 -1 12v11q0 8 0.5 18t1.5 19q-17 -26 -49.5 -47.5 t-82.5 -21.5q-45 0 -81 17t-60.5 47t-37.5 70t-13 85q0 63 19 116.5t53 93t80 62t99 22.5q34 0 59 -7t42 -17.5t27 -22t15 -21.5l12 56h129zM192 577l21 97h281l-20 -97h-282z" />
<glyph unicode="&#x102;" horiz-adv-x="706" d="M467 162h-274l-91 -162h-155l415 709h158l113 -709h-143zM264 288h185l-37 266zM454 754q-64 0 -104.5 31.5t-40.5 86.5q0 3 0.5 9t1.5 8h96q-1 -5 -1 -10q0 -17 13 -29t41 -12q32 0 50 15.5t23 35.5h104q-7 -24 -21.5 -48.5t-37.5 -43.5t-54 -31t-70 -12z" />
<glyph unicode="&#x103;" horiz-adv-x="590" d="M290 385q-32 0 -56 -15.5t-40.5 -39.5t-25 -54.5t-8.5 -60.5q0 -51 25.5 -80t70.5 -29q25 0 48.5 12t41 34.5t28 54.5t10.5 73q0 49 -24.5 77t-69.5 28zM563 492l-81 -384q-5 -22 -7 -45t-2 -44v-7.5t1 -11.5h-123q-1 6 -1 12v11q0 8 0.5 18t1.5 19q-17 -26 -49.5 -47.5 t-82.5 -21.5q-45 0 -81 17t-60.5 47t-37.5 70t-13 85q0 63 19 116.5t53 93t80 62t99 22.5q34 0 59 -7t42 -17.5t27 -22t15 -21.5l12 56h129zM335 549q-35 0 -61 10.5t-43.5 28t-26 40.5t-8.5 48q0 9 0.5 14t1.5 11h87q-1 -4 -1 -8q0 -19 12.5 -35.5t45.5 -16.5 q19 0 32.5 5.5t23 14.5t15.5 19.5t9 20.5h98q-7 -30 -21.5 -57.5t-37.5 -48.5t-54.5 -33.5t-71.5 -12.5z" />
<glyph unicode="&#x104;" horiz-adv-x="706" d="M467 162h-274l-91 -162h-155l415 709h158l113 -709q-17 -6 -34.5 -16t-32 -22.5t-24 -27.5t-9.5 -33q0 -20 13.5 -30t33.5 -11q16 0 24 2l-16 -79q-18 -6 -44 -6q-45 0 -77.5 26t-32.5 72t23.5 76t54.5 49h-22zM264 288h185l-37 266z" />
<glyph unicode="&#x105;" horiz-adv-x="590" d="M385 -223q-45 0 -77.5 26t-32.5 72t24 76t53 49q-1 5 -1.5 11.5t-0.5 16.5q0 9 0.5 17.5t1.5 14.5q-17 -26 -49.5 -47.5t-82.5 -21.5q-45 0 -81 17t-60.5 47t-37.5 70t-13 85q0 63 19 116.5t53 93t80 62t99 22.5q34 0 59 -7t42 -17.5t27 -22t15 -21.5l12 56h129l-81 -384 q-5 -22 -7 -43.5t-2 -47.5v-6.5t1 -10.5q-17 -6 -34.5 -16t-32 -22.5t-24 -27.5t-9.5 -33q0 -20 13.5 -30t33.5 -11q16 0 24 2l-16 -79q-18 -6 -44 -6zM290 385q-32 0 -56 -15.5t-40.5 -39.5t-25 -54.5t-8.5 -60.5q0 -51 25.5 -80t70.5 -29q25 0 48.5 12t41 34.5t28 54.5 t10.5 73q0 49 -24.5 77t-69.5 28z" />
<glyph unicode="&#x106;" horiz-adv-x="729" d="M440 724q72 0 124.5 -20.5t88.5 -53.5t56.5 -74t27.5 -81l-134 -40q-5 24 -17 48.5t-33 44.5t-51 32.5t-72 12.5q-48 0 -90.5 -20t-74.5 -57t-51 -88t-19 -114q0 -44 12.5 -80t36.5 -62t58 -40.5t77 -14.5q38 0 68 11.5t52.5 30t39 42.5t27.5 49l124 -50 q-16 -39 -43.5 -77.5t-67 -69.5t-92.5 -50t-120 -19q-70 0 -127.5 24t-99 67t-64 102t-22.5 129q0 100 33 177.5t87 131t123.5 81.5t142.5 28zM527 759h-128l128 127h169z" />
<glyph unicode="&#x107;" horiz-adv-x="546" d="M365 551h-114l120 150h162zM398 306q-6 31 -30.5 55.5t-71.5 24.5q-24 0 -48.5 -10.5t-44 -31.5t-31.5 -52t-12 -73q0 -54 30 -83.5t79 -29.5q44 0 70.5 22t40.5 50l110 -43q-13 -29 -34 -56t-49.5 -48t-65 -33.5t-80.5 -12.5q-50 0 -93 16.5t-74 47t-48.5 73t-17.5 94.5 q0 66 22.5 119.5t61 92t88.5 59t105 20.5q50 0 87.5 -14.5t63.5 -38t41 -53t21 -59.5z" />
<glyph unicode="&#x108;" horiz-adv-x="729" d="M273 759l146 127h137l94 -127h-116l-54 65l-82 -65h-125zM440 724q72 0 124.5 -20.5t88.5 -53.5t56.5 -74t27.5 -81l-134 -40q-5 24 -17 48.5t-33 44.5t-51 32.5t-72 12.5q-48 0 -90.5 -20t-74.5 -57t-51 -88t-19 -114q0 -44 12.5 -80t36.5 -62t58 -40.5t77 -14.5 q38 0 68 11.5t52.5 30t39 42.5t27.5 49l124 -50q-16 -39 -43.5 -77.5t-67 -69.5t-92.5 -50t-120 -19q-70 0 -127.5 24t-99 67t-64 102t-22.5 129q0 100 33 177.5t87 131t123.5 81.5t142.5 28z" />
<glyph unicode="&#x109;" horiz-adv-x="546" d="M144 552l144 147h132l80 -147h-104l-53 75l-85 -75h-114zM398 306q-6 31 -30.5 55.5t-71.5 24.5q-24 0 -48.5 -10.5t-44 -31.5t-31.5 -52t-12 -73q0 -54 30 -83.5t79 -29.5q44 0 70.5 22t40.5 50l110 -43q-13 -29 -34 -56t-49.5 -48t-65 -33.5t-80.5 -12.5 q-50 0 -93 16.5t-74 47t-48.5 73t-17.5 94.5q0 66 22.5 119.5t61 92t88.5 59t105 20.5q50 0 87.5 -14.5t63.5 -38t41 -53t21 -59.5z" />
<glyph unicode="&#x10a;" horiz-adv-x="729" d="M440 724q72 0 124.5 -20.5t88.5 -53.5t56.5 -74t27.5 -81l-134 -40q-5 24 -17 48.5t-33 44.5t-51 32.5t-72 12.5q-48 0 -90.5 -20t-74.5 -57t-51 -88t-19 -114q0 -44 12.5 -80t36.5 -62t58 -40.5t77 -14.5q38 0 68 11.5t52.5 30t39 42.5t27.5 49l124 -50 q-16 -39 -43.5 -77.5t-67 -69.5t-92.5 -50t-120 -19q-70 0 -127.5 24t-99 67t-64 102t-22.5 129q0 100 33 177.5t87 131t123.5 81.5t142.5 28zM393 833q0 16 7 31.5t19 27.5t28.5 19.5t34.5 7.5q32 0 52.5 -20.5t20.5 -49.5q0 -19 -7 -35t-19 -28t-28 -19t-34 -7 q-33 0 -53.5 21.5t-20.5 51.5z" />
<glyph unicode="&#x10b;" horiz-adv-x="546" d="M398 306q-6 31 -30.5 55.5t-71.5 24.5q-24 0 -48.5 -10.5t-44 -31.5t-31.5 -52t-12 -73q0 -54 30 -83.5t79 -29.5q44 0 70.5 22t40.5 50l110 -43q-13 -29 -34 -56t-49.5 -48t-65 -33.5t-80.5 -12.5q-50 0 -93 16.5t-74 47t-48.5 73t-17.5 94.5q0 66 22.5 119.5t61 92 t88.5 59t105 20.5q50 0 87.5 -14.5t63.5 -38t41 -53t21 -59.5zM253 620q0 17 6.5 33t18.5 28t28 19.5t35 7.5q32 0 52 -20.5t20 -49.5q0 -19 -7 -35.5t-19 -28.5t-27.5 -19t-33.5 -7q-32 0 -52.5 21.5t-20.5 50.5z" />
<glyph unicode="&#x10c;" horiz-adv-x="729" d="M674 886l-148 -127h-137l-92 127h115l53 -64l81 64h128zM440 724q72 0 124.5 -20.5t88.5 -53.5t56.5 -74t27.5 -81l-134 -40q-5 24 -17 48.5t-33 44.5t-51 32.5t-72 12.5q-48 0 -90.5 -20t-74.5 -57t-51 -88t-19 -114q0 -44 12.5 -80t36.5 -62t58 -40.5t77 -14.5 q38 0 68 11.5t52.5 30t39 42.5t27.5 49l124 -50q-16 -39 -43.5 -77.5t-67 -69.5t-92.5 -50t-120 -19q-70 0 -127.5 24t-99 67t-64 102t-22.5 129q0 100 33 177.5t87 131t123.5 81.5t142.5 28z" />
<glyph unicode="&#x10d;" horiz-adv-x="546" d="M533 700l-142 -148h-133l-79 148h103l54 -75l82 75h115zM398 306q-6 31 -30.5 55.5t-71.5 24.5q-24 0 -48.5 -10.5t-44 -31.5t-31.5 -52t-12 -73q0 -54 30 -83.5t79 -29.5q44 0 70.5 22t40.5 50l110 -43q-13 -29 -34 -56t-49.5 -48t-65 -33.5t-80.5 -12.5q-50 0 -93 16.5 t-74 47t-48.5 73t-17.5 94.5q0 66 22.5 119.5t61 92t88.5 59t105 20.5q50 0 87.5 -14.5t63.5 -38t41 -53t21 -59.5z" />
<glyph unicode="&#x10e;" horiz-adv-x="717" d="M625 886l-148 -127h-137l-92 127h115l53 -64l81 64h128zM313 130q43 0 85 18.5t75 53.5t53.5 85.5t20.5 113.5q0 83 -44 131.5t-135 48.5h-88l-96 -451h129zM21 0l149 709h210q72 0 129.5 -21.5t97 -60t60.5 -93t21 -120.5q0 -101 -32 -178t-85 -129.5t-121.5 -79.5 t-141.5 -27h-287z" />
<glyph unicode="&#x10f;" horiz-adv-x="590" d="M711 526h-93l70 198h136zM482 108q-5 -23 -7.5 -46.5t-3.5 -40.5v-12.5t1 -8.5h-121q-1 7 -1 13v12q0 8 0.5 17.5t1.5 17.5q-17 -26 -49.5 -47.5t-82.5 -21.5q-45 0 -81 17.5t-60.5 47t-37.5 69t-13 85.5q0 63 19 116.5t53 93t80 62t99 22.5q31 0 54.5 -6t40.5 -15.5 t28 -21t17 -21.5l60 284h133zM290 385q-32 0 -56 -15.5t-40.5 -39.5t-25 -54.5t-8.5 -60.5q0 -51 25.5 -80t70.5 -29q25 0 48.5 12t41 34.5t28 54.5t10.5 73q0 49 -24.5 77t-69.5 28z" />
<glyph unicode="&#x110;" horiz-adv-x="731" d="M37 415h85l62 294h210q72 0 129.5 -21.5t97 -60t60.5 -93t21 -120.5q0 -101 -32 -178t-85 -129.5t-121.5 -79.5t-141.5 -27h-287l66 313h-85zM327 130q43 0 85 18.5t75 53.5t53.5 85.5t20.5 113.5q0 83 -44 131.5t-135 48.5h-88l-35 -166h149l-21 -102h-150l-39 -183h129 z" />
<glyph unicode="&#x111;" horiz-adv-x="590" d="M595 646h79l-20 -95h-79l-93 -443q-5 -23 -7.5 -46.5t-3.5 -40.5v-12.5t1 -8.5h-121q-1 6 -1 12.5v14.5t0.5 16.5t1.5 16.5q-17 -26 -49.5 -47.5t-82.5 -21.5q-45 0 -81 17.5t-60.5 47t-37.5 69t-13 85.5q0 63 19 116.5t53 93t80 62t99 22.5q31 0 54.5 -6t40.5 -15.5 t28 -21t17 -21.5l23 111h-106l20 95h106l17 78h133zM290 385q-32 0 -56 -15.5t-40.5 -39.5t-25 -54.5t-8.5 -60.5q0 -51 25.5 -80t70.5 -29q25 0 48.5 12t41 34.5t28 54.5t10.5 73q0 49 -24.5 77t-69.5 28z" />
<glyph unicode="&#x112;" horiz-adv-x="577" d="M21 0l150 709h442l-28 -130h-303l-35 -162h275l-26 -123h-275l-35 -164h304l-27 -130h-442zM247 774l20 100h305l-21 -100h-304z" />
<glyph unicode="&#x113;" horiz-adv-x="548" d="M179 577l21 97h281l-20 -97h-282zM381 302q1 5 1 7.5v4.5q0 14 -5 29t-16 27.5t-28.5 20.5t-43.5 8q-51 0 -81.5 -28.5t-42.5 -68.5h216zM151 210q0 -48 28 -81t82 -33q41 0 68.5 19t41.5 45l102 -51q-12 -24 -31.5 -46.5t-47 -39.5t-63 -27.5t-78.5 -10.5q-46 0 -87 16 t-72 45.5t-49 71.5t-18 94q0 68 22.5 122.5t60 93t84.5 59t97 20.5q51 0 91.5 -15.5t68 -43t42 -65.5t14.5 -83q0 -22 -4 -45.5t-10 -43.5z" />
<glyph unicode="&#x114;" horiz-adv-x="577" d="M21 0l150 709h442l-28 -130h-303l-35 -162h275l-26 -123h-275l-35 -164h304l-27 -130h-442zM396 754q-64 0 -104.5 31.5t-40.5 86.5q0 3 0.5 9t1.5 8h96q-1 -5 -1 -10q0 -17 13 -29t41 -12q32 0 50 15.5t23 35.5h104q-7 -24 -21.5 -48.5t-37.5 -43.5t-54 -31t-70 -12z " />
<glyph unicode="&#x115;" horiz-adv-x="548" d="M381 302q1 5 1 7.5v4.5q0 14 -5 29t-16 27.5t-28.5 20.5t-43.5 8q-51 0 -81.5 -28.5t-42.5 -68.5h216zM151 210q0 -48 28 -81t82 -33q41 0 68.5 19t41.5 45l102 -51q-12 -24 -31.5 -46.5t-47 -39.5t-63 -27.5t-78.5 -10.5q-46 0 -87 16t-72 45.5t-49 71.5t-18 94 q0 68 22.5 122.5t60 93t84.5 59t97 20.5q51 0 91.5 -15.5t68 -43t42 -65.5t14.5 -83q0 -22 -4 -45.5t-10 -43.5zM325 549q-35 0 -61 10.5t-43.5 28t-26 40.5t-8.5 48q0 9 0.5 14t1.5 11h87q-1 -4 -1 -8q0 -19 12.5 -35.5t45.5 -16.5q19 0 32.5 5.5t23 14.5t15.5 19.5t9 20.5 h98q-7 -30 -21.5 -57.5t-37.5 -48.5t-54.5 -33.5t-71.5 -12.5z" />
<glyph unicode="&#x116;" horiz-adv-x="577" d="M328 827q0 16 7 31.5t19 27.5t28.5 19.5t34.5 7.5q32 0 52.5 -20.5t20.5 -49.5q0 -19 -7 -35t-19 -28t-28 -19t-34 -7q-33 0 -53.5 21.5t-20.5 51.5zM21 0l150 709h442l-28 -130h-303l-35 -162h275l-26 -123h-275l-35 -164h304l-27 -130h-442z" />
<glyph unicode="&#x117;" horiz-adv-x="548" d="M381 302q1 5 1 7.5v4.5q0 14 -5 29t-16 27.5t-28.5 20.5t-43.5 8q-51 0 -81.5 -28.5t-42.5 -68.5h216zM151 210q0 -48 28 -81t82 -33q41 0 68.5 19t41.5 45l102 -51q-12 -24 -31.5 -46.5t-47 -39.5t-63 -27.5t-78.5 -10.5q-46 0 -87 16t-72 45.5t-49 71.5t-18 94 q0 68 22.5 122.5t60 93t84.5 59t97 20.5q51 0 91.5 -15.5t68 -43t42 -65.5t14.5 -83q0 -22 -4 -45.5t-10 -43.5zM248 619q0 17 6.5 33t18.5 28t28 19.5t35 7.5q32 0 52 -20.5t20 -49.5q0 -19 -7 -35.5t-19 -28.5t-27.5 -19t-33.5 -7q-32 0 -52.5 21.5t-20.5 50.5z" />
<glyph unicode="&#x118;" horiz-adv-x="577" d="M463 0q-17 -6 -34.5 -16t-32 -22.5t-24 -27.5t-9.5 -33q0 -20 13.5 -30t33.5 -11q16 0 24 2l-16 -79q-18 -6 -44 -6q-45 0 -77.5 26t-32.5 72t23.5 76t54.5 49h-321l150 709h442l-28 -130h-303l-35 -162h275l-26 -123h-275l-35 -164h304z" />
<glyph unicode="&#x119;" horiz-adv-x="548" d="M151 210q0 -48 28 -81t82 -33q41 0 68.5 19t41.5 45l102 -51q-17 -35 -51.5 -65.5t-82.5 -45.5q-16 -5 -33 -14.5t-30.5 -21.5t-22 -26.5t-8.5 -30.5q0 -23 13.5 -33.5t33.5 -11.5q16 0 24 2l-16 -79q-18 -6 -44 -6q-45 0 -77.5 26t-32.5 72q0 39 18 67t43 47 q-38 7 -71 25.5t-57 47t-38 66.5t-14 84q0 68 22.5 122.5t60 93t84.5 59t97 20.5q51 0 91.5 -15.5t68 -43t42 -65.5t14.5 -83q0 -22 -4 -45.5t-10 -43.5zM381 302q0 2 0.5 6t0.5 6q0 14 -5 29t-16 27.5t-28.5 20.5t-43.5 8q-51 0 -81.5 -28.5t-42.5 -68.5h216z" />
<glyph unicode="&#x11a;" horiz-adv-x="577" d="M614 886l-148 -127h-137l-92 127h115l53 -64l81 64h128zM21 0l150 709h442l-28 -130h-303l-35 -162h275l-26 -123h-275l-35 -164h304l-27 -130h-442z" />
<glyph unicode="&#x11b;" horiz-adv-x="548" d="M515 700l-142 -148h-133l-79 148h103l54 -75l82 75h115zM381 302q1 5 1 7.5v4.5q0 14 -5 29t-16 27.5t-28.5 20.5t-43.5 8q-51 0 -81.5 -28.5t-42.5 -68.5h216zM151 210q0 -48 28 -81t82 -33q41 0 68.5 19t41.5 45l102 -51q-12 -24 -31.5 -46.5t-47 -39.5t-63 -27.5 t-78.5 -10.5q-46 0 -87 16t-72 45.5t-49 71.5t-18 94q0 68 22.5 122.5t60 93t84.5 59t97 20.5q51 0 91.5 -15.5t68 -43t42 -65.5t14.5 -83q0 -22 -4 -45.5t-10 -43.5z" />
<glyph unicode="&#x11c;" horiz-adv-x="765" d="M267 759l146 127h137l94 -127h-116l-54 65l-82 -65h-125zM429 594q-47 0 -89.5 -19.5t-74.5 -56t-51 -88.5t-19 -116q0 -45 12 -82t35.5 -64t57.5 -41.5t78 -14.5q76 0 127 38.5t69 98.5h-220l25 120h348l-77 -369h-106l3 73q-31 -39 -79.5 -62.5t-111.5 -23.5 q-67 0 -122.5 23t-95.5 65t-62 100.5t-22 130.5q0 100 32.5 177.5t86.5 131t123.5 81.5t143.5 28q72 0 125 -19.5t89.5 -51.5t57.5 -72t28 -80l-135 -40q-5 24 -17 48t-33.5 42.5t-52.5 30.5t-73 12z" />
<glyph unicode="&#x11d;" horiz-adv-x="592" d="M166 552l144 147h132l80 -147h-104l-53 75l-85 -75h-114zM387 288q0 41 -25 69t-71 28q-27 0 -50 -10.5t-40.5 -29t-27 -45.5t-9.5 -60q0 -45 26 -73t73 -28q25 0 48 10t39.5 29.5t26.5 47t10 62.5zM90 6q0 -19 6.5 -36.5t19.5 -30.5t33 -21t47 -8q57 0 91.5 34.5 t50.5 99.5l8 33q-14 -19 -44 -34t-72 -15q-46 0 -83 15.5t-62.5 43t-39.5 64.5t-14 81q0 56 18.5 105.5t51.5 86t78.5 57.5t99.5 21q59 0 95 -20t50 -46l12 56h130l-94 -449q-11 -50 -32 -95t-55 -79t-81 -54t-109 -20q-57 0 -99.5 16.5t-70 43.5t-41 60.5t-13.5 66.5z" />
<glyph unicode="&#x11e;" horiz-adv-x="765" d="M469 754q-64 0 -104.5 31.5t-40.5 86.5q0 3 0.5 9t1.5 8h96q-1 -5 -1 -10q0 -17 13 -29t41 -12q32 0 50 15.5t23 35.5h104q-7 -24 -21.5 -48.5t-37.5 -43.5t-54 -31t-70 -12zM429 594q-47 0 -89.5 -19.5t-74.5 -56t-51 -88.5t-19 -116q0 -45 12 -82t35.5 -64t57.5 -41.5 t78 -14.5q76 0 127 38.5t69 98.5h-220l25 120h348l-77 -369h-106l3 73q-31 -39 -79.5 -62.5t-111.5 -23.5q-67 0 -122.5 23t-95.5 65t-62 100.5t-22 130.5q0 100 32.5 177.5t86.5 131t123.5 81.5t143.5 28q72 0 125 -19.5t89.5 -51.5t57.5 -72t28 -80l-135 -40q-5 24 -17 48 t-33.5 42.5t-52.5 30.5t-73 12z" />
<glyph unicode="&#x11f;" horiz-adv-x="592" d="M387 288q0 41 -25 69t-71 28q-27 0 -50 -10.5t-40.5 -29t-27 -45.5t-9.5 -60q0 -45 26 -73t73 -28q25 0 48 10t39.5 29.5t26.5 47t10 62.5zM90 6q0 -19 6.5 -36.5t19.5 -30.5t33 -21t47 -8q57 0 91.5 34.5t50.5 99.5l8 33q-14 -19 -44 -34t-72 -15q-46 0 -83 15.5 t-62.5 43t-39.5 64.5t-14 81q0 56 18.5 105.5t51.5 86t78.5 57.5t99.5 21q59 0 95 -20t50 -46l12 56h130l-94 -449q-11 -50 -32 -95t-55 -79t-81 -54t-109 -20q-57 0 -99.5 16.5t-70 43.5t-41 60.5t-13.5 66.5zM338 549q-35 0 -61 10.5t-43.5 28t-26 40.5t-8.5 48 q0 9 0.5 14t1.5 11h87q-1 -4 -1 -8q0 -19 12.5 -35.5t45.5 -16.5q19 0 32.5 5.5t23 14.5t15.5 19.5t9 20.5h98q-7 -30 -21.5 -57.5t-37.5 -48.5t-54.5 -33.5t-71.5 -12.5z" />
<glyph unicode="&#x120;" horiz-adv-x="765" d="M398 830q0 16 7 31.5t19 27.5t28.5 19.5t34.5 7.5q32 0 52.5 -20.5t20.5 -49.5q0 -19 -7 -35t-19 -28t-28 -19t-34 -7q-33 0 -53.5 21.5t-20.5 51.5zM429 594q-47 0 -89.5 -19.5t-74.5 -56t-51 -88.5t-19 -116q0 -45 12 -82t35.5 -64t57.5 -41.5t78 -14.5q76 0 127 38.5 t69 98.5h-220l25 120h348l-77 -369h-106l3 73q-31 -39 -79.5 -62.5t-111.5 -23.5q-67 0 -122.5 23t-95.5 65t-62 100.5t-22 130.5q0 100 32.5 177.5t86.5 131t123.5 81.5t143.5 28q72 0 125 -19.5t89.5 -51.5t57.5 -72t28 -80l-135 -40q-5 24 -17 48t-33.5 42.5t-52.5 30.5 t-73 12z" />
<glyph unicode="&#x121;" horiz-adv-x="592" d="M261 619q0 17 6.5 33t18.5 28t28 19.5t35 7.5q32 0 52 -20.5t20 -49.5q0 -19 -7 -35.5t-19 -28.5t-27.5 -19t-33.5 -7q-32 0 -52.5 21.5t-20.5 50.5zM387 288q0 41 -25 69t-71 28q-27 0 -50 -10.5t-40.5 -29t-27 -45.5t-9.5 -60q0 -45 26 -73t73 -28q25 0 48 10 t39.5 29.5t26.5 47t10 62.5zM90 6q0 -19 6.5 -36.5t19.5 -30.5t33 -21t47 -8q57 0 91.5 34.5t50.5 99.5l8 33q-14 -19 -44 -34t-72 -15q-46 0 -83 15.5t-62.5 43t-39.5 64.5t-14 81q0 56 18.5 105.5t51.5 86t78.5 57.5t99.5 21q59 0 95 -20t50 -46l12 56h130l-94 -449 q-11 -50 -32 -95t-55 -79t-81 -54t-109 -20q-57 0 -99.5 16.5t-70 43.5t-41 60.5t-13.5 66.5z" />
<glyph unicode="&#x122;" horiz-adv-x="765" d="M250 -111q0 29 21.5 49t54.5 20q35 0 55 -21.5t20 -53.5q0 -33 -12 -58t-32 -41.5t-45 -25t-51 -8.5q-10 0 -18 1t-11 2l11 47q4 -1 8 -1h6q22 0 44 8t31 31q-1 -1 -7 -2.5t-14 -1.5q-30 0 -45.5 16.5t-15.5 38.5zM429 594q-47 0 -89.5 -19.5t-74.5 -56t-51 -88.5 t-19 -116q0 -45 12 -82t35.5 -64t57.5 -41.5t78 -14.5q76 0 127 38.5t69 98.5h-220l25 120h348l-77 -369h-106l3 73q-31 -39 -79.5 -62.5t-111.5 -23.5q-67 0 -122.5 23t-95.5 65t-62 100.5t-22 130.5q0 100 32.5 177.5t86.5 131t123.5 81.5t143.5 28q72 0 125 -19.5 t89.5 -51.5t57.5 -72t28 -80l-135 -40q-5 24 -17 48t-33.5 42.5t-52.5 30.5t-73 12z" />
<glyph unicode="&#x123;" horiz-adv-x="592" d="M409 613q0 -29 -21.5 -49.5t-54.5 -20.5t-53.5 22t-20.5 54q0 33 12.5 58t33 42t46.5 25.5t52 8.5q8 0 13 -0.5t10 -1.5l-10 -49q-2 1 -7.5 1.5t-8.5 0.5q-34 0 -52 -14t-22 -26q1 1 8 3t15 2q31 0 45.5 -17t14.5 -39zM387 288q0 41 -25 69t-71 28q-27 0 -50 -10.5 t-40.5 -29t-27 -45.5t-9.5 -60q0 -45 26 -73t73 -28q25 0 48 10t39.5 29.5t26.5 47t10 62.5zM90 6q0 -19 6.5 -36.5t19.5 -30.5t33 -21t47 -8q57 0 91.5 34.5t50.5 99.5l8 33q-14 -19 -44 -34t-72 -15q-46 0 -83 15.5t-62.5 43t-39.5 64.5t-14 81q0 56 18.5 105.5t51.5 86 t78.5 57.5t99.5 21q59 0 95 -20t50 -46l12 56h130l-94 -449q-11 -50 -32 -95t-55 -79t-81 -54t-109 -20q-57 0 -99.5 16.5t-70 43.5t-41 60.5t-13.5 66.5z" />
<glyph unicode="&#x124;" horiz-adv-x="729" d="M269 759l146 127h137l94 -127h-116l-54 65l-82 -65h-125zM444 0l62 294h-285l-62 -294h-138l150 709h138l-60 -285h285l60 285h139l-150 -709h-139z" />
<glyph unicode="&#x125;" horiz-adv-x="570" d="M313 0l61 285q3 15 3 29q0 33 -19 53t-56 20q-43 0 -69 -30.5t-35 -71.5l-62 -285h-132l153 724h133l-57 -272q24 28 58.5 40.5t70.5 12.5q37 0 66 -11.5t48.5 -32.5t29.5 -49.5t10 -61.5q0 -25 -6 -52l-64 -298h-133zM186 769l146 127h137l94 -127h-116l-54 65l-82 -65 h-125z" />
<glyph unicode="&#x126;" horiz-adv-x="745" d="M77 604h80l22 105h138l-22 -105h285l22 105h139l-22 -105h79l-18 -87h-80l-109 -517h-139l62 294h-285l-62 -294h-138l109 517h-79zM542 424l19 93h-285l-19 -93h285z" />
<glyph unicode="&#x127;" horiz-adv-x="570" d="M313 0l61 285q3 15 3 29q0 33 -19 53t-56 20q-43 0 -69 -30.5t-35 -71.5l-62 -285h-132l116 552h-76l21 95h75l17 77h133l-16 -77h115l-21 -95h-114l-21 -100q24 28 58.5 40.5t70.5 12.5q37 0 66 -11.5t48.5 -32.5t29.5 -49.5t10 -61.5q0 -25 -6 -52l-64 -298h-133z" />
<glyph unicode="&#x128;" horiz-adv-x="307" d="M21 0l150 709h140l-150 -709h-140zM445 890q-11 -76 -45 -106.5t-78 -30.5q-23 0 -41 7.5t-32 16.5l-5 3q-13 8 -24.5 14t-22.5 6q-13 0 -22.5 -10t-13.5 -33h-85q4 38 15.5 64t29 42t38.5 23t43 7q23 0 41.5 -8t32.5 -17l3 -2q14 -9 23.5 -14t20.5 -5q14 0 23.5 10 t13.5 33h85z" />
<glyph unicode="&#x129;" horiz-adv-x="267" d="M4 0l105 492h133l-105 -492h-133zM12 556q4 39 16.5 66t30.5 44t39.5 24.5t44.5 7.5q24 0 41 -7t31 -16l5 -3q11 -8 21.5 -13.5t23.5 -5.5q33 0 41 44h86q-11 -77 -47 -110t-80 -33q-21 0 -40 7t-33 16l-8 5q-9 5 -19.5 11t-24.5 6q-16 0 -26.5 -10t-15.5 -33h-86z" />
<glyph unicode="&#x12a;" horiz-adv-x="307" d="M21 0l150 709h140l-150 -709h-140zM98 774l20 100h305l-21 -100h-304z" />
<glyph unicode="&#x12b;" horiz-adv-x="267" d="M4 0l105 492h133l-105 -492h-133zM48 577l21 97h281l-20 -97h-282z" />
<glyph unicode="&#x12c;" horiz-adv-x="307" d="M21 0l150 709h140l-150 -709h-140zM257 754q-64 0 -104.5 31.5t-40.5 86.5q0 3 0.5 9t1.5 8h96q-1 -5 -1 -10q0 -17 13 -29t41 -12q32 0 50 15.5t23 35.5h104q-7 -24 -21.5 -48.5t-37.5 -43.5t-54 -31t-70 -12z" />
<glyph unicode="&#x12d;" horiz-adv-x="267" d="M4 0l105 492h133l-105 -492h-133zM185 549q-35 0 -61 10.5t-43.5 28t-26 40.5t-8.5 48q0 9 0.5 14t1.5 11h87q-1 -4 -1 -8q0 -19 12.5 -35.5t45.5 -16.5q19 0 32.5 5.5t23 14.5t15.5 19.5t9 20.5h98q-7 -30 -21.5 -57.5t-37.5 -48.5t-54.5 -33.5t-71.5 -12.5z" />
<glyph unicode="&#x12e;" horiz-adv-x="307" d="M72 -223q-45 0 -77.5 26t-32.5 72t24 76t54 49h-19l150 709h140l-150 -709q-17 -6 -34.5 -16t-32 -22.5t-24 -27.5t-9.5 -33q0 -20 13.5 -30t33.5 -11q16 0 24 2l-16 -79q-18 -6 -44 -6z" />
<glyph unicode="&#x12f;" horiz-adv-x="266" d="M47 -223q-45 0 -77.5 26t-32.5 72t23.5 76t54.5 49h-11l105 492h132l-105 -492q-17 -6 -34.5 -16t-32 -22.5t-24 -27.5t-9.5 -33q0 -20 13.5 -30t33.5 -11q16 0 24 2l-16 -79q-18 -6 -44 -6zM126 648q0 37 26.5 63t63.5 26q33 0 53.5 -21t20.5 -51q0 -20 -7.5 -36 t-20.5 -28t-29 -18.5t-34 -6.5q-32 0 -52.5 20.5t-20.5 51.5z" />
<glyph unicode="&#x130;" horiz-adv-x="307" d="M21 0l150 709h140l-150 -709h-140zM183 827q0 16 7 31.5t19 27.5t28.5 19.5t34.5 7.5q32 0 52.5 -20.5t20.5 -49.5q0 -19 -7 -35t-19 -28t-28 -19t-34 -7q-33 0 -53.5 21.5t-20.5 51.5z" />
<glyph unicode="&#x131;" horiz-adv-x="267" d="M4 0l105 492h133l-105 -492h-133z" />
<glyph unicode="&#x132;" horiz-adv-x="604" d="M84 340l81 369h131l-78 -357zM614 709l-109 -512q-10 -48 -31.5 -87t-52.5 -66.5t-71 -43t-87 -15.5q-50 0 -88.5 14.5t-65 41t-40.5 62.5t-14 78q0 14 1.5 32.5t4.5 31.5l4 16l136 20l-9 -40q-3 -12 -4 -21.5t-1 -17.5q0 -36 20 -61.5t63 -25.5q39 0 64 26.5t34 70.5 l106 497h140z" />
<glyph unicode="&#x133;" horiz-adv-x="532" d="M126 648q0 37 26.5 63t63.5 26q33 0 53.5 -21t20.5 -51q0 -20 -7.5 -36t-20.5 -28t-29 -18.5t-34 -6.5q-32 0 -52.5 20.5t-20.5 51.5zM4 0l105 492h132l-105 -492h-132zM375 492h132l-118 -554q-15 -72 -59 -107.5t-106 -35.5q-36 0 -59 8.5t-30 13.5l22 104 q1 0 13.5 -4.5t32.5 -4.5q24 1 39 14t20 42zM392 648q0 37 26.5 63t63.5 26q33 0 53.5 -21t20.5 -51q0 -20 -7.5 -36t-20.5 -28t-29 -18.5t-34 -6.5q-32 0 -52.5 20.5t-20.5 51.5z" />
<glyph unicode="&#x134;" horiz-adv-x="550" d="M302 759l146 127h137l94 -127h-116l-54 65l-82 -65h-125zM560 709l-109 -512q-10 -48 -31.5 -87t-52.5 -66.5t-71 -43t-87 -15.5q-50 0 -88.5 14.5t-65 41t-40.5 62.5t-14 78q0 14 1 30.5t5 33.5l6 26l135 19l-11 -55q-2 -8 -3 -16.5t-1 -16.5q0 -36 20 -61.5t63 -25.5 q39 0 64 26.5t34 70.5l106 497h140z" />
<glyph unicode="&#x135;" horiz-adv-x="266" d="M5 552l144 147h132l80 -147h-104l-53 75l-85 -75h-114zM109 492h132l-118 -554q-15 -72 -59 -107.5t-106 -35.5q-36 0 -59 8.5t-30 13.5l22 104q1 0 13.5 -4.5t32.5 -4.5q24 1 39 14t20 42z" />
<glyph unicode="&#x136;" horiz-adv-x="681" d="M304 294l-103 -93l-42 -201h-138l150 709h138l-63 -299l332 299h190l-355 -318l205 -391h-162zM216 -111q0 29 21.5 49t54.5 20q35 0 55 -21.5t20 -53.5q0 -33 -12 -58t-32 -41.5t-45 -25t-51 -8.5q-10 0 -18 1t-11 2l11 47q4 -1 8 -1h6q22 0 44 8t31 31q-1 -1 -7 -2.5 t-14 -1.5q-30 0 -45.5 16.5t-15.5 38.5z" />
<glyph unicode="&#x137;" horiz-adv-x="553" d="M239 197l-75 -64l-28 -133h-132l153 724h133l-86 -404l196 172h185l-245 -209l140 -283h-149zM138 -111q0 29 21.5 49t54.5 20q35 0 55 -21.5t20 -53.5q0 -33 -12 -58t-32 -41.5t-45 -25t-51 -8.5q-10 0 -18 1t-11 2l11 47q4 -1 8 -1h6q22 0 44 8t31 31q-1 -1 -7 -2.5 t-14 -1.5q-30 0 -45.5 16.5t-15.5 38.5z" />
<glyph unicode="&#x138;" horiz-adv-x="553" d="M239 197l-75 -64l-28 -133h-132l104 492h133l-37 -172l196 172h185l-245 -209l140 -283h-149z" />
<glyph unicode="&#x139;" horiz-adv-x="544" d="M314 759h-128l128 127h169zM21 0l150 709h138l-122 -577h308l-28 -132h-446z" />
<glyph unicode="&#x13a;" horiz-adv-x="265" d="M293 769h-128l128 127h169zM4 0l153 724h133l-154 -724h-132z" />
<glyph unicode="&#x13b;" horiz-adv-x="544" d="M163 -111q0 29 21.5 49t54.5 20q35 0 55 -21.5t20 -53.5q0 -33 -12 -58t-32 -41.5t-45 -25t-51 -8.5q-10 0 -18 1t-11 2l11 47q4 -1 8 -1h6q22 0 44 8t31 31q-1 -1 -7 -2.5t-14 -1.5q-30 0 -45.5 16.5t-15.5 38.5zM21 0l150 709h138l-122 -577h308l-28 -132h-446z" />
<glyph unicode="&#x13c;" horiz-adv-x="265" d="M-28 -111q0 29 21.5 49t54.5 20q35 0 55 -21.5t20 -53.5q0 -33 -12 -58t-32 -41.5t-45 -25t-51 -8.5q-10 0 -18 1t-11 2l11 47q4 -1 8 -1h6q22 0 44 8t31 31q-1 -1 -7 -2.5t-14 -1.5q-30 0 -45.5 16.5t-15.5 38.5zM4 0l153 724h133l-154 -724h-132z" />
<glyph unicode="&#x13d;" horiz-adv-x="544" d="M21 0l150 709h138l-122 -577h308l-28 -132h-446zM448 552h-97l73 208h142z" />
<glyph unicode="&#x13e;" horiz-adv-x="266" d="M389 526h-93l70 198h136zM4 0l153 724h133l-154 -724h-132z" />
<glyph unicode="&#x13f;" horiz-adv-x="544" d="M323 386q0 16 7 31.5t19 27.5t28.5 19.5t34.5 7.5q32 0 52.5 -20.5t20.5 -49.5q0 -19 -7 -35t-19 -28t-28 -19t-34 -7q-33 0 -53.5 21.5t-20.5 51.5zM21 0l150 709h138l-122 -577h308l-28 -132h-446z" />
<glyph unicode="&#x140;" horiz-adv-x="396" d="M4 0l153 724h133l-154 -724h-132zM256 322q0 17 6.5 33t18.5 28t28 19.5t35 7.5q32 0 52 -20.5t20 -49.5q0 -19 -7 -35.5t-19 -28.5t-27.5 -19t-33.5 -7q-32 0 -52.5 21.5t-20.5 50.5z" />
<glyph unicode="&#x141;" horiz-adv-x="567" d="M45 0l60 283l-102 -42l24 111l101 41l67 316h138l-54 -254l152 63l-23 -110l-152 -63l-45 -213h308l-28 -132h-446z" />
<glyph unicode="&#x142;" horiz-adv-x="370" d="M56 0l61 287l-93 -38l24 111l92 37l69 327h133l-57 -267l103 42l-24 -110l-102 -42l-74 -347h-132z" />
<glyph unicode="&#x143;" horiz-adv-x="753" d="M517 759h-128l128 127h169zM469 0l-205 501l-106 -501h-137l150 709h159l188 -473l101 473h138l-150 -709h-138z" />
<glyph unicode="&#x144;" horiz-adv-x="571" d="M363 551h-114l120 150h162zM314 0l61 285q3 15 3 29q0 33 -19 53t-56 20q-43 0 -69 -30.5t-35 -71.5l-62 -285h-132l86 408q8 35 9 57t1 27h129q0 -6 -0.5 -20.5t-2.5 -29.5q24 34 62 48.5t76 14.5q74 0 113 -44t39 -111q0 -25 -6 -52l-64 -298h-133z" />
<glyph unicode="&#x145;" horiz-adv-x="753" d="M248 -111q0 29 21.5 49t54.5 20q35 0 55 -21.5t20 -53.5q0 -33 -12 -58t-32 -41.5t-45 -25t-51 -8.5q-10 0 -18 1t-11 2l11 47q4 -1 8 -1h6q22 0 44 8t31 31q-1 -1 -7 -2.5t-14 -1.5q-30 0 -45.5 16.5t-15.5 38.5zM469 0l-205 501l-106 -501h-137l150 709h159l188 -473 l101 473h138l-150 -709h-138z" />
<glyph unicode="&#x146;" horiz-adv-x="571" d="M142 -111q0 29 21.5 49t54.5 20q35 0 55 -21.5t20 -53.5q0 -33 -12 -58t-32 -41.5t-45 -25t-51 -8.5q-10 0 -18 1t-11 2l11 47q4 -1 8 -1h6q22 0 44 8t31 31q-1 -1 -7 -2.5t-14 -1.5q-30 0 -45.5 16.5t-15.5 38.5zM314 0l61 285q3 15 3 29q0 33 -19 53t-56 20 q-43 0 -69 -30.5t-35 -71.5l-62 -285h-132l86 408q8 35 9 57t1 27h129q0 -6 -0.5 -20.5t-2.5 -29.5q24 34 62 48.5t76 14.5q74 0 113 -44t39 -111q0 -25 -6 -52l-64 -298h-133z" />
<glyph unicode="&#x147;" horiz-adv-x="753" d="M681 886l-148 -127h-137l-92 127h115l53 -64l81 64h128zM469 0l-205 501l-106 -501h-137l150 709h159l188 -473l101 473h138l-150 -709h-138z" />
<glyph unicode="&#x148;" horiz-adv-x="571" d="M531 700l-142 -148h-133l-79 148h103l54 -75l82 75h115zM314 0l61 285q3 15 3 29q0 33 -19 53t-56 20q-43 0 -69 -30.5t-35 -71.5l-62 -285h-132l86 408q8 35 9 57t1 27h129q0 -6 -0.5 -20.5t-2.5 -29.5q24 34 62 48.5t76 14.5q74 0 113 -44t39 -111q0 -25 -6 -52 l-64 -298h-133z" />
<glyph unicode="&#x149;" horiz-adv-x="571" d="M124 587q5 -1 15 -1q22 0 43 8t32 31q-2 -1 -8 -2.5t-14 -1.5q-30 0 -45.5 16.5t-15.5 38.5q0 29 22 49t54 20q35 0 54.5 -20.5t19.5 -53.5q0 -32 -11.5 -56.5t-30.5 -42t-45 -26.5t-54 -9q-6 0 -12.5 0.5t-13.5 1.5zM314 0l61 285q3 15 3 29q0 33 -19 53t-56 20 q-43 0 -69 -30.5t-35 -71.5l-62 -285h-132l86 408q8 35 9 57t1 27h129q0 -6 -0.5 -20.5t-2.5 -29.5q24 34 62 48.5t76 14.5q74 0 113 -44t39 -111q0 -25 -6 -52l-64 -298h-133z" />
<glyph unicode="&#x14a;" horiz-adv-x="753" d="M471 -4l-207 505l-106 -501h-137l150 709h159l188 -473l101 473h138l-163 -769q-14 -67 -61 -105.5t-111 -38.5q-42 0 -67.5 9.5t-28.5 11.5l24 111q1 -1 15.5 -6t37.5 -5q26 0 41.5 14t20.5 37z" />
<glyph unicode="&#x14b;" horiz-adv-x="571" d="M267 -209q-35 0 -58.5 8.5t-30.5 13.5l22 104q5 -2 16 -5.5t27 -3.5q29 0 43 13t20 42l69 322q3 15 3 29q0 33 -19 53t-56 20q-43 0 -69 -30.5t-35 -71.5l-62 -285h-132l86 408q8 35 9 57t1 27h129q0 -5 -0.5 -19.5t-2.5 -30.5q24 34 62 48.5t76 14.5q74 0 112.5 -44 t38.5 -111q0 -13 -1 -25.5t-4 -26.5l-78 -365q-15 -71 -59 -106.5t-107 -35.5z" />
<glyph unicode="&#x14c;" horiz-adv-x="778" d="M310 774l20 100h305l-21 -100h-304zM54 302q0 101 32.5 179.5t85.5 132.5t122 82t141 28q71 0 128.5 -23t98.5 -64.5t63.5 -100t22.5 -129.5q0 -101 -32.5 -179.5t-85.5 -132.5t-121.5 -82t-140.5 -28q-71 0 -128.5 23t-99 65t-64 100t-22.5 129zM606 399q0 90 -47.5 142 t-131.5 52q-50 0 -92 -22t-73.5 -60.5t-49 -89.5t-17.5 -109q0 -90 49 -142t130 -52q48 0 89.5 20.5t73 57.5t50 89t19.5 114z" />
<glyph unicode="&#x14d;" horiz-adv-x="575" d="M183 577l21 97h281l-20 -97h-282zM293 386q-29 0 -53 -12.5t-42 -35t-28 -53t-10 -65.5q0 -54 28 -84t73 -30q23 0 47 10.5t43 31t31 52t12 73.5q0 54 -27.5 83.5t-73.5 29.5zM527 278q0 -60 -20.5 -113t-57 -93t-87 -63.5t-110.5 -23.5q-51 0 -93 18t-71 48.5t-45 72.5 t-16 90q0 65 21.5 119t59 92.5t88 60t107.5 21.5q52 0 94 -18t70.5 -48.5t44 -72.5t15.5 -90z" />
<glyph unicode="&#x14e;" horiz-adv-x="778" d="M478 754q-64 0 -104.5 31.5t-40.5 86.5q0 3 0.5 9t1.5 8h96q-1 -5 -1 -10q0 -17 13 -29t41 -12q32 0 50 15.5t23 35.5h104q-7 -24 -21.5 -48.5t-37.5 -43.5t-54 -31t-70 -12zM54 302q0 101 32.5 179.5t85.5 132.5t122 82t141 28q71 0 128.5 -23t98.5 -64.5t63.5 -100 t22.5 -129.5q0 -101 -32.5 -179.5t-85.5 -132.5t-121.5 -82t-140.5 -28q-71 0 -128.5 23t-99 65t-64 100t-22.5 129zM606 399q0 90 -47.5 142t-131.5 52q-50 0 -92 -22t-73.5 -60.5t-49 -89.5t-17.5 -109q0 -90 49 -142t130 -52q48 0 89.5 20.5t73 57.5t50 89t19.5 114z" />
<glyph unicode="&#x14f;" horiz-adv-x="575" d="M293 386q-29 0 -53 -12.5t-42 -35t-28 -53t-10 -65.5q0 -54 28 -84t73 -30q23 0 47 10.5t43 31t31 52t12 73.5q0 54 -27.5 83.5t-73.5 29.5zM527 278q0 -60 -20.5 -113t-57 -93t-87 -63.5t-110.5 -23.5q-51 0 -93 18t-71 48.5t-45 72.5t-16 90q0 65 21.5 119t59 92.5 t88 60t107.5 21.5q52 0 94 -18t70.5 -48.5t44 -72.5t15.5 -90zM331 549q-35 0 -61 10.5t-43.5 28t-26 40.5t-8.5 48q0 9 0.5 14t1.5 11h87q-1 -4 -1 -8q0 -19 12.5 -35.5t45.5 -16.5q19 0 32.5 5.5t23 14.5t15.5 19.5t9 20.5h98q-7 -30 -21.5 -57.5t-37.5 -48.5t-54.5 -33.5 t-71.5 -12.5z" />
<glyph unicode="&#x150;" horiz-adv-x="778" d="M408 759h-88l78 127h131zM568 759h-90l92 127h132zM54 302q0 101 32.5 179.5t85.5 132.5t122 82t141 28q71 0 128.5 -23t98.5 -64.5t63.5 -100t22.5 -129.5q0 -101 -32.5 -179.5t-85.5 -132.5t-121.5 -82t-140.5 -28q-71 0 -128.5 23t-99 65t-64 100t-22.5 129zM606 399 q0 90 -47.5 142t-131.5 52q-50 0 -92 -22t-73.5 -60.5t-49 -89.5t-17.5 -109q0 -90 49 -142t130 -52q48 0 89.5 20.5t73 57.5t50 89t19.5 114z" />
<glyph unicode="&#x151;" horiz-adv-x="575" d="M271 551h-88l84 150h134zM424 551h-89l99 150h135zM293 386q-29 0 -53 -12.5t-42 -35t-28 -53t-10 -65.5q0 -54 28 -84t73 -30q23 0 47 10.5t43 31t31 52t12 73.5q0 54 -27.5 83.5t-73.5 29.5zM527 278q0 -60 -20.5 -113t-57 -93t-87 -63.5t-110.5 -23.5q-51 0 -93 18 t-71 48.5t-45 72.5t-16 90q0 65 21.5 119t59 92.5t88 60t107.5 21.5q52 0 94 -18t70.5 -48.5t44 -72.5t15.5 -90z" />
<glyph unicode="&#x152;" horiz-adv-x="1085" d="M529 0l11 54q-38 -33 -83.5 -51t-99.5 -18q-68 0 -123.5 23.5t-95.5 65.5t-62 100t-22 128q0 101 32.5 179.5t85.5 132.5t122 82t141 28q48 0 85 -9t64 -24.5t45 -35.5t29 -42l21 96h442l-28 -130h-303l-35 -162h275l-26 -123h-275l-35 -164h304l-27 -130h-442zM606 399 q0 90 -47.5 142t-131.5 52q-52 0 -94.5 -23t-73 -61.5t-47.5 -89.5t-17 -107q0 -90 49 -142t130 -52q48 0 89.5 20.5t73 57.5t50 89t19.5 114z" />
<glyph unicode="&#x153;" horiz-adv-x="912" d="M618 -15q-54 0 -100 21.5t-77 60.5q-35 -38 -82.5 -60t-106.5 -22q-51 0 -93 18t-71 48.5t-45 72.5t-16 90q0 65 21.5 119t59 92.5t88 60t107.5 21.5q60 0 102.5 -21.5t68.5 -58.5q37 38 84 59t97 21q52 0 92 -15.5t67.5 -43t42 -65.5t14.5 -83q0 -22 -3.5 -45.5 t-10.5 -43.5h-341q-1 -3 -1 -7q1 -46 30 -77t80 -31q41 0 68.5 19t41.5 45l102 -51q-12 -24 -31.5 -46.5t-47 -39.5t-62.5 -27.5t-78 -10.5zM745 302q1 2 1 6v6q0 14 -5 29t-16 27.5t-28.5 20.5t-43.5 8q-51 0 -81 -28.5t-43 -68.5h216zM394 273q0 54 -27.5 83.5t-73.5 29.5 q-29 0 -53 -12.5t-42 -35t-28 -53t-10 -65.5q0 -54 28 -84t73 -30q23 0 47 10.5t43 31t31 52t12 73.5z" />
<glyph unicode="&#x154;" horiz-adv-x="638" d="M432 759h-128l128 127h169zM307 274h-90l-58 -274h-138l150 709h247q49 0 87 -14t64 -38t39 -57.5t13 -72.5q0 -45 -13.5 -83t-37 -68t-56 -51t-71.5 -33l110 -292h-147zM348 394q60 0 96 31.5t36 83.5q0 36 -22.5 58t-70.5 22h-103l-42 -195h106z" />
<glyph unicode="&#x155;" horiz-adv-x="384" d="M282 551h-114l120 150h162zM376 357q-12 3 -24 5t-24 2q-22 0 -44 -6.5t-40.5 -22t-33.5 -42t-24 -66.5l-49 -227h-132l86 408q8 35 9.5 57t1.5 27h129q0 -7 -1 -26.5t-5 -34.5q20 28 52 46t85 18q13 0 23.5 -1t18.5 -3z" />
<glyph unicode="&#x156;" horiz-adv-x="638" d="M307 274h-90l-58 -274h-138l150 709h247q49 0 87 -14t64 -38t39 -57.5t13 -72.5q0 -45 -13.5 -83t-37 -68t-56 -51t-71.5 -33l110 -292h-147zM348 394q60 0 96 31.5t36 83.5q0 36 -22.5 58t-70.5 22h-103l-42 -195h106zM194 -111q0 29 21.5 49t54.5 20q35 0 55 -21.5 t20 -53.5q0 -33 -12 -58t-32 -41.5t-45 -25t-51 -8.5q-10 0 -18 1t-11 2l11 47q4 -1 8 -1h6q22 0 44 8t31 31q-1 -1 -7 -2.5t-14 -1.5q-30 0 -45.5 16.5t-15.5 38.5z" />
<glyph unicode="&#x157;" horiz-adv-x="384" d="M376 357q-12 3 -24 5t-24 2q-22 0 -44 -6.5t-40.5 -22t-33.5 -42t-24 -66.5l-49 -227h-132l86 408q8 35 9.5 57t1.5 27h129q0 -7 -1 -26.5t-5 -34.5q20 28 52 46t85 18q13 0 23.5 -1t18.5 -3zM-24 -111q0 29 21.5 49t54.5 20q35 0 55 -21.5t20 -53.5q0 -33 -12 -58 t-32 -41.5t-45 -25t-51 -8.5q-10 0 -18 1t-11 2l11 47q4 -1 8 -1h6q22 0 44 8t31 31q-1 -1 -7 -2.5t-14 -1.5q-30 0 -45.5 16.5t-15.5 38.5z" />
<glyph unicode="&#x158;" horiz-adv-x="638" d="M609 886l-148 -127h-137l-92 127h115l53 -64l81 64h128zM307 274h-90l-58 -274h-138l150 709h247q49 0 87 -14t64 -38t39 -57.5t13 -72.5q0 -45 -13.5 -83t-37 -68t-56 -51t-71.5 -33l110 -292h-147zM348 394q60 0 96 31.5t36 83.5q0 36 -22.5 58t-70.5 22h-103l-42 -195 h106z" />
<glyph unicode="&#x159;" horiz-adv-x="384" d="M463 700l-142 -148h-133l-79 148h103l54 -75l82 75h115zM376 357q-12 3 -24 5t-24 2q-22 0 -44 -6.5t-40.5 -22t-33.5 -42t-24 -66.5l-49 -227h-132l86 408q8 35 9.5 57t1.5 27h129q0 -7 -1 -26.5t-5 -34.5q20 28 52 46t85 18q13 0 23.5 -1t18.5 -3z" />
<glyph unicode="&#x15a;" horiz-adv-x="600" d="M282 105q51 0 80 24.5t30 62.5q0 25 -13.5 45t-46.5 34l-86 38q-68 30 -102.5 77t-34.5 113q0 50 20 91t54 70.5t80 46t97 16.5q70 0 116.5 -21.5t74.5 -53t39 -67t11 -63.5l-129 -22q0 10 -3.5 28t-15.5 35.5t-35.5 30.5t-63.5 13q-24 0 -43.5 -7.5t-33.5 -20 t-21.5 -28.5t-7.5 -34q0 -29 16 -48t40 -30l82 -36q79 -35 113.5 -83.5t34.5 -112.5q0 -42 -17 -81t-49 -69.5t-78.5 -49t-105.5 -18.5q-74 0 -124.5 22.5t-82.5 56.5t-46 75t-14 78v9.5t2 11.5l129 22q-1 -7 -1 -11v-10q0 -25 7.5 -48.5t24 -42.5t42 -30.5t61.5 -12.5z M446 759h-128l128 127h169z" />
<glyph unicode="&#x15b;" horiz-adv-x="458" d="M326 551h-114l120 150h162zM117 171q-1 -4 -1 -9q0 -32 21 -54.5t57 -22.5q32 0 46.5 15t14.5 34q0 14 -7.5 26t-29.5 22l-55 24q-57 24 -81 58.5t-24 79.5q0 33 13.5 62.5t38 52t59.5 35.5t77 13q55 0 90 -15.5t55.5 -39t28.5 -49.5t9 -47l-115 -18q0 12 -3.5 24 t-11.5 22.5t-22 17t-35 6.5q-26 0 -42.5 -14.5t-16.5 -34.5q0 -29 31 -42l63 -27q57 -25 83 -62t26 -82q0 -28 -11.5 -56.5t-35.5 -52t-59.5 -38t-83.5 -14.5q-62 0 -99.5 18.5t-58 44.5t-27.5 54.5t-7 48.5z" />
<glyph unicode="&#x15c;" horiz-adv-x="600" d="M205 759l146 127h137l94 -127h-116l-54 65l-82 -65h-125zM282 105q51 0 80 24.5t30 62.5q0 25 -13.5 45t-46.5 34l-86 38q-68 30 -102.5 77t-34.5 113q0 50 20 91t54 70.5t80 46t97 16.5q70 0 116.5 -21.5t74.5 -53t39 -67t11 -63.5l-129 -22q0 10 -3.5 28t-15.5 35.5 t-35.5 30.5t-63.5 13q-24 0 -43.5 -7.5t-33.5 -20t-21.5 -28.5t-7.5 -34q0 -29 16 -48t40 -30l82 -36q79 -35 113.5 -83.5t34.5 -112.5q0 -42 -17 -81t-49 -69.5t-78.5 -49t-105.5 -18.5q-74 0 -124.5 22.5t-82.5 56.5t-46 75t-14 78v9.5t2 11.5l129 22q-1 -7 -1 -11v-10 q0 -25 7.5 -48.5t24 -42.5t42 -30.5t61.5 -12.5z" />
<glyph unicode="&#x15d;" horiz-adv-x="458" d="M100 552l144 147h132l80 -147h-104l-53 75l-85 -75h-114zM117 171q-1 -4 -1 -9q0 -32 21 -54.5t57 -22.5q32 0 46.5 15t14.5 34q0 14 -7.5 26t-29.5 22l-55 24q-57 24 -81 58.5t-24 79.5q0 33 13.5 62.5t38 52t59.5 35.5t77 13q55 0 90 -15.5t55.5 -39t28.5 -49.5t9 -47 l-115 -18q0 12 -3.5 24t-11.5 22.5t-22 17t-35 6.5q-26 0 -42.5 -14.5t-16.5 -34.5q0 -29 31 -42l63 -27q57 -25 83 -62t26 -82q0 -28 -11.5 -56.5t-35.5 -52t-59.5 -38t-83.5 -14.5q-62 0 -99.5 18.5t-58 44.5t-27.5 54.5t-7 48.5z" />
<glyph unicode="&#x15e;" horiz-adv-x="600" d="M206 -7q-51 11 -87 35.5t-58.5 56t-33 66t-10.5 66.5v6.5t2 14.5l129 22q-1 -7 -1 -12.5v-8.5q0 -28 9 -52.5t26 -42.5t42 -28.5t58 -10.5q51 0 80 24.5t30 62.5q0 25 -13.5 45t-46.5 34l-86 38q-68 30 -102.5 77t-34.5 113q0 50 20 91t54 70.5t80 46t97 16.5 q70 0 116.5 -21.5t74.5 -53t39 -67t11 -63.5l-129 -22q0 10 -3.5 28t-15.5 35.5t-35.5 30.5t-63.5 13q-24 0 -43.5 -7.5t-33.5 -20t-21.5 -28.5t-7.5 -34q0 -29 16 -48t40 -30l82 -36q79 -35 113.5 -83.5t34.5 -112.5q0 -41 -16.5 -80t-48 -69t-77 -49t-103.5 -20l-39 -38 q36 -4 56 -25.5t20 -50.5q0 -18 -7.5 -36t-23 -32t-39 -23t-55.5 -9q-29 0 -52 8t-39.5 19t-26.5 22.5t-13 18.5l55 46q3 -5 8.5 -12.5t14.5 -15t21 -12.5t29 -5t29 7.5t12 21.5q0 15 -11.5 22t-28.5 7q-5 0 -9 -0.5t-8 -1.5l-24 50z" />
<glyph unicode="&#x15f;" horiz-adv-x="459" d="M177 -53q36 -4 56 -25.5t20 -50.5q0 -18 -7.5 -36t-23 -32t-39 -23t-55.5 -9q-29 0 -52 8t-39.5 19t-26.5 22.5t-13 18.5l55 46q3 -5 8.5 -12.5t14.5 -15t21 -12.5t29 -5t29 7.5t12 21.5q0 15 -11.5 22t-28.5 7q-5 0 -9 -0.5t-8 -1.5l-24 50l47 46q-41 9 -66 28.5 t-38.5 43t-18.5 47t-5 40.5l113 20q-1 -5 -1 -9q0 -32 21 -54.5t57 -22.5q32 0 46.5 15t14.5 34q0 14 -7.5 26t-29.5 22l-55 24q-57 24 -81 58.5t-24 79.5q0 33 13.5 62.5t38 52t59.5 35.5t77 13q55 0 90 -15.5t55.5 -39t28.5 -49.5t9 -47l-115 -18q0 12 -3.5 24t-11.5 22.5 t-22 17t-35 6.5q-26 0 -42.5 -14.5t-16.5 -34.5q0 -29 31 -42l63 -27q57 -25 83 -62t26 -82q0 -27 -10 -54t-31 -49.5t-52.5 -38t-74.5 -18.5z" />
<glyph unicode="&#x160;" horiz-adv-x="600" d="M609 886l-148 -127h-137l-92 127h115l53 -64l81 64h128zM282 105q51 0 80 24.5t30 62.5q0 25 -13.5 45t-46.5 34l-86 38q-68 30 -102.5 77t-34.5 113q0 50 20 91t54 70.5t80 46t97 16.5q70 0 116.5 -21.5t74.5 -53t39 -67t11 -63.5l-129 -22q0 10 -3.5 28t-15.5 35.5 t-35.5 30.5t-63.5 13q-24 0 -43.5 -7.5t-33.5 -20t-21.5 -28.5t-7.5 -34q0 -29 16 -48t40 -30l82 -36q79 -35 113.5 -83.5t34.5 -112.5q0 -42 -17 -81t-49 -69.5t-78.5 -49t-105.5 -18.5q-74 0 -124.5 22.5t-82.5 56.5t-46 75t-14 78v9.5t2 11.5l129 22q-1 -7 -1 -11v-10 q0 -25 7.5 -48.5t24 -42.5t42 -30.5t61.5 -12.5z" />
<glyph unicode="&#x161;" horiz-adv-x="458" d="M485 700l-142 -148h-133l-79 148h103l54 -75l82 75h115zM117 171q-1 -4 -1 -9q0 -32 21 -54.5t57 -22.5q32 0 46.5 15t14.5 34q0 14 -7.5 26t-29.5 22l-55 24q-57 24 -81 58.5t-24 79.5q0 33 13.5 62.5t38 52t59.5 35.5t77 13q55 0 90 -15.5t55.5 -39t28.5 -49.5t9 -47 l-115 -18q0 12 -3.5 24t-11.5 22.5t-22 17t-35 6.5q-26 0 -42.5 -14.5t-16.5 -34.5q0 -29 31 -42l63 -27q57 -25 83 -62t26 -82q0 -28 -11.5 -56.5t-35.5 -52t-59.5 -38t-83.5 -14.5q-62 0 -99.5 18.5t-58 44.5t-27.5 54.5t-7 48.5z" />
<glyph unicode="&#x162;" horiz-adv-x="592" d="M429 578l-122 -578h-22l-55 -53q36 -4 56 -25.5t20 -50.5q0 -18 -7.5 -36t-23 -32t-39 -23t-55.5 -9q-29 0 -52 8t-39.5 19t-26.5 22.5t-13 18.5l55 46q3 -5 8.5 -12.5t14.5 -15t21 -12.5t29 -5t29 7.5t12 21.5q0 15 -11.5 22t-28.5 7q-5 0 -9 -0.5t-8 -1.5l-24 50l55 54 h-24l122 578h-215l28 131h559l-28 -131h-206z" />
<glyph unicode="&#x163;" horiz-adv-x="371" d="M57 -111q0 29 21.5 49t54.5 20q35 0 55 -21.5t20 -53.5q0 -33 -12 -58t-32 -41.5t-45 -25t-51 -8.5q-10 0 -18 1t-11 2l11 47q4 -1 8 -1h6q22 0 44 8t31 31q-1 -1 -7 -2.5t-14 -1.5q-30 0 -45.5 16.5t-15.5 38.5zM209 -6q-65 0 -101.5 34t-36.5 93q0 20 4 39l46 214h-87 l25 118h20q43 0 65.5 21t30.5 59l15 67h120l-32 -147h96l-25 -118h-96l-43 -205q-3 -11 -3 -20q0 -23 14 -32.5t39 -9.5q10 0 19.5 1t15.5 3l-23 -106q-5 -2 -21 -6.5t-42 -4.5z" />
<glyph unicode="&#x164;" horiz-adv-x="592" d="M610 886l-148 -127h-137l-92 127h115l53 -64l81 64h128zM429 578l-122 -578h-138l122 578h-215l28 131h559l-28 -131h-206z" />
<glyph unicode="&#x165;" horiz-adv-x="371" d="M209 -6q-65 0 -101.5 34t-36.5 93q0 20 4 39l46 214h-87l25 118h20q43 0 65.5 21t30.5 59l15 67h120l-32 -147h96l-25 -118h-96l-43 -205q-3 -11 -3 -20q0 -23 14 -32.5t39 -9.5q10 0 19.5 1t15.5 3l-23 -106q-5 -2 -21 -6.5t-42 -4.5zM434 556h-93l70 198h136z" />
<glyph unicode="&#x166;" horiz-adv-x="606" d="M435 578l-44 -206h123l-22 -103h-122l-57 -269h-138l57 269h-127l22 103h126l44 206h-215l28 131h559l-28 -131h-206z" />
<glyph unicode="&#x167;" horiz-adv-x="378" d="M242 294h99l-20 -95h-99l-6 -28q-3 -12 -3 -22q0 -23 14 -32.5t39 -9.5q10 0 19.5 1t15.5 3l-23 -106q-5 -2 -21 -6.5t-42 -4.5q-65 0 -101.5 34t-36.5 93q0 20 4 39l8 39h-85l20 95h86l17 80h-87l25 118h20q43 0 65.5 21t30.5 59l15 67h120l-32 -147h96l-25 -118h-96z " />
<glyph unicode="&#x168;" horiz-adv-x="688" d="M698 709l-103 -485q-12 -59 -38.5 -103.5t-63 -74.5t-82.5 -45.5t-98 -15.5q-56 0 -102 16t-78.5 45.5t-50.5 71.5t-18 94q0 31 8 69l90 428h138l-91 -434q-2 -12 -3.5 -23t-1.5 -22q0 -50 28.5 -80.5t91.5 -30.5q110 0 137 128l97 462h140zM637 890q-11 -76 -45 -106.5 t-78 -30.5q-23 0 -41 7.5t-32 16.5l-5 3q-13 8 -24.5 14t-22.5 6q-13 0 -22.5 -10t-13.5 -33h-85q4 38 15.5 64t29 42t38.5 23t43 7q23 0 41.5 -8t32.5 -17l3 -2q14 -9 23.5 -14t20.5 -5q14 0 23.5 10t13.5 33h85z" />
<glyph unicode="&#x169;" horiz-adv-x="566" d="M235 492l-57 -266q-7 -31 -7 -47q0 -33 18 -53.5t56 -20.5q42 0 66.5 29.5t33.5 71.5l62 286h132l-82 -392q-6 -27 -8.5 -48.5t-2.5 -40.5v-11h-127q-1 5 -1 11.5v9.5v12.5t1 17.5q-20 -31 -54.5 -47t-68.5 -16q-39 0 -69.5 12t-50.5 34t-30.5 51t-10.5 64q0 14 2 30 t8 43l58 270h132zM156 556q4 39 16.5 66t30.5 44t39.5 24.5t44.5 7.5q24 0 41 -7t31 -16l5 -3q11 -8 21.5 -13.5t23.5 -5.5q33 0 41 44h86q-11 -77 -47 -110t-80 -33q-21 0 -40 7t-33 16l-8 5q-9 5 -19.5 11t-24.5 6q-16 0 -26.5 -10t-15.5 -33h-86z" />
<glyph unicode="&#x16a;" horiz-adv-x="688" d="M698 709l-103 -485q-12 -59 -38.5 -103.5t-63 -74.5t-82.5 -45.5t-98 -15.5q-56 0 -102 16t-78.5 45.5t-50.5 71.5t-18 94q0 31 8 69l90 428h138l-91 -434q-2 -12 -3.5 -23t-1.5 -22q0 -50 28.5 -80.5t91.5 -30.5q110 0 137 128l97 462h140zM287 774l20 100h305l-21 -100 h-304z" />
<glyph unicode="&#x16b;" horiz-adv-x="566" d="M235 492l-57 -266q-7 -31 -7 -47q0 -33 18 -53.5t56 -20.5q42 0 66.5 29.5t33.5 71.5l62 286h132l-82 -392q-6 -27 -8.5 -48.5t-2.5 -40.5v-11h-127q-1 5 -1 11.5v9.5v12.5t1 17.5q-20 -31 -54.5 -47t-68.5 -16q-39 0 -69.5 12t-50.5 34t-30.5 51t-10.5 64q0 14 2 30 t8 43l58 270h132zM187 577l21 97h281l-20 -97h-282z" />
<glyph unicode="&#x16c;" horiz-adv-x="688" d="M698 709l-103 -485q-12 -59 -38.5 -103.5t-63 -74.5t-82.5 -45.5t-98 -15.5q-56 0 -102 16t-78.5 45.5t-50.5 71.5t-18 94q0 31 8 69l90 428h138l-91 -434q-2 -12 -3.5 -23t-1.5 -22q0 -50 28.5 -80.5t91.5 -30.5q110 0 137 128l97 462h140zM439 754q-64 0 -104.5 31.5 t-40.5 86.5q0 3 0.5 9t1.5 8h96q-1 -5 -1 -10q0 -17 13 -29t41 -12q32 0 50 15.5t23 35.5h104q-7 -24 -21.5 -48.5t-37.5 -43.5t-54 -31t-70 -12z" />
<glyph unicode="&#x16d;" horiz-adv-x="566" d="M235 492l-57 -266q-7 -31 -7 -47q0 -33 18 -53.5t56 -20.5q42 0 66.5 29.5t33.5 71.5l62 286h132l-82 -392q-6 -27 -8.5 -48.5t-2.5 -40.5v-11h-127q-1 5 -1 11.5v9.5v12.5t1 17.5q-20 -31 -54.5 -47t-68.5 -16q-39 0 -69.5 12t-50.5 34t-30.5 51t-10.5 64q0 14 2 30 t8 43l58 270h132zM331 549q-35 0 -61 10.5t-43.5 28t-26 40.5t-8.5 48q0 9 0.5 14t1.5 11h87q-1 -4 -1 -8q0 -19 12.5 -35.5t45.5 -16.5q19 0 32.5 5.5t23 14.5t15.5 19.5t9 20.5h98q-7 -30 -21.5 -57.5t-37.5 -48.5t-54.5 -33.5t-71.5 -12.5z" />
<glyph unicode="&#x16e;" horiz-adv-x="688" d="M698 709l-103 -485q-12 -59 -38.5 -103.5t-63 -74.5t-82.5 -45.5t-98 -15.5q-56 0 -102 16t-78.5 45.5t-50.5 71.5t-18 94q0 31 8 69l90 428h138l-91 -434q-2 -12 -3.5 -23t-1.5 -22q0 -50 28.5 -80.5t91.5 -30.5q110 0 137 128l97 462h140zM447 905q-20 0 -36 -15 t-16 -38q0 -19 12 -30t32 -11t36.5 14t16.5 38q0 19 -12.5 30.5t-32.5 11.5zM313 845q0 29 11.5 54.5t31 44t45 29.5t54.5 11q25 0 47.5 -8.5t38.5 -24t25.5 -36.5t9.5 -45q0 -30 -12 -55.5t-32.5 -44t-46 -29t-52.5 -10.5q-25 0 -47 8.5t-38 24t-25.5 36.5t-9.5 45z" />
<glyph unicode="&#x16f;" horiz-adv-x="566" d="M349 759q45 0 75.5 -27.5t30.5 -72.5q0 -26 -10.5 -48t-27.5 -38.5t-39.5 -25.5t-46.5 -9q-22 0 -41 7.5t-33.5 21t-22.5 32t-8 39.5q0 27 10.5 49.5t27.5 38t39.5 24.5t45.5 9zM298 644q0 -17 10.5 -26.5t27.5 -9.5q18 0 31 12t13 32q0 16 -10 26t-27 10t-31 -12 t-14 -32zM235 492l-57 -266q-7 -31 -7 -47q0 -33 18 -53.5t56 -20.5q42 0 66.5 29.5t33.5 71.5l62 286h132l-82 -392q-6 -27 -8.5 -48.5t-2.5 -40.5v-11h-127q-1 5 -1 11.5v9.5v12.5t1 17.5q-20 -31 -54.5 -47t-68.5 -16q-39 0 -69.5 12t-50.5 34t-30.5 51t-10.5 64 q0 14 2 30t8 43l58 270h132z" />
<glyph unicode="&#x170;" horiz-adv-x="688" d="M390 759h-88l78 127h131zM550 759h-90l92 127h132zM698 709l-103 -485q-12 -59 -38.5 -103.5t-63 -74.5t-82.5 -45.5t-98 -15.5q-56 0 -102 16t-78.5 45.5t-50.5 71.5t-18 94q0 31 8 69l90 428h138l-91 -434q-2 -12 -3.5 -23t-1.5 -22q0 -50 28.5 -80.5t91.5 -30.5 q110 0 137 128l97 462h140z" />
<glyph unicode="&#x171;" horiz-adv-x="566" d="M235 492l-57 -266q-7 -31 -7 -47q0 -33 18 -53.5t56 -20.5q42 0 66.5 29.5t33.5 71.5l62 286h132l-82 -392q-6 -27 -8.5 -48.5t-2.5 -40.5v-11h-127q-1 5 -1 11.5v9.5v12.5t1 17.5q-20 -31 -54.5 -47t-68.5 -16q-39 0 -69.5 12t-50.5 34t-30.5 51t-10.5 64q0 14 2 30 t8 43l58 270h132zM277 551h-88l84 150h134zM430 551h-89l99 150h135z" />
<glyph unicode="&#x172;" horiz-adv-x="688" d="M698 709l-103 -485q-19 -89 -66.5 -144.5t-115.5 -78.5q-17 -6 -35 -16t-33 -22.5t-25 -28t-10 -33.5q0 -20 13.5 -30t33.5 -11q16 0 24 2l-16 -79q-18 -6 -44 -6q-45 0 -77.5 26t-32.5 72q0 38 17 66t42 47q-95 11 -150.5 70t-55.5 154q0 31 8 69l90 428h138l-91 -434 q-2 -12 -3.5 -23t-1.5 -22q0 -50 28.5 -80.5t91.5 -30.5q110 0 137 128l97 462h140z" />
<glyph unicode="&#x173;" horiz-adv-x="566" d="M235 492l-60 -280q-4 -16 -4 -33q0 -33 18 -53.5t56 -20.5q42 0 66.5 29.5t33.5 71.5l62 286h132l-82 -392q-6 -27 -8.5 -48.5t-2.5 -40.5v-11q-17 -6 -34.5 -16t-32 -22.5t-24 -27.5t-9.5 -33q0 -20 13.5 -30t33.5 -11q16 0 24 2l-16 -79q-18 -6 -44 -6q-45 0 -77.5 26 t-32.5 72t23.5 76t54.5 49h-6q-1 8 -1 11.5v9.5v11t1 19q-20 -31 -54.5 -47t-68.5 -16q-39 0 -69.5 12t-50.5 34t-30.5 51t-10.5 64q0 25 6 54l62 289h132z" />
<glyph unicode="&#x174;" horiz-adv-x="1017" d="M408 759l146 127h137l94 -127h-116l-54 65l-82 -65h-125zM659 709l54 -492l222 492h147l-336 -709h-139l-55 505l-256 -505h-145l-47 709h138l27 -490l247 490h143z" />
<glyph unicode="&#x175;" horiz-adv-x="822" d="M269 552l144 147h132l80 -147h-104l-53 75l-85 -75h-114zM517 492l38 -315l151 315h138l-253 -492h-131l-42 335l-174 -335h-136l-48 492h129l25 -314l163 314h140z" />
<glyph unicode="&#x176;" horiz-adv-x="636" d="M94 709h146l101 -278l197 278h166l-315 -412l-63 -297h-138l63 299zM199 759l146 127h137l94 -127h-116l-54 65l-82 -65h-125z" />
<glyph unicode="&#x177;" horiz-adv-x="526" d="M114 552l144 147h132l80 -147h-104l-53 75l-85 -75h-114zM-28 -190l170 268l-108 414h140l66 -276l166 276h149l-436 -682h-147z" />
<glyph unicode="&#x178;" horiz-adv-x="636" d="M212 815q0 31 23 55.5t57 24.5q29 0 47 -19t18 -45q0 -35 -24 -57.5t-55 -22.5q-29 0 -47.5 18t-18.5 46zM441 815q0 31 23 55.5t57 24.5q29 0 47 -19t18 -45q0 -35 -24 -57.5t-55 -22.5q-29 0 -47.5 18t-18.5 46zM94 709h146l101 -278l197 278h166l-315 -412l-63 -297 h-138l63 299z" />
<glyph unicode="&#x179;" horiz-adv-x="630" d="M445 759h-128l128 127h169zM-21 0l28 133l448 445h-344l28 131h530l-27 -128l-455 -450h364l-28 -131h-544z" />
<glyph unicode="&#x17a;" horiz-adv-x="493" d="M334 551h-114l120 150h162zM-20 0l25 118l283 259h-220l24 115h395l-24 -112l-292 -265h241l-24 -115h-408z" />
<glyph unicode="&#x17b;" horiz-adv-x="630" d="M-21 0l28 133l448 445h-344l28 131h530l-27 -128l-455 -450h364l-28 -131h-544zM336 827q0 16 7 31.5t19 27.5t28.5 19.5t34.5 7.5q32 0 52.5 -20.5t20.5 -49.5q0 -19 -7 -35t-19 -28t-28 -19t-34 -7q-33 0 -53.5 21.5t-20.5 51.5z" />
<glyph unicode="&#x17c;" horiz-adv-x="493" d="M-20 0l25 118l283 259h-220l24 115h395l-24 -112l-292 -265h241l-24 -115h-408zM228 619q0 17 6.5 33t18.5 28t28 19.5t35 7.5q32 0 52 -20.5t20 -49.5q0 -19 -7 -35.5t-19 -28.5t-27.5 -19t-33.5 -7q-32 0 -52.5 21.5t-20.5 50.5z" />
<glyph unicode="&#x17d;" horiz-adv-x="630" d="M627 886l-148 -127h-137l-92 127h115l53 -64l81 64h128zM-21 0l28 133l448 445h-344l28 131h530l-27 -128l-455 -450h364l-28 -131h-544z" />
<glyph unicode="&#x17e;" horiz-adv-x="493" d="M500 700l-142 -148h-133l-79 148h103l54 -75l82 75h115zM-20 0l25 118l283 259h-220l24 115h395l-24 -112l-292 -265h241l-24 -115h-408z" />
<glyph unicode="&#x18f;" horiz-adv-x="779" d="M420 724q73 0 134 -23t104.5 -65t67.5 -100t24 -128q0 -100 -33 -178.5t-88 -133t-125 -83t-145 -28.5q-68 0 -126.5 23t-101 65t-67 99.5t-24.5 126.5q0 20 1 39.5t6 41.5h561q1 5 1 10v10q0 48 -15.5 84t-42.5 60t-63.5 36.5t-78.5 12.5q-39 0 -72 -11t-59.5 -28 t-45.5 -39.5t-30 -44.5l-116 58q19 38 51 73.5t75 62.5t95.5 43.5t112.5 16.5zM369 110q34 0 67 9.5t61.5 29t51.5 48.5t38 69h-405q1 -33 15 -61.5t38 -49.5t58 -33t76 -12z" />
<glyph unicode="&#x192;" horiz-adv-x="5120" d="M2128 382q111 -27 159.5 -72.5t48.5 -121.5q0 -45 -16.5 -81t-47 -62t-73.5 -40t-96 -14q-75 0 -143 26t-125 77q-3 3 -3 5q0 4 2 6l67 80q3 3 5 3q4 0 6 -2q49 -43 94.5 -62t99.5 -19q48 0 76 19.5t28 53.5q0 15 -5 27t-19.5 22.5t-41.5 20t-71 20.5q-51 12 -91 27 t-68 37.5t-42.5 54.5t-14.5 77q0 42 16.5 77.5t46 61t70.5 39.5t91 14q135 0 234 -81q3 -3 3 -6q0 -1 -2 -5l-59 -84q-2 -4 -7 -4q-3 0 -5 2q-85 64 -166 64q-43 0 -69 -18.5t-26 -49.5q0 -16 5.5 -28t21 -22.5t43.5 -20.5t74 -21zM2657 502q43 0 84 -16.5t73 -48.5t52 -80 t20 -111t-20 -110.5t-52 -80t-73 -48.5t-84 -16q-93 0 -153 69v-195q0 -9 -9 -9h-108q-9 0 -9 9v619q0 8 9 8h108q9 0 9 -8v-56q62 74 153 74zM2760 246q0 31 -9.5 58t-26.5 46t-40.5 30t-51.5 11t-52 -11t-41.5 -30.5t-27.5 -46t-10 -57.5t10 -57.5t27.5 -46t41.5 -30.5 t52 -11q57 0 92.5 40t35.5 105zM3183 502q55 0 102.5 -20t82.5 -54.5t55.5 -81t20.5 -100.5t-20.5 -101t-56 -81.5t-83.5 -54t-103 -19.5t-102.5 19.5t-82.5 54t-55 80.5t-20 100t20.5 101t55.5 82t83 55t103 20zM3183 100q29 0 54 11t43 30t28 45.5t10 57.5t-10.5 58 t-29 46.5t-43.5 30.5t-54 11q-30 0 -55 -10.5t-43 -30t-28 -46t-10 -57.5t10.5 -58t29 -46.5t43.5 -30.5t55 -11zM3757 492q8 0 8 -8v-94q0 -8 -8 -8h-120v-225q0 -52 51 -52q20 0 34.5 5t19.5 7q4 2 7.5 3.5t5.5 1.5q8 0 8 -9v-87q0 -2 -0.5 -4.5t-5.5 -4.5 q-20 -11 -43 -18t-57 -7q-145 0 -145 148v242h-53q-7 0 -7 8v94q0 8 7 8h53v123q0 7 8 7h109q8 0 8 -7v-123h120zM4294 559q-2 0 -6.5 2t-14.5 4q-13 3 -22 4.5t-21 1.5q-55 0 -55 -65v-14h186q6 0 8 -4l127 -334l116 333q2 5 7 5h114q2 0 5 -2t3 -6q0 -3 -2 -7l-188 -485 q-15 -38 -31 -64.5t-35.5 -43t-43.5 -24t-54 -7.5q-32 0 -59 7t-57 22q-4 2 -4 6q0 3 1 5l36 82q2 5 7 5q1 0 2 -0.5t2 -0.5q18 -9 32 -13.5t28 -4.5q18 0 31.5 9t27.5 39l-155 373h-102v-373q0 -9 -9 -9h-108q-9 0 -9 9v373h-52q-7 0 -7 8v95q0 7 7 7h52v24 q0 80 39.5 121.5t115.5 41.5q52 0 90 -12q6 -2 6 -8v-92q0 -2 -2 -5t-6 -3zM3933 492q7 0 7 -8v-475q0 -9 -7 -9h-110q-7 0 -7 9v475q0 8 7 8h110zM3878 708q32 0 55.5 -22.5t23.5 -54.5q0 -33 -23.5 -56t-55.5 -23t-54.5 23t-22.5 56q0 32 22.5 54.5t54.5 22.5zM4833 338 q-32 0 -54 22.5t-22 54.5t22 54.5t54 22.5t54.5 -22t22.5 -54t-22.5 -55t-54.5 -23zM4833 484q-29 0 -48.5 -20t-19.5 -49t19.5 -49.5t48.5 -20.5q30 0 50 21t20 50q0 28 -20 48t-50 20zM4873 377h-19l-20 27h-16v-27h-15v81h35q14 0 23 -7t9 -20q0 -10 -5.5 -15.5 t-13.5 -8.5zM4818 444v-26h20q16 0 16 12q0 14 -16 14h-20zM1200 -6q17 0 30.5 13t13.5 32q0 24 -21 37q-79 49 -182 80t-239 31q-123 0 -263 -32q-15 -4 -24.5 -15.5t-9.5 -26.5q0 -17 11.5 -30.5t31.5 -13.5q7 0 20 3t21 5q66 14 121.5 18.5t93.5 4.5q107 0 199.5 -25 t173.5 -74q12 -7 23 -7zM1277 181q22 0 38.5 16.5t16.5 39.5q0 14 -6.5 26.5t-19.5 20.5q-107 66 -240 99.5t-270 33.5q-73 0 -144 -10t-138 -30q-18 -5 -28.5 -20t-10.5 -33q0 -22 14 -38t38 -16q9 0 14 1t10.5 2.5t13.5 4t22 5.5q58 14 112.5 19t94.5 5q123 0 241.5 -30 t212.5 -88q14 -8 29 -8zM1332 408q15 -9 33 -9q28 0 47.5 19t19.5 47q0 17 -8.5 32t-24.5 24q-125 72 -277 105.5t-316 33.5q-92 0 -176.5 -11.5t-154.5 -32.5q-22 -7 -34.5 -24.5t-12.5 -38.5q0 -26 18 -46.5t47 -20.5q10 0 19 3q63 19 139 29t161 10q68 0 138 -7 t137 -21.5t129.5 -37.5t115.5 -54zM210 327q0 97 25.5 187.5t71.5 169t110.5 143t143 110.5t168.5 71t187 25t187 -25t168.5 -71t143 -110.5t110.5 -143t71 -169t25 -187.5q0 -98 -25 -188t-71 -168t-110.5 -142.5t-143 -110.5t-168.5 -71t-187 -25t-187 25t-168.5 71 t-143 110.5t-110.5 142.5t-71.5 168.5t-25.5 187.5z" />
<glyph unicode="&#x1b5;" horiz-adv-x="642" d="M-16 0l28 133l177 176h-114l24 113h204l157 156h-344l28 131h530l-27 -128l-161 -159h127l-25 -113h-216l-180 -178h364l-28 -131h-544z" />
<glyph unicode="&#x1b6;" horiz-adv-x="500" d="M57 296h157l90 84h-233l24 112h395l-22 -103l-100 -93h80l-21 -95h-162l-94 -88h244l-24 -113h-408l21 100l108 101h-75z" />
<glyph unicode="&#x1fa;" horiz-adv-x="707" d="M264 288h185l-37 266zM525 912h-128l128 127h169zM450 803q-20 0 -36 -15t-16 -38q0 -19 12 -30t32 -11t36.5 14t16.5 38q0 19 -12.5 30.5t-32.5 11.5zM316 743q0 29 11.5 54.5t31 44t45 29.5t54.5 11q25 0 47.5 -8.5t38.5 -24t25.5 -36.5t9.5 -45q0 -33 -14.5 -60 t-37.5 -46l106 -662h-143l-23 162h-274l-91 -162h-155l393 672q-24 30 -24 71z" />
<glyph unicode="&#x1fb;" horiz-adv-x="590" d="M290 385q-32 0 -56 -15.5t-40.5 -39.5t-25 -54.5t-8.5 -60.5q0 -51 25.5 -80t70.5 -29q25 0 48.5 12t41 34.5t28 54.5t10.5 73q0 49 -24.5 77t-69.5 28zM563 492l-81 -384q-5 -22 -7 -45t-2 -44v-7.5t1 -11.5h-123q-1 6 -1 12v11q0 8 0.5 18t1.5 19q-17 -26 -49.5 -47.5 t-82.5 -21.5q-45 0 -81 17t-60.5 47t-37.5 70t-13 85q0 63 19 116.5t53 93t80 62t99 22.5q34 0 59 -7t42 -17.5t27 -22t15 -21.5l12 56h129zM426 797h-114l120 150h162zM354 760q45 0 75.5 -27.5t30.5 -72.5q0 -26 -10.5 -48t-27.5 -38.5t-39.5 -25.5t-46.5 -9 q-22 0 -41 7.5t-33.5 21t-22.5 32t-8 39.5q0 27 10.5 49.5t27.5 38t39.5 24.5t45.5 9zM303 645q0 -17 10.5 -26.5t27.5 -9.5q18 0 31 12t13 32q0 16 -10 26t-27 10t-31 -12t-14 -32z" />
<glyph unicode="&#x1fc;" horiz-adv-x="1048" d="M718 759h-128l128 127h169zM961 130l-28 -130h-442l35 165h-275l-140 -165h-176l619 709h529l-27 -130h-304l-34 -162h275l-26 -123h-275l-35 -164h304zM551 281l67 314l-268 -314h201z" />
<glyph unicode="&#x1fd;" horiz-adv-x="849" d="M491 551h-114l120 150h162zM308 294q23 1 34 12.5t11 31.5q0 23 -21 42.5t-66 19.5q-38 0 -64 -20.5t-34 -49.5l-110 36q8 27 26.5 52.5t46 45t63.5 31.5t80 12q60 0 99 -17t61 -43q33 29 73.5 44.5t84.5 15.5q51 0 91 -15.5t67.5 -43t42 -65.5t14.5 -83 q0 -22 -3.5 -45.5t-10.5 -43.5h-339q-1 -3 -1 -7q1 -46 30 -77t80 -31q41 0 68.5 19t40.5 45l101 -51q-12 -24 -31.5 -46.5t-47 -39.5t-62.5 -27.5t-78 -10.5q-57 0 -104 23t-76 68q-26 -35 -71.5 -62t-111.5 -27q-45 0 -79.5 11.5t-58 31t-35 45.5t-11.5 54q0 36 12.5 65 t35.5 49.5t54 32t69 13.5zM138 139q0 -26 19 -40t47 -14q17 0 36.5 6t37 19.5t30.5 35t18 52.5l2 13l-118 -5q-28 -2 -50 -18t-22 -49zM590 399q-51 0 -81 -28.5t-42 -68.5h214q1 2 1 6v6q0 14 -5 29t-15.5 27.5t-28.5 20.5t-43 8z" />
<glyph unicode="&#x1fe;" horiz-adv-x="778" d="M521 759h-128l128 127h169zM54 302q0 101 32.5 179.5t85.5 132.5t122 82t141 28q53 0 98.5 -13t82.5 -37l75 84l80 -70l-78 -88q55 -78 55 -193q0 -101 -32.5 -179.5t-85.5 -132.5t-121.5 -82t-140.5 -28q-52 0 -96.5 12.5t-81.5 35.5l-72 -81l-82 70l76 85 q-28 39 -43 88.5t-15 106.5zM195 312q0 -52 17 -92l311 349q-20 11 -44 17.5t-52 6.5q-50 0 -92 -22t-73.5 -60.5t-49 -89.5t-17.5 -109zM606 399q0 48 -15 86l-307 -346q37 -21 90 -21q48 0 89.5 20.5t73 57.5t50 89t19.5 114z" />
<glyph unicode="&#x1ff;" horiz-adv-x="576" d="M373 551h-114l120 150h162zM-13 22l72 69q-31 56 -31 123q0 65 21.5 119t59 92.5t88 60t107.5 21.5q43 0 78.5 -12t63.5 -34l69 67l55 -57l-73 -70q31 -54 31 -123q0 -60 -20.5 -113t-57 -93t-87 -63.5t-110.5 -23.5q-43 0 -78.5 12t-63.5 35l-69 -66zM395 273 q0 8 -0.5 14.5t-1.5 13.5l-188 -179q23 -16 57 -16q23 0 47 10.5t43 31t31 52t12 73.5zM294 386q-29 0 -53 -12.5t-42 -35t-28 -53t-10 -65.5q0 -17 3 -29l187 179q-10 7 -23 11.5t-34 4.5z" />
<glyph unicode="&#x218;" horiz-adv-x="600" d="M282 105q51 0 80 24.5t30 62.5q0 25 -13.5 45t-46.5 34l-86 38q-68 30 -102.5 77t-34.5 113q0 50 20 91t54 70.5t80 46t97 16.5q70 0 116.5 -21.5t74.5 -53t39 -67t11 -63.5l-129 -22q0 10 -3.5 28t-15.5 35.5t-35.5 30.5t-63.5 13q-24 0 -43.5 -7.5t-33.5 -20 t-21.5 -28.5t-7.5 -34q0 -29 16 -48t40 -30l82 -36q79 -35 113.5 -83.5t34.5 -112.5q0 -42 -17 -81t-49 -69.5t-78.5 -49t-105.5 -18.5q-74 0 -124.5 22.5t-82.5 56.5t-46 75t-14 78v9.5t2 11.5l129 22q-1 -7 -1 -11v-10q0 -25 7.5 -48.5t24 -42.5t42 -30.5t61.5 -12.5z M153 -111q0 29 21.5 49t54.5 20q35 0 55 -21.5t20 -53.5q0 -33 -12 -58t-32 -41.5t-45 -25t-51 -8.5q-10 0 -18 1t-11 2l11 47q4 -1 8 -1h6q22 0 44 8t31 31q-1 -1 -7 -2.5t-14 -1.5q-30 0 -45.5 16.5t-15.5 38.5z" />
<glyph unicode="&#x219;" horiz-adv-x="458" d="M117 171q-1 -4 -1 -9q0 -32 21 -54.5t57 -22.5q32 0 46.5 15t14.5 34q0 14 -7.5 26t-29.5 22l-55 24q-57 24 -81 58.5t-24 79.5q0 33 13.5 62.5t38 52t59.5 35.5t77 13q55 0 90 -15.5t55.5 -39t28.5 -49.5t9 -47l-115 -18q0 12 -3.5 24t-11.5 22.5t-22 17t-35 6.5 q-26 0 -42.5 -14.5t-16.5 -34.5q0 -29 31 -42l63 -27q57 -25 83 -62t26 -82q0 -28 -11.5 -56.5t-35.5 -52t-59.5 -38t-83.5 -14.5q-62 0 -99.5 18.5t-58 44.5t-27.5 54.5t-7 48.5zM78 -111q0 29 21.5 49t54.5 20q35 0 55 -21.5t20 -53.5q0 -33 -12 -58t-32 -41.5t-45 -25 t-51 -8.5q-10 0 -18 1t-11 2l11 47q4 -1 8 -1h6q22 0 44 8t31 31q-1 -1 -7 -2.5t-14 -1.5q-30 0 -45.5 16.5t-15.5 38.5z" />
<glyph unicode="&#x21a;" horiz-adv-x="592" d="M429 578l-122 -578h-138l122 578h-215l28 131h559l-28 -131h-206zM140 -111q0 29 21.5 49t54.5 20q35 0 55 -21.5t20 -53.5q0 -33 -12 -58t-32 -41.5t-45 -25t-51 -8.5q-10 0 -18 1t-11 2l11 47q4 -1 8 -1h6q22 0 44 8t31 31q-1 -1 -7 -2.5t-14 -1.5q-30 0 -45.5 16.5 t-15.5 38.5z" />
<glyph unicode="&#x21b;" horiz-adv-x="371" d="M205 -6l-49 -47q36 -4 56 -25.5t20 -50.5q0 -18 -7.5 -36t-23 -32t-39 -23t-55.5 -9q-29 0 -52 8t-39.5 19t-26.5 22.5t-13 18.5l55 46q3 -5 8.5 -12.5t14.5 -15t21 -12.5t29 -5t29 7.5t12 21.5q0 15 -11.5 22t-28.5 7q-5 0 -9 -0.5t-8 -1.5l-24 50l67 65 q-29 16 -44.5 44t-15.5 66q0 20 4 39l46 214h-87l25 118h20q43 0 65.5 21t30.5 59l15 67h120l-32 -147h96l-25 -118h-96l-43 -205q-3 -11 -3 -20q0 -23 14 -32.5t39 -9.5q10 0 19.5 1t15.5 3l-23 -106q-5 -2 -21 -6.5t-42 -4.5h-4z" />
<glyph unicode="&#x237;" horiz-adv-x="266" d="M109 492h132l-118 -554q-15 -72 -59 -107.5t-106 -35.5q-36 0 -59 8.5t-30 13.5l22 104q1 0 13.5 -4.5t32.5 -4.5q24 1 39 14t20 42z" />
<glyph unicode="&#x259;" horiz-adv-x="559" d="M20 199q0 21 2.5 42.5t6.5 35.5h357v5q-2 52 -30.5 82.5t-82.5 30.5q-41 0 -72.5 -18.5t-48.5 -48.5l-99 51q14 26 36 49.5t50.5 41t64.5 27.5t78 10q53 0 95 -17.5t71.5 -47.5t45 -71.5t15.5 -89.5q0 -72 -21.5 -127.5t-58.5 -93t-85 -57t-101 -19.5q-51 0 -92 16.5 t-70.5 45.5t-45 68t-15.5 85zM143 189q-1 -2 -1 -5q0 -16 6 -32.5t18.5 -30t33 -22t50.5 -8.5q41 0 74.5 24t50.5 74h-232z" />
<glyph unicode="&#x2c6;" horiz-adv-x="386" d="M-32 552l144 147h132l80 -147h-104l-53 75l-85 -75h-114z" />
<glyph unicode="&#x2c7;" horiz-adv-x="386" d="M356 700l-142 -148h-133l-79 148h103l54 -75l82 75h115z" />
<glyph unicode="&#x2c9;" horiz-adv-x="317" d="M-23 577l21 97h281l-20 -97h-282z" />
<glyph unicode="&#x2d8;" horiz-adv-x="356" d="M217 549q-35 0 -61 10.5t-43.5 28t-26 40.5t-8.5 48q0 9 0.5 14t1.5 11h87q-1 -4 -1 -8q0 -19 12.5 -35.5t45.5 -16.5q19 0 32.5 5.5t23 14.5t15.5 19.5t9 20.5h98q-7 -30 -21.5 -57.5t-37.5 -48.5t-54.5 -33.5t-71.5 -12.5z" />
<glyph unicode="&#x2d9;" horiz-adv-x="184" d="M-19 619q0 17 6.5 33t18.5 28t28 19.5t35 7.5q32 0 52 -20.5t20 -49.5q0 -19 -7 -35.5t-19 -28.5t-27.5 -19t-33.5 -7q-32 0 -52.5 21.5t-20.5 50.5z" />
<glyph unicode="&#x2da;" horiz-adv-x="264" d="M111 759q45 0 75.5 -27.5t30.5 -72.5q0 -26 -10.5 -48t-27.5 -38.5t-39.5 -25.5t-46.5 -9q-22 0 -41 7.5t-33.5 21t-22.5 32t-8 39.5q0 27 10.5 49.5t27.5 38t39.5 24.5t45.5 9zM60 644q0 -17 10.5 -26.5t27.5 -9.5q18 0 31 12t13 32q0 16 -10 26t-27 10t-31 -12t-14 -32 z" />
<glyph unicode="&#x2db;" horiz-adv-x="206" d="M80 -223q-45 0 -77.5 26t-32.5 72q0 33 13 58t33 43t42.5 30t42.5 19l68 -25q-17 -6 -34.5 -16t-32 -22.5t-24 -27.5t-9.5 -33q0 -20 13.5 -30t33.5 -11q16 0 24 2l-16 -79q-18 -6 -44 -6z" />
<glyph unicode="&#x2dc;" horiz-adv-x="373" d="M47 556q4 39 16.5 66t30.5 44t39.5 24.5t44.5 7.5q24 0 41 -7t31 -16l5 -3q11 -8 21.5 -13.5t23.5 -5.5q33 0 41 44h86q-11 -77 -47 -110t-80 -33q-21 0 -40 7t-33 16l-8 5q-9 5 -19.5 11t-24.5 6q-16 0 -26.5 -10t-15.5 -33h-86z" />
<glyph unicode="&#x2dd;" horiz-adv-x="378" d="M54 551h-88l84 150h134zM207 551h-89l99 150h135z" />
<glyph unicode="&#x394;" horiz-adv-x="696" d="M318 559l-154 -431h309zM243 709h150l271 -709h-691z" />
<glyph unicode="&#x3a9;" horiz-adv-x="828" d="M416 595q-39 0 -75.5 -13t-65 -38.5t-45.5 -63t-17 -86.5q0 -42 14 -77t37 -61t53 -42.5t62 -23.5v-190h-302v126h174q-37 15 -70 40.5t-57.5 60.5t-39 79.5t-14.5 96.5q0 74 28.5 133.5t76 101.5t110 64.5t131.5 22.5t131.5 -22.5t110 -64.5t76 -101.5t28.5 -133.5 q0 -52 -14.5 -96.5t-39.5 -79.5t-58 -60.5t-70 -40.5h174v-126h-302v190q32 7 62 23.5t53.5 42.5t37.5 61t14 77q0 49 -17 86.5t-45.5 63t-65 38.5t-75.5 13z" />
<glyph unicode="&#x3bc;" horiz-adv-x="613" d="M71 492h133v-284q0 -42 21.5 -70.5t68.5 -28.5q45 0 69 27t24 70v286h133v-403q0 -26 1.5 -50.5t3.5 -38.5h-127q-2 8 -3 23.5t-1 29.5q-20 -35 -58.5 -50.5t-77.5 -15.5q-15 0 -28.5 2.5t-25.5 7.5v-187h-133v682z" />
<glyph unicode="&#x3c0;" horiz-adv-x="701" d="M544 153q0 -27 15 -37t34 -10q12 0 17.5 1t13.5 2v-104q-11 -5 -27.5 -9t-42.5 -4q-72 0 -107 40t-35 103v243h-133v-378h-133v378h-83v114h559v-114h-78v-225z" />
<glyph unicode="&#x1e80;" horiz-adv-x="1017" d="M421 886h155l76 -127h-115zM659 709l54 -492l222 492h147l-336 -709h-139l-55 505l-256 -505h-145l-47 709h138l27 -490l247 490h143z" />
<glyph unicode="&#x1e81;" horiz-adv-x="822" d="M291 701h148l58 -150h-103zM517 492l38 -315l151 315h138l-253 -492h-131l-42 335l-174 -335h-136l-48 492h129l25 -314l163 314h140z" />
<glyph unicode="&#x1e82;" horiz-adv-x="1017" d="M645 759h-128l128 127h169zM659 709l54 -492l222 492h147l-336 -709h-139l-55 505l-256 -505h-145l-47 709h138l27 -490l247 490h143z" />
<glyph unicode="&#x1e83;" horiz-adv-x="822" d="M507 551h-114l120 150h162zM517 492l38 -315l151 315h138l-253 -492h-131l-42 335l-174 -335h-136l-48 492h129l25 -314l163 314h140z" />
<glyph unicode="&#x1e84;" horiz-adv-x="1017" d="M373 815q0 31 23 55.5t57 24.5q29 0 47 -19t18 -45q0 -35 -24 -57.5t-55 -22.5q-29 0 -47.5 18t-18.5 46zM682 815q0 31 23 55.5t57 24.5q29 0 47 -19t18 -45q0 -35 -24 -57.5t-55 -22.5q-29 0 -47.5 18t-18.5 46zM659 709l54 -492l222 492h147l-336 -709h-139l-55 505 l-256 -505h-145l-47 709h138l27 -490l247 490h143z" />
<glyph unicode="&#x1e85;" horiz-adv-x="822" d="M267 621q0 15 6 29t16.5 25t25 17.5t30.5 6.5q29 0 46.5 -19.5t17.5 -45.5q0 -17 -7 -30.5t-18 -24t-25 -16t-29 -5.5q-28 0 -45.5 18.5t-17.5 44.5zM507 621q0 15 6 29t16.5 25t25 17.5t30.5 6.5q29 0 46.5 -19.5t17.5 -45.5q0 -17 -7 -30.5t-18 -24t-25 -16t-29 -5.5 q-28 0 -45.5 18.5t-17.5 44.5zM517 492l38 -315l151 315h138l-253 -492h-131l-42 335l-174 -335h-136l-48 492h129l25 -314l163 314h140z" />
<glyph unicode="&#x1e8a;" horiz-adv-x="646" d="M118 0h-173l311 358l-161 351h157l104 -235l198 235h172l-312 -360l162 -349h-159l-103 233zM328 827q0 16 7 31.5t19 27.5t28.5 19.5t34.5 7.5q32 0 52.5 -20.5t20.5 -49.5q0 -19 -7 -35t-19 -28t-28 -19t-34 -7q-33 0 -53.5 21.5t-20.5 51.5z" />
<glyph unicode="&#x1e8b;" horiz-adv-x="533" d="M110 0h-160l233 252l-128 240h145l71 -144l126 144h162l-230 -248q7 -12 26 -47t40 -75t40 -75t26 -47h-146l-74 148zM235 619q0 17 6.5 33t18.5 28t28 19.5t35 7.5q32 0 52 -20.5t20 -49.5q0 -19 -7 -35.5t-19 -28.5t-27.5 -19t-33.5 -7q-32 0 -52.5 21.5t-20.5 50.5z " />
<glyph unicode="&#x1ef2;" horiz-adv-x="636" d="M94 709h146l101 -278l197 278h166l-315 -412l-63 -297h-138l63 299zM232 886h155l76 -127h-115z" />
<glyph unicode="&#x1ef3;" horiz-adv-x="526" d="M-28 -190l170 268l-108 414h140l66 -276l166 276h149l-436 -682h-147zM153 701h148l58 -150h-103z" />
<glyph unicode="&#x2000;" horiz-adv-x="519" />
<glyph unicode="&#x2001;" horiz-adv-x="1039" />
<glyph unicode="&#x2002;" horiz-adv-x="519" />
<glyph unicode="&#x2003;" horiz-adv-x="1039" />
<glyph unicode="&#x2004;" horiz-adv-x="346" />
<glyph unicode="&#x2005;" horiz-adv-x="259" />
<glyph unicode="&#x2006;" horiz-adv-x="173" />
<glyph unicode="&#x2007;" horiz-adv-x="625" />
<glyph unicode="&#x2008;" horiz-adv-x="275" />
<glyph unicode="&#x2009;" horiz-adv-x="207" />
<glyph unicode="&#x200a;" horiz-adv-x="57" />
<glyph unicode="&#x200b;" horiz-adv-x="0" />
<glyph unicode="&#x2010;" horiz-adv-x="415" d="M49 238l25 118h291l-26 -118h-290z" />
<glyph unicode="&#x2011;" horiz-adv-x="415" d="M49 238l25 118h291l-26 -118h-290z" />
<glyph unicode="&#x2012;" horiz-adv-x="415" d="M49 238l25 118h291l-26 -118h-290z" />
<glyph unicode="&#x2013;" horiz-adv-x="642" d="M50 239l24 115h516l-24 -115h-516z" />
<glyph unicode="&#x2014;" horiz-adv-x="1066" d="M50 239l24 115h940l-24 -115h-940z" />
<glyph unicode="&#x2018;" horiz-adv-x="259" d="M255 513q0 -35 -24.5 -59t-61.5 -24q-38 0 -59 25t-21 60q0 39 16 74.5t43.5 63t63.5 44.5t77 19l-13 -62q-35 -4 -66 -27t-40 -57q1 1 7 2.5t14 1.5q31 0 47.5 -18.5t16.5 -42.5z" />
<glyph unicode="&#x2019;" horiz-adv-x="260" d="M123 633q0 35 24.5 59t61.5 24q38 0 59 -25t21 -60q0 -39 -16 -75t-43.5 -63.5t-64 -44.5t-76.5 -18l13 61q16 1 33 8t32 18t26 26t15 32q-1 -1 -7 -2.5t-14 -1.5q-31 0 -47.5 18.5t-16.5 43.5z" />
<glyph unicode="&#x201a;" horiz-adv-x="263" d="M2 58q0 35 24.5 59t61.5 24q38 0 59 -25t21 -60q0 -39 -16 -75t-43.5 -63.5t-64 -44.5t-76.5 -18l13 61q16 2 33 9t32 18t26 25.5t15 31.5q-1 -1 -7 -2.5t-14 -1.5q-31 0 -47.5 18.5t-16.5 43.5z" />
<glyph unicode="&#x201c;" horiz-adv-x="455" d="M451 516q0 -35 -23.5 -58.5t-61.5 -23.5t-58.5 24.5t-20.5 59.5q0 39 16 73.5t43 61.5t63 44t76 19l-13 -61q-17 -2 -34 -9t-31 -18t-25 -25t-15 -30q3 3 21 3q30 0 46.5 -18t16.5 -42zM253 516q0 -35 -24 -58.5t-61 -23.5q-38 0 -58.5 24.5t-20.5 59.5q0 39 16 73.5 t43 61.5t62.5 44t75.5 19l-13 -61q-17 -2 -33.5 -9t-30.5 -18t-25 -25t-15 -30q3 3 20 3q31 0 47.5 -18t16.5 -42z" />
<glyph unicode="&#x201d;" horiz-adv-x="460" d="M123 633q0 34 24.5 57.5t61.5 23.5q38 0 58 -24.5t20 -58.5q0 -39 -15.5 -74.5t-42.5 -62.5t-63 -43.5t-76 -17.5l13 60q15 2 32 9t31.5 17.5t25.5 25t16 31.5q-1 -1 -7 -2.5t-14 -1.5q-30 0 -47 18t-17 43zM324 633q0 34 24 57.5t61 23.5q38 0 58.5 -24.5t20.5 -58.5 q0 -39 -16 -74.5t-43 -62.5t-63 -43.5t-76 -17.5l13 60q15 2 32 9t31.5 17.5t25.5 25t16 31.5q-1 -1 -7 -2.5t-14 -1.5q-30 0 -46.5 18t-16.5 43z" />
<glyph unicode="&#x201e;" horiz-adv-x="458" d="M2 57q0 35 24.5 58.5t61.5 23.5q38 0 58 -24.5t20 -59.5q0 -39 -15.5 -74t-42.5 -62t-63 -43.5t-76 -18.5l13 61q15 1 32 8t31.5 18t25.5 25t16 31q-3 -3 -21 -3q-30 0 -47 18t-17 42zM198 57q0 35 24 58.5t61 23.5q38 0 58.5 -24.5t20.5 -59.5q0 -39 -16 -74t-43 -62 t-62.5 -43.5t-75.5 -18.5l13 61q15 1 32 8t31.5 18t25.5 25t15 31q-3 -3 -20 -3q-31 0 -47.5 18t-16.5 42z" />
<glyph unicode="&#x2020;" horiz-adv-x="425" d="M356 709l-31 -142h123l-22 -104h-123l-64 -300h-111l64 300h-123l22 104h123l30 142h112z" />
<glyph unicode="&#x2021;" horiz-adv-x="1831" d="M1200 -6q17 0 30.5 13t13.5 32q0 24 -21 37q-79 49 -182 80t-239 31q-123 0 -263 -32q-15 -4 -24.5 -15.5t-9.5 -26.5q0 -17 11.5 -30.5t31.5 -13.5q7 0 20 3t21 5q66 14 121.5 18.5t93.5 4.5q107 0 199.5 -25t173.5 -74q12 -7 23 -7zM1277 181q22 0 38.5 16.5t16.5 39.5 q0 14 -6.5 26.5t-19.5 20.5q-107 66 -240 99.5t-270 33.5q-73 0 -144 -10t-138 -30q-18 -5 -28.5 -20t-10.5 -33q0 -22 14 -38t38 -16q9 0 14 1t10.5 2.5t13.5 4t22 5.5q58 14 112.5 19t94.5 5q123 0 241.5 -30t212.5 -88q14 -8 29 -8zM1332 408q15 -9 33 -9q28 0 47.5 19 t19.5 47q0 17 -8.5 32t-24.5 24q-125 72 -277 105.5t-316 33.5q-92 0 -176.5 -11.5t-154.5 -32.5q-22 -7 -34.5 -24.5t-12.5 -38.5q0 -26 18 -46.5t47 -20.5q10 0 19 3q63 19 139 29t161 10q68 0 138 -7t137 -21.5t129.5 -37.5t115.5 -54zM210 327q0 97 25.5 187.5t71.5 169 t110.5 143t143 110.5t168.5 71t187 25t187 -25t168.5 -71t143 -110.5t110.5 -143t71 -169t25 -187.5q0 -98 -25 -188t-71 -168t-110.5 -142.5t-143 -110.5t-168.5 -71t-187 -25t-187 25t-168.5 71t-143 110.5t-110.5 142.5t-71.5 168.5t-25.5 187.5z" />
<glyph unicode="&#x2022;" horiz-adv-x="551" d="M68 299q0 43 16.5 81t45 66.5t66 45t80.5 16.5t81 -16.5t66 -45t44.5 -66.5t16.5 -81t-16.5 -81t-44.5 -66.5t-66 -45t-81 -16.5t-80.5 16.5t-66 45t-45 66.5t-16.5 81z" />
<glyph unicode="&#x2026;" horiz-adv-x="850" d="M75 -11q-34 0 -54 21.5t-20 51.5q0 18 7 34t19.5 28t29 19.5t35.5 7.5q34 0 54 -21.5t20 -51.5q0 -18 -7 -34t-19.5 -28.5t-29 -19.5t-35.5 -7zM372 -11q-34 0 -54.5 21.5t-20.5 51.5q0 18 7 34t19.5 28t29 19.5t35.5 7.5q35 0 55 -21.5t20 -51.5q0 -18 -7 -34 t-19.5 -28.5t-29 -19.5t-35.5 -7zM669 -11q-34 0 -54 21.5t-20 51.5q0 18 7 34t19.5 28t29 19.5t35.5 7.5q34 0 54 -21.5t20 -51.5q0 -18 -7 -34t-19.5 -28.5t-29 -19.5t-35.5 -7z" />
<glyph unicode="&#x202f;" horiz-adv-x="207" />
<glyph unicode="&#x2030;" horiz-adv-x="1097" d="M680 709h120l-589 -709h-120zM86 541q0 39 15 71.5t40 56.5t57.5 37.5t67.5 13.5q32 0 59 -11.5t47 -31.5t31 -47t11 -58q0 -39 -15.5 -72t-41 -56.5t-57.5 -36.5t-66 -13q-33 0 -60 11.5t-46.5 31t-30.5 46.5t-11 58zM242 487q27 0 50 21t23 59q0 26 -15.5 42.5 t-42.5 16.5t-49.5 -21t-22.5 -58q0 -26 15 -42.5t42 -17.5zM657 315q34 0 62 -13t48 -36q25 23 56 36t66 13q32 0 59.5 -11.5t47 -31.5t30.5 -46.5t11 -57.5q0 -40 -15.5 -73t-41 -56.5t-57.5 -36.5t-66 -13q-35 0 -63 12.5t-48 35.5q-25 -23 -56.5 -35.5t-64.5 -12.5 t-60 11.5t-46.5 31.5t-30.5 46.5t-11 57.5q0 39 15 71.5t40 56.5t57.5 37.5t67.5 13.5zM865 82q27 0 50 21.5t23 59.5q0 26 -15 42.5t-42 16.5t-49.5 -21.5t-22.5 -58.5q0 -26 15 -42.5t41 -17.5zM633 82q27 0 50 21.5t23 59.5q0 26 -15.5 42.5t-42.5 16.5t-49.5 -21.5 t-22.5 -58.5q0 -26 15 -42.5t42 -17.5z" />
<glyph unicode="&#x2039;" horiz-adv-x="335" d="M131 101l-100 197l176 194h133l-185 -202l96 -189h-120z" />
<glyph unicode="&#x203a;" horiz-adv-x="335" d="M203 492l101 -198l-177 -193h-132l184 202l-96 189h120z" />
<glyph unicode="&#x2042;" horiz-adv-x="817" d="M501 599l107 33l13 -87l-109 -32l50 -86l-78 -52l-52 91l-84 -92l-64 54l85 90l-97 33l40 82l95 -34l20 110h95zM232 211l107 33l13 -87l-109 -32l50 -86l-78 -52l-52 91l-84 -92l-64 54l85 90l-97 33l40 82l95 -34l20 110h95zM640 211l107 33l13 -87l-109 -32l50 -86 l-78 -52l-52 91l-84 -92l-64 54l85 90l-97 33l40 82l95 -34l20 110h95z" />
<glyph unicode="&#x2044;" horiz-adv-x="175" d="M-253 0l589 709h119l-590 -709h-118z" />
<glyph unicode="&#x2051;" horiz-adv-x="441" d="M331 599l107 33l13 -87l-109 -32l50 -86l-78 -52l-52 91l-84 -92l-64 54l85 90l-97 33l40 82l95 -34l20 110h95zM244 214l107 33l13 -87l-109 -32l50 -86l-78 -52l-52 91l-84 -92l-64 54l85 90l-97 33l40 82l95 -34l20 110h95z" />
<glyph unicode="&#x205f;" horiz-adv-x="259" />
<glyph unicode="&#x2070;" horiz-adv-x="396" d="M76 479q0 38 10.5 80t33 77t59 58t87.5 23q39 0 67.5 -11.5t47 -31.5t27.5 -46.5t9 -55.5q0 -41 -10.5 -83t-33.5 -77t-59 -57t-86 -22q-68 0 -110 38.5t-42 107.5zM176 481q0 -23 11.5 -42.5t43.5 -19.5q23 0 39.5 15.5t27 38.5t15 49.5t4.5 48.5q0 25 -11.5 43 t-43.5 18q-24 0 -40.5 -17t-26.5 -41t-14.5 -49.5t-4.5 -43.5z" />
<glyph unicode="&#x2074;" horiz-adv-x="381" d="M71 518l203 191h111l-46 -217h61l-17 -78h-61l-1.5 -7.5t-4 -18.5t-5 -23.5t-4.5 -23.5h-101l16 73h-172zM263 603l-117 -111h92z" />
<glyph unicode="&#x2075;" horiz-adv-x="349" d="M151 469q0 -28 17.5 -39t34.5 -11q20 0 37 13.5t17 40.5q0 21 -14 32.5t-33 11.5q-15 0 -26 -5t-19 -12l-79 38l76 171h222l-17 -83h-154l-24 -55q11 7 25 10t27 3q54 0 85 -28.5t31 -76.5q0 -30 -11.5 -56.5t-32 -46t-49.5 -30.5t-63 -11q-30 0 -56 8.5t-45 24.5 t-30 39.5t-11 52.5z" />
<glyph unicode="&#x2076;" horiz-adv-x="371" d="M382 615q-14 7 -32.5 12.5t-44.5 5.5q-35 0 -67.5 -17.5t-47.5 -51.5q14 11 34 16.5t38 5.5q55 0 85 -30t30 -78q0 -33 -12.5 -60t-34 -46t-50.5 -29.5t-61 -10.5q-30 0 -56.5 10.5t-46 30t-30.5 48t-11 63.5q0 52 18.5 94.5t50 73t73.5 47t89 16.5q66 0 109 -25z M232 513q-21 0 -38.5 -14t-17.5 -39q0 -21 13.5 -33.5t33.5 -12.5q21 0 38 14.5t17 41.5q0 19 -12.5 31t-33.5 12z" />
<glyph unicode="&#x2077;" horiz-adv-x="341" d="M393 626q-18 -12 -45 -34.5t-56 -57t-57 -82.5t-47 -111h-106q16 65 47 117t61.5 88t55 56.5t27.5 22.5h-183l17 84h304z" />
<glyph unicode="&#x2078;" horiz-adv-x="364" d="M203 597q0 -14 10.5 -24t27.5 -10q20 0 34 11.5t14 30.5q0 11 -9 22t-31 11q-23 0 -34.5 -12.5t-11.5 -28.5zM163 448q0 -18 14 -28t34 -10q26 0 41 13.5t15 32.5q0 14 -11.5 26t-37.5 12t-40.5 -14.5t-14.5 -31.5zM211 332q-75 0 -112 29.5t-37 74.5q0 36 26.5 62.5 t67.5 34.5q-21 9 -34.5 29.5t-13.5 42.5q0 47 39.5 79t105.5 32q67 0 101.5 -28.5t34.5 -70.5q0 -31 -22 -55.5t-59 -35.5q24 -8 40.5 -29.5t16.5 -46.5q0 -26 -11.5 -48t-32.5 -37.5t-49 -24t-61 -8.5z" />
<glyph unicode="&#x2079;" horiz-adv-x="371" d="M88 436q15 -9 35.5 -14.5t46.5 -5.5q16 0 33 4.5t32.5 13.5t27 22.5t17.5 31.5q-13 -12 -32 -18t-37 -6q-55 0 -87 30t-32 77q0 33 12.5 59.5t34 45.5t50 29.5t60.5 10.5q31 0 57 -10t45.5 -29.5t30.5 -47t11 -62.5q0 -54 -17.5 -97.5t-47.5 -73.5t-71 -46.5t-89 -16.5 q-35 0 -63 7.5t-51 21.5zM236 534q22 0 38.5 15.5t16.5 40.5q0 20 -13 32.5t-32 12.5q-22 0 -38.5 -15.5t-16.5 -41.5q0 -19 12.5 -31.5t32.5 -12.5z" />
<glyph unicode="&#x2080;" horiz-adv-x="398" d="M-12 35q0 38 10.5 80t33 77t59 58t87.5 23q39 0 67.5 -11.5t47 -31.5t27.5 -46.5t9 -55.5q0 -41 -10.5 -83t-33.5 -77t-59 -57t-86 -22q-68 0 -110 38.5t-42 107.5zM88 37q0 -23 11.5 -42.5t43.5 -19.5q23 0 39.5 15.5t27 38.5t15 49.5t4.5 48.5q0 25 -11.5 43t-43.5 18 q-24 0 -40.5 -17t-26.5 -41t-14.5 -49.5t-4.5 -43.5z" />
<glyph unicode="&#x2081;" horiz-adv-x="254" d="M23 -104l49 228h-89l14 66q45 1 75.5 23.5t41.5 49.5h89l-78 -367h-102z" />
<glyph unicode="&#x2082;" horiz-adv-x="359" d="M143 100q47 20 47 51q0 13 -8.5 26t-31.5 13q-27 0 -40.5 -17t-13.5 -46l-92 6q0 30 10.5 55t30 43.5t47 29t61.5 10.5q70 0 104.5 -33.5t34.5 -78.5t-29 -77t-77 -52l-76 -32q-15 -7 -18 -17h161l-18 -85h-281q5 125 124 176z" />
<glyph unicode="&#x2083;" horiz-adv-x="364" d="M72 126l108 56h-165l18 83h280l-19 -95l-102 -53q35 -7 56.5 -33t21.5 -64q0 -26 -11.5 -49.5t-32.5 -41.5t-50 -29t-64 -11q-33 0 -60 10t-46 26.5t-29 38.5t-10 46v7.5t1 9.5l93 5q-1 -4 -1 -8q0 -21 14 -36.5t40 -15.5t40.5 14t14.5 37q0 20 -14 30.5t-33 10.5 q-8 0 -13.5 -1t-10.5 -3z" />
<glyph unicode="&#x2084;" horiz-adv-x="383" d="M-23 73l203 191h111l-46 -217h61l-17 -78h-61l-1.5 -7.5t-4 -18.5t-5 -23.5t-4.5 -23.5h-101l16 73h-172zM169 158l-117 -111h92z" />
<glyph unicode="&#x2085;" horiz-adv-x="349" d="M56 24q0 -28 17.5 -39t34.5 -11q20 0 37 13.5t17 40.5q0 21 -14 32.5t-33 11.5q-15 0 -26 -5t-19 -12l-79 38l76 171h222l-17 -83h-154l-24 -55q11 7 25 10t27 3q54 0 85 -28.5t31 -76.5q0 -30 -11.5 -56.5t-32 -46t-49.5 -30.5t-63 -11q-30 0 -56 8.5t-45 24.5t-30 39.5 t-11 52.5z" />
<glyph unicode="&#x2086;" horiz-adv-x="373" d="M288 171q-14 7 -32.5 12.5t-44.5 5.5q-35 0 -67.5 -17.5t-47.5 -51.5q14 11 34 16.5t38 5.5q55 0 85 -30t30 -78q0 -33 -12.5 -60t-34 -46t-50.5 -29.5t-61 -10.5q-30 0 -56.5 10.5t-46 30t-30.5 48t-11 63.5q0 52 18.5 94.5t50 73t73.5 47t89 16.5q66 0 109 -25zM138 69 q-21 0 -38.5 -14t-17.5 -39q0 -21 13.5 -33.5t33.5 -12.5q21 0 38 14.5t17 41.5q0 19 -12.5 31t-33.5 12z" />
<glyph unicode="&#x2087;" horiz-adv-x="342" d="M299 180q-18 -12 -45 -34.5t-56 -57t-57 -82.5t-47 -111h-106q16 65 47 117t61.5 88t55 56.5t27.5 22.5h-183l17 84h304z" />
<glyph unicode="&#x2088;" horiz-adv-x="366" d="M109 152q0 -14 10.5 -24t27.5 -10q20 0 34 11.5t14 30.5q0 11 -9 22t-31 11q-23 0 -34.5 -12.5t-11.5 -28.5zM69 3q0 -18 14 -28t34 -10q26 0 41 13.5t15 32.5q0 14 -11.5 26t-37.5 12t-40.5 -14.5t-14.5 -31.5zM117 -113q-75 0 -112 29.5t-37 74.5q0 36 26.5 62.5 t67.5 34.5q-21 9 -34.5 29.5t-13.5 42.5q0 47 39.5 79t105.5 32q67 0 101.5 -28.5t34.5 -70.5q0 -31 -22 -55.5t-59 -35.5q24 -8 40.5 -29.5t16.5 -46.5q0 -26 -11.5 -48t-32.5 -37.5t-49 -24t-61 -8.5z" />
<glyph unicode="&#x2089;" horiz-adv-x="373" d="M-6 -8q15 -9 35.5 -14.5t46.5 -5.5q16 0 33 4.5t32.5 13.5t27 22.5t17.5 31.5q-13 -12 -32 -18t-37 -6q-55 0 -87 30t-32 77q0 33 12.5 59.5t34 45.5t50 29.5t60.5 10.5q31 0 57 -10t45.5 -29.5t30.5 -47t11 -62.5q0 -54 -17.5 -97.5t-47.5 -73.5t-71 -46.5t-89 -16.5 q-35 0 -63 7.5t-51 21.5zM142 90q22 0 38.5 15.5t16.5 40.5q0 20 -13 32.5t-32 12.5q-22 0 -38.5 -15.5t-16.5 -41.5q0 -19 12.5 -31.5t32.5 -12.5z" />
<glyph unicode="&#x20ac;" horiz-adv-x="729" d="M287 227q21 -60 71 -90.5t120 -30.5q38 0 70 9t58 26q4 -10 9 -23.5t10.5 -28.5t11 -28.5t8.5 -23.5q-37 -23 -84 -37t-101 -14q-62 0 -115 17.5t-93.5 49.5t-68 76.5t-39.5 97.5h-117l22 90h87q0 16 1 33.5t4 36.5h-79q1 8 4 20t6 24.5t5.5 24.5t4.5 20h85 q23 57 61.5 102.5t87 77.5t105 49.5t116.5 17.5q75 0 126 -20.5t86 -50.5l-69 -98q-25 23 -65.5 37t-88.5 14q-30 0 -61 -8.5t-59.5 -24.5t-53 -40.5t-42.5 -55.5h312l-60 -89h-288q-3 -12 -4.5 -26t-1.5 -27v-9t1 -8h251l-57 -90h-176z" />
<glyph unicode="&#x2113;" horiz-adv-x="428" d="M241 -9q-78 0 -121.5 38.5t-43.5 104.5q0 5 0.5 14.5t2.5 17.5l15 72q-18 -4 -36.5 -6.5t-37.5 -4.5l24 115q34 3 73 15l45 214q16 76 61 114t103 38q66 0 101 -36t35 -94q0 -44 -18 -88.5t-50 -86t-76.5 -77t-97.5 -60.5l-19 -88q-1 -5 -2 -12.5t-1 -13.5q0 -22 8 -35 t20 -19.5t25 -8t23 -1.5q26 0 42 4.5t30 10.5l-23 -109q-11 -6 -31 -12t-51 -6zM251 423q18 13 35 31t29.5 39t20.5 44t8 46q0 14 -7.5 21t-18.5 7q-12 0 -22 -9.5t-16 -36.5z" />
<glyph unicode="&#x2122;" horiz-adv-x="885" d="M300 625l-59 -281h-94l60 281h-104l17 84h300l-18 -84h-102zM734 344l46 225l-133 -225h-67l-46 225l-48 -225h-91l77 365h122l45 -214l128 214h134l-77 -365h-90z" />
<glyph unicode="&#x2126;" horiz-adv-x="855" d="M427 595q-39 0 -75.5 -13t-65 -38.5t-45.5 -63t-17 -86.5q0 -42 14 -77t37 -61t53 -42.5t62 -23.5v-190h-302v126h174q-37 15 -70 40.5t-57.5 60.5t-39 79.5t-14.5 96.5q0 74 28.5 133.5t76 101.5t110 64.5t131.5 22.5t131.5 -22.5t110 -64.5t76 -101.5t28.5 -133.5 q0 -52 -14.5 -96.5t-39.5 -79.5t-58 -60.5t-70 -40.5h174v-126h-302v190q32 7 62 23.5t53.5 42.5t37.5 61t14 77q0 49 -17 86.5t-45.5 63t-65 38.5t-75.5 13z" />
<glyph unicode="&#x2160;" horiz-adv-x="487" d="M510 592h-134l-101 -475h133l-24 -117h-405l24 117h135l101 475h-134l24 117h405z" />
<glyph unicode="&#x2161;" horiz-adv-x="781" d="M678 0h-699l24 117h141l101 475h-140l24 117h699l-24 -117h-141l-101 -475h140zM527 592h-145l-101 -475h144z" />
<glyph unicode="&#x2162;" horiz-adv-x="1054" d="M951 0h-972l24 117h142l99 475h-140l24 117h972l-24 -117h-140l-100 -475h139zM799 592h-141l-99 -475h140zM282 117h140l99 475h-140z" />
<glyph unicode="&#x2163;" horiz-adv-x="1058" d="M955 0h-976l24 117h134l101 475h-133l24 117h975l-24 -117h-98l-239 -475h236zM274 117h219l-27 475h-91zM833 592h-230l18 -434z" />
<glyph unicode="&#x2164;" horiz-adv-x="799" d="M128 709h717l-24 -117h-95l-240 -475h234l-24 -117h-717l24 117h234l-27 475h-106zM576 592h-229l18 -434z" />
<glyph unicode="&#x2165;" horiz-adv-x="1049" d="M1072 592h-131l-102 -475h131l-24 -117h-967l24 117h234l-27 475h-106l24 117h968zM702 117l102 475h-78l-240 -475h216zM576 592h-229l18 -434z" />
<glyph unicode="&#x2166;" horiz-adv-x="1322" d="M1345 592h-134l-102 -475h134l-24 -117h-1240l24 117h234l-27 475h-106l24 117h1241zM839 117h133l102 475h-133zM486 117h216l102 475h-78zM576 592h-229l18 -434z" />
<glyph unicode="&#x2167;" horiz-adv-x="1590" d="M1613 592h-135l-101 -475h134l-24 -117h-1508l24 117h235l-27 475h-106l24 117h1508zM971 117l102 475h-132l-101 -475h131zM1240 117l101 475h-131l-102 -475h132zM487 117h216l101 475h-77zM577 592h-229l18 -434z" />
<glyph unicode="&#x2168;" horiz-adv-x="1030" d="M-21 0l24 117h139l100 475h-138l24 117h949l-25 -117h-90l-223 -242l121 -233h91l-24 -117h-948zM560 352l-122 240h-58l-99 -475h58zM595 592l69 -145l131 145h-200zM702 117l-67 141l-128 -141h195z" />
<glyph unicode="&#x2169;" horiz-adv-x="774" d="M312 352l-122 240h-86l24 117h692l-24 -117h-82l-223 -242l121 -233h83l-24 -117h-692l24 117h88zM347 592l69 -145l131 145h-200zM455 117l-68 141l-128 -141h196z" />
<glyph unicode="&#x216c;" horiz-adv-x="642" d="M548 0h-568l24 117h118l100 475h-117l24 117h383l-24 -117h-129l-100 -475h184l37 176h130z" />
<glyph unicode="&#x216d;" horiz-adv-x="777" d="M609 438q-1 25 -10 54t-28.5 53.5t-51.5 40.5t-79 16q-52 0 -98 -20.5t-80.5 -57.5t-55 -89t-20.5 -115q0 -53 14.5 -92.5t40 -66t61 -40t78.5 -13.5q78 0 130.5 39.5t66.5 103.5h134q-5 -21 -12 -55t-14.5 -70.5t-14.5 -70t-11 -54.5h-132l14 68q-28 -36 -74 -59.5 t-114 -23.5q-59 0 -113 20t-95 60.5t-65.5 101.5t-24.5 143q0 93 31.5 169t84 130t121.5 83.5t144 29.5q40 0 74 -8.5t60.5 -22.5t45.5 -32.5t30 -39.5l18 89h133l-56 -271h-132z" />
<glyph unicode="&#x216e;" horiz-adv-x="791" d="M143 117l100 475h-138l24 117h334q71 0 127 -19t95 -55.5t59.5 -89.5t20.5 -120q0 -96 -31.5 -174.5t-87 -134t-131.5 -86t-165 -30.5h-371l23 117h141zM347 117q52 0 102 19.5t89 57t63 92t24 125.5q0 93 -51 137t-132 44h-62l-102 -475h69z" />
<glyph unicode="&#x216f;" horiz-adv-x="1101" d="M528 220l290 489h329l-25 -117h-125l-100 -475h125l-25 -117h-356l24 117h93l86 395l-308 -505h-98l-96 497l-80 -387h90l-24 -117h-348l24 117h126l99 475h-124l24 117h304z" />
<glyph unicode="&#x2190;" horiz-adv-x="1101" d="M26 297l294 236v-179h731v-115h-731v-177z" />
<glyph unicode="&#x2191;" horiz-adv-x="516" d="M532 533h-172v-680h-114v680h-174l231 267z" />
<glyph unicode="&#x2192;" horiz-adv-x="1099" d="M779 62v177h-731v115h731v179l294 -236z" />
<glyph unicode="&#x2193;" horiz-adv-x="528" d="M232 -152l-235 269h178v677h114v-677h177z" />
<glyph unicode="&#x2196;" horiz-adv-x="911" d="M450 708l-125 -126l514 -513l-81 -81l-514 513l-126 -127v334h332z" />
<glyph unicode="&#x2197;" horiz-adv-x="717" d="M697 708v-334l-127 127l-513 -513l-81 81l513 513l-124 126h332z" />
<glyph unicode="&#x2198;" horiz-adv-x="911" d="M486 1l124 125l-513 514l81 81l513 -514l127 128v-334h-332z" />
<glyph unicode="&#x2199;" horiz-adv-x="719" d="M45 1v334l126 -128l514 514l81 -81l-514 -514l125 -125h-332z" />
<glyph unicode="&#x21a9;" horiz-adv-x="903" d="M21 274l263 226v-169h361q55 0 89.5 29.5t34.5 73.5q0 48 -35 75.5t-92 27.5h-195v115h201q53 0 97 -16.5t75.5 -46t49 -69.5t17.5 -86q0 -47 -17 -87t-48.5 -69t-75.5 -46t-98 -17h-364v-165z" />
<glyph unicode="&#x21b0;" horiz-adv-x="848" d="M67 499l263 226v-168h422v-557h-114v442h-308v-168z" />
<glyph unicode="&#x21b1;" horiz-adv-x="783" d="M96 0v557h442v168l263 -226l-263 -225v168h-327v-442h-115z" />
<glyph unicode="&#x21b2;" horiz-adv-x="782" d="M711 709v-557h-442v-168l-263 226l263 225v-168h328v442h114z" />
<glyph unicode="&#x21b3;" horiz-adv-x="866" d="M824 210l-263 -226v168h-442v557h115v-442h327v168z" />
<glyph unicode="&#x21b4;" horiz-adv-x="885" d="M112 709h565v-467h168l-223 -257l-225 257h165v352h-450v115z" />
<glyph unicode="&#x21b5;" horiz-adv-x="1093" d="M36 354h152q0 76 29.5 144t80 118t117.5 79.5t144 29.5q48 0 91.5 -11.5t82.5 -31.5l-53 -102q-27 14 -57.5 22t-62.5 8q-53 0 -100 -20t-81.5 -55t-54.5 -81.5t-20 -99.5h161l-214 -250zM926 354q0 -77 -29 -144.5t-79 -117.5t-117.5 -79t-144.5 -29q-47 0 -90.5 11.5 t-82.5 31.5l52 102q28 -14 58 -22.5t63 -8.5q53 0 99 20t80.5 55t54.5 81.5t20 99.5h-159l214 251l215 -251h-154z" />
<glyph unicode="&#x21c6;" horiz-adv-x="1183" d="M866 -62v167h-757v115h757v168l263 -226zM81 556l263 226v-170h756v-115h-756v-165z" />
<glyph unicode="&#x2202;" horiz-adv-x="617" d="M244 600q-22 0 -60 -6t-85 -28l-46 106q51 29 104 39t95 10q32 0 68 -6t71.5 -21.5t68.5 -42.5t58 -68.5t40 -99t15 -135.5t-17.5 -144.5t-53.5 -115t-90.5 -76.5t-128.5 -28q-49 0 -95 15.5t-81.5 46t-57 76t-21.5 106.5q0 55 21 98.5t55.5 72.5t78.5 44.5t89 15.5 q34 0 60.5 -5t46 -13t32.5 -18t22 -20q-3 53 -19 90.5t-41.5 61t-58.5 34.5t-70 11zM302 346q-35 0 -61.5 -9.5t-43.5 -26.5t-25.5 -39.5t-8.5 -48.5q0 -27 11 -48.5t28.5 -36.5t40 -22.5t45.5 -7.5q42 0 70 17.5t45 44.5t25 59.5t8 61.5q-23 26 -56.5 41t-77.5 15z" />
<glyph unicode="&#x2206;" horiz-adv-x="767" d="M336 559l-154 -431h309zM261 709h150l271 -709h-691z" />
<glyph unicode="&#x220f;" horiz-adv-x="741" d="M506 0v582h-248v-582h-138v709h524v-709h-138z" />
<glyph unicode="&#x2211;" horiz-adv-x="719" d="M114 125l256 229l-256 230v125h514v-128h-325l252 -227l-261 -226h334v-128h-514v125z" />
<glyph unicode="&#x2212;" horiz-adv-x="627" d="M85 294v109h476v-109h-476z" />
<glyph unicode="&#x2215;" horiz-adv-x="431" d="M507 649l-456 -649h-123l453 649h126z" />
<glyph unicode="&#x2219;" horiz-adv-x="272" d="M51 303q0 18 7 34.5t19.5 29t29 20t35.5 7.5q35 0 57.5 -22.5t22.5 -54.5q0 -40 -27 -66.5t-65 -26.5q-35 0 -57 23.5t-22 55.5z" />
<glyph unicode="&#x221a;" horiz-adv-x="651" d="M616 768l-258 -768h-118l-190 537h130l120 -354l228 696h219v-111h-131z" />
<glyph unicode="&#x221e;" horiz-adv-x="836" d="M54 344q0 40 14.5 74t40 59t60.5 39t77 14q50 0 95.5 -25.5t87.5 -73.5q43 47 87.5 73t92.5 26q42 0 77 -14t60.5 -39t40 -59t14.5 -74t-14.5 -74t-40 -58.5t-60.5 -38.5t-77 -14q-51 0 -95.5 24t-87.5 73q-44 -48 -86.5 -72.5t-93.5 -24.5q-42 0 -77 14t-60.5 38.5 t-40 58.5t-14.5 74zM248 416q-35 0 -55 -21t-20 -52t20 -51.5t55 -20.5q29 0 55.5 20t51.5 50q-26 32 -51.5 53.5t-55.5 21.5zM607 271q35 0 55 20.5t20 51.5t-20 52t-55 21q-30 0 -55.5 -21t-51.5 -51q26 -32 52 -52.5t55 -20.5z" />
<glyph unicode="&#x222b;" horiz-adv-x="339" d="M94 525q0 85 49 135t136 50h51v-118h-45q-26 0 -42 -16.5t-16 -48.5v-542q0 -85 -48.5 -135t-134.5 -50h-54v117h46q26 0 42 17t16 49v542z" />
<glyph unicode="&#x2248;" horiz-adv-x="642" d="M596 458q-26 -45 -65.5 -72.5t-102.5 -27.5q-25 0 -50.5 8t-51.5 22l-48 26q-25 14 -53 14q-27 0 -48.5 -12.5t-38.5 -34.5l-73 59q26 44 65.5 72t103.5 28q48 0 101 -29l47 -26q28 -15 58 -15q53 0 85 46zM596 257q-26 -45 -65.5 -72.5t-102.5 -27.5q-25 0 -50.5 8 t-51.5 22l-48 26q-25 14 -53 14q-27 0 -48.5 -12.5t-38.5 -34.5l-73 59q26 44 65.5 72t103.5 28q48 0 101 -29l47 -26q28 -15 58 -15q53 0 85 46z" />
<glyph unicode="&#x2260;" horiz-adv-x="621" d="M290 196l-63 -97h-121l64 97h-91v108h161l60 91h-221v107h290l60 92h120l-60 -92h75v-107h-144l-60 -91h204v-108h-274z" />
<glyph unicode="&#x2264;" horiz-adv-x="579" d="M73 478l430 135v-110l-279 -78l279 -78v-112l-430 135v108zM503 206v-109h-430v109h430z" />
<glyph unicode="&#x2265;" horiz-adv-x="607" d="M531 370l-430 -135v110l280 78l-280 79v111l430 -135v-108zM531 206v-109h-430v109h430z" />
<glyph unicode="&#x22c5;" horiz-adv-x="272" d="M51 303q0 18 7 34.5t19.5 29t29 20t35.5 7.5q35 0 57.5 -22.5t22.5 -54.5q0 -40 -27 -66.5t-65 -26.5q-35 0 -57 23.5t-22 55.5z" />
<glyph unicode="&#x24c5;" horiz-adv-x="831" d="M59 354q0 76 29 144t78.5 118t116.5 79.5t144 29.5q76 0 143.5 -29.5t118 -79.5t79.5 -118t29 -144t-29 -143.5t-79.5 -117.5t-118 -79.5t-143.5 -29.5q-77 0 -144 29.5t-116.5 79.5t-78.5 117.5t-29 143.5zM144 354q0 -61 22 -114t60 -92.5t89.5 -62t111.5 -22.5 t111.5 22.5t89.5 62t60 92.5t22 114t-22 114.5t-60 93t-89.5 62t-111.5 22.5t-111.5 -22.5t-89.5 -62t-60 -93t-22 -114.5zM455 370q31 0 51.5 17t20.5 48q0 42 -49 42h-42l-23 -107h42zM396 293l-29 -138h-93l85 399h145q26 0 48 -9t37.5 -24.5t24 -36t8.5 -43.5 q0 -30 -11.5 -57t-31.5 -47.5t-48.5 -32t-61.5 -11.5h-73z" />
<glyph unicode="&#x25a0;" horiz-adv-x="917" d="M116 709h709v-709h-709v709z" />
<glyph unicode="&#x25a1;" horiz-adv-x="917" d="M116 0v709h709v-709h-709zM230 111h478v486h-478v-486z" />
<glyph unicode="&#x25af;" horiz-adv-x="669" d="M116 0v709h461v-709h-461zM227 104h239v503h-239v-503z" />
<glyph unicode="&#x25b2;" horiz-adv-x="887" d="M806 0h-838l421 725z" />
<glyph unicode="&#x25b3;" horiz-adv-x="887" d="M387 725l419 -725h-838zM165 112h444l-222 384z" />
<glyph unicode="&#x25ca;" horiz-adv-x="617" d="M449 354l-128 223l-129 -223l129 -222zM248 0l-207 354l207 355h145l207 -355l-207 -354h-145z" />
<glyph unicode="&#x25cb;" horiz-adv-x="834" d="M800 354q0 -77 -29 -144.5t-79 -117.5t-117.5 -79t-144.5 -29t-144.5 29t-118 79t-79.5 117.5t-29 144.5t29 144.5t79.5 118t118 79.5t144.5 29t144.5 -29t117.5 -79.5t79 -118t29 -144.5zM684 354q0 53 -20 100t-54.5 82t-81 55.5t-98.5 20.5q-53 0 -100 -20.5 t-82 -55.5t-55 -82t-20 -100t20 -100t55 -82t82 -55.5t100 -20.5q52 0 98.5 20.5t81 55.5t54.5 82t20 100z" />
<glyph unicode="&#x25cf;" horiz-adv-x="834" d="M59 354q0 77 29 144.5t79 118t117.5 79.5t144.5 29t144.5 -29t118 -79.5t79.5 -118t29 -144.5t-29 -144.5t-79.5 -117.5t-118 -79t-144.5 -29t-144.5 29t-117.5 79t-79 117.5t-29 144.5z" />
<glyph unicode="&#x25fc;" horiz-adv-x="490" d="M0 490h490v-490h-490v490z" />
<glyph unicode="&#x262e;" horiz-adv-x="830" d="M796 354q0 -77 -29 -144t-79 -117.5t-117.5 -79.5t-143.5 -29q-77 0 -144 29t-116.5 79.5t-78.5 117.5t-29 144t29 144.5t78.5 118t116.5 79.5t144 29q76 0 143.5 -29t117.5 -79.5t79 -118t29 -144.5zM683 354q0 48 -15.5 90t-42.5 76t-64 57.5t-80 32.5v-195l185 -156 q17 46 17 95zM170 354q0 -47 16 -93l183 154v194q-43 -10 -79.5 -33.5t-63 -57t-41.5 -75.5t-15 -89zM481 98q72 15 124 67l-124 108v-175zM247 167q51 -52 122 -69v174z" />
<glyph unicode="&#x2713;" horiz-adv-x="881" d="M317 -16l-293 324l83 78l214 -233l531 573l82 -81z" />
<glyph unicode="&#x2715;" horiz-adv-x="881" d="M95 75l277 280l-277 277l80 80l276 -277l275 277l80 -80l-274 -277l280 -280l-80 -80l-280 279l-277 -279z" />
<glyph unicode="&#x2780;" horiz-adv-x="831" d="M59 354q0 76 29 144t78.5 118t116.5 79.5t144 29.5q76 0 143.5 -29.5t118 -79.5t79.5 -118t29 -144t-29 -143.5t-79.5 -117.5t-118 -79.5t-143.5 -29.5q-77 0 -144 29.5t-116.5 79.5t-78.5 117.5t-29 143.5zM144 354q0 -61 22 -114t60 -92.5t89.5 -62t111.5 -22.5 t111.5 22.5t89.5 62t60 92.5t22 114t-22 114.5t-60 93t-89.5 62t-111.5 22.5t-111.5 -22.5t-89.5 -62t-60 -93t-22 -114.5zM392 172v223h-92v67q24 0 42 7t30.5 18t20 24.5t10.5 27.5h91v-367h-102z" />
<glyph unicode="&#x2781;" horiz-adv-x="831" d="M427 725q76 0 143.5 -29.5t118 -79.5t79.5 -118t29 -144t-29 -143.5t-79.5 -117.5t-118 -79.5t-143.5 -29.5q-77 0 -144 29.5t-116.5 79.5t-78.5 117.5t-29 143.5t29 144t78.5 118t116.5 79.5t144 29.5zM144 354q0 -61 22 -114t60 -92.5t89.5 -62t111.5 -22.5t111.5 22.5 t89.5 62t60 92.5t22 114t-22 114.5t-60 93t-89.5 62t-111.5 22.5t-111.5 -22.5t-89.5 -62t-60 -93t-22 -114.5zM428 386q39 23 39 51q0 14 -10.5 26.5t-33.5 12.5t-35.5 -12.5t-13.5 -32.5q0 -5 0.5 -11.5t2.5 -13.5h-92q-3 13 -3 28q0 25 9 47.5t27 39.5t45 27t62 10 q34 0 60.5 -10t44.5 -26.5t27.5 -38.5t9.5 -47q0 -36 -20.5 -62.5t-58.5 -49.5l-70 -42q-5 -3 -8.5 -6.5t-3.5 -8.5h164v-85h-291v12q0 49 19.5 88.5t69.5 68.5z" />
<glyph unicode="&#x2782;" horiz-adv-x="831" d="M59 354q0 76 29 144t78.5 118t116.5 79.5t144 29.5q76 0 143.5 -29.5t118 -79.5t79.5 -118t29 -144t-29 -143.5t-79.5 -117.5t-118 -79.5t-143.5 -29.5q-77 0 -144 29.5t-116.5 79.5t-78.5 117.5t-29 143.5zM144 354q0 -61 22 -114t60 -92.5t89.5 -62t111.5 -22.5 t111.5 22.5t89.5 62t60 92.5t22 114t-22 114.5t-60 93t-89.5 62t-111.5 22.5t-111.5 -22.5t-89.5 -62t-60 -93t-22 -114.5zM361 296q2 -23 19 -38t42 -15q26 0 40.5 12.5t14.5 31.5q0 24 -16.5 34.5t-37.5 10.5q-5 0 -14 -1t-18 -5l-33 68l87 59h-161v83h284v-82l-89 -61 q44 -6 72 -33t28 -75q0 -25 -10.5 -47.5t-31 -40t-49.5 -27.5t-65 -10q-34 0 -61 9.5t-46.5 25.5t-31 37t-14.5 43z" />
<glyph unicode="&#x2783;" horiz-adv-x="831" d="M59 354q0 76 29 144t78.5 118t116.5 79.5t144 29.5q76 0 143.5 -29.5t118 -79.5t79.5 -118t29 -144t-29 -143.5t-79.5 -117.5t-118 -79.5t-143.5 -29.5q-77 0 -144 29.5t-116.5 79.5t-78.5 117.5t-29 143.5zM144 354q0 -61 22 -114t60 -92.5t89.5 -62t111.5 -22.5 t111.5 22.5t89.5 62t60 92.5t22 114t-22 114.5t-60 93t-89.5 62t-111.5 22.5t-111.5 -22.5t-89.5 -62t-60 -93t-22 -114.5zM248 342l169 203h109v-217h61v-79h-61v-71h-101v71h-177v93zM425 434l-88 -106h88v106z" />
<glyph unicode="&#x2784;" horiz-adv-x="831" d="M59 354q0 76 29 144t78.5 118t116.5 79.5t144 29.5q76 0 143.5 -29.5t118 -79.5t79.5 -118t29 -144t-29 -143.5t-79.5 -117.5t-118 -79.5t-143.5 -29.5q-77 0 -144 29.5t-116.5 79.5t-78.5 117.5t-29 143.5zM144 354q0 -61 22 -114t60 -92.5t89.5 -62t111.5 -22.5 t111.5 22.5t89.5 62t60 92.5t22 114t-22 114.5t-60 93t-89.5 62t-111.5 22.5t-111.5 -22.5t-89.5 -62t-60 -93t-22 -114.5zM357 292q3 -23 20.5 -36.5t40.5 -13.5t38 12.5t15 35.5q0 26 -15.5 38.5t-40.5 12.5q-16 0 -29.5 -6t-22.5 -16l-83 25l46 189h222v-83h-162l-15 -63 q13 11 32 17t39 6q59 0 94 -31.5t35 -87.5q0 -27 -10 -51t-29.5 -42t-48 -28.5t-65.5 -10.5q-30 0 -56 8.5t-46 23.5t-32.5 35t-15.5 43z" />
<glyph unicode="&#x2785;" horiz-adv-x="831" d="M59 354q0 76 29 144t78.5 118t116.5 79.5t144 29.5q76 0 143.5 -29.5t118 -79.5t79.5 -118t29 -144t-29 -143.5t-79.5 -117.5t-118 -79.5t-143.5 -29.5q-77 0 -144 29.5t-116.5 79.5t-78.5 117.5t-29 143.5zM144 354q0 -61 22 -114t60 -92.5t89.5 -62t111.5 -22.5 t111.5 22.5t89.5 62t60 92.5t22 114t-22 114.5t-60 93t-89.5 62t-111.5 22.5t-111.5 -22.5t-89.5 -62t-60 -93t-22 -114.5zM540 454q-14 5 -30.5 8.5t-34.5 3.5q-39 0 -72.5 -19.5t-44.5 -63.5q15 16 37.5 24.5t47.5 8.5q56 0 93 -30t37 -89q0 -29 -11.5 -53.5t-32.5 -42 t-49.5 -27.5t-62.5 -10q-33 0 -62 11t-50.5 33t-34.5 53t-13 72q0 50 16.5 90t45 67.5t67 42t83.5 14.5q47 0 90 -16zM363 294q0 -23 16 -36t38 -13t38 13t16 36t-16 36.5t-38 13.5t-38 -13.5t-16 -36.5z" />
<glyph unicode="&#x2786;" horiz-adv-x="831" d="M59 354q0 76 29 144t78.5 118t116.5 79.5t144 29.5q76 0 143.5 -29.5t118 -79.5t79.5 -118t29 -144t-29 -143.5t-79.5 -117.5t-118 -79.5t-143.5 -29.5q-77 0 -144 29.5t-116.5 79.5t-78.5 117.5t-29 143.5zM144 354q0 -61 22 -114t60 -92.5t89.5 -62t111.5 -22.5 t111.5 22.5t89.5 62t60 92.5t22 114t-22 114.5t-60 93t-89.5 62t-111.5 22.5t-111.5 -22.5t-89.5 -62t-60 -93t-22 -114.5zM579 446q-13 -10 -34.5 -31t-43.5 -55.5t-40 -83t-24 -113.5h-107q5 69 25 122t43 89q26 42 59 73h-185v84h307v-85z" />
<glyph unicode="&#x2787;" horiz-adv-x="831" d="M59 354q0 76 29 144t78.5 118t116.5 79.5t144 29.5q76 0 143.5 -29.5t118 -79.5t79.5 -118t29 -144t-29 -143.5t-79.5 -117.5t-118 -79.5t-143.5 -29.5q-77 0 -144 29.5t-116.5 79.5t-78.5 117.5t-29 143.5zM144 354q0 -61 22 -114t60 -92.5t89.5 -62t111.5 -22.5 t111.5 22.5t89.5 62t60 92.5t22 114t-22 114.5t-60 93t-89.5 62t-111.5 22.5t-111.5 -22.5t-89.5 -62t-60 -93t-22 -114.5zM427 394q23 0 34.5 11.5t11.5 27.5q0 13 -11.5 24.5t-34.5 11.5t-34 -11.5t-11 -24.5q0 -16 11.5 -27.5t33.5 -11.5zM427 244q29 0 42 13t13 30 q0 15 -13 27.5t-42 12.5q-28 0 -41.5 -12.5t-13.5 -27.5q0 -17 13 -30t42 -13zM427 165q-74 0 -114.5 30.5t-40.5 79.5q0 30 20.5 53.5t52.5 33.5q-30 10 -46 33t-16 49q0 45 37.5 74.5t106.5 29.5t107 -29.5t38 -74.5q0 -26 -16 -49t-46 -33q31 -10 52 -33t21 -52 q0 -50 -40 -81t-116 -31z" />
<glyph unicode="&#x2788;" horiz-adv-x="831" d="M59 354q0 76 29 144t78.5 118t116.5 79.5t144 29.5q76 0 143.5 -29.5t118 -79.5t79.5 -118t29 -144t-29 -143.5t-79.5 -117.5t-118 -79.5t-143.5 -29.5q-77 0 -144 29.5t-116.5 79.5t-78.5 117.5t-29 143.5zM144 354q0 -61 22 -114t60 -92.5t89.5 -62t111.5 -22.5 t111.5 22.5t89.5 62t60 92.5t22 114t-22 114.5t-60 93t-89.5 62t-111.5 22.5t-111.5 -22.5t-89.5 -62t-60 -93t-22 -114.5zM312 258q27 -12 65 -12q40 0 73.5 18.5t43.5 63.5q-15 -15 -38 -23.5t-49 -8.5t-49.5 8t-41.5 23t-29 37t-11 51q0 59 42.5 96t113.5 37 q33 0 62 -11.5t50.5 -33t34 -53.5t12.5 -72q0 -51 -15.5 -91t-43.5 -67.5t-65.5 -42t-81.5 -14.5q-47 0 -90 16zM483 417q0 23 -15.5 36.5t-38.5 13.5q-22 0 -37.5 -13.5t-15.5 -36.5t15.5 -36.5t37.5 -13.5q23 0 38.5 13.5t15.5 36.5z" />
<glyph unicode="&#xe000;" horiz-adv-x="714" d="M16 242h168v467h565v-115h-450v-352h165l-225 -257z" />
<glyph unicode="&#xe002;" horiz-adv-x="977" d="M749 605l215 -251h-151q0 -77 -29 -144.5t-79 -117.5t-117.5 -79t-144.5 -29t-144 29t-117.5 79t-79.5 117.5t-29 144.5t29 144.5t79.5 118t117.5 79.5t144 29q43 0 82.5 -9t75.5 -26l-46 -106q-52 26 -111 26q-53 0 -100 -20t-81.5 -55t-54.5 -81.5t-20 -99.5t20 -99.5 t54.5 -81.5t81.5 -55.5t100 -20.5q52 0 98.5 20.5t80.5 55.5t54 81.5t20 99.5h-162z" />
<glyph unicode="&#xf6c3;" horiz-adv-x="189" d="M-13 589q5 -1 15 -1q22 0 43 8t32 31q-2 -1 -8 -2.5t-14 -1.5q-30 0 -45.5 16.5t-15.5 38.5q0 29 22 49t54 20q35 0 54.5 -20.5t19.5 -53.5q0 -32 -11.5 -56.5t-30.5 -42t-45 -26.5t-54 -9q-6 0 -12.5 0.5t-13.5 1.5z" />
<glyph unicode="&#xfb00;" horiz-adv-x="687" />
<glyph unicode="&#xfb01;" horiz-adv-x="633" />
<glyph unicode="&#xfb02;" horiz-adv-x="632" />
<glyph unicode="&#xfb03;" horiz-adv-x="946" />
<glyph unicode="&#xfb04;" horiz-adv-x="952" />
<glyph unicode="&#xfeff;" horiz-adv-x="0" />
<glyph horiz-adv-x="415" d="M145 379h-98v112h121l19 92q8 42 27 71.5t44.5 48.5t55.5 28t60 9q18 0 30 -1t21.5 -2.5t18 -4t19.5 -5.5v-115q-14 3 -27.5 5t-32.5 2q-11 0 -23.5 -2.5t-25 -11t-22.5 -23t-15 -38.5l-11 -53h117v-112h-140l-79 -392q-8 -41 -27 -71t-44.5 -49t-55.5 -28t-60 -9 q-35 0 -53.5 3.5t-38.5 10.5v114q14 -3 30 -5t35 -2q10 0 22.5 2.5t24.5 10.5t22 23t15 40z" />
<glyph horiz-adv-x="451" d="M108 0l30 144h-122l21 103h123l46 215h-123l22 103h123l30 144h112l-31 -144h123l-22 -103h-123l-46 -215h123l-22 -103h-122l-31 -144h-111z" />
<glyph horiz-adv-x="266" d="M126 648q0 37 26.5 63t63.5 26q33 0 53.5 -21t20.5 -51q0 -20 -7.5 -36t-20.5 -28t-29 -18.5t-34 -6.5q-32 0 -52.5 20.5t-20.5 51.5zM4 0l105 492h132l-105 -492h-132z" />
<glyph horiz-adv-x="553" d="M21 0l150 709h138l-122 -577h308l-28 -132h-446zM323 385q0 16 7 31.5t19 27.5t28.5 19.5t34.5 7.5q32 0 52.5 -20.5t20.5 -49.5q0 -19 -7 -35t-19 -28t-28 -19t-34 -7q-33 0 -53.5 21.5t-20.5 51.5z" />
<glyph horiz-adv-x="396" d="M256 322q0 17 6.5 33t18.5 28t28 19.5t35 7.5q32 0 52 -20.5t20 -49.5q0 -19 -7 -35.5t-19 -28.5t-27.5 -19t-33.5 -7q-32 0 -52.5 21.5t-20.5 50.5zM4 0l153 724h133l-154 -724h-132z" />
<glyph horiz-adv-x="398" d="M4 137q0 38 10.5 80t33 77t59 58t87.5 23q39 0 67.5 -11.5t47 -31.5t27.5 -46.5t9 -55.5q0 -41 -10.5 -83t-33.5 -77t-59 -57t-86 -22q-68 0 -110 38.5t-42 107.5zM104 139q0 -23 11.5 -42.5t43.5 -19.5q23 0 39.5 15.5t27 38.5t15 49.5t4.5 48.5q0 25 -11.5 43t-43.5 18 q-24 0 -40.5 -17t-26.5 -41t-14.5 -49.5t-4.5 -43.5z" />
<glyph horiz-adv-x="254" d="M45 0l49 228h-89l14 66q45 1 75.5 23.5t41.5 49.5h89l-78 -367h-102z" />
<glyph horiz-adv-x="358" d="M165 204q47 20 47 51q0 13 -8.5 26t-31.5 13q-27 0 -40.5 -17t-13.5 -46l-92 6q0 30 10.5 55t30 43.5t47 29t61.5 10.5q70 0 104.5 -33.5t34.5 -78.5t-29 -77t-77 -52l-76 -32q-15 -7 -18 -17h161l-18 -85h-281q5 125 124 176z" />
<glyph horiz-adv-x="364" d="M94 229l108 56h-165l18 83h280l-19 -95l-102 -53q35 -7 56.5 -33t21.5 -64q0 -26 -11.5 -49.5t-32.5 -41.5t-50 -29t-64 -11q-33 0 -60 10t-46 26.5t-29 38.5t-10 46v7.5t1 9.5l93 5q-1 -4 -1 -8q0 -21 14 -36.5t40 -15.5t40.5 14t14.5 37q0 20 -14 30.5t-33 10.5 q-8 0 -13.5 -1t-10.5 -3z" />
<glyph horiz-adv-x="383" d="M-1 177l203 191h111l-46 -217h61l-17 -78h-61l-1.5 -7.5t-4 -18.5t-5 -23.5t-4.5 -23.5h-101l16 73h-172zM191 262l-117 -111h92z" />
<glyph horiz-adv-x="350" d="M78 127q0 -28 17.5 -39t34.5 -11q20 0 37 13.5t17 40.5q0 21 -14 32.5t-33 11.5q-15 0 -26 -5t-19 -12l-79 38l76 171h222l-17 -83h-154l-24 -55q11 7 25 10t27 3q54 0 85 -28.5t31 -76.5q0 -30 -11.5 -56.5t-32 -46t-49.5 -30.5t-63 -11q-30 0 -56 8.5t-45 24.5 t-30 39.5t-11 52.5z" />
<glyph horiz-adv-x="373" d="M310 275q-14 7 -32.5 12.5t-44.5 5.5q-35 0 -67.5 -17.5t-47.5 -51.5q14 11 34 16.5t38 5.5q55 0 85 -30t30 -78q0 -33 -12.5 -60t-34 -46t-50.5 -29.5t-61 -10.5q-30 0 -56.5 10.5t-46 30t-30.5 48t-11 63.5q0 52 18.5 94.5t50 73t73.5 47t89 16.5q66 0 109 -25z M160 173q-21 0 -38.5 -14t-17.5 -39q0 -21 13.5 -33.5t33.5 -12.5q21 0 38 14.5t17 41.5q0 19 -12.5 31t-33.5 12z" />
<glyph horiz-adv-x="343" d="M322 285q-18 -12 -45 -34.5t-56 -57t-57 -82.5t-47 -111h-106q16 65 47 117t61.5 88t55 56.5t27.5 22.5h-183l17 84h304z" />
<glyph horiz-adv-x="366" d="M131 256q0 -14 10.5 -24t27.5 -10q20 0 34 11.5t14 30.5q0 11 -9 22t-31 11q-23 0 -34.5 -12.5t-11.5 -28.5zM91 107q0 -18 14 -28t34 -10q26 0 41 13.5t15 32.5q0 14 -11.5 26t-37.5 12t-40.5 -14.5t-14.5 -31.5zM139 -9q-75 0 -112 29.5t-37 74.5q0 36 26.5 62.5 t67.5 34.5q-21 9 -34.5 29.5t-13.5 42.5q0 47 39.5 79t105.5 32q67 0 101.5 -28.5t34.5 -70.5q0 -31 -22 -55.5t-59 -35.5q24 -8 40.5 -29.5t16.5 -46.5q0 -26 -11.5 -48t-32.5 -37.5t-49 -24t-61 -8.5z" />
<glyph horiz-adv-x="373" d="M16 95q15 -9 35.5 -14.5t46.5 -5.5q16 0 33 4.5t32.5 13.5t27 22.5t17.5 31.5q-13 -12 -32 -18t-37 -6q-55 0 -87 30t-32 77q0 33 12.5 59.5t34 45.5t50 29.5t60.5 10.5q31 0 57 -10t45.5 -29.5t30.5 -47t11 -62.5q0 -54 -17.5 -97.5t-47.5 -73.5t-71 -46.5t-89 -16.5 q-35 0 -63 7.5t-51 21.5zM164 193q22 0 38.5 15.5t16.5 40.5q0 20 -13 32.5t-32 12.5q-22 0 -38.5 -15.5t-16.5 -41.5q0 -19 12.5 -31.5t32.5 -12.5z" />
<glyph horiz-adv-x="47" />
<glyph />
<glyph d="M141 77q0 47 32 76.5t79 29.5t75 -31t28 -78q0 -54 -20 -101t-54 -82t-80.5 -56.5t-100.5 -24.5l16 76q20 2 41.5 11t41 24t34 35t19.5 44q-3 -2 -11 -3t-15 -1q-39 0 -62 23.5t-23 57.5z" />
<glyph d="M240 -7q-42 0 -67.5 27t-25.5 64q0 22 9 43t24.5 36t36.5 24t45 9q42 0 67.5 -27t25.5 -64q0 -23 -9 -43.5t-25 -35.5t-36.5 -24t-44.5 -9z" />
<glyph d="M237 -9q-39 0 -62 25t-23 60q0 21 8 39.5t22.5 32.5t33.5 22t41 8q39 0 62 -24.5t23 -59.5q0 -21 -8.5 -39.5t-22.5 -32.5t-33 -22.5t-41 -8.5zM306 314q-39 0 -62.5 25t-23.5 59q0 21 8 39.5t22.5 32.5t33.5 22t41 8q39 0 62.5 -24t23.5 -59q0 -21 -8.5 -39.5t-22.5 -33 t-33.5 -22.5t-40.5 -8z" />
<glyph d="M148 71q0 43 29 69.5t72 26.5t69 -28t26 -71q0 -50 -18.5 -93t-50 -75t-74 -51.5t-91.5 -22.5l15 70q18 2 38 10t37.5 22t30.5 32t18 40q-3 -2 -10 -3t-13 -1q-36 0 -57 21.5t-21 53.5zM303 312q-39 0 -62.5 25t-23.5 59q0 21 8.5 40t22.5 33t33.5 22.5t41.5 8.5 q40 0 63.5 -25t23.5 -59q0 -22 -8.5 -41t-23 -33t-34 -22t-41.5 -8z" />
<glyph d="M143 11q-4 -15 -4 -30q0 -36 22 -55.5t59 -19.5q32 0 56.5 20.5t24.5 55.5t-30 56l-91 63q-44 29 -75 66.5t-31 90.5q0 30 9.5 53.5t24.5 41t34 29.5t39 20q-26 26 -38 57.5t-12 63.5q0 46 20 83.5t52 63.5t72 40t81 14q49 0 86 -13.5t62 -37t38 -54.5t13 -67 q0 -16 -3 -34l-128 -9q2 5 2.5 13t0.5 16q0 36 -22 55t-58 19q-32 0 -56.5 -21t-24.5 -55q0 -15 8 -29.5t23 -25.5l89 -63q22 -15 41.5 -31.5t34 -35t23 -40.5t8.5 -48q0 -31 -9.5 -55t-24.5 -42t-34.5 -30.5t-38.5 -19.5q26 -25 38 -55.5t12 -60.5q0 -48 -19.5 -86 t-51.5 -64.5t-72.5 -40.5t-82.5 -14q-48 0 -85 13.5t-62 36.5t-38 54.5t-13 66.5q0 16 3 36zM247 352q-21 -11 -33.5 -28.5t-12.5 -40.5q0 -16 6.5 -29t23.5 -24l89 -64q20 11 33 28.5t13 41.5q0 32 -30 53z" />
<glyph d="M226 379h-98v112h121l19 92q8 42 27 71.5t44.5 48.5t55.5 28t60 9q18 0 30 -1t21.5 -2.5t18 -4t19.5 -5.5v-115q-14 3 -27.5 5t-32.5 2q-11 0 -23.5 -2.5t-25 -11t-22.5 -23t-15 -38.5l-11 -53h117v-112h-140l-79 -392q-8 -41 -27 -71t-44.5 -49t-55.5 -28t-60 -9 q-35 0 -53.5 3.5t-38.5 10.5v114q14 -3 30 -5t35 -2q10 0 22.5 2.5t24.5 10.5t22 23t15 40z" />
<glyph />
<glyph />
<glyph horiz-adv-x="355" d="M48 246q0 183 82 327.5t239 241.5l61 -79q-60 -43 -109.5 -91t-85.5 -106.5t-56 -130t-20 -159.5q0 -85 27 -165t71 -145l-86 -61q-24 32 -46 72.5t-39.5 87.5t-27.5 99.5t-10 108.5z" />
<glyph horiz-adv-x="352" d="M326 447q0 -183 -83 -326t-238 -243l-60 79q58 43 107.5 91.5t86 107t57 129.5t20.5 160q0 85 -27 164.5t-72 144.5l87 61q24 -32 46 -72.5t39 -87.5t27 -99.5t10 -108.5z" />
<glyph horiz-adv-x="419" d="M61 288l25 118h291l-26 -118h-290z" />
<glyph horiz-adv-x="335" d="M-17 -109l196 926h230l-21 -102h-119l-154 -721h120l-22 -103h-230z" />
<glyph horiz-adv-x="335" d="M-50 -109l21 103h119l154 721h-120l22 102h230l-196 -926h-230z" />
<glyph horiz-adv-x="382" d="M45 411q42 0 77 20.5t46 71.5l25 120q11 54 31.5 91t50 59.5t67 32.5t82.5 10h34l-22 -101h-29q-37 0 -64 -19t-38 -70l-31 -145q-11 -50 -42.5 -84.5t-84.5 -44.5q37 -10 55 -37.5t18 -64.5q0 -16 -3 -34l-27 -130q-3 -17 -3 -29q0 -35 20 -49t51 -14h25l-21 -101h-28 q-74 0 -116.5 38.5t-42.5 110.5q0 25 6 55l23 109q3 15 3 27q0 36 -24 51.5t-61 15.5z" />
<glyph horiz-adv-x="382" d="M361 298q-42 0 -76.5 -20.5t-45.5 -71.5l-25 -120q-11 -54 -32 -91t-50.5 -59.5t-67 -32.5t-81.5 -10h-34l21 101h30q37 0 64 19t38 70l31 145q11 50 42.5 85t84.5 44q-36 11 -55 37.5t-19 64.5q0 18 4 34l27 130q3 15 3 28q0 35 -20 49.5t-51 14.5h-25l21 101h28 q73 0 116 -39t43 -110q0 -27 -6 -55l-24 -109q-3 -14 -3 -26q0 -37 24.5 -52.5t61.5 -15.5z" />
<glyph horiz-adv-x="278" d="M159 0h-161l136 493h97zM288 646q0 -36 -25.5 -62t-61.5 -26q-33 0 -52.5 21t-19.5 50q0 18 7 34t19 28t27.5 19t32.5 7q32 0 52.5 -20.5t20.5 -50.5z" />
<glyph horiz-adv-x="570" d="M148 151l-100 197l176 194h133l-185 -202l96 -189h-120zM367 151l-100 197l176 194h133l-185 -202l96 -189h-120z" />
<glyph horiz-adv-x="425" d="M67 293l20 119h290l-20 -119h-290z" />
<glyph horiz-adv-x="573" d="M222 542l101 -198l-177 -193h-132l184 202l-96 189h120zM445 542l101 -198l-177 -193h-132l184 202l-96 189h120z" />
<glyph horiz-adv-x="527" d="M372 495q0 -24 -5 -49.5t-17 -50t-33 -47t-54 -41.5l-56 -32q-30 -17 -44 -41.5t-14 -51.5q0 -15 5 -29t15.5 -25t27 -17.5t39.5 -6.5q29 0 50.5 11t36 29t21.5 41.5t7 48.5l124 -14q-1 -50 -19 -92.5t-50.5 -74t-78 -49.5t-100.5 -18q-54 0 -94.5 15.5t-67.5 40 t-40.5 56.5t-13.5 65q0 75 38 124.5t98 83.5l47 27q35 20 51.5 42.5t19.5 54.5h107zM413 647q0 -18 -7 -34t-19 -28t-28 -19t-34 -7q-33 0 -52 21t-19 50q0 18 7 34t19 28t27.5 19t32.5 7q32 0 52.5 -20.5t20.5 -50.5z" />
<glyph horiz-adv-x="646" d="M62 289l24 115h516l-24 -115h-516z" />
<glyph horiz-adv-x="1070" d="M62 289l24 115h940l-24 -115h-940z" />
<glyph horiz-adv-x="351" d="M148 151l-100 197l176 194h133l-185 -202l96 -189h-120z" />
<glyph horiz-adv-x="350" d="M222 542l101 -198l-177 -193h-132l184 202l-96 189h120z" />
<glyph horiz-adv-x="759" d="M439 724q71 0 124 -19.5t90 -51t58.5 -71t28.5 -80.5l-135 -40q-5 25 -17.5 48.5t-34 42t-52 29.5t-72.5 11q-48 0 -90.5 -20t-74.5 -57t-50.5 -88t-18.5 -114q0 -44 13 -80.5t37 -63t59 -41t79 -14.5q40 0 72 11t56 29.5t40 42t23 48.5h-240l26 119h373 q-3 -78 -27 -147.5t-69 -121t-111 -82t-153 -30.5q-69 0 -127.5 24.5t-101 67.5t-66.5 102t-24 128q0 100 32.5 177.5t86.5 131t123.5 81.5t142.5 28z" />
<glyph horiz-adv-x="759" d="M439 724q71 0 124 -19.5t90 -51t58.5 -71t28.5 -80.5l-135 -40q-5 25 -17.5 48.5t-34 42t-52 29.5t-72.5 11q-48 0 -90.5 -20t-74.5 -57t-50.5 -88t-18.5 -114q0 -44 13 -80.5t37 -63t59 -41t79 -14.5q40 0 72 11t56 29.5t40 42t23 48.5h-240l26 119h373 q-3 -78 -27 -147.5t-69 -121t-111 -82t-153 -30.5q-69 0 -127.5 24.5t-101 67.5t-66.5 102t-24 128q0 100 32.5 177.5t86.5 131t123.5 81.5t142.5 28zM257 759l146 127h137l94 -127h-116l-54 65l-82 -65h-125z" />
<glyph horiz-adv-x="759" d="M439 724q71 0 124 -19.5t90 -51t58.5 -71t28.5 -80.5l-135 -40q-5 25 -17.5 48.5t-34 42t-52 29.5t-72.5 11q-48 0 -90.5 -20t-74.5 -57t-50.5 -88t-18.5 -114q0 -44 13 -80.5t37 -63t59 -41t79 -14.5q40 0 72 11t56 29.5t40 42t23 48.5h-240l26 119h373 q-3 -78 -27 -147.5t-69 -121t-111 -82t-153 -30.5q-69 0 -127.5 24.5t-101 67.5t-66.5 102t-24 128q0 100 32.5 177.5t86.5 131t123.5 81.5t142.5 28zM470 754q-64 0 -104.5 31.5t-40.5 86.5q0 3 0.5 9t1.5 8h96q-1 -5 -1 -10q0 -17 13 -29t41 -12q32 0 50 15.5t23 35.5h104 q-7 -24 -21.5 -48.5t-37.5 -43.5t-54 -31t-70 -12z" />
<glyph horiz-adv-x="759" d="M439 724q71 0 124 -19.5t90 -51t58.5 -71t28.5 -80.5l-135 -40q-5 25 -17.5 48.5t-34 42t-52 29.5t-72.5 11q-48 0 -90.5 -20t-74.5 -57t-50.5 -88t-18.5 -114q0 -44 13 -80.5t37 -63t59 -41t79 -14.5q40 0 72 11t56 29.5t40 42t23 48.5h-240l26 119h373 q-3 -78 -27 -147.5t-69 -121t-111 -82t-153 -30.5q-69 0 -127.5 24.5t-101 67.5t-66.5 102t-24 128q0 100 32.5 177.5t86.5 131t123.5 81.5t142.5 28zM387 830q0 16 7 31.5t19 27.5t28.5 19.5t34.5 7.5q32 0 52.5 -20.5t20.5 -49.5q0 -19 -7 -35t-19 -28t-28 -19t-34 -7 q-33 0 -53.5 21.5t-20.5 51.5z" />
<glyph horiz-adv-x="759" d="M439 724q71 0 124 -19.5t90 -51t58.5 -71t28.5 -80.5l-135 -40q-5 25 -17.5 48.5t-34 42t-52 29.5t-72.5 11q-48 0 -90.5 -20t-74.5 -57t-50.5 -88t-18.5 -114q0 -44 13 -80.5t37 -63t59 -41t79 -14.5q40 0 72 11t56 29.5t40 42t23 48.5h-240l26 119h373 q-3 -78 -27 -147.5t-69 -121t-111 -82t-153 -30.5q-69 0 -127.5 24.5t-101 67.5t-66.5 102t-24 128q0 100 32.5 177.5t86.5 131t123.5 81.5t142.5 28zM283 -111q0 29 21.5 49t54.5 20q35 0 55 -21.5t20 -53.5q0 -33 -12 -58t-32 -41.5t-45 -25t-51 -8.5q-10 0 -18 1t-11 2 l11 47q4 -1 8 -1h6q22 0 44 8t31 31q-1 -1 -7 -2.5t-14 -1.5q-30 0 -45.5 16.5t-15.5 38.5z" />
<glyph horiz-adv-x="394" d="M306 321q-38 0 -60 24t-22 56v11l-88 -412h-132l94 442q3 15 4 26.5t1 23.5h134q0 -8 -1 -20t-3 -20l-6 -26q9 31 36 52t62 21q37 0 59 -24t22 -56q0 -20 -8 -37.5t-21.5 -31t-31.5 -21.5t-39 -8z" />
<glyph horiz-adv-x="394" d="M273 551h-114l120 150h162zM306 321q-38 0 -60 24t-22 56v11l-88 -412h-132l94 442q3 15 4 26.5t1 23.5h134q0 -8 -1 -20t-3 -20l-6 -26q9 31 36 52t62 21q37 0 59 -24t22 -56q0 -20 -8 -37.5t-21.5 -31t-31.5 -21.5t-39 -8z" />
<glyph horiz-adv-x="394" d="M-24 -111q0 29 21.5 49t54.5 20q35 0 55 -21.5t20 -53.5q0 -33 -12 -58t-32 -41.5t-45 -25t-51 -8.5q-10 0 -18 1t-11 2l11 47q4 -1 8 -1h6q22 0 44 8t31 31q-1 -1 -7 -2.5t-14 -1.5q-30 0 -45.5 16.5t-15.5 38.5zM306 321q-38 0 -60 24t-22 56v11l-88 -412h-132l94 442 q3 15 4 26.5t1 23.5h134q0 -8 -1 -20t-3 -20l-6 -26q9 31 36 52t62 21q37 0 59 -24t22 -56q0 -20 -8 -37.5t-21.5 -31t-31.5 -21.5t-39 -8z" />
<glyph horiz-adv-x="394" d="M459 700l-142 -148h-133l-79 148h103l54 -75l82 75h115zM306 321q-38 0 -60 24t-22 56v11l-88 -412h-132l94 442q3 15 4 26.5t1 23.5h134q0 -8 -1 -20t-3 -20l-6 -26q9 31 36 52t62 21q37 0 59 -24t22 -56q0 -20 -8 -37.5t-21.5 -31t-31.5 -21.5t-39 -8z" />
<glyph horiz-adv-x="682" d="M569 220q-10 -50 -34.5 -92.5t-61.5 -74.5t-85.5 -50t-105.5 -18q-64 0 -112.5 16.5t-81 45t-49 65.5t-16.5 78q0 51 18.5 88.5t46.5 64t61.5 41t64.5 18.5q-35 17 -57.5 51t-22.5 77q0 45 19.5 81t51 61.5t71.5 39t81 13.5q54 0 94.5 -15t67.5 -39.5t40 -57t13 -67.5 q0 -3 -0.5 -14t-2.5 -20l-132 -5q2 7 2 13.5v11.5q0 33 -19.5 56t-64.5 23q-16 0 -32 -6t-29 -17t-21 -27t-8 -37q0 -38 26 -56t60 -18l-25 -114h-16q-21 0 -46 -6t-47 -20.5t-37 -39.5t-15 -64q0 -19 7.5 -37.5t22.5 -33t38.5 -23.5t55.5 -9q52 0 92 31t53 86h-86l24 115 h294l-23 -115h-74z" />
<glyph horiz-adv-x="468" d="M89 526q0 39 15 74t41 61t61 41t74 15t74 -15t61.5 -41t41.5 -61t15 -74t-15 -74t-41.5 -61t-61.5 -41t-74 -15t-74 15t-61 41t-41 61t-15 74zM142 526q0 -30 10.5 -55.5t29 -44.5t44 -30t54.5 -11t54.5 11t44 30t29 44.5t10.5 55.5t-10.5 55.5t-29 44.5t-44 30t-54.5 11 t-54.5 -11t-44 -30t-29 -44.5t-10.5 -55.5zM288 541q12 0 20 5.5t8 15.5q0 20 -20 20h-15l-9 -41h16zM275 496h-12l-14 -65h-56l42 196h78q28 0 43.5 -16t15.5 -40t-13 -41.5t-34 -24.5l21 -74h-56z" />
<glyph horiz-adv-x="396" d="M76 479q0 38 10.5 80t33 77t59 58t87.5 23q39 0 67.5 -11.5t47 -31.5t27.5 -46.5t9 -55.5q0 -41 -10.5 -83t-33.5 -77t-59 -57t-86 -22q-68 0 -110 38.5t-42 107.5zM176 481q0 -23 11.5 -42.5t43.5 -19.5q23 0 39.5 15.5t27 38.5t15 49.5t4.5 48.5q0 25 -11.5 43 t-43.5 18q-24 0 -40.5 -17t-26.5 -41t-14.5 -49.5t-4.5 -43.5z" />
<glyph horiz-adv-x="252" d="M117 342l49 228h-89l14 66q45 1 75.5 23.5t41.5 49.5h89l-78 -367h-102z" />
<glyph horiz-adv-x="356" d="M237 545q47 20 47 51q0 13 -8.5 26t-31.5 13q-27 0 -40.5 -17t-13.5 -46l-92 6q0 30 10.5 55t30 43.5t47 29t61.5 10.5q70 0 104.5 -33.5t34.5 -78.5t-29 -77t-77 -52l-76 -32q-15 -7 -18 -17h161l-18 -85h-281q5 125 124 176z" />
<glyph horiz-adv-x="362" d="M166 570l108 56h-165l18 83h280l-19 -95l-102 -53q35 -7 56.5 -33t21.5 -64q0 -26 -11.5 -49.5t-32.5 -41.5t-50 -29t-64 -11q-33 0 -60 10t-46 26.5t-29 38.5t-10 46v7.5t1 9.5l93 5q-1 -4 -1 -8q0 -21 14 -36.5t40 -15.5t40.5 14t14.5 37q0 20 -14 30.5t-33 10.5 q-8 0 -13.5 -1t-10.5 -3z" />
<glyph horiz-adv-x="381" d="M71 518l203 191h111l-46 -217h61l-17 -78h-61l-1.5 -7.5t-4 -18.5t-5 -23.5t-4.5 -23.5h-101l16 73h-172zM263 603l-117 -111h92z" />
<glyph horiz-adv-x="349" d="M151 469q0 -28 17.5 -39t34.5 -11q20 0 37 13.5t17 40.5q0 21 -14 32.5t-33 11.5q-15 0 -26 -5t-19 -12l-79 38l76 171h222l-17 -83h-154l-24 -55q11 7 25 10t27 3q54 0 85 -28.5t31 -76.5q0 -30 -11.5 -56.5t-32 -46t-49.5 -30.5t-63 -11q-30 0 -56 8.5t-45 24.5 t-30 39.5t-11 52.5z" />
<glyph horiz-adv-x="371" d="M382 615q-14 7 -32.5 12.5t-44.5 5.5q-35 0 -67.5 -17.5t-47.5 -51.5q14 11 34 16.5t38 5.5q55 0 85 -30t30 -78q0 -33 -12.5 -60t-34 -46t-50.5 -29.5t-61 -10.5q-30 0 -56.5 10.5t-46 30t-30.5 48t-11 63.5q0 52 18.5 94.5t50 73t73.5 47t89 16.5q66 0 109 -25z M232 513q-21 0 -38.5 -14t-17.5 -39q0 -21 13.5 -33.5t33.5 -12.5q21 0 38 14.5t17 41.5q0 19 -12.5 31t-33.5 12z" />
<glyph horiz-adv-x="341" d="M393 626q-18 -12 -45 -34.5t-56 -57t-57 -82.5t-47 -111h-106q16 65 47 117t61.5 88t55 56.5t27.5 22.5h-183l17 84h304z" />
<glyph horiz-adv-x="364" d="M203 597q0 -14 10.5 -24t27.5 -10q20 0 34 11.5t14 30.5q0 11 -9 22t-31 11q-23 0 -34.5 -12.5t-11.5 -28.5zM163 448q0 -18 14 -28t34 -10q26 0 41 13.5t15 32.5q0 14 -11.5 26t-37.5 12t-40.5 -14.5t-14.5 -31.5zM211 332q-75 0 -112 29.5t-37 74.5q0 36 26.5 62.5 t67.5 34.5q-21 9 -34.5 29.5t-13.5 42.5q0 47 39.5 79t105.5 32q67 0 101.5 -28.5t34.5 -70.5q0 -31 -22 -55.5t-59 -35.5q24 -8 40.5 -29.5t16.5 -46.5q0 -26 -11.5 -48t-32.5 -37.5t-49 -24t-61 -8.5z" />
<glyph horiz-adv-x="371" d="M88 436q15 -9 35.5 -14.5t46.5 -5.5q16 0 33 4.5t32.5 13.5t27 22.5t17.5 31.5q-13 -12 -32 -18t-37 -6q-55 0 -87 30t-32 77q0 33 12.5 59.5t34 45.5t50 29.5t60.5 10.5q31 0 57 -10t45.5 -29.5t30.5 -47t11 -62.5q0 -54 -17.5 -97.5t-47.5 -73.5t-71 -46.5t-89 -16.5 q-35 0 -63 7.5t-51 21.5zM236 534q22 0 38.5 15.5t16.5 40.5q0 20 -13 32.5t-32 12.5q-22 0 -38.5 -15.5t-16.5 -41.5q0 -19 12.5 -31.5t32.5 -12.5z" />
<glyph horiz-adv-x="424" d="M463 709l-59 -274q-3 -14 -5 -29t-2 -29q0 -10 1 -14h-93q-1 3 -1 12q0 11 3 29q-10 -15 -32.5 -31t-58.5 -16q-32 0 -57 12t-42 33t-26.5 49.5t-9.5 60.5q0 45 13.5 83t37.5 65t56 42.5t69 15.5q25 0 42.5 -5t29 -12.5t17.5 -15t9 -13.5l9 37h99zM266 626 q-21 0 -36.5 -9.5t-26 -25.5t-15.5 -35.5t-5 -38.5q0 -35 17.5 -53.5t45.5 -18.5q31 0 56.5 28t25.5 84q0 34 -17 51.5t-45 17.5z" />
<glyph horiz-adv-x="433" d="M64 363l106 507h101l-39 -188q13 14 36.5 24t52.5 10q33 0 58.5 -11.5t42.5 -31t25.5 -45.5t8.5 -56q0 -48 -14 -87.5t-38.5 -68.5t-57.5 -45t-71 -16q-42 0 -68.5 18t-34.5 35l-10 -45h-98zM286 628q-19 0 -35 -9t-28 -24t-18.5 -34.5t-6.5 -41.5q0 -36 19.5 -54.5 t47.5 -18.5q15 0 31 7t28.5 20.5t21 34t8.5 47.5q0 37 -19.5 55t-48.5 18z" />
<glyph horiz-adv-x="393" d="M338 576q-4 20 -20 35.5t-47 15.5q-16 0 -32 -7t-29 -20.5t-21 -34t-8 -47.5q0 -34 20 -53t52 -19q27 0 45 13.5t27 32.5l84 -32q-9 -21 -24 -40.5t-35 -34.5t-46.5 -24t-57.5 -9q-5 0 -9 0.5t-8 0.5q-33 3 -60.5 16t-47 34.5t-30.5 50.5t-11 62q0 47 16.5 84.5t44 64 t63 41t74.5 14.5q35 0 62 -10.5t45.5 -27t29.5 -37.5t15 -43z" />
<glyph horiz-adv-x="424" d="M266 626q-21 0 -36.5 -9.5t-26 -25.5t-15.5 -35.5t-5 -38.5q0 -35 17.5 -53.5t45.5 -18.5q31 0 56.5 28t25.5 84q0 34 -17 51.5t-45 17.5zM307 404q-11 -16 -33 -31.5t-58 -15.5q-32 0 -57 12t-42 33t-26.5 49.5t-9.5 60.5q0 45 13.5 83t37.5 65t56 42.5t69 15.5 q44 0 66 -14.5t30 -27.5l41 194h102l-92 -435q-3 -12 -5 -26.5t-2 -29.5v-7.5t1 -8.5h-93q-1 5 -1 9v6q0 12 3 26z" />
<glyph horiz-adv-x="393" d="M325 577q1 1 1 3.5v3.5q0 9 -3 18.5t-10.5 17.5t-19.5 13.5t-29 5.5q-33 0 -52.5 -18t-27.5 -44h141zM174 509q0 -29 19 -50.5t55 -21.5q25 0 43 12t26 29l79 -37q-17 -34 -55 -61t-101 -27q-32 0 -61 11.5t-51 32.5t-35 50.5t-13 65.5q0 48 16 86.5t42 65t59 41t68 14.5 q74 0 114.5 -41.5t40.5 -105.5q0 -14 -2.5 -31t-7.5 -32z" />
<glyph horiz-adv-x="275" d="M255 623l-56 -260h-102l55 260h-58l18 86h59l11 52q13 62 51.5 88t88.5 26q17 0 34 -3.5t27 -8.5l-19 -84q-13 7 -30 7q-46 0 -55 -46l-6 -31h72l-19 -86h-71z" />
<glyph horiz-adv-x="425" d="M329 563q0 29 -17.5 46.5t-45.5 17.5q-35 0 -58.5 -26t-23.5 -68q0 -29 17.5 -46.5t46.5 -17.5q32 0 56.5 24.5t24.5 69.5zM129 370q0 -26 17.5 -44t52.5 -18q75 0 96 86l5 22q-10 -12 -29.5 -22.5t-48.5 -10.5q-33 0 -59 11t-44 30.5t-27.5 45.5t-9.5 57q0 39 13 74 t36.5 60.5t55 40.5t69.5 15q43 0 67.5 -14.5t32.5 -30.5l9 37h99l-67 -317q-8 -36 -23.5 -67t-40 -54.5t-57 -37t-74.5 -13.5t-72.5 12t-50.5 31t-29.5 42.5t-9.5 47.5z" />
<glyph horiz-adv-x="411" d="M279 362l43 198q1 5 1.5 9t0.5 8q0 23 -13 36.5t-37 13.5q-28 0 -44 -18.5t-22 -45.5l-44 -201h-101l107 507h102l-40 -189q17 20 41.5 29t47.5 9q55 0 81.5 -31.5t26.5 -79.5q0 -7 -1 -17.5t-3 -20.5l-44 -207h-102z" />
<glyph horiz-adv-x="200" d="M149 814q0 27 19.5 46.5t47.5 19.5q24 0 39 -15.5t15 -37.5q0 -30 -20.5 -48t-46.5 -18q-23 0 -38.5 15t-15.5 38zM63 363l74 346h102l-74 -346h-102z" />
<glyph horiz-adv-x="200" d="M137 709h102l-82 -386q-11 -52 -43 -77.5t-77 -25.5q-26 0 -43.5 6t-24.5 11l17 80q9 -5 17.5 -6t15.5 -1q15 0 26.5 7.5t14.5 28.5zM150 814q0 27 19 46.5t47 19.5q25 0 40 -15.5t15 -37.5q0 -30 -20.5 -48t-46.5 -18q-24 0 -39 15t-15 38z" />
<glyph horiz-adv-x="394" d="M230 493l-47 -40l-19 -90h-101l107 507h102l-58 -273l127 112h140l-173 -148l97 -198h-114z" />
<glyph horiz-adv-x="199" d="M63 363l107 507h102l-107 -507h-102z" />
<glyph horiz-adv-x="623" d="M491 363l43 199q1 5 1.5 9t0.5 9q0 21 -12.5 34.5t-37.5 13.5q-23 0 -39 -16.5t-23 -46.5l-44 -202h-103l43 199q1 5 1.5 9t0.5 9q0 21 -12.5 34.5t-37.5 13.5q-23 0 -39.5 -16.5t-23.5 -46.5l-44 -202h-101l60 288q5 25 6 39.5t1 18.5h99v-14t-2 -18q17 21 42 31.5 t51 10.5q35 0 58 -14t35 -37q13 17 29 27t31.5 15.5t30 7t25.5 1.5q51 0 81 -32t30 -81q0 -18 -4 -34l-45 -209h-101z" />
<glyph horiz-adv-x="412" d="M280 363l43 198q1 5 1.5 9t0.5 8q0 23 -13 36.5t-37 13.5q-28 0 -44 -18.5t-22 -45.5l-44 -201h-101l60 288q5 25 6 39.5t1 18.5h99v-12.5t-2 -20.5q17 23 43 33t51 10q54 0 81 -31.5t27 -79.5q0 -9 -1 -18.5t-3 -19.5l-44 -207h-102z" />
<glyph horiz-adv-x="414" d="M269 629q-19 0 -35 -9t-27 -24t-17.5 -34.5t-6.5 -41.5q0 -35 18.5 -54t46.5 -19q15 0 30.5 6.5t28 20t20.5 33.5t8 48q0 36 -18 54.5t-48 19.5zM437 559q0 -41 -14.5 -78.5t-40 -65.5t-62 -44.5t-79.5 -16.5q-36 0 -65.5 12.5t-50.5 34t-32.5 51t-11.5 64.5 q0 46 15.5 84t42.5 65t62.5 41.5t75.5 14.5q37 0 66.5 -12.5t50.5 -34t32 -51.5t11 -64z" />
<glyph horiz-adv-x="434" d="M287 628q-19 0 -35 -9t-27.5 -24t-18 -34.5t-6.5 -41.5q0 -36 19 -54.5t47 -18.5q15 0 30.5 7t28.5 20.5t21 34t8 47.5q0 37 -19 55t-48 18zM229 675q14 17 38.5 29t54.5 12q34 0 59 -11t42 -30t25.5 -45.5t8.5 -56.5q0 -48 -13.5 -88t-37.5 -69t-57 -45t-72 -16 q-40 0 -66.5 14.5t-37.5 31.5l-36 -171h-101l89 421q5 25 6 39.5t1 18.5h99v-14.5t-2 -19.5z" />
<glyph horiz-adv-x="424" d="M361 229h-102l33 156q-13 -12 -31.5 -20t-43.5 -8q-32 0 -57 12.5t-42.5 33.5t-27 49t-9.5 60q0 45 13.5 83t37.5 65t56 42.5t69 15.5q25 0 42.5 -5t29 -12.5t18 -15t9.5 -13.5l8 37h99zM266 625q-20 0 -35.5 -9.5t-26 -25t-16 -35t-5.5 -38.5q0 -35 17.5 -53.5 t46.5 -18.5q31 0 56.5 28t25.5 83q0 34 -17 51.5t-46 17.5z" />
<glyph horiz-adv-x="282" d="M330 607q-20 5 -37 5q-14 0 -28 -3.5t-26.5 -13.5t-22.5 -27.5t-16 -45.5l-35 -159h-101l61 288q5 25 6 39.5t1 18.5h98v-14.5t-2 -24.5q16 23 39 32.5t45 9.5q13 0 22.5 -1.5t17.5 -3.5z" />
<glyph horiz-adv-x="332" d="M151 483q-1 -4 -1 -8q0 -20 13 -34t36 -14q20 0 29.5 9.5t9.5 21.5q0 8 -4.5 16.5t-20.5 14.5l-35 15q-43 19 -60 43.5t-17 56.5q0 24 9.5 45t27.5 36.5t42.5 25t54.5 9.5q40 0 65.5 -11.5t40 -28t20 -35t5.5 -33.5l-87 -12q0 14 -8.5 30t-36.5 16q-17 0 -27 -8.5 t-10 -22.5q0 -19 19 -27l44 -18q42 -17 60 -43.5t18 -58.5q0 -21 -8.5 -41.5t-25.5 -37t-42.5 -26.5t-59.5 -10q-28 0 -53 6.5t-43.5 20.5t-29.5 36t-11 53z" />
<glyph horiz-adv-x="279" d="M219 491q-2 -8 -2 -16q0 -16 9.5 -23t26.5 -7q14 0 26 3l-18 -81q-3 -2 -15.5 -5.5t-31.5 -3.5q-48 0 -74.5 25t-26.5 68q0 14 3 29l29 140h-60l19 89h16q29 0 44.5 15t21.5 42l10 46h92l-23 -103h68l-19 -89h-67z" />
<glyph horiz-adv-x="409" d="M234 709l-42 -196q-2 -5 -2 -10v-10q0 -22 12 -35.5t37 -13.5q15 0 26 6t18.5 16t12 21t6.5 22l44 200h101l-59 -282q-3 -15 -5 -31t-2 -33h-98q-1 5 -1 9v8v7t1 10q-12 -21 -36 -31.5t-48 -10.5q-57 0 -85.5 33t-28.5 82q0 19 4 36l44 203h101z" />
<glyph horiz-adv-x="369" d="M251 363h-101l-62 346h106l28 -221l116 221h114z" />
<glyph horiz-adv-x="591" d="M435 709l25 -210l98 210h105l-177 -346h-100l-28 228l-117 -228h-105l-33 346h100l15 -209l109 209h108z" />
<glyph horiz-adv-x="380" d="M144 363h-121l163 178l-91 168h112l46 -96l82 96h123l-161 -175l92 -171h-112l-48 99z" />
<glyph horiz-adv-x="372" d="M41 230l116 187l-73 292h107l42 -186l110 186h113l-303 -479h-112z" />
<glyph horiz-adv-x="358" d="M48 363l19 90l188 170h-147l19 86h282l-19 -84l-196 -175h163l-19 -87h-290z" />
<glyph d="M376 429h-104l-43 -158h104zM306 175h-105l-48 -175h-105l48 175h-70v96h98l43 158h-92v96h120l51 184h104l-51 -184h105l51 184h105l-51 -184h71v-96h-99l-43 -158h92v-96h-119l-49 -175h-104z" />
<glyph d="M110 494q0 46 17.5 84t47.5 65.5t69.5 44t83.5 19.5h4l23 114h110l-26 -125q40 -12 67.5 -33.5t44 -47.5t23.5 -53t7 -50l-123 -21q0 10 -3.5 27.5t-15.5 34t-34.5 28.5t-59.5 12q-46 0 -74 -26t-28 -61q0 -30 15.5 -47t40.5 -28l77 -34q76 -33 110 -79t34 -108 q0 -39 -15.5 -76t-45 -66t-72 -47t-96.5 -21l-24 -115h-111l27 127q-42 12 -72.5 34.5t-49.5 50.5t-28 58t-9 59q0 10 0.5 17.5t1.5 13.5l122 21q-1 -5 -1.5 -12t-0.5 -14q0 -24 7.5 -46.5t23 -40t40 -27.5t58.5 -10q50 0 78.5 23t28.5 61q0 24 -12 43.5t-46 33.5l-84 35 q-66 28 -98 74.5t-32 107.5z" />
<glyph d="M548 470l-509 -326l20 99l509 327zM186 441q-27 0 -50 9.5t-39.5 26.5t-26 40t-9.5 49q0 33 12.5 61t34 48t49 31.5t57.5 11.5q27 0 50.5 -10t40 -27t26 -40t9.5 -49q0 -33 -13 -61t-34.5 -48t-49.5 -31t-57 -11zM207 638q-23 0 -42 -17.5t-19 -49.5q0 -21 12.5 -35.5 t34.5 -14.5q23 0 42.5 18t19.5 50q0 20 -12.5 34.5t-35.5 14.5zM268 119q0 33 12.5 61t34 48t49.5 31.5t58 11.5q27 0 50 -10t39.5 -27t26 -40t9.5 -49q0 -33 -13 -61t-34.5 -48t-49 -31t-56.5 -11q-27 0 -50.5 9.5t-40 26.5t-26 40t-9.5 49zM415 191q-23 0 -42.5 -17.5 t-19.5 -49.5q0 -21 12.5 -35.5t35.5 -14.5t41.5 18t18.5 50q0 20 -12 34.5t-34 14.5z" />
<glyph d="M246 403v195h113v-195h189v-109h-189v-196h-113v196h-189v109h189z" />
<glyph d="M593 460q0 -45 -8 -97t-25 -105t-43.5 -102t-64 -86.5t-86.5 -60.5t-110 -23q-66 0 -112 22.5t-74.5 60t-41.5 85t-13 97.5q0 44 8 96t24.5 104.5t43 101.5t64 86.5t86.5 60.5t111 23q66 0 111.5 -22.5t74.5 -59t42 -84t13 -97.5zM455 452q0 31 -5.5 58.5t-18.5 47 t-34.5 31t-54.5 11.5q-34 0 -61.5 -16.5t-48.5 -43.5t-36 -62.5t-25 -73.5t-14.5 -76t-4.5 -71q0 -32 6 -59.5t19 -47t34.5 -30.5t53.5 -11q51 0 87 35.5t59 87.5t33.5 112t10.5 108z" />
<glyph d="M10 0l25 117h157l77 365h-135l20 95q71 2 114 39.5t66 92.5h121l-126 -592h170l-25 -117h-464z" />
<glyph d="M502 120l-28 -120h-493q10 101 61.5 179.5t159.5 128.5l132 61q58 26 85.5 60t27.5 81q0 37 -25 64.5t-75 27.5q-62 0 -93.5 -40.5t-31.5 -108.5l-130 15q1 55 20.5 102t54 81t83 53t108.5 19q55 0 97 -17.5t70 -47t42.5 -67t14.5 -77.5q0 -44 -12.5 -79.5t-36 -64.5 t-57 -53t-76.5 -44l-150 -71q-26 -12 -49.5 -33t-34.5 -49h336z" />
<glyph d="M256 -14q-62 0 -108 19t-77.5 50.5t-47 72.5t-15.5 85v9t2 11l136 17q-2 -7 -2 -13v-11q0 -54 31 -87.5t82 -33.5q29 0 53 10t41.5 28t27 42t9.5 52q0 53 -30 79t-79 26q-11 0 -24 -2t-22 -6l-47 98l232 158h-311l23 119h481l-25 -132l-221 -150q35 -3 65 -17.5t51.5 -39 t34 -57.5t12.5 -72q0 -50 -20 -96.5t-56 -81.5t-86 -56t-110 -21z" />
<glyph d="M261 0l31 153h-316l31 147l373 409h168l-93 -436h119l-24 -120h-120l-32 -153h-137zM131 273h187l61 284z" />
<glyph d="M213 427q18 19 49 28t58 9q51 0 90.5 -14.5t66 -41.5t40.5 -64.5t14 -83.5q0 -57 -20 -107t-57 -87t-88 -58.5t-114 -21.5q-56 0 -100.5 18.5t-75 50.5t-46.5 74t-16 90l130 24q-1 -5 -1 -9v-6q0 -24 6.5 -46t20.5 -39.5t35.5 -27.5t51.5 -10q27 0 51 9t43 27t30 44 t11 60q0 52 -30 81.5t-81 29.5q-32 0 -59 -10.5t-47 -29.5l-110 55l147 338h381l-25 -120h-283z" />
<glyph d="M437 602q-45 0 -85 -15t-73 -42t-57.5 -65.5t-37.5 -86.5q25 36 67.5 56t92.5 20q48 0 85.5 -14.5t64 -41.5t40.5 -65t14 -84q0 -62 -22 -113.5t-59.5 -88t-88.5 -56.5t-108 -20q-52 0 -96.5 18.5t-77.5 52.5t-51.5 82.5t-18.5 108.5q0 94 28.5 180t82 151.5t130.5 104 t175 38.5q62 0 109.5 -15.5t76.5 -38.5l-57 -104q-24 17 -58.5 27.5t-75.5 10.5zM301 358q-28 0 -53 -10t-44 -28.5t-30 -44t-11 -56.5q0 -51 29.5 -83t82.5 -32q26 0 50.5 9.5t43 27.5t30 44.5t11.5 59.5q0 51 -28 82t-81 31z" />
<glyph d="M614 594q-33 -23 -86.5 -70t-112.5 -120t-115.5 -173.5t-95.5 -230.5h-145q34 124 87.5 224t110 174t107.5 122t80 70h-344l25 119h514z" />
<glyph d="M429 353q44 -18 68 -60.5t24 -90.5q0 -51 -22 -91t-58.5 -68t-85 -42.5t-102.5 -14.5q-51 0 -94.5 13t-75.5 37t-50 59.5t-18 80.5q0 37 13 69t36.5 57t55 42.5t69.5 25.5q-38 17 -63.5 55t-25.5 86q0 47 19.5 86t53.5 67t80.5 43.5t101.5 15.5t97.5 -14.5t71 -39.5 t43.5 -58.5t15 -71.5q0 -33 -11 -63t-31 -54.5t-48.5 -42.5t-62.5 -26zM233 503q0 -37 25 -64t70 -27q53 0 83.5 31t30.5 76q0 35 -23.5 62t-71.5 27q-28 0 -49.5 -8.5t-35.5 -23t-21.5 -33.5t-7.5 -40zM150 198q0 -48 31 -73.5t81 -25.5q28 0 51.5 9.5t40.5 25t26 36.5 t9 44q0 39 -26.5 69t-86.5 30q-30 0 -53.5 -9.5t-39.5 -25.5t-24.5 -37t-8.5 -43z" />
<glyph d="M326 605q-25 0 -48.5 -9.5t-41.5 -27.5t-28.5 -43.5t-10.5 -58.5q0 -49 29 -80t81 -31q28 0 52 10t41.5 28t27.5 43t10 55q0 52 -30 83t-82 31zM331 723q54 0 99.5 -18t78.5 -52.5t51 -84.5t18 -113q0 -102 -29 -188t-81.5 -148t-125 -97t-160.5 -35q-54 0 -106 14.5 t-87 43.5l53 106q66 -43 142 -43q45 0 84.5 14.5t71 41.5t53.5 65.5t32 86.5q-26 -36 -65 -54.5t-87 -18.5q-47 0 -86.5 16t-68 44t-44 67t-15.5 86q0 62 22 111.5t59.5 84t86.5 53t104 18.5z" />
<glyph d="M62 398l430 218v-124l-296 -142l296 -144v-125l-430 217v100z" />
<glyph d="M53 395v107h485v-107h-485zM53 196v108h485v-108h-485z" />
<glyph d="M543 298l-430 -217v123l296 143l-296 144v125l430 -217v-101z" />
<glyph d="M338 495q-26 0 -51 -10.5t-44.5 -31.5t-32 -52t-12.5 -71q0 -52 30 -82t81 -30q41 0 69.5 21t43.5 52l108 -42q-13 -29 -33 -56t-47.5 -48t-62.5 -34.5t-77 -15.5l-19 -95h-101l23 110q-33 12 -59.5 32.5t-46 48.5t-30 62.5t-10.5 73.5q0 62 20.5 113t55 88.5t80 60.5 t95.5 28l20 92h101l-21 -101q32 -9 56.5 -25t42.5 -37t28.5 -45.5t15.5 -49.5l-120 -34q-6 30 -30.5 54t-72.5 24z" />
<glyph d="M554 182q-13 -84 -69 -133t-142 -49h-374l25 119q32 7 56 24t41 40.5t27 51.5t13 58h-100l22 102h72q-4 27 -7.5 54t-3.5 51q0 48 16 89t45.5 70.5t71.5 46t95 16.5q50 0 88 -15t63 -40t37.5 -56t12.5 -64q0 -19 -2 -29l-121 -13q2 6 2 11.5v10.5q0 34 -21.5 59t-62.5 25 q-42 0 -71 -28.5t-29 -85.5q0 -22 4 -48t8 -54h194l-22 -102h-165q-2 -29 -10.5 -56t-22 -50.5t-32.5 -42t-43 -28.5h188q44 0 70.5 24.5t32.5 61.5z" />
<glyph d="M87 349q0 29 8 56.5t22 50.5l-72 74l80 80l74 -76q23 13 49.5 20t55.5 7q55 0 102 -25l73 74l81 -80l-71 -72q31 -50 31 -109q0 -31 -8 -58.5t-22 -50.5l70 -71l-80 -80l-72 73q-47 -26 -104 -26q-58 0 -106 28l-74 -75l-79 80l71 72q-14 24 -21.5 51t-7.5 57zM199 349 q0 -47 29.5 -76t75.5 -29q45 0 74.5 29t29.5 76q0 46 -29.5 75t-74.5 29q-46 0 -75.5 -29t-29.5 -75z" />
<glyph d="M322 152l-31 -152h-132l33 152h-175l20 94h174l15 67h-175l20 95h113l-111 301h142l98 -287l215 287h150l-239 -301h122l-20 -95h-185l-14 -67h186l-21 -94h-185z" />
<glyph d="M415 189v195h-362v111h477v-306h-115z" />
<glyph d="M234 475v123h113v-123h178v-109h-178v-122h-113v122h-177v109h177zM525 206v-109h-468v109h468z" />
<glyph d="M302 269l-166 -168l-78 80l165 168l-165 168l79 79l165 -168l165 168l79 -79l-165 -168l166 -168l-79 -80z" />
<glyph d="M223 166q0 16 6 30t16.5 24.5t25 16.5t30.5 6t30.5 -6t25 -16.5t16.5 -24.5t6 -30t-6 -30t-16.5 -24.5t-25 -17t-30.5 -6.5t-30.5 6.5t-25 17t-16.5 24.5t-6 30zM223 533q0 16 6 30t16.5 24.5t25 16.5t30.5 6t30.5 -6t25 -16.5t16.5 -24.5t6 -30q0 -32 -23 -55.5 t-55 -23.5t-55 23.5t-23 55.5zM59 404h490v-110h-490v110z" />
<glyph d="M548 519l-513 -317l23 102l512 319zM171 475q-24 0 -44 8.5t-35 23.5t-23 35.5t-8 43.5q0 29 11 53.5t29.5 42.5t42.5 28t50 10q24 0 44.5 -8.5t35.5 -23.5t23.5 -35.5t8.5 -43.5q0 -30 -11.5 -54.5t-30 -42t-43 -27.5t-50.5 -10zM188 647q-20 0 -35.5 -16t-15.5 -42 q0 -18 10.5 -29.5t29.5 -11.5q20 0 36 14.5t16 41.5q0 20 -11 31.5t-30 11.5zM412 -9q-50 0 -80 35q-19 -17 -41.5 -26t-46.5 -9t-44 9t-35 24t-23 35t-8 43q0 29 11 53.5t29.5 42.5t43 28.5t50.5 10.5q25 0 45.5 -9.5t34.5 -25.5q35 35 86 35q24 0 44.5 -8.5t35.5 -23.5 t23.5 -35.5t8.5 -43.5q0 -30 -11.5 -54.5t-30 -42.5t-43 -28t-49.5 -10zM428 164q-20 0 -35.5 -16t-15.5 -42q0 -18 10.5 -29.5t29.5 -11.5q20 0 36 14.5t16 41.5q0 20 -11 31.5t-30 11.5zM262 164q-20 0 -35.5 -16t-15.5 -42q0 -18 10.5 -29.5t29.5 -11.5q20 0 36 14.5 t16 41.5q0 20 -11 31.5t-30 11.5z" />
<glyph d="M503 1q-18 -6 -46.5 -9.5t-51.5 -3.5q-56 0 -105 15.5t-87 45.5t-64 73.5t-36 99.5h-106l20 101h79q2 17 3.5 33t5.5 32h-73l21 100h84q24 52 60.5 95.5t82 74.5t99.5 48.5t114 17.5q47 0 83.5 -9.5t62.5 -23.5l-55 -110q-15 9 -44 16.5t-60 7.5q-59 0 -111 -30.5 t-88 -86.5h247l-51 -100h-238q-4 -15 -6.5 -31.5t-3.5 -33.5h215l-51 -101h-152q17 -54 59 -83t115 -29q19 0 39.5 2t31.5 5z" />
<glyph d="M63 294v109h476v-109h-476z" />
<glyph d="M567 458q-26 -45 -65.5 -72.5t-102.5 -27.5q-25 0 -50.5 8t-51.5 22l-48 26q-25 14 -53 14q-27 0 -48.5 -12.5t-38.5 -34.5l-73 59q26 44 65.5 72t103.5 28q48 0 101 -29l47 -26q28 -15 58 -15q53 0 85 46zM567 257q-26 -45 -65.5 -72.5t-102.5 -27.5q-25 0 -50.5 8 t-51.5 22l-48 26q-25 14 -53 14q-27 0 -48.5 -12.5t-38.5 -34.5l-73 59q26 44 65.5 72t103.5 28q48 0 101 -29l47 -26q28 -15 58 -15q53 0 85 46z" />
<glyph d="M271 196l-63 -97h-121l64 97h-91v108h161l60 91h-221v107h290l60 92h120l-60 -92h75v-107h-144l-60 -91h204v-108h-274z" />
<glyph d="M75 478l430 135v-110l-279 -78l279 -78v-112l-430 135v108zM505 206v-109h-430v109h430z" />
<glyph d="M519 370l-430 -135v110l280 78l-280 79v111l430 -135v-108zM519 206v-109h-430v109h430z" />
<glyph horiz-adv-x="495" d="M16 117h132l80 375h-138l18 90q65 5 113 39.5t70 87.5h120l-125 -592h155l-25 -117h-425z" />
<glyph horiz-adv-x="195" d="M60 511h-93l70 198h136z" />
<glyph horiz-adv-x="168" d="M128 613q0 -29 -21.5 -49.5t-54.5 -20.5t-53.5 22t-20.5 54q0 33 12.5 58t33 42t46.5 25.5t52 8.5q8 0 13 -0.5t10 -1.5l-10 -49q-2 1 -7.5 1.5t-8.5 0.5q-34 0 -52 -14t-22 -26q1 1 8 3t15 2q31 0 45.5 -17t14.5 -39z" />
<glyph horiz-adv-x="314" d="M-25 621q0 15 6 28t16 23.5t24 16.5t29 6q27 0 44 -17.5t17 -42.5q0 -16 -6.5 -29.5t-17 -23.5t-24 -15.5t-27.5 -5.5q-29 0 -45 17.5t-16 42.5zM143 621q0 15 6 28t16 23.5t24 16.5t29 6q27 0 44 -17.5t17 -42.5q0 -16 -6.5 -29.5t-17 -23.5t-24 -15.5t-27.5 -5.5 q-29 0 -45 17.5t-16 42.5z" />
<glyph horiz-adv-x="335" d="M-24 815q0 15 6 29t16.5 24.5t24.5 17t30 6.5q27 0 44 -18t17 -43q0 -34 -22.5 -55t-53.5 -21q-27 0 -44.5 17t-17.5 43zM161 815q0 15 6 29t16.5 24.5t24.5 17t30 6.5q27 0 44 -18t17 -43q0 -34 -22.5 -55t-53.5 -21q-27 0 -44.5 17t-17.5 43z" />
<glyph horiz-adv-x="274" d="M-12 886h155l76 -127h-115z" />
<glyph horiz-adv-x="426" d="M-19 815q0 31 23 55.5t57 24.5q29 0 47 -19t18 -45q0 -35 -24 -57.5t-55 -22.5q-29 0 -47.5 18t-18.5 46zM240 815q0 31 23 55.5t57 24.5q29 0 47 -19t18 -45q0 -35 -24 -57.5t-55 -22.5q-29 0 -47.5 18t-18.5 46z" />
<glyph horiz-adv-x="319" d="M-32 774l20 100h305l-21 -100h-304z" />
<glyph horiz-adv-x="274" d="M90 759h-128l128 127h169z" />
<glyph horiz-adv-x="393" d="M-36 759l146 127h137l94 -127h-116l-54 65l-82 -65h-125z" />
<glyph horiz-adv-x="393" d="M373 886l-148 -127h-137l-92 127h115l53 -64l81 64h128z" />
<glyph horiz-adv-x="350" d="M140 754q-64 0 -104.5 31.5t-40.5 86.5q0 3 0.5 9t1.5 8h96q-1 -5 -1 -10q0 -17 13 -29t41 -12q32 0 50 15.5t23 35.5h104q-7 -24 -21.5 -48.5t-37.5 -43.5t-54 -31t-70 -12z" />
<glyph horiz-adv-x="176" d="M-23 827q0 16 7 31.5t19 27.5t28.5 19.5t34.5 7.5q32 0 52.5 -20.5t20.5 -49.5q0 -19 -7 -35t-19 -28t-28 -19t-34 -7q-33 0 -53.5 21.5t-20.5 51.5z" />
<glyph horiz-adv-x="276" d="M111 917q-20 0 -36 -15t-16 -38q0 -19 12 -30t32 -11t36.5 14t16.5 38q0 19 -12.5 30.5t-32.5 11.5zM-23 857q0 29 11.5 54.5t31 44t45 29.5t54.5 11q25 0 47.5 -8.5t38.5 -24t25.5 -36.5t9.5 -45q0 -30 -12 -55.5t-32.5 -44t-46 -29t-52.5 -10.5q-25 0 -47 8.5t-38 24 t-25.5 36.5t-9.5 45z" />
<glyph horiz-adv-x="354" d="M342 890q-11 -76 -45 -106.5t-78 -30.5q-23 0 -41 7.5t-32 16.5l-5 3q-13 8 -24.5 14t-22.5 6q-13 0 -22.5 -10t-13.5 -33h-85q4 38 15.5 64t29 42t38.5 23t43 7q23 0 41.5 -8t32.5 -17l3 -2q14 -9 23.5 -14t20.5 -5q14 0 23.5 10t13.5 33h85z" />
<glyph horiz-adv-x="365" d="M49 759h-88l78 127h131zM209 759h-90l92 127h132z" />
<glyph horiz-adv-x="194" d="M58 501h-97l73 208h142z" />
<glyph horiz-adv-x="169" d="M-21 -111q0 29 21.5 49t54.5 20q35 0 55 -21.5t20 -53.5q0 -33 -12 -58t-32 -41.5t-45 -25t-51 -8.5q-10 0 -18 1t-11 2l11 47q4 -1 8 -1h6q22 0 44 8t31 31q-1 -1 -7 -2.5t-14 -1.5q-30 0 -45.5 16.5t-15.5 38.5z" />
</font>
</defs>
</svg>
